<svg xmlns="http://www.w3.org/2000/svg" xmlns:xlink="http://www.w3.org/1999/xlink" viewBox="0 0 91 76.2"><defs><style>.cls-1,.cls-2,.cls-3{fill:none;stroke-miterlimit:10;}.cls-1{opacity:0.7;stroke:url(#linear-gradient);}.cls-2{opacity:0.4;stroke:url(#linear-gradient-2);}.cls-3{stroke:url(#linear-gradient-3);}</style><linearGradient id="linear-gradient" x1="7.55" y1="40.45" x2="88.45" y2="40.45" gradientUnits="userSpaceOnUse"><stop offset="0" stop-color="#4474ff"/><stop offset="0.34" stop-color="#417cff"/><stop offset="0.86" stop-color="#3a92ff"/><stop offset="1" stop-color="#3799ff"/></linearGradient><linearGradient id="linear-gradient-2" x1="14.38" y1="44.18" x2="91" y2="44.18" xlink:href="#linear-gradient"/><linearGradient id="linear-gradient-3" x1="0" y1="35.97" x2="86.07" y2="35.97" xlink:href="#linear-gradient"/></defs><g id="Layer_2" data-name="Layer 2"><g id="Layer_1-2" data-name="Layer 1"><path class="cls-1" d="M41.81,11.33l-1.05,7.24a3.54,3.54,0,0,1-3.35,3,13.93,13.93,0,0,0-6.93,1.94,12.32,12.32,0,0,0-5.23,6.82,20.13,20.13,0,0,0-.89,6.92,3.53,3.53,0,0,0,3.53,3.38H38.81a3.52,3.52,0,0,1,3.52,3.52V70.24a3.52,3.52,0,0,1-3.52,3.52H11.57a3.52,3.52,0,0,1-3.52-3.52V40.64q0-17.55,8.44-26.55,7.5-8,22.09-6.79A3.55,3.55,0,0,1,41.81,11.33Zm45.62,0-1.05,7.24a3.53,3.53,0,0,1-3.35,3,13.93,13.93,0,0,0-6.93,1.94,12.32,12.32,0,0,0-5.23,6.82A20.13,20.13,0,0,0,70,37.26a3.53,3.53,0,0,0,3.53,3.38H84.43A3.52,3.52,0,0,1,88,44.16V70.24a3.52,3.52,0,0,1-3.52,3.52H57.19a3.52,3.52,0,0,1-3.52-3.52V40.64q0-17.55,8.44-26.55,7.5-8,22.09-6.79A3.55,3.55,0,0,1,87.43,11.33Z"/><path class="cls-2" d="M46.81,16.81l-1,6.5a3.53,3.53,0,0,1-3.34,3,13.13,13.13,0,0,0-6.41,1.84,11.63,11.63,0,0,0-4.95,6.45A19,19,0,0,0,30.32,41a3.5,3.5,0,0,0,3.52,3.37h10a3.53,3.53,0,0,1,3.53,3.52V72.18A3.53,3.53,0,0,1,43.8,75.7H18.41a3.53,3.53,0,0,1-3.53-3.52V44.35q0-16.59,8-25.12,7-7.53,20.7-6.44A3.54,3.54,0,0,1,46.81,16.81Zm43.17,0L89,23.31a3.55,3.55,0,0,1-3.35,3,13.16,13.16,0,0,0-6.41,1.84,11.57,11.57,0,0,0-4.94,6.45A18.76,18.76,0,0,0,73.49,41,3.51,3.51,0,0,0,77,44.35H87a3.53,3.53,0,0,1,3.52,3.52V72.18A3.53,3.53,0,0,1,87,75.7H61.58a3.53,3.53,0,0,1-3.52-3.52V44.35q0-16.59,8-25.12,7-7.53,20.7-6.44A3.53,3.53,0,0,1,90,16.81Z"/><path class="cls-3" d="M36.48,4.71,35.3,12.86a3.51,3.51,0,0,1-3.35,3,15.06,15.06,0,0,0-7.57,2.08,13.1,13.1,0,0,0-5.57,7.27,21.34,21.34,0,0,0-.93,7.58,3.53,3.53,0,0,0,3.52,3.37H33.48A3.53,3.53,0,0,1,37,39.69V67.91a3.52,3.52,0,0,1-3.52,3.52H4A3.52,3.52,0,0,1,.5,67.91V36.16q0-18.66,9-28.26Q17.55-.7,33.26.69A3.55,3.55,0,0,1,36.48,4.71Zm48.57,0-1.18,8.15a3.5,3.5,0,0,1-3.35,3A15.06,15.06,0,0,0,73,17.94a13,13,0,0,0-5.56,7.27,21.33,21.33,0,0,0-.94,7.58A3.53,3.53,0,0,0,70,36.16H82.05a3.53,3.53,0,0,1,3.52,3.53V67.91a3.52,3.52,0,0,1-3.52,3.52H52.59a3.52,3.52,0,0,1-3.52-3.52V36.16q0-18.66,9-28.26Q66.11-.7,81.83.69A3.55,3.55,0,0,1,85.05,4.71Z"/></g></g></svg>