<svg xmlns="http://www.w3.org/2000/svg" viewBox="0 0 90 75.2"><defs><style>.cls-1{opacity:0.2;}.cls-2{opacity:0.75;}.cls-3{opacity:0.5;}</style></defs><g id="Layer_2" data-name="Layer 2"><g id="Layer_1-2" data-name="Layer 1"><g class="cls-1"><g class="cls-2"><path d="M41.31,10.83l-1.05,7.24a3.54,3.54,0,0,1-3.35,3A13.93,13.93,0,0,0,30,23a12.32,12.32,0,0,0-5.23,6.82,20.13,20.13,0,0,0-.89,6.92,3.53,3.53,0,0,0,3.53,3.38H38.31a3.52,3.52,0,0,1,3.52,3.52V69.74a3.52,3.52,0,0,1-3.52,3.52H11.07a3.52,3.52,0,0,1-3.52-3.52V40.14q0-17.55,8.44-26.55,7.5-8,22.09-6.79A3.55,3.55,0,0,1,41.31,10.83Zm45.62,0-1.05,7.24a3.53,3.53,0,0,1-3.35,3A13.93,13.93,0,0,0,75.6,23a12.32,12.32,0,0,0-5.23,6.82,20.13,20.13,0,0,0-.89,6.92A3.53,3.53,0,0,0,73,40.14H83.93a3.52,3.52,0,0,1,3.52,3.52V69.74a3.52,3.52,0,0,1-3.52,3.52H56.69a3.52,3.52,0,0,1-3.52-3.52V40.14q0-17.55,8.44-26.55,7.5-8,22.09-6.79A3.55,3.55,0,0,1,86.93,10.83Z"/></g><g class="cls-3"><path d="M46.31,16.31l-1,6.5a3.53,3.53,0,0,1-3.34,3,13.13,13.13,0,0,0-6.41,1.84,11.63,11.63,0,0,0-4.95,6.45,19,19,0,0,0-.84,6.37,3.5,3.5,0,0,0,3.52,3.37h10a3.53,3.53,0,0,1,3.53,3.52V71.68A3.53,3.53,0,0,1,43.3,75.2H17.91a3.53,3.53,0,0,1-3.53-3.52V43.85q0-16.59,8-25.12,7-7.53,20.7-6.44A3.54,3.54,0,0,1,46.31,16.31Zm43.17,0-.94,6.5a3.55,3.55,0,0,1-3.35,3,13.16,13.16,0,0,0-6.41,1.84,11.57,11.57,0,0,0-4.94,6.45A18.76,18.76,0,0,0,73,40.48a3.51,3.51,0,0,0,3.53,3.37h10A3.53,3.53,0,0,1,90,47.37V71.68a3.53,3.53,0,0,1-3.52,3.52H61.08a3.53,3.53,0,0,1-3.52-3.52V43.85q0-16.59,8-25.12,7-7.53,20.7-6.44A3.53,3.53,0,0,1,89.48,16.31Z"/></g><path d="M36,4.21,34.8,12.36a3.51,3.51,0,0,1-3.35,3,15.06,15.06,0,0,0-7.57,2.08,13.1,13.1,0,0,0-5.57,7.27,21.34,21.34,0,0,0-.93,7.58,3.53,3.53,0,0,0,3.52,3.37H33a3.53,3.53,0,0,1,3.52,3.53V67.41A3.52,3.52,0,0,1,33,70.93H3.52A3.52,3.52,0,0,1,0,67.41V35.66Q0,17,9,7.4,17-1.2,32.76.19A3.55,3.55,0,0,1,36,4.21Zm48.57,0-1.18,8.15a3.5,3.5,0,0,1-3.35,3,15.06,15.06,0,0,0-7.57,2.08,13,13,0,0,0-5.56,7.27A21.33,21.33,0,0,0,66,32.29a3.53,3.53,0,0,0,3.53,3.37H81.55a3.53,3.53,0,0,1,3.52,3.53V67.41a3.52,3.52,0,0,1-3.52,3.52H52.09a3.52,3.52,0,0,1-3.52-3.52V35.66q0-18.66,9-28.26Q65.61-1.2,81.33.19A3.55,3.55,0,0,1,84.55,4.21Z"/></g></g></g></svg>