<svg width="238" height="110" viewBox="0 0 238 110" fill="none" xmlns="http://www.w3.org/2000/svg">
<path d="M37.8698 11.5608H35.0579V14.3122H34.1055V11.5608H31.2936V10.6688H34.1055V7.90228H35.0579V10.6688H37.8698V11.5608ZM43.0128 5.72533C44.4137 5.72533 45.487 6.18894 46.2329 7.11616C46.9787 8.0333 47.3516 9.33342 47.3516 11.0165C47.3516 12.1957 47.15 13.1935 46.7469 14.0098C46.3437 14.8262 45.7793 15.446 45.0537 15.8693C44.328 16.2825 43.4814 16.4891 42.5139 16.4891C41.4657 16.4891 40.6292 16.2977 40.0044 15.9147L40.4428 15.0378C40.9467 15.3704 41.632 15.5367 42.4988 15.5367C43.6679 15.5367 44.585 15.1689 45.2502 14.4331C45.9154 13.6873 46.248 12.6089 46.248 11.1979C46.248 10.9359 46.2329 10.6487 46.2026 10.3362C45.9406 10.9107 45.5223 11.3592 44.9478 11.6817C44.3734 11.9941 43.7132 12.1504 42.9674 12.1504C42.272 12.1504 41.6522 12.0193 41.1079 11.7573C40.5738 11.4953 40.1555 11.1274 39.8532 10.6537C39.5508 10.1699 39.3996 9.61058 39.3996 8.97564C39.3996 8.33061 39.5559 7.76118 39.8683 7.26733C40.1807 6.77349 40.6091 6.39555 41.1533 6.1335C41.7076 5.86139 42.3274 5.72533 43.0128 5.72533ZM43.1337 11.2282C43.6679 11.2282 44.1365 11.1274 44.5397 10.9258C44.9529 10.7243 45.2754 10.4471 45.5072 10.0943C45.739 9.7416 45.8549 9.34854 45.8549 8.91517C45.8549 8.51203 45.744 8.13912 45.5223 7.79645C45.3107 7.45379 44.9932 7.17663 44.5699 6.96498C44.1466 6.75333 43.6427 6.64751 43.0581 6.64751C42.2922 6.64751 41.6673 6.85916 41.1835 7.28245C40.7098 7.69567 40.473 8.24999 40.473 8.9454C40.473 9.64082 40.7098 10.1951 41.1835 10.6084C41.6673 11.0216 42.3174 11.2282 43.1337 11.2282ZM51.8328 5.81603V16.3984H50.7443V6.78357H48.2499V5.81603H51.8328ZM64.3812 10.8502C65.0464 11.072 65.5553 11.4046 65.9081 11.848C66.2709 12.2915 66.4523 12.8256 66.4523 13.4505C66.4523 14.0653 66.286 14.6045 65.9534 15.0681C65.6209 15.5216 65.1421 15.8744 64.5173 16.1263C63.9025 16.3682 63.1768 16.4891 62.3403 16.4891C61.0704 16.4891 60.0727 16.217 59.347 15.6728C58.6214 15.1285 58.2585 14.3878 58.2585 13.4505C58.2585 12.8155 58.4299 12.2814 58.7725 11.848C59.1253 11.4046 59.6342 11.072 60.2994 10.8502C59.7552 10.6386 59.342 10.3362 59.0598 9.94317C58.7776 9.54003 58.6365 9.06634 58.6365 8.5221C58.6365 7.66543 58.9691 6.98514 59.6342 6.48121C60.3095 5.97729 61.2115 5.72533 62.3403 5.72533C63.0861 5.72533 63.7362 5.84123 64.2905 6.07303C64.8549 6.29476 65.2933 6.61727 65.6057 7.04057C65.9182 7.46386 66.0744 7.95771 66.0744 8.5221C66.0744 9.06634 65.9283 9.54003 65.636 9.94317C65.3437 10.3362 64.9254 10.6386 64.3812 10.8502ZM59.7249 8.55234C59.7249 9.13689 59.9568 9.6005 60.4204 9.94317C60.884 10.2858 61.524 10.4572 62.3403 10.4572C63.1567 10.4572 63.7967 10.2858 64.2603 9.94317C64.734 9.6005 64.9708 9.14193 64.9708 8.56746C64.9708 7.97283 64.7289 7.50418 64.2451 7.16151C63.7715 6.81884 63.1365 6.64751 62.3403 6.64751C61.534 6.64751 60.8941 6.81884 60.4204 7.16151C59.9568 7.50418 59.7249 7.96779 59.7249 8.55234ZM62.3403 15.567C63.2776 15.567 64.0083 15.3755 64.5324 14.9925C65.0665 14.6095 65.3336 14.0905 65.3336 13.4354C65.3336 12.7803 65.0665 12.2663 64.5324 11.8934C64.0083 11.5104 63.2776 11.3189 62.3403 11.3189C61.4131 11.3189 60.6824 11.5104 60.1482 11.8934C59.6242 12.2663 59.3621 12.7803 59.3621 13.4354C59.3621 14.1005 59.6242 14.6246 60.1482 15.0076C60.6723 15.3805 61.403 15.567 62.3403 15.567ZM71.5575 10.3513C72.6661 10.4118 73.5077 10.7142 74.0822 11.2584C74.6667 11.7926 74.959 12.493 74.959 13.3598C74.959 13.9645 74.8129 14.5037 74.5206 14.9774C74.2283 15.441 73.7949 15.8088 73.2205 16.081C72.646 16.3531 71.9455 16.4891 71.1191 16.4891C70.3531 16.4891 69.6275 16.3682 68.9422 16.1263C68.2669 15.8744 67.7227 15.5418 67.3094 15.1285L67.8386 14.2668C68.1913 14.6297 68.66 14.927 69.2445 15.1588C69.8291 15.3805 70.4539 15.4914 71.1191 15.4914C71.9859 15.4914 72.6561 15.3049 73.1298 14.932C73.6034 14.549 73.8403 14.025 73.8403 13.3598C73.8403 12.7047 73.6034 12.1907 73.1298 11.8178C72.6561 11.4449 71.9405 11.2584 70.983 11.2584H70.2272V10.4572L73.16 6.78357H67.7479V5.81603H74.5508V6.58704L71.5575 10.3513ZM79.7884 5.72533C81.1893 5.72533 82.2627 6.18894 83.0085 7.11616C83.7543 8.0333 84.1272 9.33342 84.1272 11.0165C84.1272 12.1957 83.9256 13.1935 83.5225 14.0098C83.1193 14.8262 82.555 15.446 81.8293 15.8693C81.1036 16.2825 80.2571 16.4891 79.2895 16.4891C78.2414 16.4891 77.4048 16.2977 76.78 15.9147L77.2184 15.0378C77.7223 15.3704 78.4077 15.5367 79.2744 15.5367C80.4435 15.5367 81.3607 15.1689 82.0258 14.4331C82.691 13.6873 83.0236 12.6089 83.0236 11.1979C83.0236 10.9359 83.0085 10.6487 82.9782 10.3362C82.7162 10.9107 82.2979 11.3592 81.7235 11.6817C81.149 11.9941 80.4889 12.1504 79.7431 12.1504C79.0476 12.1504 78.4278 12.0193 77.8836 11.7573C77.3494 11.4953 76.9312 11.1274 76.6288 10.6537C76.3264 10.1699 76.1753 9.61058 76.1753 8.97564C76.1753 8.33061 76.3315 7.76118 76.6439 7.26733C76.9564 6.77349 77.3847 6.39555 77.9289 6.1335C78.4832 5.86139 79.1031 5.72533 79.7884 5.72533ZM79.9093 11.2282C80.4435 11.2282 80.9122 11.1274 81.3153 10.9258C81.7285 10.7243 82.051 10.4471 82.2828 10.0943C82.5146 9.7416 82.6305 9.34854 82.6305 8.91517C82.6305 8.51203 82.5197 8.13912 82.2979 7.79645C82.0863 7.45379 81.7688 7.17663 81.3455 6.96498C80.9222 6.75333 80.4183 6.64751 79.8338 6.64751C79.0678 6.64751 78.4429 6.85916 77.9592 7.28245C77.4855 7.69567 77.2486 8.24999 77.2486 8.9454C77.2486 9.64082 77.4855 10.1951 77.9592 10.6084C78.4429 11.0216 79.093 11.2282 79.9093 11.2282ZM92.9019 15.4309V16.3984H85.479V15.6274L89.8783 11.3189C90.4326 10.7746 90.8055 10.306 90.997 9.91294C91.1986 9.5098 91.2994 9.10666 91.2994 8.70352C91.2994 8.07865 91.0827 7.59488 90.6493 7.25222C90.226 6.89947 89.6163 6.7231 88.8201 6.7231C87.5804 6.7231 86.6179 7.11616 85.9326 7.90228L85.1616 7.2371C85.5748 6.75333 86.0989 6.38043 86.7338 6.11839C87.3788 5.85635 88.1045 5.72533 88.9108 5.72533C89.9892 5.72533 90.8408 5.98233 91.4657 6.49633C92.1006 7.00025 92.4181 7.69567 92.4181 8.58258C92.4181 9.12681 92.2971 9.65089 92.0553 10.1548C91.8134 10.6587 91.3548 11.2383 90.6795 11.8934L87.0815 15.4309H92.9019ZM100.33 10.8502C100.995 11.072 101.504 11.4046 101.857 11.848C102.22 12.2915 102.401 12.8256 102.401 13.4505C102.401 14.0653 102.235 14.6045 101.902 15.0681C101.57 15.5216 101.091 15.8744 100.466 16.1263C99.8514 16.3682 99.1257 16.4891 98.2892 16.4891C97.0193 16.4891 96.0215 16.217 95.2959 15.6728C94.5702 15.1285 94.2074 14.3878 94.2074 13.4505C94.2074 12.8155 94.3787 12.2814 94.7214 11.848C95.0742 11.4046 95.5831 11.072 96.2483 10.8502C95.7041 10.6386 95.2908 10.3362 95.0086 9.94317C94.7264 9.54003 94.5853 9.06634 94.5853 8.5221C94.5853 7.66543 94.9179 6.98514 95.5831 6.48121C96.2584 5.97729 97.1604 5.72533 98.2892 5.72533C99.035 5.72533 99.6851 5.84123 100.239 6.07303C100.804 6.29476 101.242 6.61727 101.555 7.04057C101.867 7.46386 102.023 7.95771 102.023 8.5221C102.023 9.06634 101.877 9.54003 101.585 9.94317C101.293 10.3362 100.874 10.6386 100.33 10.8502ZM95.6738 8.55234C95.6738 9.13689 95.9056 9.6005 96.3692 9.94317C96.8328 10.2858 97.4728 10.4572 98.2892 10.4572C99.1055 10.4572 99.7455 10.2858 100.209 9.94317C100.683 9.6005 100.92 9.14193 100.92 8.56746C100.92 7.97283 100.678 7.50418 100.194 7.16151C99.7203 6.81884 99.0854 6.64751 98.2892 6.64751C97.4829 6.64751 96.8429 6.81884 96.3692 7.16151C95.9056 7.50418 95.6738 7.96779 95.6738 8.55234ZM98.2892 15.567C99.2265 15.567 99.9572 15.3755 100.481 14.9925C101.015 14.6095 101.282 14.0905 101.282 13.4354C101.282 12.7803 101.015 12.2663 100.481 11.8934C99.9572 11.5104 99.2265 11.3189 98.2892 11.3189C97.362 11.3189 96.6313 11.5104 96.0971 11.8934C95.573 12.2663 95.311 12.7803 95.311 13.4354C95.311 14.1005 95.573 14.6246 96.0971 15.0076C96.6212 15.3805 97.3519 15.567 98.2892 15.567ZM108.293 10.0641C108.988 10.0641 109.603 10.1951 110.137 10.4572C110.681 10.7192 111.104 11.0921 111.407 11.5759C111.709 12.0496 111.86 12.6039 111.86 13.2388C111.86 13.8839 111.704 14.4533 111.392 14.9471C111.079 15.441 110.646 15.824 110.092 16.0961C109.547 16.3581 108.932 16.4891 108.247 16.4891C106.846 16.4891 105.773 16.0306 105.027 15.1134C104.281 14.1862 103.908 12.881 103.908 11.1979C103.908 10.0188 104.11 9.02099 104.513 8.20463C104.916 7.38828 105.481 6.77349 106.206 6.36027C106.932 5.93697 107.779 5.72533 108.746 5.72533C109.794 5.72533 110.631 5.91682 111.256 6.2998L110.817 7.17663C110.313 6.84404 109.628 6.67774 108.761 6.67774C107.592 6.67774 106.675 7.05065 106.01 7.79645C105.345 8.53218 105.012 9.60554 105.012 11.0165C105.012 11.2685 105.027 11.5557 105.057 11.8782C105.319 11.3038 105.738 10.8603 106.312 10.5479C106.887 10.2254 107.547 10.0641 108.293 10.0641ZM108.202 15.567C108.968 15.567 109.588 15.3604 110.061 14.9471C110.545 14.5238 110.787 13.9645 110.787 13.2691C110.787 12.5737 110.545 12.0193 110.061 11.6061C109.588 11.1929 108.943 10.9863 108.126 10.9863C107.592 10.9863 107.118 11.0871 106.705 11.2886C106.302 11.4902 105.985 11.7674 105.753 12.1201C105.521 12.4729 105.405 12.8659 105.405 13.2993C105.405 13.7024 105.511 14.0753 105.723 14.418C105.944 14.7607 106.267 15.0378 106.69 15.2495C107.113 15.4611 107.617 15.567 108.202 15.567ZM120.471 5.81603V6.58704L116.041 16.3984H114.862L119.216 6.78357H113.774V8.76399H112.7V5.81603H120.471ZM124.406 10.1548C125.938 10.1548 127.052 10.432 127.747 10.9863C128.453 11.5305 128.805 12.2965 128.805 13.2842C128.805 13.899 128.659 14.4483 128.367 14.932C128.085 15.4158 127.656 15.7988 127.082 16.081C126.507 16.3531 125.802 16.4891 124.965 16.4891C124.21 16.4891 123.489 16.3682 122.804 16.1263C122.128 15.8744 121.584 15.5418 121.171 15.1285L121.7 14.2668C122.053 14.6297 122.516 14.927 123.091 15.1588C123.665 15.3805 124.285 15.4914 124.95 15.4914C125.827 15.4914 126.502 15.2948 126.976 14.9018C127.46 14.5087 127.702 13.9846 127.702 13.3295C127.702 12.6039 127.43 12.0546 126.885 11.6817C126.351 11.3088 125.444 11.1224 124.164 11.1224H121.912L122.456 5.81603H128.246V6.78357H123.408L123.046 10.1548H124.406ZM137.449 5.81603V6.58704L133.019 16.3984H131.84L136.194 6.78357H130.752V8.76399H129.678V5.81603H137.449Z" fill="white"/>
<path d="M34.5137 52.9837C35.5518 52.9837 36.348 53.2457 36.9023 53.7698C37.4566 54.2838 37.7337 55.0498 37.7337 56.0677V60.9961H36.7057V59.7564C36.4639 60.1697 36.1061 60.4922 35.6324 60.724C35.1688 60.9558 34.6145 61.0717 33.9694 61.0717C33.0825 61.0717 32.377 60.86 31.8529 60.4367C31.3289 60.0134 31.0668 59.4541 31.0668 58.7587C31.0668 58.0834 31.3087 57.5392 31.7925 57.126C32.2863 56.7127 33.0674 56.5061 34.1357 56.5061H36.6604V56.0224C36.6604 55.337 36.4689 54.818 36.0859 54.4652C35.7029 54.1024 35.1436 53.921 34.4078 53.921C33.9039 53.921 33.4202 54.0067 32.9565 54.178C32.4929 54.3393 32.0948 54.566 31.7622 54.8583L31.2785 54.0571C31.6816 53.7144 32.1654 53.4524 32.7298 53.2709C33.2942 53.0794 33.8888 52.9837 34.5137 52.9837ZM34.1357 60.2251C34.7404 60.2251 35.2595 60.089 35.6928 59.8169C36.1262 59.5347 36.4487 59.1316 36.6604 58.6075V57.3074H34.166C32.8054 57.3074 32.1251 57.7811 32.1251 58.7284C32.1251 59.192 32.3014 59.5599 32.6542 59.832C33.0069 60.0941 33.5008 60.2251 34.1357 60.2251ZM48.041 53.0442V60.0286C48.041 61.3791 47.7084 62.3768 47.0432 63.0219C46.3881 63.677 45.3954 64.0045 44.065 64.0045C43.3293 64.0045 42.6288 63.8937 41.9636 63.6719C41.3085 63.4603 40.7744 63.163 40.3612 62.78L40.9054 61.9636C41.2884 62.3063 41.752 62.5734 42.2962 62.7649C42.8505 62.9564 43.4301 63.0521 44.0348 63.0521C45.0426 63.0521 45.7834 62.8153 46.2571 62.3416C46.7308 61.878 46.9676 61.1523 46.9676 60.1646V59.1517C46.635 59.6557 46.1966 60.0386 45.6524 60.3007C45.1182 60.5627 44.5236 60.6937 43.8685 60.6937C43.1227 60.6937 42.4424 60.5325 41.8276 60.21C41.2229 59.8774 40.7441 59.4188 40.3914 58.8343C40.0487 58.2396 39.8774 57.5694 39.8774 56.8236C39.8774 56.0778 40.0487 55.4126 40.3914 54.8281C40.7441 54.2435 41.2229 53.79 41.8276 53.4675C42.4323 53.145 43.1126 52.9837 43.8685 52.9837C44.5437 52.9837 45.1535 53.1198 45.6977 53.3919C46.2419 53.664 46.6804 54.0571 47.013 54.5711V53.0442H48.041ZM43.9743 59.7413C44.5488 59.7413 45.0678 59.6204 45.5314 59.3785C45.995 59.1265 46.3528 58.7788 46.6048 58.3354C46.8668 57.8919 46.9978 57.388 46.9978 56.8236C46.9978 56.2592 46.8668 55.7603 46.6048 55.3269C46.3528 54.8835 45.995 54.5408 45.5314 54.2989C45.0779 54.047 44.5588 53.921 43.9743 53.921C43.3998 53.921 42.8808 54.0419 42.4172 54.2838C41.9636 54.5257 41.6058 54.8684 41.3438 55.3118C41.0918 55.7553 40.9659 56.2592 40.9659 56.8236C40.9659 57.388 41.0918 57.8919 41.3438 58.3354C41.6058 58.7788 41.9636 59.1265 42.4172 59.3785C42.8808 59.6204 43.3998 59.7413 43.9743 59.7413ZM53.8242 52.9837C54.8623 52.9837 55.6585 53.2457 56.2128 53.7698C56.7671 54.2838 57.0443 55.0498 57.0443 56.0677V60.9961H56.0163V59.7564C55.7744 60.1697 55.4166 60.4922 54.9429 60.724C54.4793 60.9558 53.925 61.0717 53.28 61.0717C52.393 61.0717 51.6876 60.86 51.1635 60.4367C50.6394 60.0134 50.3774 59.4541 50.3774 58.7587C50.3774 58.0834 50.6192 57.5392 51.103 57.126C51.5968 56.7127 52.3779 56.5061 53.4462 56.5061H55.9709V56.0224C55.9709 55.337 55.7794 54.818 55.3964 54.4652C55.0135 54.1024 54.4541 53.921 53.7184 53.921C53.2144 53.921 52.7307 54.0067 52.2671 54.178C51.8035 54.3393 51.4054 54.566 51.0728 54.8583L50.589 54.0571C50.9921 53.7144 51.4759 53.4524 52.0403 53.2709C52.6047 53.0794 53.1993 52.9837 53.8242 52.9837ZM53.4462 60.2251C54.051 60.2251 54.57 60.089 55.0034 59.8169C55.4367 59.5347 55.7593 59.1316 55.9709 58.6075V57.3074H53.4765C52.1159 57.3074 51.4356 57.7811 51.4356 58.7284C51.4356 59.192 51.612 59.5599 51.9647 59.832C52.3175 60.0941 52.8113 60.2251 53.4462 60.2251ZM69.8769 52.9837C70.8746 52.9837 71.6557 53.2709 72.2201 53.8454C72.7946 54.4199 73.0818 55.2665 73.0818 56.3852V60.9961H72.0084V56.491C72.0084 55.6646 71.8069 55.0347 71.4037 54.6013C71.0107 54.1679 70.4513 53.9512 69.7257 53.9512C68.8992 53.9512 68.2492 54.2082 67.7755 54.7222C67.3018 55.2262 67.065 55.9266 67.065 56.8236V60.9961H65.9916V56.491C65.9916 55.6646 65.79 55.0347 65.3869 54.6013C64.9938 54.1679 64.4294 53.9512 63.6937 53.9512C62.8773 53.9512 62.2273 54.2082 61.7435 54.7222C61.2698 55.2262 61.033 55.9266 61.033 56.8236V60.9961H59.9596V53.0442H60.9876V54.4955C61.2698 54.0117 61.6629 53.6388 62.1668 53.3768C62.6707 53.1147 63.2502 52.9837 63.9054 52.9837C64.5705 52.9837 65.145 53.1248 65.6288 53.407C66.1226 53.6892 66.4905 54.1075 66.7324 54.6618C67.0246 54.1377 67.4429 53.7295 67.9871 53.4372C68.5415 53.1349 69.1714 52.9837 69.8769 52.9837ZM78.7743 52.9837C79.8124 52.9837 80.6086 53.2457 81.1629 53.7698C81.7173 54.2838 81.9944 55.0498 81.9944 56.0677V60.9961H80.9664V59.7564C80.7245 60.1697 80.3667 60.4922 79.893 60.724C79.4294 60.9558 78.8751 61.0717 78.2301 61.0717C77.3432 61.0717 76.6377 60.86 76.1136 60.4367C75.5895 60.0134 75.3275 59.4541 75.3275 58.7587C75.3275 58.0834 75.5694 57.5392 76.0531 57.126C76.547 56.7127 77.3281 56.5061 78.3964 56.5061H80.9211V56.0224C80.9211 55.337 80.7296 54.818 80.3466 54.4652C79.9636 54.1024 79.4042 53.921 78.6685 53.921C78.1646 53.921 77.6808 54.0067 77.2172 54.178C76.7536 54.3393 76.3555 54.566 76.0229 54.8583L75.5391 54.0571C75.9423 53.7144 76.4261 53.4524 76.9904 53.2709C77.5548 53.0794 78.1495 52.9837 78.7743 52.9837ZM78.3964 60.2251C79.0011 60.2251 79.5201 60.089 79.9535 59.8169C80.3869 59.5347 80.7094 59.1316 80.9211 58.6075V57.3074H78.4266C77.066 57.3074 76.3857 57.7811 76.3857 58.7284C76.3857 59.192 76.5621 59.5599 76.9149 59.832C77.2676 60.0941 77.7614 60.2251 78.3964 60.2251ZM92.3016 53.0442V60.0286C92.3016 61.3791 91.969 62.3768 91.3039 63.0219C90.6488 63.677 89.656 64.0045 88.3257 64.0045C87.5899 64.0045 86.8895 63.8937 86.2243 63.6719C85.5692 63.4603 85.035 63.163 84.6218 62.78L85.1661 61.9636C85.549 62.3063 86.0127 62.5734 86.5569 62.7649C87.1112 62.9564 87.6907 63.0521 88.2954 63.0521C89.3033 63.0521 90.044 62.8153 90.5177 62.3416C90.9914 61.878 91.2283 61.1523 91.2283 60.1646V59.1517C90.8957 59.6557 90.4573 60.0386 89.913 60.3007C89.3789 60.5627 88.7842 60.6937 88.1291 60.6937C87.3833 60.6937 86.703 60.5325 86.0882 60.21C85.4835 59.8774 85.0048 59.4188 84.6521 58.8343C84.3094 58.2396 84.1381 57.5694 84.1381 56.8236C84.1381 56.0778 84.3094 55.4126 84.6521 54.8281C85.0048 54.2435 85.4835 53.79 86.0882 53.4675C86.693 53.145 87.3732 52.9837 88.1291 52.9837C88.8044 52.9837 89.4141 53.1198 89.9584 53.3919C90.5026 53.664 90.941 54.0571 91.2736 54.5711V53.0442H92.3016ZM88.235 59.7413C88.8094 59.7413 89.3285 59.6204 89.7921 59.3785C90.2557 59.1265 90.6135 58.7788 90.8654 58.3354C91.1275 57.8919 91.2585 57.388 91.2585 56.8236C91.2585 56.2592 91.1275 55.7603 90.8654 55.3269C90.6135 54.8835 90.2557 54.5408 89.7921 54.2989C89.3386 54.047 88.8195 53.921 88.235 53.921C87.6605 53.921 87.1414 54.0419 86.6778 54.2838C86.2243 54.5257 85.8665 54.8684 85.6045 55.3118C85.3525 55.7553 85.2265 56.2592 85.2265 56.8236C85.2265 57.388 85.3525 57.8919 85.6045 58.3354C85.8665 58.7788 86.2243 59.1265 86.6778 59.3785C87.1414 59.6204 87.6605 59.7413 88.235 59.7413ZM98.0849 52.9837C99.1229 52.9837 99.9191 53.2457 100.473 53.7698C101.028 54.2838 101.305 55.0498 101.305 56.0677V60.9961H100.277V59.7564C100.035 60.1697 99.6773 60.4922 99.2036 60.724C98.74 60.9558 98.1856 61.0717 97.5406 61.0717C96.6537 61.0717 95.9482 60.86 95.4241 60.4367C94.9001 60.0134 94.638 59.4541 94.638 58.7587C94.638 58.0834 94.8799 57.5392 95.3637 57.126C95.8575 56.7127 96.6386 56.5061 97.7069 56.5061H100.232V56.0224C100.232 55.337 100.04 54.818 99.6571 54.4652C99.2741 54.1024 98.7148 53.921 97.979 53.921C97.4751 53.921 96.9913 54.0067 96.5277 54.178C96.0641 54.3393 95.666 54.566 95.3334 54.8583L94.8497 54.0571C95.2528 53.7144 95.7366 53.4524 96.301 53.2709C96.8654 53.0794 97.46 52.9837 98.0849 52.9837ZM97.7069 60.2251C98.3116 60.2251 98.8307 60.089 99.264 59.8169C99.6974 59.5347 100.02 59.1316 100.232 58.6075V57.3074H97.7372C96.3766 57.3074 95.6963 57.7811 95.6963 58.7284C95.6963 59.192 95.8726 59.5599 96.2254 59.832C96.5781 60.0941 97.072 60.2251 97.7069 60.2251ZM105.248 54.6013C105.5 54.0671 105.873 53.664 106.367 53.3919C106.871 53.1198 107.491 52.9837 108.226 52.9837V54.0268L107.969 54.0117C107.133 54.0117 106.478 54.2687 106.004 54.7827C105.53 55.2967 105.294 56.0173 105.294 56.9445V60.9961H104.22V53.0442H105.248V54.6013ZM112.363 50.4137V60.9961H111.274V51.3812H108.78V50.4137H112.363ZM117.825 50.4137V60.9961H116.737V51.3812H114.242V50.4137H117.825ZM127.823 50.4137V51.1847L123.393 60.9961H122.214L126.568 51.3812H121.126V53.3616H120.052V50.4137H127.823ZM136.037 50.323C137.387 50.323 138.591 50.6052 139.65 51.1696C140.718 51.7239 141.55 52.51 142.144 53.5279C142.739 54.5358 143.036 55.6898 143.036 56.9899C143.036 58.2699 142.814 59.2727 142.371 59.9983C141.927 60.7139 141.313 61.0717 140.527 61.0717C140.033 61.0717 139.63 60.9255 139.317 60.6333C139.015 60.341 138.848 59.9379 138.818 59.4239C138.516 59.9479 138.103 60.3561 137.579 60.6484C137.055 60.9306 136.46 61.0717 135.795 61.0717C135.089 61.0717 134.449 60.9054 133.875 60.5728C133.31 60.2301 132.862 59.7615 132.529 59.1668C132.207 58.5722 132.046 57.902 132.046 57.1562C132.046 56.4104 132.207 55.7452 132.529 55.1607C132.862 54.566 133.31 54.1024 133.875 53.7698C134.449 53.4372 135.089 53.2709 135.795 53.2709C136.44 53.2709 137.019 53.412 137.533 53.6942C138.057 53.9664 138.476 54.3544 138.788 54.8583V53.3314H139.771V59.061C139.771 59.4642 139.856 59.7564 140.028 59.9379C140.199 60.1193 140.426 60.21 140.708 60.21C141.182 60.21 141.555 59.9278 141.827 59.3634C142.109 58.799 142.25 58.0129 142.25 57.005C142.25 55.8359 141.988 54.8079 141.464 53.921C140.94 53.024 140.204 52.3286 139.257 51.8348C138.319 51.3409 137.246 51.094 136.037 51.094C134.817 51.094 133.734 51.351 132.786 51.865C131.849 52.3689 131.118 53.0845 130.594 54.0117C130.07 54.9288 129.808 55.977 129.808 57.1562C129.808 58.3354 130.065 59.3886 130.579 60.3158C131.103 61.243 131.829 61.9636 132.756 62.4776C133.693 62.9916 134.767 63.2486 135.976 63.2486C136.45 63.2486 136.944 63.1932 137.458 63.0823C137.982 62.9715 138.455 62.8052 138.879 62.5835L139.136 63.3242C138.702 63.5459 138.198 63.7173 137.624 63.8382C137.06 63.9592 136.51 64.0196 135.976 64.0196C134.605 64.0196 133.391 63.7274 132.333 63.1428C131.275 62.5583 130.448 61.7469 129.853 60.7089C129.269 59.6607 128.977 58.4765 128.977 57.1562C128.977 55.8258 129.274 54.6467 129.869 53.6186C130.463 52.5806 131.295 51.7743 132.363 51.1998C133.441 50.6153 134.666 50.323 136.037 50.323ZM135.931 60.1949C136.475 60.1949 136.964 60.0689 137.397 59.8169C137.831 59.5649 138.173 59.2122 138.425 58.7587C138.677 58.2951 138.803 57.7609 138.803 57.1562C138.803 56.5616 138.677 56.0375 138.425 55.5839C138.173 55.1203 137.831 54.7676 137.397 54.5257C136.964 54.2737 136.475 54.1478 135.931 54.1478C135.376 54.1478 134.878 54.2737 134.434 54.5257C134.001 54.7777 133.658 55.1304 133.406 55.5839C133.164 56.0375 133.043 56.5616 133.043 57.1562C133.043 57.7508 133.164 58.2799 133.406 58.7436C133.658 59.1971 134.001 59.5549 134.434 59.8169C134.878 60.0689 135.376 60.1949 135.931 60.1949ZM152.669 53.0442V60.0286C152.669 61.3791 152.337 62.3768 151.671 63.0219C151.016 63.677 150.024 64.0045 148.693 64.0045C147.957 64.0045 147.257 63.8937 146.592 63.6719C145.937 63.4603 145.403 63.163 144.989 62.78L145.534 61.9636C145.917 62.3063 146.38 62.5734 146.924 62.7649C147.479 62.9564 148.058 63.0521 148.663 63.0521C149.671 63.0521 150.412 62.8153 150.885 62.3416C151.359 61.878 151.596 61.1523 151.596 60.1646V59.1517C151.263 59.6557 150.825 60.0386 150.281 60.3007C149.746 60.5627 149.152 60.6937 148.497 60.6937C147.751 60.6937 147.071 60.5325 146.456 60.21C145.851 59.8774 145.372 59.4188 145.02 58.8343C144.677 58.2396 144.506 57.5694 144.506 56.8236C144.506 56.0778 144.677 55.4126 145.02 54.8281C145.372 54.2435 145.851 53.79 146.456 53.4675C147.06 53.145 147.741 52.9837 148.497 52.9837C149.172 52.9837 149.782 53.1198 150.326 53.3919C150.87 53.664 151.309 54.0571 151.641 54.5711V53.0442H152.669ZM148.602 59.7413C149.177 59.7413 149.696 59.6204 150.16 59.3785C150.623 59.1265 150.981 58.7788 151.233 58.3354C151.495 57.8919 151.626 57.388 151.626 56.8236C151.626 56.2592 151.495 55.7603 151.233 55.3269C150.981 54.8835 150.623 54.5408 150.16 54.2989C149.706 54.047 149.187 53.921 148.602 53.921C148.028 53.921 147.509 54.0419 147.045 54.2838C146.592 54.5257 146.234 54.8684 145.972 55.3118C145.72 55.7553 145.594 56.2592 145.594 56.8236C145.594 57.388 145.72 57.8919 145.972 58.3354C146.234 58.7788 146.592 59.1265 147.045 59.3785C147.509 59.6204 148.028 59.7413 148.602 59.7413ZM165.588 52.9837C166.586 52.9837 167.367 53.2709 167.931 53.8454C168.506 54.4199 168.793 55.2665 168.793 56.3852V60.9961H167.72V56.491C167.72 55.6646 167.518 55.0347 167.115 54.6013C166.722 54.1679 166.162 53.9512 165.437 53.9512C164.61 53.9512 163.96 54.2082 163.487 54.7222C163.013 55.2262 162.776 55.9266 162.776 56.8236V60.9961H161.703V56.491C161.703 55.6646 161.501 55.0347 161.098 54.6013C160.705 54.1679 160.141 53.9512 159.405 53.9512C158.588 53.9512 157.938 54.2082 157.455 54.7222C156.981 55.2262 156.744 55.9266 156.744 56.8236V60.9961H155.671V53.0442H156.699V54.4955C156.981 54.0117 157.374 53.6388 157.878 53.3768C158.382 53.1147 158.961 52.9837 159.616 52.9837C160.282 52.9837 160.856 53.1248 161.34 53.407C161.834 53.6892 162.202 54.1075 162.443 54.6618C162.736 54.1377 163.154 53.7295 163.698 53.4372C164.253 53.1349 164.882 52.9837 165.588 52.9837ZM174.485 52.9837C175.524 52.9837 176.32 53.2457 176.874 53.7698C177.428 54.2838 177.706 55.0498 177.706 56.0677V60.9961H176.678V59.7564C176.436 60.1697 176.078 60.4922 175.604 60.724C175.141 60.9558 174.586 61.0717 173.941 61.0717C173.054 61.0717 172.349 60.86 171.825 60.4367C171.301 60.0134 171.039 59.4541 171.039 58.7587C171.039 58.0834 171.28 57.5392 171.764 57.126C172.258 56.7127 173.039 56.5061 174.108 56.5061H176.632V56.0224C176.632 55.337 176.441 54.818 176.058 54.4652C175.675 54.1024 175.115 53.921 174.38 53.921C173.876 53.921 173.392 54.0067 172.928 54.178C172.465 54.3393 172.067 54.566 171.734 54.8583L171.25 54.0571C171.653 53.7144 172.137 53.4524 172.702 53.2709C173.266 53.0794 173.861 52.9837 174.485 52.9837ZM174.108 60.2251C174.712 60.2251 175.231 60.089 175.665 59.8169C176.098 59.5347 176.421 59.1316 176.632 58.6075V57.3074H174.138C172.777 57.3074 172.097 57.7811 172.097 58.7284C172.097 59.192 172.273 59.5599 172.626 59.832C172.979 60.0941 173.473 60.2251 174.108 60.2251ZM180.621 53.0442H181.694V60.9961H180.621V53.0442ZM181.165 51.3056C180.943 51.3056 180.757 51.23 180.606 51.0789C180.455 50.9277 180.379 50.7463 180.379 50.5346C180.379 50.3331 180.455 50.1567 180.606 50.0055C180.757 49.8543 180.943 49.7787 181.165 49.7787C181.387 49.7787 181.573 49.8543 181.724 50.0055C181.876 50.1466 181.951 50.3179 181.951 50.5195C181.951 50.7412 181.876 50.9277 181.724 51.0789C181.573 51.23 181.387 51.3056 181.165 51.3056ZM184.681 49.7787H185.754V60.9961H184.681V49.7787ZM188.847 61.0717C188.625 61.0717 188.433 60.9911 188.272 60.8298C188.121 60.6685 188.045 60.472 188.045 60.2402C188.045 60.0084 188.121 59.8169 188.272 59.6657C188.433 59.5045 188.625 59.4239 188.847 59.4239C189.068 59.4239 189.26 59.5045 189.421 59.6657C189.582 59.8169 189.663 60.0084 189.663 60.2402C189.663 60.472 189.582 60.6685 189.421 60.8298C189.26 60.9911 189.068 61.0717 188.847 61.0717ZM195.019 61.0717C194.232 61.0717 193.527 60.9003 192.902 60.5577C192.287 60.215 191.804 59.7363 191.451 59.1215C191.098 58.4966 190.922 57.7962 190.922 57.0201C190.922 56.2441 191.098 55.5487 191.451 54.9339C191.804 54.3191 192.287 53.8404 192.902 53.4977C193.527 53.155 194.232 52.9837 195.019 52.9837C195.704 52.9837 196.314 53.1198 196.848 53.3919C197.392 53.6539 197.82 54.0419 198.133 54.5559L197.332 55.1002C197.07 54.7071 196.737 54.4148 196.334 54.2234C195.931 54.0218 195.492 53.921 195.019 53.921C194.444 53.921 193.925 54.052 193.461 54.3141C193.008 54.566 192.65 54.9288 192.388 55.4025C192.136 55.8762 192.01 56.4154 192.01 57.0201C192.01 57.6349 192.136 58.1792 192.388 58.6528C192.65 59.1165 193.008 59.4793 193.461 59.7413C193.925 59.9933 194.444 60.1193 195.019 60.1193C195.492 60.1193 195.931 60.0235 196.334 59.832C196.737 59.6405 197.07 59.3483 197.332 58.9552L198.133 59.4994C197.82 60.0134 197.392 60.4065 196.848 60.6786C196.304 60.9407 195.694 61.0717 195.019 61.0717ZM203.359 61.0717C202.593 61.0717 201.903 60.9003 201.288 60.5577C200.673 60.2049 200.189 59.7212 199.836 59.1064C199.484 58.4916 199.307 57.7962 199.307 57.0201C199.307 56.2441 199.484 55.5487 199.836 54.9339C200.189 54.3191 200.673 53.8404 201.288 53.4977C201.903 53.155 202.593 52.9837 203.359 52.9837C204.125 52.9837 204.815 53.155 205.43 53.4977C206.045 53.8404 206.524 54.3191 206.866 54.9339C207.219 55.5487 207.395 56.2441 207.395 57.0201C207.395 57.7962 207.219 58.4916 206.866 59.1064C206.524 59.7212 206.045 60.2049 205.43 60.5577C204.815 60.9003 204.125 61.0717 203.359 61.0717ZM203.359 60.1193C203.923 60.1193 204.427 59.9933 204.871 59.7413C205.324 59.4793 205.677 59.1114 205.929 58.6377C206.181 58.164 206.307 57.6248 206.307 57.0201C206.307 56.4154 206.181 55.8762 205.929 55.4025C205.677 54.9288 205.324 54.566 204.871 54.3141C204.427 54.052 203.923 53.921 203.359 53.921C202.794 53.921 202.286 54.052 201.832 54.3141C201.389 54.566 201.036 54.9288 200.774 55.4025C200.522 55.8762 200.396 56.4154 200.396 57.0201C200.396 57.6248 200.522 58.164 200.774 58.6377C201.036 59.1114 201.389 59.4793 201.832 59.7413C202.286 59.9933 202.794 60.1193 203.359 60.1193ZM219.504 52.9837C220.502 52.9837 221.283 53.2709 221.847 53.8454C222.422 54.4199 222.709 55.2665 222.709 56.3852V60.9961H221.635V56.491C221.635 55.6646 221.434 55.0347 221.031 54.6013C220.638 54.1679 220.078 53.9512 219.353 53.9512C218.526 53.9512 217.876 54.2082 217.403 54.7222C216.929 55.2262 216.692 55.9266 216.692 56.8236V60.9961H215.619V56.491C215.619 55.6646 215.417 55.0347 215.014 54.6013C214.621 54.1679 214.056 53.9512 213.321 53.9512C212.504 53.9512 211.854 54.2082 211.371 54.7222C210.897 55.2262 210.66 55.9266 210.66 56.8236V60.9961H209.587V53.0442H210.615V54.4955C210.897 54.0117 211.29 53.6388 211.794 53.3768C212.298 53.1147 212.877 52.9837 213.532 52.9837C214.198 52.9837 214.772 53.1248 215.256 53.407C215.75 53.6892 216.118 54.1075 216.359 54.6618C216.652 54.1377 217.07 53.7295 217.614 53.4372C218.168 53.1349 218.798 52.9837 219.504 52.9837Z" fill="white"/>
<path d="M42.9494 95.0113V105.594H41.876V97.1278L37.7186 104.248H37.1895L33.0321 97.1732V105.594H31.9588V95.0113H32.881L37.4767 102.857L42.0272 95.0113H42.9494ZM53.3364 97.6418V105.594H52.3084V104.142C52.0262 104.626 51.6382 105.004 51.1443 105.276C50.6505 105.538 50.0861 105.669 49.4512 105.669C48.4131 105.669 47.5917 105.382 46.987 104.808C46.3923 104.223 46.095 103.371 46.095 102.253V97.6418H47.1684V102.147C47.1684 102.983 47.375 103.618 47.7882 104.052C48.2014 104.485 48.791 104.702 49.557 104.702C50.3935 104.702 51.0536 104.45 51.5374 103.946C52.0212 103.432 52.2631 102.721 52.2631 101.814V97.6418H53.3364ZM66.2598 97.5814C67.2576 97.5814 68.0387 97.8686 68.6031 98.4431C69.1775 99.0175 69.4648 99.8641 69.4648 100.983V105.594H68.3914V101.089C68.3914 100.262 68.1898 99.6323 67.7867 99.199C67.3936 98.7656 66.8343 98.5489 66.1086 98.5489C65.2822 98.5489 64.6321 98.8059 64.1585 99.3199C63.6848 99.8238 63.4479 100.524 63.4479 101.421V105.594H62.3746V101.089C62.3746 100.262 62.173 99.6323 61.7699 99.199C61.3768 98.7656 60.8124 98.5489 60.0767 98.5489C59.2603 98.5489 58.6103 98.8059 58.1265 99.3199C57.6528 99.8238 57.416 100.524 57.416 101.421V105.594H56.3426V97.6418H57.3706V99.0931C57.6528 98.6094 58.0459 98.2365 58.5498 97.9744C59.0537 97.7124 59.6332 97.5814 60.2883 97.5814C60.9535 97.5814 61.528 97.7225 62.0117 98.0047C62.5056 98.2869 62.8734 98.7051 63.1153 99.2594C63.4076 98.7353 63.8259 98.3272 64.3701 98.0349C64.9244 97.7325 65.5543 97.5814 66.2598 97.5814ZM76.4725 97.5814C77.2184 97.5814 77.8936 97.7527 78.4983 98.0954C79.103 98.428 79.5767 98.9016 79.9194 99.5164C80.2621 100.131 80.4334 100.832 80.4334 101.618C80.4334 102.404 80.2621 103.104 79.9194 103.719C79.5767 104.334 79.103 104.813 78.4983 105.155C77.8936 105.498 77.2184 105.669 76.4725 105.669C75.8074 105.669 75.2077 105.528 74.6735 105.246C74.1495 104.964 73.7262 104.556 73.4036 104.022V105.594H72.3756V94.3764H73.449V99.1536C73.7816 98.6396 74.2049 98.2516 74.7189 97.9895C75.243 97.7174 75.8275 97.5814 76.4725 97.5814ZM76.397 104.717C76.9513 104.717 77.4552 104.591 77.9087 104.339C78.3623 104.077 78.715 103.709 78.967 103.235C79.229 102.762 79.36 102.222 79.36 101.618C79.36 101.013 79.229 100.474 78.967 100C78.715 99.5265 78.3623 99.1637 77.9087 98.9117C77.4552 98.6497 76.9513 98.5187 76.397 98.5187C75.8326 98.5187 75.3236 98.6497 74.8701 98.9117C74.4266 99.1637 74.0739 99.5265 73.8118 100C73.5599 100.474 73.4339 101.013 73.4339 101.618C73.4339 102.222 73.5599 102.762 73.8118 103.235C74.0739 103.709 74.4266 104.077 74.8701 104.339C75.3236 104.591 75.8326 104.717 76.397 104.717ZM85.3588 97.5814C86.3969 97.5814 87.1931 97.8434 87.7474 98.3675C88.3017 98.8815 88.5789 99.6474 88.5789 100.665V105.594H87.5509V104.354C87.309 104.767 86.9512 105.09 86.4775 105.322C86.0139 105.553 85.4596 105.669 84.8146 105.669C83.9277 105.669 83.2222 105.458 82.6981 105.034C82.174 104.611 81.912 104.052 81.912 103.356C81.912 102.681 82.1539 102.137 82.6376 101.724C83.1315 101.31 83.9126 101.104 84.9809 101.104H87.5055V100.62C87.5055 99.9347 87.314 99.4156 86.9311 99.0629C86.5481 98.7001 85.9887 98.5187 85.253 98.5187C84.7491 98.5187 84.2653 98.6043 83.8017 98.7757C83.3381 98.9369 82.94 99.1637 82.6074 99.456L82.1236 98.6547C82.5268 98.312 83.0105 98.05 83.5749 97.8686C84.1393 97.6771 84.7339 97.5814 85.3588 97.5814ZM84.9809 104.823C85.5856 104.823 86.1046 104.687 86.538 104.415C86.9714 104.132 87.2939 103.729 87.5055 103.205V101.905H85.0111C83.6505 101.905 82.9702 102.379 82.9702 103.326C82.9702 103.79 83.1466 104.158 83.4993 104.43C83.8521 104.692 84.3459 104.823 84.9809 104.823ZM91.4942 97.6418H92.5676V105.594H91.4942V97.6418ZM92.0385 95.9033C91.8168 95.9033 91.6303 95.8277 91.4791 95.6765C91.3279 95.5253 91.2524 95.3439 91.2524 95.1323C91.2524 94.9307 91.3279 94.7543 91.4791 94.6032C91.6303 94.452 91.8168 94.3764 92.0385 94.3764C92.2602 94.3764 92.4467 94.452 92.5978 94.6032C92.749 94.7443 92.8246 94.9156 92.8246 95.1172C92.8246 95.3389 92.749 95.5253 92.5978 95.6765C92.4467 95.8277 92.2602 95.9033 92.0385 95.9033ZM95.6751 104.022C95.9069 104.022 96.0984 104.102 96.2496 104.263C96.4008 104.415 96.4764 104.606 96.4764 104.838C96.4764 104.959 96.4562 105.09 96.4159 105.231C96.3857 105.372 96.3353 105.533 96.2647 105.715L95.6298 107.801H94.9041L95.4181 105.609C95.2569 105.558 95.1258 105.468 95.0251 105.337C94.9243 105.196 94.8739 105.029 94.8739 104.838C94.8739 104.606 94.9495 104.415 95.1006 104.263C95.2518 104.102 95.4433 104.022 95.6751 104.022ZM102.941 95.0113H104.06V105.594H102.941V95.0113ZM111.328 97.5814C112.326 97.5814 113.117 97.8736 113.701 98.4582C114.296 99.0327 114.593 99.8742 114.593 100.983V105.594H113.52V101.089C113.52 100.262 113.313 99.6323 112.9 99.199C112.487 98.7656 111.897 98.5489 111.131 98.5489C110.275 98.5489 109.594 98.8059 109.09 99.3199C108.597 99.8238 108.35 100.524 108.35 101.421V105.594H107.276V97.6418H108.304V99.1082C108.597 98.6245 109 98.2516 109.514 97.9895C110.038 97.7174 110.643 97.5814 111.328 97.5814ZM124.793 94.3764V105.594H123.765V104.022C123.443 104.556 123.015 104.964 122.48 105.246C121.956 105.528 121.362 105.669 120.696 105.669C119.951 105.669 119.275 105.498 118.671 105.155C118.066 104.813 117.592 104.334 117.25 103.719C116.907 103.104 116.736 102.404 116.736 101.618C116.736 100.832 116.907 100.131 117.25 99.5164C117.592 98.9016 118.066 98.428 118.671 98.0954C119.275 97.7527 119.951 97.5814 120.696 97.5814C121.342 97.5814 121.921 97.7174 122.435 97.9895C122.959 98.2516 123.387 98.6396 123.72 99.1536V94.3764H124.793ZM120.787 104.717C121.342 104.717 121.84 104.591 122.284 104.339C122.737 104.077 123.09 103.709 123.342 103.235C123.604 102.762 123.735 102.222 123.735 101.618C123.735 101.013 123.604 100.474 123.342 100C123.09 99.5265 122.737 99.1637 122.284 98.9117C121.84 98.6497 121.342 98.5187 120.787 98.5187C120.223 98.5187 119.714 98.6497 119.26 98.9117C118.817 99.1637 118.464 99.5265 118.202 100C117.95 100.474 117.824 101.013 117.824 101.618C117.824 102.222 117.95 102.762 118.202 103.235C118.464 103.709 118.817 104.077 119.26 104.339C119.714 104.591 120.223 104.717 120.787 104.717ZM127.783 97.6418H128.856V105.594H127.783V97.6418ZM128.327 95.9033C128.105 95.9033 127.919 95.8277 127.768 95.6765C127.616 95.5253 127.541 95.3439 127.541 95.1323C127.541 94.9307 127.616 94.7543 127.768 94.6032C127.919 94.452 128.105 94.3764 128.327 94.3764C128.549 94.3764 128.735 94.452 128.886 94.6032C129.037 94.7443 129.113 94.9156 129.113 95.1172C129.113 95.3389 129.037 95.5253 128.886 95.6765C128.735 95.8277 128.549 95.9033 128.327 95.9033ZM134.624 97.5814C135.662 97.5814 136.459 97.8434 137.013 98.3675C137.567 98.8815 137.844 99.6474 137.844 100.665V105.594H136.816V104.354C136.574 104.767 136.217 105.09 135.743 105.322C135.279 105.553 134.725 105.669 134.08 105.669C133.193 105.669 132.488 105.458 131.964 105.034C131.439 104.611 131.177 104.052 131.177 103.356C131.177 102.681 131.419 102.137 131.903 101.724C132.397 101.31 133.178 101.104 134.246 101.104H136.771V100.62C136.771 99.9347 136.58 99.4156 136.197 99.0629C135.814 98.7001 135.254 98.5187 134.518 98.5187C134.015 98.5187 133.531 98.6043 133.067 98.7757C132.604 98.9369 132.205 99.1637 131.873 99.456L131.389 98.6547C131.792 98.312 132.276 98.05 132.84 97.8686C133.405 97.6771 133.999 97.5814 134.624 97.5814ZM134.246 104.823C134.851 104.823 135.37 104.687 135.803 104.415C136.237 104.132 136.559 103.729 136.771 103.205V101.905H134.277C132.916 101.905 132.236 102.379 132.236 103.326C132.236 103.79 132.412 104.158 132.765 104.43C133.118 104.692 133.611 104.823 134.246 104.823Z" fill="white"/>
<path fill-rule="evenodd" clip-rule="evenodd" d="M8.71662 11.3388C11.7319 14.3532 12.4159 10.8658 14.3358 12.7843C16.1867 14.6347 17.2505 15.0054 14.9054 17.3498C14.6117 17.5859 12.7454 20.4259 6.18656 13.8689C-0.37308 7.31112 2.46532 5.4429 2.70145 5.14924C5.05217 2.79836 5.41651 3.86834 7.26739 5.71871C9.18725 7.63803 5.70132 8.32432 8.71662 11.3388Z" stroke="white" stroke-width="1.13383" stroke-linecap="round" stroke-linejoin="round"/>
<path d="M13.5325 53.1953L10.1739 55.9264C9.53932 56.4298 8.64652 56.4298 8.01196 55.9264L4.625 53.1953" stroke="white" stroke-width="1.13383" stroke-linecap="round" stroke-linejoin="round"/>
<path fill-rule="evenodd" clip-rule="evenodd" d="M12.7811 62.3794C15.08 62.3857 16.6294 60.4969 16.6294 58.1754V52.9837C16.6294 50.6623 15.08 48.7734 12.7811 48.7734H5.36004C3.06112 48.7734 1.51172 50.6623 1.51172 52.9837V58.1754C1.51172 60.4969 3.06112 62.3857 5.36004 62.3794H12.7811Z" stroke="white" stroke-width="1.13383" stroke-linecap="round" stroke-linejoin="round"/>
<path fill-rule="evenodd" clip-rule="evenodd" d="M10.9601 98.2846C10.9601 97.2405 10.1141 96.3945 9.07076 96.3945C8.02668 96.3945 7.18066 97.2405 7.18066 98.2846C7.18066 99.3279 8.02668 100.174 9.07076 100.174C10.1141 100.174 10.9601 99.3279 10.9601 98.2846Z" stroke="white" stroke-width="1.13383" stroke-linecap="round" stroke-linejoin="round"/>
<path fill-rule="evenodd" clip-rule="evenodd" d="M9.07014 106.219C8.16423 106.219 3.40137 102.363 3.40137 98.3303C3.40137 95.1732 5.93895 92.6133 9.07014 92.6133C12.2013 92.6133 14.7397 95.1732 14.7397 98.3303C14.7397 102.363 9.97605 106.219 9.07014 106.219Z" stroke="white" stroke-width="1.13383" stroke-linecap="round" stroke-linejoin="round"/>
</svg>
