<svg width="314" height="145" viewBox="0 0 314 145" fill="none" xmlns="http://www.w3.org/2000/svg">
<path d="M50.1 14.6H46.38V18.24H45.12V14.6H41.4V13.42H45.12V9.76H46.38V13.42H50.1V14.6ZM56.9039 6.88C58.7572 6.88 60.1772 7.49333 61.1639 8.72C62.1506 9.93333 62.6439 11.6533 62.6439 13.88C62.6439 15.44 62.3772 16.76 61.8439 17.84C61.3106 18.92 60.5639 19.74 59.6039 20.3C58.6439 20.8467 57.5239 21.12 56.2439 21.12C54.8572 21.12 53.7506 20.8667 52.9239 20.36L53.5039 19.2C54.1706 19.64 55.0772 19.86 56.2239 19.86C57.7706 19.86 58.9839 19.3733 59.8639 18.4C60.7439 17.4133 61.1839 15.9867 61.1839 14.12C61.1839 13.7733 61.1639 13.3933 61.1239 12.98C60.7772 13.74 60.2239 14.3333 59.4639 14.76C58.7039 15.1733 57.8306 15.38 56.8439 15.38C55.9239 15.38 55.1039 15.2067 54.3839 14.86C53.6772 14.5133 53.1239 14.0267 52.7239 13.4C52.3239 12.76 52.1239 12.02 52.1239 11.18C52.1239 10.3267 52.3306 9.57333 52.7439 8.92C53.1572 8.26667 53.7239 7.76667 54.4439 7.42C55.1772 7.06 55.9972 6.88 56.9039 6.88ZM57.0639 14.16C57.7706 14.16 58.3906 14.0267 58.9239 13.76C59.4706 13.4933 59.8972 13.1267 60.2039 12.66C60.5106 12.1933 60.6639 11.6733 60.6639 11.1C60.6639 10.5667 60.5172 10.0733 60.2239 9.62C59.9439 9.16667 59.5239 8.8 58.9639 8.52C58.4039 8.24 57.7372 8.1 56.9639 8.1C55.9506 8.1 55.1239 8.38 54.4839 8.94C53.8572 9.48667 53.5439 10.22 53.5439 11.14C53.5439 12.06 53.8572 12.7933 54.4839 13.34C55.1239 13.8867 55.9839 14.16 57.0639 14.16ZM68.5723 7V21H67.1323V8.28H63.8323V7H68.5723ZM85.1733 13.66C86.0533 13.9533 86.7266 14.3933 87.1933 14.98C87.6733 15.5667 87.9133 16.2733 87.9133 17.1C87.9133 17.9133 87.6933 18.6267 87.2533 19.24C86.8133 19.84 86.1799 20.3067 85.3533 20.64C84.5399 20.96 83.5799 21.12 82.4733 21.12C80.7933 21.12 79.4733 20.76 78.5133 20.04C77.5533 19.32 77.0733 18.34 77.0733 17.1C77.0733 16.26 77.2999 15.5533 77.7533 14.98C78.2199 14.3933 78.8933 13.9533 79.7733 13.66C79.0533 13.38 78.5066 12.98 78.1333 12.46C77.7599 11.9267 77.5733 11.3 77.5733 10.58C77.5733 9.44667 78.0133 8.54667 78.8933 7.88C79.7866 7.21333 80.9799 6.88 82.4733 6.88C83.4599 6.88 84.3199 7.03333 85.0533 7.34C85.7999 7.63333 86.3799 8.06 86.7933 8.62C87.2066 9.18 87.4133 9.83333 87.4133 10.58C87.4133 11.3 87.2199 11.9267 86.8333 12.46C86.4466 12.98 85.8933 13.38 85.1733 13.66ZM79.0133 10.62C79.0133 11.3933 79.3199 12.0067 79.9333 12.46C80.5466 12.9133 81.3933 13.14 82.4733 13.14C83.5533 13.14 84.3999 12.9133 85.0133 12.46C85.6399 12.0067 85.9533 11.4 85.9533 10.64C85.9533 9.85333 85.6333 9.23333 84.9933 8.78C84.3666 8.32667 83.5266 8.1 82.4733 8.1C81.4066 8.1 80.5599 8.32667 79.9333 8.78C79.3199 9.23333 79.0133 9.84667 79.0133 10.62ZM82.4733 19.9C83.7133 19.9 84.6799 19.6467 85.3733 19.14C86.0799 18.6333 86.4333 17.9467 86.4333 17.08C86.4333 16.2133 86.0799 15.5333 85.3733 15.04C84.6799 14.5333 83.7133 14.28 82.4733 14.28C81.2466 14.28 80.2799 14.5333 79.5733 15.04C78.8799 15.5333 78.5333 16.2133 78.5333 17.08C78.5333 17.96 78.8799 18.6533 79.5733 19.16C80.2666 19.6533 81.2333 19.9 82.4733 19.9ZM94.6672 13C96.1339 13.08 97.2472 13.48 98.0072 14.2C98.7805 14.9067 99.1672 15.8333 99.1672 16.98C99.1672 17.78 98.9739 18.4933 98.5872 19.12C98.2005 19.7333 97.6272 20.22 96.8672 20.58C96.1072 20.94 95.1805 21.12 94.0872 21.12C93.0739 21.12 92.1139 20.96 91.2072 20.64C90.3139 20.3067 89.5939 19.8667 89.0472 19.32L89.7472 18.18C90.2139 18.66 90.8339 19.0533 91.6072 19.36C92.3805 19.6533 93.2072 19.8 94.0872 19.8C95.2339 19.8 96.1205 19.5533 96.7472 19.06C97.3739 18.5533 97.6872 17.86 97.6872 16.98C97.6872 16.1133 97.3739 15.4333 96.7472 14.94C96.1205 14.4467 95.1739 14.2 93.9072 14.2H92.9072V13.14L96.7872 8.28H89.6272V7H98.6272V8.02L94.6672 13ZM105.556 6.88C107.41 6.88 108.83 7.49333 109.816 8.72C110.803 9.93333 111.296 11.6533 111.296 13.88C111.296 15.44 111.03 16.76 110.496 17.84C109.963 18.92 109.216 19.74 108.256 20.3C107.296 20.8467 106.176 21.12 104.896 21.12C103.51 21.12 102.403 20.8667 101.576 20.36L102.156 19.2C102.823 19.64 103.73 19.86 104.876 19.86C106.423 19.86 107.636 19.3733 108.516 18.4C109.396 17.4133 109.836 15.9867 109.836 14.12C109.836 13.7733 109.816 13.3933 109.776 12.98C109.43 13.74 108.876 14.3333 108.116 14.76C107.356 15.1733 106.483 15.38 105.496 15.38C104.576 15.38 103.756 15.2067 103.036 14.86C102.33 14.5133 101.776 14.0267 101.376 13.4C100.976 12.76 100.776 12.02 100.776 11.18C100.776 10.3267 100.983 9.57333 101.396 8.92C101.81 8.26667 102.376 7.76667 103.096 7.42C103.83 7.06 104.65 6.88 105.556 6.88ZM105.716 14.16C106.423 14.16 107.043 14.0267 107.576 13.76C108.123 13.4933 108.55 13.1267 108.856 12.66C109.163 12.1933 109.316 11.6733 109.316 11.1C109.316 10.5667 109.17 10.0733 108.876 9.62C108.596 9.16667 108.176 8.8 107.616 8.52C107.056 8.24 106.39 8.1 105.616 8.1C104.603 8.1 103.776 8.38 103.136 8.94C102.51 9.48667 102.196 10.22 102.196 11.14C102.196 12.06 102.51 12.7933 103.136 13.34C103.776 13.8867 104.636 14.16 105.716 14.16ZM122.905 19.72V21H113.085V19.98L118.905 14.28C119.638 13.56 120.131 12.94 120.385 12.42C120.651 11.8867 120.785 11.3533 120.785 10.82C120.785 9.99333 120.498 9.35333 119.925 8.9C119.365 8.43333 118.558 8.2 117.505 8.2C115.865 8.2 114.591 8.72 113.685 9.76L112.665 8.88C113.211 8.24 113.905 7.74667 114.745 7.4C115.598 7.05333 116.558 6.88 117.625 6.88C119.051 6.88 120.178 7.22 121.005 7.9C121.845 8.56667 122.265 9.48667 122.265 10.66C122.265 11.38 122.105 12.0733 121.785 12.74C121.465 13.4067 120.858 14.1733 119.965 15.04L115.205 19.72H122.905ZM132.732 13.66C133.612 13.9533 134.285 14.3933 134.752 14.98C135.232 15.5667 135.472 16.2733 135.472 17.1C135.472 17.9133 135.252 18.6267 134.812 19.24C134.372 19.84 133.739 20.3067 132.912 20.64C132.099 20.96 131.139 21.12 130.032 21.12C128.352 21.12 127.032 20.76 126.072 20.04C125.112 19.32 124.632 18.34 124.632 17.1C124.632 16.26 124.859 15.5533 125.312 14.98C125.779 14.3933 126.452 13.9533 127.332 13.66C126.612 13.38 126.065 12.98 125.692 12.46C125.319 11.9267 125.132 11.3 125.132 10.58C125.132 9.44667 125.572 8.54667 126.452 7.88C127.345 7.21333 128.539 6.88 130.032 6.88C131.019 6.88 131.879 7.03333 132.612 7.34C133.359 7.63333 133.939 8.06 134.352 8.62C134.765 9.18 134.972 9.83333 134.972 10.58C134.972 11.3 134.779 11.9267 134.392 12.46C134.005 12.98 133.452 13.38 132.732 13.66ZM126.572 10.62C126.572 11.3933 126.879 12.0067 127.492 12.46C128.105 12.9133 128.952 13.14 130.032 13.14C131.112 13.14 131.959 12.9133 132.572 12.46C133.199 12.0067 133.512 11.4 133.512 10.64C133.512 9.85333 133.192 9.23333 132.552 8.78C131.925 8.32667 131.085 8.1 130.032 8.1C128.965 8.1 128.119 8.32667 127.492 8.78C126.879 9.23333 126.572 9.84667 126.572 10.62ZM130.032 19.9C131.272 19.9 132.239 19.6467 132.932 19.14C133.639 18.6333 133.992 17.9467 133.992 17.08C133.992 16.2133 133.639 15.5333 132.932 15.04C132.239 14.5333 131.272 14.28 130.032 14.28C128.805 14.28 127.839 14.5333 127.132 15.04C126.439 15.5333 126.092 16.2133 126.092 17.08C126.092 17.96 126.439 18.6533 127.132 19.16C127.825 19.6533 128.792 19.9 130.032 19.9ZM143.266 12.62C144.186 12.62 144.999 12.7933 145.706 13.14C146.426 13.4867 146.986 13.98 147.386 14.62C147.786 15.2467 147.986 15.98 147.986 16.82C147.986 17.6733 147.779 18.4267 147.366 19.08C146.952 19.7333 146.379 20.24 145.646 20.6C144.926 20.9467 144.112 21.12 143.206 21.12C141.352 21.12 139.932 20.5133 138.946 19.3C137.959 18.0733 137.466 16.3467 137.466 14.12C137.466 12.56 137.732 11.24 138.266 10.16C138.799 9.08 139.546 8.26667 140.506 7.72C141.466 7.16 142.586 6.88 143.866 6.88C145.252 6.88 146.359 7.13333 147.186 7.64L146.606 8.8C145.939 8.36 145.032 8.14 143.886 8.14C142.339 8.14 141.126 8.63333 140.246 9.62C139.366 10.5933 138.926 12.0133 138.926 13.88C138.926 14.2133 138.946 14.5933 138.986 15.02C139.332 14.26 139.886 13.6733 140.646 13.26C141.406 12.8333 142.279 12.62 143.266 12.62ZM143.146 19.9C144.159 19.9 144.979 19.6267 145.606 19.08C146.246 18.52 146.566 17.78 146.566 16.86C146.566 15.94 146.246 15.2067 145.606 14.66C144.979 14.1133 144.126 13.84 143.046 13.84C142.339 13.84 141.712 13.9733 141.166 14.24C140.632 14.5067 140.212 14.8733 139.906 15.34C139.599 15.8067 139.446 16.3267 139.446 16.9C139.446 17.4333 139.586 17.9267 139.866 18.38C140.159 18.8333 140.586 19.2 141.146 19.48C141.706 19.76 142.372 19.9 143.146 19.9ZM159.377 7V8.02L153.517 21H151.957L157.717 8.28H150.517V10.9H149.097V7H159.377ZM164.583 12.74C166.61 12.74 168.083 13.1067 169.003 13.84C169.937 14.56 170.403 15.5733 170.403 16.88C170.403 17.6933 170.21 18.42 169.823 19.06C169.45 19.7 168.883 20.2067 168.123 20.58C167.363 20.94 166.43 21.12 165.323 21.12C164.323 21.12 163.37 20.96 162.463 20.64C161.57 20.3067 160.85 19.8667 160.303 19.32L161.003 18.18C161.47 18.66 162.083 19.0533 162.843 19.36C163.603 19.6533 164.423 19.8 165.303 19.8C166.463 19.8 167.357 19.54 167.983 19.02C168.623 18.5 168.943 17.8067 168.943 16.94C168.943 15.98 168.583 15.2533 167.863 14.76C167.157 14.2667 165.957 14.02 164.263 14.02H161.283L162.003 7H169.663V8.28H163.263L162.783 12.74H164.583ZM181.838 7V8.02L175.978 21H174.418L180.178 8.28H172.978V10.9H171.558V7H181.838Z" fill="white"/>
<path d="M45.66 69.4C47.0333 69.4 48.0867 69.7467 48.82 70.44C49.5533 71.12 49.92 72.1333 49.92 73.48V80H48.56V78.36C48.24 78.9067 47.7667 79.3333 47.14 79.64C46.5267 79.9467 45.7933 80.1 44.94 80.1C43.7667 80.1 42.8333 79.82 42.14 79.26C41.4467 78.7 41.1 77.96 41.1 77.04C41.1 76.1467 41.42 75.4267 42.06 74.88C42.7133 74.3333 43.7467 74.06 45.16 74.06H48.5V73.42C48.5 72.5133 48.2467 71.8267 47.74 71.36C47.2333 70.88 46.4933 70.64 45.52 70.64C44.8533 70.64 44.2133 70.7533 43.6 70.98C42.9867 71.1933 42.46 71.4933 42.02 71.88L41.38 70.82C41.9133 70.3667 42.5533 70.02 43.3 69.78C44.0467 69.5267 44.8333 69.4 45.66 69.4ZM45.16 78.98C45.96 78.98 46.6467 78.8 47.22 78.44C47.7933 78.0667 48.22 77.5333 48.5 76.84V75.12H45.2C43.4 75.12 42.5 75.7467 42.5 77C42.5 77.6133 42.7333 78.1 43.2 78.46C43.6667 78.8067 44.32 78.98 45.16 78.98ZM63.5559 69.48V78.72C63.5559 80.5067 63.1159 81.8267 62.2359 82.68C61.3693 83.5467 60.0559 83.98 58.2959 83.98C57.3226 83.98 56.3959 83.8333 55.5159 83.54C54.6493 83.26 53.9426 82.8667 53.3959 82.36L54.1159 81.28C54.6226 81.7333 55.2359 82.0867 55.9559 82.34C56.6893 82.5933 57.4559 82.72 58.2559 82.72C59.5893 82.72 60.5693 82.4067 61.1959 81.78C61.8226 81.1667 62.1359 80.2067 62.1359 78.9V77.56C61.6959 78.2267 61.1159 78.7333 60.3959 79.08C59.6893 79.4267 58.9026 79.6 58.0359 79.6C57.0493 79.6 56.1493 79.3867 55.3359 78.96C54.5359 78.52 53.9026 77.9133 53.4359 77.14C52.9826 76.3533 52.7559 75.4667 52.7559 74.48C52.7559 73.4933 52.9826 72.6133 53.4359 71.84C53.9026 71.0667 54.5359 70.4667 55.3359 70.04C56.1359 69.6133 57.0359 69.4 58.0359 69.4C58.9293 69.4 59.7359 69.58 60.4559 69.94C61.1759 70.3 61.7559 70.82 62.1959 71.5V69.48H63.5559ZM58.1759 78.34C58.9359 78.34 59.6226 78.18 60.2359 77.86C60.8493 77.5267 61.3226 77.0667 61.6559 76.48C62.0026 75.8933 62.1759 75.2267 62.1759 74.48C62.1759 73.7333 62.0026 73.0733 61.6559 72.5C61.3226 71.9133 60.8493 71.46 60.2359 71.14C59.6359 70.8067 58.9493 70.64 58.1759 70.64C57.4159 70.64 56.7293 70.8 56.1159 71.12C55.5159 71.44 55.0426 71.8933 54.6959 72.48C54.3626 73.0667 54.1959 73.7333 54.1959 74.48C54.1959 75.2267 54.3626 75.8933 54.6959 76.48C55.0426 77.0667 55.5159 77.5267 56.1159 77.86C56.7293 78.18 57.4159 78.34 58.1759 78.34ZM71.2069 69.4C72.5802 69.4 73.6335 69.7467 74.3669 70.44C75.1002 71.12 75.4669 72.1333 75.4669 73.48V80H74.1069V78.36C73.7869 78.9067 73.3135 79.3333 72.6869 79.64C72.0735 79.9467 71.3402 80.1 70.4869 80.1C69.3135 80.1 68.3802 79.82 67.6869 79.26C66.9935 78.7 66.6469 77.96 66.6469 77.04C66.6469 76.1467 66.9669 75.4267 67.6069 74.88C68.2602 74.3333 69.2935 74.06 70.7069 74.06H74.0469V73.42C74.0469 72.5133 73.7935 71.8267 73.2869 71.36C72.7802 70.88 72.0402 70.64 71.0669 70.64C70.4002 70.64 69.7602 70.7533 69.1469 70.98C68.5335 71.1933 68.0069 71.4933 67.5669 71.88L66.9269 70.82C67.4602 70.3667 68.1002 70.02 68.8469 69.78C69.5935 69.5267 70.3802 69.4 71.2069 69.4ZM70.7069 78.98C71.5069 78.98 72.1935 78.8 72.7669 78.44C73.3402 78.0667 73.7669 77.5333 74.0469 76.84V75.12H70.7469C68.9469 75.12 68.0469 75.7467 68.0469 77C68.0469 77.6133 68.2802 78.1 68.7469 78.46C69.2135 78.8067 69.8669 78.98 70.7069 78.98ZM92.4438 69.4C93.7638 69.4 94.7971 69.78 95.5438 70.54C96.3038 71.3 96.6838 72.42 96.6838 73.9V80H95.2638V74.04C95.2638 72.9467 94.9971 72.1133 94.4638 71.54C93.9438 70.9667 93.2038 70.68 92.2438 70.68C91.1504 70.68 90.2904 71.02 89.6638 71.7C89.0371 72.3667 88.7238 73.2933 88.7238 74.48V80H87.3038V74.04C87.3038 72.9467 87.0371 72.1133 86.5038 71.54C85.9838 70.9667 85.2371 70.68 84.2638 70.68C83.1838 70.68 82.3238 71.02 81.6838 71.7C81.0571 72.3667 80.7438 73.2933 80.7438 74.48V80H79.3238V69.48H80.6838V71.4C81.0571 70.76 81.5771 70.2667 82.2438 69.92C82.9104 69.5733 83.6771 69.4 84.5438 69.4C85.4238 69.4 86.1838 69.5867 86.8238 69.96C87.4771 70.3333 87.9638 70.8867 88.2838 71.62C88.6704 70.9267 89.2238 70.3867 89.9438 70C90.6771 69.6 91.5104 69.4 92.4438 69.4ZM104.215 69.4C105.588 69.4 106.641 69.7467 107.375 70.44C108.108 71.12 108.475 72.1333 108.475 73.48V80H107.115V78.36C106.795 78.9067 106.321 79.3333 105.695 79.64C105.081 79.9467 104.348 80.1 103.495 80.1C102.321 80.1 101.388 79.82 100.695 79.26C100.001 78.7 99.6547 77.96 99.6547 77.04C99.6547 76.1467 99.9747 75.4267 100.615 74.88C101.268 74.3333 102.301 74.06 103.715 74.06H107.055V73.42C107.055 72.5133 106.801 71.8267 106.295 71.36C105.788 70.88 105.048 70.64 104.075 70.64C103.408 70.64 102.768 70.7533 102.155 70.98C101.541 71.1933 101.015 71.4933 100.575 71.88L99.9347 70.82C100.468 70.3667 101.108 70.02 101.855 69.78C102.601 69.5267 103.388 69.4 104.215 69.4ZM103.715 78.98C104.515 78.98 105.201 78.8 105.775 78.44C106.348 78.0667 106.775 77.5333 107.055 76.84V75.12H103.755C101.955 75.12 101.055 75.7467 101.055 77C101.055 77.6133 101.288 78.1 101.755 78.46C102.221 78.8067 102.875 78.98 103.715 78.98ZM122.111 69.48V78.72C122.111 80.5067 121.671 81.8267 120.791 82.68C119.924 83.5467 118.611 83.98 116.851 83.98C115.877 83.98 114.951 83.8333 114.071 83.54C113.204 83.26 112.497 82.8667 111.951 82.36L112.671 81.28C113.177 81.7333 113.791 82.0867 114.511 82.34C115.244 82.5933 116.011 82.72 116.811 82.72C118.144 82.72 119.124 82.4067 119.751 81.78C120.377 81.1667 120.691 80.2067 120.691 78.9V77.56C120.251 78.2267 119.671 78.7333 118.951 79.08C118.244 79.4267 117.457 79.6 116.591 79.6C115.604 79.6 114.704 79.3867 113.891 78.96C113.091 78.52 112.457 77.9133 111.991 77.14C111.537 76.3533 111.311 75.4667 111.311 74.48C111.311 73.4933 111.537 72.6133 111.991 71.84C112.457 71.0667 113.091 70.4667 113.891 70.04C114.691 69.6133 115.591 69.4 116.591 69.4C117.484 69.4 118.291 69.58 119.011 69.94C119.731 70.3 120.311 70.82 120.751 71.5V69.48H122.111ZM116.731 78.34C117.491 78.34 118.177 78.18 118.791 77.86C119.404 77.5267 119.877 77.0667 120.211 76.48C120.557 75.8933 120.731 75.2267 120.731 74.48C120.731 73.7333 120.557 73.0733 120.211 72.5C119.877 71.9133 119.404 71.46 118.791 71.14C118.191 70.8067 117.504 70.64 116.731 70.64C115.971 70.64 115.284 70.8 114.671 71.12C114.071 71.44 113.597 71.8933 113.251 72.48C112.917 73.0667 112.751 73.7333 112.751 74.48C112.751 75.2267 112.917 75.8933 113.251 76.48C113.597 77.0667 114.071 77.5267 114.671 77.86C115.284 78.18 115.971 78.34 116.731 78.34ZM129.762 69.4C131.135 69.4 132.188 69.7467 132.922 70.44C133.655 71.12 134.022 72.1333 134.022 73.48V80H132.662V78.36C132.342 78.9067 131.868 79.3333 131.242 79.64C130.628 79.9467 129.895 80.1 129.042 80.1C127.868 80.1 126.935 79.82 126.242 79.26C125.548 78.7 125.202 77.96 125.202 77.04C125.202 76.1467 125.522 75.4267 126.162 74.88C126.815 74.3333 127.848 74.06 129.262 74.06H132.602V73.42C132.602 72.5133 132.348 71.8267 131.842 71.36C131.335 70.88 130.595 70.64 129.622 70.64C128.955 70.64 128.315 70.7533 127.702 70.98C127.088 71.1933 126.562 71.4933 126.122 71.88L125.482 70.82C126.015 70.3667 126.655 70.02 127.402 69.78C128.148 69.5267 128.935 69.4 129.762 69.4ZM129.262 78.98C130.062 78.98 130.748 78.8 131.322 78.44C131.895 78.0667 132.322 77.5333 132.602 76.84V75.12H129.302C127.502 75.12 126.602 75.7467 126.602 77C126.602 77.6133 126.835 78.1 127.302 78.46C127.768 78.8067 128.422 78.98 129.262 78.98ZM139.238 71.54C139.572 70.8333 140.065 70.3 140.718 69.94C141.385 69.58 142.205 69.4 143.178 69.4V70.78L142.838 70.76C141.732 70.76 140.865 71.1 140.238 71.78C139.612 72.46 139.298 73.4133 139.298 74.64V80H137.878V69.48H139.238V71.54ZM148.65 66V80H147.21V67.28H143.91V66H148.65ZM155.877 66V80H154.437V67.28H151.137V66H155.877ZM169.104 66V67.02L163.244 80H161.684L167.444 67.28H160.244V69.9H158.824V66H169.104ZM179.97 65.88C181.757 65.88 183.35 66.2533 184.75 67C186.163 67.7333 187.263 68.7733 188.05 70.12C188.837 71.4533 189.23 72.98 189.23 74.7C189.23 76.3933 188.937 77.72 188.35 78.68C187.763 79.6267 186.95 80.1 185.91 80.1C185.257 80.1 184.723 79.9067 184.31 79.52C183.91 79.1333 183.69 78.6 183.65 77.92C183.25 78.6133 182.703 79.1533 182.01 79.54C181.317 79.9133 180.53 80.1 179.65 80.1C178.717 80.1 177.87 79.88 177.11 79.44C176.363 78.9867 175.77 78.3667 175.33 77.58C174.903 76.7933 174.69 75.9067 174.69 74.92C174.69 73.9333 174.903 73.0533 175.33 72.28C175.77 71.4933 176.363 70.88 177.11 70.44C177.87 70 178.717 69.78 179.65 69.78C180.503 69.78 181.27 69.9667 181.95 70.34C182.643 70.7 183.197 71.2133 183.61 71.88V69.86H184.91V77.44C184.91 77.9733 185.023 78.36 185.25 78.6C185.477 78.84 185.777 78.96 186.15 78.96C186.777 78.96 187.27 78.5867 187.63 77.84C188.003 77.0933 188.19 76.0533 188.19 74.72C188.19 73.1733 187.843 71.8133 187.15 70.64C186.457 69.4533 185.483 68.5333 184.23 67.88C182.99 67.2267 181.57 66.9 179.97 66.9C178.357 66.9 176.923 67.24 175.67 67.92C174.43 68.5867 173.463 69.5333 172.77 70.76C172.077 71.9733 171.73 73.36 171.73 74.92C171.73 76.48 172.07 77.8733 172.75 79.1C173.443 80.3267 174.403 81.28 175.63 81.96C176.87 82.64 178.29 82.98 179.89 82.98C180.517 82.98 181.17 82.9067 181.85 82.76C182.543 82.6133 183.17 82.3933 183.73 82.1L184.07 83.08C183.497 83.3733 182.83 83.6 182.07 83.76C181.323 83.92 180.597 84 179.89 84C178.077 84 176.47 83.6133 175.07 82.84C173.67 82.0667 172.577 80.9933 171.79 79.62C171.017 78.2333 170.63 76.6667 170.63 74.92C170.63 73.16 171.023 71.6 171.81 70.24C172.597 68.8667 173.697 67.8 175.11 67.04C176.537 66.2667 178.157 65.88 179.97 65.88ZM179.83 78.94C180.55 78.94 181.197 78.7733 181.77 78.44C182.343 78.1067 182.797 77.64 183.13 77.04C183.463 76.4267 183.63 75.72 183.63 74.92C183.63 74.1333 183.463 73.44 183.13 72.84C182.797 72.2267 182.343 71.76 181.77 71.44C181.197 71.1067 180.55 70.94 179.83 70.94C179.097 70.94 178.437 71.1067 177.85 71.44C177.277 71.7733 176.823 72.24 176.49 72.84C176.17 73.44 176.01 74.1333 176.01 74.92C176.01 75.7067 176.17 76.4067 176.49 77.02C176.823 77.62 177.277 78.0933 177.85 78.44C178.437 78.7733 179.097 78.94 179.83 78.94ZM201.974 69.48V78.72C201.974 80.5067 201.534 81.8267 200.654 82.68C199.787 83.5467 198.474 83.98 196.714 83.98C195.741 83.98 194.814 83.8333 193.934 83.54C193.067 83.26 192.361 82.8667 191.814 82.36L192.534 81.28C193.041 81.7333 193.654 82.0867 194.374 82.34C195.107 82.5933 195.874 82.72 196.674 82.72C198.007 82.72 198.987 82.4067 199.614 81.78C200.241 81.1667 200.554 80.2067 200.554 78.9V77.56C200.114 78.2267 199.534 78.7333 198.814 79.08C198.107 79.4267 197.321 79.6 196.454 79.6C195.467 79.6 194.567 79.3867 193.754 78.96C192.954 78.52 192.321 77.9133 191.854 77.14C191.401 76.3533 191.174 75.4667 191.174 74.48C191.174 73.4933 191.401 72.6133 191.854 71.84C192.321 71.0667 192.954 70.4667 193.754 70.04C194.554 69.6133 195.454 69.4 196.454 69.4C197.347 69.4 198.154 69.58 198.874 69.94C199.594 70.3 200.174 70.82 200.614 71.5V69.48H201.974ZM196.594 78.34C197.354 78.34 198.041 78.18 198.654 77.86C199.267 77.5267 199.741 77.0667 200.074 76.48C200.421 75.8933 200.594 75.2267 200.594 74.48C200.594 73.7333 200.421 73.0733 200.074 72.5C199.741 71.9133 199.267 71.46 198.654 71.14C198.054 70.8067 197.367 70.64 196.594 70.64C195.834 70.64 195.147 70.8 194.534 71.12C193.934 71.44 193.461 71.8933 193.114 72.48C192.781 73.0667 192.614 73.7333 192.614 74.48C192.614 75.2267 192.781 75.8933 193.114 76.48C193.461 77.0667 193.934 77.5267 194.534 77.86C195.147 78.18 195.834 78.34 196.594 78.34ZM219.065 69.4C220.385 69.4 221.418 69.78 222.165 70.54C222.925 71.3 223.305 72.42 223.305 73.9V80H221.885V74.04C221.885 72.9467 221.618 72.1133 221.085 71.54C220.565 70.9667 219.825 70.68 218.865 70.68C217.772 70.68 216.912 71.02 216.285 71.7C215.658 72.3667 215.345 73.2933 215.345 74.48V80H213.925V74.04C213.925 72.9467 213.658 72.1133 213.125 71.54C212.605 70.9667 211.858 70.68 210.885 70.68C209.805 70.68 208.945 71.02 208.305 71.7C207.678 72.3667 207.365 73.2933 207.365 74.48V80H205.945V69.48H207.305V71.4C207.678 70.76 208.198 70.2667 208.865 69.92C209.532 69.5733 210.298 69.4 211.165 69.4C212.045 69.4 212.805 69.5867 213.445 69.96C214.098 70.3333 214.585 70.8867 214.905 71.62C215.292 70.9267 215.845 70.3867 216.565 70C217.298 69.6 218.132 69.4 219.065 69.4ZM230.836 69.4C232.209 69.4 233.262 69.7467 233.996 70.44C234.729 71.12 235.096 72.1333 235.096 73.48V80H233.736V78.36C233.416 78.9067 232.942 79.3333 232.316 79.64C231.702 79.9467 230.969 80.1 230.116 80.1C228.942 80.1 228.009 79.82 227.316 79.26C226.622 78.7 226.276 77.96 226.276 77.04C226.276 76.1467 226.596 75.4267 227.236 74.88C227.889 74.3333 228.922 74.06 230.336 74.06H233.676V73.42C233.676 72.5133 233.422 71.8267 232.916 71.36C232.409 70.88 231.669 70.64 230.696 70.64C230.029 70.64 229.389 70.7533 228.776 70.98C228.162 71.1933 227.636 71.4933 227.196 71.88L226.556 70.82C227.089 70.3667 227.729 70.02 228.476 69.78C229.222 69.5267 230.009 69.4 230.836 69.4ZM230.336 78.98C231.136 78.98 231.822 78.8 232.396 78.44C232.969 78.0667 233.396 77.5333 233.676 76.84V75.12H230.376C228.576 75.12 227.676 75.7467 227.676 77C227.676 77.6133 227.909 78.1 228.376 78.46C228.842 78.8067 229.496 78.98 230.336 78.98ZM238.953 69.48H240.373V80H238.953V69.48ZM239.673 67.18C239.379 67.18 239.133 67.08 238.933 66.88C238.733 66.68 238.633 66.44 238.633 66.16C238.633 65.8933 238.733 65.66 238.933 65.46C239.133 65.26 239.379 65.16 239.673 65.16C239.966 65.16 240.213 65.26 240.413 65.46C240.613 65.6467 240.713 65.8733 240.713 66.14C240.713 66.4333 240.613 66.68 240.413 66.88C240.213 67.08 239.966 67.18 239.673 67.18ZM244.324 65.16H245.744V80H244.324V65.16ZM249.835 80.1C249.542 80.1 249.288 79.9933 249.075 79.78C248.875 79.5667 248.775 79.3067 248.775 79C248.775 78.6933 248.875 78.44 249.075 78.24C249.288 78.0267 249.542 77.92 249.835 77.92C250.128 77.92 250.382 78.0267 250.595 78.24C250.808 78.44 250.915 78.6933 250.915 79C250.915 79.3067 250.808 79.5667 250.595 79.78C250.382 79.9933 250.128 80.1 249.835 80.1ZM258 80.1C256.96 80.1 256.027 79.8733 255.2 79.42C254.387 78.9667 253.747 78.3333 253.28 77.52C252.813 76.6933 252.58 75.7667 252.58 74.74C252.58 73.7133 252.813 72.7933 253.28 71.98C253.747 71.1667 254.387 70.5333 255.2 70.08C256.027 69.6267 256.96 69.4 258 69.4C258.907 69.4 259.713 69.58 260.42 69.94C261.14 70.2867 261.707 70.8 262.12 71.48L261.06 72.2C260.713 71.68 260.273 71.2933 259.74 71.04C259.207 70.7733 258.627 70.64 258 70.64C257.24 70.64 256.553 70.8133 255.94 71.16C255.34 71.4933 254.867 71.9733 254.52 72.6C254.187 73.2267 254.02 73.94 254.02 74.74C254.02 75.5533 254.187 76.2733 254.52 76.9C254.867 77.5133 255.34 77.9933 255.94 78.34C256.553 78.6733 257.24 78.84 258 78.84C258.627 78.84 259.207 78.7133 259.74 78.46C260.273 78.2067 260.713 77.82 261.06 77.3L262.12 78.02C261.707 78.7 261.14 79.22 260.42 79.58C259.7 79.9267 258.893 80.1 258 80.1ZM269.034 80.1C268.021 80.1 267.107 79.8733 266.294 79.42C265.481 78.9533 264.841 78.3133 264.374 77.5C263.907 76.6867 263.674 75.7667 263.674 74.74C263.674 73.7133 263.907 72.7933 264.374 71.98C264.841 71.1667 265.481 70.5333 266.294 70.08C267.107 69.6267 268.021 69.4 269.034 69.4C270.047 69.4 270.961 69.6267 271.774 70.08C272.587 70.5333 273.221 71.1667 273.674 71.98C274.141 72.7933 274.374 73.7133 274.374 74.74C274.374 75.7667 274.141 76.6867 273.674 77.5C273.221 78.3133 272.587 78.9533 271.774 79.42C270.961 79.8733 270.047 80.1 269.034 80.1ZM269.034 78.84C269.781 78.84 270.447 78.6733 271.034 78.34C271.634 77.9933 272.101 77.5067 272.434 76.88C272.767 76.2533 272.934 75.54 272.934 74.74C272.934 73.94 272.767 73.2267 272.434 72.6C272.101 71.9733 271.634 71.4933 271.034 71.16C270.447 70.8133 269.781 70.64 269.034 70.64C268.287 70.64 267.614 70.8133 267.014 71.16C266.427 71.4933 265.961 71.9733 265.614 72.6C265.281 73.2267 265.114 73.94 265.114 74.74C265.114 75.54 265.281 76.2533 265.614 76.88C265.961 77.5067 266.427 77.9933 267.014 78.34C267.614 78.6733 268.287 78.84 269.034 78.84ZM290.393 69.4C291.713 69.4 292.746 69.78 293.493 70.54C294.253 71.3 294.633 72.42 294.633 73.9V80H293.213V74.04C293.213 72.9467 292.946 72.1133 292.413 71.54C291.893 70.9667 291.153 70.68 290.193 70.68C289.1 70.68 288.24 71.02 287.613 71.7C286.986 72.3667 286.673 73.2933 286.673 74.48V80H285.253V74.04C285.253 72.9467 284.986 72.1133 284.453 71.54C283.933 70.9667 283.186 70.68 282.213 70.68C281.133 70.68 280.273 71.02 279.633 71.7C279.006 72.3667 278.693 73.2933 278.693 74.48V80H277.273V69.48H278.633V71.4C279.006 70.76 279.526 70.2667 280.193 69.92C280.86 69.5733 281.626 69.4 282.493 69.4C283.373 69.4 284.133 69.5867 284.773 69.96C285.426 70.3333 285.913 70.8867 286.233 71.62C286.62 70.9267 287.173 70.3867 287.893 70C288.626 69.6 289.46 69.4 290.393 69.4Z" fill="white"/>
<path d="M56.82 125V139H55.4V127.8L49.9 137.22H49.2L43.7 127.86V139H42.28V125H43.5L49.58 135.38L55.6 125H56.82ZM70.5616 128.48V139H69.2016V137.08C68.8282 137.72 68.3149 138.22 67.6616 138.58C67.0082 138.927 66.2616 139.1 65.4216 139.1C64.0482 139.1 62.9616 138.72 62.1616 137.96C61.3749 137.187 60.9816 136.06 60.9816 134.58V128.48H62.4016V134.44C62.4016 135.547 62.6749 136.387 63.2216 136.96C63.7682 137.533 64.5482 137.82 65.5616 137.82C66.6682 137.82 67.5416 137.487 68.1816 136.82C68.8216 136.14 69.1416 135.2 69.1416 134V128.48H70.5616ZM87.6586 128.4C88.9786 128.4 90.0119 128.78 90.7586 129.54C91.5186 130.3 91.8986 131.42 91.8986 132.9V139H90.4786V133.04C90.4786 131.947 90.2119 131.113 89.6786 130.54C89.1586 129.967 88.4186 129.68 87.4586 129.68C86.3653 129.68 85.5053 130.02 84.8786 130.7C84.2519 131.367 83.9386 132.293 83.9386 133.48V139H82.5186V133.04C82.5186 131.947 82.2519 131.113 81.7186 130.54C81.1986 129.967 80.4519 129.68 79.4786 129.68C78.3986 129.68 77.5386 130.02 76.8986 130.7C76.2719 131.367 75.9586 132.293 75.9586 133.48V139H74.5386V128.48H75.8986V130.4C76.2719 129.76 76.7919 129.267 77.4586 128.92C78.1253 128.573 78.8919 128.4 79.7586 128.4C80.6386 128.4 81.3986 128.587 82.0386 128.96C82.6919 129.333 83.1786 129.887 83.4986 130.62C83.8853 129.927 84.4386 129.387 85.1586 129C85.8919 128.6 86.7253 128.4 87.6586 128.4ZM101.17 128.4C102.156 128.4 103.05 128.627 103.85 129.08C104.65 129.52 105.276 130.147 105.73 130.96C106.183 131.773 106.41 132.7 106.41 133.74C106.41 134.78 106.183 135.707 105.73 136.52C105.276 137.333 104.65 137.967 103.85 138.42C103.05 138.873 102.156 139.1 101.17 139.1C100.29 139.1 99.4962 138.913 98.7895 138.54C98.0962 138.167 97.5362 137.627 97.1095 136.92V139H95.7495V124.16H97.1695V130.48C97.6095 129.8 98.1695 129.287 98.8495 128.94C99.5429 128.58 100.316 128.4 101.17 128.4ZM101.07 137.84C101.803 137.84 102.47 137.673 103.07 137.34C103.67 136.993 104.136 136.507 104.47 135.88C104.816 135.253 104.99 134.54 104.99 133.74C104.99 132.94 104.816 132.227 104.47 131.6C104.136 130.973 103.67 130.493 103.07 130.16C102.47 129.813 101.803 129.64 101.07 129.64C100.323 129.64 99.6495 129.813 99.0495 130.16C98.4629 130.493 97.9962 130.973 97.6495 131.6C97.3162 132.227 97.1495 132.94 97.1495 133.74C97.1495 134.54 97.3162 135.253 97.6495 135.88C97.9962 136.507 98.4629 136.993 99.0495 137.34C99.6495 137.673 100.323 137.84 101.07 137.84ZM112.926 128.4C114.299 128.4 115.352 128.747 116.086 129.44C116.819 130.12 117.186 131.133 117.186 132.48V139H115.826V137.36C115.506 137.907 115.032 138.333 114.406 138.64C113.792 138.947 113.059 139.1 112.206 139.1C111.032 139.1 110.099 138.82 109.406 138.26C108.712 137.7 108.366 136.96 108.366 136.04C108.366 135.147 108.686 134.427 109.326 133.88C109.979 133.333 111.012 133.06 112.426 133.06H115.766V132.42C115.766 131.513 115.512 130.827 115.006 130.36C114.499 129.88 113.759 129.64 112.786 129.64C112.119 129.64 111.479 129.753 110.866 129.98C110.252 130.193 109.726 130.493 109.286 130.88L108.646 129.82C109.179 129.367 109.819 129.02 110.566 128.78C111.312 128.527 112.099 128.4 112.926 128.4ZM112.426 137.98C113.226 137.98 113.912 137.8 114.486 137.44C115.059 137.067 115.486 136.533 115.766 135.84V134.12H112.466C110.666 134.12 109.766 134.747 109.766 136C109.766 136.613 109.999 137.1 110.466 137.46C110.932 137.807 111.586 137.98 112.426 137.98ZM121.043 128.48H122.463V139H121.043V128.48ZM121.763 126.18C121.469 126.18 121.223 126.08 121.023 125.88C120.823 125.68 120.723 125.44 120.723 125.16C120.723 124.893 120.823 124.66 121.023 124.46C121.223 124.26 121.469 124.16 121.763 124.16C122.056 124.16 122.303 124.26 122.503 124.46C122.703 124.647 122.803 124.873 122.803 125.14C122.803 125.433 122.703 125.68 122.503 125.88C122.303 126.08 122.056 126.18 121.763 126.18ZM126.574 136.92C126.88 136.92 127.134 137.027 127.334 137.24C127.534 137.44 127.634 137.693 127.634 138C127.634 138.16 127.607 138.333 127.554 138.52C127.514 138.707 127.447 138.92 127.354 139.16L126.514 141.92H125.554L126.234 139.02C126.02 138.953 125.847 138.833 125.714 138.66C125.58 138.473 125.514 138.253 125.514 138C125.514 137.693 125.614 137.44 125.814 137.24C126.014 137.027 126.267 136.92 126.574 136.92ZM136.186 125H137.666V139H136.186V125ZM147.281 128.4C148.601 128.4 149.648 128.787 150.421 129.56C151.208 130.32 151.601 131.433 151.601 132.9V139H150.181V133.04C150.181 131.947 149.908 131.113 149.361 130.54C148.815 129.967 148.035 129.68 147.021 129.68C145.888 129.68 144.988 130.02 144.321 130.7C143.668 131.367 143.341 132.293 143.341 133.48V139H141.921V128.48H143.281V130.42C143.668 129.78 144.201 129.287 144.881 128.94C145.575 128.58 146.375 128.4 147.281 128.4ZM165.096 124.16V139H163.736V136.92C163.309 137.627 162.742 138.167 162.036 138.54C161.342 138.913 160.556 139.1 159.676 139.1C158.689 139.1 157.796 138.873 156.996 138.42C156.196 137.967 155.569 137.333 155.116 136.52C154.662 135.707 154.436 134.78 154.436 133.74C154.436 132.7 154.662 131.773 155.116 130.96C155.569 130.147 156.196 129.52 156.996 129.08C157.796 128.627 158.689 128.4 159.676 128.4C160.529 128.4 161.296 128.58 161.976 128.94C162.669 129.287 163.236 129.8 163.676 130.48V124.16H165.096ZM159.796 137.84C160.529 137.84 161.189 137.673 161.776 137.34C162.376 136.993 162.842 136.507 163.176 135.88C163.522 135.253 163.696 134.54 163.696 133.74C163.696 132.94 163.522 132.227 163.176 131.6C162.842 130.973 162.376 130.493 161.776 130.16C161.189 129.813 160.529 129.64 159.796 129.64C159.049 129.64 158.376 129.813 157.776 130.16C157.189 130.493 156.722 130.973 156.376 131.6C156.042 132.227 155.876 132.94 155.876 133.74C155.876 134.54 156.042 135.253 156.376 135.88C156.722 136.507 157.189 136.993 157.776 137.34C158.376 137.673 159.049 137.84 159.796 137.84ZM169.05 128.48H170.47V139H169.05V128.48ZM169.77 126.18C169.477 126.18 169.23 126.08 169.03 125.88C168.83 125.68 168.73 125.44 168.73 125.16C168.73 124.893 168.83 124.66 169.03 124.46C169.23 124.26 169.477 124.16 169.77 124.16C170.064 124.16 170.31 124.26 170.51 124.46C170.71 124.647 170.81 124.873 170.81 125.14C170.81 125.433 170.71 125.68 170.51 125.88C170.31 126.08 170.064 126.18 169.77 126.18ZM178.101 128.4C179.475 128.4 180.528 128.747 181.261 129.44C181.995 130.12 182.361 131.133 182.361 132.48V139H181.001V137.36C180.681 137.907 180.208 138.333 179.581 138.64C178.968 138.947 178.235 139.1 177.381 139.1C176.208 139.1 175.275 138.82 174.581 138.26C173.888 137.7 173.541 136.96 173.541 136.04C173.541 135.147 173.861 134.427 174.501 133.88C175.155 133.333 176.188 133.06 177.601 133.06H180.941V132.42C180.941 131.513 180.688 130.827 180.181 130.36C179.675 129.88 178.935 129.64 177.961 129.64C177.295 129.64 176.655 129.753 176.041 129.98C175.428 130.193 174.901 130.493 174.461 130.88L173.821 129.82C174.355 129.367 174.995 129.02 175.741 128.78C176.488 128.527 177.275 128.4 178.101 128.4ZM177.601 137.98C178.401 137.98 179.088 137.8 179.661 137.44C180.235 137.067 180.661 136.533 180.941 135.84V134.12H177.641C175.841 134.12 174.941 134.747 174.941 136C174.941 136.613 175.175 137.1 175.641 137.46C176.108 137.807 176.761 137.98 177.601 137.98Z" fill="white"/>
<path fill-rule="evenodd" clip-rule="evenodd" d="M11.5317 14.4724C15.5208 18.4604 16.4258 13.8467 18.9656 16.3848C21.4143 18.8328 22.8216 19.3232 19.7192 22.4247C19.3306 22.737 16.8616 26.4943 8.1846 17.8197C-0.493478 9.144 3.26158 6.67244 3.57397 6.28395C6.68387 3.17385 7.16586 4.58938 9.61449 7.03733C12.1544 9.5765 7.54266 10.4844 11.5317 14.4724Z" stroke="white" stroke-width="1.5" stroke-linecap="round" stroke-linejoin="round"/>
<path d="M17.9033 69.8516L13.46 73.4646C12.6205 74.1306 11.4394 74.1306 10.5999 73.4646L6.11914 69.8516" stroke="white" stroke-width="1.5" stroke-linecap="round" stroke-linejoin="round"/>
<path fill-rule="evenodd" clip-rule="evenodd" d="M16.9089 82C19.9502 82.0084 22 79.5095 22 76.4384V69.57C22 66.4988 19.9502 64 16.9089 64H7.09114C4.04979 64 2 66.4988 2 69.57V76.4384C2 79.5095 4.04979 82.0084 7.09114 82H16.9089Z" stroke="white" stroke-width="1.5" stroke-linecap="round" stroke-linejoin="round"/>
<path fill-rule="evenodd" clip-rule="evenodd" d="M14.5 129.501C14.5 128.119 13.3808 127 12.0005 127C10.6192 127 9.5 128.119 9.5 129.501C9.5 130.881 10.6192 132 12.0005 132C13.3808 132 14.5 130.881 14.5 129.501Z" stroke="white" stroke-width="1.5" stroke-linecap="round" stroke-linejoin="round"/>
<path fill-rule="evenodd" clip-rule="evenodd" d="M11.9995 140C10.801 140 4.5 134.898 4.5 129.563C4.5 125.387 7.8571 122 11.9995 122C16.1419 122 19.5 125.387 19.5 129.563C19.5 134.898 13.198 140 11.9995 140Z" stroke="white" stroke-width="1.5" stroke-linecap="round" stroke-linejoin="round"/>
</svg>
