<svg width="259" height="120" viewBox="0 0 259 120" fill="none" xmlns="http://www.w3.org/2000/svg">
<path d="M41.3241 12.1195H38.2556V15.1219H37.2163V12.1195H34.1479V11.1461H37.2163V8.12723H38.2556V11.1461H41.3241V12.1195ZM46.9362 5.75169C48.4649 5.75169 49.6362 6.25759 50.45 7.26939C51.2639 8.2702 51.6708 9.68893 51.6708 11.5256C51.6708 12.8123 51.4508 13.9011 51.0109 14.7919C50.571 15.6828 49.9551 16.3591 49.1633 16.821C48.3714 17.272 47.4476 17.4974 46.3918 17.4974C45.248 17.4974 44.3352 17.2885 43.6533 16.8705L44.1317 15.9137C44.6816 16.2767 45.4295 16.4581 46.3753 16.4581C47.6511 16.4581 48.6519 16.0567 49.3777 15.2539C50.1036 14.44 50.4665 13.2632 50.4665 11.7235C50.4665 11.4376 50.45 11.1241 50.417 10.7832C50.1311 11.4101 49.6747 11.8995 49.0478 12.2514C48.4209 12.5924 47.7005 12.7628 46.8867 12.7628C46.1279 12.7628 45.4515 12.6199 44.8576 12.3339C44.2747 12.048 43.8183 11.6465 43.4884 11.1296C43.1584 10.6017 42.9935 9.99137 42.9935 9.2985C42.9935 8.59464 43.1639 7.97326 43.5049 7.43436C43.8458 6.89546 44.3132 6.48304 44.9071 6.1971C45.512 5.90016 46.1883 5.75169 46.9362 5.75169ZM47.0682 11.7565C47.6511 11.7565 48.1625 11.6465 48.6024 11.4266C49.0533 11.2066 49.4052 10.9042 49.6582 10.5193C49.9111 10.1343 50.0376 9.70542 50.0376 9.23251C50.0376 8.7926 49.9166 8.38568 49.6747 8.01175C49.4437 7.63782 49.0973 7.33538 48.6354 7.10442C48.1735 6.87347 47.6236 6.75799 46.9857 6.75799C46.1498 6.75799 45.468 6.98895 44.9401 7.45086C44.4232 7.90177 44.1647 8.50665 44.1647 9.26551C44.1647 10.0244 44.4232 10.6292 44.9401 11.0802C45.468 11.5311 46.1773 11.7565 47.0682 11.7565ZM56.5608 5.85067V17.3984H55.373V6.90646H52.6511V5.85067H56.5608ZM70.2539 11.3441C70.9798 11.5861 71.5352 11.949 71.9201 12.4329C72.316 12.9168 72.514 13.4997 72.514 14.1816C72.514 14.8524 72.3325 15.4408 71.9696 15.9467C71.6067 16.4416 71.0843 16.8265 70.4024 17.1015C69.7315 17.3654 68.9397 17.4974 68.0269 17.4974C66.6411 17.4974 65.5523 17.2005 64.7605 16.6066C63.9686 16.0127 63.5727 15.2044 63.5727 14.1816C63.5727 13.4887 63.7597 12.9058 64.1336 12.4329C64.5185 11.949 65.0739 11.5861 65.7998 11.3441C65.2059 11.1132 64.755 10.7832 64.447 10.3543C64.1391 9.91438 63.9851 9.39748 63.9851 8.8036C63.9851 7.86878 64.3481 7.12642 65.0739 6.57653C65.8108 6.02663 66.7951 5.75169 68.0269 5.75169C68.8407 5.75169 69.5501 5.87816 70.1549 6.13111C70.7708 6.37307 71.2492 6.725 71.5902 7.18691C71.9311 7.64882 72.1016 8.18772 72.1016 8.8036C72.1016 9.39748 71.9421 9.91438 71.6232 10.3543C71.3042 10.7832 70.8478 11.1132 70.2539 11.3441ZM65.1729 8.83659C65.1729 9.47447 65.4259 9.98037 65.9318 10.3543C66.4377 10.7282 67.136 10.9152 68.0269 10.9152C68.9177 10.9152 69.616 10.7282 70.122 10.3543C70.6389 9.98037 70.8973 9.47997 70.8973 8.85309C70.8973 8.20421 70.6334 7.69281 70.1055 7.31888C69.5886 6.94496 68.8957 6.75799 68.0269 6.75799C67.147 6.75799 66.4487 6.94496 65.9318 7.31888C65.4259 7.69281 65.1729 8.19871 65.1729 8.83659ZM68.0269 16.4911C69.0497 16.4911 69.847 16.2822 70.4189 15.8642C71.0018 15.4463 71.2932 14.8799 71.2932 14.1651C71.2932 13.4502 71.0018 12.8893 70.4189 12.4824C69.847 12.0645 69.0497 11.8555 68.0269 11.8555C67.0151 11.8555 66.2177 12.0645 65.6348 12.4824C65.0629 12.8893 64.777 13.4502 64.777 14.1651C64.777 14.8909 65.0629 15.4628 65.6348 15.8807C66.2067 16.2877 67.0041 16.4911 68.0269 16.4911ZM78.0849 10.7997C79.2947 10.8657 80.213 11.1956 80.8399 11.7895C81.4777 12.3724 81.7967 13.1368 81.7967 14.0826C81.7967 14.7425 81.6372 15.3308 81.3183 15.8477C80.9993 16.3536 80.5264 16.7551 79.8995 17.052C79.2727 17.3489 78.5083 17.4974 77.6065 17.4974C76.7706 17.4974 75.9788 17.3654 75.2309 17.1015C74.4941 16.8265 73.9002 16.4636 73.4493 16.0127L74.0267 15.0724C74.4116 15.4683 74.923 15.7927 75.5609 16.0457C76.1988 16.2877 76.8806 16.4086 77.6065 16.4086C78.5523 16.4086 79.2837 16.2052 79.8006 15.7982C80.3175 15.3803 80.5759 14.8084 80.5759 14.0826C80.5759 13.3677 80.3175 12.8068 79.8006 12.3999C79.2837 11.993 78.5028 11.7895 77.458 11.7895H76.6332V10.9152L79.8336 6.90646H73.9277V5.85067H81.3513V6.692L78.0849 10.7997ZM87.0666 5.75169C88.5953 5.75169 89.7666 6.25759 90.5804 7.26939C91.3943 8.2702 91.8012 9.68893 91.8012 11.5256C91.8012 12.8123 91.5813 13.9011 91.1413 14.7919C90.7014 15.6828 90.0855 16.3591 89.2937 16.821C88.5019 17.272 87.578 17.4974 86.5222 17.4974C85.3785 17.4974 84.4656 17.2885 83.7838 16.8705L84.2622 15.9137C84.8121 16.2767 85.5599 16.4581 86.5057 16.4581C87.7815 16.4581 88.7823 16.0567 89.5082 15.2539C90.234 14.44 90.5969 13.2632 90.5969 11.7235C90.5969 11.4376 90.5804 11.1241 90.5475 10.7832C90.2615 11.4101 89.8051 11.8995 89.1782 12.2514C88.5513 12.5924 87.831 12.7628 87.0171 12.7628C86.2583 12.7628 85.5819 12.6199 84.988 12.3339C84.4051 12.048 83.9487 11.6465 83.6188 11.1296C83.2889 10.6017 83.1239 9.99137 83.1239 9.2985C83.1239 8.59464 83.2944 7.97326 83.6353 7.43436C83.9762 6.89546 84.4436 6.48304 85.0375 6.1971C85.6424 5.90016 86.3188 5.75169 87.0666 5.75169ZM87.1986 11.7565C87.7815 11.7565 88.2929 11.6465 88.7328 11.4266C89.1837 11.2066 89.5357 10.9042 89.7886 10.5193C90.0416 10.1343 90.168 9.70542 90.168 9.23251C90.168 8.7926 90.0471 8.38568 89.8051 8.01175C89.5741 7.63782 89.2277 7.33538 88.7658 7.10442C88.3039 6.87347 87.754 6.75799 87.1161 6.75799C86.2803 6.75799 85.5984 6.98895 85.0705 7.45086C84.5536 7.90177 84.2952 8.50665 84.2952 9.26551C84.2952 10.0244 84.5536 10.6292 85.0705 11.0802C85.5984 11.5311 86.3078 11.7565 87.1986 11.7565ZM101.376 16.3426V17.3984H93.2764V16.5571L98.077 11.8555C98.6818 11.2616 99.0888 10.7502 99.2977 10.3213C99.5177 9.88139 99.6277 9.44147 99.6277 9.00156C99.6277 8.31969 99.3912 7.79179 98.9183 7.41786C98.4564 7.03294 97.791 6.84048 96.9222 6.84048C95.5694 6.84048 94.5192 7.26939 93.7713 8.12723L92.93 7.40137C93.3809 6.87347 93.9528 6.46655 94.6456 6.1806C95.3495 5.89466 96.1413 5.75169 97.0212 5.75169C98.1979 5.75169 99.1273 6.03213 99.8091 6.59302C100.502 7.14292 100.848 7.90177 100.848 8.86958C100.848 9.46347 100.716 10.0354 100.453 10.5853C100.189 11.1351 99.6882 11.7675 98.9513 12.4824L95.0251 16.3426H101.376ZM109.482 11.3441C110.208 11.5861 110.763 11.949 111.148 12.4329C111.544 12.9168 111.742 13.4997 111.742 14.1816C111.742 14.8524 111.561 15.4408 111.198 15.9467C110.835 16.4416 110.313 16.8265 109.631 17.1015C108.96 17.3654 108.168 17.4974 107.255 17.4974C105.869 17.4974 104.781 17.2005 103.989 16.6066C103.197 16.0127 102.801 15.2044 102.801 14.1816C102.801 13.4887 102.988 12.9058 103.362 12.4329C103.747 11.949 104.302 11.5861 105.028 11.3441C104.434 11.1132 103.983 10.7832 103.675 10.3543C103.367 9.91438 103.213 9.39748 103.213 8.8036C103.213 7.86878 103.576 7.12642 104.302 6.57653C105.039 6.02663 106.023 5.75169 107.255 5.75169C108.069 5.75169 108.778 5.87816 109.383 6.13111C109.999 6.37307 110.477 6.725 110.818 7.18691C111.159 7.64882 111.33 8.18772 111.33 8.8036C111.33 9.39748 111.17 9.91438 110.851 10.3543C110.532 10.7832 110.076 11.1132 109.482 11.3441ZM104.401 8.83659C104.401 9.47447 104.654 9.98037 105.16 10.3543C105.666 10.7282 106.364 10.9152 107.255 10.9152C108.146 10.9152 108.844 10.7282 109.35 10.3543C109.867 9.98037 110.126 9.47997 110.126 8.85309C110.126 8.20421 109.862 7.69281 109.334 7.31888C108.817 6.94496 108.124 6.75799 107.255 6.75799C106.375 6.75799 105.677 6.94496 105.16 7.31888C104.654 7.69281 104.401 8.19871 104.401 8.83659ZM107.255 16.4911C108.278 16.4911 109.075 16.2822 109.647 15.8642C110.23 15.4463 110.521 14.8799 110.521 14.1651C110.521 13.4502 110.23 12.8893 109.647 12.4824C109.075 12.0645 108.278 11.8555 107.255 11.8555C106.243 11.8555 105.446 12.0645 104.863 12.4824C104.291 12.8893 104.005 13.4502 104.005 14.1651C104.005 14.8909 104.291 15.4628 104.863 15.8807C105.435 16.2877 106.232 16.4911 107.255 16.4911ZM118.171 10.4863C118.93 10.4863 119.601 10.6292 120.184 10.9152C120.777 11.2011 121.239 11.6081 121.569 12.136C121.899 12.6529 122.064 13.2577 122.064 13.9506C122.064 14.6545 121.894 15.2758 121.553 15.8147C121.212 16.3536 120.739 16.7716 120.134 17.0685C119.54 17.3544 118.869 17.4974 118.121 17.4974C116.593 17.4974 115.422 16.997 114.608 15.9962C113.794 14.9844 113.387 13.5602 113.387 11.7235C113.387 10.4368 113.607 9.34799 114.047 8.45716C114.487 7.56634 115.103 6.89546 115.894 6.44455C116.686 5.98264 117.61 5.75169 118.666 5.75169C119.81 5.75169 120.722 5.96065 121.404 6.37856L120.926 7.33538C120.376 6.97245 119.628 6.79099 118.682 6.79099C117.407 6.79099 116.406 7.19791 115.68 8.01175C114.954 8.81459 114.591 9.98587 114.591 11.5256C114.591 11.8005 114.608 12.114 114.641 12.4659C114.927 11.839 115.383 11.3551 116.01 11.0142C116.637 10.6622 117.357 10.4863 118.171 10.4863ZM118.072 16.4911C118.908 16.4911 119.584 16.2657 120.101 15.8147C120.629 15.3528 120.893 14.7425 120.893 13.9836C120.893 13.2247 120.629 12.6199 120.101 12.1689C119.584 11.718 118.88 11.4926 117.99 11.4926C117.407 11.4926 116.89 11.6026 116.439 11.8225C115.999 12.0425 115.652 12.3449 115.4 12.7298C115.147 13.1148 115.02 13.5437 115.02 14.0166C115.02 14.4565 115.136 14.8634 115.367 15.2374C115.608 15.6113 115.96 15.9137 116.422 16.1447C116.884 16.3756 117.434 16.4911 118.072 16.4911ZM131.46 5.85067V6.692L126.627 17.3984H125.34L130.091 6.90646H124.152V9.06755H122.981V5.85067H131.46ZM135.755 10.5853C137.426 10.5853 138.641 10.8877 139.4 11.4926C140.17 12.0865 140.555 12.9223 140.555 14.0001C140.555 14.671 140.396 15.2703 140.077 15.7982C139.769 16.3261 139.301 16.7441 138.674 17.052C138.048 17.3489 137.278 17.4974 136.365 17.4974C135.54 17.4974 134.754 17.3654 134.006 17.1015C133.269 16.8265 132.675 16.4636 132.224 16.0127L132.802 15.0724C133.187 15.4683 133.692 15.7927 134.319 16.0457C134.946 16.2877 135.623 16.4086 136.348 16.4086C137.305 16.4086 138.042 16.1942 138.559 15.7653C139.087 15.3363 139.351 14.7644 139.351 14.0496C139.351 13.2577 139.054 12.6584 138.46 12.2514C137.877 11.8445 136.887 11.641 135.491 11.641H133.033L133.626 5.85067H139.945V6.90646H134.666L134.27 10.5853H135.755ZM149.987 5.85067V6.692L145.153 17.3984H143.867L148.618 6.90646H142.679V9.06755H141.508V5.85067H149.987Z" fill="white"/>
<path d="M37.6618 57.3231C38.7945 57.3231 39.6634 57.609 40.2683 58.1809C40.8731 58.7418 41.1756 59.5777 41.1756 60.6884V66.0664H40.0538V64.7137C39.7899 65.1646 39.3994 65.5165 38.8825 65.7695C38.3766 66.0224 37.7717 66.1489 37.0679 66.1489C36.1001 66.1489 35.3302 65.9179 34.7583 65.456C34.1864 64.9941 33.9005 64.3837 33.9005 63.6249C33.9005 62.888 34.1644 62.2941 34.6923 61.8432C35.2312 61.3923 36.0836 61.1669 37.2493 61.1669H40.0043V60.639C40.0043 59.8911 39.7954 59.3247 39.3774 58.9398C38.9595 58.5439 38.3491 58.3459 37.5463 58.3459C36.9964 58.3459 36.4685 58.4394 35.9626 58.6263C35.4567 58.8023 35.0223 59.0498 34.6593 59.3687L34.1314 58.4944C34.5714 58.1204 35.0993 57.8345 35.7151 57.6365C36.331 57.4276 36.9799 57.3231 37.6618 57.3231ZM37.2493 65.2251C37.9092 65.2251 38.4756 65.0766 38.9485 64.7797C39.4214 64.4717 39.7734 64.0318 40.0043 63.4599V62.0412H37.2823C35.7976 62.0412 35.0553 62.5581 35.0553 63.5919C35.0553 64.0978 35.2477 64.4992 35.6327 64.7962C36.0176 65.0821 36.5565 65.2251 37.2493 65.2251ZM52.4231 57.3891V65.0106C52.4231 66.4843 52.0601 67.5731 51.3343 68.277C50.6194 68.9918 49.5361 69.3493 48.0844 69.3493C47.2816 69.3493 46.5172 69.2283 45.7913 68.9863C45.0765 68.7554 44.4936 68.4309 44.0427 68.013L44.6366 67.1222C45.0545 67.4961 45.5604 67.7876 46.1543 67.9965C46.7592 68.2055 47.3915 68.31 48.0514 68.31C49.1512 68.31 49.9595 68.0515 50.4764 67.5346C50.9933 67.0287 51.2518 66.2369 51.2518 65.1591V64.0538C50.8889 64.6037 50.4104 65.0216 49.8166 65.3076C49.2337 65.5935 48.5848 65.7365 47.8699 65.7365C47.0561 65.7365 46.3137 65.5605 45.6429 65.2086C44.983 64.8456 44.4606 64.3452 44.0757 63.7074C43.7017 63.0585 43.5148 62.3271 43.5148 61.5133C43.5148 60.6994 43.7017 59.9736 44.0757 59.3357C44.4606 58.6978 44.983 58.2029 45.6429 57.851C46.3027 57.4991 47.0451 57.3231 47.8699 57.3231C48.6068 57.3231 49.2722 57.4716 49.8661 57.7685C50.4599 58.0655 50.9383 58.4944 51.3013 59.0553V57.3891H52.4231ZM47.9854 64.6972C48.6123 64.6972 49.1787 64.5652 49.6846 64.3012C50.1905 64.0263 50.5809 63.6469 50.8559 63.163C51.1418 62.6791 51.2848 62.1292 51.2848 61.5133C51.2848 60.8974 51.1418 60.353 50.8559 59.8801C50.5809 59.3962 50.1905 59.0223 49.6846 58.7583C49.1897 58.4834 48.6233 58.3459 47.9854 58.3459C47.3585 58.3459 46.7921 58.4779 46.2862 58.7418C45.7913 59.0058 45.4009 59.3797 45.115 59.8636C44.84 60.3475 44.7026 60.8974 44.7026 61.5133C44.7026 62.1292 44.84 62.6791 45.115 63.163C45.4009 63.6469 45.7913 64.0263 46.2862 64.3012C46.7921 64.5652 47.3585 64.6972 47.9854 64.6972ZM58.7339 57.3231C59.8666 57.3231 60.7355 57.609 61.3404 58.1809C61.9452 58.7418 62.2477 59.5777 62.2477 60.6884V66.0664H61.1259V64.7137C60.862 65.1646 60.4715 65.5165 59.9546 65.7695C59.4487 66.0224 58.8438 66.1489 58.14 66.1489C57.1722 66.1489 56.4023 65.9179 55.8304 65.456C55.2585 64.9941 54.9726 64.3837 54.9726 63.6249C54.9726 62.888 55.2365 62.2941 55.7644 61.8432C56.3033 61.3923 57.1557 61.1669 58.3214 61.1669H61.0764V60.639C61.0764 59.8911 60.8675 59.3247 60.4495 58.9398C60.0316 58.5439 59.4212 58.3459 58.6184 58.3459C58.0685 58.3459 57.5406 58.4394 57.0347 58.6263C56.5288 58.8023 56.0944 59.0498 55.7314 59.3687L55.2035 58.4944C55.6435 58.1204 56.1714 57.8345 56.7872 57.6365C57.4031 57.4276 58.052 57.3231 58.7339 57.3231ZM58.3214 65.2251C58.9813 65.2251 59.5477 65.0766 60.0206 64.7797C60.4935 64.4717 60.8455 64.0318 61.0764 63.4599V62.0412H58.3544C56.8697 62.0412 56.1274 62.5581 56.1274 63.5919C56.1274 64.0978 56.3198 64.4992 56.7048 64.7962C57.0897 65.0821 57.6286 65.2251 58.3214 65.2251ZM76.2509 57.3231C77.3397 57.3231 78.192 57.6365 78.8079 58.2634C79.4348 58.8903 79.7482 59.8141 79.7482 61.0349V66.0664H78.577V61.1504C78.577 60.2485 78.357 59.5612 77.9171 59.0883C77.4882 58.6153 76.8778 58.3789 76.0859 58.3789C75.1841 58.3789 74.4747 58.6593 73.9578 59.2202C73.4409 59.7701 73.1825 60.5345 73.1825 61.5133V66.0664H72.0112V61.1504C72.0112 60.2485 71.7913 59.5612 71.3514 59.0883C70.9224 58.6153 70.3066 58.3789 69.5037 58.3789C68.6129 58.3789 67.9035 58.6593 67.3756 59.2202C66.8587 59.7701 66.6003 60.5345 66.6003 61.5133V66.0664H65.429V57.3891H66.5508V58.9728C66.8587 58.4449 67.2876 58.038 67.8375 57.752C68.3874 57.4661 69.0198 57.3231 69.7347 57.3231C70.4605 57.3231 71.0874 57.4771 71.6153 57.785C72.1542 58.0929 72.5556 58.5494 72.8196 59.1542C73.1385 58.5824 73.5949 58.1369 74.1888 57.818C74.7937 57.4881 75.4811 57.3231 76.2509 57.3231ZM85.9601 57.3231C87.0928 57.3231 87.9617 57.609 88.5665 58.1809C89.1714 58.7418 89.4739 59.5777 89.4739 60.6884V66.0664H88.3521V64.7137C88.0881 65.1646 87.6977 65.5165 87.1808 65.7695C86.6749 66.0224 86.07 66.1489 85.3662 66.1489C84.3984 66.1489 83.6285 65.9179 83.0566 65.456C82.4847 64.9941 82.1988 64.3837 82.1988 63.6249C82.1988 62.888 82.4627 62.2941 82.9906 61.8432C83.5295 61.3923 84.3819 61.1669 85.5476 61.1669H88.3026V60.639C88.3026 59.8911 88.0936 59.3247 87.6757 58.9398C87.2578 58.5439 86.6474 58.3459 85.8446 58.3459C85.2947 58.3459 84.7668 58.4394 84.2609 58.6263C83.755 58.8023 83.3206 59.0498 82.9576 59.3687L82.4297 58.4944C82.8696 58.1204 83.3975 57.8345 84.0134 57.6365C84.6293 57.4276 85.2782 57.3231 85.9601 57.3231ZM85.5476 65.2251C86.2075 65.2251 86.7739 65.0766 87.2468 64.7797C87.7197 64.4717 88.0716 64.0318 88.3026 63.4599V62.0412H85.5806C84.0959 62.0412 83.3536 62.5581 83.3536 63.5919C83.3536 64.0978 83.546 64.4992 83.9309 64.7962C84.3159 65.0821 84.8548 65.2251 85.5476 65.2251ZM100.721 57.3891V65.0106C100.721 66.4843 100.358 67.5731 99.6326 68.277C98.9177 68.9918 97.8344 69.3493 96.3827 69.3493C95.5798 69.3493 94.8155 69.2283 94.0896 68.9863C93.3748 68.7554 92.7919 68.4309 92.341 68.013L92.9349 67.1222C93.3528 67.4961 93.8587 67.7876 94.4526 67.9965C95.0574 68.2055 95.6898 68.31 96.3497 68.31C97.4495 68.31 98.2578 68.0515 98.7747 67.5346C99.2916 67.0287 99.5501 66.2369 99.5501 65.1591V64.0538C99.1871 64.6037 98.7087 65.0216 98.1149 65.3076C97.532 65.5935 96.8831 65.7365 96.1682 65.7365C95.3544 65.7365 94.612 65.5605 93.9412 65.2086C93.2813 64.8456 92.7589 64.3452 92.374 63.7074C92 63.0585 91.8131 62.3271 91.8131 61.5133C91.8131 60.6994 92 59.9736 92.374 59.3357C92.7589 58.6978 93.2813 58.2029 93.9412 57.851C94.601 57.4991 95.3434 57.3231 96.1682 57.3231C96.9051 57.3231 97.5705 57.4716 98.1643 57.7685C98.7582 58.0655 99.2366 58.4944 99.5996 59.0553V57.3891H100.721ZM96.2837 64.6972C96.9106 64.6972 97.477 64.5652 97.9829 64.3012C98.4888 64.0263 98.8792 63.6469 99.1542 63.163C99.4401 62.6791 99.5831 62.1292 99.5831 61.5133C99.5831 60.8974 99.4401 60.353 99.1542 59.8801C98.8792 59.3962 98.4888 59.0223 97.9829 58.7583C97.488 58.4834 96.9216 58.3459 96.2837 58.3459C95.6568 58.3459 95.0904 58.4779 94.5845 58.7418C94.0896 59.0058 93.6992 59.3797 93.4133 59.8636C93.1383 60.3475 93.0008 60.8974 93.0008 61.5133C93.0008 62.1292 93.1383 62.6791 93.4133 63.163C93.6992 63.6469 94.0896 64.0263 94.5845 64.3012C95.0904 64.5652 95.6568 64.6972 96.2837 64.6972ZM107.032 57.3231C108.165 57.3231 109.034 57.609 109.639 58.1809C110.244 58.7418 110.546 59.5777 110.546 60.6884V66.0664H109.424V64.7137C109.16 65.1646 108.77 65.5165 108.253 65.7695C107.747 66.0224 107.142 66.1489 106.438 66.1489C105.47 66.1489 104.701 65.9179 104.129 65.456C103.557 64.9941 103.271 64.3837 103.271 63.6249C103.271 62.888 103.535 62.2941 104.063 61.8432C104.602 61.3923 105.454 61.1669 106.62 61.1669H109.375V60.639C109.375 59.8911 109.166 59.3247 108.748 58.9398C108.33 58.5439 107.72 58.3459 106.917 58.3459C106.367 58.3459 105.839 58.4394 105.333 58.6263C104.827 58.8023 104.393 59.0498 104.03 59.3687L103.502 58.4944C103.942 58.1204 104.47 57.8345 105.086 57.6365C105.701 57.4276 106.35 57.3231 107.032 57.3231ZM106.62 65.2251C107.28 65.2251 107.846 65.0766 108.319 64.7797C108.792 64.4717 109.144 64.0318 109.375 63.4599V62.0412H106.653C105.168 62.0412 104.426 62.5581 104.426 63.5919C104.426 64.0978 104.618 64.4992 105.003 64.7962C105.388 65.0821 105.927 65.2251 106.62 65.2251ZM114.849 59.0883C115.124 58.5054 115.531 58.0655 116.07 57.7685C116.62 57.4716 117.296 57.3231 118.099 57.3231V58.4614L117.818 58.4449C116.906 58.4449 116.191 58.7253 115.674 59.2862C115.157 59.8471 114.899 60.6335 114.899 61.6453V66.0664H113.727V57.3891H114.849V59.0883ZM122.612 54.5186V66.0664H121.425V55.5744H118.703V54.5186H122.612ZM128.573 54.5186V66.0664H127.385V55.5744H124.664V54.5186H128.573ZM139.483 54.5186V55.36L134.65 66.0664H133.363L138.114 55.5744H132.175V57.7355H131.004V54.5186H139.483ZM148.446 54.4197C149.92 54.4197 151.234 54.7276 152.389 55.3435C153.555 55.9484 154.462 56.8062 155.111 57.917C155.76 59.0168 156.084 60.276 156.084 61.6948C156.084 63.0915 155.842 64.1858 155.358 64.9776C154.874 65.7585 154.203 66.1489 153.346 66.1489C152.807 66.1489 152.367 65.9894 152.026 65.6705C151.696 65.3515 151.514 64.9116 151.481 64.3507C151.151 64.9226 150.701 65.368 150.129 65.687C149.557 65.9949 148.908 66.1489 148.182 66.1489C147.412 66.1489 146.714 65.9674 146.087 65.6045C145.471 65.2306 144.982 64.7192 144.619 64.0703C144.267 63.4214 144.091 62.6901 144.091 61.8762C144.091 61.0624 144.267 60.3365 144.619 59.6986C144.982 59.0498 145.471 58.5439 146.087 58.1809C146.714 57.818 147.412 57.6365 148.182 57.6365C148.886 57.6365 149.518 57.7905 150.079 58.0984C150.651 58.3954 151.107 58.8188 151.448 59.3687V57.7025H152.521V63.9548C152.521 64.3947 152.614 64.7137 152.801 64.9116C152.988 65.1096 153.236 65.2086 153.544 65.2086C154.06 65.2086 154.467 64.9006 154.764 64.2848C155.072 63.6689 155.226 62.811 155.226 61.7112C155.226 60.4355 154.94 59.3137 154.368 58.3459C153.796 57.3671 152.994 56.6082 151.96 56.0693C150.937 55.5304 149.766 55.261 148.446 55.261C147.115 55.261 145.933 55.5414 144.899 56.1023C143.876 56.6522 143.079 57.4331 142.507 58.4449C141.935 59.4457 141.649 60.5895 141.649 61.8762C141.649 63.163 141.93 64.3122 142.491 65.324C143.063 66.3359 143.854 67.1222 144.866 67.6831C145.889 68.244 147.06 68.5244 148.38 68.5244C148.897 68.5244 149.436 68.4639 149.997 68.343C150.569 68.222 151.085 68.0405 151.547 67.7986L151.828 68.6069C151.355 68.8489 150.805 69.0358 150.178 69.1678C149.562 69.2998 148.963 69.3658 148.38 69.3658C146.884 69.3658 145.559 69.0468 144.404 68.409C143.249 67.7711 142.348 66.8857 141.699 65.753C141.061 64.6092 140.742 63.3169 140.742 61.8762C140.742 60.4245 141.066 59.1377 141.715 58.016C142.364 56.8832 143.271 56.0033 144.437 55.3765C145.614 54.7386 146.95 54.4197 148.446 54.4197ZM148.331 65.1921C148.924 65.1921 149.458 65.0546 149.931 64.7797C150.404 64.5047 150.778 64.1198 151.052 63.6249C151.327 63.119 151.465 62.5361 151.465 61.8762C151.465 61.2273 151.327 60.6555 151.052 60.1605C150.778 59.6546 150.404 59.2697 149.931 59.0058C149.458 58.7308 148.924 58.5933 148.331 58.5933C147.726 58.5933 147.181 58.7308 146.697 59.0058C146.224 59.2807 145.85 59.6656 145.576 60.1605C145.312 60.6555 145.18 61.2273 145.18 61.8762C145.18 62.5251 145.312 63.1025 145.576 63.6084C145.85 64.1033 146.224 64.4937 146.697 64.7797C147.181 65.0546 147.726 65.1921 148.331 65.1921ZM166.596 57.3891V65.0106C166.596 66.4843 166.233 67.5731 165.507 68.277C164.792 68.9918 163.709 69.3493 162.257 69.3493C161.454 69.3493 160.69 69.2283 159.964 68.9863C159.249 68.7554 158.666 68.4309 158.215 68.013L158.809 67.1222C159.227 67.4961 159.733 67.7876 160.327 67.9965C160.932 68.2055 161.564 68.31 162.224 68.31C163.324 68.31 164.132 68.0515 164.649 67.5346C165.166 67.0287 165.425 66.2369 165.425 65.1591V64.0538C165.062 64.6037 164.583 65.0216 163.989 65.3076C163.406 65.5935 162.758 65.7365 162.043 65.7365C161.229 65.7365 160.487 65.5605 159.816 65.2086C159.156 64.8456 158.633 64.3452 158.248 63.7074C157.875 63.0585 157.688 62.3271 157.688 61.5133C157.688 60.6994 157.875 59.9736 158.248 59.3357C158.633 58.6978 159.156 58.2029 159.816 57.851C160.476 57.4991 161.218 57.3231 162.043 57.3231C162.78 57.3231 163.445 57.4716 164.039 57.7685C164.633 58.0655 165.111 58.4944 165.474 59.0553V57.3891H166.596ZM162.158 64.6972C162.785 64.6972 163.351 64.5652 163.857 64.3012C164.363 64.0263 164.754 63.6469 165.029 63.163C165.315 62.6791 165.458 62.1292 165.458 61.5133C165.458 60.8974 165.315 60.353 165.029 59.8801C164.754 59.3962 164.363 59.0223 163.857 58.7583C163.362 58.4834 162.796 58.3459 162.158 58.3459C161.531 58.3459 160.965 58.4779 160.459 58.7418C159.964 59.0058 159.574 59.3797 159.288 59.8636C159.013 60.3475 158.875 60.8974 158.875 61.5133C158.875 62.1292 159.013 62.6791 159.288 63.163C159.574 63.6469 159.964 64.0263 160.459 64.3012C160.965 64.5652 161.531 64.6972 162.158 64.6972ZM180.693 57.3231C181.782 57.3231 182.634 57.6365 183.25 58.2634C183.877 58.8903 184.19 59.8141 184.19 61.0349V66.0664H183.019V61.1504C183.019 60.2485 182.799 59.5612 182.359 59.0883C181.93 58.6153 181.32 58.3789 180.528 58.3789C179.626 58.3789 178.917 58.6593 178.4 59.2202C177.883 59.7701 177.625 60.5345 177.625 61.5133V66.0664H176.453V61.1504C176.453 60.2485 176.234 59.5612 175.794 59.0883C175.365 58.6153 174.749 58.3789 173.946 58.3789C173.055 58.3789 172.346 58.6593 171.818 59.2202C171.301 59.7701 171.043 60.5345 171.043 61.5133V66.0664H169.871V57.3891H170.993V58.9728C171.301 58.4449 171.73 58.038 172.28 57.752C172.83 57.4661 173.462 57.3231 174.177 57.3231C174.903 57.3231 175.53 57.4771 176.058 57.785C176.596 58.0929 176.998 58.5494 177.262 59.1542C177.581 58.5824 178.037 58.1369 178.631 57.818C179.236 57.4881 179.923 57.3231 180.693 57.3231ZM190.402 57.3231C191.535 57.3231 192.404 57.609 193.009 58.1809C193.614 58.7418 193.916 59.5777 193.916 60.6884V66.0664H192.794V64.7137C192.53 65.1646 192.14 65.5165 191.623 65.7695C191.117 66.0224 190.512 66.1489 189.808 66.1489C188.841 66.1489 188.071 65.9179 187.499 65.456C186.927 64.9941 186.641 64.3837 186.641 63.6249C186.641 62.888 186.905 62.2941 187.433 61.8432C187.972 61.3923 188.824 61.1669 189.99 61.1669H192.745V60.639C192.745 59.8911 192.536 59.3247 192.118 58.9398C191.7 58.5439 191.09 58.3459 190.287 58.3459C189.737 58.3459 189.209 58.4394 188.703 58.6263C188.197 58.8023 187.763 59.0498 187.4 59.3687L186.872 58.4944C187.312 58.1204 187.84 57.8345 188.456 57.6365C189.072 57.4276 189.72 57.3231 190.402 57.3231ZM189.99 65.2251C190.65 65.2251 191.216 65.0766 191.689 64.7797C192.162 64.4717 192.514 64.0318 192.745 63.4599V62.0412H190.023C188.538 62.0412 187.796 62.5581 187.796 63.5919C187.796 64.0978 187.988 64.4992 188.373 64.7962C188.758 65.0821 189.297 65.2251 189.99 65.2251ZM197.097 57.3891H198.269V66.0664H197.097V57.3891ZM197.691 55.4919C197.449 55.4919 197.246 55.4095 197.081 55.2445C196.916 55.0795 196.833 54.8816 196.833 54.6506C196.833 54.4307 196.916 54.2382 197.081 54.0732C197.246 53.9083 197.449 53.8258 197.691 53.8258C197.933 53.8258 198.137 53.9083 198.302 54.0732C198.467 54.2272 198.549 54.4142 198.549 54.6341C198.549 54.8761 198.467 55.0795 198.302 55.2445C198.137 55.4095 197.933 55.4919 197.691 55.4919ZM201.528 53.8258H202.699V66.0664H201.528V53.8258ZM206.073 66.1489C205.832 66.1489 205.623 66.0609 205.447 65.8849C205.282 65.709 205.199 65.4945 205.199 65.2416C205.199 64.9886 205.282 64.7797 205.447 64.6147C205.623 64.4387 205.832 64.3507 206.073 64.3507C206.315 64.3507 206.524 64.4387 206.7 64.6147C206.876 64.7797 206.964 64.9886 206.964 65.2416C206.964 65.4945 206.876 65.709 206.7 65.8849C206.524 66.0609 206.315 66.1489 206.073 66.1489ZM212.809 66.1489C211.951 66.1489 211.181 65.9619 210.499 65.588C209.828 65.2141 209.3 64.6917 208.915 64.0208C208.53 63.3389 208.338 62.5746 208.338 61.7277C208.338 60.8809 208.53 60.1221 208.915 59.4512C209.3 58.7803 209.828 58.2579 210.499 57.884C211.181 57.5101 211.951 57.3231 212.809 57.3231C213.556 57.3231 214.222 57.4716 214.805 57.7685C215.399 58.0545 215.866 58.4779 216.207 59.0388L215.333 59.6326C215.047 59.2037 214.684 58.8848 214.244 58.6758C213.804 58.4559 213.325 58.3459 212.809 58.3459C212.182 58.3459 211.615 58.4889 211.109 58.7748C210.615 59.0498 210.224 59.4457 209.938 59.9626C209.663 60.4795 209.526 61.0679 209.526 61.7277C209.526 62.3986 209.663 62.9925 209.938 63.5094C210.224 64.0153 210.615 64.4112 211.109 64.6972C211.615 64.9721 212.182 65.1096 212.809 65.1096C213.325 65.1096 213.804 65.0051 214.244 64.7962C214.684 64.5872 215.047 64.2683 215.333 63.8393L216.207 64.4332C215.866 64.9941 215.399 65.423 214.805 65.72C214.211 66.0059 213.545 66.1489 212.809 66.1489ZM221.91 66.1489C221.074 66.1489 220.32 65.9619 219.65 65.588C218.979 65.2031 218.451 64.6752 218.066 64.0043C217.681 63.3334 217.489 62.5746 217.489 61.7277C217.489 60.8809 217.681 60.1221 218.066 59.4512C218.451 58.7803 218.979 58.2579 219.65 57.884C220.32 57.5101 221.074 57.3231 221.91 57.3231C222.745 57.3231 223.499 57.5101 224.17 57.884C224.841 58.2579 225.363 58.7803 225.737 59.4512C226.122 60.1221 226.314 60.8809 226.314 61.7277C226.314 62.5746 226.122 63.3334 225.737 64.0043C225.363 64.6752 224.841 65.2031 224.17 65.588C223.499 65.9619 222.745 66.1489 221.91 66.1489ZM221.91 65.1096C222.526 65.1096 223.075 64.9721 223.559 64.6972C224.054 64.4112 224.439 64.0098 224.714 63.4929C224.989 62.976 225.127 62.3876 225.127 61.7277C225.127 61.0679 224.989 60.4795 224.714 59.9626C224.439 59.4457 224.054 59.0498 223.559 58.7748C223.075 58.4889 222.526 58.3459 221.91 58.3459C221.294 58.3459 220.738 58.4889 220.243 58.7748C219.76 59.0498 219.375 59.4457 219.089 59.9626C218.814 60.4795 218.676 61.0679 218.676 61.7277C218.676 62.3876 218.814 62.976 219.089 63.4929C219.375 64.0098 219.76 64.4112 220.243 64.6972C220.738 64.9721 221.294 65.1096 221.91 65.1096ZM239.527 57.3231C240.616 57.3231 241.469 57.6365 242.084 58.2634C242.711 58.8903 243.025 59.8141 243.025 61.0349V66.0664H241.854V61.1504C241.854 60.2485 241.634 59.5612 241.194 59.0883C240.765 58.6153 240.154 58.3789 239.363 58.3789C238.461 58.3789 237.751 58.6593 237.234 59.2202C236.718 59.7701 236.459 60.5345 236.459 61.5133V66.0664H235.288V61.1504C235.288 60.2485 235.068 59.5612 234.628 59.0883C234.199 58.6153 233.583 58.3789 232.78 58.3789C231.889 58.3789 231.18 58.6593 230.652 59.2202C230.135 59.7701 229.877 60.5345 229.877 61.5133V66.0664H228.706V57.3891H229.827V58.9728C230.135 58.4449 230.564 58.038 231.114 57.752C231.664 57.4661 232.296 57.3231 233.011 57.3231C233.737 57.3231 234.364 57.4771 234.892 57.785C235.431 58.0929 235.832 58.5494 236.096 59.1542C236.415 58.5824 236.871 58.1369 237.465 57.818C238.07 57.4881 238.758 57.3231 239.527 57.3231Z" fill="white"/>
<path d="M46.867 103.183V114.73H45.6957V105.492L41.1591 113.262H40.5817L36.0451 105.542V114.73H34.8738V103.183H35.8801L40.8951 111.745L45.8607 103.183H46.867ZM58.2016 106.053V114.73H57.0798V113.147C56.7719 113.675 56.3484 114.087 55.8095 114.384C55.2707 114.67 54.6548 114.813 53.9619 114.813C52.8291 114.813 51.9328 114.5 51.2729 113.873C50.624 113.235 50.2996 112.305 50.2996 111.085V106.053H51.4709V110.969C51.4709 111.882 51.6963 112.575 52.1473 113.048C52.5982 113.521 53.2415 113.757 54.0774 113.757C54.9902 113.757 55.7106 113.482 56.2385 112.932C56.7664 112.371 57.0303 111.596 57.0303 110.606V106.053H58.2016ZM72.3039 105.987C73.3927 105.987 74.245 106.301 74.8609 106.927C75.4878 107.554 75.8012 108.478 75.8012 109.699V114.73H74.63V109.814C74.63 108.913 74.41 108.225 73.9701 107.752C73.5412 107.279 72.9308 107.043 72.1389 107.043C71.2371 107.043 70.5278 107.323 70.0109 107.884C69.494 108.434 69.2355 109.199 69.2355 110.177V114.73H68.0642V109.814C68.0642 108.913 67.8443 108.225 67.4044 107.752C66.9754 107.279 66.3596 107.043 65.5567 107.043C64.6659 107.043 63.9565 107.323 63.4286 107.884C62.9117 108.434 62.6533 109.199 62.6533 110.177V114.73H61.482V106.053H62.6038V107.637C62.9117 107.109 63.3406 106.702 63.8905 106.416C64.4404 106.13 65.0728 105.987 65.7877 105.987C66.5135 105.987 67.1404 106.141 67.6683 106.449C68.2072 106.757 68.6086 107.213 68.8726 107.818C69.1915 107.246 69.6479 106.801 70.2418 106.482C70.8467 106.152 71.5341 105.987 72.3039 105.987ZM83.4483 105.987C84.2621 105.987 84.999 106.174 85.6589 106.548C86.3187 106.911 86.8356 107.428 87.2096 108.099C87.5835 108.77 87.7705 109.534 87.7705 110.392C87.7705 111.25 87.5835 112.014 87.2096 112.685C86.8356 113.356 86.3187 113.878 85.6589 114.252C84.999 114.626 84.2621 114.813 83.4483 114.813C82.7224 114.813 82.0681 114.659 81.4852 114.351C80.9133 114.043 80.4514 113.598 80.0994 113.015V114.73H78.9776V102.49H80.1489V107.703C80.5119 107.142 80.9738 106.719 81.5347 106.433C82.1065 106.136 82.7444 105.987 83.4483 105.987ZM83.3658 113.774C83.9707 113.774 84.5206 113.636 85.0155 113.361C85.5104 113.075 85.8953 112.674 86.1703 112.157C86.4562 111.64 86.5992 111.052 86.5992 110.392C86.5992 109.732 86.4562 109.144 86.1703 108.627C85.8953 108.11 85.5104 107.714 85.0155 107.439C84.5206 107.153 83.9707 107.01 83.3658 107.01C82.7499 107.01 82.1945 107.153 81.6996 107.439C81.2157 107.714 80.8308 108.11 80.5448 108.627C80.2699 109.144 80.1324 109.732 80.1324 110.392C80.1324 111.052 80.2699 111.64 80.5448 112.157C80.8308 112.674 81.2157 113.075 81.6996 113.361C82.1945 113.636 82.7499 113.774 83.3658 113.774ZM93.1452 105.987C94.278 105.987 95.1468 106.273 95.7517 106.845C96.3566 107.406 96.659 108.242 96.659 109.353V114.73H95.5372V113.378C95.2733 113.829 94.8829 114.181 94.366 114.434C93.8601 114.686 93.2552 114.813 92.5513 114.813C91.5835 114.813 90.8136 114.582 90.2418 114.12C89.6699 113.658 89.3839 113.048 89.3839 112.289C89.3839 111.552 89.6479 110.958 90.1758 110.507C90.7147 110.056 91.567 109.831 92.7328 109.831H95.4877V109.303C95.4877 108.555 95.2788 107.989 94.8609 107.604C94.4429 107.208 93.8326 107.01 93.0297 107.01C92.4798 107.01 91.9519 107.103 91.446 107.29C90.9401 107.466 90.5057 107.714 90.1428 108.033L89.6149 107.158C90.0548 106.785 90.5827 106.499 91.1986 106.301C91.8144 106.092 92.4633 105.987 93.1452 105.987ZM92.7328 113.889C93.3926 113.889 93.959 113.741 94.4319 113.444C94.9049 113.136 95.2568 112.696 95.4877 112.124V110.705H92.7658C91.2811 110.705 90.5387 111.222 90.5387 112.256C90.5387 112.762 90.7312 113.163 91.1161 113.46C91.501 113.746 92.0399 113.889 92.7328 113.889ZM99.8403 106.053H101.012V114.73H99.8403V106.053ZM100.434 104.156C100.192 104.156 99.9888 104.074 99.8238 103.909C99.6589 103.744 99.5764 103.546 99.5764 103.315C99.5764 103.095 99.6589 102.902 99.8238 102.737C99.9888 102.572 100.192 102.49 100.434 102.49C100.676 102.49 100.88 102.572 101.045 102.737C101.21 102.891 101.292 103.078 101.292 103.298C101.292 103.54 101.21 103.744 101.045 103.909C100.88 104.074 100.676 104.156 100.434 104.156ZM104.403 113.015C104.656 113.015 104.865 113.103 105.029 113.279C105.194 113.444 105.277 113.653 105.277 113.906C105.277 114.038 105.255 114.181 105.211 114.335C105.178 114.489 105.123 114.664 105.046 114.862L104.353 117.139H103.561L104.122 114.747C103.946 114.692 103.803 114.593 103.693 114.45C103.583 114.296 103.528 114.115 103.528 113.906C103.528 113.653 103.611 113.444 103.776 113.279C103.941 113.103 104.15 113.015 104.403 113.015ZM112.332 103.183H113.552V114.73H112.332V103.183ZM121.483 105.987C122.572 105.987 123.435 106.306 124.073 106.944C124.722 107.571 125.047 108.489 125.047 109.699V114.73H123.875V109.814C123.875 108.913 123.65 108.225 123.199 107.752C122.748 107.279 122.105 107.043 121.269 107.043C120.334 107.043 119.592 107.323 119.042 107.884C118.503 108.434 118.233 109.199 118.233 110.177V114.73H117.062V106.053H118.184V107.653C118.503 107.125 118.943 106.719 119.504 106.433C120.076 106.136 120.735 105.987 121.483 105.987ZM136.177 102.49V114.73H135.055V113.015C134.703 113.598 134.236 114.043 133.653 114.351C133.081 114.659 132.432 114.813 131.706 114.813C130.893 114.813 130.156 114.626 129.496 114.252C128.836 113.878 128.319 113.356 127.945 112.685C127.571 112.014 127.384 111.25 127.384 110.392C127.384 109.534 127.571 108.77 127.945 108.099C128.319 107.428 128.836 106.911 129.496 106.548C130.156 106.174 130.893 105.987 131.706 105.987C132.41 105.987 133.043 106.136 133.604 106.433C134.176 106.719 134.643 107.142 135.006 107.703V102.49H136.177ZM131.805 113.774C132.41 113.774 132.955 113.636 133.439 113.361C133.934 113.075 134.318 112.674 134.593 112.157C134.879 111.64 135.022 111.052 135.022 110.392C135.022 109.732 134.879 109.144 134.593 108.627C134.318 108.11 133.934 107.714 133.439 107.439C132.955 107.153 132.41 107.01 131.805 107.01C131.19 107.01 130.634 107.153 130.139 107.439C129.655 107.714 129.27 108.11 128.985 108.627C128.71 109.144 128.572 109.732 128.572 110.392C128.572 111.052 128.71 111.64 128.985 112.157C129.27 112.674 129.655 113.075 130.139 113.361C130.634 113.636 131.19 113.774 131.805 113.774ZM139.439 106.053H140.61V114.73H139.439V106.053ZM140.033 104.156C139.791 104.156 139.588 104.074 139.423 103.909C139.258 103.744 139.175 103.546 139.175 103.315C139.175 103.095 139.258 102.902 139.423 102.737C139.588 102.572 139.791 102.49 140.033 102.49C140.275 102.49 140.478 102.572 140.643 102.737C140.808 102.891 140.891 103.078 140.891 103.298C140.891 103.54 140.808 103.744 140.643 103.909C140.478 104.074 140.275 104.156 140.033 104.156ZM146.905 105.987C148.038 105.987 148.906 106.273 149.511 106.845C150.116 107.406 150.419 108.242 150.419 109.353V114.73H149.297V113.378C149.033 113.829 148.642 114.181 148.126 114.434C147.62 114.686 147.015 114.813 146.311 114.813C145.343 114.813 144.573 114.582 144.001 114.12C143.429 113.658 143.144 113.048 143.144 112.289C143.144 111.552 143.408 110.958 143.935 110.507C144.474 110.056 145.327 109.831 146.492 109.831H149.247V109.303C149.247 108.555 149.038 107.989 148.62 107.604C148.203 107.208 147.592 107.01 146.789 107.01C146.239 107.01 145.712 107.103 145.206 107.29C144.7 107.466 144.265 107.714 143.902 108.033L143.375 107.158C143.814 106.785 144.342 106.499 144.958 106.301C145.574 106.092 146.223 105.987 146.905 105.987ZM146.492 113.889C147.152 113.889 147.719 113.741 148.192 113.444C148.664 113.136 149.016 112.696 149.247 112.124V110.705H146.525C145.041 110.705 144.298 111.222 144.298 112.256C144.298 112.762 144.491 113.163 144.876 113.46C145.261 113.746 145.8 113.889 146.492 113.889Z" fill="white"/>
<path fill-rule="evenodd" clip-rule="evenodd" d="M9.51127 12.335C12.8016 15.6244 13.5481 11.8189 15.6431 13.9125C17.6628 15.9316 18.8236 16.3362 16.2647 18.8944C15.9441 19.152 13.9076 22.2511 6.75042 15.096C-0.407619 7.93994 2.68971 5.9013 2.94738 5.58085C5.51255 3.01551 5.91012 4.1831 7.92984 6.20227C10.0248 8.29668 6.22091 9.04556 9.51127 12.335Z" stroke="white" stroke-width="1.23726" stroke-linecap="round" stroke-linejoin="round"/>
<path d="M14.7679 58.0195L11.1029 60.9997C10.4105 61.5491 9.43623 61.5491 8.74378 60.9997L5.04785 58.0195" stroke="white" stroke-width="1.23726" stroke-linecap="round" stroke-linejoin="round"/>
<path fill-rule="evenodd" clip-rule="evenodd" d="M13.9478 68.0385C16.4565 68.0454 18.1472 65.9843 18.1472 63.4511V57.7858C18.1472 55.2525 16.4565 53.1914 13.9478 53.1914H5.84977C3.34114 53.1914 1.65039 55.2525 1.65039 57.7858V63.4511C1.65039 65.9843 3.34114 68.0454 5.84977 68.0385H13.9478Z" stroke="white" stroke-width="1.23726" stroke-linecap="round" stroke-linejoin="round"/>
<path fill-rule="evenodd" clip-rule="evenodd" d="M11.9601 107.219C11.9601 106.079 11.0369 105.156 9.89846 105.156C8.75913 105.156 7.83594 106.079 7.83594 107.219C7.83594 108.357 8.75913 109.28 9.89846 109.28C11.0369 109.28 11.9601 108.357 11.9601 107.219Z" stroke="white" stroke-width="1.23726" stroke-linecap="round" stroke-linejoin="round"/>
<path fill-rule="evenodd" clip-rule="evenodd" d="M9.89782 115.878C8.90926 115.878 3.71191 111.67 3.71191 107.27C3.71191 103.825 6.48099 101.031 9.89782 101.031C13.3146 101.031 16.0845 103.825 16.0845 107.27C16.0845 111.67 10.8864 115.878 9.89782 115.878Z" stroke="white" stroke-width="1.23726" stroke-linecap="round" stroke-linejoin="round"/>
</svg>
