<svg xmlns="http://www.w3.org/2000/svg" viewBox="0 0 100.8 29.85"><defs><style>.cls-1{fill:#fff;}</style></defs><g id="Layer_2" data-name="Layer 2"><g id="Layer_1-2" data-name="Layer 1"><path class="cls-1" d="M.35,6.35h6a.33.33,0,0,1,.35.32V20.75a.33.33,0,0,1-.35.32h-6A.34.34,0,0,1,0,20.75V6.67A.34.34,0,0,1,.35,6.35Z"/><path class="cls-1" d="M.35.35h6A.34.34,0,0,1,6.66.7V4a.35.35,0,0,1-.35.35h-6A.35.35,0,0,1,0,4V.7A.35.35,0,0,1,.35.35Z"/><path class="cls-1" d="M31.86.57a.35.35,0,0,1,.34.35V20.05c0,6.89-5.37,9.8-10.82,9.8-4.13,0-7.61-1.5-9.53-4.65a.35.35,0,0,1,.12-.49L16.61,22a.34.34,0,0,1,.47.12c.79,1.3,2,2.29,4.51,2.29,2.87,0,4.63-1.48,4.63-4.39V18.16a7.29,7.29,0,0,1-6,2.67A10.15,10.15,0,0,1,10.15,10.41,10.15,10.15,0,0,1,20.23,0a7.26,7.26,0,0,1,6,2.67V.92a.35.35,0,0,1,.35-.35Zm-5.64,9.84a4.64,4.64,0,0,0-5-4.75,4.64,4.64,0,0,0-5,4.75,4.64,4.64,0,0,0,5,4.76A4.64,4.64,0,0,0,26.22,10.41Z"/><path class="cls-1" d="M57.75.92V20.73a.35.35,0,0,1-.35.34H52a.34.34,0,0,1-.35-.34V19.15a7.72,7.72,0,0,1-6.11,2.5c-5.37,0-9.8-4.72-9.8-10.83S40.12,0,45.49,0A7.72,7.72,0,0,1,51.6,2.5V.92A.35.35,0,0,1,52,.57H57.4A.35.35,0,0,1,57.75.92Zm-6.15,9.9a4.88,4.88,0,1,0-9.76,0,4.88,4.88,0,1,0,9.76,0Z"/><path class="cls-1" d="M78,15.68v5.05a.34.34,0,0,1-.35.34H62a.35.35,0,0,1-.35-.34V17.09a.31.31,0,0,1,.07-.21L69,6.87a.35.35,0,0,0-.28-.56H62.4A.35.35,0,0,1,62.05,6v-5A.35.35,0,0,1,62.4.57H77.28a.35.35,0,0,1,.35.35V4.56a.33.33,0,0,1-.07.21l-7.28,10a.35.35,0,0,0,.29.55h7.12A.35.35,0,0,1,78,15.68Z"/><path class="cls-1" d="M90.91,16.15a5.44,5.44,0,0,0,3.76-1.37.35.35,0,0,1,.41,0l4.34,2.49a.36.36,0,0,1,.11.53,10.48,10.48,0,0,1-8.7,3.9c-7,0-11.35-4.72-11.35-10.83A10.51,10.51,0,0,1,90.38,0c6,0,10.42,4.63,10.42,10.82a12.81,12.81,0,0,1-.19,2.18.36.36,0,0,1-.35.28H86.53a.35.35,0,0,0-.33.49C87.08,15.53,88.84,16.15,90.91,16.15Zm3.3-7.46a.35.35,0,0,0,.33-.46,4.65,4.65,0,0,0-8.52,0,.35.35,0,0,0,.33.46Z"/></g></g></svg>