<svg xmlns="http://www.w3.org/2000/svg" viewBox="0 0 384 378"><defs><style>.cls-1{fill:#24c9a9;}.cls-2{fill:#f4f4f4;stroke:#62e0c2;stroke-miterlimit:10;stroke-width:0.17px;}</style></defs><g id="Layer_2" data-name="Layer 2"><g id="Layer_1-2" data-name="Layer 1"><rect class="cls-1" width="384" height="378"/><path class="cls-2" d="M164.7,176.79s.75.59,1.11-.06a.55.55,0,0,0-.22-.77,5.09,5.09,0,0,1-1.12-1,13.6,13.6,0,0,1-3-6.59c-1-5.21-4.95-5.31-6.07-5s-3.76,2.38-1.26,6.3a4.39,4.39,0,0,0,.86,1A36.64,36.64,0,0,0,164.7,176.79Z"/><path class="cls-2" d="M172.32,172.1a1.93,1.93,0,0,0,.1.89,1,1,0,0,0,1.05.74c1.11-.09,1.22-.81,1.15-1.54a41.94,41.94,0,0,1,3.47-12.55c2.34-4.66,1.11-7.22-2-7.61s-6.31,2.9-6,8.25S172.94,166.44,172.32,172.1Z"/><path class="cls-2" d="M181.59,174.86a1.13,1.13,0,0,0,.72,1.45c.8.34,1.05-.15,1.14-.45a2.64,2.64,0,0,1,.25-.66,5.35,5.35,0,0,1,3.4-2.47,2.75,2.75,0,0,0,1.4-4.77c-1.32-1.29-4.09-1.75-5.33,1.83S181.73,174.66,181.59,174.86Z"/><path class="cls-2" d="M164.1,202.52a1.08,1.08,0,0,1,.84-.64.85.85,0,0,1,.49.07.94.94,0,0,1,.61,1.12,6.89,6.89,0,0,0-.36,2.21c.07.6-.31,8.19-5.55,6.93,0,0-2.69-1.08-1.48-3.4A3.23,3.23,0,0,1,160,207.5C160.84,207,162.55,205.74,164.1,202.52Z"/><path class="cls-2" d="M175.48,199.87a1.44,1.44,0,0,0-1,.1,1.21,1.21,0,0,0-.71,1.5c.34,1.43.08,3.09-.42,6.79-.38,2.75-1.1,7.2-1.52,9.57a14.1,14.1,0,0,0-.07,4.72,3.83,3.83,0,0,0,3.7,3.45,5.11,5.11,0,0,0,5-4.05c.39-1.75.31-4.31-1.08-8-3.33-8.79-2.94-12.63-2.94-12.63A1.47,1.47,0,0,0,175.48,199.87Z"/><path class="cls-2" d="M184.37,201.74a.93.93,0,0,1,.15-1.32,1.14,1.14,0,0,1,1.64.18s2.74,2.07,4.33,2.3,5.74,2.71,3.29,5.94c-2.66,3.49-5.5.67-6.7-1.78C186.07,205,184.66,202,184.37,201.74Z"/><path class="cls-2" d="M139.48,175s-4.23-2.07-11.54,6.42-2.49,16.22-.67,17.81,3.53,3.8,8.64,3.84a5.62,5.62,0,0,0,3.07-.84,2.27,2.27,0,0,0,1.28-2.06s.64-2.74-3.78-3.44c-4.24-.67-6.92-3.53-4-8.33.22-.36.43-.73.64-1.11a14.54,14.54,0,0,1,5.39-5.14C143.09,179.38,142.83,176.43,139.48,175Z"/><path class="cls-2" d="M156.38,178.51a1.14,1.14,0,0,1,1.25-.38,57.58,57.58,0,0,0,6.81,1.84c.71,0,3,1.77,1.56,3.87a3.27,3.27,0,0,1-2.13,1.33,16.61,16.61,0,0,1-3.56.17.62.62,0,0,0-.65.54v0a1.63,1.63,0,0,0,1.32,1.76,5.17,5.17,0,0,0,1,.11,1.86,1.86,0,0,1,.87.17,1.19,1.19,0,0,1,.67,1.76,2.37,2.37,0,0,1-1.08,1c-.75.36-2.12,1-2.6,1.16a.55.55,0,0,0-.37.37v.08a.61.61,0,0,0,.82.57,17.57,17.57,0,0,1,4-1,2,2,0,0,1,1,3.57c-1.68,1.55-7.59,3.92-8.33,3.47a1.88,1.88,0,0,1-1-1.73c-.08-1.33-1-14-.78-15.05,0-.13.06-.26.08-.39A8.33,8.33,0,0,1,156.38,178.51Z"/><path class="cls-2" d="M189.09,179.49c-.91.27-6.58.79-10.17,1.95,0,0-1.61.31-1.31,1.78a1.27,1.27,0,0,0,1.54,1.16,10.9,10.9,0,0,0,2.74-.45c-.71,12.64,2.7,11.52,2.7,11.52,1.35.14,2.1-2.11,2-3.07s.47-6.93-.24-8.88c0,0,3.31-.58,4.08-1.92A1.32,1.32,0,0,0,189.09,179.49Z"/><path class="cls-2" d="M153.61,196c-.5-.2-1-.4-1.48-.65-5.53-2.87-2.49-6.52-.91-8a11.42,11.42,0,0,0,2.39-3c2.66-4.91-1.14-6.87-2.49-7.39-.28-.11-.56-.22-.83-.35-4.9-2.37-7,1-7.47,1.85-.13.25-.28.51-.42.76-3.56,6.6-2.5,15.51-1.75,18s1.54,5.3,4.57,5.09,2.18-5.88,2.18-5.88c2.53,4,5.61,3.55,6.93,3.12a2,2,0,0,0,1.14-.91C156.26,197.17,154.4,196.28,153.61,196Zm-7.22-9s-.42.36-.51,0a5.53,5.53,0,0,1,0-3.27c.46-.86,2-2,2.57-.78S146.39,186.94,146.39,186.94Z"/><path class="cls-2" d="M199.81,176.61c-1.28-1.47-3.49-.72-4.42-.32a6.12,6.12,0,0,1-.94.32,2.78,2.78,0,0,0-2.06,1.88c-.7.55-2.35,15-2.35,15-.12,1.84.23,2,1.71,2.28s2.19-1.58,2.3-1.89a15.58,15.58,0,0,1,.87-1.45,2.62,2.62,0,0,1,1.88-.88,1.42,1.42,0,0,1,1.63.86c2.85,7.06,4.57,6.31,4.57,6.31,1.9.12,2.3-2.93,2.3-2.93C206.4,187.68,201.46,178.51,199.81,176.61Zm-2.72,10.14c-1.84.73-1.6-3.71-.76-5.41,0,0,.23-.57.56,0S198.94,186,197.09,186.75Z"/><path class="cls-2" d="M217.15,166.15A22.71,22.71,0,0,0,205,171.74a1.56,1.56,0,0,0-.45,1.5c.07.72,3.21,20.88,4.06,25.61.12.63.32,1.33.93,1.5,3.62,1,5.38-2,4.33-8.3-1.13-6.8,3.8-13.33,3.8-13.33,5.36-7.08,5.29-9,5.29-9C223.19,165.59,217.15,166.15,217.15,166.15Zm-6,14.35a.58.58,0,0,1-.75-.44c-.23-1.07-.66-4,1.11-5.83,2.19-2.22,3.78-3.14,4.17-1.41C216,174.33,212.93,179.87,211.14,180.5Z"/><path class="cls-2" d="M238.33,164.78c-2.68-2.69-7.05-2.24-9-1.86a16.29,16.29,0,0,1-1.86.23,2.24,2.24,0,0,0-2.3,2.07c0,.38-.08.77-.14,1.15a98.74,98.74,0,0,0,1.54,33.72,2.31,2.31,0,0,0,1.42,1.67,1.88,1.88,0,0,0,1.45,0c1.33-.59,2.07-.27,1.23-5.7a21.19,21.19,0,0,1,1.71-11.75c1-2.51,2.85-4.72,5-7a11.32,11.32,0,0,0,2.68-4.37A7.78,7.78,0,0,0,238.33,164.78Zm-5.89,11.05c-3.82,2.87-3.36-.36-3.36-.36s.44-7.08,3.67-8.46S236.25,173,232.44,175.83Z"/><path class="cls-2" d="M247.58,165.83c-2.69-1.2-3.56-.48-3.56-.48-2.55.78-3.52,28.46-3.54,33.45a2.3,2.3,0,0,0,.76,1.78c2.51,2.16,4.89-6.3,6-10.65.33-1.27.91-4.36,2.21-5.74.79-.83,2.53-1,3.06.36,1.42,3.56.39,7.72,1.73,7.84.8.08,2.13-1.53,3.09-2.86a13.63,13.63,0,0,0,2.25-4.76C262.25,173.89,250.18,167,247.58,165.83Zm1.69,12.77c-3.48.87-2.71-8.3-2.71-8.3s.16-.9.76-.24C247.32,170.06,252.76,177.73,249.27,178.6Z"/><path class="cls-2" d="M173.66,181c-3.56-1.52-4.6,1.71-4.65,1.84-1.42,4-1.3,6.2-2.1,9.58-.42,1.79.07,2.64.62,3a1.8,1.8,0,0,0,1.61.24c1.88-.59,1.88-2.29,2.12-3.09s.82-.9.82-.9l1.18-.44a.91.91,0,0,1,1.09.38l.47.77a8.21,8.21,0,0,0,1.51,1.86c1,.95,2.57,1.85,3.66.33C181.79,192.13,177.22,182.55,173.66,181Zm-.41,7.21a.9.9,0,0,1-1.18.54.53.53,0,0,1-.32-.43s0,0,0-.08a13.57,13.57,0,0,1,.3-3.38c.26-.44.77-.07,1.07,1.1h0A4.63,4.63,0,0,1,173.25,188.24Z"/></g></g></svg>