<svg width="620" height="337" viewBox="0 0 620 337" fill="none" xmlns="http://www.w3.org/2000/svg">
<rect width="619.988" height="337" fill="#F7F7F7"/>
<path fill-rule="evenodd" clip-rule="evenodd" d="M351.649 184.918L365.768 170.863C366.829 169.806 366.829 167.935 365.768 166.873L351.649 152.818C350.547 151.723 348.765 151.727 347.67 152.83C346.575 153.932 346.575 155.71 347.678 156.808L356.962 166.055H358.823V166.15L330.85 166.15C329.276 166.15 328 167.426 328 169C328 170.574 329.276 171.85 330.85 171.85L358.823 171.85V172H356.65L347.678 180.932C347.127 181.483 346.853 182.203 346.853 182.927C346.853 183.643 347.127 184.363 347.67 184.911C348.765 186.01 350.547 186.013 351.649 184.918ZM313.85 166.15C312.276 166.15 311 167.426 311 169C311 170.574 312.276 171.85 313.85 171.85H318.85C320.424 171.85 321.7 170.574 321.7 169C321.7 167.426 320.424 166.15 318.85 166.15H313.85ZM254 169C254 167.426 255.276 166.15 256.85 166.15L300.85 166.15C302.424 166.15 303.7 167.426 303.7 169C303.7 170.574 302.424 171.85 300.85 171.85L256.85 171.85C255.276 171.85 254 170.574 254 169Z" fill="#343434"/>
</svg>
