<svg preserveAspectRatio="none" width="100%" height="100%" overflow="visible" style="display: block;" viewBox="0 0 12 12" fill="none" xmlns="http://www.w3.org/2000/svg">
<g id="lock-password">
<path id="Vector" d="M3.75031 4.50008V3.25008C3.75031 2.00744 4.75767 1.00008 6.00031 1.00008C7.24296 1.00008 8.25031 2.00744 8.25031 3.25008V4.50008" stroke="var(--stroke-0, #E2E8F0)" stroke-width="0.488821" stroke-linecap="round" stroke-linejoin="round"/>
<path id="Subtract" d="M5.99934 4.50008C6.79169 4.50008 7.51174 4.51733 8.22004 4.54989C9.06169 4.58874 9.75311 5.24317 9.86555 6.07821C9.93892 6.62306 9.99933 7.18144 9.99934 7.75008C9.99934 8.31888 9.93895 8.87793 9.86555 9.42293C9.75293 10.2578 9.06154 10.9114 8.22004 10.9503C7.51174 10.9828 6.79169 11.0001 5.99934 11.0001C5.20715 11.0001 4.48778 10.9828 3.77961 10.9503C2.93797 10.9116 2.24572 10.2579 2.13313 9.42293C2.05975 8.87793 1.99934 8.31888 1.99934 7.75008C1.99934 7.18146 2.05978 6.62304 2.13313 6.07821C2.24557 5.24306 2.93785 4.58859 3.77961 4.54989C4.48778 4.51734 5.20715 4.50008 5.99934 4.50008ZM5.43781 7.05184V8.62606H5.6634V9.52547H6.3382V8.62606H6.56281V7.05184H5.43781Z" fill="var(--fill-0, #E2E8F0)"/>
</g>
</svg>
