<svg preserveAspectRatio="none" overflow="visible" style="display: block;" width="64" height="64" viewBox="0 0 64 64" fill="none" xmlns="http://www.w3.org/2000/svg">
<g id="Frame 2147227993">
<path id="Vector" d="M32.2462 53.7557V32.0008" stroke="#33095E" stroke-width="3" stroke-linecap="round" stroke-linejoin="round"/>
<path id="Vector_2" d="M50.2364 45.6406L54 49.4043" stroke="#33095E" stroke-width="3" stroke-linecap="round" stroke-linejoin="round"/>
<path id="Vector_3" d="M51.825 28.7327V23.2983C51.8242 22.5353 51.6228 21.7859 51.241 21.1253C50.8591 20.4648 50.3103 19.9162 49.6495 19.5347L34.421 10.8327C33.7596 10.4508 33.0093 10.2498 32.2455 10.2498C31.4818 10.2498 30.7315 10.4508 30.07 10.8327L14.8416 19.5347C14.1808 19.9162 13.632 20.4648 13.2501 21.1253C12.8683 21.7859 12.6669 22.5353 12.6661 23.2983V40.7023C12.6672 41.4649 12.8688 42.2138 13.2507 42.874C13.6325 43.5342 14.1811 44.0824 14.8416 44.4637L30.07 53.1657C30.7313 53.5479 31.4815 53.7493 32.2452 53.7497C33.009 53.7501 33.7594 53.5494 34.421 53.1679L36.553 51.9518" stroke="#33095E" stroke-width="3" stroke-linecap="round" stroke-linejoin="round"/>
<path id="Vector_4" d="M13.2969 21.1228L32.2455 32.0003L51.1941 21.1228" stroke="#33095E" stroke-width="3" stroke-linecap="round" stroke-linejoin="round"/>
<path id="Vector_5" d="M22.4551 15.1834L42.0281 26.3828" stroke="#33095E" stroke-width="3" stroke-linecap="round" stroke-linejoin="round"/>
<path id="Vector_6" d="M46.3861 47.2288C49.3898 47.2288 51.8248 44.7938 51.8248 41.7901C51.8248 38.7864 49.3898 36.3514 46.3861 36.3514C43.3823 36.3514 40.9473 38.7864 40.9473 41.7901C40.9473 44.7938 43.3823 47.2288 46.3861 47.2288Z" stroke="#33095E" stroke-width="3" stroke-linecap="round" stroke-linejoin="round"/>
</g>
</svg>
