<svg width="280" height="54" viewBox="0 0 311 54" fill="none" xmlns="http://www.w3.org/2000/svg">
<rect width="311" height="44" rx="22" fill="#F5F5F5"/>
<path d="M28.14 15V21.02H20.1V15H18.1V29H20.1V22.76H28.14V29H30.14V15H28.14ZM43.2305 23.76C43.2305 20.5 41.0505 18.3 37.9905 18.3C34.9305 18.3 32.6705 20.56 32.6705 23.7C32.6705 26.86 34.9505 29.12 38.3705 29.12C40.1305 29.12 41.5905 28.52 42.5505 27.4L41.4905 26.16C40.7105 27.02 39.6705 27.44 38.4305 27.44C36.3305 27.44 34.8305 26.2 34.5905 24.34H43.1905C43.2105 24.16 43.2305 23.92 43.2305 23.76ZM37.9905 19.92C39.8505 19.92 41.1905 21.18 41.3905 22.96H34.5905C34.7905 21.16 36.1505 19.92 37.9905 19.92ZM45.4966 29H47.4166V14.16H45.4966V29ZM50.6825 29H52.6025V14.16H50.6825V29ZM60.4084 29.12C63.5884 29.12 65.9084 26.86 65.9084 23.7C65.9084 20.54 63.5884 18.3 60.4084 18.3C57.2284 18.3 54.8884 20.54 54.8884 23.7C54.8884 26.86 57.2284 29.12 60.4084 29.12ZM60.4084 27.44C58.3684 27.44 56.8284 25.96 56.8284 23.7C56.8284 21.44 58.3684 19.98 60.4084 19.98C62.4484 19.98 63.9684 21.44 63.9684 23.7C63.9684 25.96 62.4484 27.44 60.4084 27.44ZM87.4548 18.4L84.2948 26.88L81.1548 18.4H79.5348L76.3348 26.84L73.2548 18.4H71.4348L75.3748 29H77.2148L80.3148 20.96L83.3748 29H85.2148L89.1748 18.4H87.4548ZM100.01 23.76C100.01 20.5 97.8302 18.3 94.7702 18.3C91.7102 18.3 89.4502 20.56 89.4502 23.7C89.4502 26.86 91.7302 29.12 95.1502 29.12C96.9102 29.12 98.3702 28.52 99.3302 27.4L98.2702 26.16C97.4902 27.02 96.4502 27.44 95.2102 27.44C93.1102 27.44 91.6102 26.2 91.3702 24.34H99.9702C99.9902 24.16 100.01 23.92 100.01 23.76ZM94.7702 19.92C96.6302 19.92 97.9702 21.18 98.1702 22.96H91.3702C91.5702 21.16 92.9302 19.92 94.7702 19.92ZM111.107 18.3C109.407 18.3 107.827 18.78 106.727 19.66L107.527 21.1C108.347 20.4 109.627 19.96 110.887 19.96C112.787 19.96 113.727 20.9 113.727 22.52V22.9H110.687C107.527 22.9 106.427 24.3 106.427 26C106.427 27.84 107.947 29.12 110.347 29.12C112.007 29.12 113.187 28.56 113.827 27.6V29H115.647V22.6C115.647 19.7 114.007 18.3 111.107 18.3ZM110.667 27.64C109.207 27.64 108.327 26.98 108.327 25.92C108.327 25.02 108.867 24.28 110.767 24.28H113.727V25.76C113.247 26.98 112.107 27.64 110.667 27.64ZM120.64 20.18V18.4H118.8V29H120.72V23.72C120.72 21.4 122 20.14 124.06 20.14C124.2 20.14 124.34 20.14 124.5 20.16V18.3C122.64 18.3 121.32 18.94 120.64 20.18ZM135.949 23.76C135.949 20.5 133.769 18.3 130.709 18.3C127.649 18.3 125.389 20.56 125.389 23.7C125.389 26.86 127.669 29.12 131.089 29.12C132.849 29.12 134.309 28.52 135.269 27.4L134.209 26.16C133.429 27.02 132.389 27.44 131.149 27.44C129.049 27.44 127.549 26.2 127.309 24.34H135.909C135.929 24.16 135.949 23.92 135.949 23.76ZM130.709 19.92C132.569 19.92 133.909 21.18 134.109 22.96H127.309C127.509 21.16 128.869 19.92 130.709 19.92ZM149.03 15H142.63V29H146.59V25.34H149.03C152.85 25.34 155.25 23.36 155.25 20.18C155.25 16.98 152.85 15 149.03 15ZM148.79 22.22H146.59V18.12H148.79C150.43 18.12 151.25 18.88 151.25 20.18C151.25 21.46 150.43 22.22 148.79 22.22ZM160.318 19.46V18.16H156.698V29H160.498V24.02C160.498 22.12 161.558 21.34 163.098 21.34C163.378 21.34 163.618 21.36 163.958 21.4V17.98C162.358 17.98 161.098 18.48 160.318 19.46ZM170.469 29.18C174.049 29.18 176.589 26.84 176.589 23.56C176.589 20.3 174.049 17.98 170.469 17.98C166.929 17.98 164.349 20.3 164.349 23.56C164.349 26.84 166.929 29.18 170.469 29.18ZM170.469 26.16C169.189 26.16 168.189 25.22 168.189 23.56C168.189 21.92 169.189 21 170.469 21C171.769 21 172.749 21.92 172.749 23.56C172.749 25.22 171.769 26.16 170.469 26.16ZM180.009 16.96C181.409 16.96 182.329 16.08 182.329 14.88C182.329 13.74 181.409 12.92 180.009 12.92C178.609 12.92 177.689 13.8 177.689 14.94C177.689 16.08 178.609 16.96 180.009 16.96ZM177.489 33.06C180.289 33.06 181.909 31.36 181.909 28.72V18.16H178.109V28.7C178.109 29.68 177.649 30.12 176.989 30.12C176.549 30.12 176.129 30 175.809 29.8L174.849 32.5C175.509 32.88 176.489 33.06 177.489 33.06ZM195.035 23.6C195.035 20.02 192.435 17.98 189.235 17.98C185.815 17.98 183.275 20.3 183.275 23.56C183.275 26.8 185.775 29.18 189.635 29.18C191.695 29.18 193.215 28.58 194.255 27.42L192.255 25.34C191.515 25.98 190.815 26.28 189.755 26.28C188.355 26.28 187.415 25.64 187.095 24.54H194.975C194.995 24.24 195.035 23.88 195.035 23.6ZM189.255 20.68C190.435 20.68 191.275 21.4 191.475 22.54H187.035C187.255 21.4 188.075 20.68 189.255 20.68ZM201.927 29.18C204.387 29.18 206.267 28.08 207.007 26.2L204.067 24.7C203.547 25.72 202.787 26.16 201.907 26.16C200.587 26.16 199.547 25.24 199.547 23.56C199.547 21.92 200.587 21 201.907 21C202.787 21 203.547 21.44 204.067 22.46L207.007 20.96C206.267 19.08 204.387 17.98 201.927 17.98C198.287 17.98 195.707 20.3 195.707 23.56C195.707 26.86 198.287 29.18 201.927 29.18ZM214.754 25.9C214.434 26.12 214.014 26.24 213.594 26.24C212.914 26.24 212.454 25.8 212.454 25V21.4H214.934V18.56H212.454V15.74H208.654V18.56H207.074V21.4H208.654V25.04C208.654 27.82 210.274 29.18 213.054 29.18C214.054 29.18 215.034 28.98 215.694 28.56L214.754 25.9ZM227.279 29.28C231.439 29.28 233.479 27.2 233.479 24.76C233.479 19.6 225.539 21.2 225.539 19.06C225.539 18.36 226.139 17.8 227.799 17.8C229.019 17.8 230.339 18.16 231.679 18.88L232.899 15.94C231.519 15.14 229.639 14.72 227.819 14.72C223.659 14.72 221.619 16.76 221.619 19.26C221.619 24.46 229.579 22.84 229.579 25.06C229.579 25.74 228.939 26.2 227.299 26.2C225.679 26.2 223.919 25.64 222.679 24.82L221.379 27.74C222.699 28.66 224.979 29.28 227.279 29.28ZM240.169 29.18C243.749 29.18 246.289 26.84 246.289 23.56C246.289 20.3 243.749 17.98 240.169 17.98C236.629 17.98 234.049 20.3 234.049 23.56C234.049 26.84 236.629 29.18 240.169 29.18ZM240.169 26.16C238.889 26.16 237.889 25.22 237.889 23.56C237.889 21.92 238.889 21 240.169 21C241.469 21 242.449 21.92 242.449 23.56C242.449 25.22 241.469 26.16 240.169 26.16ZM253.189 29.18C255.649 29.18 257.529 28.08 258.269 26.2L255.329 24.7C254.809 25.72 254.049 26.16 253.169 26.16C251.849 26.16 250.809 25.24 250.809 23.56C250.809 21.92 251.849 21 253.169 21C254.049 21 254.809 21.44 255.329 22.46L258.269 20.96C257.529 19.08 255.649 17.98 253.189 17.98C249.549 17.98 246.969 20.3 246.969 23.56C246.969 26.86 249.549 29.18 253.189 29.18ZM261.2 16.96C262.6 16.96 263.52 16.08 263.52 14.88C263.52 13.74 262.6 12.92 261.2 12.92C259.8 12.92 258.88 13.8 258.88 14.94C258.88 16.08 259.8 16.96 261.2 16.96ZM259.3 29H263.1V18.16H259.3V29ZM269.789 17.98C268.089 17.98 266.249 18.42 265.009 19.24L266.289 21.82C267.029 21.24 268.189 20.88 269.229 20.88C270.729 20.88 271.469 21.5 271.529 22.6H269.369C266.009 22.6 264.549 23.84 264.549 25.84C264.549 27.72 265.989 29.18 268.589 29.18C270.169 29.18 271.249 28.64 271.789 27.6V29H275.329V22.98C275.329 19.54 273.309 17.98 269.789 17.98ZM269.649 26.78C268.749 26.78 268.229 26.32 268.229 25.68C268.229 25.02 268.669 24.58 269.889 24.58H271.529V25.52C271.229 26.38 270.489 26.78 269.649 26.78ZM277.328 29H281.128V14.16H277.328V29ZM284.817 24.68C283.497 24.68 282.537 25.56 282.537 26.92C282.537 27.86 282.997 28.54 283.717 28.88L282.777 32.14H285.157L286.417 29.22C286.997 27.92 287.077 27.48 287.077 26.92C287.077 25.56 286.117 24.68 284.817 24.68Z" fill="#CE579C"/>
<path d="M0 54C0 54 6.66667 37.1667 5.5 34C11 36 20.6 40 15 40C9.4 40 2.66667 49.3333 0 54Z" fill="#F5F5F5"/>
</svg>
