<svg width="640" height="708" viewBox="0 0 640 708" fill="none" xmlns="http://www.w3.org/2000/svg">
<rect x="1.5" y="1.5" width="637" height="705" rx="30.5" fill="white" stroke="url(#paint0_linear_212_305)" stroke-width="3" stroke-miterlimit="2.61313"/>
<path d="M64.7844 303C64.7844 310.347 70.7578 316.333 78.1178 316.333C85.4644 316.333 91.4511 310.347 91.4511 303C91.4511 295.64 85.4644 289.667 78.1178 289.667C70.7578 289.667 64.7844 295.64 64.7844 303V303Z" fill="#130F26"/>
<rect x="73.1526" y="301.743" width="6.91934" height="2.30645" rx="1.15322" transform="rotate(45 73.1526 301.743)" fill="white"/>
<rect x="85.3845" y="299.297" width="12.6855" height="2.30645" rx="1.15322" transform="rotate(135 85.3845 299.297)" fill="white"/>
<path d="M121.718 307.56H119.438V310.5H116.278V307.56H108.738V305.38L115.338 296.5H118.738L112.618 304.92H116.378V302.3H119.438V304.92H121.718V307.56ZM135.291 296.5C136.531 296.5 137.604 296.707 138.511 297.12C139.431 297.533 140.137 298.12 140.631 298.88C141.124 299.64 141.371 300.54 141.371 301.58C141.371 302.607 141.124 303.507 140.631 304.28C140.137 305.04 139.431 305.627 138.511 306.04C137.604 306.44 136.531 306.64 135.291 306.64H132.471V310.5H129.231V296.5H135.291ZM135.111 304C136.084 304 136.824 303.793 137.331 303.38C137.837 302.953 138.091 302.353 138.091 301.58C138.091 300.793 137.837 300.193 137.331 299.78C136.824 299.353 136.084 299.14 135.111 299.14H132.471V304H135.111ZM148.564 310.66C147.431 310.66 146.411 310.427 145.504 309.96C144.611 309.48 143.911 308.82 143.404 307.98C142.898 307.14 142.644 306.187 142.644 305.12C142.644 304.053 142.898 303.1 143.404 302.26C143.911 301.42 144.611 300.767 145.504 300.3C146.411 299.82 147.431 299.58 148.564 299.58C149.698 299.58 150.711 299.82 151.604 300.3C152.498 300.767 153.198 301.42 153.704 302.26C154.211 303.1 154.464 304.053 154.464 305.12C154.464 306.187 154.211 307.14 153.704 307.98C153.198 308.82 152.498 309.48 151.604 309.96C150.711 310.427 149.698 310.66 148.564 310.66ZM148.564 308.1C149.364 308.1 150.018 307.833 150.524 307.3C151.044 306.753 151.304 306.027 151.304 305.12C151.304 304.213 151.044 303.493 150.524 302.96C150.018 302.413 149.364 302.14 148.564 302.14C147.764 302.14 147.104 302.413 146.584 302.96C146.064 303.493 145.804 304.213 145.804 305.12C145.804 306.027 146.064 306.753 146.584 307.3C147.104 307.833 147.764 308.1 148.564 308.1ZM160.17 310.66C159.277 310.66 158.403 310.553 157.55 310.34C156.697 310.113 156.017 309.833 155.51 309.5L156.55 307.26C157.03 307.567 157.61 307.82 158.29 308.02C158.97 308.207 159.637 308.3 160.29 308.3C161.61 308.3 162.27 307.973 162.27 307.32C162.27 307.013 162.09 306.793 161.73 306.66C161.37 306.527 160.817 306.413 160.07 306.32C159.19 306.187 158.463 306.033 157.89 305.86C157.317 305.687 156.817 305.38 156.39 304.94C155.977 304.5 155.77 303.873 155.77 303.06C155.77 302.38 155.963 301.78 156.35 301.26C156.75 300.727 157.323 300.313 158.07 300.02C158.83 299.727 159.723 299.58 160.75 299.58C161.51 299.58 162.263 299.667 163.01 299.84C163.77 300 164.397 300.227 164.89 300.52L163.85 302.74C162.903 302.207 161.87 301.94 160.75 301.94C160.083 301.94 159.583 302.033 159.25 302.22C158.917 302.407 158.75 302.647 158.75 302.94C158.75 303.273 158.93 303.507 159.29 303.64C159.65 303.773 160.223 303.9 161.01 304.02C161.89 304.167 162.61 304.327 163.17 304.5C163.73 304.66 164.217 304.96 164.63 305.4C165.043 305.84 165.25 306.453 165.25 307.24C165.25 307.907 165.05 308.5 164.65 309.02C164.25 309.54 163.663 309.947 162.89 310.24C162.13 310.52 161.223 310.66 160.17 310.66ZM174.115 309.98C173.808 310.207 173.428 310.38 172.975 310.5C172.535 310.607 172.068 310.66 171.575 310.66C170.295 310.66 169.302 310.333 168.595 309.68C167.902 309.027 167.555 308.067 167.555 306.8V302.38H165.895V299.98H167.555V297.36H170.675V299.98H173.355V302.38H170.675V306.76C170.675 307.213 170.788 307.567 171.015 307.82C171.255 308.06 171.588 308.18 172.015 308.18C172.508 308.18 172.928 308.047 173.275 307.78L174.115 309.98ZM179.486 310.66C178.593 310.66 177.72 310.553 176.866 310.34C176.013 310.113 175.333 309.833 174.826 309.5L175.866 307.26C176.346 307.567 176.926 307.82 177.606 308.02C178.286 308.207 178.953 308.3 179.606 308.3C180.926 308.3 181.586 307.973 181.586 307.32C181.586 307.013 181.406 306.793 181.046 306.66C180.686 306.527 180.133 306.413 179.386 306.32C178.506 306.187 177.78 306.033 177.206 305.86C176.633 305.687 176.133 305.38 175.706 304.94C175.293 304.5 175.086 303.873 175.086 303.06C175.086 302.38 175.28 301.78 175.666 301.26C176.066 300.727 176.64 300.313 177.386 300.02C178.146 299.727 179.04 299.58 180.066 299.58C180.826 299.58 181.58 299.667 182.326 299.84C183.086 300 183.713 300.227 184.206 300.52L183.166 302.74C182.22 302.207 181.186 301.94 180.066 301.94C179.4 301.94 178.9 302.033 178.566 302.22C178.233 302.407 178.066 302.647 178.066 302.94C178.066 303.273 178.246 303.507 178.606 303.64C178.966 303.773 179.54 303.9 180.326 304.02C181.206 304.167 181.926 304.327 182.486 304.5C183.046 304.66 183.533 304.96 183.946 305.4C184.36 305.84 184.566 306.453 184.566 307.24C184.566 307.907 184.366 308.5 183.966 309.02C183.566 309.54 182.98 309.947 182.206 310.24C181.446 310.52 180.54 310.66 179.486 310.66ZM197.862 299.8C198.889 299.8 199.809 300.027 200.622 300.48C201.436 300.933 202.069 301.567 202.522 302.38C202.989 303.193 203.222 304.133 203.222 305.2C203.222 306.267 202.989 307.213 202.522 308.04C202.069 308.853 201.436 309.487 200.622 309.94C199.809 310.393 198.889 310.62 197.862 310.62C197.102 310.62 196.402 310.473 195.762 310.18C195.136 309.887 194.602 309.46 194.162 308.9V314.38H192.242V299.9H194.082V301.58C194.509 300.993 195.049 300.553 195.702 300.26C196.356 299.953 197.076 299.8 197.862 299.8ZM197.702 308.94C198.382 308.94 198.989 308.787 199.522 308.48C200.069 308.16 200.496 307.72 200.802 307.16C201.122 306.587 201.282 305.933 201.282 305.2C201.282 304.467 201.122 303.82 200.802 303.26C200.496 302.687 200.069 302.247 199.522 301.94C198.989 301.633 198.382 301.48 197.702 301.48C197.036 301.48 196.429 301.64 195.882 301.96C195.349 302.267 194.922 302.7 194.602 303.26C194.296 303.82 194.142 304.467 194.142 305.2C194.142 305.933 194.296 306.587 194.602 307.16C194.909 307.72 195.336 308.16 195.882 308.48C196.429 308.787 197.036 308.94 197.702 308.94ZM215.455 305.26C215.455 305.407 215.442 305.6 215.415 305.84H206.815C206.935 306.773 207.342 307.527 208.035 308.1C208.742 308.66 209.615 308.94 210.655 308.94C211.922 308.94 212.942 308.513 213.715 307.66L214.775 308.9C214.295 309.46 213.695 309.887 212.975 310.18C212.269 310.473 211.475 310.62 210.595 310.62C209.475 310.62 208.482 310.393 207.615 309.94C206.749 309.473 206.075 308.827 205.595 308C205.129 307.173 204.895 306.24 204.895 305.2C204.895 304.173 205.122 303.247 205.575 302.42C206.042 301.593 206.675 300.953 207.475 300.5C208.289 300.033 209.202 299.8 210.215 299.8C211.229 299.8 212.129 300.033 212.915 300.5C213.715 300.953 214.335 301.593 214.775 302.42C215.229 303.247 215.455 304.193 215.455 305.26ZM210.215 301.42C209.295 301.42 208.522 301.7 207.895 302.26C207.282 302.82 206.922 303.553 206.815 304.46H213.615C213.509 303.567 213.142 302.84 212.515 302.28C211.902 301.707 211.135 301.42 210.215 301.42ZM219.961 301.68C220.295 301.067 220.788 300.6 221.441 300.28C222.095 299.96 222.888 299.8 223.821 299.8V301.66C223.715 301.647 223.568 301.64 223.381 301.64C222.341 301.64 221.521 301.953 220.921 302.58C220.335 303.193 220.041 304.073 220.041 305.22V310.5H218.121V299.9H219.961V301.68ZM247.735 299.9L243.775 310.5H241.935L238.875 302.46L235.775 310.5H233.935L229.995 299.9H231.815L234.895 308.34L238.095 299.9H239.715L242.855 308.38L246.015 299.9H247.735ZM258.971 305.26C258.971 305.407 258.957 305.6 258.931 305.84H250.331C250.451 306.773 250.857 307.527 251.551 308.1C252.257 308.66 253.131 308.94 254.171 308.94C255.437 308.94 256.457 308.513 257.231 307.66L258.291 308.9C257.811 309.46 257.211 309.887 256.491 310.18C255.784 310.473 254.991 310.62 254.111 310.62C252.991 310.62 251.997 310.393 251.131 309.94C250.264 309.473 249.591 308.827 249.111 308C248.644 307.173 248.411 306.24 248.411 305.2C248.411 304.173 248.637 303.247 249.091 302.42C249.557 301.593 250.191 300.953 250.991 300.5C251.804 300.033 252.717 299.8 253.731 299.8C254.744 299.8 255.644 300.033 256.431 300.5C257.231 300.953 257.851 301.593 258.291 302.42C258.744 303.247 258.971 304.193 258.971 305.26ZM253.731 301.42C252.811 301.42 252.037 301.7 251.411 302.26C250.797 302.82 250.437 303.553 250.331 304.46H257.131C257.024 303.567 256.657 302.84 256.031 302.28C255.417 301.707 254.651 301.42 253.731 301.42ZM271.217 305.26C271.217 305.407 271.204 305.6 271.177 305.84H262.577C262.697 306.773 263.104 307.527 263.797 308.1C264.504 308.66 265.377 308.94 266.417 308.94C267.684 308.94 268.704 308.513 269.477 307.66L270.537 308.9C270.057 309.46 269.457 309.887 268.737 310.18C268.03 310.473 267.237 310.62 266.357 310.62C265.237 310.62 264.244 310.393 263.377 309.94C262.51 309.473 261.837 308.827 261.357 308C260.89 307.173 260.657 306.24 260.657 305.2C260.657 304.173 260.884 303.247 261.337 302.42C261.804 301.593 262.437 300.953 263.237 300.5C264.05 300.033 264.964 299.8 265.977 299.8C266.99 299.8 267.89 300.033 268.677 300.5C269.477 300.953 270.097 301.593 270.537 302.42C270.99 303.247 271.217 304.193 271.217 305.26ZM265.977 301.42C265.057 301.42 264.284 301.7 263.657 302.26C263.044 302.82 262.684 303.553 262.577 304.46H269.377C269.27 303.567 268.904 302.84 268.277 302.28C267.664 301.707 266.897 301.42 265.977 301.42ZM278.003 305.56L275.803 307.6V310.5H273.883V295.66H275.803V305.18L281.583 299.9H283.903L279.443 304.28L284.343 310.5H281.983L278.003 305.56Z" fill="#1A1A1A"/>
<path d="M64.7844 355C64.7844 362.347 70.7578 368.333 78.1178 368.333C85.4644 368.333 91.4511 362.347 91.4511 355C91.4511 347.64 85.4644 341.667 78.1178 341.667C70.7578 341.667 64.7844 347.64 64.7844 355V355Z" fill="#130F26"/>
<rect x="73.1526" y="353.743" width="6.91934" height="2.30645" rx="1.15322" transform="rotate(45 73.1526 353.743)" fill="white"/>
<rect x="85.3845" y="351.297" width="12.6855" height="2.30645" rx="1.15322" transform="rotate(135 85.3845 351.297)" fill="white"/>
<path d="M115.438 354.2C116.664 354.4 117.604 354.86 118.258 355.58C118.911 356.287 119.238 357.167 119.238 358.22C119.238 359.033 119.024 359.787 118.598 360.48C118.171 361.16 117.518 361.707 116.638 362.12C115.771 362.533 114.704 362.74 113.438 362.74C112.451 362.74 111.478 362.613 110.518 362.36C109.571 362.093 108.764 361.72 108.098 361.24L109.358 358.76C109.891 359.16 110.504 359.473 111.198 359.7C111.904 359.913 112.624 360.02 113.358 360.02C114.171 360.02 114.811 359.867 115.278 359.56C115.744 359.24 115.978 358.793 115.978 358.22C115.978 357.073 115.104 356.5 113.358 356.5H111.878V354.36L114.758 351.1H108.798V348.5H118.598V350.6L115.438 354.2ZM136.198 362.5L133.498 358.6H133.338H130.518V362.5H127.278V348.5H133.338C134.578 348.5 135.651 348.707 136.558 349.12C137.478 349.533 138.184 350.12 138.678 350.88C139.171 351.64 139.418 352.54 139.418 353.58C139.418 354.62 139.164 355.52 138.658 356.28C138.164 357.027 137.458 357.6 136.538 358L139.678 362.5H136.198ZM136.138 353.58C136.138 352.793 135.884 352.193 135.378 351.78C134.871 351.353 134.131 351.14 133.158 351.14H130.518V356.02H133.158C134.131 356.02 134.871 355.807 135.378 355.38C135.884 354.953 136.138 354.353 136.138 353.58ZM152.305 357.16C152.305 357.2 152.285 357.48 152.245 358H144.105C144.251 358.667 144.598 359.193 145.145 359.58C145.691 359.967 146.371 360.16 147.185 360.16C147.745 360.16 148.238 360.08 148.665 359.92C149.105 359.747 149.511 359.48 149.885 359.12L151.545 360.92C150.531 362.08 149.051 362.66 147.105 362.66C145.891 362.66 144.818 362.427 143.885 361.96C142.951 361.48 142.231 360.82 141.725 359.98C141.218 359.14 140.965 358.187 140.965 357.12C140.965 356.067 141.211 355.12 141.705 354.28C142.211 353.427 142.898 352.767 143.765 352.3C144.645 351.82 145.625 351.58 146.705 351.58C147.758 351.58 148.711 351.807 149.565 352.26C150.418 352.713 151.085 353.367 151.565 354.22C152.058 355.06 152.305 356.04 152.305 357.16ZM146.725 353.94C146.018 353.94 145.425 354.14 144.945 354.54C144.465 354.94 144.171 355.487 144.065 356.18H149.365C149.258 355.5 148.965 354.96 148.485 354.56C148.005 354.147 147.418 353.94 146.725 353.94ZM164.922 357.16C164.922 357.2 164.902 357.48 164.862 358H156.722C156.869 358.667 157.215 359.193 157.762 359.58C158.309 359.967 158.989 360.16 159.802 360.16C160.362 360.16 160.855 360.08 161.282 359.92C161.722 359.747 162.129 359.48 162.502 359.12L164.162 360.92C163.149 362.08 161.669 362.66 159.722 362.66C158.509 362.66 157.435 362.427 156.502 361.96C155.569 361.48 154.849 360.82 154.342 359.98C153.835 359.14 153.582 358.187 153.582 357.12C153.582 356.067 153.829 355.12 154.322 354.28C154.829 353.427 155.515 352.767 156.382 352.3C157.262 351.82 158.242 351.58 159.322 351.58C160.375 351.58 161.329 351.807 162.182 352.26C163.035 352.713 163.702 353.367 164.182 354.22C164.675 355.06 164.922 356.04 164.922 357.16ZM159.342 353.94C158.635 353.94 158.042 354.14 157.562 354.54C157.082 354.94 156.789 355.487 156.682 356.18H161.982C161.875 355.5 161.582 354.96 161.102 354.56C160.622 354.147 160.035 353.94 159.342 353.94ZM166.999 347.66H170.119V362.5H166.999V347.66ZM176.635 362.66C175.741 362.66 174.868 362.553 174.015 362.34C173.161 362.113 172.481 361.833 171.975 361.5L173.015 359.26C173.495 359.567 174.075 359.82 174.755 360.02C175.435 360.207 176.101 360.3 176.755 360.3C178.075 360.3 178.735 359.973 178.735 359.32C178.735 359.013 178.555 358.793 178.195 358.66C177.835 358.527 177.281 358.413 176.535 358.32C175.655 358.187 174.928 358.033 174.355 357.86C173.781 357.687 173.281 357.38 172.855 356.94C172.441 356.5 172.235 355.873 172.235 355.06C172.235 354.38 172.428 353.78 172.815 353.26C173.215 352.727 173.788 352.313 174.535 352.02C175.295 351.727 176.188 351.58 177.215 351.58C177.975 351.58 178.728 351.667 179.475 351.84C180.235 352 180.861 352.227 181.355 352.52L180.315 354.74C179.368 354.207 178.335 353.94 177.215 353.94C176.548 353.94 176.048 354.033 175.715 354.22C175.381 354.407 175.215 354.647 175.215 354.94C175.215 355.273 175.395 355.507 175.755 355.64C176.115 355.773 176.688 355.9 177.475 356.02C178.355 356.167 179.075 356.327 179.635 356.5C180.195 356.66 180.681 356.96 181.095 357.4C181.508 357.84 181.715 358.453 181.715 359.24C181.715 359.907 181.515 360.5 181.115 361.02C180.715 361.54 180.128 361.947 179.355 362.24C178.595 362.52 177.688 362.66 176.635 362.66ZM195.011 351.8C196.037 351.8 196.957 352.027 197.771 352.48C198.584 352.933 199.217 353.567 199.671 354.38C200.137 355.193 200.371 356.133 200.371 357.2C200.371 358.267 200.137 359.213 199.671 360.04C199.217 360.853 198.584 361.487 197.771 361.94C196.957 362.393 196.037 362.62 195.011 362.62C194.251 362.62 193.551 362.473 192.911 362.18C192.284 361.887 191.751 361.46 191.311 360.9V366.38H189.391V351.9H191.231V353.58C191.657 352.993 192.197 352.553 192.851 352.26C193.504 351.953 194.224 351.8 195.011 351.8ZM194.851 360.94C195.531 360.94 196.137 360.787 196.671 360.48C197.217 360.16 197.644 359.72 197.951 359.16C198.271 358.587 198.431 357.933 198.431 357.2C198.431 356.467 198.271 355.82 197.951 355.26C197.644 354.687 197.217 354.247 196.671 353.94C196.137 353.633 195.531 353.48 194.851 353.48C194.184 353.48 193.577 353.64 193.031 353.96C192.497 354.267 192.071 354.7 191.751 355.26C191.444 355.82 191.291 356.467 191.291 357.2C191.291 357.933 191.444 358.587 191.751 359.16C192.057 359.72 192.484 360.16 193.031 360.48C193.577 360.787 194.184 360.94 194.851 360.94ZM212.604 357.26C212.604 357.407 212.59 357.6 212.564 357.84H203.964C204.084 358.773 204.49 359.527 205.184 360.1C205.89 360.66 206.764 360.94 207.804 360.94C209.07 360.94 210.09 360.513 210.864 359.66L211.924 360.9C211.444 361.46 210.844 361.887 210.124 362.18C209.417 362.473 208.624 362.62 207.744 362.62C206.624 362.62 205.63 362.393 204.764 361.94C203.897 361.473 203.224 360.827 202.744 360C202.277 359.173 202.044 358.24 202.044 357.2C202.044 356.173 202.27 355.247 202.724 354.42C203.19 353.593 203.824 352.953 204.624 352.5C205.437 352.033 206.35 351.8 207.364 351.8C208.377 351.8 209.277 352.033 210.064 352.5C210.864 352.953 211.484 353.593 211.924 354.42C212.377 355.247 212.604 356.193 212.604 357.26ZM207.364 353.42C206.444 353.42 205.67 353.7 205.044 354.26C204.43 354.82 204.07 355.553 203.964 356.46H210.764C210.657 355.567 210.29 354.84 209.664 354.28C209.05 353.707 208.284 353.42 207.364 353.42ZM217.11 353.68C217.443 353.067 217.936 352.6 218.59 352.28C219.243 351.96 220.036 351.8 220.97 351.8V353.66C220.863 353.647 220.716 353.64 220.53 353.64C219.49 353.64 218.67 353.953 218.07 354.58C217.483 355.193 217.19 356.073 217.19 357.22V362.5H215.27V351.9H217.11V353.68ZM244.884 351.9L240.924 362.5H239.084L236.024 354.46L232.924 362.5H231.084L227.144 351.9H228.964L232.044 360.34L235.244 351.9H236.864L240.004 360.38L243.164 351.9H244.884ZM256.119 357.26C256.119 357.407 256.106 357.6 256.079 357.84H247.479C247.599 358.773 248.006 359.527 248.699 360.1C249.406 360.66 250.279 360.94 251.319 360.94C252.586 360.94 253.606 360.513 254.379 359.66L255.439 360.9C254.959 361.46 254.359 361.887 253.639 362.18C252.933 362.473 252.139 362.62 251.259 362.62C250.139 362.62 249.146 362.393 248.279 361.94C247.413 361.473 246.739 360.827 246.259 360C245.793 359.173 245.559 358.24 245.559 357.2C245.559 356.173 245.786 355.247 246.239 354.42C246.706 353.593 247.339 352.953 248.139 352.5C248.953 352.033 249.866 351.8 250.879 351.8C251.893 351.8 252.793 352.033 253.579 352.5C254.379 352.953 254.999 353.593 255.439 354.42C255.893 355.247 256.119 356.193 256.119 357.26ZM250.879 353.42C249.959 353.42 249.186 353.7 248.559 354.26C247.946 354.82 247.586 355.553 247.479 356.46H254.279C254.173 355.567 253.806 354.84 253.179 354.28C252.566 353.707 251.799 353.42 250.879 353.42ZM268.365 357.26C268.365 357.407 268.352 357.6 268.325 357.84H259.725C259.845 358.773 260.252 359.527 260.945 360.1C261.652 360.66 262.525 360.94 263.565 360.94C264.832 360.94 265.852 360.513 266.625 359.66L267.685 360.9C267.205 361.46 266.605 361.887 265.885 362.18C265.179 362.473 264.385 362.62 263.505 362.62C262.385 362.62 261.392 362.393 260.525 361.94C259.659 361.473 258.985 360.827 258.505 360C258.039 359.173 257.805 358.24 257.805 357.2C257.805 356.173 258.032 355.247 258.485 354.42C258.952 353.593 259.585 352.953 260.385 352.5C261.199 352.033 262.112 351.8 263.125 351.8C264.139 351.8 265.039 352.033 265.825 352.5C266.625 352.953 267.245 353.593 267.685 354.42C268.139 355.247 268.365 356.193 268.365 357.26ZM263.125 353.42C262.205 353.42 261.432 353.7 260.805 354.26C260.192 354.82 259.832 355.553 259.725 356.46H266.525C266.419 355.567 266.052 354.84 265.425 354.28C264.812 353.707 264.045 353.42 263.125 353.42ZM275.151 357.56L272.951 359.6V362.5H271.031V347.66H272.951V357.18L278.731 351.9H281.051L276.591 356.28L281.491 362.5H279.131L275.151 357.56Z" fill="#1A1A1A"/>
<path d="M64.7844 459C64.7844 466.347 70.7578 472.333 78.1178 472.333C85.4644 472.333 91.4511 466.347 91.4511 459C91.4511 451.64 85.4644 445.667 78.1178 445.667C70.7578 445.667 64.7844 451.64 64.7844 459V459Z" fill="#130F26"/>
<rect x="73.1526" y="457.743" width="6.91934" height="2.30645" rx="1.15322" transform="rotate(45 73.1526 457.743)" fill="white"/>
<rect x="85.3845" y="455.297" width="12.6855" height="2.30645" rx="1.15322" transform="rotate(135 85.3845 455.297)" fill="white"/>
<path d="M119.138 463H111.698L110.158 466.5H108.098L114.438 452.5H116.418L122.778 466.5H120.678L119.138 463ZM118.438 461.4L115.418 454.54L112.398 461.4H118.438ZM129.108 466.62C128.028 466.62 127.062 466.387 126.208 465.92C125.368 465.453 124.708 464.813 124.228 464C123.748 463.173 123.508 462.24 123.508 461.2C123.508 460.16 123.748 459.233 124.228 458.42C124.708 457.593 125.368 456.953 126.208 456.5C127.062 456.033 128.028 455.8 129.108 455.8C130.068 455.8 130.922 455.993 131.668 456.38C132.428 456.767 133.015 457.327 133.428 458.06L131.968 459C131.635 458.493 131.222 458.113 130.728 457.86C130.235 457.607 129.688 457.48 129.088 457.48C128.395 457.48 127.768 457.633 127.208 457.94C126.662 458.247 126.228 458.687 125.908 459.26C125.602 459.82 125.448 460.467 125.448 461.2C125.448 461.947 125.602 462.607 125.908 463.18C126.228 463.74 126.662 464.173 127.208 464.48C127.768 464.787 128.395 464.94 129.088 464.94C129.688 464.94 130.235 464.813 130.728 464.56C131.222 464.307 131.635 463.927 131.968 463.42L133.428 464.34C133.015 465.073 132.428 465.64 131.668 466.04C130.922 466.427 130.068 466.62 129.108 466.62ZM140.378 466.62C139.298 466.62 138.331 466.387 137.478 465.92C136.638 465.453 135.978 464.813 135.498 464C135.018 463.173 134.778 462.24 134.778 461.2C134.778 460.16 135.018 459.233 135.498 458.42C135.978 457.593 136.638 456.953 137.478 456.5C138.331 456.033 139.298 455.8 140.378 455.8C141.338 455.8 142.191 455.993 142.938 456.38C143.698 456.767 144.285 457.327 144.698 458.06L143.238 459C142.905 458.493 142.491 458.113 141.998 457.86C141.505 457.607 140.958 457.48 140.358 457.48C139.665 457.48 139.038 457.633 138.478 457.94C137.931 458.247 137.498 458.687 137.178 459.26C136.871 459.82 136.718 460.467 136.718 461.2C136.718 461.947 136.871 462.607 137.178 463.18C137.498 463.74 137.931 464.173 138.478 464.48C139.038 464.787 139.665 464.94 140.358 464.94C140.958 464.94 141.505 464.813 141.998 464.56C142.491 464.307 142.905 463.927 143.238 463.42L144.698 464.34C144.285 465.073 143.698 465.64 142.938 466.04C142.191 466.427 141.338 466.62 140.378 466.62ZM151.568 466.62C150.514 466.62 149.568 466.387 148.728 465.92C147.888 465.453 147.228 464.813 146.748 464C146.281 463.173 146.048 462.24 146.048 461.2C146.048 460.16 146.281 459.233 146.748 458.42C147.228 457.593 147.888 456.953 148.728 456.5C149.568 456.033 150.514 455.8 151.568 455.8C152.621 455.8 153.561 456.033 154.388 456.5C155.228 456.953 155.881 457.593 156.348 458.42C156.828 459.233 157.068 460.16 157.068 461.2C157.068 462.24 156.828 463.173 156.348 464C155.881 464.813 155.228 465.453 154.388 465.92C153.561 466.387 152.621 466.62 151.568 466.62ZM151.568 464.94C152.248 464.94 152.854 464.787 153.388 464.48C153.934 464.16 154.361 463.72 154.668 463.16C154.974 462.587 155.128 461.933 155.128 461.2C155.128 460.467 154.974 459.82 154.668 459.26C154.361 458.687 153.934 458.247 153.388 457.94C152.854 457.633 152.248 457.48 151.568 457.48C150.888 457.48 150.274 457.633 149.728 457.94C149.194 458.247 148.768 458.687 148.448 459.26C148.141 459.82 147.988 460.467 147.988 461.2C147.988 461.933 148.141 462.587 148.448 463.16C148.768 463.72 149.194 464.16 149.728 464.48C150.274 464.787 150.888 464.94 151.568 464.94ZM169.603 455.9V466.5H167.783V464.9C167.396 465.447 166.883 465.873 166.243 466.18C165.616 466.473 164.929 466.62 164.183 466.62C162.769 466.62 161.656 466.233 160.843 465.46C160.029 464.673 159.623 463.52 159.623 462V455.9H161.543V461.78C161.543 462.807 161.789 463.587 162.283 464.12C162.776 464.64 163.483 464.9 164.403 464.9C165.416 464.9 166.216 464.593 166.803 463.98C167.389 463.367 167.683 462.5 167.683 461.38V455.9H169.603ZM178.918 455.8C180.265 455.8 181.331 456.193 182.118 456.98C182.918 457.753 183.318 458.893 183.318 460.4V466.5H181.398V460.62C181.398 459.593 181.151 458.82 180.658 458.3C180.165 457.78 179.458 457.52 178.538 457.52C177.498 457.52 176.678 457.827 176.078 458.44C175.478 459.04 175.178 459.907 175.178 461.04V466.5H173.258V455.9H175.098V457.5C175.485 456.953 176.005 456.533 176.658 456.24C177.325 455.947 178.078 455.8 178.918 455.8ZM192.831 465.88C192.551 466.12 192.205 466.307 191.791 466.44C191.378 466.56 190.951 466.62 190.511 466.62C189.445 466.62 188.618 466.333 188.031 465.76C187.445 465.187 187.151 464.367 187.151 463.3V457.48H185.351V455.9H187.151V453.58H189.071V455.9H192.111V457.48H189.071V463.22C189.071 463.793 189.211 464.233 189.491 464.54C189.785 464.847 190.198 465 190.731 465C191.318 465 191.818 464.833 192.231 464.5L192.831 465.88ZM213.784 455.8C215.117 455.8 216.17 456.187 216.944 456.96C217.73 457.733 218.124 458.88 218.124 460.4V466.5H216.204V460.62C216.204 459.593 215.964 458.82 215.484 458.3C215.017 457.78 214.344 457.52 213.464 457.52C212.49 457.52 211.717 457.827 211.144 458.44C210.57 459.04 210.284 459.907 210.284 461.04V466.5H208.364V460.62C208.364 459.593 208.124 458.82 207.644 458.3C207.177 457.78 206.504 457.52 205.624 457.52C204.65 457.52 203.877 457.827 203.304 458.44C202.73 459.04 202.444 459.907 202.444 461.04V466.5H200.524V455.9H202.364V457.48C202.75 456.933 203.257 456.52 203.884 456.24C204.51 455.947 205.224 455.8 206.024 455.8C206.85 455.8 207.584 455.967 208.224 456.3C208.864 456.633 209.357 457.12 209.704 457.76C210.104 457.147 210.657 456.667 211.364 456.32C212.084 455.973 212.89 455.8 213.784 455.8ZM225.516 455.8C226.983 455.8 228.103 456.16 228.876 456.88C229.663 457.6 230.056 458.673 230.056 460.1V466.5H228.236V465.1C227.916 465.593 227.456 465.973 226.856 466.24C226.27 466.493 225.57 466.62 224.756 466.62C223.57 466.62 222.616 466.333 221.896 465.76C221.19 465.187 220.836 464.433 220.836 463.5C220.836 462.567 221.176 461.82 221.856 461.26C222.536 460.687 223.616 460.4 225.096 460.4H228.136V460.02C228.136 459.193 227.896 458.56 227.416 458.12C226.936 457.68 226.23 457.46 225.296 457.46C224.67 457.46 224.056 457.567 223.456 457.78C222.856 457.98 222.35 458.253 221.936 458.6L221.136 457.16C221.683 456.72 222.336 456.387 223.096 456.16C223.856 455.92 224.663 455.8 225.516 455.8ZM225.076 465.14C225.81 465.14 226.443 464.98 226.976 464.66C227.51 464.327 227.896 463.86 228.136 463.26V461.78H225.176C223.55 461.78 222.736 462.327 222.736 463.42C222.736 463.953 222.943 464.373 223.356 464.68C223.77 464.987 224.343 465.14 225.076 465.14ZM239.27 455.8C240.616 455.8 241.683 456.193 242.47 456.98C243.27 457.753 243.67 458.893 243.67 460.4V466.5H241.75V460.62C241.75 459.593 241.503 458.82 241.01 458.3C240.516 457.78 239.81 457.52 238.89 457.52C237.85 457.52 237.03 457.827 236.43 458.44C235.83 459.04 235.53 459.907 235.53 461.04V466.5H233.61V455.9H235.45V457.5C235.836 456.953 236.356 456.533 237.01 456.24C237.676 455.947 238.43 455.8 239.27 455.8ZM251.083 455.8C252.549 455.8 253.669 456.16 254.443 456.88C255.229 457.6 255.623 458.673 255.623 460.1V466.5H253.803V465.1C253.483 465.593 253.023 465.973 252.423 466.24C251.836 466.493 251.136 466.62 250.323 466.62C249.136 466.62 248.183 466.333 247.463 465.76C246.756 465.187 246.403 464.433 246.403 463.5C246.403 462.567 246.743 461.82 247.423 461.26C248.103 460.687 249.183 460.4 250.663 460.4H253.703V460.02C253.703 459.193 253.463 458.56 252.983 458.12C252.503 457.68 251.796 457.46 250.863 457.46C250.236 457.46 249.623 457.567 249.023 457.78C248.423 457.98 247.916 458.253 247.503 458.6L246.703 457.16C247.249 456.72 247.903 456.387 248.663 456.16C249.423 455.92 250.229 455.8 251.083 455.8ZM250.643 465.14C251.376 465.14 252.009 464.98 252.543 464.66C253.076 464.327 253.463 463.86 253.703 463.26V461.78H250.743C249.116 461.78 248.303 462.327 248.303 463.42C248.303 463.953 248.509 464.373 248.923 464.68C249.336 464.987 249.909 465.14 250.643 465.14ZM269.375 455.9V465.06C269.375 466.913 268.915 468.28 267.995 469.16C267.075 470.053 265.701 470.5 263.875 470.5C262.875 470.5 261.921 470.36 261.015 470.08C260.108 469.813 259.375 469.427 258.815 468.92L259.735 467.44C260.228 467.867 260.835 468.2 261.555 468.44C262.288 468.693 263.041 468.82 263.815 468.82C265.055 468.82 265.968 468.527 266.555 467.94C267.155 467.353 267.455 466.46 267.455 465.26V464.42C267.001 464.967 266.441 465.38 265.775 465.66C265.121 465.927 264.408 466.06 263.635 466.06C262.621 466.06 261.701 465.847 260.875 465.42C260.061 464.98 259.421 464.373 258.955 463.6C258.488 462.813 258.255 461.92 258.255 460.92C258.255 459.92 258.488 459.033 258.955 458.26C259.421 457.473 260.061 456.867 260.875 456.44C261.701 456.013 262.621 455.8 263.635 455.8C264.435 455.8 265.175 455.947 265.855 456.24C266.548 456.533 267.115 456.967 267.555 457.54V455.9H269.375ZM263.855 464.38C264.548 464.38 265.168 464.233 265.715 463.94C266.275 463.647 266.708 463.24 267.015 462.72C267.335 462.187 267.495 461.587 267.495 460.92C267.495 459.893 267.155 459.067 266.475 458.44C265.795 457.8 264.921 457.48 263.855 457.48C262.775 457.48 261.895 457.8 261.215 458.44C260.535 459.067 260.195 459.893 260.195 460.92C260.195 461.587 260.348 462.187 260.655 462.72C260.975 463.24 261.408 463.647 261.955 463.94C262.515 464.233 263.148 464.38 263.855 464.38ZM282.623 461.26C282.623 461.407 282.61 461.6 282.583 461.84H273.983C274.103 462.773 274.51 463.527 275.203 464.1C275.91 464.66 276.783 464.94 277.823 464.94C279.09 464.94 280.11 464.513 280.883 463.66L281.943 464.9C281.463 465.46 280.863 465.887 280.143 466.18C279.436 466.473 278.643 466.62 277.763 466.62C276.643 466.62 275.65 466.393 274.783 465.94C273.916 465.473 273.243 464.827 272.763 464C272.296 463.173 272.063 462.24 272.063 461.2C272.063 460.173 272.29 459.247 272.743 458.42C273.21 457.593 273.843 456.953 274.643 456.5C275.456 456.033 276.37 455.8 277.383 455.8C278.396 455.8 279.296 456.033 280.083 456.5C280.883 456.953 281.503 457.593 281.943 458.42C282.396 459.247 282.623 460.193 282.623 461.26ZM277.383 457.42C276.463 457.42 275.69 457.7 275.063 458.26C274.45 458.82 274.09 459.553 273.983 460.46H280.783C280.676 459.567 280.31 458.84 279.683 458.28C279.07 457.707 278.303 457.42 277.383 457.42ZM298.549 455.8C299.883 455.8 300.936 456.187 301.709 456.96C302.496 457.733 302.889 458.88 302.889 460.4V466.5H300.969V460.62C300.969 459.593 300.729 458.82 300.249 458.3C299.783 457.78 299.109 457.52 298.229 457.52C297.256 457.52 296.483 457.827 295.909 458.44C295.336 459.04 295.049 459.907 295.049 461.04V466.5H293.129V460.62C293.129 459.593 292.889 458.82 292.409 458.3C291.943 457.78 291.269 457.52 290.389 457.52C289.416 457.52 288.643 457.827 288.069 458.44C287.496 459.04 287.209 459.907 287.209 461.04V466.5H285.289V455.9H287.129V457.48C287.516 456.933 288.023 456.52 288.649 456.24C289.276 455.947 289.989 455.8 290.789 455.8C291.616 455.8 292.349 455.967 292.989 456.3C293.629 456.633 294.123 457.12 294.469 457.76C294.869 457.147 295.423 456.667 296.129 456.32C296.849 455.973 297.656 455.8 298.549 455.8ZM316.061 461.26C316.061 461.407 316.047 461.6 316.021 461.84H307.421C307.541 462.773 307.947 463.527 308.641 464.1C309.347 464.66 310.221 464.94 311.261 464.94C312.527 464.94 313.547 464.513 314.321 463.66L315.381 464.9C314.901 465.46 314.301 465.887 313.581 466.18C312.874 466.473 312.081 466.62 311.201 466.62C310.081 466.62 309.087 466.393 308.221 465.94C307.354 465.473 306.681 464.827 306.201 464C305.734 463.173 305.501 462.24 305.501 461.2C305.501 460.173 305.727 459.247 306.181 458.42C306.647 457.593 307.281 456.953 308.081 456.5C308.894 456.033 309.807 455.8 310.821 455.8C311.834 455.8 312.734 456.033 313.521 456.5C314.321 456.953 314.941 457.593 315.381 458.42C315.834 459.247 316.061 460.193 316.061 461.26ZM310.821 457.42C309.901 457.42 309.127 457.7 308.501 458.26C307.887 458.82 307.527 459.553 307.421 460.46H314.221C314.114 459.567 313.747 458.84 313.121 458.28C312.507 457.707 311.741 457.42 310.821 457.42ZM324.387 455.8C325.733 455.8 326.8 456.193 327.587 456.98C328.387 457.753 328.787 458.893 328.787 460.4V466.5H326.867V460.62C326.867 459.593 326.62 458.82 326.127 458.3C325.633 457.78 324.927 457.52 324.007 457.52C322.967 457.52 322.147 457.827 321.547 458.44C320.947 459.04 320.647 459.907 320.647 461.04V466.5H318.727V455.9H320.567V457.5C320.953 456.953 321.473 456.533 322.127 456.24C322.793 455.947 323.547 455.8 324.387 455.8ZM338.3 465.88C338.02 466.12 337.673 466.307 337.26 466.44C336.847 466.56 336.42 466.62 335.98 466.62C334.913 466.62 334.087 466.333 333.5 465.76C332.913 465.187 332.62 464.367 332.62 463.3V457.48H330.82V455.9H332.62V453.58H334.54V455.9H337.58V457.48H334.54V463.22C334.54 463.793 334.68 464.233 334.96 464.54C335.253 464.847 335.667 465 336.2 465C336.787 465 337.287 464.833 337.7 464.5L338.3 465.88Z" fill="#1A1A1A"/>
<path d="M64.7844 407C64.7844 414.347 70.7578 420.333 78.1178 420.333C85.4644 420.333 91.4511 414.347 91.4511 407C91.4511 399.64 85.4644 393.667 78.1178 393.667C70.7578 393.667 64.7844 399.64 64.7844 407V407Z" fill="#130F26"/>
<rect x="73.1526" y="405.743" width="6.91934" height="2.30645" rx="1.15322" transform="rotate(45 73.1526 405.743)" fill="white"/>
<rect x="85.3845" y="403.297" width="12.6855" height="2.30645" rx="1.15322" transform="rotate(135 85.3845 403.297)" fill="white"/>
<path d="M110.218 400.5H112.218V414.5H110.218V400.5ZM121.789 403.8C123.136 403.8 124.202 404.193 124.989 404.98C125.789 405.753 126.189 406.893 126.189 408.4V414.5H124.269V408.62C124.269 407.593 124.022 406.82 123.529 406.3C123.036 405.78 122.329 405.52 121.409 405.52C120.369 405.52 119.549 405.827 118.949 406.44C118.349 407.04 118.049 407.907 118.049 409.04V414.5H116.129V403.9H117.969V405.5C118.356 404.953 118.876 404.533 119.529 404.24C120.196 403.947 120.949 403.8 121.789 403.8ZM132.782 414.62C131.916 414.62 131.082 414.507 130.282 414.28C129.482 414.04 128.856 413.74 128.402 413.38L129.202 411.86C129.669 412.193 130.236 412.46 130.902 412.66C131.569 412.86 132.242 412.96 132.922 412.96C134.602 412.96 135.442 412.48 135.442 411.52C135.442 411.2 135.329 410.947 135.102 410.76C134.876 410.573 134.589 410.44 134.242 410.36C133.909 410.267 133.429 410.167 132.802 410.06C131.949 409.927 131.249 409.773 130.702 409.6C130.169 409.427 129.709 409.133 129.322 408.72C128.936 408.307 128.742 407.727 128.742 406.98C128.742 406.02 129.142 405.253 129.942 404.68C130.742 404.093 131.816 403.8 133.162 403.8C133.869 403.8 134.576 403.887 135.282 404.06C135.989 404.233 136.569 404.467 137.022 404.76L136.202 406.28C135.336 405.72 134.316 405.44 133.142 405.44C132.329 405.44 131.709 405.573 131.282 405.84C130.856 406.107 130.642 406.46 130.642 406.9C130.642 407.247 130.762 407.52 131.002 407.72C131.242 407.92 131.536 408.067 131.882 408.16C132.242 408.253 132.742 408.36 133.382 408.48C134.236 408.627 134.922 408.787 135.442 408.96C135.976 409.12 136.429 409.4 136.802 409.8C137.176 410.2 137.362 410.76 137.362 411.48C137.362 412.44 136.949 413.207 136.122 413.78C135.309 414.34 134.196 414.62 132.782 414.62ZM145.722 413.88C145.442 414.12 145.095 414.307 144.682 414.44C144.269 414.56 143.842 414.62 143.402 414.62C142.335 414.62 141.509 414.333 140.922 413.76C140.335 413.187 140.042 412.367 140.042 411.3V405.48H138.242V403.9H140.042V401.58H141.962V403.9H145.002V405.48H141.962V411.22C141.962 411.793 142.102 412.233 142.382 412.54C142.675 412.847 143.089 413 143.622 413C144.209 413 144.709 412.833 145.122 412.5L145.722 413.88ZM151.903 403.8C153.37 403.8 154.49 404.16 155.263 404.88C156.05 405.6 156.443 406.673 156.443 408.1V414.5H154.623V413.1C154.303 413.593 153.843 413.973 153.243 414.24C152.656 414.493 151.956 414.62 151.143 414.62C149.956 414.62 149.003 414.333 148.283 413.76C147.576 413.187 147.223 412.433 147.223 411.5C147.223 410.567 147.563 409.82 148.243 409.26C148.923 408.687 150.003 408.4 151.483 408.4H154.523V408.02C154.523 407.193 154.283 406.56 153.803 406.12C153.323 405.68 152.616 405.46 151.683 405.46C151.056 405.46 150.443 405.567 149.843 405.78C149.243 405.98 148.736 406.253 148.323 406.6L147.523 405.16C148.07 404.72 148.723 404.387 149.483 404.16C150.243 403.92 151.05 403.8 151.903 403.8ZM151.463 413.14C152.196 413.14 152.83 412.98 153.363 412.66C153.896 412.327 154.283 411.86 154.523 411.26V409.78H151.563C149.936 409.78 149.123 410.327 149.123 411.42C149.123 411.953 149.33 412.373 149.743 412.68C150.156 412.987 150.73 413.14 151.463 413.14ZM170.195 403.9V413.06C170.195 414.913 169.735 416.28 168.815 417.16C167.895 418.053 166.522 418.5 164.695 418.5C163.695 418.5 162.742 418.36 161.835 418.08C160.928 417.813 160.195 417.427 159.635 416.92L160.555 415.44C161.048 415.867 161.655 416.2 162.375 416.44C163.108 416.693 163.862 416.82 164.635 416.82C165.875 416.82 166.788 416.527 167.375 415.94C167.975 415.353 168.275 414.46 168.275 413.26V412.42C167.822 412.967 167.262 413.38 166.595 413.66C165.942 413.927 165.228 414.06 164.455 414.06C163.442 414.06 162.522 413.847 161.695 413.42C160.882 412.98 160.242 412.373 159.775 411.6C159.308 410.813 159.075 409.92 159.075 408.92C159.075 407.92 159.308 407.033 159.775 406.26C160.242 405.473 160.882 404.867 161.695 404.44C162.522 404.013 163.442 403.8 164.455 403.8C165.255 403.8 165.995 403.947 166.675 404.24C167.368 404.533 167.935 404.967 168.375 405.54V403.9H170.195ZM164.675 412.38C165.368 412.38 165.988 412.233 166.535 411.94C167.095 411.647 167.528 411.24 167.835 410.72C168.155 410.187 168.315 409.587 168.315 408.92C168.315 407.893 167.975 407.067 167.295 406.44C166.615 405.8 165.742 405.48 164.675 405.48C163.595 405.48 162.715 405.8 162.035 406.44C161.355 407.067 161.015 407.893 161.015 408.92C161.015 409.587 161.168 410.187 161.475 410.72C161.795 411.24 162.228 411.647 162.775 411.94C163.335 412.233 163.968 412.38 164.675 412.38ZM175.703 405.68C176.037 405.067 176.53 404.6 177.183 404.28C177.837 403.96 178.63 403.8 179.563 403.8V405.66C179.457 405.647 179.31 405.64 179.123 405.64C178.083 405.64 177.263 405.953 176.663 406.58C176.077 407.193 175.783 408.073 175.783 409.22V414.5H173.863V403.9H175.703V405.68ZM185.77 403.8C187.237 403.8 188.357 404.16 189.13 404.88C189.917 405.6 190.31 406.673 190.31 408.1V414.5H188.49V413.1C188.17 413.593 187.71 413.973 187.11 414.24C186.524 414.493 185.824 414.62 185.01 414.62C183.824 414.62 182.87 414.333 182.15 413.76C181.444 413.187 181.09 412.433 181.09 411.5C181.09 410.567 181.43 409.82 182.11 409.26C182.79 408.687 183.87 408.4 185.35 408.4H188.39V408.02C188.39 407.193 188.15 406.56 187.67 406.12C187.19 405.68 186.484 405.46 185.55 405.46C184.924 405.46 184.31 405.567 183.71 405.78C183.11 405.98 182.604 406.253 182.19 406.6L181.39 405.16C181.937 404.72 182.59 404.387 183.35 404.16C184.11 403.92 184.917 403.8 185.77 403.8ZM185.33 413.14C186.064 413.14 186.697 412.98 187.23 412.66C187.764 412.327 188.15 411.86 188.39 411.26V409.78H185.43C183.804 409.78 182.99 410.327 182.99 411.42C182.99 411.953 183.197 412.373 183.61 412.68C184.024 412.987 184.597 413.14 185.33 413.14ZM207.123 403.8C208.457 403.8 209.51 404.187 210.283 404.96C211.07 405.733 211.463 406.88 211.463 408.4V414.5H209.543V408.62C209.543 407.593 209.303 406.82 208.823 406.3C208.357 405.78 207.683 405.52 206.803 405.52C205.83 405.52 205.057 405.827 204.483 406.44C203.91 407.04 203.623 407.907 203.623 409.04V414.5H201.703V408.62C201.703 407.593 201.463 406.82 200.983 406.3C200.517 405.78 199.843 405.52 198.963 405.52C197.99 405.52 197.217 405.827 196.643 406.44C196.07 407.04 195.783 407.907 195.783 409.04V414.5H193.863V403.9H195.703V405.48C196.09 404.933 196.597 404.52 197.223 404.24C197.85 403.947 198.563 403.8 199.363 403.8C200.19 403.8 200.923 403.967 201.563 404.3C202.203 404.633 202.697 405.12 203.043 405.76C203.443 405.147 203.997 404.667 204.703 404.32C205.423 403.973 206.23 403.8 207.123 403.8ZM222.827 418.38C222.067 417.153 221.481 415.747 221.067 414.16C220.654 412.56 220.447 410.847 220.447 409.02C220.447 407.193 220.654 405.48 221.067 403.88C221.481 402.267 222.067 400.86 222.827 399.66H224.647C223.847 401.06 223.261 402.527 222.887 404.06C222.514 405.593 222.327 407.247 222.327 409.02C222.327 410.793 222.514 412.447 222.887 413.98C223.261 415.513 223.847 416.98 224.647 418.38H222.827ZM236.046 408.72H232.566V412.12H229.986V408.72H226.526V406.28H229.986V402.88H232.566V406.28H236.046V408.72ZM248.186 411.86V414.5H237.606V412.4L243.006 407.3C243.579 406.753 243.966 406.287 244.166 405.9C244.366 405.5 244.466 405.107 244.466 404.72C244.466 404.16 244.272 403.733 243.886 403.44C243.512 403.133 242.959 402.98 242.226 402.98C241.612 402.98 241.059 403.1 240.566 403.34C240.072 403.567 239.659 403.913 239.326 404.38L236.966 402.86C237.512 402.047 238.266 401.413 239.226 400.96C240.186 400.493 241.286 400.26 242.526 400.26C243.566 400.26 244.472 400.433 245.246 400.78C246.032 401.113 246.639 401.593 247.066 402.22C247.506 402.833 247.726 403.56 247.726 404.4C247.726 405.16 247.566 405.873 247.246 406.54C246.926 407.207 246.306 407.967 245.386 408.82L242.166 411.86H248.186ZM260.474 414.62C259.42 414.62 258.474 414.387 257.634 413.92C256.794 413.453 256.134 412.813 255.654 412C255.187 411.173 254.954 410.24 254.954 409.2C254.954 408.16 255.187 407.233 255.654 406.42C256.134 405.593 256.794 404.953 257.634 404.5C258.474 404.033 259.42 403.8 260.474 403.8C261.527 403.8 262.467 404.033 263.294 404.5C264.134 404.953 264.787 405.593 265.254 406.42C265.734 407.233 265.974 408.16 265.974 409.2C265.974 410.24 265.734 411.173 265.254 412C264.787 412.813 264.134 413.453 263.294 413.92C262.467 414.387 261.527 414.62 260.474 414.62ZM260.474 412.94C261.154 412.94 261.76 412.787 262.294 412.48C262.84 412.16 263.267 411.72 263.574 411.16C263.88 410.587 264.034 409.933 264.034 409.2C264.034 408.467 263.88 407.82 263.574 407.26C263.267 406.687 262.84 406.247 262.294 405.94C261.76 405.633 261.154 405.48 260.474 405.48C259.794 405.48 259.18 405.633 258.634 405.94C258.1 406.247 257.674 406.687 257.354 407.26C257.047 407.82 256.894 408.467 256.894 409.2C256.894 409.933 257.047 410.587 257.354 411.16C257.674 411.72 258.1 412.16 258.634 412.48C259.18 412.787 259.794 412.94 260.474 412.94ZM274.589 413.88C274.309 414.12 273.962 414.307 273.549 414.44C273.136 414.56 272.709 414.62 272.269 414.62C271.202 414.62 270.376 414.333 269.789 413.76C269.202 413.187 268.909 412.367 268.909 411.3V405.48H267.109V403.9H268.909V401.58H270.829V403.9H273.869V405.48H270.829V411.22C270.829 411.793 270.969 412.233 271.249 412.54C271.542 412.847 271.956 413 272.489 413C273.076 413 273.576 412.833 273.989 412.5L274.589 413.88ZM282.57 403.8C283.917 403.8 284.984 404.193 285.77 404.98C286.57 405.753 286.97 406.893 286.97 408.4V414.5H285.05V408.62C285.05 407.593 284.804 406.82 284.31 406.3C283.817 405.78 283.11 405.52 282.19 405.52C281.15 405.52 280.33 405.827 279.73 406.44C279.13 407.04 278.83 407.907 278.83 409.04V414.5H276.91V399.66H278.83V405.4C279.23 404.893 279.75 404.5 280.39 404.22C281.044 403.94 281.77 403.8 282.57 403.8ZM300.162 409.26C300.162 409.407 300.149 409.6 300.122 409.84H291.522C291.642 410.773 292.049 411.527 292.742 412.1C293.449 412.66 294.322 412.94 295.362 412.94C296.629 412.94 297.649 412.513 298.422 411.66L299.482 412.9C299.002 413.46 298.402 413.887 297.682 414.18C296.976 414.473 296.182 414.62 295.302 414.62C294.182 414.62 293.189 414.393 292.322 413.94C291.456 413.473 290.782 412.827 290.302 412C289.836 411.173 289.602 410.24 289.602 409.2C289.602 408.173 289.829 407.247 290.282 406.42C290.749 405.593 291.382 404.953 292.182 404.5C292.996 404.033 293.909 403.8 294.922 403.8C295.936 403.8 296.836 404.033 297.622 404.5C298.422 404.953 299.042 405.593 299.482 406.42C299.936 407.247 300.162 408.193 300.162 409.26ZM294.922 405.42C294.002 405.42 293.229 405.7 292.602 406.26C291.989 406.82 291.629 407.553 291.522 408.46H298.322C298.216 407.567 297.849 406.84 297.222 406.28C296.609 405.707 295.842 405.42 294.922 405.42ZM304.668 405.68C305.002 405.067 305.495 404.6 306.148 404.28C306.802 403.96 307.595 403.8 308.528 403.8V405.66C308.422 405.647 308.275 405.64 308.088 405.64C307.048 405.64 306.228 405.953 305.628 406.58C305.042 407.193 304.748 408.073 304.748 409.22V414.5H302.828V403.9H304.668V405.68ZM322.023 403.8C323.049 403.8 323.969 404.027 324.783 404.48C325.596 404.933 326.229 405.567 326.683 406.38C327.149 407.193 327.383 408.133 327.383 409.2C327.383 410.267 327.149 411.213 326.683 412.04C326.229 412.853 325.596 413.487 324.783 413.94C323.969 414.393 323.049 414.62 322.023 414.62C321.263 414.62 320.563 414.473 319.923 414.18C319.296 413.887 318.763 413.46 318.323 412.9V418.38H316.403V403.9H318.243V405.58C318.669 404.993 319.209 404.553 319.863 404.26C320.516 403.953 321.236 403.8 322.023 403.8ZM321.863 412.94C322.543 412.94 323.149 412.787 323.683 412.48C324.229 412.16 324.656 411.72 324.963 411.16C325.283 410.587 325.443 409.933 325.443 409.2C325.443 408.467 325.283 407.82 324.963 407.26C324.656 406.687 324.229 406.247 323.683 405.94C323.149 405.633 322.543 405.48 321.863 405.48C321.196 405.48 320.589 405.64 320.043 405.96C319.509 406.267 319.083 406.7 318.763 407.26C318.456 407.82 318.303 408.467 318.303 409.2C318.303 409.933 318.456 410.587 318.763 411.16C319.069 411.72 319.496 412.16 320.043 412.48C320.589 412.787 321.196 412.94 321.863 412.94ZM330.035 399.66H331.955V414.5H330.035V399.66ZM339.481 403.8C340.948 403.8 342.068 404.16 342.841 404.88C343.628 405.6 344.021 406.673 344.021 408.1V414.5H342.201V413.1C341.881 413.593 341.421 413.973 340.821 414.24C340.235 414.493 339.535 414.62 338.721 414.62C337.535 414.62 336.581 414.333 335.861 413.76C335.155 413.187 334.801 412.433 334.801 411.5C334.801 410.567 335.141 409.82 335.821 409.26C336.501 408.687 337.581 408.4 339.061 408.4H342.101V408.02C342.101 407.193 341.861 406.56 341.381 406.12C340.901 405.68 340.195 405.46 339.261 405.46C338.635 405.46 338.021 405.567 337.421 405.78C336.821 405.98 336.315 406.253 335.901 406.6L335.101 405.16C335.648 404.72 336.301 404.387 337.061 404.16C337.821 403.92 338.628 403.8 339.481 403.8ZM339.041 413.14C339.775 413.14 340.408 412.98 340.941 412.66C341.475 412.327 341.861 411.86 342.101 411.26V409.78H339.141C337.515 409.78 336.701 410.327 336.701 411.42C336.701 411.953 336.908 412.373 337.321 412.68C337.735 412.987 338.308 413.14 339.041 413.14ZM353.534 413.88C353.254 414.12 352.908 414.307 352.494 414.44C352.081 414.56 351.654 414.62 351.214 414.62C350.148 414.62 349.321 414.333 348.734 413.76C348.148 413.187 347.854 412.367 347.854 411.3V405.48H346.054V403.9H347.854V401.58H349.774V403.9H352.814V405.48H349.774V411.22C349.774 411.793 349.914 412.233 350.194 412.54C350.488 412.847 350.901 413 351.434 413C352.021 413 352.521 412.833 352.934 412.5L353.534 413.88ZM359.736 401.12C358.589 401.12 358.016 401.74 358.016 402.98V403.9H361.096V405.48H358.056V414.5H356.136V405.48H354.336V403.9H356.136V402.96C356.136 401.907 356.442 401.073 357.056 400.46C357.669 399.847 358.529 399.54 359.636 399.54C360.062 399.54 360.462 399.593 360.836 399.7C361.209 399.807 361.529 399.96 361.796 400.16L361.216 401.62C360.776 401.287 360.282 401.12 359.736 401.12ZM367.29 414.62C366.237 414.62 365.29 414.387 364.45 413.92C363.61 413.453 362.95 412.813 362.47 412C362.004 411.173 361.77 410.24 361.77 409.2C361.77 408.16 362.004 407.233 362.47 406.42C362.95 405.593 363.61 404.953 364.45 404.5C365.29 404.033 366.237 403.8 367.29 403.8C368.344 403.8 369.284 404.033 370.11 404.5C370.95 404.953 371.604 405.593 372.07 406.42C372.55 407.233 372.79 408.16 372.79 409.2C372.79 410.24 372.55 411.173 372.07 412C371.604 412.813 370.95 413.453 370.11 413.92C369.284 414.387 368.344 414.62 367.29 414.62ZM367.29 412.94C367.97 412.94 368.577 412.787 369.11 412.48C369.657 412.16 370.084 411.72 370.39 411.16C370.697 410.587 370.85 409.933 370.85 409.2C370.85 408.467 370.697 407.82 370.39 407.26C370.084 406.687 369.657 406.247 369.11 405.94C368.577 405.633 367.97 405.48 367.29 405.48C366.61 405.48 365.997 405.633 365.45 405.94C364.917 406.247 364.49 406.687 364.17 407.26C363.864 407.82 363.71 408.467 363.71 409.2C363.71 409.933 363.864 410.587 364.17 411.16C364.49 411.72 364.917 412.16 365.45 412.48C365.997 412.787 366.61 412.94 367.29 412.94ZM377.285 405.68C377.619 405.067 378.112 404.6 378.765 404.28C379.419 403.96 380.212 403.8 381.145 403.8V405.66C381.039 405.647 380.892 405.64 380.705 405.64C379.665 405.64 378.845 405.953 378.245 406.58C377.659 407.193 377.365 408.073 377.365 409.22V414.5H375.445V403.9H377.285V405.68ZM396.772 403.8C398.105 403.8 399.159 404.187 399.932 404.96C400.719 405.733 401.112 406.88 401.112 408.4V414.5H399.192V408.62C399.192 407.593 398.952 406.82 398.472 406.3C398.005 405.78 397.332 405.52 396.452 405.52C395.479 405.52 394.705 405.827 394.132 406.44C393.559 407.04 393.272 407.907 393.272 409.04V414.5H391.352V408.62C391.352 407.593 391.112 406.82 390.632 406.3C390.165 405.78 389.492 405.52 388.612 405.52C387.639 405.52 386.865 405.827 386.292 406.44C385.719 407.04 385.432 407.907 385.432 409.04V414.5H383.512V403.9H385.352V405.48C385.739 404.933 386.245 404.52 386.872 404.24C387.499 403.947 388.212 403.8 389.012 403.8C389.839 403.8 390.572 403.967 391.212 404.3C391.852 404.633 392.345 405.12 392.692 405.76C393.092 405.147 393.645 404.667 394.352 404.32C395.072 403.973 395.879 403.8 396.772 403.8ZM407.685 414.62C406.818 414.62 405.985 414.507 405.185 414.28C404.385 414.04 403.758 413.74 403.305 413.38L404.105 411.86C404.571 412.193 405.138 412.46 405.805 412.66C406.471 412.86 407.145 412.96 407.825 412.96C409.505 412.96 410.345 412.48 410.345 411.52C410.345 411.2 410.231 410.947 410.005 410.76C409.778 410.573 409.491 410.44 409.145 410.36C408.811 410.267 408.331 410.167 407.705 410.06C406.851 409.927 406.151 409.773 405.605 409.6C405.071 409.427 404.611 409.133 404.225 408.72C403.838 408.307 403.645 407.727 403.645 406.98C403.645 406.02 404.045 405.253 404.845 404.68C405.645 404.093 406.718 403.8 408.065 403.8C408.771 403.8 409.478 403.887 410.185 404.06C410.891 404.233 411.471 404.467 411.925 404.76L411.105 406.28C410.238 405.72 409.218 405.44 408.045 405.44C407.231 405.44 406.611 405.573 406.185 405.84C405.758 406.107 405.545 406.46 405.545 406.9C405.545 407.247 405.665 407.52 405.905 407.72C406.145 407.92 406.438 408.067 406.785 408.16C407.145 408.253 407.645 408.36 408.285 408.48C409.138 408.627 409.825 408.787 410.345 408.96C410.878 409.12 411.331 409.4 411.705 409.8C412.078 410.2 412.265 410.76 412.265 411.48C412.265 412.44 411.851 413.207 411.025 413.78C410.211 414.34 409.098 414.62 407.685 414.62ZM413.484 418.38C414.284 416.98 414.871 415.513 415.244 413.98C415.631 412.447 415.824 410.793 415.824 409.02C415.824 407.247 415.631 405.593 415.244 404.06C414.871 402.527 414.284 401.06 413.484 399.66H415.304C416.078 400.86 416.671 402.26 417.084 403.86C417.498 405.46 417.704 407.18 417.704 409.02C417.704 410.847 417.498 412.56 417.084 414.16C416.671 415.76 416.078 417.167 415.304 418.38H413.484Z" fill="#1A1A1A"/>
<path d="M78.2457 74.836C79.3843 75.1533 80.2803 75.732 80.9337 76.572C81.587 77.3933 81.9137 78.4387 81.9137 79.708C81.9137 81.4067 81.2697 82.7133 79.9817 83.628C78.7123 84.5427 76.855 85 74.4097 85H65.0577V65.4H73.8497C76.0897 65.4 77.8163 65.848 79.0297 66.744C80.2617 67.64 80.8777 68.8813 80.8777 70.468C80.8777 71.4947 80.635 72.3813 80.1497 73.128C79.683 73.8747 79.0483 74.444 78.2457 74.836ZM67.8577 67.668V73.94H73.5977C75.035 73.94 76.1363 73.6787 76.9017 73.156C77.6857 72.6147 78.0777 71.8307 78.0777 70.804C78.0777 69.7773 77.6857 69.0027 76.9017 68.48C76.1363 67.9387 75.035 67.668 73.5977 67.668H67.8577ZM74.2977 82.732C75.8843 82.732 77.079 82.4707 77.8817 81.948C78.6843 81.4253 79.0857 80.604 79.0857 79.484C79.0857 77.3 77.4897 76.208 74.2977 76.208H67.8577V82.732H74.2977ZM91.2611 70.02C93.3144 70.02 94.8824 70.524 95.9651 71.532C97.0664 72.54 97.6171 74.0427 97.6171 76.04V85H95.0691V83.04C94.6211 83.7307 93.9771 84.2627 93.1371 84.636C92.3157 84.9907 91.3357 85.168 90.1971 85.168C88.5357 85.168 87.2011 84.7667 86.1931 83.964C85.2037 83.1613 84.7091 82.1067 84.7091 80.8C84.7091 79.4933 85.1851 78.448 86.1371 77.664C87.0891 76.8613 88.6011 76.46 90.6731 76.46H94.9291V75.928C94.9291 74.7707 94.5931 73.884 93.9211 73.268C93.2491 72.652 92.2597 72.344 90.9531 72.344C90.0757 72.344 89.2171 72.4933 88.3771 72.792C87.5371 73.072 86.8277 73.4547 86.2491 73.94L85.1291 71.924C85.8944 71.308 86.8091 70.8413 87.8731 70.524C88.9371 70.188 90.0664 70.02 91.2611 70.02ZM90.6451 83.096C91.6717 83.096 92.5584 82.872 93.3051 82.424C94.0517 81.9573 94.5931 81.304 94.9291 80.464V78.392H90.7851C88.5077 78.392 87.3691 79.1573 87.3691 80.688C87.3691 81.4347 87.6584 82.0227 88.2371 82.452C88.8157 82.8813 89.6184 83.096 90.6451 83.096ZM106.847 85.168C105.634 85.168 104.467 85.0093 103.347 84.692C102.227 84.356 101.35 83.936 100.715 83.432L101.835 81.304C102.489 81.7707 103.282 82.144 104.215 82.424C105.149 82.704 106.091 82.844 107.043 82.844C109.395 82.844 110.571 82.172 110.571 80.828C110.571 80.38 110.413 80.0253 110.095 79.764C109.778 79.5027 109.377 79.316 108.891 79.204C108.425 79.0733 107.753 78.9333 106.875 78.784C105.681 78.5973 104.701 78.3827 103.935 78.14C103.189 77.8973 102.545 77.4867 102.003 76.908C101.462 76.3293 101.191 75.5173 101.191 74.472C101.191 73.128 101.751 72.0547 102.871 71.252C103.991 70.4307 105.494 70.02 107.379 70.02C108.369 70.02 109.358 70.1413 110.347 70.384C111.337 70.6267 112.149 70.9533 112.783 71.364L111.635 73.492C110.422 72.708 108.994 72.316 107.351 72.316C106.213 72.316 105.345 72.5027 104.747 72.876C104.15 73.2493 103.851 73.744 103.851 74.36C103.851 74.8453 104.019 75.228 104.355 75.508C104.691 75.788 105.102 75.9933 105.587 76.124C106.091 76.2547 106.791 76.404 107.687 76.572C108.882 76.7773 109.843 77.0013 110.571 77.244C111.318 77.468 111.953 77.86 112.475 78.42C112.998 78.98 113.259 79.764 113.259 80.772C113.259 82.116 112.681 83.1893 111.523 83.992C110.385 84.776 108.826 85.168 106.847 85.168ZM116.619 70.16H119.307V85H116.619V70.16ZM117.963 67.304C117.44 67.304 117.001 67.136 116.647 66.8C116.311 66.464 116.143 66.0533 116.143 65.568C116.143 65.0827 116.311 64.672 116.647 64.336C117.001 63.9813 117.44 63.804 117.963 63.804C118.485 63.804 118.915 63.972 119.251 64.308C119.605 64.6253 119.783 65.0267 119.783 65.512C119.783 66.016 119.605 66.4453 119.251 66.8C118.915 67.136 118.485 67.304 117.963 67.304ZM130.907 85.168C129.395 85.168 128.042 84.8413 126.847 84.188C125.671 83.5347 124.747 82.6387 124.075 81.5C123.403 80.3427 123.067 79.036 123.067 77.58C123.067 76.124 123.403 74.8267 124.075 73.688C124.747 72.5307 125.671 71.6347 126.847 71C128.042 70.3467 129.395 70.02 130.907 70.02C132.251 70.02 133.446 70.2907 134.491 70.832C135.555 71.3733 136.376 72.1573 136.955 73.184L134.911 74.5C134.444 73.7907 133.866 73.2587 133.175 72.904C132.484 72.5493 131.719 72.372 130.879 72.372C129.908 72.372 129.031 72.5867 128.247 73.016C127.482 73.4453 126.875 74.0613 126.427 74.864C125.998 75.648 125.783 76.5533 125.783 77.58C125.783 78.6253 125.998 79.5493 126.427 80.352C126.875 81.136 127.482 81.7427 128.247 82.172C129.031 82.6013 129.908 82.816 130.879 82.816C131.719 82.816 132.484 82.6387 133.175 82.284C133.866 81.9293 134.444 81.3973 134.911 80.688L136.955 81.976C136.376 83.0027 135.555 83.796 134.491 84.356C133.446 84.8973 132.251 85.168 130.907 85.168Z" fill="#1A1A1A"/>
<path d="M106.038 184.24C106.038 188.176 104.598 191.56 101.718 194.392C98.8377 197.176 94.6857 198.904 89.2617 199.576V207.64H82.0617V199.792C78.5097 199.6 75.1257 198.976 71.9097 197.92C68.6937 196.864 66.1017 195.568 64.1337 194.032L68.0937 185.248C69.9177 186.592 72.0537 187.72 74.5017 188.632C76.9497 189.544 79.4697 190.12 82.0617 190.36V178.336C78.6537 177.52 75.7737 176.608 73.4217 175.6C71.0697 174.592 69.1017 173.128 67.5177 171.208C65.9337 169.24 65.1417 166.648 65.1417 163.432C65.1417 159.448 66.5817 156.04 69.4617 153.208C72.3897 150.328 76.5897 148.576 82.0617 147.952V139.96H89.2617V147.808C95.1657 148.288 100.038 149.752 103.878 152.2L100.278 161.056C96.6777 158.992 93.0057 157.744 89.2617 157.312V169.552C92.6217 170.32 95.4537 171.208 97.7577 172.216C100.11 173.176 102.078 174.64 103.662 176.608C105.246 178.528 106.038 181.072 106.038 184.24ZM76.7337 162.856C76.7337 164.056 77.1897 165.04 78.1017 165.808C79.0137 166.576 80.3337 167.224 82.0617 167.752V157.528C80.2377 157.96 78.8937 158.656 78.0297 159.616C77.1657 160.528 76.7337 161.608 76.7337 162.856ZM89.2617 190.072C90.9897 189.688 92.2857 189.064 93.1497 188.2C94.0137 187.336 94.4457 186.304 94.4457 185.104C94.4457 183.904 93.9897 182.92 93.0777 182.152C92.2137 181.384 90.9417 180.712 89.2617 180.136V190.072ZM148.496 189.496V199H110.408V191.44L129.848 173.08C131.912 171.112 133.304 169.432 134.024 168.04C134.744 166.6 135.104 165.184 135.104 163.792C135.104 161.776 134.408 160.24 133.016 159.184C131.672 158.08 129.68 157.528 127.04 157.528C124.832 157.528 122.84 157.96 121.064 158.824C119.288 159.64 117.8 160.888 116.6 162.568L108.104 157.096C110.072 154.168 112.784 151.888 116.24 150.256C119.696 148.576 123.656 147.736 128.12 147.736C131.864 147.736 135.128 148.36 137.912 149.608C140.744 150.808 142.928 152.536 144.464 154.792C146.048 157 146.84 159.616 146.84 162.64C146.84 165.376 146.264 167.944 145.112 170.344C143.96 172.744 141.728 175.48 138.416 178.552L126.824 189.496H148.496ZM171.02 147.736C178.076 147.736 183.596 149.896 187.58 154.216C191.564 158.488 193.556 164.656 193.556 172.72C193.556 178.432 192.476 183.328 190.316 187.408C188.204 191.488 185.204 194.584 181.316 196.696C177.428 198.808 172.94 199.864 167.852 199.864C165.164 199.864 162.596 199.576 160.148 199C157.7 198.376 155.612 197.512 153.884 196.408L158.204 187.84C160.652 189.52 163.796 190.36 167.636 190.36C171.908 190.36 175.292 189.112 177.788 186.616C180.284 184.072 181.628 180.424 181.82 175.672C178.796 178.696 174.62 180.208 169.292 180.208C166.076 180.208 163.148 179.56 160.508 178.264C157.868 176.968 155.78 175.144 154.244 172.792C152.708 170.392 151.94 167.632 151.94 164.512C151.94 161.152 152.78 158.2 154.46 155.656C156.14 153.112 158.42 151.168 161.3 149.824C164.228 148.432 167.468 147.736 171.02 147.736ZM171.884 171.496C174.428 171.496 176.492 170.8 178.076 169.408C179.708 167.968 180.524 166.144 180.524 163.936C180.524 161.728 179.732 159.928 178.148 158.536C176.612 157.144 174.476 156.448 171.74 156.448C169.244 156.448 167.204 157.12 165.62 158.464C164.084 159.808 163.316 161.632 163.316 163.936C163.316 166.24 164.084 168.088 165.62 169.48C167.204 170.824 169.292 171.496 171.884 171.496ZM216.864 147.736C223.92 147.736 229.44 149.896 233.424 154.216C237.408 158.488 239.4 164.656 239.4 172.72C239.4 178.432 238.32 183.328 236.16 187.408C234.048 191.488 231.048 194.584 227.16 196.696C223.272 198.808 218.784 199.864 213.696 199.864C211.008 199.864 208.44 199.576 205.992 199C203.544 198.376 201.456 197.512 199.728 196.408L204.048 187.84C206.496 189.52 209.64 190.36 213.48 190.36C217.752 190.36 221.136 189.112 223.632 186.616C226.128 184.072 227.472 180.424 227.664 175.672C224.64 178.696 220.464 180.208 215.136 180.208C211.92 180.208 208.992 179.56 206.352 178.264C203.712 176.968 201.624 175.144 200.088 172.792C198.552 170.392 197.784 167.632 197.784 164.512C197.784 161.152 198.624 158.2 200.304 155.656C201.984 153.112 204.264 151.168 207.144 149.824C210.072 148.432 213.312 147.736 216.864 147.736ZM217.728 171.496C220.272 171.496 222.336 170.8 223.92 169.408C225.552 167.968 226.368 166.144 226.368 163.936C226.368 161.728 225.576 159.928 223.992 158.536C222.456 157.144 220.32 156.448 217.584 156.448C215.088 156.448 213.048 157.12 211.464 158.464C209.928 159.808 209.16 161.632 209.16 163.936C209.16 166.24 209.928 168.088 211.464 169.48C213.048 170.824 215.136 171.496 217.728 171.496ZM248.128 182.16H250.908L244.308 201H241.528L248.128 182.16ZM264.42 199L264.4 190.6L260.28 197.52H258.82L254.72 190.78V199H251.68V185H254.36L259.6 193.7L264.76 185H267.42L267.46 199H264.42ZM275.682 199.16C274.548 199.16 273.528 198.927 272.622 198.46C271.728 197.98 271.028 197.32 270.522 196.48C270.015 195.64 269.762 194.687 269.762 193.62C269.762 192.553 270.015 191.6 270.522 190.76C271.028 189.92 271.728 189.267 272.622 188.8C273.528 188.32 274.548 188.08 275.682 188.08C276.815 188.08 277.828 188.32 278.722 188.8C279.615 189.267 280.315 189.92 280.822 190.76C281.328 191.6 281.582 192.553 281.582 193.62C281.582 194.687 281.328 195.64 280.822 196.48C280.315 197.32 279.615 197.98 278.722 198.46C277.828 198.927 276.815 199.16 275.682 199.16ZM275.682 196.6C276.482 196.6 277.135 196.333 277.642 195.8C278.162 195.253 278.422 194.527 278.422 193.62C278.422 192.713 278.162 191.993 277.642 191.46C277.135 190.913 276.482 190.64 275.682 190.64C274.882 190.64 274.222 190.913 273.702 191.46C273.182 191.993 272.922 192.713 272.922 193.62C272.922 194.527 273.182 195.253 273.702 195.8C274.222 196.333 274.882 196.6 275.682 196.6ZM290.207 188.08C291.54 188.08 292.614 188.48 293.427 189.28C294.254 190.08 294.667 191.267 294.667 192.84V199H291.547V193.32C291.547 192.467 291.36 191.833 290.987 191.42C290.614 190.993 290.074 190.78 289.367 190.78C288.58 190.78 287.954 191.027 287.487 191.52C287.02 192 286.787 192.72 286.787 193.68V199H283.667V188.24H286.647V189.5C287.06 189.047 287.574 188.7 288.187 188.46C288.8 188.207 289.474 188.08 290.207 188.08ZM304.435 198.48C304.129 198.707 303.749 198.88 303.295 199C302.855 199.107 302.389 199.16 301.895 199.16C300.615 199.16 299.622 198.833 298.915 198.18C298.222 197.527 297.875 196.567 297.875 195.3V190.88H296.215V188.48H297.875V185.86H300.995V188.48H303.675V190.88H300.995V195.26C300.995 195.713 301.109 196.067 301.335 196.32C301.575 196.56 301.909 196.68 302.335 196.68C302.829 196.68 303.249 196.547 303.595 196.28L304.435 198.48ZM312.727 188.08C314.06 188.08 315.133 188.48 315.947 189.28C316.773 190.08 317.187 191.267 317.187 192.84V199H314.067V193.32C314.067 192.467 313.88 191.833 313.507 191.42C313.133 190.993 312.593 190.78 311.887 190.78C311.1 190.78 310.473 191.027 310.007 191.52C309.54 192 309.307 192.72 309.307 193.68V199H306.187V184.16H309.307V189.36C309.72 188.947 310.22 188.633 310.807 188.42C311.393 188.193 312.033 188.08 312.727 188.08Z" fill="#1A1A1A"/>
<rect x="62.1177" y="567" width="515.765" height="80" rx="16" fill="#130F26"/>
<path d="M236.855 611.36V614H226.275V611.9L231.675 606.8C232.249 606.253 232.635 605.787 232.835 605.4C233.035 605 233.135 604.607 233.135 604.22C233.135 603.66 232.942 603.233 232.555 602.94C232.182 602.633 231.629 602.48 230.895 602.48C230.282 602.48 229.729 602.6 229.235 602.84C228.742 603.067 228.329 603.413 227.995 603.88L225.635 602.36C226.182 601.547 226.935 600.913 227.895 600.46C228.855 599.993 229.955 599.76 231.195 599.76C232.235 599.76 233.142 599.933 233.915 600.28C234.702 600.613 235.309 601.093 235.735 601.72C236.175 602.333 236.395 603.06 236.395 603.9C236.395 604.66 236.235 605.373 235.915 606.04C235.595 606.707 234.975 607.467 234.055 608.32L230.835 611.36H236.855ZM249.336 614.24C248.23 614.24 247.156 614.093 246.116 613.8C245.09 613.493 244.263 613.1 243.636 612.62L244.736 610.18C245.336 610.62 246.05 610.973 246.876 611.24C247.703 611.507 248.53 611.64 249.356 611.64C250.276 611.64 250.956 611.507 251.396 611.24C251.836 610.96 252.056 610.593 252.056 610.14C252.056 609.807 251.923 609.533 251.656 609.32C251.403 609.093 251.07 608.913 250.656 608.78C250.256 608.647 249.71 608.5 249.016 608.34C247.95 608.087 247.076 607.833 246.396 607.58C245.716 607.327 245.13 606.92 244.636 606.36C244.156 605.8 243.916 605.053 243.916 604.12C243.916 603.307 244.136 602.573 244.576 601.92C245.016 601.253 245.676 600.727 246.556 600.34C247.45 599.953 248.536 599.76 249.816 599.76C250.71 599.76 251.583 599.867 252.436 600.08C253.29 600.293 254.036 600.6 254.676 601L253.676 603.46C252.383 602.727 251.09 602.36 249.796 602.36C248.89 602.36 248.216 602.507 247.776 602.8C247.35 603.093 247.136 603.48 247.136 603.96C247.136 604.44 247.383 604.8 247.876 605.04C248.383 605.267 249.15 605.493 250.176 605.72C251.243 605.973 252.116 606.227 252.796 606.48C253.476 606.733 254.056 607.133 254.536 607.68C255.03 608.227 255.276 608.967 255.276 609.9C255.276 610.7 255.05 611.433 254.596 612.1C254.156 612.753 253.49 613.273 252.596 613.66C251.703 614.047 250.616 614.24 249.336 614.24ZM257.27 599.16H260.39V614H257.27V599.16ZM268.406 614.16C267.272 614.16 266.252 613.927 265.346 613.46C264.452 612.98 263.752 612.32 263.246 611.48C262.739 610.64 262.486 609.687 262.486 608.62C262.486 607.553 262.739 606.6 263.246 605.76C263.752 604.92 264.452 604.267 265.346 603.8C266.252 603.32 267.272 603.08 268.406 603.08C269.539 603.08 270.552 603.32 271.446 603.8C272.339 604.267 273.039 604.92 273.546 605.76C274.052 606.6 274.306 607.553 274.306 608.62C274.306 609.687 274.052 610.64 273.546 611.48C273.039 612.32 272.339 612.98 271.446 613.46C270.552 613.927 269.539 614.16 268.406 614.16ZM268.406 611.6C269.206 611.6 269.859 611.333 270.366 610.8C270.886 610.253 271.146 609.527 271.146 608.62C271.146 607.713 270.886 606.993 270.366 606.46C269.859 605.913 269.206 605.64 268.406 605.64C267.606 605.64 266.946 605.913 266.426 606.46C265.906 606.993 265.646 607.713 265.646 608.62C265.646 609.527 265.906 610.253 266.426 610.8C266.946 611.333 267.606 611.6 268.406 611.6ZM283.331 613.48C283.025 613.707 282.645 613.88 282.191 614C281.751 614.107 281.285 614.16 280.791 614.16C279.511 614.16 278.518 613.833 277.811 613.18C277.118 612.527 276.771 611.567 276.771 610.3V605.88H275.111V603.48H276.771V600.86H279.891V603.48H282.571V605.88H279.891V610.26C279.891 610.713 280.005 611.067 280.231 611.32C280.471 611.56 280.805 611.68 281.231 611.68C281.725 611.68 282.145 611.547 282.491 611.28L283.331 613.48ZM288.703 614.16C287.809 614.16 286.936 614.053 286.083 613.84C285.229 613.613 284.549 613.333 284.043 613L285.083 610.76C285.563 611.067 286.143 611.32 286.823 611.52C287.503 611.707 288.169 611.8 288.823 611.8C290.143 611.8 290.803 611.473 290.803 610.82C290.803 610.513 290.623 610.293 290.263 610.16C289.903 610.027 289.349 609.913 288.603 609.82C287.723 609.687 286.996 609.533 286.423 609.36C285.849 609.187 285.349 608.88 284.923 608.44C284.509 608 284.303 607.373 284.303 606.56C284.303 605.88 284.496 605.28 284.883 604.76C285.283 604.227 285.856 603.813 286.603 603.52C287.363 603.227 288.256 603.08 289.283 603.08C290.043 603.08 290.796 603.167 291.543 603.34C292.303 603.5 292.929 603.727 293.423 604.02L292.383 606.24C291.436 605.707 290.403 605.44 289.283 605.44C288.616 605.44 288.116 605.533 287.783 605.72C287.449 605.907 287.283 606.147 287.283 606.44C287.283 606.773 287.463 607.007 287.823 607.14C288.183 607.273 288.756 607.4 289.543 607.52C290.423 607.667 291.143 607.827 291.703 608C292.263 608.16 292.749 608.46 293.163 608.9C293.576 609.34 293.783 609.953 293.783 610.74C293.783 611.407 293.583 612 293.183 612.52C292.783 613.04 292.196 613.447 291.423 613.74C290.663 614.02 289.756 614.16 288.703 614.16ZM310.512 614L307.812 610.1H307.652H304.832V614H301.592V600H307.652C308.892 600 309.965 600.207 310.872 600.62C311.792 601.033 312.498 601.62 312.992 602.38C313.485 603.14 313.732 604.04 313.732 605.08C313.732 606.12 313.478 607.02 312.972 607.78C312.478 608.527 311.772 609.1 310.852 609.5L313.992 614H310.512ZM310.452 605.08C310.452 604.293 310.198 603.693 309.692 603.28C309.185 602.853 308.445 602.64 307.472 602.64H304.832V607.52H307.472C308.445 607.52 309.185 607.307 309.692 606.88C310.198 606.453 310.452 605.853 310.452 605.08ZM326.619 608.66C326.619 608.7 326.599 608.98 326.559 609.5H318.419C318.565 610.167 318.912 610.693 319.459 611.08C320.005 611.467 320.685 611.66 321.499 611.66C322.059 611.66 322.552 611.58 322.979 611.42C323.419 611.247 323.825 610.98 324.199 610.62L325.859 612.42C324.845 613.58 323.365 614.16 321.419 614.16C320.205 614.16 319.132 613.927 318.199 613.46C317.265 612.98 316.545 612.32 316.039 611.48C315.532 610.64 315.279 609.687 315.279 608.62C315.279 607.567 315.525 606.62 316.019 605.78C316.525 604.927 317.212 604.267 318.079 603.8C318.959 603.32 319.939 603.08 321.019 603.08C322.072 603.08 323.025 603.307 323.879 603.76C324.732 604.213 325.399 604.867 325.879 605.72C326.372 606.56 326.619 607.54 326.619 608.66ZM321.039 605.44C320.332 605.44 319.739 605.64 319.259 606.04C318.779 606.44 318.485 606.987 318.379 607.68H323.679C323.572 607 323.279 606.46 322.799 606.06C322.319 605.647 321.732 605.44 321.039 605.44ZM342.476 603.08C343.823 603.08 344.889 603.48 345.676 604.28C346.476 605.067 346.876 606.253 346.876 607.84V614H343.756V608.32C343.756 607.467 343.576 606.833 343.216 606.42C342.869 605.993 342.369 605.78 341.716 605.78C340.983 605.78 340.403 606.02 339.976 606.5C339.549 606.967 339.336 607.667 339.336 608.6V614H336.216V608.32C336.216 606.627 335.536 605.78 334.176 605.78C333.456 605.78 332.883 606.02 332.456 606.5C332.029 606.967 331.816 607.667 331.816 608.6V614H328.696V603.24H331.676V604.48C332.076 604.027 332.563 603.68 333.136 603.44C333.723 603.2 334.363 603.08 335.056 603.08C335.816 603.08 336.503 603.233 337.116 603.54C337.729 603.833 338.223 604.267 338.596 604.84C339.036 604.28 339.589 603.847 340.256 603.54C340.936 603.233 341.676 603.08 342.476 603.08ZM354.012 603.08C355.679 603.08 356.959 603.48 357.852 604.28C358.746 605.067 359.192 606.26 359.192 607.86V614H356.272V612.66C355.686 613.66 354.592 614.16 352.992 614.16C352.166 614.16 351.446 614.02 350.832 613.74C350.232 613.46 349.772 613.073 349.452 612.58C349.132 612.087 348.972 611.527 348.972 610.9C348.972 609.9 349.346 609.113 350.092 608.54C350.852 607.967 352.019 607.68 353.592 607.68H356.072C356.072 607 355.866 606.48 355.452 606.12C355.039 605.747 354.419 605.56 353.592 605.56C353.019 605.56 352.452 605.653 351.892 605.84C351.346 606.013 350.879 606.253 350.492 606.56L349.372 604.38C349.959 603.967 350.659 603.647 351.472 603.42C352.299 603.193 353.146 603.08 354.012 603.08ZM353.772 612.06C354.306 612.06 354.779 611.94 355.192 611.7C355.606 611.447 355.899 611.08 356.072 610.6V609.5H353.932C352.652 609.5 352.012 609.92 352.012 610.76C352.012 611.16 352.166 611.48 352.472 611.72C352.792 611.947 353.226 612.06 353.772 612.06ZM362.016 603.24H365.136V614H362.016V603.24ZM363.576 601.74C363.003 601.74 362.536 601.573 362.176 601.24C361.816 600.907 361.636 600.493 361.636 600C361.636 599.507 361.816 599.093 362.176 598.76C362.536 598.427 363.003 598.26 363.576 598.26C364.15 598.26 364.616 598.42 364.976 598.74C365.336 599.06 365.516 599.46 365.516 599.94C365.516 600.46 365.336 600.893 364.976 601.24C364.616 601.573 364.15 601.74 363.576 601.74ZM374.572 603.08C375.905 603.08 376.978 603.48 377.792 604.28C378.618 605.08 379.032 606.267 379.032 607.84V614H375.912V608.32C375.912 607.467 375.725 606.833 375.352 606.42C374.978 605.993 374.438 605.78 373.732 605.78C372.945 605.78 372.318 606.027 371.852 606.52C371.385 607 371.152 607.72 371.152 608.68V614H368.032V603.24H371.012V604.5C371.425 604.047 371.938 603.7 372.552 603.46C373.165 603.207 373.838 603.08 374.572 603.08ZM381.86 603.24H384.98V614H381.86V603.24ZM383.42 601.74C382.847 601.74 382.38 601.573 382.02 601.24C381.66 600.907 381.48 600.493 381.48 600C381.48 599.507 381.66 599.093 382.02 598.76C382.38 598.427 382.847 598.26 383.42 598.26C383.993 598.26 384.46 598.42 384.82 598.74C385.18 599.06 385.36 599.46 385.36 599.94C385.36 600.46 385.18 600.893 384.82 601.24C384.46 601.573 383.993 601.74 383.42 601.74ZM394.416 603.08C395.749 603.08 396.822 603.48 397.636 604.28C398.462 605.08 398.876 606.267 398.876 607.84V614H395.756V608.32C395.756 607.467 395.569 606.833 395.196 606.42C394.822 605.993 394.282 605.78 393.576 605.78C392.789 605.78 392.162 606.027 391.696 606.52C391.229 607 390.996 607.72 390.996 608.68V614H387.876V603.24H390.856V604.5C391.269 604.047 391.782 603.7 392.396 603.46C393.009 603.207 393.682 603.08 394.416 603.08ZM412.921 603.24V612.2C412.921 614.173 412.408 615.64 411.381 616.6C410.354 617.56 408.854 618.04 406.881 618.04C405.841 618.04 404.854 617.913 403.921 617.66C402.988 617.407 402.214 617.04 401.601 616.56L402.841 614.32C403.294 614.693 403.868 614.987 404.561 615.2C405.254 615.427 405.948 615.54 406.641 615.54C407.721 615.54 408.514 615.293 409.021 614.8C409.541 614.32 409.801 613.587 409.801 612.6V612.14C408.988 613.033 407.854 613.48 406.401 613.48C405.414 613.48 404.508 613.267 403.681 612.84C402.868 612.4 402.221 611.787 401.741 611C401.261 610.213 401.021 609.307 401.021 608.28C401.021 607.253 401.261 606.347 401.741 605.56C402.221 604.773 402.868 604.167 403.681 603.74C404.508 603.3 405.414 603.08 406.401 603.08C407.961 603.08 409.148 603.593 409.961 604.62V603.24H412.921ZM407.021 610.92C407.848 610.92 408.521 610.68 409.041 610.2C409.574 609.707 409.841 609.067 409.841 608.28C409.841 607.493 409.574 606.86 409.041 606.38C408.521 605.887 407.848 605.64 407.021 605.64C406.194 605.64 405.514 605.887 404.981 606.38C404.448 606.86 404.181 607.493 404.181 608.28C404.181 609.067 404.448 609.707 404.981 610.2C405.514 610.68 406.194 610.92 407.021 610.92Z" fill="white"/>
<defs>
<linearGradient id="paint0_linear_212_305" x1="2.37317e-06" y1="13" x2="640" y2="694.5" gradientUnits="userSpaceOnUse">
<stop stop-color="#FF8000"/>
<stop offset="0.2" stop-color="#FF4880"/>
<stop offset="0.369792" stop-color="#FF004F"/>
<stop offset="0.578125" stop-color="#7F30FF"/>
<stop offset="0.8" stop-color="#466FFF"/>
<stop offset="1" stop-color="#75D4FF"/>
</linearGradient>
</defs>
</svg>
