<svg width="640" height="708" viewBox="0 0 640 708" fill="none" xmlns="http://www.w3.org/2000/svg">
<rect x="1.5" y="1.5" width="637" height="705" rx="30.5" fill="white" stroke="url(#paint0_linear_225_786)" stroke-width="3" stroke-miterlimit="2.61313"/>
<path d="M64.7845 302C64.7845 309.347 70.7578 315.333 78.1178 315.333C85.4645 315.333 91.4511 309.347 91.4511 302C91.4511 294.64 85.4645 288.667 78.1178 288.667C70.7578 288.667 64.7845 294.64 64.7845 302V302Z" fill="#130F26"/>
<rect x="73.1526" y="300.743" width="6.91934" height="2.30645" rx="1.15322" transform="rotate(45 73.1526 300.743)" fill="white"/>
<rect x="85.3845" y="298.297" width="12.6855" height="2.30645" rx="1.15322" transform="rotate(135 85.3845 298.297)" fill="white"/>
<path d="M118.598 309.5L115.218 304.64L111.898 309.5H108.178L113.358 302.38L108.438 295.5H112.118L115.338 300.04L118.498 295.5H121.998L117.118 302.26L122.338 309.5H118.598ZM135.779 295.5C137.019 295.5 138.092 295.707 138.999 296.12C139.919 296.533 140.626 297.12 141.119 297.88C141.612 298.64 141.859 299.54 141.859 300.58C141.859 301.607 141.612 302.507 141.119 303.28C140.626 304.04 139.919 304.627 138.999 305.04C138.092 305.44 137.019 305.64 135.779 305.64H132.959V309.5H129.719V295.5H135.779ZM135.599 303C136.572 303 137.312 302.793 137.819 302.38C138.326 301.953 138.579 301.353 138.579 300.58C138.579 299.793 138.326 299.193 137.819 298.78C137.312 298.353 136.572 298.14 135.599 298.14H132.959V303H135.599ZM149.053 309.66C147.919 309.66 146.899 309.427 145.993 308.96C145.099 308.48 144.399 307.82 143.893 306.98C143.386 306.14 143.133 305.187 143.133 304.12C143.133 303.053 143.386 302.1 143.893 301.26C144.399 300.42 145.099 299.767 145.993 299.3C146.899 298.82 147.919 298.58 149.053 298.58C150.186 298.58 151.199 298.82 152.093 299.3C152.986 299.767 153.686 300.42 154.193 301.26C154.699 302.1 154.953 303.053 154.953 304.12C154.953 305.187 154.699 306.14 154.193 306.98C153.686 307.82 152.986 308.48 152.093 308.96C151.199 309.427 150.186 309.66 149.053 309.66ZM149.053 307.1C149.853 307.1 150.506 306.833 151.013 306.3C151.533 305.753 151.793 305.027 151.793 304.12C151.793 303.213 151.533 302.493 151.013 301.96C150.506 301.413 149.853 301.14 149.053 301.14C148.253 301.14 147.593 301.413 147.073 301.96C146.553 302.493 146.293 303.213 146.293 304.12C146.293 305.027 146.553 305.753 147.073 306.3C147.593 306.833 148.253 307.1 149.053 307.1ZM160.658 309.66C159.765 309.66 158.891 309.553 158.038 309.34C157.185 309.113 156.505 308.833 155.998 308.5L157.038 306.26C157.518 306.567 158.098 306.82 158.778 307.02C159.458 307.207 160.125 307.3 160.778 307.3C162.098 307.3 162.758 306.973 162.758 306.32C162.758 306.013 162.578 305.793 162.218 305.66C161.858 305.527 161.305 305.413 160.558 305.32C159.678 305.187 158.951 305.033 158.378 304.86C157.805 304.687 157.305 304.38 156.878 303.94C156.465 303.5 156.258 302.873 156.258 302.06C156.258 301.38 156.451 300.78 156.838 300.26C157.238 299.727 157.811 299.313 158.558 299.02C159.318 298.727 160.211 298.58 161.238 298.58C161.998 298.58 162.751 298.667 163.498 298.84C164.258 299 164.885 299.227 165.378 299.52L164.338 301.74C163.391 301.207 162.358 300.94 161.238 300.94C160.571 300.94 160.071 301.033 159.738 301.22C159.405 301.407 159.238 301.647 159.238 301.94C159.238 302.273 159.418 302.507 159.778 302.64C160.138 302.773 160.711 302.9 161.498 303.02C162.378 303.167 163.098 303.327 163.658 303.5C164.218 303.66 164.705 303.96 165.118 304.4C165.531 304.84 165.738 305.453 165.738 306.24C165.738 306.907 165.538 307.5 165.138 308.02C164.738 308.54 164.151 308.947 163.378 309.24C162.618 309.52 161.711 309.66 160.658 309.66ZM174.603 308.98C174.296 309.207 173.916 309.38 173.463 309.5C173.023 309.607 172.556 309.66 172.063 309.66C170.783 309.66 169.79 309.333 169.083 308.68C168.39 308.027 168.043 307.067 168.043 305.8V301.38H166.383V298.98H168.043V296.36H171.163V298.98H173.843V301.38H171.163V305.76C171.163 306.213 171.276 306.567 171.503 306.82C171.743 307.06 172.076 307.18 172.503 307.18C172.996 307.18 173.416 307.047 173.763 306.78L174.603 308.98ZM179.975 309.66C179.081 309.66 178.208 309.553 177.355 309.34C176.501 309.113 175.821 308.833 175.315 308.5L176.355 306.26C176.835 306.567 177.415 306.82 178.095 307.02C178.775 307.207 179.441 307.3 180.095 307.3C181.415 307.3 182.075 306.973 182.075 306.32C182.075 306.013 181.895 305.793 181.535 305.66C181.175 305.527 180.621 305.413 179.875 305.32C178.995 305.187 178.268 305.033 177.695 304.86C177.121 304.687 176.621 304.38 176.195 303.94C175.781 303.5 175.575 302.873 175.575 302.06C175.575 301.38 175.768 300.78 176.155 300.26C176.555 299.727 177.128 299.313 177.875 299.02C178.635 298.727 179.528 298.58 180.555 298.58C181.315 298.58 182.068 298.667 182.815 298.84C183.575 299 184.201 299.227 184.695 299.52L183.655 301.74C182.708 301.207 181.675 300.94 180.555 300.94C179.888 300.94 179.388 301.033 179.055 301.22C178.721 301.407 178.555 301.647 178.555 301.94C178.555 302.273 178.735 302.507 179.095 302.64C179.455 302.773 180.028 302.9 180.815 303.02C181.695 303.167 182.415 303.327 182.975 303.5C183.535 303.66 184.021 303.96 184.435 304.4C184.848 304.84 185.055 305.453 185.055 306.24C185.055 306.907 184.855 307.5 184.455 308.02C184.055 308.54 183.468 308.947 182.695 309.24C181.935 309.52 181.028 309.66 179.975 309.66ZM198.351 298.8C199.377 298.8 200.297 299.027 201.111 299.48C201.924 299.933 202.557 300.567 203.011 301.38C203.477 302.193 203.711 303.133 203.711 304.2C203.711 305.267 203.477 306.213 203.011 307.04C202.557 307.853 201.924 308.487 201.111 308.94C200.297 309.393 199.377 309.62 198.351 309.62C197.591 309.62 196.891 309.473 196.251 309.18C195.624 308.887 195.091 308.46 194.651 307.9V313.38H192.731V298.9H194.571V300.58C194.997 299.993 195.537 299.553 196.191 299.26C196.844 298.953 197.564 298.8 198.351 298.8ZM198.191 307.94C198.871 307.94 199.477 307.787 200.011 307.48C200.557 307.16 200.984 306.72 201.291 306.16C201.611 305.587 201.771 304.933 201.771 304.2C201.771 303.467 201.611 302.82 201.291 302.26C200.984 301.687 200.557 301.247 200.011 300.94C199.477 300.633 198.871 300.48 198.191 300.48C197.524 300.48 196.917 300.64 196.371 300.96C195.837 301.267 195.411 301.7 195.091 302.26C194.784 302.82 194.631 303.467 194.631 304.2C194.631 304.933 194.784 305.587 195.091 306.16C195.397 306.72 195.824 307.16 196.371 307.48C196.917 307.787 197.524 307.94 198.191 307.94ZM215.943 304.26C215.943 304.407 215.93 304.6 215.903 304.84H207.303C207.423 305.773 207.83 306.527 208.523 307.1C209.23 307.66 210.103 307.94 211.143 307.94C212.41 307.94 213.43 307.513 214.203 306.66L215.263 307.9C214.783 308.46 214.183 308.887 213.463 309.18C212.757 309.473 211.963 309.62 211.083 309.62C209.963 309.62 208.97 309.393 208.103 308.94C207.237 308.473 206.563 307.827 206.083 307C205.617 306.173 205.383 305.24 205.383 304.2C205.383 303.173 205.61 302.247 206.063 301.42C206.53 300.593 207.163 299.953 207.963 299.5C208.777 299.033 209.69 298.8 210.703 298.8C211.717 298.8 212.617 299.033 213.403 299.5C214.203 299.953 214.823 300.593 215.263 301.42C215.717 302.247 215.943 303.193 215.943 304.26ZM210.703 300.42C209.783 300.42 209.01 300.7 208.383 301.26C207.77 301.82 207.41 302.553 207.303 303.46H214.103C213.997 302.567 213.63 301.84 213.003 301.28C212.39 300.707 211.623 300.42 210.703 300.42ZM220.45 300.68C220.783 300.067 221.276 299.6 221.93 299.28C222.583 298.96 223.376 298.8 224.31 298.8V300.66C224.203 300.647 224.056 300.64 223.87 300.64C222.83 300.64 222.01 300.953 221.41 301.58C220.823 302.193 220.53 303.073 220.53 304.22V309.5H218.61V298.9H220.45V300.68ZM248.224 298.9L244.264 309.5H242.424L239.364 301.46L236.264 309.5H234.424L230.484 298.9H232.304L235.384 307.34L238.584 298.9H240.204L243.344 307.38L246.504 298.9H248.224ZM259.459 304.26C259.459 304.407 259.446 304.6 259.419 304.84H250.819C250.939 305.773 251.346 306.527 252.039 307.1C252.746 307.66 253.619 307.94 254.659 307.94C255.926 307.94 256.946 307.513 257.719 306.66L258.779 307.9C258.299 308.46 257.699 308.887 256.979 309.18C256.272 309.473 255.479 309.62 254.599 309.62C253.479 309.62 252.486 309.393 251.619 308.94C250.752 308.473 250.079 307.827 249.599 307C249.132 306.173 248.899 305.24 248.899 304.2C248.899 303.173 249.126 302.247 249.579 301.42C250.046 300.593 250.679 299.953 251.479 299.5C252.292 299.033 253.206 298.8 254.219 298.8C255.232 298.8 256.132 299.033 256.919 299.5C257.719 299.953 258.339 300.593 258.779 301.42C259.232 302.247 259.459 303.193 259.459 304.26ZM254.219 300.42C253.299 300.42 252.526 300.7 251.899 301.26C251.286 301.82 250.926 302.553 250.819 303.46H257.619C257.512 302.567 257.146 301.84 256.519 301.28C255.906 300.707 255.139 300.42 254.219 300.42ZM271.705 304.26C271.705 304.407 271.692 304.6 271.665 304.84H263.065C263.185 305.773 263.592 306.527 264.285 307.1C264.992 307.66 265.865 307.94 266.905 307.94C268.172 307.94 269.192 307.513 269.965 306.66L271.025 307.9C270.545 308.46 269.945 308.887 269.225 309.18C268.519 309.473 267.725 309.62 266.845 309.62C265.725 309.62 264.732 309.393 263.865 308.94C262.999 308.473 262.325 307.827 261.845 307C261.379 306.173 261.145 305.24 261.145 304.2C261.145 303.173 261.372 302.247 261.825 301.42C262.292 300.593 262.925 299.953 263.725 299.5C264.539 299.033 265.452 298.8 266.465 298.8C267.479 298.8 268.379 299.033 269.165 299.5C269.965 299.953 270.585 300.593 271.025 301.42C271.479 302.247 271.705 303.193 271.705 304.26ZM266.465 300.42C265.545 300.42 264.772 300.7 264.145 301.26C263.532 301.82 263.172 302.553 263.065 303.46H269.865C269.759 302.567 269.392 301.84 268.765 301.28C268.152 300.707 267.385 300.42 266.465 300.42ZM278.491 304.56L276.291 306.6V309.5H274.371V294.66H276.291V304.18L282.071 298.9H284.391L279.931 303.28L284.831 309.5H282.471L278.491 304.56Z" fill="#1A1A1A"/>
<path d="M64.7845 354C64.7845 361.347 70.7578 367.333 78.1178 367.333C85.4645 367.333 91.4511 361.347 91.4511 354C91.4511 346.64 85.4645 340.667 78.1178 340.667C70.7578 340.667 64.7845 346.64 64.7845 354V354Z" fill="#130F26"/>
<rect x="73.1526" y="352.743" width="6.91934" height="2.30645" rx="1.15322" transform="rotate(45 73.1526 352.743)" fill="white"/>
<rect x="85.3845" y="350.297" width="12.6855" height="2.30645" rx="1.15322" transform="rotate(135 85.3845 350.297)" fill="white"/>
<path d="M118.598 361.5L115.218 356.64L111.898 361.5H108.178L113.358 354.38L108.438 347.5H112.118L115.338 352.04L118.498 347.5H121.998L117.118 354.26L122.338 361.5H118.598ZM138.639 361.5L135.939 357.6H135.779H132.959V361.5H129.719V347.5H135.779C137.019 347.5 138.092 347.707 138.999 348.12C139.919 348.533 140.626 349.12 141.119 349.88C141.612 350.64 141.859 351.54 141.859 352.58C141.859 353.62 141.606 354.52 141.099 355.28C140.606 356.027 139.899 356.6 138.979 357L142.119 361.5H138.639ZM138.579 352.58C138.579 351.793 138.326 351.193 137.819 350.78C137.312 350.353 136.572 350.14 135.599 350.14H132.959V355.02H135.599C136.572 355.02 137.312 354.807 137.819 354.38C138.326 353.953 138.579 353.353 138.579 352.58ZM154.746 356.16C154.746 356.2 154.726 356.48 154.686 357H146.546C146.693 357.667 147.039 358.193 147.586 358.58C148.133 358.967 148.813 359.16 149.626 359.16C150.186 359.16 150.679 359.08 151.106 358.92C151.546 358.747 151.953 358.48 152.326 358.12L153.986 359.92C152.973 361.08 151.493 361.66 149.546 361.66C148.333 361.66 147.259 361.427 146.326 360.96C145.393 360.48 144.673 359.82 144.166 358.98C143.659 358.14 143.406 357.187 143.406 356.12C143.406 355.067 143.653 354.12 144.146 353.28C144.653 352.427 145.339 351.767 146.206 351.3C147.086 350.82 148.066 350.58 149.146 350.58C150.199 350.58 151.153 350.807 152.006 351.26C152.859 351.713 153.526 352.367 154.006 353.22C154.499 354.06 154.746 355.04 154.746 356.16ZM149.166 352.94C148.459 352.94 147.866 353.14 147.386 353.54C146.906 353.94 146.613 354.487 146.506 355.18H151.806C151.699 354.5 151.406 353.96 150.926 353.56C150.446 353.147 149.859 352.94 149.166 352.94ZM167.363 356.16C167.363 356.2 167.343 356.48 167.303 357H159.163C159.31 357.667 159.657 358.193 160.203 358.58C160.75 358.967 161.43 359.16 162.243 359.16C162.803 359.16 163.297 359.08 163.723 358.92C164.163 358.747 164.57 358.48 164.943 358.12L166.603 359.92C165.59 361.08 164.11 361.66 162.163 361.66C160.95 361.66 159.877 361.427 158.943 360.96C158.01 360.48 157.29 359.82 156.783 358.98C156.277 358.14 156.023 357.187 156.023 356.12C156.023 355.067 156.27 354.12 156.763 353.28C157.27 352.427 157.957 351.767 158.823 351.3C159.703 350.82 160.683 350.58 161.763 350.58C162.817 350.58 163.77 350.807 164.623 351.26C165.477 351.713 166.143 352.367 166.623 353.22C167.117 354.06 167.363 355.04 167.363 356.16ZM161.783 352.94C161.077 352.94 160.483 353.14 160.003 353.54C159.523 353.94 159.23 354.487 159.123 355.18H164.423C164.317 354.5 164.023 353.96 163.543 353.56C163.063 353.147 162.477 352.94 161.783 352.94ZM169.44 346.66H172.56V361.5H169.44V346.66ZM179.076 361.66C178.183 361.66 177.309 361.553 176.456 361.34C175.603 361.113 174.923 360.833 174.416 360.5L175.456 358.26C175.936 358.567 176.516 358.82 177.196 359.02C177.876 359.207 178.543 359.3 179.196 359.3C180.516 359.3 181.176 358.973 181.176 358.32C181.176 358.013 180.996 357.793 180.636 357.66C180.276 357.527 179.723 357.413 178.976 357.32C178.096 357.187 177.369 357.033 176.796 356.86C176.223 356.687 175.723 356.38 175.296 355.94C174.883 355.5 174.676 354.873 174.676 354.06C174.676 353.38 174.869 352.78 175.256 352.26C175.656 351.727 176.229 351.313 176.976 351.02C177.736 350.727 178.629 350.58 179.656 350.58C180.416 350.58 181.169 350.667 181.916 350.84C182.676 351 183.303 351.227 183.796 351.52L182.756 353.74C181.809 353.207 180.776 352.94 179.656 352.94C178.989 352.94 178.489 353.033 178.156 353.22C177.823 353.407 177.656 353.647 177.656 353.94C177.656 354.273 177.836 354.507 178.196 354.64C178.556 354.773 179.129 354.9 179.916 355.02C180.796 355.167 181.516 355.327 182.076 355.5C182.636 355.66 183.123 355.96 183.536 356.4C183.949 356.84 184.156 357.453 184.156 358.24C184.156 358.907 183.956 359.5 183.556 360.02C183.156 360.54 182.569 360.947 181.796 361.24C181.036 361.52 180.129 361.66 179.076 361.66ZM197.452 350.8C198.479 350.8 199.399 351.027 200.212 351.48C201.026 351.933 201.659 352.567 202.112 353.38C202.579 354.193 202.812 355.133 202.812 356.2C202.812 357.267 202.579 358.213 202.112 359.04C201.659 359.853 201.026 360.487 200.212 360.94C199.399 361.393 198.479 361.62 197.452 361.62C196.692 361.62 195.992 361.473 195.352 361.18C194.726 360.887 194.192 360.46 193.752 359.9V365.38H191.832V350.9H193.672V352.58C194.099 351.993 194.639 351.553 195.292 351.26C195.946 350.953 196.666 350.8 197.452 350.8ZM197.292 359.94C197.972 359.94 198.579 359.787 199.112 359.48C199.659 359.16 200.086 358.72 200.392 358.16C200.712 357.587 200.872 356.933 200.872 356.2C200.872 355.467 200.712 354.82 200.392 354.26C200.086 353.687 199.659 353.247 199.112 352.94C198.579 352.633 197.972 352.48 197.292 352.48C196.626 352.48 196.019 352.64 195.472 352.96C194.939 353.267 194.512 353.7 194.192 354.26C193.886 354.82 193.732 355.467 193.732 356.2C193.732 356.933 193.886 357.587 194.192 358.16C194.499 358.72 194.926 359.16 195.472 359.48C196.019 359.787 196.626 359.94 197.292 359.94ZM215.045 356.26C215.045 356.407 215.032 356.6 215.005 356.84H206.405C206.525 357.773 206.932 358.527 207.625 359.1C208.332 359.66 209.205 359.94 210.245 359.94C211.512 359.94 212.532 359.513 213.305 358.66L214.365 359.9C213.885 360.46 213.285 360.887 212.565 361.18C211.858 361.473 211.065 361.62 210.185 361.62C209.065 361.62 208.072 361.393 207.205 360.94C206.338 360.473 205.665 359.827 205.185 359C204.718 358.173 204.485 357.24 204.485 356.2C204.485 355.173 204.712 354.247 205.165 353.42C205.632 352.593 206.265 351.953 207.065 351.5C207.878 351.033 208.792 350.8 209.805 350.8C210.818 350.8 211.718 351.033 212.505 351.5C213.305 351.953 213.925 352.593 214.365 353.42C214.818 354.247 215.045 355.193 215.045 356.26ZM209.805 352.42C208.885 352.42 208.112 352.7 207.485 353.26C206.872 353.82 206.512 354.553 206.405 355.46H213.205C213.098 354.567 212.732 353.84 212.105 353.28C211.492 352.707 210.725 352.42 209.805 352.42ZM219.551 352.68C219.884 352.067 220.378 351.6 221.031 351.28C221.684 350.96 222.478 350.8 223.411 350.8V352.66C223.304 352.647 223.158 352.64 222.971 352.64C221.931 352.64 221.111 352.953 220.511 353.58C219.924 354.193 219.631 355.073 219.631 356.22V361.5H217.711V350.9H219.551V352.68ZM247.325 350.9L243.365 361.5H241.525L238.465 353.46L235.365 361.5H233.525L229.585 350.9H231.405L234.485 359.34L237.685 350.9H239.305L242.445 359.38L245.605 350.9H247.325ZM258.561 356.26C258.561 356.407 258.547 356.6 258.521 356.84H249.921C250.041 357.773 250.447 358.527 251.141 359.1C251.847 359.66 252.721 359.94 253.761 359.94C255.027 359.94 256.047 359.513 256.821 358.66L257.881 359.9C257.401 360.46 256.801 360.887 256.081 361.18C255.374 361.473 254.581 361.62 253.701 361.62C252.581 361.62 251.587 361.393 250.721 360.94C249.854 360.473 249.181 359.827 248.701 359C248.234 358.173 248.001 357.24 248.001 356.2C248.001 355.173 248.227 354.247 248.681 353.42C249.147 352.593 249.781 351.953 250.581 351.5C251.394 351.033 252.307 350.8 253.321 350.8C254.334 350.8 255.234 351.033 256.021 351.5C256.821 351.953 257.441 352.593 257.881 353.42C258.334 354.247 258.561 355.193 258.561 356.26ZM253.321 352.42C252.401 352.42 251.627 352.7 251.001 353.26C250.387 353.82 250.027 354.553 249.921 355.46H256.721C256.614 354.567 256.247 353.84 255.621 353.28C255.007 352.707 254.241 352.42 253.321 352.42ZM270.807 356.26C270.807 356.407 270.793 356.6 270.767 356.84H262.167C262.287 357.773 262.693 358.527 263.387 359.1C264.093 359.66 264.967 359.94 266.007 359.94C267.273 359.94 268.293 359.513 269.067 358.66L270.127 359.9C269.647 360.46 269.047 360.887 268.327 361.18C267.62 361.473 266.827 361.62 265.947 361.62C264.827 361.62 263.833 361.393 262.967 360.94C262.1 360.473 261.427 359.827 260.947 359C260.48 358.173 260.247 357.24 260.247 356.2C260.247 355.173 260.473 354.247 260.927 353.42C261.393 352.593 262.027 351.953 262.827 351.5C263.64 351.033 264.553 350.8 265.567 350.8C266.58 350.8 267.48 351.033 268.267 351.5C269.067 351.953 269.687 352.593 270.127 353.42C270.58 354.247 270.807 355.193 270.807 356.26ZM265.567 352.42C264.647 352.42 263.873 352.7 263.247 353.26C262.633 353.82 262.273 354.553 262.167 355.46H268.967C268.86 354.567 268.493 353.84 267.867 353.28C267.253 352.707 266.487 352.42 265.567 352.42ZM277.593 356.56L275.393 358.6V361.5H273.473V346.66H275.393V356.18L281.173 350.9H283.493L279.033 355.28L283.933 361.5H281.573L277.593 356.56Z" fill="#1A1A1A"/>
<path d="M64.7845 458C64.7845 465.347 70.7578 471.333 78.1178 471.333C85.4645 471.333 91.4511 465.347 91.4511 458C91.4511 450.64 85.4645 444.667 78.1178 444.667C70.7578 444.667 64.7845 450.64 64.7845 458V458Z" fill="#130F26"/>
<rect x="73.1526" y="456.743" width="6.91934" height="2.30645" rx="1.15322" transform="rotate(45 73.1526 456.743)" fill="white"/>
<rect x="85.3845" y="454.297" width="12.6855" height="2.30645" rx="1.15322" transform="rotate(135 85.3845 454.297)" fill="white"/>
<path d="M119.138 461H111.698L110.158 464.5H108.098L114.438 450.5H116.418L122.778 464.5H120.678L119.138 461ZM118.438 459.4L115.418 452.54L112.398 459.4H118.438ZM129.108 464.62C128.028 464.62 127.062 464.387 126.208 463.92C125.368 463.453 124.708 462.813 124.228 462C123.748 461.173 123.508 460.24 123.508 459.2C123.508 458.16 123.748 457.233 124.228 456.42C124.708 455.593 125.368 454.953 126.208 454.5C127.062 454.033 128.028 453.8 129.108 453.8C130.068 453.8 130.922 453.993 131.668 454.38C132.428 454.767 133.015 455.327 133.428 456.06L131.968 457C131.635 456.493 131.222 456.113 130.728 455.86C130.235 455.607 129.688 455.48 129.088 455.48C128.395 455.48 127.768 455.633 127.208 455.94C126.662 456.247 126.228 456.687 125.908 457.26C125.602 457.82 125.448 458.467 125.448 459.2C125.448 459.947 125.602 460.607 125.908 461.18C126.228 461.74 126.662 462.173 127.208 462.48C127.768 462.787 128.395 462.94 129.088 462.94C129.688 462.94 130.235 462.813 130.728 462.56C131.222 462.307 131.635 461.927 131.968 461.42L133.428 462.34C133.015 463.073 132.428 463.64 131.668 464.04C130.922 464.427 130.068 464.62 129.108 464.62ZM140.378 464.62C139.298 464.62 138.331 464.387 137.478 463.92C136.638 463.453 135.978 462.813 135.498 462C135.018 461.173 134.778 460.24 134.778 459.2C134.778 458.16 135.018 457.233 135.498 456.42C135.978 455.593 136.638 454.953 137.478 454.5C138.331 454.033 139.298 453.8 140.378 453.8C141.338 453.8 142.191 453.993 142.938 454.38C143.698 454.767 144.285 455.327 144.698 456.06L143.238 457C142.905 456.493 142.491 456.113 141.998 455.86C141.505 455.607 140.958 455.48 140.358 455.48C139.665 455.48 139.038 455.633 138.478 455.94C137.931 456.247 137.498 456.687 137.178 457.26C136.871 457.82 136.718 458.467 136.718 459.2C136.718 459.947 136.871 460.607 137.178 461.18C137.498 461.74 137.931 462.173 138.478 462.48C139.038 462.787 139.665 462.94 140.358 462.94C140.958 462.94 141.505 462.813 141.998 462.56C142.491 462.307 142.905 461.927 143.238 461.42L144.698 462.34C144.285 463.073 143.698 463.64 142.938 464.04C142.191 464.427 141.338 464.62 140.378 464.62ZM151.568 464.62C150.514 464.62 149.568 464.387 148.728 463.92C147.888 463.453 147.228 462.813 146.748 462C146.281 461.173 146.048 460.24 146.048 459.2C146.048 458.16 146.281 457.233 146.748 456.42C147.228 455.593 147.888 454.953 148.728 454.5C149.568 454.033 150.514 453.8 151.568 453.8C152.621 453.8 153.561 454.033 154.388 454.5C155.228 454.953 155.881 455.593 156.348 456.42C156.828 457.233 157.068 458.16 157.068 459.2C157.068 460.24 156.828 461.173 156.348 462C155.881 462.813 155.228 463.453 154.388 463.92C153.561 464.387 152.621 464.62 151.568 464.62ZM151.568 462.94C152.248 462.94 152.854 462.787 153.388 462.48C153.934 462.16 154.361 461.72 154.668 461.16C154.974 460.587 155.128 459.933 155.128 459.2C155.128 458.467 154.974 457.82 154.668 457.26C154.361 456.687 153.934 456.247 153.388 455.94C152.854 455.633 152.248 455.48 151.568 455.48C150.888 455.48 150.274 455.633 149.728 455.94C149.194 456.247 148.768 456.687 148.448 457.26C148.141 457.82 147.988 458.467 147.988 459.2C147.988 459.933 148.141 460.587 148.448 461.16C148.768 461.72 149.194 462.16 149.728 462.48C150.274 462.787 150.888 462.94 151.568 462.94ZM169.603 453.9V464.5H167.783V462.9C167.396 463.447 166.883 463.873 166.243 464.18C165.616 464.473 164.929 464.62 164.183 464.62C162.769 464.62 161.656 464.233 160.843 463.46C160.029 462.673 159.623 461.52 159.623 460V453.9H161.543V459.78C161.543 460.807 161.789 461.587 162.283 462.12C162.776 462.64 163.483 462.9 164.403 462.9C165.416 462.9 166.216 462.593 166.803 461.98C167.389 461.367 167.683 460.5 167.683 459.38V453.9H169.603ZM178.918 453.8C180.265 453.8 181.331 454.193 182.118 454.98C182.918 455.753 183.318 456.893 183.318 458.4V464.5H181.398V458.62C181.398 457.593 181.151 456.82 180.658 456.3C180.165 455.78 179.458 455.52 178.538 455.52C177.498 455.52 176.678 455.827 176.078 456.44C175.478 457.04 175.178 457.907 175.178 459.04V464.5H173.258V453.9H175.098V455.5C175.485 454.953 176.005 454.533 176.658 454.24C177.325 453.947 178.078 453.8 178.918 453.8ZM192.831 463.88C192.551 464.12 192.205 464.307 191.791 464.44C191.378 464.56 190.951 464.62 190.511 464.62C189.445 464.62 188.618 464.333 188.031 463.76C187.445 463.187 187.151 462.367 187.151 461.3V455.48H185.351V453.9H187.151V451.58H189.071V453.9H192.111V455.48H189.071V461.22C189.071 461.793 189.211 462.233 189.491 462.54C189.785 462.847 190.198 463 190.731 463C191.318 463 191.818 462.833 192.231 462.5L192.831 463.88ZM213.784 453.8C215.117 453.8 216.17 454.187 216.944 454.96C217.73 455.733 218.124 456.88 218.124 458.4V464.5H216.204V458.62C216.204 457.593 215.964 456.82 215.484 456.3C215.017 455.78 214.344 455.52 213.464 455.52C212.49 455.52 211.717 455.827 211.144 456.44C210.57 457.04 210.284 457.907 210.284 459.04V464.5H208.364V458.62C208.364 457.593 208.124 456.82 207.644 456.3C207.177 455.78 206.504 455.52 205.624 455.52C204.65 455.52 203.877 455.827 203.304 456.44C202.73 457.04 202.444 457.907 202.444 459.04V464.5H200.524V453.9H202.364V455.48C202.75 454.933 203.257 454.52 203.884 454.24C204.51 453.947 205.224 453.8 206.024 453.8C206.85 453.8 207.584 453.967 208.224 454.3C208.864 454.633 209.357 455.12 209.704 455.76C210.104 455.147 210.657 454.667 211.364 454.32C212.084 453.973 212.89 453.8 213.784 453.8ZM225.516 453.8C226.983 453.8 228.103 454.16 228.876 454.88C229.663 455.6 230.056 456.673 230.056 458.1V464.5H228.236V463.1C227.916 463.593 227.456 463.973 226.856 464.24C226.27 464.493 225.57 464.62 224.756 464.62C223.57 464.62 222.616 464.333 221.896 463.76C221.19 463.187 220.836 462.433 220.836 461.5C220.836 460.567 221.176 459.82 221.856 459.26C222.536 458.687 223.616 458.4 225.096 458.4H228.136V458.02C228.136 457.193 227.896 456.56 227.416 456.12C226.936 455.68 226.23 455.46 225.296 455.46C224.67 455.46 224.056 455.567 223.456 455.78C222.856 455.98 222.35 456.253 221.936 456.6L221.136 455.16C221.683 454.72 222.336 454.387 223.096 454.16C223.856 453.92 224.663 453.8 225.516 453.8ZM225.076 463.14C225.81 463.14 226.443 462.98 226.976 462.66C227.51 462.327 227.896 461.86 228.136 461.26V459.78H225.176C223.55 459.78 222.736 460.327 222.736 461.42C222.736 461.953 222.943 462.373 223.356 462.68C223.77 462.987 224.343 463.14 225.076 463.14ZM239.27 453.8C240.616 453.8 241.683 454.193 242.47 454.98C243.27 455.753 243.67 456.893 243.67 458.4V464.5H241.75V458.62C241.75 457.593 241.503 456.82 241.01 456.3C240.516 455.78 239.81 455.52 238.89 455.52C237.85 455.52 237.03 455.827 236.43 456.44C235.83 457.04 235.53 457.907 235.53 459.04V464.5H233.61V453.9H235.45V455.5C235.836 454.953 236.356 454.533 237.01 454.24C237.676 453.947 238.43 453.8 239.27 453.8ZM251.083 453.8C252.549 453.8 253.669 454.16 254.443 454.88C255.229 455.6 255.623 456.673 255.623 458.1V464.5H253.803V463.1C253.483 463.593 253.023 463.973 252.423 464.24C251.836 464.493 251.136 464.62 250.323 464.62C249.136 464.62 248.183 464.333 247.463 463.76C246.756 463.187 246.403 462.433 246.403 461.5C246.403 460.567 246.743 459.82 247.423 459.26C248.103 458.687 249.183 458.4 250.663 458.4H253.703V458.02C253.703 457.193 253.463 456.56 252.983 456.12C252.503 455.68 251.796 455.46 250.863 455.46C250.236 455.46 249.623 455.567 249.023 455.78C248.423 455.98 247.916 456.253 247.503 456.6L246.703 455.16C247.249 454.72 247.903 454.387 248.663 454.16C249.423 453.92 250.229 453.8 251.083 453.8ZM250.643 463.14C251.376 463.14 252.009 462.98 252.543 462.66C253.076 462.327 253.463 461.86 253.703 461.26V459.78H250.743C249.116 459.78 248.303 460.327 248.303 461.42C248.303 461.953 248.509 462.373 248.923 462.68C249.336 462.987 249.909 463.14 250.643 463.14ZM269.375 453.9V463.06C269.375 464.913 268.915 466.28 267.995 467.16C267.075 468.053 265.701 468.5 263.875 468.5C262.875 468.5 261.921 468.36 261.015 468.08C260.108 467.813 259.375 467.427 258.815 466.92L259.735 465.44C260.228 465.867 260.835 466.2 261.555 466.44C262.288 466.693 263.041 466.82 263.815 466.82C265.055 466.82 265.968 466.527 266.555 465.94C267.155 465.353 267.455 464.46 267.455 463.26V462.42C267.001 462.967 266.441 463.38 265.775 463.66C265.121 463.927 264.408 464.06 263.635 464.06C262.621 464.06 261.701 463.847 260.875 463.42C260.061 462.98 259.421 462.373 258.955 461.6C258.488 460.813 258.255 459.92 258.255 458.92C258.255 457.92 258.488 457.033 258.955 456.26C259.421 455.473 260.061 454.867 260.875 454.44C261.701 454.013 262.621 453.8 263.635 453.8C264.435 453.8 265.175 453.947 265.855 454.24C266.548 454.533 267.115 454.967 267.555 455.54V453.9H269.375ZM263.855 462.38C264.548 462.38 265.168 462.233 265.715 461.94C266.275 461.647 266.708 461.24 267.015 460.72C267.335 460.187 267.495 459.587 267.495 458.92C267.495 457.893 267.155 457.067 266.475 456.44C265.795 455.8 264.921 455.48 263.855 455.48C262.775 455.48 261.895 455.8 261.215 456.44C260.535 457.067 260.195 457.893 260.195 458.92C260.195 459.587 260.348 460.187 260.655 460.72C260.975 461.24 261.408 461.647 261.955 461.94C262.515 462.233 263.148 462.38 263.855 462.38ZM282.623 459.26C282.623 459.407 282.61 459.6 282.583 459.84H273.983C274.103 460.773 274.51 461.527 275.203 462.1C275.91 462.66 276.783 462.94 277.823 462.94C279.09 462.94 280.11 462.513 280.883 461.66L281.943 462.9C281.463 463.46 280.863 463.887 280.143 464.18C279.436 464.473 278.643 464.62 277.763 464.62C276.643 464.62 275.65 464.393 274.783 463.94C273.916 463.473 273.243 462.827 272.763 462C272.296 461.173 272.063 460.24 272.063 459.2C272.063 458.173 272.29 457.247 272.743 456.42C273.21 455.593 273.843 454.953 274.643 454.5C275.456 454.033 276.37 453.8 277.383 453.8C278.396 453.8 279.296 454.033 280.083 454.5C280.883 454.953 281.503 455.593 281.943 456.42C282.396 457.247 282.623 458.193 282.623 459.26ZM277.383 455.42C276.463 455.42 275.69 455.7 275.063 456.26C274.45 456.82 274.09 457.553 273.983 458.46H280.783C280.676 457.567 280.31 456.84 279.683 456.28C279.07 455.707 278.303 455.42 277.383 455.42ZM298.549 453.8C299.883 453.8 300.936 454.187 301.709 454.96C302.496 455.733 302.889 456.88 302.889 458.4V464.5H300.969V458.62C300.969 457.593 300.729 456.82 300.249 456.3C299.783 455.78 299.109 455.52 298.229 455.52C297.256 455.52 296.483 455.827 295.909 456.44C295.336 457.04 295.049 457.907 295.049 459.04V464.5H293.129V458.62C293.129 457.593 292.889 456.82 292.409 456.3C291.943 455.78 291.269 455.52 290.389 455.52C289.416 455.52 288.643 455.827 288.069 456.44C287.496 457.04 287.209 457.907 287.209 459.04V464.5H285.289V453.9H287.129V455.48C287.516 454.933 288.023 454.52 288.649 454.24C289.276 453.947 289.989 453.8 290.789 453.8C291.616 453.8 292.349 453.967 292.989 454.3C293.629 454.633 294.123 455.12 294.469 455.76C294.869 455.147 295.423 454.667 296.129 454.32C296.849 453.973 297.656 453.8 298.549 453.8ZM316.061 459.26C316.061 459.407 316.047 459.6 316.021 459.84H307.421C307.541 460.773 307.947 461.527 308.641 462.1C309.347 462.66 310.221 462.94 311.261 462.94C312.527 462.94 313.547 462.513 314.321 461.66L315.381 462.9C314.901 463.46 314.301 463.887 313.581 464.18C312.874 464.473 312.081 464.62 311.201 464.62C310.081 464.62 309.087 464.393 308.221 463.94C307.354 463.473 306.681 462.827 306.201 462C305.734 461.173 305.501 460.24 305.501 459.2C305.501 458.173 305.727 457.247 306.181 456.42C306.647 455.593 307.281 454.953 308.081 454.5C308.894 454.033 309.807 453.8 310.821 453.8C311.834 453.8 312.734 454.033 313.521 454.5C314.321 454.953 314.941 455.593 315.381 456.42C315.834 457.247 316.061 458.193 316.061 459.26ZM310.821 455.42C309.901 455.42 309.127 455.7 308.501 456.26C307.887 456.82 307.527 457.553 307.421 458.46H314.221C314.114 457.567 313.747 456.84 313.121 456.28C312.507 455.707 311.741 455.42 310.821 455.42ZM324.387 453.8C325.733 453.8 326.8 454.193 327.587 454.98C328.387 455.753 328.787 456.893 328.787 458.4V464.5H326.867V458.62C326.867 457.593 326.62 456.82 326.127 456.3C325.633 455.78 324.927 455.52 324.007 455.52C322.967 455.52 322.147 455.827 321.547 456.44C320.947 457.04 320.647 457.907 320.647 459.04V464.5H318.727V453.9H320.567V455.5C320.953 454.953 321.473 454.533 322.127 454.24C322.793 453.947 323.547 453.8 324.387 453.8ZM338.3 463.88C338.02 464.12 337.673 464.307 337.26 464.44C336.847 464.56 336.42 464.62 335.98 464.62C334.913 464.62 334.087 464.333 333.5 463.76C332.913 463.187 332.62 462.367 332.62 461.3V455.48H330.82V453.9H332.62V451.58H334.54V453.9H337.58V455.48H334.54V461.22C334.54 461.793 334.68 462.233 334.96 462.54C335.253 462.847 335.667 463 336.2 463C336.787 463 337.287 462.833 337.7 462.5L338.3 463.88ZM354.472 458.3H350.832V461.88H349.152V458.3H345.512V456.72H349.152V453.12H350.832V456.72H354.472V458.3ZM119.138 485H111.698L110.158 488.5H108.098L114.438 474.5H116.418L122.778 488.5H120.678L119.138 485ZM118.438 483.4L115.418 476.54L112.398 483.4H118.438ZM134.271 477.9V488.5H132.451V486.9C132.064 487.447 131.551 487.873 130.911 488.18C130.284 488.473 129.597 488.62 128.851 488.62C127.437 488.62 126.324 488.233 125.511 487.46C124.697 486.673 124.291 485.52 124.291 484V477.9H126.211V483.78C126.211 484.807 126.457 485.587 126.951 486.12C127.444 486.64 128.151 486.9 129.071 486.9C130.084 486.9 130.884 486.593 131.471 485.98C132.057 485.367 132.351 484.5 132.351 483.38V477.9H134.271ZM143.886 487.88C143.606 488.12 143.259 488.307 142.846 488.44C142.433 488.56 142.006 488.62 141.566 488.62C140.499 488.62 139.673 488.333 139.086 487.76C138.499 487.187 138.206 486.367 138.206 485.3V479.48H136.406V477.9H138.206V475.58H140.126V477.9H143.166V479.48H140.126V485.22C140.126 485.793 140.266 486.233 140.546 486.54C140.839 486.847 141.253 487 141.786 487C142.373 487 142.873 486.833 143.286 486.5L143.886 487.88ZM150.396 488.62C149.342 488.62 148.396 488.387 147.556 487.92C146.716 487.453 146.056 486.813 145.576 486C145.109 485.173 144.876 484.24 144.876 483.2C144.876 482.16 145.109 481.233 145.576 480.42C146.056 479.593 146.716 478.953 147.556 478.5C148.396 478.033 149.342 477.8 150.396 477.8C151.449 477.8 152.389 478.033 153.216 478.5C154.056 478.953 154.709 479.593 155.176 480.42C155.656 481.233 155.896 482.16 155.896 483.2C155.896 484.24 155.656 485.173 155.176 486C154.709 486.813 154.056 487.453 153.216 487.92C152.389 488.387 151.449 488.62 150.396 488.62ZM150.396 486.94C151.076 486.94 151.682 486.787 152.216 486.48C152.762 486.16 153.189 485.72 153.496 485.16C153.802 484.587 153.956 483.933 153.956 483.2C153.956 482.467 153.802 481.82 153.496 481.26C153.189 480.687 152.762 480.247 152.216 479.94C151.682 479.633 151.076 479.48 150.396 479.48C149.716 479.48 149.102 479.633 148.556 479.94C148.022 480.247 147.596 480.687 147.276 481.26C146.969 481.82 146.816 482.467 146.816 483.2C146.816 483.933 146.969 484.587 147.276 485.16C147.596 485.72 148.022 486.16 148.556 486.48C149.102 486.787 149.716 486.94 150.396 486.94ZM171.811 477.8C173.144 477.8 174.198 478.187 174.971 478.96C175.758 479.733 176.151 480.88 176.151 482.4V488.5H174.231V482.62C174.231 481.593 173.991 480.82 173.511 480.3C173.044 479.78 172.371 479.52 171.491 479.52C170.518 479.52 169.744 479.827 169.171 480.44C168.598 481.04 168.311 481.907 168.311 483.04V488.5H166.391V482.62C166.391 481.593 166.151 480.82 165.671 480.3C165.204 479.78 164.531 479.52 163.651 479.52C162.678 479.52 161.904 479.827 161.331 480.44C160.758 481.04 160.471 481.907 160.471 483.04V488.5H158.551V477.9H160.391V479.48C160.778 478.933 161.284 478.52 161.911 478.24C162.538 477.947 163.251 477.8 164.051 477.8C164.878 477.8 165.611 477.967 166.251 478.3C166.891 478.633 167.384 479.12 167.731 479.76C168.131 479.147 168.684 478.667 169.391 478.32C170.111 477.973 170.918 477.8 171.811 477.8ZM183.544 477.8C185.01 477.8 186.13 478.16 186.904 478.88C187.69 479.6 188.084 480.673 188.084 482.1V488.5H186.264V487.1C185.944 487.593 185.484 487.973 184.884 488.24C184.297 488.493 183.597 488.62 182.784 488.62C181.597 488.62 180.644 488.333 179.924 487.76C179.217 487.187 178.864 486.433 178.864 485.5C178.864 484.567 179.204 483.82 179.884 483.26C180.564 482.687 181.644 482.4 183.124 482.4H186.164V482.02C186.164 481.193 185.924 480.56 185.444 480.12C184.964 479.68 184.257 479.46 183.324 479.46C182.697 479.46 182.084 479.567 181.484 479.78C180.884 479.98 180.377 480.253 179.964 480.6L179.164 479.16C179.71 478.72 180.364 478.387 181.124 478.16C181.884 477.92 182.69 477.8 183.544 477.8ZM183.104 487.14C183.837 487.14 184.47 486.98 185.004 486.66C185.537 486.327 185.924 485.86 186.164 485.26V483.78H183.204C181.577 483.78 180.764 484.327 180.764 485.42C180.764 485.953 180.97 486.373 181.384 486.68C181.797 486.987 182.37 487.14 183.104 487.14ZM197.597 487.88C197.317 488.12 196.97 488.307 196.557 488.44C196.144 488.56 195.717 488.62 195.277 488.62C194.21 488.62 193.384 488.333 192.797 487.76C192.21 487.187 191.917 486.367 191.917 485.3V479.48H190.117V477.9H191.917V475.58H193.837V477.9H196.877V479.48H193.837V485.22C193.837 485.793 193.977 486.233 194.257 486.54C194.55 486.847 194.964 487 195.497 487C196.084 487 196.584 486.833 196.997 486.5L197.597 487.88ZM199.918 477.9H201.838V488.5H199.918V477.9ZM200.878 475.86C200.505 475.86 200.191 475.74 199.938 475.5C199.698 475.26 199.578 474.967 199.578 474.62C199.578 474.273 199.698 473.98 199.938 473.74C200.191 473.487 200.505 473.36 200.878 473.36C201.251 473.36 201.558 473.48 201.798 473.72C202.051 473.947 202.178 474.233 202.178 474.58C202.178 474.94 202.051 475.247 201.798 475.5C201.558 475.74 201.251 475.86 200.878 475.86ZM210.044 488.62C208.991 488.62 208.044 488.387 207.204 487.92C206.364 487.453 205.704 486.813 205.224 486C204.757 485.173 204.524 484.24 204.524 483.2C204.524 482.16 204.757 481.233 205.224 480.42C205.704 479.593 206.364 478.953 207.204 478.5C208.044 478.033 208.991 477.8 210.044 477.8C211.097 477.8 212.037 478.033 212.864 478.5C213.704 478.953 214.357 479.593 214.824 480.42C215.304 481.233 215.544 482.16 215.544 483.2C215.544 484.24 215.304 485.173 214.824 486C214.357 486.813 213.704 487.453 212.864 487.92C212.037 488.387 211.097 488.62 210.044 488.62ZM210.044 486.94C210.724 486.94 211.331 486.787 211.864 486.48C212.411 486.16 212.837 485.72 213.144 485.16C213.451 484.587 213.604 483.933 213.604 483.2C213.604 482.467 213.451 481.82 213.144 481.26C212.837 480.687 212.411 480.247 211.864 479.94C211.331 479.633 210.724 479.48 210.044 479.48C209.364 479.48 208.751 479.633 208.204 479.94C207.671 480.247 207.244 480.687 206.924 481.26C206.617 481.82 206.464 482.467 206.464 483.2C206.464 483.933 206.617 484.587 206.924 485.16C207.244 485.72 207.671 486.16 208.204 486.48C208.751 486.787 209.364 486.94 210.044 486.94ZM223.859 477.8C225.206 477.8 226.273 478.193 227.059 478.98C227.859 479.753 228.259 480.893 228.259 482.4V488.5H226.339V482.62C226.339 481.593 226.093 480.82 225.599 480.3C225.106 479.78 224.399 479.52 223.479 479.52C222.439 479.52 221.619 479.827 221.019 480.44C220.419 481.04 220.119 481.907 220.119 483.04V488.5H218.199V477.9H220.039V479.5C220.426 478.953 220.946 478.533 221.599 478.24C222.266 477.947 223.019 477.8 223.859 477.8Z" fill="#1A1A1A"/>
<path d="M64.7845 406C64.7845 413.347 70.7578 419.333 78.1178 419.333C85.4645 419.333 91.4511 413.347 91.4511 406C91.4511 398.64 85.4645 392.667 78.1178 392.667C70.7578 392.667 64.7845 398.64 64.7845 406V406Z" fill="#130F26"/>
<rect x="73.1526" y="404.743" width="6.91934" height="2.30645" rx="1.15322" transform="rotate(45 73.1526 404.743)" fill="white"/>
<rect x="85.3845" y="402.297" width="12.6855" height="2.30645" rx="1.15322" transform="rotate(135 85.3845 402.297)" fill="white"/>
<path d="M110.218 399.5H112.218V413.5H110.218V399.5ZM121.789 402.8C123.136 402.8 124.202 403.193 124.989 403.98C125.789 404.753 126.189 405.893 126.189 407.4V413.5H124.269V407.62C124.269 406.593 124.022 405.82 123.529 405.3C123.036 404.78 122.329 404.52 121.409 404.52C120.369 404.52 119.549 404.827 118.949 405.44C118.349 406.04 118.049 406.907 118.049 408.04V413.5H116.129V402.9H117.969V404.5C118.356 403.953 118.876 403.533 119.529 403.24C120.196 402.947 120.949 402.8 121.789 402.8ZM132.782 413.62C131.916 413.62 131.082 413.507 130.282 413.28C129.482 413.04 128.856 412.74 128.402 412.38L129.202 410.86C129.669 411.193 130.236 411.46 130.902 411.66C131.569 411.86 132.242 411.96 132.922 411.96C134.602 411.96 135.442 411.48 135.442 410.52C135.442 410.2 135.329 409.947 135.102 409.76C134.876 409.573 134.589 409.44 134.242 409.36C133.909 409.267 133.429 409.167 132.802 409.06C131.949 408.927 131.249 408.773 130.702 408.6C130.169 408.427 129.709 408.133 129.322 407.72C128.936 407.307 128.742 406.727 128.742 405.98C128.742 405.02 129.142 404.253 129.942 403.68C130.742 403.093 131.816 402.8 133.162 402.8C133.869 402.8 134.576 402.887 135.282 403.06C135.989 403.233 136.569 403.467 137.022 403.76L136.202 405.28C135.336 404.72 134.316 404.44 133.142 404.44C132.329 404.44 131.709 404.573 131.282 404.84C130.856 405.107 130.642 405.46 130.642 405.9C130.642 406.247 130.762 406.52 131.002 406.72C131.242 406.92 131.536 407.067 131.882 407.16C132.242 407.253 132.742 407.36 133.382 407.48C134.236 407.627 134.922 407.787 135.442 407.96C135.976 408.12 136.429 408.4 136.802 408.8C137.176 409.2 137.362 409.76 137.362 410.48C137.362 411.44 136.949 412.207 136.122 412.78C135.309 413.34 134.196 413.62 132.782 413.62ZM145.722 412.88C145.442 413.12 145.095 413.307 144.682 413.44C144.269 413.56 143.842 413.62 143.402 413.62C142.335 413.62 141.509 413.333 140.922 412.76C140.335 412.187 140.042 411.367 140.042 410.3V404.48H138.242V402.9H140.042V400.58H141.962V402.9H145.002V404.48H141.962V410.22C141.962 410.793 142.102 411.233 142.382 411.54C142.675 411.847 143.089 412 143.622 412C144.209 412 144.709 411.833 145.122 411.5L145.722 412.88ZM151.903 402.8C153.37 402.8 154.49 403.16 155.263 403.88C156.05 404.6 156.443 405.673 156.443 407.1V413.5H154.623V412.1C154.303 412.593 153.843 412.973 153.243 413.24C152.656 413.493 151.956 413.62 151.143 413.62C149.956 413.62 149.003 413.333 148.283 412.76C147.576 412.187 147.223 411.433 147.223 410.5C147.223 409.567 147.563 408.82 148.243 408.26C148.923 407.687 150.003 407.4 151.483 407.4H154.523V407.02C154.523 406.193 154.283 405.56 153.803 405.12C153.323 404.68 152.616 404.46 151.683 404.46C151.056 404.46 150.443 404.567 149.843 404.78C149.243 404.98 148.736 405.253 148.323 405.6L147.523 404.16C148.07 403.72 148.723 403.387 149.483 403.16C150.243 402.92 151.05 402.8 151.903 402.8ZM151.463 412.14C152.196 412.14 152.83 411.98 153.363 411.66C153.896 411.327 154.283 410.86 154.523 410.26V408.78H151.563C149.936 408.78 149.123 409.327 149.123 410.42C149.123 410.953 149.33 411.373 149.743 411.68C150.156 411.987 150.73 412.14 151.463 412.14ZM170.195 402.9V412.06C170.195 413.913 169.735 415.28 168.815 416.16C167.895 417.053 166.522 417.5 164.695 417.5C163.695 417.5 162.742 417.36 161.835 417.08C160.928 416.813 160.195 416.427 159.635 415.92L160.555 414.44C161.048 414.867 161.655 415.2 162.375 415.44C163.108 415.693 163.862 415.82 164.635 415.82C165.875 415.82 166.788 415.527 167.375 414.94C167.975 414.353 168.275 413.46 168.275 412.26V411.42C167.822 411.967 167.262 412.38 166.595 412.66C165.942 412.927 165.228 413.06 164.455 413.06C163.442 413.06 162.522 412.847 161.695 412.42C160.882 411.98 160.242 411.373 159.775 410.6C159.308 409.813 159.075 408.92 159.075 407.92C159.075 406.92 159.308 406.033 159.775 405.26C160.242 404.473 160.882 403.867 161.695 403.44C162.522 403.013 163.442 402.8 164.455 402.8C165.255 402.8 165.995 402.947 166.675 403.24C167.368 403.533 167.935 403.967 168.375 404.54V402.9H170.195ZM164.675 411.38C165.368 411.38 165.988 411.233 166.535 410.94C167.095 410.647 167.528 410.24 167.835 409.72C168.155 409.187 168.315 408.587 168.315 407.92C168.315 406.893 167.975 406.067 167.295 405.44C166.615 404.8 165.742 404.48 164.675 404.48C163.595 404.48 162.715 404.8 162.035 405.44C161.355 406.067 161.015 406.893 161.015 407.92C161.015 408.587 161.168 409.187 161.475 409.72C161.795 410.24 162.228 410.647 162.775 410.94C163.335 411.233 163.968 411.38 164.675 411.38ZM175.703 404.68C176.037 404.067 176.53 403.6 177.183 403.28C177.837 402.96 178.63 402.8 179.563 402.8V404.66C179.457 404.647 179.31 404.64 179.123 404.64C178.083 404.64 177.263 404.953 176.663 405.58C176.077 406.193 175.783 407.073 175.783 408.22V413.5H173.863V402.9H175.703V404.68ZM185.77 402.8C187.237 402.8 188.357 403.16 189.13 403.88C189.917 404.6 190.31 405.673 190.31 407.1V413.5H188.49V412.1C188.17 412.593 187.71 412.973 187.11 413.24C186.524 413.493 185.824 413.62 185.01 413.62C183.824 413.62 182.87 413.333 182.15 412.76C181.444 412.187 181.09 411.433 181.09 410.5C181.09 409.567 181.43 408.82 182.11 408.26C182.79 407.687 183.87 407.4 185.35 407.4H188.39V407.02C188.39 406.193 188.15 405.56 187.67 405.12C187.19 404.68 186.484 404.46 185.55 404.46C184.924 404.46 184.31 404.567 183.71 404.78C183.11 404.98 182.604 405.253 182.19 405.6L181.39 404.16C181.937 403.72 182.59 403.387 183.35 403.16C184.11 402.92 184.917 402.8 185.77 402.8ZM185.33 412.14C186.064 412.14 186.697 411.98 187.23 411.66C187.764 411.327 188.15 410.86 188.39 410.26V408.78H185.43C183.804 408.78 182.99 409.327 182.99 410.42C182.99 410.953 183.197 411.373 183.61 411.68C184.024 411.987 184.597 412.14 185.33 412.14ZM207.123 402.8C208.457 402.8 209.51 403.187 210.283 403.96C211.07 404.733 211.463 405.88 211.463 407.4V413.5H209.543V407.62C209.543 406.593 209.303 405.82 208.823 405.3C208.357 404.78 207.683 404.52 206.803 404.52C205.83 404.52 205.057 404.827 204.483 405.44C203.91 406.04 203.623 406.907 203.623 408.04V413.5H201.703V407.62C201.703 406.593 201.463 405.82 200.983 405.3C200.517 404.78 199.843 404.52 198.963 404.52C197.99 404.52 197.217 404.827 196.643 405.44C196.07 406.04 195.783 406.907 195.783 408.04V413.5H193.863V402.9H195.703V404.48C196.09 403.933 196.597 403.52 197.223 403.24C197.85 402.947 198.563 402.8 199.363 402.8C200.19 402.8 200.923 402.967 201.563 403.3C202.203 403.633 202.697 404.12 203.043 404.76C203.443 404.147 203.997 403.667 204.703 403.32C205.423 402.973 206.23 402.8 207.123 402.8ZM222.827 417.38C222.067 416.153 221.481 414.747 221.067 413.16C220.654 411.56 220.447 409.847 220.447 408.02C220.447 406.193 220.654 404.48 221.067 402.88C221.481 401.267 222.067 399.86 222.827 398.66H224.647C223.847 400.06 223.261 401.527 222.887 403.06C222.514 404.593 222.327 406.247 222.327 408.02C222.327 409.793 222.514 411.447 222.887 412.98C223.261 414.513 223.847 415.98 224.647 417.38H222.827ZM236.046 407.72H232.566V411.12H229.986V407.72H226.526V405.28H229.986V401.88H232.566V405.28H236.046V407.72ZM247.309 413.5L243.929 408.64L240.609 413.5H236.889L242.069 406.38L237.149 399.5H240.829L244.049 404.04L247.209 399.5H250.709L245.829 406.26L251.049 413.5H247.309ZM262.837 413.62C261.784 413.62 260.837 413.387 259.997 412.92C259.157 412.453 258.497 411.813 258.017 411C257.55 410.173 257.317 409.24 257.317 408.2C257.317 407.16 257.55 406.233 258.017 405.42C258.497 404.593 259.157 403.953 259.997 403.5C260.837 403.033 261.784 402.8 262.837 402.8C263.89 402.8 264.83 403.033 265.657 403.5C266.497 403.953 267.15 404.593 267.617 405.42C268.097 406.233 268.337 407.16 268.337 408.2C268.337 409.24 268.097 410.173 267.617 411C267.15 411.813 266.497 412.453 265.657 412.92C264.83 413.387 263.89 413.62 262.837 413.62ZM262.837 411.94C263.517 411.94 264.124 411.787 264.657 411.48C265.204 411.16 265.63 410.72 265.937 410.16C266.244 409.587 266.397 408.933 266.397 408.2C266.397 407.467 266.244 406.82 265.937 406.26C265.63 405.687 265.204 405.247 264.657 404.94C264.124 404.633 263.517 404.48 262.837 404.48C262.157 404.48 261.544 404.633 260.997 404.94C260.464 405.247 260.037 405.687 259.717 406.26C259.41 406.82 259.257 407.467 259.257 408.2C259.257 408.933 259.41 409.587 259.717 410.16C260.037 410.72 260.464 411.16 260.997 411.48C261.544 411.787 262.157 411.94 262.837 411.94ZM276.952 412.88C276.672 413.12 276.326 413.307 275.912 413.44C275.499 413.56 275.072 413.62 274.632 413.62C273.566 413.62 272.739 413.333 272.152 412.76C271.566 412.187 271.272 411.367 271.272 410.3V404.48H269.472V402.9H271.272V400.58H273.192V402.9H276.232V404.48H273.192V410.22C273.192 410.793 273.332 411.233 273.612 411.54C273.906 411.847 274.319 412 274.852 412C275.439 412 275.939 411.833 276.352 411.5L276.952 412.88ZM284.934 402.8C286.28 402.8 287.347 403.193 288.134 403.98C288.934 404.753 289.334 405.893 289.334 407.4V413.5H287.414V407.62C287.414 406.593 287.167 405.82 286.674 405.3C286.18 404.78 285.474 404.52 284.554 404.52C283.514 404.52 282.694 404.827 282.094 405.44C281.494 406.04 281.194 406.907 281.194 408.04V413.5H279.274V398.66H281.194V404.4C281.594 403.893 282.114 403.5 282.754 403.22C283.407 402.94 284.134 402.8 284.934 402.8ZM302.525 408.26C302.525 408.407 302.512 408.6 302.485 408.84H293.885C294.005 409.773 294.412 410.527 295.105 411.1C295.812 411.66 296.685 411.94 297.725 411.94C298.992 411.94 300.012 411.513 300.785 410.66L301.845 411.9C301.365 412.46 300.765 412.887 300.045 413.18C299.339 413.473 298.545 413.62 297.665 413.62C296.545 413.62 295.552 413.393 294.685 412.94C293.819 412.473 293.145 411.827 292.665 411C292.199 410.173 291.965 409.24 291.965 408.2C291.965 407.173 292.192 406.247 292.645 405.42C293.112 404.593 293.745 403.953 294.545 403.5C295.359 403.033 296.272 402.8 297.285 402.8C298.299 402.8 299.199 403.033 299.985 403.5C300.785 403.953 301.405 404.593 301.845 405.42C302.299 406.247 302.525 407.193 302.525 408.26ZM297.285 404.42C296.365 404.42 295.592 404.7 294.965 405.26C294.352 405.82 293.992 406.553 293.885 407.46H300.685C300.579 406.567 300.212 405.84 299.585 405.28C298.972 404.707 298.205 404.42 297.285 404.42ZM307.032 404.68C307.365 404.067 307.858 403.6 308.512 403.28C309.165 402.96 309.958 402.8 310.892 402.8V404.66C310.785 404.647 310.638 404.64 310.452 404.64C309.412 404.64 308.592 404.953 307.992 405.58C307.405 406.193 307.112 407.073 307.112 408.22V413.5H305.192V402.9H307.032V404.68ZM324.386 402.8C325.412 402.8 326.332 403.027 327.146 403.48C327.959 403.933 328.592 404.567 329.046 405.38C329.512 406.193 329.746 407.133 329.746 408.2C329.746 409.267 329.512 410.213 329.046 411.04C328.592 411.853 327.959 412.487 327.146 412.94C326.332 413.393 325.412 413.62 324.386 413.62C323.626 413.62 322.926 413.473 322.286 413.18C321.659 412.887 321.126 412.46 320.686 411.9V417.38H318.766V402.9H320.606V404.58C321.032 403.993 321.572 403.553 322.226 403.26C322.879 402.953 323.599 402.8 324.386 402.8ZM324.226 411.94C324.906 411.94 325.512 411.787 326.046 411.48C326.592 411.16 327.019 410.72 327.326 410.16C327.646 409.587 327.806 408.933 327.806 408.2C327.806 407.467 327.646 406.82 327.326 406.26C327.019 405.687 326.592 405.247 326.046 404.94C325.512 404.633 324.906 404.48 324.226 404.48C323.559 404.48 322.952 404.64 322.406 404.96C321.872 405.267 321.446 405.7 321.126 406.26C320.819 406.82 320.666 407.467 320.666 408.2C320.666 408.933 320.819 409.587 321.126 410.16C321.432 410.72 321.859 411.16 322.406 411.48C322.952 411.787 323.559 411.94 324.226 411.94ZM332.399 398.66H334.319V413.5H332.399V398.66ZM341.845 402.8C343.311 402.8 344.431 403.16 345.205 403.88C345.991 404.6 346.385 405.673 346.385 407.1V413.5H344.565V412.1C344.245 412.593 343.785 412.973 343.185 413.24C342.598 413.493 341.898 413.62 341.085 413.62C339.898 413.62 338.945 413.333 338.225 412.76C337.518 412.187 337.165 411.433 337.165 410.5C337.165 409.567 337.505 408.82 338.185 408.26C338.865 407.687 339.945 407.4 341.425 407.4H344.465V407.02C344.465 406.193 344.225 405.56 343.745 405.12C343.265 404.68 342.558 404.46 341.625 404.46C340.998 404.46 340.385 404.567 339.785 404.78C339.185 404.98 338.678 405.253 338.265 405.6L337.465 404.16C338.011 403.72 338.665 403.387 339.425 403.16C340.185 402.92 340.991 402.8 341.845 402.8ZM341.405 412.14C342.138 412.14 342.771 411.98 343.305 411.66C343.838 411.327 344.225 410.86 344.465 410.26V408.78H341.505C339.878 408.78 339.065 409.327 339.065 410.42C339.065 410.953 339.271 411.373 339.685 411.68C340.098 411.987 340.671 412.14 341.405 412.14ZM355.898 412.88C355.618 413.12 355.271 413.307 354.858 413.44C354.444 413.56 354.018 413.62 353.578 413.62C352.511 413.62 351.684 413.333 351.098 412.76C350.511 412.187 350.218 411.367 350.218 410.3V404.48H348.418V402.9H350.218V400.58H352.138V402.9H355.178V404.48H352.138V410.22C352.138 410.793 352.278 411.233 352.558 411.54C352.851 411.847 353.264 412 353.798 412C354.384 412 354.884 411.833 355.298 411.5L355.898 412.88ZM362.099 400.12C360.952 400.12 360.379 400.74 360.379 401.98V402.9H363.459V404.48H360.419V413.5H358.499V404.48H356.699V402.9H358.499V401.96C358.499 400.907 358.806 400.073 359.419 399.46C360.032 398.847 360.892 398.54 361.999 398.54C362.426 398.54 362.826 398.593 363.199 398.7C363.572 398.807 363.892 398.96 364.159 399.16L363.579 400.62C363.139 400.287 362.646 400.12 362.099 400.12ZM369.653 413.62C368.6 413.62 367.653 413.387 366.813 412.92C365.973 412.453 365.313 411.813 364.833 411C364.367 410.173 364.133 409.24 364.133 408.2C364.133 407.16 364.367 406.233 364.833 405.42C365.313 404.593 365.973 403.953 366.813 403.5C367.653 403.033 368.6 402.8 369.653 402.8C370.707 402.8 371.647 403.033 372.473 403.5C373.313 403.953 373.967 404.593 374.433 405.42C374.913 406.233 375.153 407.16 375.153 408.2C375.153 409.24 374.913 410.173 374.433 411C373.967 411.813 373.313 412.453 372.473 412.92C371.647 413.387 370.707 413.62 369.653 413.62ZM369.653 411.94C370.333 411.94 370.94 411.787 371.473 411.48C372.02 411.16 372.447 410.72 372.753 410.16C373.06 409.587 373.213 408.933 373.213 408.2C373.213 407.467 373.06 406.82 372.753 406.26C372.447 405.687 372.02 405.247 371.473 404.94C370.94 404.633 370.333 404.48 369.653 404.48C368.973 404.48 368.36 404.633 367.813 404.94C367.28 405.247 366.853 405.687 366.533 406.26C366.227 406.82 366.073 407.467 366.073 408.2C366.073 408.933 366.227 409.587 366.533 410.16C366.853 410.72 367.28 411.16 367.813 411.48C368.36 411.787 368.973 411.94 369.653 411.94ZM379.649 404.68C379.982 404.067 380.475 403.6 381.129 403.28C381.782 402.96 382.575 402.8 383.509 402.8V404.66C383.402 404.647 383.255 404.64 383.069 404.64C382.029 404.64 381.209 404.953 380.609 405.58C380.022 406.193 379.729 407.073 379.729 408.22V413.5H377.809V402.9H379.649V404.68ZM399.135 402.8C400.469 402.8 401.522 403.187 402.295 403.96C403.082 404.733 403.475 405.88 403.475 407.4V413.5H401.555V407.62C401.555 406.593 401.315 405.82 400.835 405.3C400.369 404.78 399.695 404.52 398.815 404.52C397.842 404.52 397.069 404.827 396.495 405.44C395.922 406.04 395.635 406.907 395.635 408.04V413.5H393.715V407.62C393.715 406.593 393.475 405.82 392.995 405.3C392.529 404.78 391.855 404.52 390.975 404.52C390.002 404.52 389.229 404.827 388.655 405.44C388.082 406.04 387.795 406.907 387.795 408.04V413.5H385.875V402.9H387.715V404.48C388.102 403.933 388.609 403.52 389.235 403.24C389.862 402.947 390.575 402.8 391.375 402.8C392.202 402.8 392.935 402.967 393.575 403.3C394.215 403.633 394.709 404.12 395.055 404.76C395.455 404.147 396.009 403.667 396.715 403.32C397.435 402.973 398.242 402.8 399.135 402.8ZM410.048 413.62C409.181 413.62 408.348 413.507 407.548 413.28C406.748 413.04 406.121 412.74 405.668 412.38L406.468 410.86C406.935 411.193 407.501 411.46 408.168 411.66C408.835 411.86 409.508 411.96 410.188 411.96C411.868 411.96 412.708 411.48 412.708 410.52C412.708 410.2 412.595 409.947 412.368 409.76C412.141 409.573 411.855 409.44 411.508 409.36C411.175 409.267 410.695 409.167 410.068 409.06C409.215 408.927 408.515 408.773 407.968 408.6C407.435 408.427 406.975 408.133 406.588 407.72C406.201 407.307 406.008 406.727 406.008 405.98C406.008 405.02 406.408 404.253 407.208 403.68C408.008 403.093 409.081 402.8 410.428 402.8C411.135 402.8 411.841 402.887 412.548 403.06C413.255 403.233 413.835 403.467 414.288 403.76L413.468 405.28C412.601 404.72 411.581 404.44 410.408 404.44C409.595 404.44 408.975 404.573 408.548 404.84C408.121 405.107 407.908 405.46 407.908 405.9C407.908 406.247 408.028 406.52 408.268 406.72C408.508 406.92 408.801 407.067 409.148 407.16C409.508 407.253 410.008 407.36 410.648 407.48C411.501 407.627 412.188 407.787 412.708 407.96C413.241 408.12 413.695 408.4 414.068 408.8C414.441 409.2 414.628 409.76 414.628 410.48C414.628 411.44 414.215 412.207 413.388 412.78C412.575 413.34 411.461 413.62 410.048 413.62ZM415.848 417.38C416.648 415.98 417.234 414.513 417.608 412.98C417.994 411.447 418.188 409.793 418.188 408.02C418.188 406.247 417.994 404.593 417.608 403.06C417.234 401.527 416.648 400.06 415.848 398.66H417.668C418.441 399.86 419.034 401.26 419.448 402.86C419.861 404.46 420.068 406.18 420.068 408.02C420.068 409.847 419.861 411.56 419.448 413.16C419.034 414.76 418.441 416.167 417.668 417.38H415.848Z" fill="#1A1A1A"/>
<path d="M73.8217 84.224C71.8617 84.224 70.0883 83.7947 68.5017 82.936C66.9337 82.0587 65.7017 80.864 64.8057 79.352C63.9097 77.8213 63.4617 76.104 63.4617 74.2C63.4617 72.296 63.9097 70.588 64.8057 69.076C65.7017 67.5453 66.943 66.3507 68.5297 65.492C70.1163 64.6147 71.8897 64.176 73.8497 64.176C75.3803 64.176 76.7803 64.4373 78.0497 64.96C79.319 65.464 80.4017 66.22 81.2977 67.228L79.4777 68.992C78.003 67.4427 76.1643 66.668 73.9617 66.668C72.5057 66.668 71.1897 66.9947 70.0137 67.648C68.8377 68.3013 67.9137 69.2067 67.2417 70.364C66.5883 71.5027 66.2617 72.7813 66.2617 74.2C66.2617 75.6187 66.5883 76.9067 67.2417 78.064C67.9137 79.2027 68.8377 80.0987 70.0137 80.752C71.1897 81.4053 72.5057 81.732 73.9617 81.732C76.1457 81.732 77.9843 80.948 79.4777 79.38L81.2977 81.144C80.4017 82.152 79.3097 82.9173 78.0217 83.44C76.7523 83.9627 75.3523 84.224 73.8217 84.224ZM98.2672 69.16V84H95.7192V81.76C95.1779 82.5253 94.4592 83.1227 93.5632 83.552C92.6859 83.9627 91.7245 84.168 90.6792 84.168C88.7005 84.168 87.1419 83.6267 86.0032 82.544C84.8645 81.4427 84.2952 79.828 84.2952 77.7V69.16H86.9832V77.392C86.9832 78.8293 87.3285 79.9213 88.0192 80.668C88.7099 81.396 89.6992 81.76 90.9872 81.76C92.4059 81.76 93.5259 81.3307 94.3472 80.472C95.1685 79.6133 95.5792 78.4 95.5792 76.832V69.16H98.2672ZM107.64 84.168C106.427 84.168 105.26 84.0093 104.14 83.692C103.02 83.356 102.143 82.936 101.508 82.432L102.628 80.304C103.282 80.7707 104.075 81.144 105.008 81.424C105.942 81.704 106.884 81.844 107.836 81.844C110.188 81.844 111.364 81.172 111.364 79.828C111.364 79.38 111.206 79.0253 110.888 78.764C110.571 78.5027 110.17 78.316 109.684 78.204C109.218 78.0733 108.546 77.9333 107.668 77.784C106.474 77.5973 105.494 77.3827 104.728 77.14C103.982 76.8973 103.338 76.4867 102.796 75.908C102.255 75.3293 101.984 74.5173 101.984 73.472C101.984 72.128 102.544 71.0547 103.664 70.252C104.784 69.4307 106.287 69.02 108.172 69.02C109.162 69.02 110.151 69.1413 111.14 69.384C112.13 69.6267 112.942 69.9533 113.576 70.364L112.428 72.492C111.215 71.708 109.787 71.316 108.144 71.316C107.006 71.316 106.138 71.5027 105.54 71.876C104.943 72.2493 104.644 72.744 104.644 73.36C104.644 73.8453 104.812 74.228 105.148 74.508C105.484 74.788 105.895 74.9933 106.38 75.124C106.884 75.2547 107.584 75.404 108.48 75.572C109.675 75.7773 110.636 76.0013 111.364 76.244C112.111 76.468 112.746 76.86 113.268 77.42C113.791 77.98 114.052 78.764 114.052 79.772C114.052 81.116 113.474 82.1893 112.316 82.992C111.178 83.776 109.619 84.168 107.64 84.168ZM125.756 83.132C125.364 83.468 124.878 83.7293 124.3 83.916C123.721 84.084 123.124 84.168 122.508 84.168C121.014 84.168 119.857 83.7667 119.036 82.964C118.214 82.1613 117.804 81.0133 117.804 79.52V71.372H115.284V69.16H117.804V65.912H120.492V69.16H124.748V71.372H120.492V79.408C120.492 80.2107 120.688 80.8267 121.08 81.256C121.49 81.6853 122.069 81.9 122.816 81.9C123.637 81.9 124.337 81.6667 124.916 81.2L125.756 83.132ZM134.869 84.168C133.395 84.168 132.069 83.8413 130.893 83.188C129.717 82.5347 128.793 81.6387 128.121 80.5C127.468 79.3427 127.141 78.036 127.141 76.58C127.141 75.124 127.468 73.8267 128.121 72.688C128.793 71.5307 129.717 70.6347 130.893 70C132.069 69.3467 133.395 69.02 134.869 69.02C136.344 69.02 137.66 69.3467 138.817 70C139.993 70.6347 140.908 71.5307 141.561 72.688C142.233 73.8267 142.569 75.124 142.569 76.58C142.569 78.036 142.233 79.3427 141.561 80.5C140.908 81.6387 139.993 82.5347 138.817 83.188C137.66 83.8413 136.344 84.168 134.869 84.168ZM134.869 81.816C135.821 81.816 136.671 81.6013 137.417 81.172C138.183 80.724 138.78 80.108 139.209 79.324C139.639 78.5213 139.853 77.6067 139.853 76.58C139.853 75.5533 139.639 74.648 139.209 73.864C138.78 73.0613 138.183 72.4453 137.417 72.016C136.671 71.5867 135.821 71.372 134.869 71.372C133.917 71.372 133.059 71.5867 132.293 72.016C131.547 72.4453 130.949 73.0613 130.501 73.864C130.072 74.648 129.857 75.5533 129.857 76.58C129.857 77.6067 130.072 78.5213 130.501 79.324C130.949 80.108 131.547 80.724 132.293 81.172C133.059 81.6013 133.917 81.816 134.869 81.816ZM164.851 69.02C166.717 69.02 168.192 69.5613 169.275 70.644C170.376 71.7267 170.927 73.332 170.927 75.46V84H168.239V75.768C168.239 74.3307 167.903 73.248 167.231 72.52C166.577 71.792 165.635 71.428 164.403 71.428C163.04 71.428 161.957 71.8573 161.155 72.716C160.352 73.556 159.951 74.7693 159.951 76.356V84H157.263V75.768C157.263 74.3307 156.927 73.248 156.255 72.52C155.601 71.792 154.659 71.428 153.427 71.428C152.064 71.428 150.981 71.8573 150.179 72.716C149.376 73.556 148.975 74.7693 148.975 76.356V84H146.287V69.16H148.863V71.372C149.404 70.6067 150.113 70.028 150.991 69.636C151.868 69.2253 152.867 69.02 153.987 69.02C155.144 69.02 156.171 69.2533 157.067 69.72C157.963 70.1867 158.653 70.868 159.139 71.764C159.699 70.9053 160.473 70.2333 161.463 69.748C162.471 69.2627 163.6 69.02 164.851 69.02Z" fill="#1A1A1A"/>
<path d="M106.038 183.24C106.038 187.176 104.598 190.56 101.718 193.392C98.8377 196.176 94.6857 197.904 89.2617 198.576V206.64H82.0617V198.792C78.5097 198.6 75.1257 197.976 71.9097 196.92C68.6937 195.864 66.1017 194.568 64.1337 193.032L68.0937 184.248C69.9177 185.592 72.0537 186.72 74.5017 187.632C76.9497 188.544 79.4697 189.12 82.0617 189.36V177.336C78.6537 176.52 75.7737 175.608 73.4217 174.6C71.0697 173.592 69.1017 172.128 67.5177 170.208C65.9337 168.24 65.1417 165.648 65.1417 162.432C65.1417 158.448 66.5817 155.04 69.4617 152.208C72.3897 149.328 76.5897 147.576 82.0617 146.952V138.96H89.2617V146.808C95.1657 147.288 100.038 148.752 103.878 151.2L100.278 160.056C96.6777 157.992 93.0057 156.744 89.2617 156.312V168.552C92.6217 169.32 95.4537 170.208 97.7577 171.216C100.11 172.176 102.078 173.64 103.662 175.608C105.246 177.528 106.038 180.072 106.038 183.24ZM76.7337 161.856C76.7337 163.056 77.1897 164.04 78.1017 164.808C79.0137 165.576 80.3337 166.224 82.0617 166.752V156.528C80.2377 156.96 78.8937 157.656 78.0297 158.616C77.1657 159.528 76.7337 160.608 76.7337 161.856ZM89.2617 189.072C90.9897 188.688 92.2857 188.064 93.1497 187.2C94.0137 186.336 94.4457 185.304 94.4457 184.104C94.4457 182.904 93.9897 181.92 93.0777 181.152C92.2137 180.384 90.9417 179.712 89.2617 179.136V189.072ZM157.695 187.416H149.487V198H138.111V187.416H110.967V179.568L134.727 147.6H146.967L124.935 177.912H138.471V168.48H149.487V177.912H157.695V187.416ZM178.614 146.736C185.67 146.736 191.19 148.896 195.174 153.216C199.158 157.488 201.15 163.656 201.15 171.72C201.15 177.432 200.07 182.328 197.91 186.408C195.798 190.488 192.798 193.584 188.91 195.696C185.022 197.808 180.534 198.864 175.446 198.864C172.758 198.864 170.19 198.576 167.742 198C165.294 197.376 163.206 196.512 161.478 195.408L165.798 186.84C168.246 188.52 171.39 189.36 175.23 189.36C179.502 189.36 182.886 188.112 185.382 185.616C187.878 183.072 189.222 179.424 189.414 174.672C186.39 177.696 182.214 179.208 176.886 179.208C173.67 179.208 170.742 178.56 168.102 177.264C165.462 175.968 163.374 174.144 161.838 171.792C160.302 169.392 159.534 166.632 159.534 163.512C159.534 160.152 160.374 157.2 162.054 154.656C163.734 152.112 166.014 150.168 168.894 148.824C171.822 147.432 175.062 146.736 178.614 146.736ZM179.478 170.496C182.022 170.496 184.086 169.8 185.67 168.408C187.302 166.968 188.118 165.144 188.118 162.936C188.118 160.728 187.326 158.928 185.742 157.536C184.206 156.144 182.07 155.448 179.334 155.448C176.838 155.448 174.798 156.12 173.214 157.464C171.678 158.808 170.91 160.632 170.91 162.936C170.91 165.24 171.678 167.088 173.214 168.48C174.798 169.824 176.886 170.496 179.478 170.496ZM224.458 146.736C231.514 146.736 237.034 148.896 241.018 153.216C245.002 157.488 246.994 163.656 246.994 171.72C246.994 177.432 245.914 182.328 243.754 186.408C241.642 190.488 238.642 193.584 234.754 195.696C230.866 197.808 226.378 198.864 221.29 198.864C218.602 198.864 216.034 198.576 213.586 198C211.138 197.376 209.05 196.512 207.322 195.408L211.642 186.84C214.09 188.52 217.234 189.36 221.074 189.36C225.346 189.36 228.73 188.112 231.226 185.616C233.722 183.072 235.066 179.424 235.258 174.672C232.234 177.696 228.058 179.208 222.73 179.208C219.514 179.208 216.586 178.56 213.946 177.264C211.306 175.968 209.218 174.144 207.682 171.792C206.146 169.392 205.378 166.632 205.378 163.512C205.378 160.152 206.218 157.2 207.898 154.656C209.578 152.112 211.858 150.168 214.738 148.824C217.666 147.432 220.906 146.736 224.458 146.736ZM225.322 170.496C227.866 170.496 229.93 169.8 231.514 168.408C233.146 166.968 233.962 165.144 233.962 162.936C233.962 160.728 233.17 158.928 231.586 157.536C230.05 156.144 227.914 155.448 225.178 155.448C222.682 155.448 220.642 156.12 219.058 157.464C217.522 158.808 216.754 160.632 216.754 162.936C216.754 165.24 217.522 167.088 219.058 168.48C220.642 169.824 222.73 170.496 225.322 170.496ZM255.722 181.16H258.502L251.902 200H249.122L255.722 181.16ZM272.014 198L271.994 189.6L267.874 196.52H266.414L262.314 189.78V198H259.274V184H261.954L267.194 192.7L272.354 184H275.014L275.054 198H272.014ZM283.275 198.16C282.142 198.16 281.122 197.927 280.215 197.46C279.322 196.98 278.622 196.32 278.115 195.48C277.609 194.64 277.355 193.687 277.355 192.62C277.355 191.553 277.609 190.6 278.115 189.76C278.622 188.92 279.322 188.267 280.215 187.8C281.122 187.32 282.142 187.08 283.275 187.08C284.409 187.08 285.422 187.32 286.315 187.8C287.209 188.267 287.909 188.92 288.415 189.76C288.922 190.6 289.175 191.553 289.175 192.62C289.175 193.687 288.922 194.64 288.415 195.48C287.909 196.32 287.209 196.98 286.315 197.46C285.422 197.927 284.409 198.16 283.275 198.16ZM283.275 195.6C284.075 195.6 284.729 195.333 285.235 194.8C285.755 194.253 286.015 193.527 286.015 192.62C286.015 191.713 285.755 190.993 285.235 190.46C284.729 189.913 284.075 189.64 283.275 189.64C282.475 189.64 281.815 189.913 281.295 190.46C280.775 190.993 280.515 191.713 280.515 192.62C280.515 193.527 280.775 194.253 281.295 194.8C281.815 195.333 282.475 195.6 283.275 195.6ZM297.801 187.08C299.134 187.08 300.207 187.48 301.021 188.28C301.847 189.08 302.261 190.267 302.261 191.84V198H299.141V192.32C299.141 191.467 298.954 190.833 298.581 190.42C298.207 189.993 297.667 189.78 296.961 189.78C296.174 189.78 295.547 190.027 295.081 190.52C294.614 191 294.381 191.72 294.381 192.68V198H291.261V187.24H294.241V188.5C294.654 188.047 295.167 187.7 295.781 187.46C296.394 187.207 297.067 187.08 297.801 187.08ZM312.029 197.48C311.722 197.707 311.342 197.88 310.889 198C310.449 198.107 309.982 198.16 309.489 198.16C308.209 198.16 307.216 197.833 306.509 197.18C305.816 196.527 305.469 195.567 305.469 194.3V189.88H303.809V187.48H305.469V184.86H308.589V187.48H311.269V189.88H308.589V194.26C308.589 194.713 308.702 195.067 308.929 195.32C309.169 195.56 309.502 195.68 309.929 195.68C310.422 195.68 310.842 195.547 311.189 195.28L312.029 197.48ZM320.32 187.08C321.654 187.08 322.727 187.48 323.54 188.28C324.367 189.08 324.78 190.267 324.78 191.84V198H321.66V192.32C321.66 191.467 321.474 190.833 321.1 190.42C320.727 189.993 320.187 189.78 319.48 189.78C318.694 189.78 318.067 190.027 317.6 190.52C317.134 191 316.9 191.72 316.9 192.68V198H313.78V183.16H316.9V188.36C317.314 187.947 317.814 187.633 318.4 187.42C318.987 187.193 319.627 187.08 320.32 187.08Z" fill="#1A1A1A"/>
<rect x="62.1177" y="566" width="515.765" height="80" rx="16" fill="#130F26"/>
<path d="M270.811 613.24C269.385 613.24 268.091 612.933 266.931 612.32C265.785 611.693 264.878 610.833 264.211 609.74C263.558 608.633 263.231 607.387 263.231 606C263.231 604.613 263.558 603.373 264.211 602.28C264.878 601.173 265.785 600.313 266.931 599.7C268.091 599.073 269.391 598.76 270.831 598.76C272.045 598.76 273.138 598.973 274.111 599.4C275.098 599.827 275.925 600.44 276.591 601.24L274.511 603.16C273.565 602.067 272.391 601.52 270.991 601.52C270.125 601.52 269.351 601.713 268.671 602.1C267.991 602.473 267.458 603 267.071 603.68C266.698 604.36 266.511 605.133 266.511 606C266.511 606.867 266.698 607.64 267.071 608.32C267.458 609 267.991 609.533 268.671 609.92C269.351 610.293 270.125 610.48 270.991 610.48C272.391 610.48 273.565 609.927 274.511 608.82L276.591 610.74C275.925 611.553 275.098 612.173 274.111 612.6C273.125 613.027 272.025 613.24 270.811 613.24ZM283.308 613.16C282.175 613.16 281.155 612.927 280.248 612.46C279.355 611.98 278.655 611.32 278.148 610.48C277.641 609.64 277.388 608.687 277.388 607.62C277.388 606.553 277.641 605.6 278.148 604.76C278.655 603.92 279.355 603.267 280.248 602.8C281.155 602.32 282.175 602.08 283.308 602.08C284.441 602.08 285.455 602.32 286.348 602.8C287.241 603.267 287.941 603.92 288.448 604.76C288.955 605.6 289.208 606.553 289.208 607.62C289.208 608.687 288.955 609.64 288.448 610.48C287.941 611.32 287.241 611.98 286.348 612.46C285.455 612.927 284.441 613.16 283.308 613.16ZM283.308 610.6C284.108 610.6 284.761 610.333 285.268 609.8C285.788 609.253 286.048 608.527 286.048 607.62C286.048 606.713 285.788 605.993 285.268 605.46C284.761 604.913 284.108 604.64 283.308 604.64C282.508 604.64 281.848 604.913 281.328 605.46C280.808 605.993 280.548 606.713 280.548 607.62C280.548 608.527 280.808 609.253 281.328 609.8C281.848 610.333 282.508 610.6 283.308 610.6ZM297.834 602.08C299.167 602.08 300.24 602.48 301.054 603.28C301.88 604.08 302.294 605.267 302.294 606.84V613H299.174V607.32C299.174 606.467 298.987 605.833 298.614 605.42C298.24 604.993 297.7 604.78 296.994 604.78C296.207 604.78 295.58 605.027 295.114 605.52C294.647 606 294.414 606.72 294.414 607.68V613H291.294V602.24H294.274V603.5C294.687 603.047 295.2 602.7 295.814 602.46C296.427 602.207 297.1 602.08 297.834 602.08ZM312.062 612.48C311.755 612.707 311.375 612.88 310.922 613C310.482 613.107 310.015 613.16 309.522 613.16C308.242 613.16 307.248 612.833 306.542 612.18C305.848 611.527 305.502 610.567 305.502 609.3V604.88H303.842V602.48H305.502V599.86H308.622V602.48H311.302V604.88H308.622V609.26C308.622 609.713 308.735 610.067 308.962 610.32C309.202 610.56 309.535 610.68 309.962 610.68C310.455 610.68 310.875 610.547 311.222 610.28L312.062 612.48ZM318.153 602.08C319.82 602.08 321.1 602.48 321.993 603.28C322.886 604.067 323.333 605.26 323.333 606.86V613H320.413V611.66C319.826 612.66 318.733 613.16 317.133 613.16C316.306 613.16 315.586 613.02 314.973 612.74C314.373 612.46 313.913 612.073 313.593 611.58C313.273 611.087 313.113 610.527 313.113 609.9C313.113 608.9 313.486 608.113 314.233 607.54C314.993 606.967 316.16 606.68 317.733 606.68H320.213C320.213 606 320.006 605.48 319.593 605.12C319.18 604.747 318.56 604.56 317.733 604.56C317.16 604.56 316.593 604.653 316.033 604.84C315.486 605.013 315.02 605.253 314.633 605.56L313.513 603.38C314.1 602.967 314.8 602.647 315.613 602.42C316.44 602.193 317.286 602.08 318.153 602.08ZM317.913 611.06C318.446 611.06 318.92 610.94 319.333 610.7C319.746 610.447 320.04 610.08 320.213 609.6V608.5H318.073C316.793 608.5 316.153 608.92 316.153 609.76C316.153 610.16 316.306 610.48 316.613 610.72C316.933 610.947 317.366 611.06 317.913 611.06ZM331.474 613.16C330.327 613.16 329.294 612.927 328.374 612.46C327.467 611.98 326.754 611.32 326.234 610.48C325.727 609.64 325.474 608.687 325.474 607.62C325.474 606.553 325.727 605.6 326.234 604.76C326.754 603.92 327.467 603.267 328.374 602.8C329.294 602.32 330.327 602.08 331.474 602.08C332.607 602.08 333.594 602.32 334.434 602.8C335.287 603.267 335.907 603.94 336.294 604.82L333.874 606.12C333.314 605.133 332.507 604.64 331.454 604.64C330.641 604.64 329.967 604.907 329.434 605.44C328.901 605.973 328.634 606.7 328.634 607.62C328.634 608.54 328.901 609.267 329.434 609.8C329.967 610.333 330.641 610.6 331.454 610.6C332.521 610.6 333.327 610.107 333.874 609.12L336.294 610.44C335.907 611.293 335.287 611.96 334.434 612.44C333.594 612.92 332.607 613.16 331.474 613.16ZM345.187 612.48C344.88 612.707 344.5 612.88 344.047 613C343.607 613.107 343.14 613.16 342.647 613.16C341.367 613.16 340.373 612.833 339.667 612.18C338.973 611.527 338.627 610.567 338.627 609.3V604.88H336.967V602.48H338.627V599.86H341.747V602.48H344.427V604.88H341.747V609.26C341.747 609.713 341.86 610.067 342.087 610.32C342.327 610.56 342.66 610.68 343.087 610.68C343.58 610.68 344 610.547 344.347 610.28L345.187 612.48ZM359.042 613.24C357.042 613.24 355.482 612.687 354.362 611.58C353.255 610.473 352.702 608.893 352.702 606.84V599H355.942V606.72C355.942 609.227 356.982 610.48 359.062 610.48C360.075 610.48 360.849 610.18 361.382 609.58C361.915 608.967 362.182 608.013 362.182 606.72V599H365.382V606.84C365.382 608.893 364.822 610.473 363.702 611.58C362.595 612.687 361.042 613.24 359.042 613.24ZM371.984 613.16C371.091 613.16 370.217 613.053 369.364 612.84C368.511 612.613 367.831 612.333 367.324 612L368.364 609.76C368.844 610.067 369.424 610.32 370.104 610.52C370.784 610.707 371.451 610.8 372.104 610.8C373.424 610.8 374.084 610.473 374.084 609.82C374.084 609.513 373.904 609.293 373.544 609.16C373.184 609.027 372.631 608.913 371.884 608.82C371.004 608.687 370.277 608.533 369.704 608.36C369.131 608.187 368.631 607.88 368.204 607.44C367.791 607 367.584 606.373 367.584 605.56C367.584 604.88 367.777 604.28 368.164 603.76C368.564 603.227 369.137 602.813 369.884 602.52C370.644 602.227 371.537 602.08 372.564 602.08C373.324 602.08 374.077 602.167 374.824 602.34C375.584 602.5 376.211 602.727 376.704 603.02L375.664 605.24C374.717 604.707 373.684 604.44 372.564 604.44C371.897 604.44 371.397 604.533 371.064 604.72C370.731 604.907 370.564 605.147 370.564 605.44C370.564 605.773 370.744 606.007 371.104 606.14C371.464 606.273 372.037 606.4 372.824 606.52C373.704 606.667 374.424 606.827 374.984 607C375.544 607.16 376.031 607.46 376.444 607.9C376.857 608.34 377.064 608.953 377.064 609.74C377.064 610.407 376.864 611 376.464 611.52C376.064 612.04 375.477 612.447 374.704 612.74C373.944 613.02 373.037 613.16 371.984 613.16Z" fill="white"/>
<defs>
<linearGradient id="paint0_linear_225_786" x1="11" y1="12" x2="624" y2="708" gradientUnits="userSpaceOnUse">
<stop stop-color="#FF8000"/>
<stop offset="0.2" stop-color="#FF4880"/>
<stop offset="0.369792" stop-color="#FF004F"/>
<stop offset="0.578125" stop-color="#7F30FF"/>
<stop offset="0.8" stop-color="#466FFF"/>
<stop offset="1" stop-color="#75D4FF"/>
</linearGradient>
</defs>
</svg>
