<svg width="640" height="708" viewBox="0 0 640 708" fill="none" xmlns="http://www.w3.org/2000/svg">
<rect x="1.5" y="1.5" width="637" height="705" rx="30.5" fill="white" stroke="url(#paint0_linear_225_788)" stroke-width="3" stroke-miterlimit="2.61313"/>
<path d="M64.7845 302C64.7845 309.347 70.7578 315.333 78.1178 315.333C85.4645 315.333 91.4511 309.347 91.4511 302C91.4511 294.64 85.4645 288.667 78.1178 288.667C70.7578 288.667 64.7845 294.64 64.7845 302V302Z" fill="#130F26"/>
<rect x="73.1526" y="300.743" width="6.91934" height="2.30645" rx="1.15322" transform="rotate(45 73.1526 300.743)" fill="white"/>
<rect x="85.3845" y="298.297" width="12.6855" height="2.30645" rx="1.15322" transform="rotate(135 85.3845 298.297)" fill="white"/>
<path d="M109.778 295.5H113.018V309.5H109.778V295.5ZM122.66 298.58C123.994 298.58 125.067 298.98 125.88 299.78C126.707 300.58 127.12 301.767 127.12 303.34V309.5H124V303.82C124 302.967 123.814 302.333 123.44 301.92C123.067 301.493 122.527 301.28 121.82 301.28C121.034 301.28 120.407 301.527 119.94 302.02C119.474 302.5 119.24 303.22 119.24 304.18V309.5H116.12V298.74H119.1V300C119.514 299.547 120.027 299.2 120.64 298.96C121.254 298.707 121.927 298.58 122.66 298.58ZM133.568 309.66C132.675 309.66 131.802 309.553 130.948 309.34C130.095 309.113 129.415 308.833 128.908 308.5L129.948 306.26C130.428 306.567 131.008 306.82 131.688 307.02C132.368 307.207 133.035 307.3 133.688 307.3C135.008 307.3 135.668 306.973 135.668 306.32C135.668 306.013 135.488 305.793 135.128 305.66C134.768 305.527 134.215 305.413 133.468 305.32C132.588 305.187 131.862 305.033 131.288 304.86C130.715 304.687 130.215 304.38 129.788 303.94C129.375 303.5 129.168 302.873 129.168 302.06C129.168 301.38 129.362 300.78 129.748 300.26C130.148 299.727 130.722 299.313 131.468 299.02C132.228 298.727 133.122 298.58 134.148 298.58C134.908 298.58 135.662 298.667 136.408 298.84C137.168 299 137.795 299.227 138.288 299.52L137.248 301.74C136.302 301.207 135.268 300.94 134.148 300.94C133.482 300.94 132.982 301.033 132.648 301.22C132.315 301.407 132.148 301.647 132.148 301.94C132.148 302.273 132.328 302.507 132.688 302.64C133.048 302.773 133.622 302.9 134.408 303.02C135.288 303.167 136.008 303.327 136.568 303.5C137.128 303.66 137.615 303.96 138.028 304.4C138.442 304.84 138.648 305.453 138.648 306.24C138.648 306.907 138.448 307.5 138.048 308.02C137.648 308.54 137.062 308.947 136.288 309.24C135.528 309.52 134.622 309.66 133.568 309.66ZM147.513 308.98C147.207 309.207 146.827 309.38 146.373 309.5C145.933 309.607 145.467 309.66 144.973 309.66C143.693 309.66 142.7 309.333 141.993 308.68C141.3 308.027 140.953 307.067 140.953 305.8V301.38H139.293V298.98H140.953V296.36H144.073V298.98H146.753V301.38H144.073V305.76C144.073 306.213 144.187 306.567 144.413 306.82C144.653 307.06 144.987 307.18 145.413 307.18C145.907 307.18 146.327 307.047 146.673 306.78L147.513 308.98ZM153.605 298.58C155.271 298.58 156.551 298.98 157.445 299.78C158.338 300.567 158.785 301.76 158.785 303.36V309.5H155.865V308.16C155.278 309.16 154.185 309.66 152.585 309.66C151.758 309.66 151.038 309.52 150.425 309.24C149.825 308.96 149.365 308.573 149.045 308.08C148.725 307.587 148.565 307.027 148.565 306.4C148.565 305.4 148.938 304.613 149.685 304.04C150.445 303.467 151.611 303.18 153.185 303.18H155.665C155.665 302.5 155.458 301.98 155.045 301.62C154.631 301.247 154.011 301.06 153.185 301.06C152.611 301.06 152.045 301.153 151.485 301.34C150.938 301.513 150.471 301.753 150.085 302.06L148.965 299.88C149.551 299.467 150.251 299.147 151.065 298.92C151.891 298.693 152.738 298.58 153.605 298.58ZM153.365 307.56C153.898 307.56 154.371 307.44 154.785 307.2C155.198 306.947 155.491 306.58 155.665 306.1V305H153.525C152.245 305 151.605 305.42 151.605 306.26C151.605 306.66 151.758 306.98 152.065 307.22C152.385 307.447 152.818 307.56 153.365 307.56ZM172.826 298.74V307.7C172.826 309.673 172.312 311.14 171.286 312.1C170.259 313.06 168.759 313.54 166.786 313.54C165.746 313.54 164.759 313.413 163.826 313.16C162.892 312.907 162.119 312.54 161.506 312.06L162.746 309.82C163.199 310.193 163.772 310.487 164.466 310.7C165.159 310.927 165.852 311.04 166.546 311.04C167.626 311.04 168.419 310.793 168.926 310.3C169.446 309.82 169.706 309.087 169.706 308.1V307.64C168.892 308.533 167.759 308.98 166.306 308.98C165.319 308.98 164.412 308.767 163.586 308.34C162.772 307.9 162.126 307.287 161.646 306.5C161.166 305.713 160.926 304.807 160.926 303.78C160.926 302.753 161.166 301.847 161.646 301.06C162.126 300.273 162.772 299.667 163.586 299.24C164.412 298.8 165.319 298.58 166.306 298.58C167.866 298.58 169.052 299.093 169.866 300.12V298.74H172.826ZM166.926 306.42C167.752 306.42 168.426 306.18 168.946 305.7C169.479 305.207 169.746 304.567 169.746 303.78C169.746 302.993 169.479 302.36 168.946 301.88C168.426 301.387 167.752 301.14 166.926 301.14C166.099 301.14 165.419 301.387 164.886 301.88C164.352 302.36 164.086 302.993 164.086 303.78C164.086 304.567 164.352 305.207 164.886 305.7C165.419 306.18 166.099 306.42 166.926 306.42ZM178.71 300.16C179.083 299.64 179.583 299.247 180.21 298.98C180.85 298.713 181.583 298.58 182.41 298.58V301.46C182.063 301.433 181.83 301.42 181.71 301.42C180.816 301.42 180.116 301.673 179.61 302.18C179.103 302.673 178.85 303.42 178.85 304.42V309.5H175.73V298.74H178.71V300.16ZM188.546 298.58C190.213 298.58 191.493 298.98 192.386 299.78C193.279 300.567 193.726 301.76 193.726 303.36V309.5H190.806V308.16C190.219 309.16 189.126 309.66 187.526 309.66C186.699 309.66 185.979 309.52 185.366 309.24C184.766 308.96 184.306 308.573 183.986 308.08C183.666 307.587 183.506 307.027 183.506 306.4C183.506 305.4 183.879 304.613 184.626 304.04C185.386 303.467 186.553 303.18 188.126 303.18H190.606C190.606 302.5 190.399 301.98 189.986 301.62C189.573 301.247 188.953 301.06 188.126 301.06C187.553 301.06 186.986 301.153 186.426 301.34C185.879 301.513 185.413 301.753 185.026 302.06L183.906 299.88C184.493 299.467 185.193 299.147 186.006 298.92C186.833 298.693 187.679 298.58 188.546 298.58ZM188.306 307.56C188.839 307.56 189.313 307.44 189.726 307.2C190.139 306.947 190.433 306.58 190.606 306.1V305H188.466C187.186 305 186.546 305.42 186.546 306.26C186.546 306.66 186.699 306.98 187.006 307.22C187.326 307.447 187.759 307.56 188.306 307.56ZM210.33 298.58C211.677 298.58 212.743 298.98 213.53 299.78C214.33 300.567 214.73 301.753 214.73 303.34V309.5H211.61V303.82C211.61 302.967 211.43 302.333 211.07 301.92C210.723 301.493 210.223 301.28 209.57 301.28C208.837 301.28 208.257 301.52 207.83 302C207.403 302.467 207.19 303.167 207.19 304.1V309.5H204.07V303.82C204.07 302.127 203.39 301.28 202.03 301.28C201.31 301.28 200.737 301.52 200.31 302C199.883 302.467 199.67 303.167 199.67 304.1V309.5H196.55V298.74H199.53V299.98C199.93 299.527 200.417 299.18 200.99 298.94C201.577 298.7 202.217 298.58 202.91 298.58C203.67 298.58 204.357 298.733 204.97 299.04C205.583 299.333 206.077 299.767 206.45 300.34C206.89 299.78 207.443 299.347 208.11 299.04C208.79 298.733 209.53 298.58 210.33 298.58ZM236.83 309.5L236.81 299.3L231.75 307.8H230.83L225.77 299.36V309.5H223.85V295.5H225.49L231.33 305.34L237.09 295.5H238.73L238.75 309.5H236.83ZM246.532 298.8C247.999 298.8 249.119 299.16 249.892 299.88C250.679 300.6 251.072 301.673 251.072 303.1V309.5H249.252V308.1C248.932 308.593 248.472 308.973 247.872 309.24C247.285 309.493 246.585 309.62 245.772 309.62C244.585 309.62 243.632 309.333 242.912 308.76C242.205 308.187 241.852 307.433 241.852 306.5C241.852 305.567 242.192 304.82 242.872 304.26C243.552 303.687 244.632 303.4 246.112 303.4H249.152V303.02C249.152 302.193 248.912 301.56 248.432 301.12C247.952 300.68 247.245 300.46 246.312 300.46C245.685 300.46 245.072 300.567 244.472 300.78C243.872 300.98 243.365 301.253 242.952 301.6L242.152 300.16C242.699 299.72 243.352 299.387 244.112 299.16C244.872 298.92 245.679 298.8 246.532 298.8ZM246.092 308.14C246.825 308.14 247.459 307.98 247.992 307.66C248.525 307.327 248.912 306.86 249.152 306.26V304.78H246.192C244.565 304.78 243.752 305.327 243.752 306.42C243.752 306.953 243.959 307.373 244.372 307.68C244.785 307.987 245.359 308.14 246.092 308.14ZM260.285 298.8C261.632 298.8 262.699 299.193 263.485 299.98C264.285 300.753 264.685 301.893 264.685 303.4V309.5H262.765V303.62C262.765 302.593 262.519 301.82 262.025 301.3C261.532 300.78 260.825 300.52 259.905 300.52C258.865 300.52 258.045 300.827 257.445 301.44C256.845 302.04 256.545 302.907 256.545 304.04V309.5H254.625V298.9H256.465V300.5C256.852 299.953 257.372 299.533 258.025 299.24C258.692 298.947 259.445 298.8 260.285 298.8ZM272.098 298.8C273.565 298.8 274.685 299.16 275.458 299.88C276.245 300.6 276.638 301.673 276.638 303.1V309.5H274.818V308.1C274.498 308.593 274.038 308.973 273.438 309.24C272.852 309.493 272.152 309.62 271.338 309.62C270.152 309.62 269.198 309.333 268.478 308.76C267.772 308.187 267.418 307.433 267.418 306.5C267.418 305.567 267.758 304.82 268.438 304.26C269.118 303.687 270.198 303.4 271.678 303.4H274.718V303.02C274.718 302.193 274.478 301.56 273.998 301.12C273.518 300.68 272.812 300.46 271.878 300.46C271.252 300.46 270.638 300.567 270.038 300.78C269.438 300.98 268.932 301.253 268.518 301.6L267.718 300.16C268.265 299.72 268.918 299.387 269.678 299.16C270.438 298.92 271.245 298.8 272.098 298.8ZM271.658 308.14C272.392 308.14 273.025 307.98 273.558 307.66C274.092 307.327 274.478 306.86 274.718 306.26V304.78H271.758C270.132 304.78 269.318 305.327 269.318 306.42C269.318 306.953 269.525 307.373 269.938 307.68C270.352 307.987 270.925 308.14 271.658 308.14ZM290.39 298.9V308.06C290.39 309.913 289.93 311.28 289.01 312.16C288.09 313.053 286.717 313.5 284.89 313.5C283.89 313.5 282.937 313.36 282.03 313.08C281.124 312.813 280.39 312.427 279.83 311.92L280.75 310.44C281.244 310.867 281.85 311.2 282.57 311.44C283.304 311.693 284.057 311.82 284.83 311.82C286.07 311.82 286.984 311.527 287.57 310.94C288.17 310.353 288.47 309.46 288.47 308.26V307.42C288.017 307.967 287.457 308.38 286.79 308.66C286.137 308.927 285.424 309.06 284.65 309.06C283.637 309.06 282.717 308.847 281.89 308.42C281.077 307.98 280.437 307.373 279.97 306.6C279.504 305.813 279.27 304.92 279.27 303.92C279.27 302.92 279.504 302.033 279.97 301.26C280.437 300.473 281.077 299.867 281.89 299.44C282.717 299.013 283.637 298.8 284.65 298.8C285.45 298.8 286.19 298.947 286.87 299.24C287.564 299.533 288.13 299.967 288.57 300.54V298.9H290.39ZM284.87 307.38C285.564 307.38 286.184 307.233 286.73 306.94C287.29 306.647 287.724 306.24 288.03 305.72C288.35 305.187 288.51 304.587 288.51 303.92C288.51 302.893 288.17 302.067 287.49 301.44C286.81 300.8 285.937 300.48 284.87 300.48C283.79 300.48 282.91 300.8 282.23 301.44C281.55 302.067 281.21 302.893 281.21 303.92C281.21 304.587 281.364 305.187 281.67 305.72C281.99 306.24 282.424 306.647 282.97 306.94C283.53 307.233 284.164 307.38 284.87 307.38ZM303.639 304.26C303.639 304.407 303.625 304.6 303.599 304.84H294.999C295.119 305.773 295.525 306.527 296.219 307.1C296.925 307.66 297.799 307.94 298.839 307.94C300.105 307.94 301.125 307.513 301.899 306.66L302.959 307.9C302.479 308.46 301.879 308.887 301.159 309.18C300.452 309.473 299.659 309.62 298.779 309.62C297.659 309.62 296.665 309.393 295.799 308.94C294.932 308.473 294.259 307.827 293.779 307C293.312 306.173 293.079 305.24 293.079 304.2C293.079 303.173 293.305 302.247 293.759 301.42C294.225 300.593 294.859 299.953 295.659 299.5C296.472 299.033 297.385 298.8 298.399 298.8C299.412 298.8 300.312 299.033 301.099 299.5C301.899 299.953 302.519 300.593 302.959 301.42C303.412 302.247 303.639 303.193 303.639 304.26ZM298.399 300.42C297.479 300.42 296.705 300.7 296.079 301.26C295.465 301.82 295.105 302.553 294.999 303.46H301.799C301.692 302.567 301.325 301.84 300.699 301.28C300.085 300.707 299.319 300.42 298.399 300.42ZM319.565 298.8C320.898 298.8 321.952 299.187 322.725 299.96C323.512 300.733 323.905 301.88 323.905 303.4V309.5H321.985V303.62C321.985 302.593 321.745 301.82 321.265 301.3C320.798 300.78 320.125 300.52 319.245 300.52C318.272 300.52 317.498 300.827 316.925 301.44C316.352 302.04 316.065 302.907 316.065 304.04V309.5H314.145V303.62C314.145 302.593 313.905 301.82 313.425 301.3C312.958 300.78 312.285 300.52 311.405 300.52C310.432 300.52 309.658 300.827 309.085 301.44C308.512 302.04 308.225 302.907 308.225 304.04V309.5H306.305V298.9H308.145V300.48C308.532 299.933 309.038 299.52 309.665 299.24C310.292 298.947 311.005 298.8 311.805 298.8C312.632 298.8 313.365 298.967 314.005 299.3C314.645 299.633 315.138 300.12 315.485 300.76C315.885 300.147 316.438 299.667 317.145 299.32C317.865 298.973 318.672 298.8 319.565 298.8ZM337.076 304.26C337.076 304.407 337.063 304.6 337.036 304.84H328.436C328.556 305.773 328.963 306.527 329.656 307.1C330.363 307.66 331.236 307.94 332.276 307.94C333.543 307.94 334.563 307.513 335.336 306.66L336.396 307.9C335.916 308.46 335.316 308.887 334.596 309.18C333.89 309.473 333.096 309.62 332.216 309.62C331.096 309.62 330.103 309.393 329.236 308.94C328.37 308.473 327.696 307.827 327.216 307C326.75 306.173 326.516 305.24 326.516 304.2C326.516 303.173 326.743 302.247 327.196 301.42C327.663 300.593 328.296 299.953 329.096 299.5C329.91 299.033 330.823 298.8 331.836 298.8C332.85 298.8 333.75 299.033 334.536 299.5C335.336 299.953 335.956 300.593 336.396 301.42C336.85 302.247 337.076 303.193 337.076 304.26ZM331.836 300.42C330.916 300.42 330.143 300.7 329.516 301.26C328.903 301.82 328.543 302.553 328.436 303.46H335.236C335.13 302.567 334.763 301.84 334.136 301.28C333.523 300.707 332.756 300.42 331.836 300.42ZM345.402 298.8C346.749 298.8 347.816 299.193 348.602 299.98C349.402 300.753 349.802 301.893 349.802 303.4V309.5H347.882V303.62C347.882 302.593 347.636 301.82 347.142 301.3C346.649 300.78 345.942 300.52 345.022 300.52C343.982 300.52 343.162 300.827 342.562 301.44C341.962 302.04 341.662 302.907 341.662 304.04V309.5H339.742V298.9H341.582V300.5C341.969 299.953 342.489 299.533 343.142 299.24C343.809 298.947 344.562 298.8 345.402 298.8ZM359.316 308.88C359.036 309.12 358.689 309.307 358.276 309.44C357.862 309.56 357.436 309.62 356.996 309.62C355.929 309.62 355.102 309.333 354.516 308.76C353.929 308.187 353.636 307.367 353.636 306.3V300.48H351.836V298.9H353.636V296.58H355.556V298.9H358.596V300.48H355.556V306.22C355.556 306.793 355.696 307.233 355.976 307.54C356.269 307.847 356.682 308 357.216 308C357.802 308 358.302 307.833 358.716 307.5L359.316 308.88Z" fill="#1A1A1A"/>
<path d="M64.7845 354C64.7845 361.347 70.7578 367.333 78.1178 367.333C85.4645 367.333 91.4511 361.347 91.4511 354C91.4511 346.64 85.4645 340.667 78.1178 340.667C70.7578 340.667 64.7845 346.64 64.7845 354V354Z" fill="#130F26"/>
<rect x="73.1526" y="352.743" width="6.91934" height="2.30645" rx="1.15322" transform="rotate(45 73.1526 352.743)" fill="white"/>
<rect x="85.3845" y="350.297" width="12.6855" height="2.30645" rx="1.15322" transform="rotate(135 85.3845 350.297)" fill="white"/>
<path d="M112.678 350.14H108.198V347.5H120.398V350.14H115.918V361.5H112.678V350.14ZM138.556 350.74L134.656 361.5H131.656L129.236 354.82L126.736 361.5H123.736L119.856 350.74H122.796L125.336 358.02L127.976 350.74H130.616L133.176 358.02L135.796 350.74H138.556ZM140.007 350.74H143.127V361.5H140.007V350.74ZM141.567 349.24C140.994 349.24 140.527 349.073 140.167 348.74C139.807 348.407 139.627 347.993 139.627 347.5C139.627 347.007 139.807 346.593 140.167 346.26C140.527 345.927 140.994 345.76 141.567 345.76C142.14 345.76 142.607 345.92 142.967 346.24C143.327 346.56 143.507 346.96 143.507 347.44C143.507 347.96 143.327 348.393 142.967 348.74C142.607 349.073 142.14 349.24 141.567 349.24ZM152.963 360.98C152.656 361.207 152.276 361.38 151.823 361.5C151.383 361.607 150.916 361.66 150.423 361.66C149.143 361.66 148.149 361.333 147.443 360.68C146.749 360.027 146.403 359.067 146.403 357.8V353.38H144.743V350.98H146.403V348.36H149.523V350.98H152.203V353.38H149.523V357.76C149.523 358.213 149.636 358.567 149.863 358.82C150.103 359.06 150.436 359.18 150.863 359.18C151.356 359.18 151.776 359.047 152.123 358.78L152.963 360.98ZM161.42 360.98C161.113 361.207 160.733 361.38 160.28 361.5C159.84 361.607 159.373 361.66 158.88 361.66C157.6 361.66 156.606 361.333 155.9 360.68C155.206 360.027 154.86 359.067 154.86 357.8V353.38H153.2V350.98H154.86V348.36H157.98V350.98H160.66V353.38H157.98V357.76C157.98 358.213 158.093 358.567 158.32 358.82C158.56 359.06 158.893 359.18 159.32 359.18C159.813 359.18 160.233 359.047 160.58 358.78L161.42 360.98ZM173.379 356.16C173.379 356.2 173.359 356.48 173.319 357H165.179C165.326 357.667 165.672 358.193 166.219 358.58C166.766 358.967 167.446 359.16 168.259 359.16C168.819 359.16 169.312 359.08 169.739 358.92C170.179 358.747 170.586 358.48 170.959 358.12L172.619 359.92C171.606 361.08 170.126 361.66 168.179 361.66C166.966 361.66 165.892 361.427 164.959 360.96C164.026 360.48 163.306 359.82 162.799 358.98C162.292 358.14 162.039 357.187 162.039 356.12C162.039 355.067 162.286 354.12 162.779 353.28C163.286 352.427 163.972 351.767 164.839 351.3C165.719 350.82 166.699 350.58 167.779 350.58C168.832 350.58 169.786 350.807 170.639 351.26C171.492 351.713 172.159 352.367 172.639 353.22C173.132 354.06 173.379 355.04 173.379 356.16ZM167.799 352.94C167.092 352.94 166.499 353.14 166.019 353.54C165.539 353.94 165.246 354.487 165.139 355.18H170.439C170.332 354.5 170.039 353.96 169.559 353.56C169.079 353.147 168.492 352.94 167.799 352.94ZM178.436 352.16C178.809 351.64 179.309 351.247 179.936 350.98C180.576 350.713 181.309 350.58 182.136 350.58V353.46C181.789 353.433 181.556 353.42 181.436 353.42C180.543 353.42 179.843 353.673 179.336 354.18C178.829 354.673 178.576 355.42 178.576 356.42V361.5H175.456V350.74H178.436V352.16ZM199.02 358H191.58L190.04 361.5H187.98L194.32 347.5H196.3L202.66 361.5H200.56L199.02 358ZM198.32 356.4L195.3 349.54L192.28 356.4H198.32ZM214.154 350.9V361.5H212.334V359.9C211.947 360.447 211.434 360.873 210.794 361.18C210.167 361.473 209.48 361.62 208.734 361.62C207.32 361.62 206.207 361.233 205.394 360.46C204.58 359.673 204.174 358.52 204.174 357V350.9H206.094V356.78C206.094 357.807 206.34 358.587 206.834 359.12C207.327 359.64 208.034 359.9 208.954 359.9C209.967 359.9 210.767 359.593 211.354 358.98C211.94 358.367 212.234 357.5 212.234 356.38V350.9H214.154ZM223.769 360.88C223.489 361.12 223.142 361.307 222.729 361.44C222.315 361.56 221.889 361.62 221.449 361.62C220.382 361.62 219.555 361.333 218.969 360.76C218.382 360.187 218.089 359.367 218.089 358.3V352.48H216.289V350.9H218.089V348.58H220.009V350.9H223.049V352.48H220.009V358.22C220.009 358.793 220.149 359.233 220.429 359.54C220.722 359.847 221.135 360 221.669 360C222.255 360 222.755 359.833 223.169 359.5L223.769 360.88ZM230.278 361.62C229.225 361.62 228.278 361.387 227.438 360.92C226.598 360.453 225.938 359.813 225.458 359C224.992 358.173 224.758 357.24 224.758 356.2C224.758 355.16 224.992 354.233 225.458 353.42C225.938 352.593 226.598 351.953 227.438 351.5C228.278 351.033 229.225 350.8 230.278 350.8C231.332 350.8 232.272 351.033 233.098 351.5C233.938 351.953 234.592 352.593 235.058 353.42C235.538 354.233 235.778 355.16 235.778 356.2C235.778 357.24 235.538 358.173 235.058 359C234.592 359.813 233.938 360.453 233.098 360.92C232.272 361.387 231.332 361.62 230.278 361.62ZM230.278 359.94C230.958 359.94 231.565 359.787 232.098 359.48C232.645 359.16 233.072 358.72 233.378 358.16C233.685 357.587 233.838 356.933 233.838 356.2C233.838 355.467 233.685 354.82 233.378 354.26C233.072 353.687 232.645 353.247 232.098 352.94C231.565 352.633 230.958 352.48 230.278 352.48C229.598 352.48 228.985 352.633 228.438 352.94C227.905 353.247 227.478 353.687 227.158 354.26C226.852 354.82 226.698 355.467 226.698 356.2C226.698 356.933 226.852 357.587 227.158 358.16C227.478 358.72 227.905 359.16 228.438 359.48C228.985 359.787 229.598 359.94 230.278 359.94ZM251.694 350.8C253.027 350.8 254.08 351.187 254.854 351.96C255.64 352.733 256.034 353.88 256.034 355.4V361.5H254.114V355.62C254.114 354.593 253.874 353.82 253.394 353.3C252.927 352.78 252.254 352.52 251.374 352.52C250.4 352.52 249.627 352.827 249.054 353.44C248.48 354.04 248.194 354.907 248.194 356.04V361.5H246.274V355.62C246.274 354.593 246.034 353.82 245.554 353.3C245.087 352.78 244.414 352.52 243.534 352.52C242.56 352.52 241.787 352.827 241.214 353.44C240.64 354.04 240.354 354.907 240.354 356.04V361.5H238.434V350.9H240.274V352.48C240.66 351.933 241.167 351.52 241.794 351.24C242.42 350.947 243.134 350.8 243.934 350.8C244.76 350.8 245.494 350.967 246.134 351.3C246.774 351.633 247.267 352.12 247.614 352.76C248.014 352.147 248.567 351.667 249.274 351.32C249.994 350.973 250.8 350.8 251.694 350.8ZM263.427 350.8C264.893 350.8 266.013 351.16 266.787 351.88C267.573 352.6 267.967 353.673 267.967 355.1V361.5H266.147V360.1C265.827 360.593 265.367 360.973 264.767 361.24C264.18 361.493 263.48 361.62 262.667 361.62C261.48 361.62 260.527 361.333 259.807 360.76C259.1 360.187 258.747 359.433 258.747 358.5C258.747 357.567 259.087 356.82 259.767 356.26C260.447 355.687 261.527 355.4 263.007 355.4H266.047V355.02C266.047 354.193 265.807 353.56 265.327 353.12C264.847 352.68 264.14 352.46 263.207 352.46C262.58 352.46 261.967 352.567 261.367 352.78C260.767 352.98 260.26 353.253 259.847 353.6L259.047 352.16C259.593 351.72 260.247 351.387 261.007 351.16C261.767 350.92 262.573 350.8 263.427 350.8ZM262.987 360.14C263.72 360.14 264.353 359.98 264.887 359.66C265.42 359.327 265.807 358.86 266.047 358.26V356.78H263.087C261.46 356.78 260.647 357.327 260.647 358.42C260.647 358.953 260.853 359.373 261.267 359.68C261.68 359.987 262.253 360.14 262.987 360.14ZM277.48 360.88C277.2 361.12 276.853 361.307 276.44 361.44C276.026 361.56 275.6 361.62 275.16 361.62C274.093 361.62 273.266 361.333 272.68 360.76C272.093 360.187 271.8 359.367 271.8 358.3V352.48H270V350.9H271.8V348.58H273.72V350.9H276.76V352.48H273.72V358.22C273.72 358.793 273.86 359.233 274.14 359.54C274.433 359.847 274.846 360 275.38 360C275.966 360 276.466 359.833 276.88 359.5L277.48 360.88ZM279.801 350.9H281.721V361.5H279.801V350.9ZM280.761 348.86C280.388 348.86 280.074 348.74 279.821 348.5C279.581 348.26 279.461 347.967 279.461 347.62C279.461 347.273 279.581 346.98 279.821 346.74C280.074 346.487 280.388 346.36 280.761 346.36C281.134 346.36 281.441 346.48 281.681 346.72C281.934 346.947 282.061 347.233 282.061 347.58C282.061 347.94 281.934 348.247 281.681 348.5C281.441 348.74 281.134 348.86 280.761 348.86ZM289.927 361.62C288.874 361.62 287.927 361.387 287.087 360.92C286.247 360.453 285.587 359.813 285.107 359C284.64 358.173 284.407 357.24 284.407 356.2C284.407 355.16 284.64 354.233 285.107 353.42C285.587 352.593 286.247 351.953 287.087 351.5C287.927 351.033 288.874 350.8 289.927 350.8C290.98 350.8 291.92 351.033 292.747 351.5C293.587 351.953 294.24 352.593 294.707 353.42C295.187 354.233 295.427 355.16 295.427 356.2C295.427 357.24 295.187 358.173 294.707 359C294.24 359.813 293.587 360.453 292.747 360.92C291.92 361.387 290.98 361.62 289.927 361.62ZM289.927 359.94C290.607 359.94 291.214 359.787 291.747 359.48C292.294 359.16 292.72 358.72 293.027 358.16C293.334 357.587 293.487 356.933 293.487 356.2C293.487 355.467 293.334 354.82 293.027 354.26C292.72 353.687 292.294 353.247 291.747 352.94C291.214 352.633 290.607 352.48 289.927 352.48C289.247 352.48 288.634 352.633 288.087 352.94C287.554 353.247 287.127 353.687 286.807 354.26C286.5 354.82 286.347 355.467 286.347 356.2C286.347 356.933 286.5 357.587 286.807 358.16C287.127 358.72 287.554 359.16 288.087 359.48C288.634 359.787 289.247 359.94 289.927 359.94ZM303.742 350.8C305.089 350.8 306.156 351.193 306.942 351.98C307.742 352.753 308.142 353.893 308.142 355.4V361.5H306.222V355.62C306.222 354.593 305.976 353.82 305.482 353.3C304.989 352.78 304.282 352.52 303.362 352.52C302.322 352.52 301.502 352.827 300.902 353.44C300.302 354.04 300.002 354.907 300.002 356.04V361.5H298.082V350.9H299.922V352.5C300.309 351.953 300.829 351.533 301.482 351.24C302.149 350.947 302.902 350.8 303.742 350.8Z" fill="#1A1A1A"/>
<path d="M64.7845 458C64.7845 465.347 70.7578 471.333 78.1178 471.333C85.4645 471.333 91.4511 465.347 91.4511 458C91.4511 450.64 85.4645 444.667 78.1178 444.667C70.7578 444.667 64.7845 450.64 64.7845 458V458Z" fill="#130F26"/>
<rect x="73.1526" y="456.743" width="6.91934" height="2.30645" rx="1.15322" transform="rotate(45 73.1526 456.743)" fill="white"/>
<rect x="85.3845" y="454.297" width="12.6855" height="2.30645" rx="1.15322" transform="rotate(135 85.3845 454.297)" fill="white"/>
<path d="M114.298 465.66C113.244 465.66 112.224 465.5 111.238 465.18C110.264 464.847 109.498 464.42 108.938 463.9L109.678 462.34C110.211 462.82 110.891 463.213 111.718 463.52C112.558 463.813 113.418 463.96 114.298 463.96C115.458 463.96 116.324 463.767 116.898 463.38C117.471 462.98 117.758 462.453 117.758 461.8C117.758 461.32 117.598 460.933 117.278 460.64C116.971 460.333 116.584 460.1 116.118 459.94C115.664 459.78 115.018 459.6 114.178 459.4C113.124 459.147 112.271 458.893 111.618 458.64C110.978 458.387 110.424 458 109.958 457.48C109.504 456.947 109.278 456.233 109.278 455.34C109.278 454.593 109.471 453.92 109.858 453.32C110.258 452.72 110.858 452.24 111.658 451.88C112.458 451.52 113.451 451.34 114.638 451.34C115.464 451.34 116.278 451.447 117.078 451.66C117.878 451.873 118.564 452.18 119.138 452.58L118.478 454.18C117.891 453.807 117.264 453.527 116.598 453.34C115.931 453.14 115.278 453.04 114.638 453.04C113.504 453.04 112.651 453.247 112.078 453.66C111.518 454.073 111.238 454.607 111.238 455.26C111.238 455.74 111.398 456.133 111.718 456.44C112.038 456.733 112.431 456.967 112.898 457.14C113.378 457.3 114.024 457.473 114.838 457.66C115.891 457.913 116.738 458.167 117.378 458.42C118.018 458.673 118.564 459.06 119.018 459.58C119.484 460.1 119.718 460.8 119.718 461.68C119.718 462.413 119.518 463.087 119.118 463.7C118.718 464.3 118.111 464.78 117.298 465.14C116.484 465.487 115.484 465.66 114.298 465.66ZM126.9 465.62C125.846 465.62 124.9 465.387 124.06 464.92C123.22 464.453 122.56 463.813 122.08 463C121.613 462.173 121.38 461.24 121.38 460.2C121.38 459.16 121.613 458.233 122.08 457.42C122.56 456.593 123.22 455.953 124.06 455.5C124.9 455.033 125.846 454.8 126.9 454.8C127.953 454.8 128.893 455.033 129.72 455.5C130.56 455.953 131.213 456.593 131.68 457.42C132.16 458.233 132.4 459.16 132.4 460.2C132.4 461.24 132.16 462.173 131.68 463C131.213 463.813 130.56 464.453 129.72 464.92C128.893 465.387 127.953 465.62 126.9 465.62ZM126.9 463.94C127.58 463.94 128.186 463.787 128.72 463.48C129.266 463.16 129.693 462.72 130 462.16C130.306 461.587 130.46 460.933 130.46 460.2C130.46 459.467 130.306 458.82 130 458.26C129.693 457.687 129.266 457.247 128.72 456.94C128.186 456.633 127.58 456.48 126.9 456.48C126.22 456.48 125.606 456.633 125.06 456.94C124.526 457.247 124.1 457.687 123.78 458.26C123.473 458.82 123.32 459.467 123.32 460.2C123.32 460.933 123.473 461.587 123.78 462.16C124.1 462.72 124.526 463.16 125.06 463.48C125.606 463.787 126.22 463.94 126.9 463.94ZM139.675 465.62C138.595 465.62 137.628 465.387 136.775 464.92C135.935 464.453 135.275 463.813 134.795 463C134.315 462.173 134.075 461.24 134.075 460.2C134.075 459.16 134.315 458.233 134.795 457.42C135.275 456.593 135.935 455.953 136.775 455.5C137.628 455.033 138.595 454.8 139.675 454.8C140.635 454.8 141.488 454.993 142.235 455.38C142.995 455.767 143.582 456.327 143.995 457.06L142.535 458C142.202 457.493 141.788 457.113 141.295 456.86C140.802 456.607 140.255 456.48 139.655 456.48C138.962 456.48 138.335 456.633 137.775 456.94C137.228 457.247 136.795 457.687 136.475 458.26C136.168 458.82 136.015 459.467 136.015 460.2C136.015 460.947 136.168 461.607 136.475 462.18C136.795 462.74 137.228 463.173 137.775 463.48C138.335 463.787 138.962 463.94 139.655 463.94C140.255 463.94 140.802 463.813 141.295 463.56C141.788 463.307 142.202 462.927 142.535 462.42L143.995 463.34C143.582 464.073 142.995 464.64 142.235 465.04C141.488 465.427 140.635 465.62 139.675 465.62ZM146.481 454.9H148.401V465.5H146.481V454.9ZM147.441 452.86C147.067 452.86 146.754 452.74 146.501 452.5C146.261 452.26 146.141 451.967 146.141 451.62C146.141 451.273 146.261 450.98 146.501 450.74C146.754 450.487 147.067 450.36 147.441 450.36C147.814 450.36 148.121 450.48 148.361 450.72C148.614 450.947 148.741 451.233 148.741 451.58C148.741 451.94 148.614 452.247 148.361 452.5C148.121 452.74 147.814 452.86 147.441 452.86ZM155.927 454.8C157.393 454.8 158.513 455.16 159.287 455.88C160.073 456.6 160.467 457.673 160.467 459.1V465.5H158.647V464.1C158.327 464.593 157.867 464.973 157.267 465.24C156.68 465.493 155.98 465.62 155.167 465.62C153.98 465.62 153.027 465.333 152.307 464.76C151.6 464.187 151.247 463.433 151.247 462.5C151.247 461.567 151.587 460.82 152.267 460.26C152.947 459.687 154.027 459.4 155.507 459.4H158.547V459.02C158.547 458.193 158.307 457.56 157.827 457.12C157.347 456.68 156.64 456.46 155.707 456.46C155.08 456.46 154.467 456.567 153.867 456.78C153.267 456.98 152.76 457.253 152.347 457.6L151.547 456.16C152.093 455.72 152.747 455.387 153.507 455.16C154.267 454.92 155.073 454.8 155.927 454.8ZM155.487 464.14C156.22 464.14 156.853 463.98 157.387 463.66C157.92 463.327 158.307 462.86 158.547 462.26V460.78H155.587C153.96 460.78 153.147 461.327 153.147 462.42C153.147 462.953 153.353 463.373 153.767 463.68C154.18 463.987 154.753 464.14 155.487 464.14ZM164.02 450.66H165.94V465.5H164.02V450.66ZM188.237 465.5L188.217 455.3L183.157 463.8H182.237L177.177 455.36V465.5H175.257V451.5H176.897L182.737 461.34L188.497 451.5H190.137L190.157 465.5H188.237ZM203.658 460.26C203.658 460.407 203.645 460.6 203.618 460.84H195.018C195.138 461.773 195.545 462.527 196.238 463.1C196.945 463.66 197.818 463.94 198.858 463.94C200.125 463.94 201.145 463.513 201.918 462.66L202.978 463.9C202.498 464.46 201.898 464.887 201.178 465.18C200.472 465.473 199.678 465.62 198.798 465.62C197.678 465.62 196.685 465.393 195.818 464.94C194.952 464.473 194.278 463.827 193.798 463C193.332 462.173 193.098 461.24 193.098 460.2C193.098 459.173 193.325 458.247 193.778 457.42C194.245 456.593 194.878 455.953 195.678 455.5C196.492 455.033 197.405 454.8 198.418 454.8C199.432 454.8 200.332 455.033 201.118 455.5C201.918 455.953 202.538 456.593 202.978 457.42C203.432 458.247 203.658 459.193 203.658 460.26ZM198.418 456.42C197.498 456.42 196.725 456.7 196.098 457.26C195.485 457.82 195.125 458.553 195.018 459.46H201.818C201.712 458.567 201.345 457.84 200.718 457.28C200.105 456.707 199.338 456.42 198.418 456.42ZM216.324 450.66V465.5H214.484V463.82C214.058 464.407 213.518 464.853 212.864 465.16C212.211 465.467 211.491 465.62 210.704 465.62C209.678 465.62 208.758 465.393 207.944 464.94C207.131 464.487 206.491 463.853 206.024 463.04C205.571 462.213 205.344 461.267 205.344 460.2C205.344 459.133 205.571 458.193 206.024 457.38C206.491 456.567 207.131 455.933 207.944 455.48C208.758 455.027 209.678 454.8 210.704 454.8C211.464 454.8 212.164 454.947 212.804 455.24C213.444 455.52 213.978 455.94 214.404 456.5V450.66H216.324ZM210.864 463.94C211.531 463.94 212.138 463.787 212.684 463.48C213.231 463.16 213.658 462.72 213.964 462.16C214.271 461.587 214.424 460.933 214.424 460.2C214.424 459.467 214.271 458.82 213.964 458.26C213.658 457.687 213.231 457.247 212.684 456.94C212.138 456.633 211.531 456.48 210.864 456.48C210.184 456.48 209.571 456.633 209.024 456.94C208.491 457.247 208.064 457.687 207.744 458.26C207.438 458.82 207.284 459.467 207.284 460.2C207.284 460.933 207.438 461.587 207.744 462.16C208.064 462.72 208.491 463.16 209.024 463.48C209.571 463.787 210.184 463.94 210.864 463.94ZM219.957 454.9H221.877V465.5H219.957V454.9ZM220.917 452.86C220.544 452.86 220.231 452.74 219.977 452.5C219.737 452.26 219.617 451.967 219.617 451.62C219.617 451.273 219.737 450.98 219.977 450.74C220.231 450.487 220.544 450.36 220.917 450.36C221.291 450.36 221.597 450.48 221.837 450.72C222.091 450.947 222.217 451.233 222.217 451.58C222.217 451.94 222.091 452.247 221.837 452.5C221.597 452.74 221.291 452.86 220.917 452.86ZM229.403 454.8C230.87 454.8 231.99 455.16 232.763 455.88C233.55 456.6 233.943 457.673 233.943 459.1V465.5H232.123V464.1C231.803 464.593 231.343 464.973 230.743 465.24C230.156 465.493 229.456 465.62 228.643 465.62C227.456 465.62 226.503 465.333 225.783 464.76C225.076 464.187 224.723 463.433 224.723 462.5C224.723 461.567 225.063 460.82 225.743 460.26C226.423 459.687 227.503 459.4 228.983 459.4H232.023V459.02C232.023 458.193 231.783 457.56 231.303 457.12C230.823 456.68 230.116 456.46 229.183 456.46C228.556 456.46 227.943 456.567 227.343 456.78C226.743 456.98 226.236 457.253 225.823 457.6L225.023 456.16C225.57 455.72 226.223 455.387 226.983 455.16C227.743 454.92 228.55 454.8 229.403 454.8ZM228.963 464.14C229.696 464.14 230.33 463.98 230.863 463.66C231.396 463.327 231.783 462.86 232.023 462.26V460.78H229.063C227.436 460.78 226.623 461.327 226.623 462.42C226.623 462.953 226.83 463.373 227.243 463.68C227.656 463.987 228.23 464.14 228.963 464.14ZM252.067 462H244.627L243.087 465.5H241.027L247.367 451.5H249.347L255.707 465.5H253.607L252.067 462ZM251.367 460.4L248.347 453.54L245.327 460.4H251.367ZM267.418 450.66V465.5H265.578V463.82C265.151 464.407 264.611 464.853 263.958 465.16C263.305 465.467 262.585 465.62 261.798 465.62C260.771 465.62 259.851 465.393 259.038 464.94C258.225 464.487 257.585 463.853 257.118 463.04C256.665 462.213 256.438 461.267 256.438 460.2C256.438 459.133 256.665 458.193 257.118 457.38C257.585 456.567 258.225 455.933 259.038 455.48C259.851 455.027 260.771 454.8 261.798 454.8C262.558 454.8 263.258 454.947 263.898 455.24C264.538 455.52 265.071 455.94 265.498 456.5V450.66H267.418ZM261.958 463.94C262.625 463.94 263.231 463.787 263.778 463.48C264.325 463.16 264.751 462.72 265.058 462.16C265.365 461.587 265.518 460.933 265.518 460.2C265.518 459.467 265.365 458.82 265.058 458.26C264.751 457.687 264.325 457.247 263.778 456.94C263.231 456.633 262.625 456.48 261.958 456.48C261.278 456.48 260.665 456.633 260.118 456.94C259.585 457.247 259.158 457.687 258.838 458.26C258.531 458.82 258.378 459.467 258.378 460.2C258.378 460.933 258.531 461.587 258.838 462.16C259.158 462.72 259.585 463.16 260.118 463.48C260.665 463.787 261.278 463.94 261.958 463.94ZM282.962 465.66C281.562 465.66 280.295 465.353 279.162 464.74C278.042 464.113 277.162 463.26 276.522 462.18C275.882 461.087 275.562 459.86 275.562 458.5C275.562 457.14 275.882 455.92 276.522 454.84C277.162 453.747 278.049 452.893 279.182 452.28C280.315 451.653 281.582 451.34 282.982 451.34C284.075 451.34 285.075 451.527 285.982 451.9C286.889 452.26 287.662 452.8 288.302 453.52L287.002 454.78C285.949 453.673 284.635 453.12 283.062 453.12C282.022 453.12 281.082 453.353 280.242 453.82C279.402 454.287 278.742 454.933 278.262 455.76C277.795 456.573 277.562 457.487 277.562 458.5C277.562 459.513 277.795 460.433 278.262 461.26C278.742 462.073 279.402 462.713 280.242 463.18C281.082 463.647 282.022 463.88 283.062 463.88C284.622 463.88 285.935 463.32 287.002 462.2L288.302 463.46C287.662 464.18 286.882 464.727 285.962 465.1C285.055 465.473 284.055 465.66 282.962 465.66ZM294.598 454.8C296.065 454.8 297.185 455.16 297.958 455.88C298.745 456.6 299.138 457.673 299.138 459.1V465.5H297.318V464.1C296.998 464.593 296.538 464.973 295.938 465.24C295.352 465.493 294.652 465.62 293.838 465.62C292.652 465.62 291.698 465.333 290.978 464.76C290.272 464.187 289.918 463.433 289.918 462.5C289.918 461.567 290.258 460.82 290.938 460.26C291.618 459.687 292.698 459.4 294.178 459.4H297.218V459.02C297.218 458.193 296.978 457.56 296.498 457.12C296.018 456.68 295.312 456.46 294.378 456.46C293.752 456.46 293.138 456.567 292.538 456.78C291.938 456.98 291.432 457.253 291.018 457.6L290.218 456.16C290.765 455.72 291.418 455.387 292.178 455.16C292.938 454.92 293.745 454.8 294.598 454.8ZM294.158 464.14C294.892 464.14 295.525 463.98 296.058 463.66C296.592 463.327 296.978 462.86 297.218 462.26V460.78H294.258C292.632 460.78 291.818 461.327 291.818 462.42C291.818 462.953 292.025 463.373 292.438 463.68C292.852 463.987 293.425 464.14 294.158 464.14ZM315.952 454.8C317.285 454.8 318.338 455.187 319.112 455.96C319.898 456.733 320.292 457.88 320.292 459.4V465.5H318.372V459.62C318.372 458.593 318.132 457.82 317.652 457.3C317.185 456.78 316.512 456.52 315.632 456.52C314.658 456.52 313.885 456.827 313.312 457.44C312.738 458.04 312.452 458.907 312.452 460.04V465.5H310.532V459.62C310.532 458.593 310.292 457.82 309.812 457.3C309.345 456.78 308.672 456.52 307.792 456.52C306.818 456.52 306.045 456.827 305.472 457.44C304.898 458.04 304.612 458.907 304.612 460.04V465.5H302.692V454.9H304.532V456.48C304.918 455.933 305.425 455.52 306.052 455.24C306.678 454.947 307.392 454.8 308.192 454.8C309.018 454.8 309.752 454.967 310.392 455.3C311.032 455.633 311.525 456.12 311.872 456.76C312.272 456.147 312.825 455.667 313.532 455.32C314.252 454.973 315.058 454.8 315.952 454.8ZM329.444 454.8C330.471 454.8 331.391 455.027 332.204 455.48C333.018 455.933 333.651 456.567 334.104 457.38C334.571 458.193 334.804 459.133 334.804 460.2C334.804 461.267 334.571 462.213 334.104 463.04C333.651 463.853 333.018 464.487 332.204 464.94C331.391 465.393 330.471 465.62 329.444 465.62C328.684 465.62 327.984 465.473 327.344 465.18C326.718 464.887 326.184 464.46 325.744 463.9V469.38H323.824V454.9H325.664V456.58C326.091 455.993 326.631 455.553 327.284 455.26C327.938 454.953 328.658 454.8 329.444 454.8ZM329.284 463.94C329.964 463.94 330.571 463.787 331.104 463.48C331.651 463.16 332.078 462.72 332.384 462.16C332.704 461.587 332.864 460.933 332.864 460.2C332.864 459.467 332.704 458.82 332.384 458.26C332.078 457.687 331.651 457.247 331.104 456.94C330.571 456.633 329.964 456.48 329.284 456.48C328.618 456.48 328.011 456.64 327.464 456.96C326.931 457.267 326.504 457.7 326.184 458.26C325.878 458.82 325.724 459.467 325.724 460.2C325.724 460.933 325.878 461.587 326.184 462.16C326.491 462.72 326.918 463.16 327.464 463.48C328.011 463.787 328.618 463.94 329.284 463.94ZM341.22 454.8C342.686 454.8 343.806 455.16 344.58 455.88C345.366 456.6 345.76 457.673 345.76 459.1V465.5H343.94V464.1C343.62 464.593 343.16 464.973 342.56 465.24C341.973 465.493 341.273 465.62 340.46 465.62C339.273 465.62 338.32 465.333 337.6 464.76C336.893 464.187 336.54 463.433 336.54 462.5C336.54 461.567 336.88 460.82 337.56 460.26C338.24 459.687 339.32 459.4 340.8 459.4H343.84V459.02C343.84 458.193 343.6 457.56 343.12 457.12C342.64 456.68 341.933 456.46 341 456.46C340.373 456.46 339.76 456.567 339.16 456.78C338.56 456.98 338.053 457.253 337.64 457.6L336.84 456.16C337.386 455.72 338.04 455.387 338.8 455.16C339.56 454.92 340.366 454.8 341.22 454.8ZM340.78 464.14C341.513 464.14 342.146 463.98 342.68 463.66C343.213 463.327 343.6 462.86 343.84 462.26V460.78H340.88C339.253 460.78 338.44 461.327 338.44 462.42C338.44 462.953 338.646 463.373 339.06 463.68C339.473 463.987 340.046 464.14 340.78 464.14ZM349.313 454.9H351.233V465.5H349.313V454.9ZM350.273 452.86C349.899 452.86 349.586 452.74 349.333 452.5C349.093 452.26 348.973 451.967 348.973 451.62C348.973 451.273 349.093 450.98 349.333 450.74C349.586 450.487 349.899 450.36 350.273 450.36C350.646 450.36 350.953 450.48 351.193 450.72C351.446 450.947 351.573 451.233 351.573 451.58C351.573 451.94 351.446 452.247 351.193 452.5C350.953 452.74 350.646 452.86 350.273 452.86ZM365.039 454.9V464.06C365.039 465.913 364.579 467.28 363.659 468.16C362.739 469.053 361.365 469.5 359.539 469.5C358.539 469.5 357.585 469.36 356.679 469.08C355.772 468.813 355.039 468.427 354.479 467.92L355.399 466.44C355.892 466.867 356.499 467.2 357.219 467.44C357.952 467.693 358.705 467.82 359.479 467.82C360.719 467.82 361.632 467.527 362.219 466.94C362.819 466.353 363.119 465.46 363.119 464.26V463.42C362.665 463.967 362.105 464.38 361.439 464.66C360.785 464.927 360.072 465.06 359.299 465.06C358.285 465.06 357.365 464.847 356.539 464.42C355.725 463.98 355.085 463.373 354.619 462.6C354.152 461.813 353.919 460.92 353.919 459.92C353.919 458.92 354.152 458.033 354.619 457.26C355.085 456.473 355.725 455.867 356.539 455.44C357.365 455.013 358.285 454.8 359.299 454.8C360.099 454.8 360.839 454.947 361.519 455.24C362.212 455.533 362.779 455.967 363.219 456.54V454.9H365.039ZM359.519 463.38C360.212 463.38 360.832 463.233 361.379 462.94C361.939 462.647 362.372 462.24 362.679 461.72C362.999 461.187 363.159 460.587 363.159 459.92C363.159 458.893 362.819 458.067 362.139 457.44C361.459 456.8 360.585 456.48 359.519 456.48C358.439 456.48 357.559 456.8 356.879 457.44C356.199 458.067 355.859 458.893 355.859 459.92C355.859 460.587 356.012 461.187 356.319 461.72C356.639 462.24 357.072 462.647 357.619 462.94C358.179 463.233 358.812 463.38 359.519 463.38ZM374.367 454.8C375.714 454.8 376.781 455.193 377.567 455.98C378.367 456.753 378.767 457.893 378.767 459.4V465.5H376.847V459.62C376.847 458.593 376.601 457.82 376.107 457.3C375.614 456.78 374.907 456.52 373.987 456.52C372.947 456.52 372.127 456.827 371.527 457.44C370.927 458.04 370.627 458.907 370.627 460.04V465.5H368.707V454.9H370.547V456.5C370.934 455.953 371.454 455.533 372.107 455.24C372.774 454.947 373.527 454.8 374.367 454.8Z" fill="#1A1A1A"/>
<path d="M64.7845 406C64.7845 413.347 70.7578 419.333 78.1178 419.333C85.4645 419.333 91.4511 413.347 91.4511 406C91.4511 398.64 85.4645 392.667 78.1178 392.667C70.7578 392.667 64.7845 398.64 64.7845 406V406Z" fill="#130F26"/>
<rect x="73.1526" y="404.743" width="6.91934" height="2.30645" rx="1.15322" transform="rotate(45 73.1526 404.743)" fill="white"/>
<rect x="85.3845" y="402.297" width="12.6855" height="2.30645" rx="1.15322" transform="rotate(135 85.3845 402.297)" fill="white"/>
<path d="M122.518 413.5L122.498 405.1L118.378 412.02H116.918L112.818 405.28V413.5H109.778V399.5H112.458L117.698 408.2L122.858 399.5H125.518L125.558 413.5H122.518ZM133.779 413.66C132.646 413.66 131.626 413.427 130.719 412.96C129.826 412.48 129.126 411.82 128.619 410.98C128.113 410.14 127.859 409.187 127.859 408.12C127.859 407.053 128.113 406.1 128.619 405.26C129.126 404.42 129.826 403.767 130.719 403.3C131.626 402.82 132.646 402.58 133.779 402.58C134.913 402.58 135.926 402.82 136.819 403.3C137.713 403.767 138.413 404.42 138.919 405.26C139.426 406.1 139.679 407.053 139.679 408.12C139.679 409.187 139.426 410.14 138.919 410.98C138.413 411.82 137.713 412.48 136.819 412.96C135.926 413.427 134.913 413.66 133.779 413.66ZM133.779 411.1C134.579 411.1 135.233 410.833 135.739 410.3C136.259 409.753 136.519 409.027 136.519 408.12C136.519 407.213 136.259 406.493 135.739 405.96C135.233 405.413 134.579 405.14 133.779 405.14C132.979 405.14 132.319 405.413 131.799 405.96C131.279 406.493 131.019 407.213 131.019 408.12C131.019 409.027 131.279 409.753 131.799 410.3C132.319 410.833 132.979 411.1 133.779 411.1ZM148.305 402.58C149.638 402.58 150.711 402.98 151.525 403.78C152.351 404.58 152.765 405.767 152.765 407.34V413.5H149.645V407.82C149.645 406.967 149.458 406.333 149.085 405.92C148.711 405.493 148.171 405.28 147.465 405.28C146.678 405.28 146.051 405.527 145.585 406.02C145.118 406.5 144.885 407.22 144.885 408.18V413.5H141.765V402.74H144.745V404C145.158 403.547 145.671 403.2 146.285 402.96C146.898 402.707 147.571 402.58 148.305 402.58ZM162.533 412.98C162.226 413.207 161.846 413.38 161.393 413.5C160.953 413.607 160.486 413.66 159.993 413.66C158.713 413.66 157.719 413.333 157.013 412.68C156.319 412.027 155.973 411.067 155.973 409.8V405.38H154.313V402.98H155.973V400.36H159.093V402.98H161.773V405.38H159.093V409.76C159.093 410.213 159.206 410.567 159.433 410.82C159.673 411.06 160.006 411.18 160.433 411.18C160.926 411.18 161.346 411.047 161.693 410.78L162.533 412.98ZM170.824 402.58C172.158 402.58 173.231 402.98 174.044 403.78C174.871 404.58 175.284 405.767 175.284 407.34V413.5H172.164V407.82C172.164 406.967 171.978 406.333 171.604 405.92C171.231 405.493 170.691 405.28 169.984 405.28C169.198 405.28 168.571 405.527 168.104 406.02C167.638 406.5 167.404 407.22 167.404 408.18V413.5H164.284V398.66H167.404V403.86C167.818 403.447 168.318 403.133 168.904 402.92C169.491 402.693 170.131 402.58 170.824 402.58ZM178.112 398.66H181.232V413.5H178.112V398.66ZM194.808 402.74L189.948 414.16C189.455 415.4 188.841 416.273 188.108 416.78C187.388 417.287 186.515 417.54 185.488 417.54C184.928 417.54 184.375 417.453 183.828 417.28C183.281 417.107 182.835 416.867 182.488 416.56L183.628 414.34C183.868 414.553 184.141 414.72 184.448 414.84C184.768 414.96 185.081 415.02 185.388 415.02C185.815 415.02 186.161 414.913 186.428 414.7C186.695 414.5 186.935 414.16 187.148 413.68L187.188 413.58L182.528 402.74H185.748L188.768 410.04L191.808 402.74H194.808ZM211.185 410.5H204.685L203.445 413.5H200.125L206.365 399.5H209.565L215.825 413.5H212.425L211.185 410.5ZM210.165 408.04L207.945 402.68L205.725 408.04H210.165ZM223.598 402.58C224.931 402.58 226.004 402.98 226.818 403.78C227.644 404.58 228.058 405.767 228.058 407.34V413.5H224.938V407.82C224.938 406.967 224.751 406.333 224.378 405.92C224.004 405.493 223.464 405.28 222.758 405.28C221.971 405.28 221.344 405.527 220.878 406.02C220.411 406.5 220.178 407.22 220.178 408.18V413.5H217.058V402.74H220.038V404C220.451 403.547 220.964 403.2 221.578 402.96C222.191 402.707 222.864 402.58 223.598 402.58ZM235.226 402.58C236.892 402.58 238.172 402.98 239.066 403.78C239.959 404.567 240.406 405.76 240.406 407.36V413.5H237.486V412.16C236.899 413.16 235.806 413.66 234.206 413.66C233.379 413.66 232.659 413.52 232.046 413.24C231.446 412.96 230.986 412.573 230.666 412.08C230.346 411.587 230.186 411.027 230.186 410.4C230.186 409.4 230.559 408.613 231.306 408.04C232.066 407.467 233.232 407.18 234.806 407.18H237.286C237.286 406.5 237.079 405.98 236.666 405.62C236.252 405.247 235.632 405.06 234.806 405.06C234.232 405.06 233.666 405.153 233.106 405.34C232.559 405.513 232.092 405.753 231.706 406.06L230.586 403.88C231.172 403.467 231.872 403.147 232.686 402.92C233.512 402.693 234.359 402.58 235.226 402.58ZM234.986 411.56C235.519 411.56 235.992 411.44 236.406 411.2C236.819 410.947 237.112 410.58 237.286 410.1V409H235.146C233.866 409 233.226 409.42 233.226 410.26C233.226 410.66 233.379 410.98 233.686 411.22C234.006 411.447 234.439 411.56 234.986 411.56ZM243.23 398.66H246.35V413.5H243.23V398.66ZM259.925 402.74L255.065 414.16C254.572 415.4 253.959 416.273 253.225 416.78C252.505 417.287 251.632 417.54 250.605 417.54C250.045 417.54 249.492 417.453 248.945 417.28C248.399 417.107 247.952 416.867 247.605 416.56L248.745 414.34C248.985 414.553 249.259 414.72 249.565 414.84C249.885 414.96 250.199 415.02 250.505 415.02C250.932 415.02 251.279 414.913 251.545 414.7C251.812 414.5 252.052 414.16 252.265 413.68L252.305 413.58L247.645 402.74H250.865L253.885 410.04L256.925 402.74H259.925ZM268.431 412.98C268.125 413.207 267.745 413.38 267.291 413.5C266.851 413.607 266.385 413.66 265.891 413.66C264.611 413.66 263.618 413.333 262.911 412.68C262.218 412.027 261.871 411.067 261.871 409.8V405.38H260.211V402.98H261.871V400.36H264.991V402.98H267.671V405.38H264.991V409.76C264.991 410.213 265.105 410.567 265.331 410.82C265.571 411.06 265.905 411.18 266.331 411.18C266.825 411.18 267.245 411.047 267.591 410.78L268.431 412.98ZM270.183 402.74H273.303V413.5H270.183V402.74ZM271.743 401.24C271.169 401.24 270.703 401.073 270.343 400.74C269.983 400.407 269.803 399.993 269.803 399.5C269.803 399.007 269.983 398.593 270.343 398.26C270.703 397.927 271.169 397.76 271.743 397.76C272.316 397.76 272.783 397.92 273.143 398.24C273.503 398.56 273.683 398.96 273.683 399.44C273.683 399.96 273.503 400.393 273.143 400.74C272.783 401.073 272.316 401.24 271.743 401.24ZM281.398 413.66C280.252 413.66 279.218 413.427 278.298 412.96C277.392 412.48 276.678 411.82 276.158 410.98C275.652 410.14 275.398 409.187 275.398 408.12C275.398 407.053 275.652 406.1 276.158 405.26C276.678 404.42 277.392 403.767 278.298 403.3C279.218 402.82 280.252 402.58 281.398 402.58C282.532 402.58 283.518 402.82 284.358 403.3C285.212 403.767 285.832 404.44 286.218 405.32L283.798 406.62C283.238 405.633 282.432 405.14 281.378 405.14C280.565 405.14 279.892 405.407 279.358 405.94C278.825 406.473 278.558 407.2 278.558 408.12C278.558 409.04 278.825 409.767 279.358 410.3C279.892 410.833 280.565 411.1 281.378 411.1C282.445 411.1 283.252 410.607 283.798 409.62L286.218 410.94C285.832 411.793 285.212 412.46 284.358 412.94C283.518 413.42 282.532 413.66 281.398 413.66ZM291.635 413.66C290.741 413.66 289.868 413.553 289.015 413.34C288.161 413.113 287.481 412.833 286.975 412.5L288.015 410.26C288.495 410.567 289.075 410.82 289.755 411.02C290.435 411.207 291.101 411.3 291.755 411.3C293.075 411.3 293.735 410.973 293.735 410.32C293.735 410.013 293.555 409.793 293.195 409.66C292.835 409.527 292.281 409.413 291.535 409.32C290.655 409.187 289.928 409.033 289.355 408.86C288.781 408.687 288.281 408.38 287.855 407.94C287.441 407.5 287.235 406.873 287.235 406.06C287.235 405.38 287.428 404.78 287.815 404.26C288.215 403.727 288.788 403.313 289.535 403.02C290.295 402.727 291.188 402.58 292.215 402.58C292.975 402.58 293.728 402.667 294.475 402.84C295.235 403 295.861 403.227 296.355 403.52L295.315 405.74C294.368 405.207 293.335 404.94 292.215 404.94C291.548 404.94 291.048 405.033 290.715 405.22C290.381 405.407 290.215 405.647 290.215 405.94C290.215 406.273 290.395 406.507 290.755 406.64C291.115 406.773 291.688 406.9 292.475 407.02C293.355 407.167 294.075 407.327 294.635 407.5C295.195 407.66 295.681 407.96 296.095 408.4C296.508 408.84 296.715 409.453 296.715 410.24C296.715 410.907 296.515 411.5 296.115 412.02C295.715 412.54 295.128 412.947 294.355 413.24C293.595 413.52 292.688 413.66 291.635 413.66Z" fill="#1A1A1A"/>
<path d="M72.7017 64.4C75.2403 64.4 77.2377 65.0067 78.6937 66.22C80.1497 67.4333 80.8777 69.104 80.8777 71.232C80.8777 73.36 80.1497 75.0307 78.6937 76.244C77.2377 77.4573 75.2403 78.064 72.7017 78.064H67.8577V84H65.0577V64.4H72.7017ZM72.6177 75.628C74.391 75.628 75.7443 75.2547 76.6777 74.508C77.611 73.7427 78.0777 72.6507 78.0777 71.232C78.0777 69.8133 77.611 68.7307 76.6777 67.984C75.7443 67.2187 74.391 66.836 72.6177 66.836H67.8577V75.628H72.6177ZM86.9292 71.652C87.3958 70.7933 88.0865 70.14 89.0012 69.692C89.9158 69.244 91.0265 69.02 92.3332 69.02V71.624C92.1838 71.6053 91.9785 71.596 91.7172 71.596C90.2612 71.596 89.1132 72.0347 88.2732 72.912C87.4518 73.7707 87.0412 75.0027 87.0412 76.608V84H84.3532V69.16H86.9292V71.652ZM108.921 76.664C108.921 76.8693 108.903 77.14 108.865 77.476H96.8254C96.9934 78.7827 97.5628 79.8373 98.5334 80.64C99.5228 81.424 100.745 81.816 102.201 81.816C103.975 81.816 105.403 81.2187 106.485 80.024L107.969 81.76C107.297 82.544 106.457 83.1413 105.449 83.552C104.46 83.9627 103.349 84.168 102.117 84.168C100.549 84.168 99.1588 83.8507 97.9454 83.216C96.7321 82.5627 95.7894 81.6573 95.1174 80.5C94.4641 79.3427 94.1374 78.036 94.1374 76.58C94.1374 75.1427 94.4548 73.8453 95.0894 72.688C95.7428 71.5307 96.6294 70.6347 97.7494 70C98.8881 69.3467 100.167 69.02 101.585 69.02C103.004 69.02 104.264 69.3467 105.365 70C106.485 70.6347 107.353 71.5307 107.969 72.688C108.604 73.8453 108.921 75.1707 108.921 76.664ZM101.585 71.288C100.297 71.288 99.2148 71.68 98.3374 72.464C97.4788 73.248 96.9748 74.2747 96.8254 75.544H106.345C106.196 74.2933 105.683 73.276 104.805 72.492C103.947 71.6893 102.873 71.288 101.585 71.288ZM131.218 69.02C133.085 69.02 134.559 69.5613 135.642 70.644C136.743 71.7267 137.294 73.332 137.294 75.46V84H134.606V75.768C134.606 74.3307 134.27 73.248 133.598 72.52C132.945 71.792 132.002 71.428 130.77 71.428C129.407 71.428 128.325 71.8573 127.522 72.716C126.719 73.556 126.318 74.7693 126.318 76.356V84H123.63V75.768C123.63 74.3307 123.294 73.248 122.622 72.52C121.969 71.792 121.026 71.428 119.794 71.428C118.431 71.428 117.349 71.8573 116.546 72.716C115.743 73.556 115.342 74.7693 115.342 76.356V84H112.654V69.16H115.23V71.372C115.771 70.6067 116.481 70.028 117.358 69.636C118.235 69.2253 119.234 69.02 120.354 69.02C121.511 69.02 122.538 69.2533 123.434 69.72C124.33 70.1867 125.021 70.868 125.506 71.764C126.066 70.9053 126.841 70.2333 127.83 69.748C128.838 69.2627 129.967 69.02 131.218 69.02ZM142.24 69.16H144.928V84H142.24V69.16ZM143.584 66.304C143.061 66.304 142.623 66.136 142.268 65.8C141.932 65.464 141.764 65.0533 141.764 64.568C141.764 64.0827 141.932 63.672 142.268 63.336C142.623 62.9813 143.061 62.804 143.584 62.804C144.107 62.804 144.536 62.972 144.872 63.308C145.227 63.6253 145.404 64.0267 145.404 64.512C145.404 65.016 145.227 65.4453 144.872 65.8C144.536 66.136 144.107 66.304 143.584 66.304ZM163.892 69.16V84H161.344V81.76C160.803 82.5253 160.084 83.1227 159.188 83.552C158.311 83.9627 157.35 84.168 156.304 84.168C154.326 84.168 152.767 83.6267 151.628 82.544C150.49 81.4427 149.92 79.828 149.92 77.7V69.16H152.608V77.392C152.608 78.8293 152.954 79.9213 153.644 80.668C154.335 81.396 155.324 81.76 156.612 81.76C158.031 81.76 159.151 81.3307 159.972 80.472C160.794 79.6133 161.204 78.4 161.204 76.832V69.16H163.892ZM187.573 69.02C189.44 69.02 190.915 69.5613 191.997 70.644C193.099 71.7267 193.649 73.332 193.649 75.46V84H190.961V75.768C190.961 74.3307 190.625 73.248 189.953 72.52C189.3 71.792 188.357 71.428 187.125 71.428C185.763 71.428 184.68 71.8573 183.877 72.716C183.075 73.556 182.673 74.7693 182.673 76.356V84H179.985V75.768C179.985 74.3307 179.649 73.248 178.977 72.52C178.324 71.792 177.381 71.428 176.149 71.428C174.787 71.428 173.704 71.8573 172.901 72.716C172.099 73.556 171.697 74.7693 171.697 76.356V84H169.009V69.16H171.585V71.372C172.127 70.6067 172.836 70.028 173.713 69.636C174.591 69.2253 175.589 69.02 176.709 69.02C177.867 69.02 178.893 69.2533 179.789 69.72C180.685 70.1867 181.376 70.868 181.861 71.764C182.421 70.9053 183.196 70.2333 184.185 69.748C185.193 69.2627 186.323 69.02 187.573 69.02Z" fill="#1A1A1A"/>
<path d="M106.038 183.24C106.038 187.176 104.598 190.56 101.718 193.392C98.8377 196.176 94.6857 197.904 89.2617 198.576V206.64H82.0617V198.792C78.5097 198.6 75.1257 197.976 71.9097 196.92C68.6937 195.864 66.1017 194.568 64.1337 193.032L68.0937 184.248C69.9177 185.592 72.0537 186.72 74.5017 187.632C76.9497 188.544 79.4697 189.12 82.0617 189.36V177.336C78.6537 176.52 75.7737 175.608 73.4217 174.6C71.0697 173.592 69.1017 172.128 67.5177 170.208C65.9337 168.24 65.1417 165.648 65.1417 162.432C65.1417 158.448 66.5817 155.04 69.4617 152.208C72.3897 149.328 76.5897 147.576 82.0617 146.952V138.96H89.2617V146.808C95.1657 147.288 100.038 148.752 103.878 151.2L100.278 160.056C96.6777 157.992 93.0057 156.744 89.2617 156.312V168.552C92.6217 169.32 95.4537 170.208 97.7577 171.216C100.11 172.176 102.078 173.64 103.662 175.608C105.246 177.528 106.038 180.072 106.038 183.24ZM76.7337 161.856C76.7337 163.056 77.1897 164.04 78.1017 164.808C79.0137 165.576 80.3337 166.224 82.0617 166.752V156.528C80.2377 156.96 78.8937 157.656 78.0297 158.616C77.1657 159.528 76.7337 160.608 76.7337 161.856ZM89.2617 189.072C90.9897 188.688 92.2857 188.064 93.1497 187.2C94.0137 186.336 94.4457 185.304 94.4457 184.104C94.4457 182.904 93.9897 181.92 93.0777 181.152C92.2137 180.384 90.9417 179.712 89.2617 179.136V189.072ZM129.577 147.6V198H117.913V156.96H107.833V147.6H129.577ZM159.932 198.864C155.756 198.864 152.036 197.832 148.772 195.768C145.508 193.704 142.94 190.728 141.068 186.84C139.244 182.904 138.332 178.224 138.332 172.8C138.332 167.376 139.244 162.72 141.068 158.832C142.94 154.896 145.508 151.896 148.772 149.832C152.036 147.768 155.756 146.736 159.932 146.736C164.108 146.736 167.828 147.768 171.092 149.832C174.356 151.896 176.9 154.896 178.724 158.832C180.596 162.72 181.532 167.376 181.532 172.8C181.532 178.224 180.596 182.904 178.724 186.84C176.9 190.728 174.356 193.704 171.092 195.768C167.828 197.832 164.108 198.864 159.932 198.864ZM159.932 189C163.004 189 165.404 187.68 167.132 185.04C168.908 182.4 169.796 178.32 169.796 172.8C169.796 167.28 168.908 163.2 167.132 160.56C165.404 157.92 163.004 156.6 159.932 156.6C156.908 156.6 154.508 157.92 152.732 160.56C151.004 163.2 150.14 167.28 150.14 172.8C150.14 178.32 151.004 182.4 152.732 185.04C154.508 187.68 156.908 189 159.932 189ZM208.799 198.864C204.623 198.864 200.903 197.832 197.639 195.768C194.375 193.704 191.807 190.728 189.935 186.84C188.111 182.904 187.199 178.224 187.199 172.8C187.199 167.376 188.111 162.72 189.935 158.832C191.807 154.896 194.375 151.896 197.639 149.832C200.903 147.768 204.623 146.736 208.799 146.736C212.975 146.736 216.695 147.768 219.959 149.832C223.223 151.896 225.767 154.896 227.591 158.832C229.463 162.72 230.399 167.376 230.399 172.8C230.399 178.224 229.463 182.904 227.591 186.84C225.767 190.728 223.223 193.704 219.959 195.768C216.695 197.832 212.975 198.864 208.799 198.864ZM208.799 189C211.871 189 214.271 187.68 215.999 185.04C217.775 182.4 218.663 178.32 218.663 172.8C218.663 167.28 217.775 163.2 215.999 160.56C214.271 157.92 211.871 156.6 208.799 156.6C205.775 156.6 203.375 157.92 201.599 160.56C199.871 163.2 199.007 167.28 199.007 172.8C199.007 178.32 199.871 182.4 201.599 185.04C203.375 187.68 205.775 189 208.799 189ZM257.666 198.864C253.49 198.864 249.77 197.832 246.506 195.768C243.242 193.704 240.674 190.728 238.802 186.84C236.978 182.904 236.066 178.224 236.066 172.8C236.066 167.376 236.978 162.72 238.802 158.832C240.674 154.896 243.242 151.896 246.506 149.832C249.77 147.768 253.49 146.736 257.666 146.736C261.842 146.736 265.562 147.768 268.826 149.832C272.09 151.896 274.634 154.896 276.458 158.832C278.33 162.72 279.266 167.376 279.266 172.8C279.266 178.224 278.33 182.904 276.458 186.84C274.634 190.728 272.09 193.704 268.826 195.768C265.562 197.832 261.842 198.864 257.666 198.864ZM257.666 189C260.738 189 263.138 187.68 264.866 185.04C266.642 182.4 267.53 178.32 267.53 172.8C267.53 167.28 266.642 163.2 264.866 160.56C263.138 157.92 260.738 156.6 257.666 156.6C254.642 156.6 252.242 157.92 250.466 160.56C248.738 163.2 247.874 167.28 247.874 172.8C247.874 178.32 248.738 182.4 250.466 185.04C252.242 187.68 254.642 189 257.666 189ZM288.065 181.16H290.845L284.245 200H281.465L288.065 181.16ZM304.358 198L304.338 189.6L300.218 196.52H298.758L294.658 189.78V198H291.618V184H294.298L299.538 192.7L304.698 184H307.358L307.398 198H304.358ZM315.619 198.16C314.486 198.16 313.466 197.927 312.559 197.46C311.666 196.98 310.966 196.32 310.459 195.48C309.952 194.64 309.699 193.687 309.699 192.62C309.699 191.553 309.952 190.6 310.459 189.76C310.966 188.92 311.666 188.267 312.559 187.8C313.466 187.32 314.486 187.08 315.619 187.08C316.752 187.08 317.766 187.32 318.659 187.8C319.552 188.267 320.252 188.92 320.759 189.76C321.266 190.6 321.519 191.553 321.519 192.62C321.519 193.687 321.266 194.64 320.759 195.48C320.252 196.32 319.552 196.98 318.659 197.46C317.766 197.927 316.752 198.16 315.619 198.16ZM315.619 195.6C316.419 195.6 317.072 195.333 317.579 194.8C318.099 194.253 318.359 193.527 318.359 192.62C318.359 191.713 318.099 190.993 317.579 190.46C317.072 189.913 316.419 189.64 315.619 189.64C314.819 189.64 314.159 189.913 313.639 190.46C313.119 190.993 312.859 191.713 312.859 192.62C312.859 193.527 313.119 194.253 313.639 194.8C314.159 195.333 314.819 195.6 315.619 195.6ZM330.145 187.08C331.478 187.08 332.551 187.48 333.365 188.28C334.191 189.08 334.605 190.267 334.605 191.84V198H331.485V192.32C331.485 191.467 331.298 190.833 330.925 190.42C330.551 189.993 330.011 189.78 329.305 189.78C328.518 189.78 327.891 190.027 327.425 190.52C326.958 191 326.725 191.72 326.725 192.68V198H323.605V187.24H326.585V188.5C326.998 188.047 327.511 187.7 328.125 187.46C328.738 187.207 329.411 187.08 330.145 187.08ZM344.373 197.48C344.066 197.707 343.686 197.88 343.233 198C342.793 198.107 342.326 198.16 341.833 198.16C340.553 198.16 339.559 197.833 338.853 197.18C338.159 196.527 337.813 195.567 337.813 194.3V189.88H336.153V187.48H337.813V184.86H340.933V187.48H343.613V189.88H340.933V194.26C340.933 194.713 341.046 195.067 341.273 195.32C341.513 195.56 341.846 195.68 342.273 195.68C342.766 195.68 343.186 195.547 343.533 195.28L344.373 197.48ZM352.664 187.08C353.997 187.08 355.071 187.48 355.884 188.28C356.711 189.08 357.124 190.267 357.124 191.84V198H354.004V192.32C354.004 191.467 353.817 190.833 353.444 190.42C353.071 189.993 352.531 189.78 351.824 189.78C351.037 189.78 350.411 190.027 349.944 190.52C349.477 191 349.244 191.72 349.244 192.68V198H346.124V183.16H349.244V188.36C349.657 187.947 350.157 187.633 350.744 187.42C351.331 187.193 351.971 187.08 352.664 187.08Z" fill="#1A1A1A"/>
<rect x="62.1177" y="566" width="515.765" height="80" rx="16" fill="#130F26"/>
<path d="M270.811 613.24C269.385 613.24 268.091 612.933 266.931 612.32C265.785 611.693 264.878 610.833 264.211 609.74C263.558 608.633 263.231 607.387 263.231 606C263.231 604.613 263.558 603.373 264.211 602.28C264.878 601.173 265.785 600.313 266.931 599.7C268.091 599.073 269.391 598.76 270.831 598.76C272.045 598.76 273.138 598.973 274.111 599.4C275.098 599.827 275.925 600.44 276.591 601.24L274.511 603.16C273.565 602.067 272.391 601.52 270.991 601.52C270.125 601.52 269.351 601.713 268.671 602.1C267.991 602.473 267.458 603 267.071 603.68C266.698 604.36 266.511 605.133 266.511 606C266.511 606.867 266.698 607.64 267.071 608.32C267.458 609 267.991 609.533 268.671 609.92C269.351 610.293 270.125 610.48 270.991 610.48C272.391 610.48 273.565 609.927 274.511 608.82L276.591 610.74C275.925 611.553 275.098 612.173 274.111 612.6C273.125 613.027 272.025 613.24 270.811 613.24ZM283.308 613.16C282.175 613.16 281.155 612.927 280.248 612.46C279.355 611.98 278.655 611.32 278.148 610.48C277.641 609.64 277.388 608.687 277.388 607.62C277.388 606.553 277.641 605.6 278.148 604.76C278.655 603.92 279.355 603.267 280.248 602.8C281.155 602.32 282.175 602.08 283.308 602.08C284.441 602.08 285.455 602.32 286.348 602.8C287.241 603.267 287.941 603.92 288.448 604.76C288.955 605.6 289.208 606.553 289.208 607.62C289.208 608.687 288.955 609.64 288.448 610.48C287.941 611.32 287.241 611.98 286.348 612.46C285.455 612.927 284.441 613.16 283.308 613.16ZM283.308 610.6C284.108 610.6 284.761 610.333 285.268 609.8C285.788 609.253 286.048 608.527 286.048 607.62C286.048 606.713 285.788 605.993 285.268 605.46C284.761 604.913 284.108 604.64 283.308 604.64C282.508 604.64 281.848 604.913 281.328 605.46C280.808 605.993 280.548 606.713 280.548 607.62C280.548 608.527 280.808 609.253 281.328 609.8C281.848 610.333 282.508 610.6 283.308 610.6ZM297.834 602.08C299.167 602.08 300.24 602.48 301.054 603.28C301.88 604.08 302.294 605.267 302.294 606.84V613H299.174V607.32C299.174 606.467 298.987 605.833 298.614 605.42C298.24 604.993 297.7 604.78 296.994 604.78C296.207 604.78 295.58 605.027 295.114 605.52C294.647 606 294.414 606.72 294.414 607.68V613H291.294V602.24H294.274V603.5C294.687 603.047 295.2 602.7 295.814 602.46C296.427 602.207 297.1 602.08 297.834 602.08ZM312.062 612.48C311.755 612.707 311.375 612.88 310.922 613C310.482 613.107 310.015 613.16 309.522 613.16C308.242 613.16 307.248 612.833 306.542 612.18C305.848 611.527 305.502 610.567 305.502 609.3V604.88H303.842V602.48H305.502V599.86H308.622V602.48H311.302V604.88H308.622V609.26C308.622 609.713 308.735 610.067 308.962 610.32C309.202 610.56 309.535 610.68 309.962 610.68C310.455 610.68 310.875 610.547 311.222 610.28L312.062 612.48ZM318.153 602.08C319.82 602.08 321.1 602.48 321.993 603.28C322.886 604.067 323.333 605.26 323.333 606.86V613H320.413V611.66C319.826 612.66 318.733 613.16 317.133 613.16C316.306 613.16 315.586 613.02 314.973 612.74C314.373 612.46 313.913 612.073 313.593 611.58C313.273 611.087 313.113 610.527 313.113 609.9C313.113 608.9 313.486 608.113 314.233 607.54C314.993 606.967 316.16 606.68 317.733 606.68H320.213C320.213 606 320.006 605.48 319.593 605.12C319.18 604.747 318.56 604.56 317.733 604.56C317.16 604.56 316.593 604.653 316.033 604.84C315.486 605.013 315.02 605.253 314.633 605.56L313.513 603.38C314.1 602.967 314.8 602.647 315.613 602.42C316.44 602.193 317.286 602.08 318.153 602.08ZM317.913 611.06C318.446 611.06 318.92 610.94 319.333 610.7C319.746 610.447 320.04 610.08 320.213 609.6V608.5H318.073C316.793 608.5 316.153 608.92 316.153 609.76C316.153 610.16 316.306 610.48 316.613 610.72C316.933 610.947 317.366 611.06 317.913 611.06ZM331.474 613.16C330.327 613.16 329.294 612.927 328.374 612.46C327.467 611.98 326.754 611.32 326.234 610.48C325.727 609.64 325.474 608.687 325.474 607.62C325.474 606.553 325.727 605.6 326.234 604.76C326.754 603.92 327.467 603.267 328.374 602.8C329.294 602.32 330.327 602.08 331.474 602.08C332.607 602.08 333.594 602.32 334.434 602.8C335.287 603.267 335.907 603.94 336.294 604.82L333.874 606.12C333.314 605.133 332.507 604.64 331.454 604.64C330.641 604.64 329.967 604.907 329.434 605.44C328.901 605.973 328.634 606.7 328.634 607.62C328.634 608.54 328.901 609.267 329.434 609.8C329.967 610.333 330.641 610.6 331.454 610.6C332.521 610.6 333.327 610.107 333.874 609.12L336.294 610.44C335.907 611.293 335.287 611.96 334.434 612.44C333.594 612.92 332.607 613.16 331.474 613.16ZM345.187 612.48C344.88 612.707 344.5 612.88 344.047 613C343.607 613.107 343.14 613.16 342.647 613.16C341.367 613.16 340.373 612.833 339.667 612.18C338.973 611.527 338.627 610.567 338.627 609.3V604.88H336.967V602.48H338.627V599.86H341.747V602.48H344.427V604.88H341.747V609.26C341.747 609.713 341.86 610.067 342.087 610.32C342.327 610.56 342.66 610.68 343.087 610.68C343.58 610.68 344 610.547 344.347 610.28L345.187 612.48ZM359.042 613.24C357.042 613.24 355.482 612.687 354.362 611.58C353.255 610.473 352.702 608.893 352.702 606.84V599H355.942V606.72C355.942 609.227 356.982 610.48 359.062 610.48C360.075 610.48 360.849 610.18 361.382 609.58C361.915 608.967 362.182 608.013 362.182 606.72V599H365.382V606.84C365.382 608.893 364.822 610.473 363.702 611.58C362.595 612.687 361.042 613.24 359.042 613.24ZM371.984 613.16C371.091 613.16 370.217 613.053 369.364 612.84C368.511 612.613 367.831 612.333 367.324 612L368.364 609.76C368.844 610.067 369.424 610.32 370.104 610.52C370.784 610.707 371.451 610.8 372.104 610.8C373.424 610.8 374.084 610.473 374.084 609.82C374.084 609.513 373.904 609.293 373.544 609.16C373.184 609.027 372.631 608.913 371.884 608.82C371.004 608.687 370.277 608.533 369.704 608.36C369.131 608.187 368.631 607.88 368.204 607.44C367.791 607 367.584 606.373 367.584 605.56C367.584 604.88 367.777 604.28 368.164 603.76C368.564 603.227 369.137 602.813 369.884 602.52C370.644 602.227 371.537 602.08 372.564 602.08C373.324 602.08 374.077 602.167 374.824 602.34C375.584 602.5 376.211 602.727 376.704 603.02L375.664 605.24C374.717 604.707 373.684 604.44 372.564 604.44C371.897 604.44 371.397 604.533 371.064 604.72C370.731 604.907 370.564 605.147 370.564 605.44C370.564 605.773 370.744 606.007 371.104 606.14C371.464 606.273 372.037 606.4 372.824 606.52C373.704 606.667 374.424 606.827 374.984 607C375.544 607.16 376.031 607.46 376.444 607.9C376.857 608.34 377.064 608.953 377.064 609.74C377.064 610.407 376.864 611 376.464 611.52C376.064 612.04 375.477 612.447 374.704 612.74C373.944 613.02 373.037 613.16 371.984 613.16Z" fill="white"/>
<defs>
<linearGradient id="paint0_linear_225_788" x1="11" y1="12" x2="624" y2="708" gradientUnits="userSpaceOnUse">
<stop stop-color="#FF8000"/>
<stop offset="0.2" stop-color="#FF4880"/>
<stop offset="0.369792" stop-color="#FF004F"/>
<stop offset="0.578125" stop-color="#7F30FF"/>
<stop offset="0.8" stop-color="#466FFF"/>
<stop offset="1" stop-color="#75D4FF"/>
</linearGradient>
</defs>
</svg>
