<svg width="1055" height="708" viewBox="0 0 1055 708" fill="none" xmlns="http://www.w3.org/2000/svg">
<mask id="mask0_222_720" style="mask-type:alpha" maskUnits="userSpaceOnUse" x="0" y="0" width="1055" height="709">
<rect width="1055" height="708" rx="32" fill="white"/>
</mask>
<g mask="url(#mask0_222_720)">
<mask id="mask1_222_720" style="mask-type:alpha" maskUnits="userSpaceOnUse" x="0" y="0" width="2273" height="708">
<rect width="2272.02" height="708" fill="#4987FF"/>
</mask>
<g mask="url(#mask1_222_720)">
<g filter="url(#filter0_f_222_720)">
<path d="M816.434 344.008C712.275 321.554 632.902 311.73 535.167 344.008C344.619 406.938 346.124 632.311 535.167 697.095C684.584 748.299 804.675 673.547 951.334 619.138C1016.05 595.13 1069.97 588.904 1106.13 546.827C1187.04 452.668 974.914 378.172 816.434 344.008Z" fill="#4886FF"/>
</g>
<g filter="url(#filter1_f_222_720)">
<path d="M515.633 -16.1532C411.474 -38.607 332.101 -48.4311 234.366 -16.1532C43.8182 46.777 45.3225 272.15 234.366 336.934C383.783 388.138 503.874 313.386 650.532 258.977C715.245 234.969 769.172 228.743 805.33 186.666C886.242 92.5073 674.113 18.0107 515.633 -16.1532Z" fill="#FF004F"/>
</g>
<g filter="url(#filter2_f_222_720)">
<path d="M1796.72 -155.896C1620.96 -193.783 1487.03 -210.359 1322.11 -155.896C1000.58 -49.714 1003.12 330.558 1322.11 439.868C1574.23 526.265 1776.88 400.136 2024.35 308.331C2133.54 267.822 2224.54 257.318 2285.55 186.32C2422.08 27.4468 2064.14 -98.2515 1796.72 -155.896Z" fill="#FF4880" fill-opacity="0.5"/>
</g>
<g filter="url(#filter3_f_222_720)">
<path d="M1534.97 653.713C1508.83 725.615 1621.18 730.721 1636.59 788.348C1691.35 993.069 927.326 1012.49 812.142 801.844C703.167 602.555 1329.73 397.296 1329.73 397.296C1329.73 397.296 1495.73 357.629 1562.87 397.296C1623.46 433.094 1620.52 479.777 1599.23 530.967C1582.41 571.41 1549.79 612.946 1534.97 653.713Z" fill="#7F30FF"/>
</g>
<g filter="url(#filter4_f_222_720)">
<path d="M1109.28 555.973C1081.55 632.172 1200.76 637.583 1217.11 698.654C1275.21 915.61 464.534 936.19 342.316 712.957C226.687 501.758 891.507 284.232 891.507 284.232C891.507 284.232 1067.64 242.194 1138.88 284.232C1203.17 322.169 1200.06 371.643 1177.47 425.891C1159.62 468.751 1125.01 512.77 1109.28 555.973Z" fill="#75D4FF"/>
</g>
<g filter="url(#filter5_f_222_720)">
<ellipse cx="393.696" cy="637.781" rx="435.357" ry="674.692" transform="rotate(90 393.696 637.781)" fill="#466FFF"/>
</g>
<g filter="url(#filter6_f_222_720)">
<path d="M798.472 -39.207C664.746 -68.0347 562.841 -80.6477 437.362 -39.207C192.723 41.5874 194.654 330.937 437.362 414.112C629.194 479.851 783.375 383.879 971.666 314.025C1054.75 283.202 1123.98 275.209 1170.41 221.186C1274.29 100.299 1001.94 4.65506 798.472 -39.207Z" fill="#FF4880"/>
</g>
<g filter="url(#filter7_f_222_720)">
<ellipse cx="9.15586" cy="-36.8403" rx="159.773" ry="247.534" transform="rotate(90 9.15586 -36.8403)" fill="#FF8000"/>
</g>
</g>
</g>
<path d="M83.1144 99.672H86.1864V108.408C85.077 109.325 83.7864 110.029 82.3144 110.52C80.8424 111.011 79.3064 111.256 77.7064 111.256C75.445 111.256 73.4077 110.765 71.5944 109.784C69.781 108.781 68.3517 107.416 67.3064 105.688C66.2824 103.939 65.7704 101.976 65.7704 99.8C65.7704 97.624 66.2824 95.6613 67.3064 93.912C68.3517 92.1627 69.781 90.7973 71.5944 89.816C73.429 88.8347 75.4877 88.344 77.7704 88.344C79.5624 88.344 81.1837 88.6427 82.6344 89.24C84.1064 89.816 85.3544 90.6693 86.3784 91.8L84.3944 93.784C82.6024 92.056 80.437 91.192 77.8984 91.192C76.1917 91.192 74.6557 91.5653 73.2904 92.312C71.9464 93.0373 70.8904 94.0613 70.1224 95.384C69.3544 96.6853 68.9704 98.1573 68.9704 99.8C68.9704 101.421 69.3544 102.893 70.1224 104.216C70.8904 105.517 71.9464 106.541 73.2904 107.288C74.6557 108.035 76.181 108.408 77.8664 108.408C79.8717 108.408 81.621 107.928 83.1144 106.968V99.672ZM91.8651 94.04H94.9371V111H91.8651V94.04ZM93.4011 90.776C92.8038 90.776 92.3025 90.584 91.8971 90.2C91.5131 89.816 91.3211 89.3467 91.3211 88.792C91.3211 88.2373 91.5131 87.768 91.8971 87.384C92.3025 86.9787 92.8038 86.776 93.4011 86.776C93.9985 86.776 94.4891 86.968 94.8731 87.352C95.2785 87.7147 95.4811 88.1733 95.4811 88.728C95.4811 89.304 95.2785 89.7947 94.8731 90.2C94.4891 90.584 93.9985 90.776 93.4011 90.776ZM115.811 94.04L108.387 111H105.251L97.8266 94.04H101.027L106.851 107.64L112.803 94.04H115.811ZM133.537 102.616C133.537 102.851 133.516 103.16 133.473 103.544H119.713C119.905 105.037 120.556 106.243 121.665 107.16C122.796 108.056 124.193 108.504 125.857 108.504C127.884 108.504 129.516 107.821 130.753 106.456L132.449 108.44C131.681 109.336 130.721 110.019 129.569 110.488C128.438 110.957 127.169 111.192 125.761 111.192C123.969 111.192 122.38 110.829 120.993 110.104C119.606 109.357 118.529 108.323 117.761 107C117.014 105.677 116.641 104.184 116.641 102.52C116.641 100.877 117.004 99.3947 117.729 98.072C118.476 96.7493 119.489 95.7253 120.769 95C122.07 94.2533 123.532 93.88 125.153 93.88C126.774 93.88 128.214 94.2533 129.473 95C130.753 95.7253 131.745 96.7493 132.449 98.072C133.174 99.3947 133.537 100.909 133.537 102.616ZM125.153 96.472C123.681 96.472 122.444 96.92 121.441 97.816C120.46 98.712 119.884 99.8853 119.713 101.336H130.593C130.422 99.9067 129.836 98.744 128.833 97.848C127.852 96.9307 126.625 96.472 125.153 96.472ZM162.204 94.04V111H159.292V108.44C158.674 109.315 157.852 109.997 156.828 110.488C155.826 110.957 154.727 111.192 153.532 111.192C151.271 111.192 149.49 110.573 148.188 109.336C146.887 108.077 146.236 106.232 146.236 103.8V94.04H149.308V103.448C149.308 105.091 149.703 106.339 150.492 107.192C151.282 108.024 152.412 108.44 153.884 108.44C155.506 108.44 156.786 107.949 157.724 106.968C158.663 105.987 159.132 104.6 159.132 102.808V94.04H162.204ZM172.917 111.192C171.53 111.192 170.197 111.011 168.917 110.648C167.637 110.264 166.634 109.784 165.909 109.208L167.189 106.776C167.935 107.309 168.842 107.736 169.909 108.056C170.975 108.376 172.053 108.536 173.141 108.536C175.829 108.536 177.173 107.768 177.173 106.232C177.173 105.72 176.991 105.315 176.629 105.016C176.266 104.717 175.807 104.504 175.253 104.376C174.719 104.227 173.951 104.067 172.949 103.896C171.583 103.683 170.463 103.437 169.589 103.16C168.735 102.883 167.999 102.413 167.381 101.752C166.762 101.091 166.453 100.163 166.453 98.968C166.453 97.432 167.093 96.2053 168.373 95.288C169.653 94.3493 171.37 93.88 173.525 93.88C174.655 93.88 175.786 94.0187 176.917 94.296C178.047 94.5733 178.975 94.9467 179.701 95.416L178.389 97.848C177.002 96.952 175.37 96.504 173.493 96.504C172.191 96.504 171.199 96.7173 170.517 97.144C169.834 97.5707 169.493 98.136 169.493 98.84C169.493 99.3947 169.685 99.832 170.069 100.152C170.453 100.472 170.922 100.707 171.477 100.856C172.053 101.005 172.853 101.176 173.877 101.368C175.242 101.603 176.341 101.859 177.173 102.136C178.026 102.392 178.751 102.84 179.349 103.48C179.946 104.12 180.245 105.016 180.245 106.168C180.245 107.704 179.583 108.931 178.261 109.848C176.959 110.744 175.178 111.192 172.917 111.192ZM198.854 93.88C201.2 93.88 202.992 94.456 204.23 95.608C205.488 96.76 206.118 98.4773 206.118 100.76V111H203.206V108.76C202.694 109.549 201.958 110.157 200.998 110.584C200.059 110.989 198.939 111.192 197.638 111.192C195.739 111.192 194.214 110.733 193.062 109.816C191.931 108.899 191.366 107.693 191.366 106.2C191.366 104.707 191.91 103.512 192.998 102.616C194.086 101.699 195.814 101.24 198.182 101.24H203.046V100.632C203.046 99.3093 202.662 98.296 201.894 97.592C201.126 96.888 199.995 96.536 198.502 96.536C197.499 96.536 196.518 96.7067 195.558 97.048C194.598 97.368 193.787 97.8053 193.126 98.36L191.846 96.056C192.72 95.352 193.766 94.8187 194.982 94.456C196.198 94.072 197.488 93.88 198.854 93.88ZM198.15 108.824C199.323 108.824 200.336 108.568 201.19 108.056C202.043 107.523 202.662 106.776 203.046 105.816V103.448H198.31C195.707 103.448 194.406 104.323 194.406 106.072C194.406 106.925 194.736 107.597 195.398 108.088C196.059 108.579 196.976 108.824 198.15 108.824ZM227.788 111.192C226.06 111.192 224.514 110.819 223.148 110.072C221.804 109.325 220.748 108.301 219.98 107C219.212 105.677 218.828 104.184 218.828 102.52C218.828 100.856 219.212 99.3733 219.98 98.072C220.748 96.7493 221.804 95.7253 223.148 95C224.514 94.2533 226.06 93.88 227.788 93.88C229.324 93.88 230.69 94.1893 231.884 94.808C233.1 95.4267 234.039 96.3227 234.7 97.496L232.364 99C231.831 98.1893 231.17 97.5813 230.38 97.176C229.591 96.7707 228.716 96.568 227.756 96.568C226.647 96.568 225.644 96.8133 224.748 97.304C223.874 97.7947 223.18 98.4987 222.668 99.416C222.178 100.312 221.932 101.347 221.932 102.52C221.932 103.715 222.178 104.771 222.668 105.688C223.18 106.584 223.874 107.277 224.748 107.768C225.644 108.259 226.647 108.504 227.756 108.504C228.716 108.504 229.591 108.301 230.38 107.896C231.17 107.491 231.831 106.883 232.364 106.072L234.7 107.544C234.039 108.717 233.1 109.624 231.884 110.264C230.69 110.883 229.324 111.192 227.788 111.192ZM244.854 93.88C247.2 93.88 248.992 94.456 250.23 95.608C251.488 96.76 252.118 98.4773 252.118 100.76V111H249.206V108.76C248.694 109.549 247.958 110.157 246.998 110.584C246.059 110.989 244.939 111.192 243.638 111.192C241.739 111.192 240.214 110.733 239.062 109.816C237.931 108.899 237.366 107.693 237.366 106.2C237.366 104.707 237.91 103.512 238.998 102.616C240.086 101.699 241.814 101.24 244.182 101.24H249.046V100.632C249.046 99.3093 248.662 98.296 247.894 97.592C247.126 96.888 245.995 96.536 244.502 96.536C243.499 96.536 242.518 96.7067 241.558 97.048C240.598 97.368 239.787 97.8053 239.126 98.36L237.846 96.056C238.72 95.352 239.766 94.8187 240.982 94.456C242.198 94.072 243.488 93.88 244.854 93.88ZM244.15 108.824C245.323 108.824 246.336 108.568 247.19 108.056C248.043 107.523 248.662 106.776 249.046 105.816V103.448H244.31C241.707 103.448 240.406 104.323 240.406 106.072C240.406 106.925 240.736 107.597 241.398 108.088C242.059 108.579 242.976 108.824 244.15 108.824ZM257.803 87.256H260.875V111H257.803V87.256ZM266.74 87.256H269.812V111H266.74V87.256Z" fill="#130F26"/>
<path d="M100.682 184.504H89.546V195.384H81.29V184.504H70.218V176.696H81.29V165.816H89.546V176.696H100.682V184.504ZM122.803 157.432C129.075 157.432 133.981 159.352 137.523 163.192C141.064 166.989 142.835 172.472 142.835 179.64C142.835 184.717 141.875 189.069 139.955 192.696C138.077 196.323 135.411 199.075 131.955 200.952C128.499 202.829 124.509 203.768 119.987 203.768C117.597 203.768 115.315 203.512 113.139 203C110.963 202.445 109.107 201.677 107.571 200.696L111.411 193.08C113.587 194.573 116.381 195.32 119.795 195.32C123.592 195.32 126.6 194.211 128.819 191.992C131.037 189.731 132.232 186.488 132.403 182.264C129.715 184.952 126.003 186.296 121.267 186.296C118.408 186.296 115.805 185.72 113.459 184.568C111.112 183.416 109.256 181.795 107.891 179.704C106.525 177.571 105.843 175.117 105.843 172.344C105.843 169.357 106.589 166.733 108.083 164.472C109.576 162.211 111.603 160.483 114.163 159.288C116.765 158.051 119.645 157.432 122.803 157.432ZM123.571 178.552C125.832 178.552 127.667 177.933 129.075 176.696C130.525 175.416 131.251 173.795 131.251 171.832C131.251 169.869 130.547 168.269 129.139 167.032C127.773 165.795 125.875 165.176 123.443 165.176C121.224 165.176 119.411 165.773 118.003 166.968C116.637 168.163 115.955 169.784 115.955 171.832C115.955 173.88 116.637 175.523 118.003 176.76C119.411 177.955 121.267 178.552 123.571 178.552ZM164.714 158.2V203H154.345V166.52H145.386V158.2H164.714ZM221.277 179.448C223.496 180.557 225.181 182.008 226.333 183.8C227.528 185.592 228.125 187.661 228.125 190.008C228.125 192.781 227.336 195.213 225.757 197.304C224.178 199.352 221.96 200.952 219.101 202.104C216.242 203.213 212.936 203.768 209.181 203.768C205.426 203.768 202.12 203.213 199.261 202.104C196.445 200.952 194.248 199.352 192.669 197.304C191.133 195.213 190.365 192.781 190.365 190.008C190.365 187.661 190.941 185.592 192.093 183.8C193.288 182.008 194.973 180.557 197.149 179.448C195.485 178.424 194.205 177.144 193.309 175.608C192.413 174.029 191.965 172.237 191.965 170.232C191.965 167.629 192.69 165.368 194.141 163.448C195.592 161.528 197.618 160.056 200.221 159.032C202.824 157.965 205.81 157.432 209.181 157.432C212.594 157.432 215.602 157.965 218.205 159.032C220.85 160.056 222.898 161.528 224.349 163.448C225.8 165.368 226.525 167.629 226.525 170.232C226.525 172.237 226.077 174.029 225.181 175.608C224.285 177.144 222.984 178.424 221.277 179.448ZM209.181 165.048C207.09 165.048 205.405 165.56 204.125 166.584C202.888 167.565 202.269 168.931 202.269 170.68C202.269 172.387 202.888 173.731 204.125 174.712C205.362 175.693 207.048 176.184 209.181 176.184C211.314 176.184 213.021 175.693 214.301 174.712C215.581 173.731 216.221 172.387 216.221 170.68C216.221 168.931 215.581 167.565 214.301 166.584C213.021 165.56 211.314 165.048 209.181 165.048ZM209.181 196.152C211.784 196.152 213.832 195.576 215.325 194.424C216.861 193.229 217.629 191.651 217.629 189.688C217.629 187.725 216.861 186.168 215.325 185.016C213.832 183.864 211.784 183.288 209.181 183.288C206.621 183.288 204.594 183.864 203.101 185.016C201.608 186.168 200.861 187.725 200.861 189.688C200.861 191.693 201.608 193.272 203.101 194.424C204.594 195.576 206.621 196.152 209.181 196.152ZM253.799 176.44C257.724 177.08 260.732 178.552 262.823 180.856C264.914 183.117 265.959 185.933 265.959 189.304C265.959 191.907 265.276 194.317 263.911 196.536C262.546 198.712 260.455 200.461 257.639 201.784C254.866 203.107 251.452 203.768 247.399 203.768C244.242 203.768 241.127 203.363 238.055 202.552C235.026 201.699 232.444 200.504 230.311 198.968L234.343 191.032C236.05 192.312 238.012 193.315 240.231 194.04C242.492 194.723 244.796 195.064 247.143 195.064C249.746 195.064 251.794 194.573 253.287 193.592C254.78 192.568 255.527 191.139 255.527 189.304C255.527 185.635 252.732 183.8 247.143 183.8H242.407V176.952L251.623 166.52H232.551V158.2H263.911V164.92L253.799 176.44ZM286.49 157.432C292.762 157.432 297.669 159.352 301.21 163.192C304.751 166.989 306.522 172.472 306.522 179.64C306.522 184.717 305.562 189.069 303.642 192.696C301.765 196.323 299.098 199.075 295.642 200.952C292.186 202.829 288.197 203.768 283.674 203.768C281.285 203.768 279.002 203.512 276.826 203C274.65 202.445 272.794 201.677 271.258 200.696L275.098 193.08C277.274 194.573 280.069 195.32 283.482 195.32C287.279 195.32 290.287 194.211 292.506 191.992C294.725 189.731 295.919 186.488 296.09 182.264C293.402 184.952 289.69 186.296 284.954 186.296C282.095 186.296 279.493 185.72 277.146 184.568C274.799 183.416 272.943 181.795 271.578 179.704C270.213 177.571 269.53 175.117 269.53 172.344C269.53 169.357 270.277 166.733 271.77 164.472C273.263 162.211 275.29 160.483 277.85 159.288C280.453 158.051 283.333 157.432 286.49 157.432ZM287.258 178.552C289.519 178.552 291.354 177.933 292.762 176.696C294.213 175.416 294.938 173.795 294.938 171.832C294.938 169.869 294.234 168.269 292.826 167.032C291.461 165.795 289.562 165.176 287.13 165.176C284.911 165.176 283.098 165.773 281.69 166.968C280.325 168.163 279.642 169.784 279.642 171.832C279.642 173.88 280.325 175.523 281.69 176.76C283.098 177.955 284.954 178.552 287.258 178.552ZM344.593 194.552V203H310.737V196.28L328.017 179.96C329.852 178.211 331.089 176.717 331.729 175.48C332.369 174.2 332.689 172.941 332.689 171.704C332.689 169.912 332.07 168.547 330.833 167.608C329.638 166.627 327.868 166.136 325.521 166.136C323.558 166.136 321.788 166.52 320.209 167.288C318.63 168.013 317.308 169.123 316.241 170.616L308.689 165.752C310.438 163.149 312.849 161.123 315.921 159.672C318.993 158.179 322.513 157.432 326.481 157.432C329.809 157.432 332.71 157.987 335.185 159.096C337.702 160.163 339.644 161.699 341.009 163.704C342.417 165.667 343.121 167.992 343.121 170.68C343.121 173.112 342.609 175.395 341.585 177.528C340.561 179.661 338.577 182.093 335.633 184.824L325.329 194.552H344.593ZM379.527 179.448C381.746 180.557 383.431 182.008 384.583 183.8C385.778 185.592 386.375 187.661 386.375 190.008C386.375 192.781 385.586 195.213 384.007 197.304C382.428 199.352 380.21 200.952 377.351 202.104C374.492 203.213 371.186 203.768 367.431 203.768C363.676 203.768 360.37 203.213 357.511 202.104C354.695 200.952 352.498 199.352 350.919 197.304C349.383 195.213 348.615 192.781 348.615 190.008C348.615 187.661 349.191 185.592 350.343 183.8C351.538 182.008 353.223 180.557 355.399 179.448C353.735 178.424 352.455 177.144 351.559 175.608C350.663 174.029 350.215 172.237 350.215 170.232C350.215 167.629 350.94 165.368 352.391 163.448C353.842 161.528 355.868 160.056 358.471 159.032C361.074 157.965 364.06 157.432 367.431 157.432C370.844 157.432 373.852 157.965 376.455 159.032C379.1 160.056 381.148 161.528 382.599 163.448C384.05 165.368 384.775 167.629 384.775 170.232C384.775 172.237 384.327 174.029 383.431 175.608C382.535 177.144 381.234 178.424 379.527 179.448ZM367.431 165.048C365.34 165.048 363.655 165.56 362.375 166.584C361.138 167.565 360.519 168.931 360.519 170.68C360.519 172.387 361.138 173.731 362.375 174.712C363.612 175.693 365.298 176.184 367.431 176.184C369.564 176.184 371.271 175.693 372.551 174.712C373.831 173.731 374.471 172.387 374.471 170.68C374.471 168.931 373.831 167.565 372.551 166.584C371.271 165.56 369.564 165.048 367.431 165.048ZM367.431 196.152C370.034 196.152 372.082 195.576 373.575 194.424C375.111 193.229 375.879 191.651 375.879 189.688C375.879 187.725 375.111 186.168 373.575 185.016C372.082 183.864 370.034 183.288 367.431 183.288C364.871 183.288 362.844 183.864 361.351 185.016C359.858 186.168 359.111 187.725 359.111 189.688C359.111 191.693 359.858 193.272 361.351 194.424C362.844 195.576 364.871 196.152 367.431 196.152ZM412.689 174.904C415.548 174.904 418.15 175.48 420.497 176.632C422.844 177.784 424.7 179.427 426.065 181.56C427.43 183.651 428.113 186.083 428.113 188.856C428.113 191.843 427.366 194.467 425.873 196.728C424.38 198.989 422.332 200.739 419.729 201.976C417.169 203.171 414.31 203.768 411.153 203.768C404.881 203.768 399.974 201.848 396.433 198.008C392.892 194.168 391.121 188.685 391.121 181.56C391.121 176.483 392.081 172.131 394.001 168.504C395.921 164.877 398.588 162.125 402.001 160.248C405.457 158.371 409.446 157.432 413.969 157.432C416.358 157.432 418.641 157.709 420.817 158.264C423.036 158.776 424.913 159.523 426.449 160.504L422.609 168.12C420.39 166.627 417.596 165.88 414.225 165.88C410.428 165.88 407.42 166.989 405.201 169.208C402.982 171.427 401.788 174.648 401.617 178.872C404.262 176.227 407.953 174.904 412.689 174.904ZM410.577 196.024C412.796 196.024 414.588 195.427 415.953 194.232C417.361 193.037 418.065 191.416 418.065 189.368C418.065 187.32 417.361 185.699 415.953 184.504C414.588 183.267 412.753 182.648 410.449 182.648C408.188 182.648 406.332 183.288 404.881 184.568C403.43 185.805 402.705 187.405 402.705 189.368C402.705 191.331 403.409 192.931 404.817 194.168C406.225 195.405 408.145 196.024 410.577 196.024ZM466.693 158.2V164.92L450.053 203H438.789L454.853 166.648H440.005V173.944H430.789V158.2H466.693ZM485.606 175.032C491.921 175.032 496.571 176.291 499.558 178.808C502.587 181.325 504.102 184.696 504.102 188.92C504.102 191.651 503.419 194.147 502.054 196.408C500.689 198.627 498.598 200.419 495.782 201.784C493.009 203.107 489.574 203.768 485.478 203.768C482.321 203.768 479.206 203.363 476.134 202.552C473.105 201.699 470.523 200.504 468.39 198.968L472.486 191.032C474.193 192.312 476.155 193.315 478.374 194.04C480.593 194.723 482.875 195.064 485.222 195.064C487.825 195.064 489.873 194.552 491.366 193.528C492.859 192.504 493.606 191.075 493.606 189.24C493.606 187.32 492.817 185.869 491.238 184.888C489.702 183.907 487.014 183.416 483.174 183.416H471.718L474.022 158.2H501.35V166.52H482.662L481.958 175.032H485.606ZM542.631 158.2V164.92L525.991 203H514.727L530.791 166.648H515.943V173.944H506.727V158.2H542.631ZM561.544 175.032C567.858 175.032 572.509 176.291 575.496 178.808C578.525 181.325 580.04 184.696 580.04 188.92C580.04 191.651 579.357 194.147 577.992 196.408C576.626 198.627 574.536 200.419 571.72 201.784C568.946 203.107 565.512 203.768 561.416 203.768C558.258 203.768 555.144 203.363 552.072 202.552C549.042 201.699 546.461 200.504 544.328 198.968L548.424 191.032C550.13 192.312 552.093 193.315 554.312 194.04C556.53 194.723 558.813 195.064 561.16 195.064C563.762 195.064 565.81 194.552 567.304 193.528C568.797 192.504 569.544 191.075 569.544 189.24C569.544 187.32 568.754 185.869 567.176 184.888C565.64 183.907 562.952 183.416 559.112 183.416H547.656L549.96 158.2H577.288V166.52H558.6L557.896 175.032H561.544Z" fill="#130F26"/>
<path fill-rule="evenodd" clip-rule="evenodd" d="M154.41 529.621C184.993 560.196 191.931 524.825 211.403 544.283C230.176 563.051 240.966 566.811 217.181 590.589C214.202 592.984 195.272 621.789 128.749 555.284C62.2166 488.771 91.0054 469.822 93.4004 466.843C117.243 442.999 120.938 453.852 139.711 472.619C159.183 492.086 123.827 499.047 154.41 529.621Z" fill="#130F26"/>
<defs>
<filter id="filter0_f_222_720" x="161.13" y="91.6314" width="1194.49" height="854.283" filterUnits="userSpaceOnUse" color-interpolation-filters="sRGB">
<feFlood flood-opacity="0" result="BackgroundImageFix"/>
<feBlend mode="normal" in="SourceGraphic" in2="BackgroundImageFix" result="shape"/>
<feGaussianBlur stdDeviation="115.845" result="effect1_foregroundBlur_222_720"/>
</filter>
<filter id="filter1_f_222_720" x="-139.671" y="-268.53" width="1194.49" height="854.283" filterUnits="userSpaceOnUse" color-interpolation-filters="sRGB">
<feFlood flood-opacity="0" result="BackgroundImageFix"/>
<feBlend mode="normal" in="SourceGraphic" in2="BackgroundImageFix" result="shape"/>
<feGaussianBlur stdDeviation="115.845" result="effect1_foregroundBlur_222_720"/>
</filter>
<filter id="filter2_f_222_720" x="784.452" y="-488.261" width="1828.6" height="1254.49" filterUnits="userSpaceOnUse" color-interpolation-filters="sRGB">
<feFlood flood-opacity="0" result="BackgroundImageFix"/>
<feBlend mode="normal" in="SourceGraphic" in2="BackgroundImageFix" result="shape"/>
<feGaussianBlur stdDeviation="148.73" result="effect1_foregroundBlur_222_720"/>
</filter>
<filter id="filter3_f_222_720" x="501.953" y="82.2066" width="1434.9" height="1166.36" filterUnits="userSpaceOnUse" color-interpolation-filters="sRGB">
<feFlood flood-opacity="0" result="BackgroundImageFix"/>
<feBlend mode="normal" in="SourceGraphic" in2="BackgroundImageFix" result="shape"/>
<feGaussianBlur stdDeviation="148.73" result="effect1_foregroundBlur_222_720"/>
</filter>
<filter id="filter4_f_222_720" x="31.35" y="-31.9111" width="1486.2" height="1200.51" filterUnits="userSpaceOnUse" color-interpolation-filters="sRGB">
<feFlood flood-opacity="0" result="BackgroundImageFix"/>
<feBlend mode="normal" in="SourceGraphic" in2="BackgroundImageFix" result="shape"/>
<feGaussianBlur stdDeviation="148.73" result="effect1_foregroundBlur_222_720"/>
</filter>
<filter id="filter5_f_222_720" x="-578.456" y="-95.0356" width="1944.3" height="1465.63" filterUnits="userSpaceOnUse" color-interpolation-filters="sRGB">
<feFlood flood-opacity="0" result="BackgroundImageFix"/>
<feBlend mode="normal" in="SourceGraphic" in2="BackgroundImageFix" result="shape"/>
<feGaussianBlur stdDeviation="148.73" result="effect1_foregroundBlur_222_720"/>
</filter>
<filter id="filter6_f_222_720" x="-42.8531" y="-363.226" width="1533.57" height="1096.79" filterUnits="userSpaceOnUse" color-interpolation-filters="sRGB">
<feFlood flood-opacity="0" result="BackgroundImageFix"/>
<feBlend mode="normal" in="SourceGraphic" in2="BackgroundImageFix" result="shape"/>
<feGaussianBlur stdDeviation="148.73" result="effect1_foregroundBlur_222_720"/>
</filter>
<filter id="filter7_f_222_720" x="-470.068" y="-428.302" width="958.447" height="782.924" filterUnits="userSpaceOnUse" color-interpolation-filters="sRGB">
<feFlood flood-opacity="0" result="BackgroundImageFix"/>
<feBlend mode="normal" in="SourceGraphic" in2="BackgroundImageFix" result="shape"/>
<feGaussianBlur stdDeviation="115.845" result="effect1_foregroundBlur_222_720"/>
</filter>
</defs>
</svg>
