<svg width="559" height="169" viewBox="0 0 559 169" fill="none" xmlns="http://www.w3.org/2000/svg">
<rect y="0.0791016" width="558.478" height="168.842" rx="20.7806" fill="#FEFEFE"/>
<path d="M161.262 52.9855H163.257V58.6586C162.537 59.2543 161.698 59.7115 160.743 60.0301C159.787 60.3487 158.789 60.508 157.75 60.508C156.282 60.508 154.959 60.1894 153.781 59.5521C152.604 58.901 151.675 58.0144 150.996 56.8922C150.332 55.7562 149.999 54.4817 149.999 53.0686C149.999 51.6555 150.332 50.381 150.996 49.245C151.675 48.109 152.604 47.2223 153.781 46.5851C154.973 45.9478 156.309 45.6291 157.792 45.6291C158.955 45.6291 160.008 45.8231 160.95 46.211C161.906 46.5851 162.717 47.1392 163.382 47.8734L162.093 49.1618C160.93 48.0397 159.523 47.4786 157.875 47.4786C156.767 47.4786 155.769 47.7211 154.882 48.2059C154.01 48.677 153.324 49.3419 152.825 50.2009C152.326 51.046 152.077 52.0019 152.077 53.0686C152.077 54.1215 152.326 55.0774 152.825 55.9363C153.324 56.7814 154.01 57.4464 154.882 57.9312C155.769 58.4161 156.76 58.6586 157.854 58.6586C159.156 58.6586 160.292 58.3469 161.262 57.7234V52.9855ZM166.945 49.3281H168.94V60.3418H166.945V49.3281ZM167.942 47.2085C167.554 47.2085 167.229 47.0838 166.966 46.8344C166.716 46.5851 166.592 46.2803 166.592 45.9201C166.592 45.5599 166.716 45.2551 166.966 45.0057C167.229 44.7425 167.554 44.6109 167.942 44.6109C168.33 44.6109 168.649 44.7356 168.898 44.9849C169.161 45.2205 169.293 45.5183 169.293 45.8785C169.293 46.2526 169.161 46.5712 168.898 46.8344C168.649 47.0838 168.33 47.2085 167.942 47.2085ZM182.495 49.3281L177.674 60.3418H175.637L170.816 49.3281H172.894L176.676 58.1598L180.541 49.3281H182.495ZM194.006 54.8973C194.006 55.0497 193.992 55.2506 193.965 55.4999H185.029C185.154 56.4697 185.576 57.2524 186.297 57.8481C187.031 58.43 187.938 58.7209 189.019 58.7209C190.335 58.7209 191.395 58.2776 192.198 57.391L193.3 58.6794C192.801 59.2612 192.177 59.7045 191.429 60.0093C190.695 60.3141 189.871 60.4665 188.956 60.4665C187.793 60.4665 186.761 60.231 185.86 59.7599C184.96 59.2751 184.26 58.6032 183.761 57.7442C183.276 56.8853 183.034 55.9155 183.034 54.8349C183.034 53.7682 183.269 52.8054 183.741 51.9464C184.225 51.0875 184.883 50.4225 185.715 49.9515C186.56 49.4666 187.509 49.2242 188.562 49.2242C189.614 49.2242 190.55 49.4666 191.367 49.9515C192.198 50.4225 192.842 51.0875 193.3 51.9464C193.771 52.8054 194.006 53.789 194.006 54.8973ZM188.562 50.9074C187.606 50.9074 186.802 51.1983 186.151 51.7802C185.514 52.3621 185.14 53.124 185.029 54.0661H192.094C191.983 53.1379 191.603 52.3828 190.951 51.801C190.314 51.2053 189.518 50.9074 188.562 50.9074ZM212.623 49.3281V60.3418H210.732V58.6794C210.33 59.2474 209.796 59.6907 209.131 60.0093C208.48 60.3141 207.767 60.4665 206.991 60.4665C205.523 60.4665 204.366 60.0647 203.521 59.2612C202.676 58.4438 202.253 57.2455 202.253 55.6662V49.3281H204.248V55.4376C204.248 56.5043 204.504 57.3148 205.017 57.8689C205.529 58.4092 206.264 58.6794 207.22 58.6794C208.273 58.6794 209.104 58.3607 209.713 57.7234C210.323 57.0862 210.628 56.1857 210.628 55.022V49.3281H212.623ZM219.579 60.4665C218.679 60.4665 217.813 60.3487 216.981 60.1132C216.15 59.8638 215.499 59.5521 215.028 59.1781L215.859 57.5988C216.344 57.9451 216.933 58.2222 217.626 58.43C218.318 58.6378 219.018 58.7417 219.725 58.7417C221.47 58.7417 222.343 58.243 222.343 57.2455C222.343 56.913 222.225 56.6498 221.99 56.4558C221.754 56.2619 221.456 56.1233 221.096 56.0402C220.75 55.9432 220.251 55.8393 219.6 55.7285C218.713 55.59 217.986 55.4307 217.418 55.2506C216.864 55.0705 216.386 54.7657 215.984 54.3362C215.582 53.9067 215.381 53.3041 215.381 52.5283C215.381 51.5308 215.797 50.7342 216.628 50.1385C217.459 49.529 218.575 49.2242 219.974 49.2242C220.708 49.2242 221.442 49.3142 222.177 49.4943C222.911 49.6744 223.514 49.9169 223.985 50.2217L223.133 51.801C222.232 51.2191 221.172 50.9282 219.953 50.9282C219.108 50.9282 218.464 51.0667 218.021 51.3438C217.577 51.6209 217.356 51.988 217.356 52.4452C217.356 52.8054 217.48 53.0894 217.73 53.2972C217.979 53.505 218.284 53.6574 218.644 53.7544C219.018 53.8513 219.538 53.9622 220.202 54.0868C221.089 54.2392 221.803 54.4055 222.343 54.5856C222.897 54.7518 223.368 55.0427 223.756 55.4584C224.144 55.874 224.338 56.4558 224.338 57.2039C224.338 58.2014 223.908 58.998 223.049 59.5937C222.204 60.1756 221.048 60.4665 219.579 60.4665ZM236.422 49.2242C237.946 49.2242 239.11 49.5982 239.914 50.3463C240.731 51.0944 241.14 52.2097 241.14 53.692V60.3418H239.249V58.8872C238.916 59.3997 238.438 59.7946 237.815 60.0716C237.205 60.3349 236.478 60.4665 235.633 60.4665C234.4 60.4665 233.409 60.1686 232.661 59.5729C231.927 58.9772 231.56 58.1945 231.56 57.2247C231.56 56.2549 231.913 55.4791 232.62 54.8973C233.326 54.3016 234.448 54.0037 235.986 54.0037H239.145V53.6089C239.145 52.75 238.895 52.0919 238.397 51.6347C237.898 51.1776 237.164 50.949 236.194 50.949C235.543 50.949 234.905 51.0598 234.282 51.2815C233.659 51.4893 233.132 51.7733 232.703 52.1335L231.871 50.6373C232.439 50.1801 233.118 49.8338 233.908 49.5982C234.698 49.3489 235.536 49.2242 236.422 49.2242ZM235.965 58.9287C236.727 58.9287 237.385 58.7625 237.939 58.43C238.494 58.0836 238.895 57.5988 239.145 56.9753V55.4376H236.069C234.379 55.4376 233.534 56.0056 233.534 57.1416C233.534 57.6957 233.749 58.1321 234.178 58.4508C234.608 58.7694 235.203 58.9287 235.965 58.9287ZM255.212 60.4665C254.09 60.4665 253.086 60.224 252.199 59.7392C251.326 59.2543 250.641 58.5893 250.142 57.7442C249.643 56.8853 249.394 55.9155 249.394 54.8349C249.394 53.7544 249.643 52.7915 250.142 51.9464C250.641 51.0875 251.326 50.4225 252.199 49.9515C253.086 49.4666 254.09 49.2242 255.212 49.2242C256.21 49.2242 257.097 49.4251 257.872 49.8268C258.662 50.2286 259.272 50.8104 259.701 51.5724L258.184 52.5491C257.838 52.0226 257.408 51.6278 256.896 51.3646C256.383 51.1014 255.815 50.9698 255.192 50.9698C254.471 50.9698 253.82 51.1291 253.238 51.4477C252.67 51.7663 252.22 52.2235 251.888 52.8192C251.569 53.4011 251.41 54.073 251.41 54.8349C251.41 55.6108 251.569 56.2965 251.888 56.8922C252.22 57.4741 252.67 57.9243 253.238 58.243C253.82 58.5616 254.471 58.7209 255.192 58.7209C255.815 58.7209 256.383 58.5893 256.896 58.3261C257.408 58.0629 257.838 57.668 258.184 57.1416L259.701 58.0975C259.272 58.8594 258.662 59.4482 257.872 59.8638C257.097 60.2656 256.21 60.4665 255.212 60.4665ZM266.294 49.2242C267.818 49.2242 268.982 49.5982 269.786 50.3463C270.603 51.0944 271.012 52.2097 271.012 53.692V60.3418H269.121V58.8872C268.788 59.3997 268.31 59.7946 267.687 60.0716C267.077 60.3349 266.35 60.4665 265.505 60.4665C264.272 60.4665 263.281 60.1686 262.533 59.5729C261.799 58.9772 261.432 58.1945 261.432 57.2247C261.432 56.2549 261.785 55.4791 262.492 54.8973C263.198 54.3016 264.32 54.0037 265.858 54.0037H269.017V53.6089C269.017 52.75 268.767 52.0919 268.269 51.6347C267.77 51.1776 267.036 50.949 266.066 50.949C265.415 50.949 264.777 51.0598 264.154 51.2815C263.531 51.4893 263.004 51.7733 262.575 52.1335L261.744 50.6373C262.312 50.1801 262.99 49.8338 263.78 49.5982C264.57 49.3489 265.408 49.2242 266.294 49.2242ZM265.837 58.9287C266.599 58.9287 267.257 58.7625 267.811 58.43C268.366 58.0836 268.767 57.5988 269.017 56.9753V55.4376H265.941C264.251 55.4376 263.406 56.0056 263.406 57.1416C263.406 57.6957 263.621 58.1321 264.05 58.4508C264.48 58.7694 265.075 58.9287 265.837 58.9287ZM274.703 44.9226H276.698V60.3418H274.703V44.9226ZM280.507 44.9226H282.502V60.3418H280.507V44.9226Z" fill="#130F26"/>
<path d="M171.112 106.645H163.88V113.71H158.519V106.645H151.329V101.574H158.519V94.5087H163.88V101.574H171.112V106.645ZM185.477 89.0642C189.55 89.0642 192.736 90.3111 195.036 92.8047C197.336 95.2707 198.486 98.8311 198.486 103.486C198.486 106.783 197.862 109.609 196.615 111.964C195.396 114.32 193.664 116.107 191.42 117.326C189.176 118.545 186.585 119.154 183.648 119.154C182.097 119.154 180.614 118.988 179.201 118.656C177.788 118.296 176.583 117.797 175.585 117.16L178.079 112.214C179.492 113.184 181.307 113.668 183.524 113.668C185.99 113.668 187.943 112.948 189.384 111.507C190.824 110.039 191.6 107.933 191.711 105.19C189.966 106.936 187.555 107.808 184.479 107.808C182.623 107.808 180.933 107.434 179.409 106.686C177.885 105.938 176.68 104.885 175.793 103.527C174.907 102.142 174.463 100.549 174.463 98.748C174.463 96.8084 174.948 95.1044 175.918 93.6359C176.888 92.1674 178.204 91.0453 179.866 90.2695C181.556 89.466 183.427 89.0642 185.477 89.0642ZM185.976 102.779C187.444 102.779 188.636 102.378 189.55 101.574C190.492 100.743 190.963 99.69 190.963 98.4155C190.963 97.1409 190.506 96.1019 189.591 95.2984C188.705 94.4949 187.472 94.0931 185.893 94.0931C184.452 94.0931 183.274 94.481 182.36 95.2568C181.473 96.0326 181.03 97.0855 181.03 98.4155C181.03 99.7454 181.473 100.812 182.36 101.616C183.274 102.391 184.479 102.779 185.976 102.779ZM212.694 89.5629V118.656H205.961V94.9659H200.142V89.5629H212.694ZM249.426 103.361C250.866 104.082 251.961 105.024 252.709 106.187C253.485 107.351 253.873 108.695 253.873 110.219C253.873 112.02 253.36 113.599 252.335 114.957C251.31 116.287 249.869 117.326 248.013 118.074C246.156 118.794 244.009 119.154 241.571 119.154C239.132 119.154 236.985 118.794 235.129 118.074C233.3 117.326 231.873 116.287 230.848 114.957C229.85 113.599 229.352 112.02 229.352 110.219C229.352 108.695 229.726 107.351 230.474 106.187C231.25 105.024 232.344 104.082 233.757 103.361C232.676 102.696 231.845 101.865 231.263 100.868C230.682 99.8424 230.391 98.6787 230.391 97.3764C230.391 95.6863 230.862 94.2178 231.804 92.971C232.746 91.7241 234.062 90.7682 235.752 90.1032C237.442 89.4106 239.382 89.0642 241.571 89.0642C243.787 89.0642 245.741 89.4106 247.431 90.1032C249.149 90.7682 250.478 91.7241 251.421 92.971C252.363 94.2178 252.834 95.6863 252.834 97.3764C252.834 98.6787 252.543 99.8424 251.961 100.868C251.379 101.865 250.534 102.696 249.426 103.361ZM241.571 94.01C240.213 94.01 239.118 94.3425 238.287 95.0075C237.484 95.6447 237.082 96.5314 237.082 97.6674C237.082 98.7757 237.484 99.6485 238.287 100.286C239.091 100.923 240.185 101.242 241.571 101.242C242.956 101.242 244.064 100.923 244.895 100.286C245.727 99.6485 246.142 98.7757 246.142 97.6674C246.142 96.5314 245.727 95.6447 244.895 95.0075C244.064 94.3425 242.956 94.01 241.571 94.01ZM241.571 114.209C243.261 114.209 244.591 113.835 245.56 113.087C246.558 112.311 247.057 111.286 247.057 110.011C247.057 108.736 246.558 107.725 245.56 106.977C244.591 106.229 243.261 105.855 241.571 105.855C239.908 105.855 238.592 106.229 237.622 106.977C236.652 107.725 236.168 108.736 236.168 110.011C236.168 111.313 236.652 112.338 237.622 113.087C238.592 113.835 239.908 114.209 241.571 114.209ZM278.691 113.17V118.656H256.705V114.292L267.927 103.694C269.118 102.558 269.922 101.588 270.337 100.784C270.753 99.9532 270.961 99.1359 270.961 98.3324C270.961 97.1686 270.559 96.282 269.756 95.6724C268.98 95.0352 267.83 94.7165 266.306 94.7165C265.031 94.7165 263.882 94.9659 262.856 95.4646C261.831 95.9357 260.972 96.6561 260.28 97.6258L255.375 94.4672C256.511 92.777 258.077 91.4609 260.072 90.5189C262.067 89.5491 264.353 89.0642 266.929 89.0642C269.091 89.0642 270.975 89.4244 272.582 90.1448C274.216 90.8375 275.477 91.835 276.364 93.1372C277.278 94.4118 277.735 95.9218 277.735 97.6674C277.735 99.2467 277.403 100.729 276.738 102.114C276.073 103.5 274.784 105.079 272.873 106.852L266.181 113.17H278.691ZM304.164 89.5629V93.9269L293.358 118.656H286.043L296.475 95.049H286.833V99.787H280.848V89.5629H304.164ZM320.467 101.408C323.016 101.823 324.97 102.779 326.327 104.276C327.685 105.744 328.364 107.573 328.364 109.762C328.364 111.452 327.921 113.017 327.034 114.458C326.147 115.871 324.79 117.007 322.961 117.866C321.16 118.725 318.943 119.154 316.311 119.154C314.261 119.154 312.238 118.891 310.243 118.365C308.276 117.811 306.6 117.035 305.214 116.037L307.833 110.884C308.941 111.715 310.216 112.366 311.656 112.837C313.125 113.281 314.621 113.502 316.145 113.502C317.835 113.502 319.165 113.184 320.135 112.546C321.105 111.881 321.589 110.953 321.589 109.762C321.589 107.379 319.775 106.187 316.145 106.187H313.069V101.74L319.054 94.9659H306.669V89.5629H327.034V93.9269L320.467 101.408ZM341.697 89.0642C345.77 89.0642 348.956 90.3111 351.256 92.8047C353.555 95.2707 354.705 98.8311 354.705 103.486C354.705 106.783 354.082 109.609 352.835 111.964C351.616 114.32 349.884 116.107 347.64 117.326C345.395 118.545 342.805 119.154 339.868 119.154C338.316 119.154 336.834 118.988 335.421 118.656C334.008 118.296 332.802 117.797 331.805 117.16L334.299 112.214C335.712 113.184 337.527 113.668 339.743 113.668C342.209 113.668 344.163 112.948 345.603 111.507C347.044 110.039 347.82 107.933 347.931 105.19C346.185 106.936 343.775 107.808 340.699 107.808C338.843 107.808 337.153 107.434 335.629 106.686C334.105 105.938 332.899 104.885 332.013 103.527C331.126 102.142 330.683 100.549 330.683 98.748C330.683 96.8084 331.168 95.1044 332.137 93.6359C333.107 92.1674 334.423 91.0453 336.086 90.2695C337.776 89.466 339.646 89.0642 341.697 89.0642ZM342.195 102.779C343.664 102.779 344.855 102.378 345.77 101.574C346.712 100.743 347.183 99.69 347.183 98.4155C347.183 97.1409 346.725 96.1019 345.811 95.2984C344.924 94.4949 343.691 94.0931 342.112 94.0931C340.671 94.0931 339.494 94.481 338.579 95.2568C337.693 96.0326 337.25 97.0855 337.25 98.4155C337.25 99.7454 337.693 100.812 338.579 101.616C339.494 102.391 340.699 102.779 342.195 102.779ZM368.159 89.0642C372.232 89.0642 375.419 90.3111 377.718 92.8047C380.018 95.2707 381.168 98.8311 381.168 103.486C381.168 106.783 380.545 109.609 379.298 111.964C378.079 114.32 376.347 116.107 374.103 117.326C371.858 118.545 369.268 119.154 366.331 119.154C364.779 119.154 363.297 118.988 361.884 118.656C360.471 118.296 359.265 117.797 358.268 117.16L360.761 112.214C362.175 113.184 363.989 113.668 366.206 113.668C368.672 113.668 370.625 112.948 372.066 111.507C373.507 110.039 374.283 107.933 374.393 105.19C372.648 106.936 370.237 107.808 367.162 107.808C365.305 107.808 363.615 107.434 362.091 106.686C360.567 105.938 359.362 104.885 358.476 103.527C357.589 102.142 357.146 100.549 357.146 98.748C357.146 96.8084 357.63 95.1044 358.6 93.6359C359.57 92.1674 360.886 91.0453 362.549 90.2695C364.239 89.466 366.109 89.0642 368.159 89.0642ZM368.658 102.779C370.127 102.779 371.318 102.378 372.232 101.574C373.174 100.743 373.645 99.69 373.645 98.4155C373.645 97.1409 373.188 96.1019 372.274 95.2984C371.387 94.4949 370.154 94.0931 368.575 94.0931C367.134 94.0931 365.957 94.481 365.042 95.2568C364.156 96.0326 363.712 97.0855 363.712 98.4155C363.712 99.7454 364.156 100.812 365.042 101.616C365.957 102.391 367.162 102.779 368.658 102.779ZM394.373 100.494C398.473 100.494 401.494 101.311 403.433 102.946C405.4 104.58 406.384 106.769 406.384 109.512C406.384 111.286 405.941 112.906 405.054 114.375C404.167 115.816 402.81 116.979 400.981 117.866C399.18 118.725 396.95 119.154 394.29 119.154C392.239 119.154 390.217 118.891 388.222 118.365C386.254 117.811 384.578 117.035 383.193 116.037L385.853 110.884C386.961 111.715 388.236 112.366 389.676 112.837C391.117 113.281 392.599 113.502 394.123 113.502C395.814 113.502 397.143 113.17 398.113 112.505C399.083 111.84 399.568 110.912 399.568 109.72C399.568 108.473 399.055 107.531 398.03 106.894C397.033 106.257 395.287 105.938 392.793 105.938H385.354L386.85 89.5629H404.597V94.9659H392.461L392.004 100.494H394.373ZM419.34 89.0642C423.413 89.0642 426.599 90.3111 428.899 92.8047C431.198 95.2707 432.348 98.8311 432.348 103.486C432.348 106.783 431.725 109.609 430.478 111.964C429.259 114.32 427.527 116.107 425.283 117.326C423.039 118.545 420.448 119.154 417.511 119.154C415.959 119.154 414.477 118.988 413.064 118.656C411.651 118.296 410.446 117.797 409.448 117.16L411.942 112.214C413.355 113.184 415.17 113.668 417.386 113.668C419.852 113.668 421.806 112.948 423.246 111.507C424.687 110.039 425.463 107.933 425.574 105.19C423.828 106.936 421.418 107.808 418.342 107.808C416.486 107.808 414.796 107.434 413.272 106.686C411.748 105.938 410.543 104.885 409.656 103.527C408.769 102.142 408.326 100.549 408.326 98.748C408.326 96.8084 408.811 95.1044 409.781 93.6359C410.75 92.1674 412.066 91.0453 413.729 90.2695C415.419 89.466 417.289 89.0642 419.34 89.0642ZM419.838 102.779C421.307 102.779 422.498 102.378 423.413 101.574C424.355 100.743 424.826 99.69 424.826 98.4155C424.826 97.1409 424.369 96.1019 423.454 95.2984C422.568 94.4949 421.335 94.0931 419.755 94.0931C418.314 94.0931 417.137 94.481 416.223 95.2568C415.336 96.0326 414.893 97.0855 414.893 98.4155C414.893 99.7454 415.336 100.812 416.223 101.616C417.137 102.391 418.342 102.779 419.838 102.779ZM455.486 103.361C456.927 104.082 458.021 105.024 458.769 106.187C459.545 107.351 459.933 108.695 459.933 110.219C459.933 112.02 459.421 113.599 458.395 114.957C457.37 116.287 455.929 117.326 454.073 118.074C452.217 118.794 450.069 119.154 447.631 119.154C445.193 119.154 443.045 118.794 441.189 118.074C439.36 117.326 437.933 116.287 436.908 114.957C435.911 113.599 435.412 112.02 435.412 110.219C435.412 108.695 435.786 107.351 436.534 106.187C437.31 105.024 438.405 104.082 439.818 103.361C438.737 102.696 437.906 101.865 437.324 100.868C436.742 99.8424 436.451 98.6787 436.451 97.3764C436.451 95.6863 436.922 94.2178 437.864 92.971C438.806 91.7241 440.122 90.7682 441.813 90.1032C443.503 89.4106 445.442 89.0642 447.631 89.0642C449.848 89.0642 451.801 89.4106 453.491 90.1032C455.209 90.7682 456.539 91.7241 457.481 92.971C458.423 94.2178 458.894 95.6863 458.894 97.3764C458.894 98.6787 458.603 99.8424 458.021 100.868C457.44 101.865 456.594 102.696 455.486 103.361ZM447.631 94.01C446.273 94.01 445.179 94.3425 444.348 95.0075C443.544 95.6447 443.142 96.5314 443.142 97.6674C443.142 98.7757 443.544 99.6485 444.348 100.286C445.151 100.923 446.246 101.242 447.631 101.242C449.016 101.242 450.125 100.923 450.956 100.286C451.787 99.6485 452.203 98.7757 452.203 97.6674C452.203 96.5314 451.787 95.6447 450.956 95.0075C450.125 94.3425 449.016 94.01 447.631 94.01ZM447.631 114.209C449.321 114.209 450.651 113.835 451.621 113.087C452.618 112.311 453.117 111.286 453.117 110.011C453.117 108.736 452.618 107.725 451.621 106.977C450.651 106.229 449.321 105.855 447.631 105.855C445.969 105.855 444.653 106.229 443.683 106.977C442.713 107.725 442.228 108.736 442.228 110.011C442.228 111.313 442.713 112.338 443.683 113.087C444.653 113.835 445.969 114.209 447.631 114.209ZM474.237 89.5629V118.656H467.504V94.9659H461.685V89.5629H474.237Z" fill="#130F26"/>
<circle opacity="0.1" cx="76.953" cy="84.5002" r="40.2624" fill="#130F26"/>
<path fill-rule="evenodd" clip-rule="evenodd" d="M76.3591 85.346C83.4974 92.4822 85.1167 84.2264 89.6617 88.7681C94.0433 93.1486 96.5617 94.0262 91.0102 99.5762C90.3148 100.135 85.8966 106.858 70.3696 91.3357C54.8407 75.8111 61.5602 71.3884 62.1192 70.6932C67.6842 65.1279 68.5467 67.6609 72.9283 72.0414C77.4733 76.5851 69.2209 78.2097 76.3591 85.346Z" fill="#130F26"/>
</svg>
