<svg width="789" height="169" viewBox="0 0 789 169" fill="none" xmlns="http://www.w3.org/2000/svg">
<rect x="0.63678" y="0.0791016" width="788.363" height="168.842" rx="20.7806" fill="#FEFEFE"/>
<path d="M157.787 59.8577C156.318 59.8577 154.995 59.539 153.818 58.9017C152.64 58.2506 151.712 57.3571 151.033 56.221C150.368 55.085 150.036 53.8174 150.036 52.4182C150.036 51.019 150.368 49.7514 151.033 48.6154C151.712 47.4794 152.64 46.5927 153.818 45.9554C154.995 45.3043 156.318 44.9788 157.787 44.9788C159.241 44.9788 160.558 45.3043 161.735 45.9554C162.913 46.5927 163.834 47.4794 164.499 48.6154C165.164 49.7375 165.496 51.0051 165.496 52.4182C165.496 53.8313 165.164 55.1058 164.499 56.2418C163.834 57.364 162.913 58.2506 161.735 58.9017C160.558 59.539 159.241 59.8577 157.787 59.8577ZM157.787 58.0082C158.854 58.0082 159.809 57.7657 160.655 57.2809C161.513 56.796 162.185 56.131 162.67 55.2859C163.169 54.427 163.418 53.4711 163.418 52.4182C163.418 51.3653 163.169 50.4163 162.67 49.5713C162.185 48.7123 161.513 48.0404 160.655 47.5555C159.809 47.0707 158.854 46.8282 157.787 46.8282C156.72 46.8282 155.75 47.0707 154.878 47.5555C154.019 48.0404 153.34 48.7123 152.841 49.5713C152.356 50.4163 152.114 51.3653 152.114 52.4182C152.114 53.4711 152.356 54.427 152.841 55.2859C153.34 56.131 154.019 56.796 154.878 57.2809C155.75 57.7657 156.72 58.0082 157.787 58.0082ZM170.293 50.5272C170.64 49.8899 171.152 49.405 171.831 49.0725C172.51 48.74 173.334 48.5738 174.304 48.5738V50.5064C174.193 50.4925 174.041 50.4856 173.847 50.4856C172.766 50.4856 171.914 50.8112 171.291 51.4623C170.681 52.0996 170.377 53.0139 170.377 54.2053V59.6914H168.382V48.6777H170.293V50.5272ZM192.44 54.2469C192.44 54.3993 192.426 54.6002 192.398 54.8495H183.462C183.587 55.8193 184.01 56.602 184.73 57.1977C185.464 57.7796 186.372 58.0705 187.452 58.0705C188.768 58.0705 189.828 57.6272 190.632 56.7406L191.733 58.029C191.234 58.6108 190.611 59.0541 189.863 59.3589C189.129 59.6637 188.304 59.8161 187.39 59.8161C186.226 59.8161 185.194 59.5806 184.294 59.1096C183.393 58.6247 182.693 57.9528 182.195 57.0938C181.71 56.2349 181.467 55.2651 181.467 54.1846C181.467 53.1178 181.703 52.155 182.174 51.2961C182.659 50.4371 183.317 49.7721 184.148 49.3011C184.993 48.8162 185.942 48.5738 186.995 48.5738C188.048 48.5738 188.983 48.8162 189.8 49.3011C190.632 49.7721 191.276 50.4371 191.733 51.2961C192.204 52.155 192.44 53.1386 192.44 54.2469ZM186.995 50.257C186.039 50.257 185.236 50.548 184.585 51.1298C183.947 51.7117 183.573 52.4736 183.462 53.4157H190.528C190.417 52.4875 190.036 51.7324 189.385 51.1506C188.748 50.5549 187.951 50.257 186.995 50.257ZM208.987 48.5738C210.373 48.5738 211.467 48.9756 212.271 49.7791C213.088 50.5826 213.497 51.774 213.497 53.3533V59.6914H211.502V53.5819C211.502 52.5152 211.252 51.7117 210.754 51.1714C210.269 50.6311 209.569 50.3609 208.655 50.3609C207.643 50.3609 206.84 50.6796 206.244 51.3168C205.648 51.9403 205.351 52.8407 205.351 54.0183V59.6914H203.356V53.5819C203.356 52.5152 203.106 51.7117 202.608 51.1714C202.123 50.6311 201.423 50.3609 200.509 50.3609C199.497 50.3609 198.694 50.6796 198.098 51.3168C197.502 51.9403 197.205 52.8407 197.205 54.0183V59.6914H195.21V48.6777H197.122V50.3194C197.523 49.7514 198.05 49.3219 198.701 49.031C199.352 48.7262 200.093 48.5738 200.924 48.5738C201.783 48.5738 202.545 48.747 203.21 49.0933C203.875 49.4397 204.388 49.9453 204.748 50.6103C205.164 49.973 205.739 49.4743 206.473 49.1141C207.221 48.7539 208.059 48.5738 208.987 48.5738ZM221.178 48.5738C222.702 48.5738 223.866 48.9478 224.669 49.6959C225.486 50.444 225.895 51.5593 225.895 53.0416V59.6914H224.004V58.2368C223.672 58.7494 223.194 59.1442 222.57 59.4213C221.961 59.6845 221.233 59.8161 220.388 59.8161C219.155 59.8161 218.165 59.5182 217.417 58.9225C216.682 58.3268 216.315 57.5441 216.315 56.5743C216.315 55.6046 216.669 54.8288 217.375 54.2469C218.082 53.6512 219.204 53.3533 220.742 53.3533H223.9V52.9585C223.9 52.0996 223.651 51.4415 223.152 50.9843C222.653 50.5272 221.919 50.2986 220.949 50.2986C220.298 50.2986 219.661 50.4094 219.038 50.6311C218.414 50.8389 217.888 51.1229 217.458 51.4831L216.627 49.9869C217.195 49.5297 217.874 49.1834 218.664 48.9478C219.453 48.6985 220.291 48.5738 221.178 48.5738ZM220.721 58.2783C221.483 58.2783 222.141 58.1121 222.695 57.7796C223.249 57.4332 223.651 56.9484 223.9 56.325V54.7872H220.825C219.135 54.7872 218.289 55.3552 218.289 56.4912C218.289 57.0453 218.504 57.4817 218.934 57.8004C219.363 58.119 219.959 58.2783 220.721 58.2783ZM229.587 48.6777H231.582V59.6914H229.587V48.6777ZM230.584 46.5581C230.197 46.5581 229.871 46.4334 229.608 46.184C229.358 45.9347 229.234 45.6299 229.234 45.2697C229.234 44.9095 229.358 44.6047 229.608 44.3553C229.871 44.0921 230.197 43.9605 230.584 43.9605C230.972 43.9605 231.291 44.0852 231.54 44.3346C231.804 44.5701 231.935 44.8679 231.935 45.2281C231.935 45.6022 231.804 45.9208 231.54 46.184C231.291 46.4334 230.972 46.5581 230.584 46.5581ZM235.391 44.2722H237.386V59.6914H235.391V44.2722ZM257.041 48.6777V59.6914H255.15V58.029C254.748 58.597 254.215 59.0403 253.55 59.3589C252.899 59.6637 252.185 59.8161 251.41 59.8161C249.941 59.8161 248.784 59.4143 247.939 58.6108C247.094 57.7934 246.672 56.5951 246.672 55.0158V48.6777H248.667V54.7872C248.667 55.8539 248.923 56.6644 249.435 57.2185C249.948 57.7588 250.682 58.029 251.638 58.029C252.691 58.029 253.522 57.7103 254.132 57.0731C254.741 56.4358 255.046 55.5353 255.046 54.3716V48.6777H257.041ZM263.998 59.8161C263.097 59.8161 262.231 59.6983 261.4 59.4628C260.569 59.2135 259.918 58.9017 259.447 58.5277L260.278 56.9484C260.763 57.2947 261.352 57.5718 262.044 57.7796C262.737 57.9874 263.437 58.0913 264.143 58.0913C265.889 58.0913 266.761 57.5926 266.761 56.5951C266.761 56.2626 266.644 55.9994 266.408 55.8054C266.173 55.6115 265.875 55.4729 265.515 55.3898C265.168 55.2929 264.67 55.1889 264.018 55.0781C263.132 54.9396 262.404 54.7803 261.836 54.6002C261.282 54.4201 260.804 54.1153 260.403 53.6858C260.001 53.2564 259.8 52.6537 259.8 51.8779C259.8 50.8804 260.216 50.0839 261.047 49.4881C261.878 48.8786 262.993 48.5738 264.392 48.5738C265.127 48.5738 265.861 48.6638 266.595 48.8439C267.329 49.024 267.932 49.2665 268.403 49.5713L267.551 51.1506C266.651 50.5687 265.591 50.2778 264.372 50.2778C263.527 50.2778 262.882 50.4163 262.439 50.6934C261.996 50.9705 261.774 51.3376 261.774 51.7948C261.774 52.155 261.899 52.439 262.148 52.6468C262.398 52.8546 262.702 53.007 263.063 53.104C263.437 53.2009 263.956 53.3118 264.621 53.4365C265.508 53.5888 266.221 53.7551 266.761 53.9352C267.316 54.1014 267.787 54.3924 268.175 54.808C268.562 55.2236 268.756 55.8054 268.756 56.5535C268.756 57.551 268.327 58.3476 267.468 58.9433C266.623 59.5252 265.466 59.8161 263.998 59.8161Z" fill="#130F26"/>
<path d="M160.852 95.314C164.316 95.314 166.976 96.1452 168.832 97.8076C170.688 99.4424 171.617 101.922 171.617 105.247V118.006H165.549V115.222C164.329 117.3 162.057 118.339 158.733 118.339C157.015 118.339 155.519 118.048 154.244 117.466C152.997 116.884 152.041 116.081 151.376 115.056C150.711 114.03 150.379 112.867 150.379 111.564C150.379 109.486 151.155 107.852 152.706 106.66C154.286 105.469 156.71 104.873 159.979 104.873H165.133C165.133 103.46 164.704 102.379 163.845 101.631C162.986 100.855 161.697 100.468 159.979 100.468C158.788 100.468 157.61 100.661 156.447 101.049C155.311 101.41 154.341 101.908 153.537 102.546L151.21 98.0154C152.429 97.1565 153.884 96.4915 155.574 96.0205C157.292 95.5495 159.051 95.314 160.852 95.314ZM160.353 113.975C161.462 113.975 162.445 113.726 163.304 113.227C164.163 112.7 164.773 111.938 165.133 110.941V108.655H160.686C158.026 108.655 156.696 109.528 156.696 111.273C156.696 112.105 157.015 112.77 157.652 113.268C158.317 113.739 159.217 113.975 160.353 113.975ZM200.794 95.6464V114.266C200.794 118.367 199.728 121.414 197.594 123.409C195.461 125.404 192.344 126.402 188.243 126.402C186.082 126.402 184.031 126.138 182.092 125.612C180.152 125.086 178.545 124.324 177.271 123.326L179.848 118.671C180.79 119.447 181.981 120.057 183.422 120.5C184.863 120.971 186.303 121.207 187.744 121.207C189.989 121.207 191.637 120.694 192.69 119.669C193.771 118.671 194.311 117.147 194.311 115.097V114.141C192.621 115.998 190.266 116.926 187.245 116.926C185.195 116.926 183.311 116.482 181.593 115.596C179.903 114.681 178.559 113.407 177.562 111.772C176.564 110.137 176.066 108.253 176.066 106.12C176.066 103.986 176.564 102.102 177.562 100.468C178.559 98.8328 179.903 97.5721 181.593 96.6855C183.311 95.7711 185.195 95.314 187.245 95.314C190.487 95.314 192.953 96.3807 194.643 98.5142V95.6464H200.794ZM188.534 111.606C190.252 111.606 191.651 111.107 192.732 110.11C193.84 109.085 194.394 107.755 194.394 106.12C194.394 104.485 193.84 103.169 192.732 102.172C191.651 101.146 190.252 100.634 188.534 100.634C186.816 100.634 185.403 101.146 184.295 102.172C183.186 103.169 182.632 104.485 182.632 106.12C182.632 107.755 183.186 109.085 184.295 110.11C185.403 111.107 186.816 111.606 188.534 111.606ZM215.848 95.314C219.311 95.314 221.971 96.1452 223.827 97.8076C225.684 99.4424 226.612 101.922 226.612 105.247V118.006H220.544V115.222C219.325 117.3 217.053 118.339 213.728 118.339C212.01 118.339 210.514 118.048 209.239 117.466C207.993 116.884 207.037 116.081 206.372 115.056C205.707 114.03 205.374 112.867 205.374 111.564C205.374 109.486 206.15 107.852 207.702 106.66C209.281 105.469 211.705 104.873 214.975 104.873H220.128C220.128 103.46 219.699 102.379 218.84 101.631C217.981 100.855 216.693 100.468 214.975 100.468C213.783 100.468 212.606 100.661 211.442 101.049C210.306 101.41 209.336 101.908 208.533 102.546L206.205 98.0154C207.425 97.1565 208.879 96.4915 210.569 96.0205C212.287 95.5495 214.047 95.314 215.848 95.314ZM215.349 113.975C216.457 113.975 217.441 113.726 218.3 113.227C219.159 112.7 219.768 111.938 220.128 110.941V108.655H215.681C213.022 108.655 211.692 109.528 211.692 111.273C211.692 112.105 212.01 112.77 212.647 113.268C213.312 113.739 214.213 113.975 215.349 113.975ZM261.116 95.314C263.914 95.314 266.131 96.1452 267.765 97.8076C269.428 99.4424 270.259 101.908 270.259 105.206V118.006H263.775V106.203C263.775 104.43 263.401 103.114 262.653 102.255C261.933 101.368 260.894 100.925 259.536 100.925C258.012 100.925 256.807 101.423 255.92 102.421C255.034 103.391 254.59 104.845 254.59 106.785V118.006H248.107V106.203C248.107 102.684 246.694 100.925 243.868 100.925C242.371 100.925 241.18 101.423 240.293 102.421C239.407 103.391 238.963 104.845 238.963 106.785V118.006H232.48V95.6464H238.673V98.2232C239.504 97.2812 240.515 96.5608 241.707 96.0621C242.926 95.5633 244.256 95.314 245.696 95.314C247.276 95.314 248.703 95.6326 249.977 96.2699C251.252 96.8794 252.277 97.7799 253.053 98.9713C253.967 97.8076 255.117 96.9071 256.502 96.2699C257.915 95.6326 259.453 95.314 261.116 95.314ZM285.089 95.314C288.553 95.314 291.213 96.1452 293.069 97.8076C294.925 99.4424 295.854 101.922 295.854 105.247V118.006H289.786V115.222C288.567 117.3 286.294 118.339 282.97 118.339C281.252 118.339 279.756 118.048 278.481 117.466C277.234 116.884 276.278 116.081 275.613 115.056C274.948 114.03 274.616 112.867 274.616 111.564C274.616 109.486 275.392 107.852 276.943 106.66C278.523 105.469 280.947 104.873 284.216 104.873H289.37C289.37 103.46 288.941 102.379 288.082 101.631C287.223 100.855 285.934 100.468 284.216 100.468C283.025 100.468 281.847 100.661 280.684 101.049C279.548 101.41 278.578 101.908 277.774 102.546L275.447 98.0154C276.666 97.1565 278.121 96.4915 279.811 96.0205C281.529 95.5495 283.288 95.314 285.089 95.314ZM284.59 113.975C285.699 113.975 286.682 113.726 287.541 113.227C288.4 112.7 289.01 111.938 289.37 110.941V108.655H284.923C282.263 108.655 280.933 109.528 280.933 111.273C280.933 112.105 281.252 112.77 281.889 113.268C282.554 113.739 283.454 113.975 284.59 113.975ZM325.031 95.6464V114.266C325.031 118.367 323.965 121.414 321.831 123.409C319.698 125.404 316.581 126.402 312.48 126.402C310.319 126.402 308.268 126.138 306.329 125.612C304.389 125.086 302.782 124.324 301.508 123.326L304.085 118.671C305.027 119.447 306.218 120.057 307.659 120.5C309.1 120.971 310.54 121.207 311.981 121.207C314.226 121.207 315.874 120.694 316.927 119.669C318.008 118.671 318.548 117.147 318.548 115.097V114.141C316.858 115.998 314.503 116.926 311.483 116.926C309.432 116.926 307.548 116.482 305.83 115.596C304.14 114.681 302.796 113.407 301.799 111.772C300.801 110.137 300.303 108.253 300.303 106.12C300.303 103.986 300.801 102.102 301.799 100.468C302.796 98.8328 304.14 97.5721 305.83 96.6855C307.548 95.7711 309.432 95.314 311.483 95.314C314.724 95.314 317.19 96.3807 318.88 98.5142V95.6464H325.031ZM312.771 111.606C314.489 111.606 315.888 111.107 316.969 110.11C318.077 109.085 318.631 107.755 318.631 106.12C318.631 104.485 318.077 103.169 316.969 102.172C315.888 101.146 314.489 100.634 312.771 100.634C311.053 100.634 309.64 101.146 308.532 102.172C307.423 103.169 306.869 104.485 306.869 106.12C306.869 107.755 307.423 109.085 308.532 110.11C309.64 111.107 311.053 111.606 312.771 111.606ZM340.085 95.314C343.548 95.314 346.208 96.1452 348.064 97.8076C349.921 99.4424 350.849 101.922 350.849 105.247V118.006H344.781V115.222C343.562 117.3 341.29 118.339 337.965 118.339C336.247 118.339 334.751 118.048 333.476 117.466C332.23 116.884 331.274 116.081 330.609 115.056C329.944 114.03 329.611 112.867 329.611 111.564C329.611 109.486 330.387 107.852 331.939 106.66C333.518 105.469 335.942 104.873 339.212 104.873H344.365C344.365 103.46 343.936 102.379 343.077 101.631C342.218 100.855 340.93 100.468 339.212 100.468C338.02 100.468 336.843 100.661 335.679 101.049C334.543 101.41 333.573 101.908 332.77 102.546L330.443 98.0154C331.662 97.1565 333.116 96.4915 334.806 96.0205C336.524 95.5495 338.284 95.314 340.085 95.314ZM339.586 113.975C340.694 113.975 341.678 113.726 342.537 113.227C343.396 112.7 344.005 111.938 344.365 110.941V108.655H339.918C337.259 108.655 335.929 109.528 335.929 111.273C335.929 112.105 336.247 112.77 336.884 113.268C337.549 113.739 338.45 113.975 339.586 113.975ZM362.91 98.5973C363.685 97.5167 364.724 96.6993 366.027 96.1452C367.357 95.591 368.881 95.314 370.598 95.314V101.299C369.878 101.243 369.393 101.216 369.144 101.216C367.287 101.216 365.833 101.742 364.78 102.795C363.727 103.82 363.2 105.372 363.2 107.45V118.006H356.717V95.6464H362.91V98.5973ZM384.709 88.9135V118.006H377.976V94.3165H372.158V88.9135H384.709ZM400.985 88.9135V118.006H394.252V94.3165H388.433V88.9135H400.985ZM428.814 88.9135V93.2775L418.008 118.006H410.694L421.125 94.3996H411.483V99.1376H405.498V88.9135H428.814ZM451.237 88.4979C455.061 88.4979 458.455 89.2876 461.42 90.8669C464.412 92.4185 466.739 94.5659 468.402 97.3089C470.064 100.052 470.896 103.155 470.896 106.619C470.896 109.057 470.535 111.163 469.815 112.936C469.122 114.681 468.139 116.011 466.864 116.926C465.59 117.84 464.093 118.297 462.375 118.297C460.962 118.297 459.771 117.992 458.801 117.383C457.831 116.773 457.125 115.873 456.682 114.681C455.185 117.092 452.816 118.297 449.575 118.297C447.801 118.297 446.18 117.854 444.712 116.967C443.244 116.081 442.08 114.848 441.221 113.268C440.39 111.661 439.974 109.833 439.974 107.782C439.974 105.76 440.39 103.959 441.221 102.379C442.08 100.772 443.23 99.5255 444.67 98.6388C446.139 97.7522 447.774 97.3089 449.575 97.3089C452.318 97.3089 454.451 98.2232 455.975 100.052V97.5998H461.627V111.066C461.627 112.839 462.292 113.726 463.622 113.726C464.592 113.726 465.34 113.144 465.867 111.98C466.421 110.816 466.698 109.057 466.698 106.702C466.698 103.903 466.047 101.437 464.744 99.3038C463.47 97.1426 461.655 95.4663 459.3 94.2749C456.973 93.0558 454.285 92.4462 451.237 92.4462C448.189 92.4462 445.488 93.0974 443.133 94.3996C440.805 95.6742 438.99 97.4474 437.688 99.7194C436.414 101.991 435.776 104.568 435.776 107.45C435.776 110.387 436.414 113.005 437.688 115.305C438.963 117.577 440.75 119.35 443.05 120.625C445.377 121.927 448.051 122.578 451.071 122.578C454.063 122.578 456.792 121.969 459.258 120.749L460.588 124.573C459.342 125.21 457.859 125.695 456.141 126.028C454.451 126.388 452.761 126.568 451.071 126.568C447.136 126.568 443.659 125.737 440.639 124.074C437.619 122.44 435.278 120.168 433.615 117.258C431.953 114.349 431.121 111.079 431.121 107.45C431.121 103.848 431.953 100.606 433.615 97.7245C435.305 94.8429 437.674 92.5848 440.722 90.95C443.77 89.3153 447.275 88.4979 451.237 88.4979ZM450.863 113.518C452.387 113.518 453.634 113.019 454.604 112.022C455.573 110.996 456.058 109.583 456.058 107.782C456.058 106.009 455.573 104.624 454.604 103.626C453.634 102.629 452.387 102.13 450.863 102.13C449.311 102.13 448.065 102.643 447.123 103.668C446.18 104.665 445.709 106.037 445.709 107.782C445.709 109.556 446.18 110.955 447.123 111.98C448.065 113.005 449.311 113.518 450.863 113.518ZM498.582 95.6464V114.266C498.582 118.367 497.515 121.414 495.382 123.409C493.248 125.404 490.131 126.402 486.03 126.402C483.869 126.402 481.819 126.138 479.879 125.612C477.94 125.086 476.333 124.324 475.058 123.326L477.635 118.671C478.577 119.447 479.768 120.057 481.209 120.5C482.65 120.971 484.091 121.207 485.532 121.207C487.776 121.207 489.424 120.694 490.477 119.669C491.558 118.671 492.098 117.147 492.098 115.097V114.141C490.408 115.998 488.053 116.926 485.033 116.926C482.982 116.926 481.098 116.482 479.38 115.596C477.69 114.681 476.347 113.407 475.349 111.772C474.352 110.137 473.853 108.253 473.853 106.12C473.853 103.986 474.352 102.102 475.349 100.468C476.347 98.8328 477.69 97.5721 479.38 96.6855C481.098 95.7711 482.982 95.314 485.033 95.314C488.275 95.314 490.741 96.3807 492.431 98.5142V95.6464H498.582ZM486.321 111.606C488.039 111.606 489.438 111.107 490.519 110.11C491.627 109.085 492.181 107.755 492.181 106.12C492.181 104.485 491.627 103.169 490.519 102.172C489.438 101.146 488.039 100.634 486.321 100.634C484.603 100.634 483.19 101.146 482.082 102.172C480.974 103.169 480.42 104.485 480.42 106.12C480.42 107.755 480.974 109.085 482.082 110.11C483.19 111.107 484.603 111.606 486.321 111.606ZM533.252 95.314C536.05 95.314 538.267 96.1452 539.902 97.8076C541.564 99.4424 542.395 101.908 542.395 105.206V118.006H535.912V106.203C535.912 104.43 535.538 103.114 534.79 102.255C534.069 101.368 533.03 100.925 531.673 100.925C530.149 100.925 528.943 101.423 528.057 102.421C527.17 103.391 526.727 104.845 526.727 106.785V118.006H520.243V106.203C520.243 102.684 518.83 100.925 516.004 100.925C514.508 100.925 513.316 101.423 512.43 102.421C511.543 103.391 511.1 104.845 511.1 106.785V118.006H504.616V95.6464H510.809V98.2232C511.64 97.2812 512.651 96.5608 513.843 96.0621C515.062 95.5633 516.392 95.314 517.833 95.314C519.412 95.314 520.839 95.6326 522.113 96.2699C523.388 96.8794 524.413 97.7799 525.189 98.9713C526.103 97.8076 527.253 96.9071 528.639 96.2699C530.052 95.6326 531.589 95.314 533.252 95.314ZM557.225 95.314C560.689 95.314 563.349 96.1452 565.205 97.8076C567.062 99.4424 567.99 101.922 567.99 105.247V118.006H561.922V115.222C560.703 117.3 558.431 118.339 555.106 118.339C553.388 118.339 551.892 118.048 550.617 117.466C549.37 116.884 548.415 116.081 547.75 115.056C547.085 114.03 546.752 112.867 546.752 111.564C546.752 109.486 547.528 107.852 549.08 106.66C550.659 105.469 553.083 104.873 556.353 104.873H561.506C561.506 103.46 561.077 102.379 560.218 101.631C559.359 100.855 558.071 100.468 556.353 100.468C555.161 100.468 553.984 100.661 552.82 101.049C551.684 101.41 550.714 101.908 549.911 102.546L547.583 98.0154C548.802 97.1565 550.257 96.4915 551.947 96.0205C553.665 95.5495 555.425 95.314 557.225 95.314ZM556.727 113.975C557.835 113.975 558.819 113.726 559.678 113.227C560.537 112.7 561.146 111.938 561.506 110.941V108.655H557.059C554.399 108.655 553.069 109.528 553.069 111.273C553.069 112.105 553.388 112.77 554.025 113.268C554.69 113.739 555.591 113.975 556.727 113.975ZM573.858 95.6464H580.341V118.006H573.858V95.6464ZM577.1 92.5294C575.908 92.5294 574.938 92.183 574.19 91.4903C573.442 90.7976 573.068 89.9387 573.068 88.9135C573.068 87.8884 573.442 87.0294 574.19 86.3367C574.938 85.6441 575.908 85.2977 577.1 85.2977C578.291 85.2977 579.261 85.6302 580.009 86.2952C580.757 86.9602 581.131 87.7914 581.131 88.7889C581.131 89.8694 580.757 90.7699 580.009 91.4903C579.261 92.183 578.291 92.5294 577.1 92.5294ZM586.359 87.168H592.842V118.006H586.359V87.168ZM601.312 118.339C600.176 118.339 599.22 117.951 598.444 117.175C597.668 116.399 597.28 115.43 597.28 114.266C597.28 113.074 597.668 112.119 598.444 111.398C599.22 110.65 600.176 110.276 601.312 110.276C602.448 110.276 603.403 110.65 604.179 111.398C604.955 112.119 605.343 113.074 605.343 114.266C605.343 115.43 604.955 116.399 604.179 117.175C603.403 117.951 602.448 118.339 601.312 118.339ZM620.259 118.339C617.876 118.339 615.728 117.854 613.817 116.884C611.932 115.887 610.45 114.515 609.37 112.77C608.317 111.024 607.79 109.043 607.79 106.826C607.79 104.61 608.317 102.629 609.37 100.883C610.45 99.1376 611.932 97.7799 613.817 96.8102C615.728 95.8127 617.876 95.314 620.259 95.314C622.614 95.314 624.664 95.8127 626.41 96.8102C628.183 97.7799 629.471 99.1791 630.275 101.008L625.246 103.709C624.082 101.659 622.406 100.634 620.217 100.634C618.527 100.634 617.128 101.188 616.019 102.296C614.911 103.405 614.357 104.915 614.357 106.826C614.357 108.738 614.911 110.248 616.019 111.357C617.128 112.465 618.527 113.019 620.217 113.019C622.434 113.019 624.11 111.994 625.246 109.943L630.275 112.687C629.471 114.46 628.183 115.845 626.41 116.843C624.664 117.84 622.614 118.339 620.259 118.339ZM644.363 118.339C642.008 118.339 639.889 117.854 638.004 116.884C636.148 115.887 634.693 114.515 633.641 112.77C632.588 111.024 632.061 109.043 632.061 106.826C632.061 104.61 632.588 102.629 633.641 100.883C634.693 99.1376 636.148 97.7799 638.004 96.8102C639.889 95.8127 642.008 95.314 644.363 95.314C646.718 95.314 648.824 95.8127 650.681 96.8102C652.537 97.7799 653.992 99.1376 655.045 100.883C656.097 102.629 656.624 104.61 656.624 106.826C656.624 109.043 656.097 111.024 655.045 112.77C653.992 114.515 652.537 115.887 650.681 116.884C648.824 117.854 646.718 118.339 644.363 118.339ZM644.363 113.019C646.026 113.019 647.383 112.465 648.436 111.357C649.517 110.221 650.057 108.711 650.057 106.826C650.057 104.942 649.517 103.446 648.436 102.338C647.383 101.202 646.026 100.634 644.363 100.634C642.701 100.634 641.329 101.202 640.249 102.338C639.168 103.446 638.628 104.942 638.628 106.826C638.628 108.711 639.168 110.221 640.249 111.357C641.329 112.465 642.701 113.019 644.363 113.019ZM689.593 95.314C692.392 95.314 694.608 96.1452 696.243 97.8076C697.905 99.4424 698.737 101.908 698.737 105.206V118.006H692.253V106.203C692.253 104.43 691.879 103.114 691.131 102.255C690.411 101.368 689.372 100.925 688.014 100.925C686.49 100.925 685.285 101.423 684.398 102.421C683.511 103.391 683.068 104.845 683.068 106.785V118.006H676.585V106.203C676.585 102.684 675.172 100.925 672.345 100.925C670.849 100.925 669.658 101.423 668.771 102.421C667.884 103.391 667.441 104.845 667.441 106.785V118.006H660.958V95.6464H667.15V98.2232C667.981 97.2812 668.993 96.5608 670.184 96.0621C671.403 95.5633 672.733 95.314 674.174 95.314C675.753 95.314 677.18 95.6326 678.455 96.2699C679.729 96.8794 680.755 97.7799 681.53 98.9713C682.445 97.8076 683.595 96.9071 684.98 96.2699C686.393 95.6326 687.931 95.314 689.593 95.314Z" fill="#130F26"/>
<circle opacity="0.1" cx="77.2652" cy="84.5002" r="40.2624" fill="#130F26"/>
<path fill-rule="evenodd" clip-rule="evenodd" d="M86.0861 68.4277C88.4809 68.4277 90.7846 69.3742 92.4793 71.0726C94.1759 72.7673 95.1241 75.0532 95.1241 77.4462V91.5542C95.1241 96.5367 91.0703 100.573 86.0861 100.573H68.4438C63.4596 100.573 59.4075 96.5367 59.4075 91.5542V77.4462C59.4075 72.4637 63.4417 68.4277 68.4438 68.4277H86.0861ZM88.9273 80.1071L89.0702 79.9642C89.497 79.4463 89.497 78.6963 89.0505 78.1784C88.8023 77.9123 88.4612 77.7498 88.1058 77.7141C87.7308 77.6944 87.3736 77.8212 87.104 78.0712L79.0517 84.5002C78.0159 85.3592 76.5318 85.3592 75.48 84.5002L67.4438 78.0712C66.8884 77.6605 66.1205 77.7141 65.6579 78.1963C65.1757 78.6784 65.1222 79.4463 65.5311 79.9821L65.7651 80.2142L73.8906 86.5539C74.8907 87.3397 76.1032 87.7683 77.373 87.7683C78.6391 87.7683 79.8731 87.3397 80.8714 86.5539L88.9273 80.1071Z" fill="#130F26"/>
</svg>
