<svg width="2142" height="169" viewBox="0 0 2142 169" fill="none" xmlns="http://www.w3.org/2000/svg">
<rect width="2142" height="168.842" rx="20.7806" fill="white"/>
<rect x="0.65" y="0.65" width="2140.7" height="167.542" rx="20.1306" stroke="black" stroke-opacity="0.2" stroke-width="1.3"/>
<path fill-rule="evenodd" clip-rule="evenodd" d="M78.4352 87.4817C88.3442 97.388 90.5922 85.9276 96.9013 92.2323C102.984 98.3131 106.48 99.5314 98.7732 107.236C97.8079 108.011 91.6748 117.345 70.1208 95.7965C48.5641 74.2458 57.8918 68.1064 58.6678 67.1414C66.3929 59.4157 67.5902 62.932 73.6727 69.0128C79.9818 75.3202 68.5262 77.5755 78.4352 87.4817Z" fill="#130F26"/>
<path d="M161.262 58.9523H163.257V64.6254C162.537 65.2211 161.698 65.6782 160.743 65.9969C159.787 66.3155 158.789 66.4748 157.75 66.4748C156.282 66.4748 154.959 66.1562 153.781 65.5189C152.604 64.8678 151.675 63.9812 150.996 62.859C150.332 61.723 149.999 60.4485 149.999 59.0354C149.999 57.6223 150.332 56.3478 150.996 55.2118C151.675 54.0758 152.604 53.1891 153.781 52.5518C154.973 51.9146 156.309 51.5959 157.792 51.5959C158.955 51.5959 160.008 51.7899 160.95 52.1778C161.906 52.5518 162.717 53.106 163.382 53.8402L162.093 55.1286C160.93 54.0065 159.523 53.4454 157.875 53.4454C156.767 53.4454 155.769 53.6879 154.882 54.1727C154.01 54.6438 153.324 55.3087 152.825 56.1677C152.326 57.0127 152.077 57.9687 152.077 59.0354C152.077 60.0883 152.326 61.0442 152.825 61.9031C153.324 62.7482 154.01 63.4132 154.882 63.898C155.769 64.3829 156.76 64.6254 157.854 64.6254C159.156 64.6254 160.292 64.3137 161.262 63.6902V58.9523ZM166.945 55.2949H168.94V66.3086H166.945V55.2949ZM167.942 53.1753C167.554 53.1753 167.229 53.0506 166.966 52.8012C166.716 52.5518 166.592 52.2471 166.592 51.8869C166.592 51.5267 166.716 51.2219 166.966 50.9725C167.229 50.7093 167.554 50.5777 167.942 50.5777C168.33 50.5777 168.649 50.7024 168.898 50.9517C169.161 51.1873 169.293 51.4851 169.293 51.8453C169.293 52.2194 169.161 52.538 168.898 52.8012C168.649 53.0506 168.33 53.1753 167.942 53.1753ZM182.495 55.2949L177.674 66.3086H175.637L170.816 55.2949H172.894L176.676 64.1266L180.541 55.2949H182.495ZM194.006 60.8641C194.006 61.0165 193.992 61.2174 193.965 61.4667H185.029C185.154 62.4365 185.576 63.2192 186.297 63.8149C187.031 64.3968 187.938 64.6877 189.019 64.6877C190.335 64.6877 191.395 64.2444 192.198 63.3578L193.3 64.6461C192.801 65.228 192.177 65.6713 191.429 65.9761C190.695 66.2809 189.871 66.4333 188.956 66.4333C187.793 66.4333 186.761 66.1978 185.86 65.7267C184.96 65.2419 184.26 64.57 183.761 63.711C183.276 62.8521 183.034 61.8823 183.034 60.8017C183.034 59.735 183.269 58.7722 183.741 57.9132C184.225 57.0543 184.883 56.3893 185.715 55.9183C186.56 55.4334 187.509 55.191 188.562 55.191C189.614 55.191 190.55 55.4334 191.367 55.9183C192.198 56.3893 192.842 57.0543 193.3 57.9132C193.771 58.7722 194.006 59.7558 194.006 60.8641ZM188.562 56.8742C187.606 56.8742 186.802 57.1651 186.151 57.747C185.514 58.3289 185.14 59.0908 185.029 60.0329H192.094C191.983 59.1047 191.603 58.3496 190.951 57.7678C190.314 57.1721 189.518 56.8742 188.562 56.8742ZM212.623 55.2949V66.3086H210.732V64.6461C210.33 65.2141 209.796 65.6575 209.131 65.9761C208.48 66.2809 207.767 66.4333 206.991 66.4333C205.523 66.4333 204.366 66.0315 203.521 65.228C202.676 64.4106 202.253 63.2123 202.253 61.633V55.2949H204.248V61.4044C204.248 62.4711 204.504 63.2816 205.017 63.8357C205.529 64.376 206.264 64.6461 207.22 64.6461C208.273 64.6461 209.104 64.3275 209.713 63.6902C210.323 63.053 210.628 62.1525 210.628 60.9888V55.2949H212.623ZM219.579 66.4333C218.679 66.4333 217.813 66.3155 216.981 66.08C216.15 65.8306 215.499 65.5189 215.028 65.1449L215.859 63.5656C216.344 63.9119 216.933 64.189 217.626 64.3968C218.318 64.6046 219.018 64.7085 219.725 64.7085C221.47 64.7085 222.343 64.2098 222.343 63.2123C222.343 62.8798 222.225 62.6166 221.99 62.4226C221.754 62.2287 221.456 62.0901 221.096 62.007C220.75 61.91 220.251 61.8061 219.6 61.6953C218.713 61.5568 217.986 61.3975 217.418 61.2174C216.864 61.0373 216.386 60.7325 215.984 60.303C215.582 59.8735 215.381 59.2709 215.381 58.4951C215.381 57.4976 215.797 56.701 216.628 56.1053C217.459 55.4958 218.575 55.191 219.974 55.191C220.708 55.191 221.442 55.281 222.177 55.4611C222.911 55.6412 223.514 55.8837 223.985 56.1885L223.133 57.7678C222.232 57.1859 221.172 56.895 219.953 56.895C219.108 56.895 218.464 57.0335 218.021 57.3106C217.577 57.5877 217.356 57.9548 217.356 58.412C217.356 58.7722 217.48 59.0562 217.73 59.264C217.979 59.4718 218.284 59.6242 218.644 59.7212C219.018 59.8181 219.538 59.929 220.202 60.0536C221.089 60.206 221.803 60.3723 222.343 60.5524C222.897 60.7186 223.368 61.0095 223.756 61.4252C224.144 61.8408 224.338 62.4226 224.338 63.1707C224.338 64.1682 223.908 64.9648 223.049 65.5605C222.204 66.1423 221.048 66.4333 219.579 66.4333ZM236.422 55.191C237.946 55.191 239.11 55.565 239.914 56.3131C240.731 57.0612 241.14 58.1765 241.14 59.6588V66.3086H239.249V64.854C238.916 65.3665 238.438 65.7614 237.815 66.0384C237.205 66.3017 236.478 66.4333 235.633 66.4333C234.4 66.4333 233.409 66.1354 232.661 65.5397C231.927 64.944 231.56 64.1613 231.56 63.1915C231.56 62.2217 231.913 61.4459 232.62 60.8641C233.326 60.2684 234.448 59.9705 235.986 59.9705H239.145V59.5757C239.145 58.7168 238.895 58.0587 238.397 57.6015C237.898 57.1444 237.164 56.9158 236.194 56.9158C235.543 56.9158 234.905 57.0266 234.282 57.2483C233.659 57.4561 233.132 57.7401 232.703 58.1003L231.871 56.6041C232.439 56.1469 233.118 55.8005 233.908 55.565C234.698 55.3157 235.536 55.191 236.422 55.191ZM235.965 64.8955C236.727 64.8955 237.385 64.7293 237.939 64.3968C238.494 64.0504 238.895 63.5656 239.145 62.9421V61.4044H236.069C234.379 61.4044 233.534 61.9724 233.534 63.1084C233.534 63.6625 233.749 64.0989 234.178 64.4176C234.608 64.7362 235.203 64.8955 235.965 64.8955ZM255.212 66.4333C254.09 66.4333 253.086 66.1908 252.199 65.706C251.326 65.2211 250.641 64.5561 250.142 63.711C249.643 62.8521 249.394 61.8823 249.394 60.8017C249.394 59.7211 249.643 58.7583 250.142 57.9132C250.641 57.0543 251.326 56.3893 252.199 55.9183C253.086 55.4334 254.09 55.191 255.212 55.191C256.21 55.191 257.097 55.3919 257.872 55.7936C258.662 56.1954 259.272 56.7772 259.701 57.5392L258.184 58.5159C257.838 57.9894 257.408 57.5946 256.896 57.3314C256.383 57.0682 255.815 56.9366 255.192 56.9366C254.471 56.9366 253.82 57.0959 253.238 57.4145C252.67 57.7331 252.22 58.1903 251.888 58.786C251.569 59.3679 251.41 60.0398 251.41 60.8017C251.41 61.5775 251.569 62.2633 251.888 62.859C252.22 63.4409 252.67 63.8911 253.238 64.2098C253.82 64.5284 254.471 64.6877 255.192 64.6877C255.815 64.6877 256.383 64.5561 256.896 64.2929C257.408 64.0297 257.838 63.6348 258.184 63.1084L259.701 64.0643C259.272 64.8262 258.662 65.415 257.872 65.8306C257.097 66.2324 256.21 66.4333 255.212 66.4333ZM266.294 55.191C267.818 55.191 268.982 55.565 269.786 56.3131C270.603 57.0612 271.012 58.1765 271.012 59.6588V66.3086H269.121V64.854C268.788 65.3665 268.31 65.7614 267.687 66.0384C267.077 66.3017 266.35 66.4333 265.505 66.4333C264.272 66.4333 263.281 66.1354 262.533 65.5397C261.799 64.944 261.432 64.1613 261.432 63.1915C261.432 62.2217 261.785 61.4459 262.492 60.8641C263.198 60.2684 264.32 59.9705 265.858 59.9705H269.017V59.5757C269.017 58.7168 268.767 58.0587 268.269 57.6015C267.77 57.1444 267.036 56.9158 266.066 56.9158C265.415 56.9158 264.777 57.0266 264.154 57.2483C263.531 57.4561 263.004 57.7401 262.575 58.1003L261.744 56.6041C262.312 56.1469 262.99 55.8005 263.78 55.565C264.57 55.3157 265.408 55.191 266.294 55.191ZM265.837 64.8955C266.599 64.8955 267.257 64.7293 267.811 64.3968C268.366 64.0504 268.767 63.5656 269.017 62.9421V61.4044H265.941C264.251 61.4044 263.406 61.9724 263.406 63.1084C263.406 63.6625 263.621 64.0989 264.05 64.4176C264.48 64.7362 265.075 64.8955 265.837 64.8955ZM274.703 50.8894H276.698V66.3086H274.703V50.8894ZM280.507 50.8894H282.502V66.3086H280.507V50.8894Z" fill="#130F26"/>
<path d="M166.591 105.719H161.023V111.159H156.895V105.719H151.359V101.815H156.895V96.3748H161.023V101.815H166.591V105.719ZM177.651 92.1828C180.787 92.1828 183.241 93.1428 185.011 95.0628C186.782 96.9615 187.667 99.7028 187.667 103.287C187.667 105.825 187.187 108.001 186.227 109.815C185.289 111.628 183.955 113.004 182.227 113.943C180.499 114.881 178.505 115.351 176.243 115.351C175.049 115.351 173.907 115.223 172.819 114.967C171.731 114.689 170.803 114.305 170.035 113.815L171.955 110.007C173.043 110.753 174.441 111.127 176.147 111.127C178.046 111.127 179.55 110.572 180.659 109.463C181.769 108.332 182.366 106.711 182.451 104.599C181.107 105.943 179.251 106.615 176.883 106.615C175.454 106.615 174.153 106.327 172.979 105.751C171.806 105.175 170.878 104.364 170.195 103.319C169.513 102.252 169.171 101.025 169.171 99.6388C169.171 98.1455 169.545 96.8335 170.291 95.7028C171.038 94.5721 172.051 93.7081 173.331 93.1108C174.633 92.4921 176.073 92.1828 177.651 92.1828ZM178.035 102.743C179.166 102.743 180.083 102.433 180.787 101.815C181.513 101.175 181.875 100.364 181.875 99.3828C181.875 98.4015 181.523 97.6015 180.819 96.9828C180.137 96.3641 179.187 96.0548 177.971 96.0548C176.862 96.0548 175.955 96.3535 175.251 96.9508C174.569 97.5481 174.227 98.3588 174.227 99.3828C174.227 100.407 174.569 101.228 175.251 101.847C175.955 102.444 176.883 102.743 178.035 102.743ZM198.607 92.5668V114.967H193.423V96.7268H188.943V92.5668H198.607ZM226.889 103.191C227.998 103.745 228.841 104.471 229.417 105.367C230.014 106.263 230.312 107.297 230.312 108.471C230.312 109.857 229.918 111.073 229.128 112.119C228.339 113.143 227.23 113.943 225.801 114.519C224.371 115.073 222.718 115.351 220.841 115.351C218.963 115.351 217.31 115.073 215.881 114.519C214.473 113.943 213.374 113.143 212.585 112.119C211.817 111.073 211.433 109.857 211.433 108.471C211.433 107.297 211.721 106.263 212.297 105.367C212.894 104.471 213.737 103.745 214.825 103.191C213.993 102.679 213.353 102.039 212.905 101.271C212.457 100.481 212.233 99.5855 212.233 98.5828C212.233 97.2815 212.595 96.1508 213.321 95.1908C214.046 94.2308 215.059 93.4948 216.361 92.9828C217.662 92.4495 219.155 92.1828 220.841 92.1828C222.547 92.1828 224.051 92.4495 225.353 92.9828C226.675 93.4948 227.699 94.2308 228.425 95.1908C229.15 96.1508 229.513 97.2815 229.513 98.5828C229.513 99.5855 229.289 100.481 228.841 101.271C228.393 102.039 227.742 102.679 226.889 103.191ZM220.841 95.9908C219.795 95.9908 218.953 96.2468 218.312 96.7588C217.694 97.2495 217.385 97.9321 217.385 98.8068C217.385 99.6601 217.694 100.332 218.312 100.823C218.931 101.313 219.774 101.559 220.841 101.559C221.907 101.559 222.761 101.313 223.401 100.823C224.041 100.332 224.361 99.6601 224.361 98.8068C224.361 97.9321 224.041 97.2495 223.401 96.7588C222.761 96.2468 221.907 95.9908 220.841 95.9908ZM220.841 111.543C222.142 111.543 223.166 111.255 223.913 110.679C224.681 110.081 225.065 109.292 225.065 108.311C225.065 107.329 224.681 106.551 223.913 105.975C223.166 105.399 222.142 105.111 220.841 105.111C219.561 105.111 218.547 105.399 217.801 105.975C217.054 106.551 216.681 107.329 216.681 108.311C216.681 109.313 217.054 110.103 217.801 110.679C218.547 111.255 219.561 111.543 220.841 111.543ZM249.422 110.743V114.967H232.493V111.607L241.134 103.447C242.051 102.572 242.67 101.825 242.99 101.207C243.31 100.567 243.47 99.9375 243.47 99.3188C243.47 98.4228 243.16 97.7401 242.542 97.2708C241.944 96.7801 241.059 96.5348 239.885 96.5348C238.904 96.5348 238.019 96.7268 237.23 97.1108C236.44 97.4735 235.779 98.0281 235.246 98.7748L231.47 96.3428C232.344 95.0415 233.55 94.0281 235.086 93.3028C236.622 92.5561 238.382 92.1828 240.366 92.1828C242.03 92.1828 243.48 92.4601 244.718 93.0148C245.976 93.5481 246.947 94.3161 247.63 95.3188C248.334 96.3001 248.686 97.4628 248.686 98.8068C248.686 100.023 248.43 101.164 247.918 102.231C247.406 103.297 246.414 104.513 244.942 105.879L239.79 110.743H249.422ZM269.034 92.5668V95.9268L260.714 114.967H255.082L263.114 96.7908H255.69V100.439H251.082V92.5668H269.034ZM281.587 101.687C283.55 102.007 285.054 102.743 286.099 103.895C287.144 105.025 287.667 106.433 287.667 108.119C287.667 109.42 287.326 110.625 286.643 111.735C285.96 112.823 284.915 113.697 283.507 114.359C282.12 115.02 280.414 115.351 278.387 115.351C276.808 115.351 275.251 115.148 273.715 114.743C272.2 114.316 270.91 113.719 269.843 112.951L271.859 108.983C272.712 109.623 273.694 110.124 274.803 110.487C275.934 110.828 277.086 110.999 278.259 110.999C279.56 110.999 280.584 110.753 281.331 110.263C282.078 109.751 282.451 109.036 282.451 108.119C282.451 106.284 281.054 105.367 278.259 105.367H275.891V101.943L280.499 96.7268H270.963V92.5668H286.643V95.9268L281.587 101.687ZM297.933 92.1828C301.069 92.1828 303.522 93.1428 305.293 95.0628C307.063 96.9615 307.949 99.7028 307.949 103.287C307.949 105.825 307.469 108.001 306.509 109.815C305.57 111.628 304.237 113.004 302.509 113.943C300.781 114.881 298.786 115.351 296.525 115.351C295.33 115.351 294.189 115.223 293.101 114.967C292.013 114.689 291.085 114.305 290.317 113.815L292.237 110.007C293.325 110.753 294.722 111.127 296.429 111.127C298.327 111.127 299.831 110.572 300.941 109.463C302.05 108.332 302.647 106.711 302.733 104.599C301.389 105.943 299.533 106.615 297.165 106.615C295.735 106.615 294.434 106.327 293.261 105.751C292.087 105.175 291.159 104.364 290.477 103.319C289.794 102.252 289.453 101.025 289.453 99.6388C289.453 98.1455 289.826 96.8335 290.573 95.7028C291.319 94.5721 292.333 93.7081 293.613 93.1108C294.914 92.4921 296.354 92.1828 297.933 92.1828ZM298.317 102.743C299.447 102.743 300.365 102.433 301.069 101.815C301.794 101.175 302.157 100.364 302.157 99.3828C302.157 98.4015 301.805 97.6015 301.101 96.9828C300.418 96.3641 299.469 96.0548 298.253 96.0548C297.143 96.0548 296.237 96.3535 295.533 96.9508C294.85 97.5481 294.509 98.3588 294.509 99.3828C294.509 100.407 294.85 101.228 295.533 101.847C296.237 102.444 297.165 102.743 298.317 102.743ZM318.308 92.1828C321.444 92.1828 323.897 93.1428 325.668 95.0628C327.438 96.9615 328.324 99.7028 328.324 103.287C328.324 105.825 327.844 108.001 326.884 109.815C325.945 111.628 324.612 113.004 322.884 113.943C321.156 114.881 319.161 115.351 316.9 115.351C315.705 115.351 314.564 115.223 313.476 114.967C312.388 114.689 311.46 114.305 310.692 113.815L312.612 110.007C313.7 110.753 315.097 111.127 316.804 111.127C318.702 111.127 320.206 110.572 321.316 109.463C322.425 108.332 323.022 106.711 323.108 104.599C321.764 105.943 319.908 106.615 317.54 106.615C316.11 106.615 314.809 106.327 313.636 105.751C312.462 105.175 311.534 104.364 310.852 103.319C310.169 102.252 309.828 101.025 309.828 99.6388C309.828 98.1455 310.201 96.8335 310.948 95.7028C311.694 94.5721 312.708 93.7081 313.988 93.1108C315.289 92.4921 316.729 92.1828 318.308 92.1828ZM318.692 102.743C319.822 102.743 320.74 102.433 321.444 101.815C322.169 101.175 322.532 100.364 322.532 99.3828C322.532 98.4015 322.18 97.6015 321.476 96.9828C320.793 96.3641 319.844 96.0548 318.628 96.0548C317.518 96.0548 316.612 96.3535 315.908 96.9508C315.225 97.5481 314.884 98.3588 314.884 99.3828C314.884 100.407 315.225 101.228 315.908 101.847C316.612 102.444 317.54 102.743 318.692 102.743ZM338.491 100.983C341.648 100.983 343.973 101.612 345.467 102.871C346.981 104.129 347.739 105.815 347.739 107.927C347.739 109.292 347.397 110.54 346.715 111.671C346.032 112.78 344.987 113.676 343.579 114.359C342.192 115.02 340.475 115.351 338.427 115.351C336.848 115.351 335.291 115.148 333.755 114.743C332.24 114.316 330.949 113.719 329.883 112.951L331.931 108.983C332.784 109.623 333.765 110.124 334.875 110.487C335.984 110.828 337.125 110.999 338.299 110.999C339.6 110.999 340.624 110.743 341.371 110.231C342.117 109.719 342.491 109.004 342.491 108.087C342.491 107.127 342.096 106.401 341.307 105.911C340.539 105.42 339.195 105.175 337.275 105.175H331.547L332.699 92.5668H346.363V96.7268H337.019L336.667 100.983H338.491ZM357.714 92.1828C360.85 92.1828 363.303 93.1428 365.074 95.0628C366.844 96.9615 367.73 99.7028 367.73 103.287C367.73 105.825 367.25 108.001 366.29 109.815C365.351 111.628 364.018 113.004 362.29 113.943C360.562 114.881 358.567 115.351 356.306 115.351C355.111 115.351 353.97 115.223 352.882 114.967C351.794 114.689 350.866 114.305 350.098 113.815L352.018 110.007C353.106 110.753 354.503 111.127 356.21 111.127C358.108 111.127 359.612 110.572 360.722 109.463C361.831 108.332 362.428 106.711 362.514 104.599C361.17 105.943 359.314 106.615 356.946 106.615C355.516 106.615 354.215 106.327 353.042 105.751C351.868 105.175 350.94 104.364 350.258 103.319C349.575 102.252 349.234 101.025 349.234 99.6388C349.234 98.1455 349.607 96.8335 350.354 95.7028C351.1 94.5721 352.114 93.7081 353.394 93.1108C354.695 92.4921 356.135 92.1828 357.714 92.1828ZM358.098 102.743C359.228 102.743 360.146 102.433 360.85 101.815C361.575 101.175 361.938 100.364 361.938 99.3828C361.938 98.4015 361.586 97.6015 360.882 96.9828C360.199 96.3641 359.25 96.0548 358.034 96.0548C356.924 96.0548 356.018 96.3535 355.314 96.9508C354.631 97.5481 354.29 98.3588 354.29 99.3828C354.29 100.407 354.631 101.228 355.314 101.847C356.018 102.444 356.946 102.743 358.098 102.743ZM385.545 103.191C386.654 103.745 387.497 104.471 388.073 105.367C388.67 106.263 388.969 107.297 388.969 108.471C388.969 109.857 388.574 111.073 387.785 112.119C386.995 113.143 385.886 113.943 384.457 114.519C383.027 115.073 381.374 115.351 379.497 115.351C377.619 115.351 375.966 115.073 374.537 114.519C373.129 113.943 372.03 113.143 371.241 112.119C370.473 111.073 370.089 109.857 370.089 108.471C370.089 107.297 370.377 106.263 370.953 105.367C371.55 104.471 372.393 103.745 373.481 103.191C372.649 102.679 372.009 102.039 371.561 101.271C371.113 100.481 370.889 99.5855 370.889 98.5828C370.889 97.2815 371.251 96.1508 371.977 95.1908C372.702 94.2308 373.715 93.4948 375.017 92.9828C376.318 92.4495 377.811 92.1828 379.497 92.1828C381.203 92.1828 382.707 92.4495 384.009 92.9828C385.331 93.4948 386.355 94.2308 387.081 95.1908C387.806 96.1508 388.169 97.2815 388.169 98.5828C388.169 99.5855 387.945 100.481 387.497 101.271C387.049 102.039 386.398 102.679 385.545 103.191ZM379.497 95.9908C378.451 95.9908 377.609 96.2468 376.969 96.7588C376.35 97.2495 376.041 97.9321 376.041 98.8068C376.041 99.6601 376.35 100.332 376.969 100.823C377.587 101.313 378.43 101.559 379.497 101.559C380.563 101.559 381.417 101.313 382.057 100.823C382.697 100.332 383.017 99.6601 383.017 98.8068C383.017 97.9321 382.697 97.2495 382.057 96.7588C381.417 96.2468 380.563 95.9908 379.497 95.9908ZM379.497 111.543C380.798 111.543 381.822 111.255 382.569 110.679C383.337 110.081 383.721 109.292 383.721 108.311C383.721 107.329 383.337 106.551 382.569 105.975C381.822 105.399 380.798 105.111 379.497 105.111C378.217 105.111 377.203 105.399 376.457 105.975C375.71 106.551 375.337 107.329 375.337 108.311C375.337 109.313 375.71 110.103 376.457 110.679C377.203 111.255 378.217 111.543 379.497 111.543ZM399.982 92.5668V114.967H394.798V96.7268H390.318V92.5668H399.982Z" fill="#130F26"/>
<path d="M679.787 66.1662C678.318 66.1662 676.995 65.8476 675.818 65.2103C674.64 64.5592 673.712 63.6656 673.033 62.5296C672.368 61.3936 672.036 60.126 672.036 58.7268C672.036 57.3276 672.368 56.06 673.033 54.924C673.712 53.7879 674.64 52.9013 675.818 52.264C676.995 51.6129 678.318 51.2874 679.787 51.2874C681.241 51.2874 682.558 51.6129 683.735 52.264C684.913 52.9013 685.834 53.7879 686.499 54.924C687.164 56.0461 687.496 57.3137 687.496 58.7268C687.496 60.1399 687.164 61.4144 686.499 62.5504C685.834 63.6726 684.913 64.5592 683.735 65.2103C682.558 65.8476 681.241 66.1662 679.787 66.1662ZM679.787 64.3168C680.854 64.3168 681.809 64.0743 682.655 63.5895C683.513 63.1046 684.185 62.4396 684.67 61.5945C685.169 60.7356 685.418 59.7797 685.418 58.7268C685.418 57.6739 685.169 56.7249 684.67 55.8799C684.185 55.0209 683.513 54.349 682.655 53.8641C681.809 53.3793 680.854 53.1368 679.787 53.1368C678.72 53.1368 677.75 53.3793 676.878 53.8641C676.019 54.349 675.34 55.0209 674.841 55.8799C674.356 56.7249 674.114 57.6739 674.114 58.7268C674.114 59.7797 674.356 60.7356 674.841 61.5945C675.34 62.4396 676.019 63.1046 676.878 63.5895C677.75 64.0743 678.72 64.3168 679.787 64.3168ZM692.293 56.8358C692.64 56.1985 693.152 55.7136 693.831 55.3811C694.51 55.0486 695.334 54.8824 696.304 54.8824V56.815C696.193 56.8011 696.041 56.7942 695.847 56.7942C694.766 56.7942 693.914 57.1198 693.291 57.7709C692.681 58.4082 692.377 59.3225 692.377 60.5139V66H690.382V54.9863H692.293V56.8358ZM714.44 60.5555C714.44 60.7079 714.426 60.9088 714.398 61.1581H705.462C705.587 62.1279 706.01 62.9106 706.73 63.5063C707.464 64.0882 708.372 64.3791 709.452 64.3791C710.768 64.3791 711.828 63.9358 712.632 63.0492L713.733 64.3376C713.234 64.9194 712.611 65.3627 711.863 65.6675C711.129 65.9723 710.304 66.1247 709.39 66.1247C708.226 66.1247 707.194 65.8892 706.294 65.4181C705.393 64.9333 704.693 64.2614 704.195 63.4024C703.71 62.5435 703.467 61.5737 703.467 60.4931C703.467 59.4264 703.703 58.4636 704.174 57.6046C704.659 56.7457 705.317 56.0807 706.148 55.6097C706.993 55.1248 707.942 54.8824 708.995 54.8824C710.048 54.8824 710.983 55.1248 711.8 55.6097C712.632 56.0807 713.276 56.7457 713.733 57.6046C714.204 58.4636 714.44 59.4472 714.44 60.5555ZM708.995 56.5656C708.039 56.5656 707.236 56.8565 706.585 57.4384C705.947 58.0203 705.573 58.7822 705.462 59.7243H712.528C712.417 58.7961 712.036 58.041 711.385 57.4592C710.748 56.8635 709.951 56.5656 708.995 56.5656ZM730.987 54.8824C732.373 54.8824 733.467 55.2841 734.271 56.0877C735.088 56.8912 735.497 58.0826 735.497 59.6619V66H733.502V59.8905C733.502 58.8238 733.252 58.0203 732.754 57.48C732.269 56.9397 731.569 56.6695 730.655 56.6695C729.643 56.6695 728.84 56.9882 728.244 57.6254C727.648 58.2488 727.351 59.1493 727.351 60.3269V66H725.356V59.8905C725.356 58.8238 725.106 58.0203 724.608 57.48C724.123 56.9397 723.423 56.6695 722.509 56.6695C721.497 56.6695 720.694 56.9882 720.098 57.6254C719.502 58.2488 719.205 59.1493 719.205 60.3269V66H717.21V54.9863H719.122V56.628C719.523 56.06 720.05 55.6305 720.701 55.3396C721.352 55.0348 722.093 54.8824 722.924 54.8824C723.783 54.8824 724.545 55.0556 725.21 55.4019C725.875 55.7482 726.388 56.2539 726.748 56.9189C727.164 56.2816 727.739 55.7829 728.473 55.4227C729.221 55.0625 730.059 54.8824 730.987 54.8824ZM743.178 54.8824C744.702 54.8824 745.866 55.2564 746.669 56.0045C747.486 56.7526 747.895 57.8679 747.895 59.3502V66H746.004V64.5454C745.672 65.0579 745.194 65.4528 744.57 65.7299C743.961 65.9931 743.233 66.1247 742.388 66.1247C741.155 66.1247 740.165 65.8268 739.417 65.2311C738.682 64.6354 738.315 63.8527 738.315 62.8829C738.315 61.9132 738.669 61.1373 739.375 60.5555C740.082 59.9598 741.204 59.6619 742.742 59.6619H745.9V59.2671C745.9 58.4082 745.651 57.7501 745.152 57.2929C744.653 56.8358 743.919 56.6072 742.949 56.6072C742.298 56.6072 741.661 56.718 741.038 56.9397C740.414 57.1475 739.888 57.4315 739.458 57.7917L738.627 56.2955C739.195 55.8383 739.874 55.492 740.664 55.2564C741.453 55.0071 742.291 54.8824 743.178 54.8824ZM742.721 64.5869C743.483 64.5869 744.141 64.4207 744.695 64.0882C745.249 63.7418 745.651 63.257 745.9 62.6335V61.0958H742.825C741.135 61.0958 740.289 61.6638 740.289 62.7998C740.289 63.3539 740.504 63.7903 740.934 64.109C741.363 64.4276 741.959 64.5869 742.721 64.5869ZM751.587 54.9863H753.582V66H751.587V54.9863ZM752.584 52.8667C752.197 52.8667 751.871 52.742 751.608 52.4926C751.358 52.2433 751.234 51.9385 751.234 51.5783C751.234 51.2181 751.358 50.9133 751.608 50.6639C751.871 50.4007 752.197 50.2691 752.584 50.2691C752.972 50.2691 753.291 50.3938 753.54 50.6432C753.804 50.8787 753.935 51.1765 753.935 51.5367C753.935 51.9108 753.804 52.2294 753.54 52.4926C753.291 52.742 752.972 52.8667 752.584 52.8667ZM757.391 50.5808H759.386V66H757.391V50.5808ZM779.041 54.9863V66H777.15V64.3376C776.748 64.9056 776.215 65.3489 775.55 65.6675C774.899 65.9723 774.185 66.1247 773.41 66.1247C771.941 66.1247 770.784 65.7229 769.939 64.9194C769.094 64.102 768.672 62.9037 768.672 61.3244V54.9863H770.667V61.0958C770.667 62.1625 770.923 62.973 771.435 63.5271C771.948 64.0674 772.682 64.3376 773.638 64.3376C774.691 64.3376 775.522 64.0189 776.132 63.3816C776.741 62.7444 777.046 61.8439 777.046 60.6802V54.9863H779.041ZM785.998 66.1247C785.097 66.1247 784.231 66.0069 783.4 65.7714C782.569 65.522 781.918 65.2103 781.447 64.8363L782.278 63.257C782.763 63.6033 783.352 63.8804 784.044 64.0882C784.737 64.296 785.437 64.3999 786.143 64.3999C787.889 64.3999 788.761 63.9012 788.761 62.9037C788.761 62.5712 788.644 62.308 788.408 62.114C788.173 61.9201 787.875 61.7815 787.515 61.6984C787.168 61.6014 786.67 61.4975 786.018 61.3867C785.132 61.2482 784.404 61.0889 783.836 60.9088C783.282 60.7287 782.804 60.4239 782.403 59.9944C782.001 59.5649 781.8 58.9623 781.8 58.1865C781.8 57.189 782.216 56.3924 783.047 55.7967C783.878 55.1872 784.993 54.8824 786.392 54.8824C787.127 54.8824 787.861 54.9724 788.595 55.1525C789.329 55.3326 789.932 55.5751 790.403 55.8799L789.551 57.4592C788.651 56.8773 787.591 56.5864 786.372 56.5864C785.527 56.5864 784.882 56.7249 784.439 57.002C783.996 57.2791 783.774 57.6462 783.774 58.1034C783.774 58.4636 783.899 58.7476 784.148 58.9554C784.398 59.1632 784.702 59.3156 785.063 59.4126C785.437 59.5095 785.956 59.6204 786.621 59.745C787.508 59.8974 788.221 60.0637 788.761 60.2438C789.316 60.41 789.787 60.701 790.175 61.1166C790.562 61.5322 790.756 62.114 790.756 62.8621C790.756 63.8596 790.327 64.6562 789.468 65.2519C788.623 65.8338 787.466 66.1247 785.998 66.1247Z" fill="#130F26"/>
<path d="M680.467 96.8429C683.133 96.8429 685.181 97.4829 686.611 98.7629C688.04 100.022 688.755 101.931 688.755 104.491V114.315H684.083V112.171C683.144 113.771 681.395 114.571 678.835 114.571C677.512 114.571 676.36 114.347 675.379 113.899C674.419 113.451 673.683 112.832 673.171 112.043C672.659 111.254 672.403 110.358 672.403 109.355C672.403 107.755 673 106.496 674.195 105.579C675.411 104.662 677.277 104.203 679.795 104.203H683.763C683.763 103.115 683.432 102.283 682.771 101.707C682.109 101.11 681.117 100.811 679.795 100.811C678.877 100.811 677.971 100.96 677.075 101.259C676.2 101.536 675.453 101.92 674.835 102.411L673.043 98.9229C673.981 98.2616 675.101 97.7496 676.403 97.3869C677.725 97.0243 679.08 96.8429 680.467 96.8429ZM680.083 111.211C680.936 111.211 681.693 111.019 682.355 110.635C683.016 110.23 683.485 109.643 683.763 108.875V107.115H680.339C678.291 107.115 677.267 107.787 677.267 109.131C677.267 109.771 677.512 110.283 678.003 110.667C678.515 111.03 679.208 111.211 680.083 111.211ZM711.22 97.0989V111.435C711.22 114.592 710.399 116.939 708.756 118.475C707.114 120.011 704.714 120.779 701.556 120.779C699.892 120.779 698.314 120.576 696.82 120.171C695.327 119.766 694.09 119.179 693.108 118.411L695.092 114.827C695.818 115.424 696.735 115.894 697.844 116.235C698.954 116.598 700.063 116.779 701.172 116.779C702.9 116.779 704.17 116.384 704.98 115.595C705.812 114.827 706.228 113.654 706.228 112.075V111.339C704.927 112.768 703.114 113.483 700.788 113.483C699.21 113.483 697.759 113.142 696.436 112.459C695.135 111.755 694.1 110.774 693.332 109.515C692.564 108.256 692.18 106.806 692.18 105.163C692.18 103.52 692.564 102.07 693.332 100.811C694.1 99.5523 695.135 98.5816 696.436 97.8989C697.759 97.1949 699.21 96.8429 700.788 96.8429C703.284 96.8429 705.183 97.6643 706.484 99.3069V97.0989H711.22ZM701.78 109.387C703.103 109.387 704.18 109.003 705.012 108.235C705.866 107.446 706.292 106.422 706.292 105.163C706.292 103.904 705.866 102.891 705.012 102.123C704.18 101.334 703.103 100.939 701.78 100.939C700.458 100.939 699.37 101.334 698.516 102.123C697.663 102.891 697.236 103.904 697.236 105.163C697.236 106.422 697.663 107.446 698.516 108.235C699.37 109.003 700.458 109.387 701.78 109.387ZM722.811 96.8429C725.477 96.8429 727.525 97.4829 728.955 98.7629C730.384 100.022 731.099 101.931 731.099 104.491V114.315H726.427V112.171C725.488 113.771 723.739 114.571 721.179 114.571C719.856 114.571 718.704 114.347 717.723 113.899C716.763 113.451 716.027 112.832 715.515 112.043C715.003 111.254 714.747 110.358 714.747 109.355C714.747 107.755 715.344 106.496 716.539 105.579C717.755 104.662 719.621 104.203 722.139 104.203H726.107C726.107 103.115 725.776 102.283 725.115 101.707C724.453 101.11 723.461 100.811 722.139 100.811C721.221 100.811 720.315 100.96 719.419 101.259C718.544 101.536 717.797 101.92 717.179 102.411L715.387 98.9229C716.325 98.2616 717.445 97.7496 718.747 97.3869C720.069 97.0243 721.424 96.8429 722.811 96.8429ZM722.427 111.211C723.28 111.211 724.037 111.019 724.699 110.635C725.36 110.23 725.829 109.643 726.107 108.875V107.115H722.683C720.635 107.115 719.611 107.787 719.611 109.131C719.611 109.771 719.856 110.283 720.347 110.667C720.859 111.03 721.552 111.211 722.427 111.211ZM757.665 96.8429C759.819 96.8429 761.526 97.4829 762.785 98.7629C764.065 100.022 764.705 101.92 764.705 104.459V114.315H759.713V105.227C759.713 103.862 759.425 102.848 758.849 102.187C758.294 101.504 757.494 101.163 756.449 101.163C755.275 101.163 754.347 101.547 753.665 102.315C752.982 103.062 752.641 104.182 752.641 105.675V114.315H747.649V105.227C747.649 102.518 746.561 101.163 744.385 101.163C743.233 101.163 742.315 101.547 741.633 102.315C740.95 103.062 740.609 104.182 740.609 105.675V114.315H735.617V97.0989H740.385V99.0829C741.025 98.3576 741.803 97.8029 742.72 97.4189C743.659 97.0349 744.683 96.8429 745.793 96.8429C747.009 96.8429 748.107 97.0883 749.089 97.5789C750.07 98.0483 750.859 98.7416 751.457 99.6589C752.161 98.7629 753.046 98.0696 754.113 97.5789C755.201 97.0883 756.385 96.8429 757.665 96.8429ZM776.123 96.8429C778.79 96.8429 780.838 97.4829 782.267 98.7629C783.696 100.022 784.411 101.931 784.411 104.491V114.315H779.739V112.171C778.8 113.771 777.051 114.571 774.491 114.571C773.168 114.571 772.016 114.347 771.035 113.899C770.075 113.451 769.339 112.832 768.827 112.043C768.315 111.254 768.059 110.358 768.059 109.355C768.059 107.755 768.656 106.496 769.851 105.579C771.067 104.662 772.934 104.203 775.451 104.203H779.419C779.419 103.115 779.088 102.283 778.427 101.707C777.766 101.11 776.774 100.811 775.451 100.811C774.534 100.811 773.627 100.96 772.731 101.259C771.856 101.536 771.11 101.92 770.491 102.411L768.699 98.9229C769.638 98.2616 770.758 97.7496 772.059 97.3869C773.382 97.0243 774.736 96.8429 776.123 96.8429ZM775.739 111.211C776.592 111.211 777.35 111.019 778.011 110.635C778.672 110.23 779.142 109.643 779.419 108.875V107.115H775.995C773.947 107.115 772.923 107.787 772.923 109.131C772.923 109.771 773.168 110.283 773.659 110.667C774.171 111.03 774.864 111.211 775.739 111.211ZM806.877 97.0989V111.435C806.877 114.592 806.055 116.939 804.413 118.475C802.77 120.011 800.37 120.779 797.213 120.779C795.549 120.779 793.97 120.576 792.477 120.171C790.983 119.766 789.746 119.179 788.765 118.411L790.749 114.827C791.474 115.424 792.391 115.894 793.501 116.235C794.61 116.598 795.719 116.779 796.829 116.779C798.557 116.779 799.826 116.384 800.637 115.595C801.469 114.827 801.885 113.654 801.885 112.075V111.339C800.583 112.768 798.77 113.483 796.445 113.483C794.866 113.483 793.415 113.142 792.093 112.459C790.791 111.755 789.757 110.774 788.989 109.515C788.221 108.256 787.837 106.806 787.837 105.163C787.837 103.52 788.221 102.07 788.989 100.811C789.757 99.5523 790.791 98.5816 792.093 97.8989C793.415 97.1949 794.866 96.8429 796.445 96.8429C798.941 96.8429 800.839 97.6643 802.141 99.3069V97.0989H806.877ZM797.437 109.387C798.759 109.387 799.837 109.003 800.669 108.235C801.522 107.446 801.949 106.422 801.949 105.163C801.949 103.904 801.522 102.891 800.669 102.123C799.837 101.334 798.759 100.939 797.437 100.939C796.114 100.939 795.026 101.334 794.173 102.123C793.319 102.891 792.893 103.904 792.893 105.163C792.893 106.422 793.319 107.446 794.173 108.235C795.026 109.003 796.114 109.387 797.437 109.387ZM818.467 96.8429C821.133 96.8429 823.181 97.4829 824.611 98.7629C826.04 100.022 826.755 101.931 826.755 104.491V114.315H822.083V112.171C821.144 113.771 819.395 114.571 816.835 114.571C815.512 114.571 814.36 114.347 813.379 113.899C812.419 113.451 811.683 112.832 811.171 112.043C810.659 111.254 810.403 110.358 810.403 109.355C810.403 107.755 811 106.496 812.195 105.579C813.411 104.662 815.277 104.203 817.795 104.203H821.763C821.763 103.115 821.432 102.283 820.771 101.707C820.109 101.11 819.117 100.811 817.795 100.811C816.877 100.811 815.971 100.96 815.075 101.259C814.2 101.536 813.453 101.92 812.835 102.411L811.043 98.9229C811.981 98.2616 813.101 97.7496 814.403 97.3869C815.725 97.0243 817.08 96.8429 818.467 96.8429ZM818.083 111.211C818.936 111.211 819.693 111.019 820.355 110.635C821.016 110.23 821.485 109.643 821.763 108.875V107.115H818.339C816.291 107.115 815.267 107.787 815.267 109.131C815.267 109.771 815.512 110.283 816.003 110.667C816.515 111.03 817.208 111.211 818.083 111.211ZM836.041 99.3709C836.638 98.5389 837.438 97.9096 838.441 97.4829C839.465 97.0563 840.638 96.8429 841.961 96.8429V101.451C841.406 101.408 841.033 101.387 840.841 101.387C839.411 101.387 838.291 101.792 837.481 102.603C836.67 103.392 836.265 104.587 836.265 106.187V114.315H831.273V97.0989H836.041V99.3709ZM852.826 91.9149V114.315H847.641V96.0749H843.162V91.9149H852.826ZM865.357 91.9149V114.315H860.173V96.0749H855.693V91.9149H865.357ZM886.784 91.9149V95.2749L878.464 114.315H872.832L880.864 96.1389H873.44V99.7869H868.832V91.9149H886.784ZM904.049 91.5949C906.993 91.5949 909.606 92.2029 911.889 93.4189C914.193 94.6136 915.985 96.2669 917.265 98.3789C918.545 100.491 919.185 102.88 919.185 105.547C919.185 107.424 918.907 109.046 918.353 110.411C917.819 111.755 917.062 112.779 916.081 113.483C915.099 114.187 913.947 114.539 912.625 114.539C911.537 114.539 910.619 114.304 909.873 113.835C909.126 113.366 908.582 112.672 908.241 111.755C907.089 113.611 905.265 114.539 902.769 114.539C901.403 114.539 900.155 114.198 899.025 113.515C897.894 112.832 896.998 111.883 896.337 110.667C895.697 109.43 895.377 108.022 895.377 106.443C895.377 104.886 895.697 103.499 896.337 102.283C896.998 101.046 897.883 100.086 898.993 99.4029C900.123 98.7203 901.382 98.3789 902.769 98.3789C904.881 98.3789 906.523 99.0829 907.697 100.491V98.6029H912.049V108.971C912.049 110.336 912.561 111.019 913.585 111.019C914.331 111.019 914.907 110.571 915.313 109.675C915.739 108.779 915.953 107.424 915.953 105.611C915.953 103.456 915.451 101.558 914.449 99.9149C913.467 98.2509 912.07 96.9603 910.257 96.0429C908.465 95.1043 906.395 94.6349 904.049 94.6349C901.702 94.6349 899.622 95.1363 897.809 96.1389C896.017 97.1203 894.619 98.4856 893.617 100.235C892.635 101.984 892.145 103.968 892.145 106.187C892.145 108.448 892.635 110.464 893.617 112.235C894.598 113.984 895.974 115.35 897.745 116.331C899.537 117.334 901.595 117.835 903.921 117.835C906.225 117.835 908.326 117.366 910.225 116.427L911.249 119.371C910.289 119.862 909.147 120.235 907.825 120.491C906.523 120.768 905.222 120.907 903.921 120.907C900.891 120.907 898.214 120.267 895.889 118.987C893.563 117.728 891.761 115.979 890.481 113.739C889.201 111.499 888.561 108.982 888.561 106.187C888.561 103.414 889.201 100.918 890.481 98.6989C891.782 96.4803 893.606 94.7416 895.953 93.4829C898.299 92.2243 900.998 91.5949 904.049 91.5949ZM903.76 110.859C904.934 110.859 905.894 110.475 906.641 109.707C907.387 108.918 907.761 107.83 907.761 106.443C907.761 105.078 907.387 104.011 906.641 103.243C905.894 102.475 904.934 102.091 903.76 102.091C902.566 102.091 901.606 102.486 900.881 103.275C900.155 104.043 899.793 105.099 899.793 106.443C899.793 107.808 900.155 108.886 900.881 109.675C901.606 110.464 902.566 110.859 903.76 110.859ZM940.502 97.0989V111.435C940.502 114.592 939.68 116.939 938.038 118.475C936.395 120.011 933.995 120.779 930.838 120.779C929.174 120.779 927.595 120.576 926.102 120.171C924.608 119.766 923.371 119.179 922.39 118.411L924.374 114.827C925.099 115.424 926.016 115.894 927.126 116.235C928.235 116.598 929.344 116.779 930.454 116.779C932.182 116.779 933.451 116.384 934.262 115.595C935.094 114.827 935.51 113.654 935.51 112.075V111.339C934.208 112.768 932.395 113.483 930.07 113.483C928.491 113.483 927.04 113.142 925.718 112.459C924.416 111.755 923.382 110.774 922.614 109.515C921.846 108.256 921.462 106.806 921.462 105.163C921.462 103.52 921.846 102.07 922.614 100.811C923.382 99.5523 924.416 98.5816 925.718 97.8989C927.04 97.1949 928.491 96.8429 930.07 96.8429C932.566 96.8429 934.464 97.6643 935.766 99.3069V97.0989H940.502ZM931.062 109.387C932.384 109.387 933.462 109.003 934.294 108.235C935.147 107.446 935.574 106.422 935.574 105.163C935.574 103.904 935.147 102.891 934.294 102.123C933.462 101.334 932.384 100.939 931.062 100.939C929.739 100.939 928.651 101.334 927.798 102.123C926.944 102.891 926.518 103.904 926.518 105.163C926.518 106.422 926.944 107.446 927.798 108.235C928.651 109.003 929.739 109.387 931.062 109.387ZM967.196 96.8429C969.35 96.8429 971.057 97.4829 972.316 98.7629C973.596 100.022 974.236 101.92 974.236 104.459V114.315H969.244V105.227C969.244 103.862 968.956 102.848 968.38 102.187C967.825 101.504 967.025 101.163 965.98 101.163C964.806 101.163 963.878 101.547 963.196 102.315C962.513 103.062 962.172 104.182 962.172 105.675V114.315H957.18V105.227C957.18 102.518 956.092 101.163 953.916 101.163C952.764 101.163 951.846 101.547 951.164 102.315C950.481 103.062 950.14 104.182 950.14 105.675V114.315H945.148V97.0989H949.916V99.0829C950.556 98.3576 951.334 97.8029 952.252 97.4189C953.19 97.0349 954.214 96.8429 955.324 96.8429C956.54 96.8429 957.638 97.0883 958.62 97.5789C959.601 98.0483 960.39 98.7416 960.988 99.6589C961.692 98.7629 962.577 98.0696 963.644 97.5789C964.732 97.0883 965.916 96.8429 967.196 96.8429ZM985.654 96.8429C988.321 96.8429 990.369 97.4829 991.798 98.7629C993.228 100.022 993.942 101.931 993.942 104.491V114.315H989.27V112.171C988.332 113.771 986.582 114.571 984.022 114.571C982.7 114.571 981.548 114.347 980.566 113.899C979.606 113.451 978.87 112.832 978.358 112.043C977.846 111.254 977.59 110.358 977.59 109.355C977.59 107.755 978.188 106.496 979.382 105.579C980.598 104.662 982.465 104.203 984.982 104.203H988.95C988.95 103.115 988.62 102.283 987.958 101.707C987.297 101.11 986.305 100.811 984.982 100.811C984.065 100.811 983.158 100.96 982.262 101.259C981.388 101.536 980.641 101.92 980.022 102.411L978.23 98.9229C979.169 98.2616 980.289 97.7496 981.59 97.3869C982.913 97.0243 984.268 96.8429 985.654 96.8429ZM985.27 111.211C986.124 111.211 986.881 111.019 987.542 110.635C988.204 110.23 988.673 109.643 988.95 108.875V107.115H985.526C983.478 107.115 982.454 107.787 982.454 109.131C982.454 109.771 982.7 110.283 983.19 110.667C983.702 111.03 984.396 111.211 985.27 111.211ZM998.46 97.0989H1003.45V114.315H998.46V97.0989ZM1000.96 94.6989C1000.04 94.6989 999.292 94.4323 998.716 93.8989C998.14 93.3656 997.852 92.7043 997.852 91.9149C997.852 91.1256 998.14 90.4643 998.716 89.9309C999.292 89.3976 1000.04 89.1309 1000.96 89.1309C1001.87 89.1309 1002.62 89.3869 1003.2 89.8989C1003.77 90.4109 1004.06 91.0509 1004.06 91.8189C1004.06 92.6509 1003.77 93.3443 1003.2 93.8989C1002.62 94.4323 1001.87 94.6989 1000.96 94.6989ZM1008.09 90.5709H1013.08V114.315H1008.09V90.5709ZM1019.6 114.571C1018.72 114.571 1017.99 114.272 1017.39 113.675C1016.79 113.078 1016.49 112.331 1016.49 111.435C1016.49 110.518 1016.79 109.782 1017.39 109.227C1017.99 108.651 1018.72 108.363 1019.6 108.363C1020.47 108.363 1021.21 108.651 1021.81 109.227C1022.4 109.782 1022.7 110.518 1022.7 111.435C1022.7 112.331 1022.4 113.078 1021.81 113.675C1021.21 114.272 1020.47 114.571 1019.6 114.571ZM1034.19 114.571C1032.35 114.571 1030.7 114.198 1029.23 113.451C1027.78 112.683 1026.63 111.627 1025.8 110.283C1024.99 108.939 1024.59 107.414 1024.59 105.707C1024.59 104 1024.99 102.475 1025.8 101.131C1026.63 99.7869 1027.78 98.7416 1029.23 97.9949C1030.7 97.2269 1032.35 96.8429 1034.19 96.8429C1036 96.8429 1037.58 97.2269 1038.92 97.9949C1040.29 98.7416 1041.28 99.8189 1041.9 101.227L1038.03 103.307C1037.13 101.728 1035.84 100.939 1034.15 100.939C1032.85 100.939 1031.78 101.366 1030.92 102.219C1030.07 103.072 1029.64 104.235 1029.64 105.707C1029.64 107.179 1030.07 108.342 1030.92 109.195C1031.78 110.048 1032.85 110.475 1034.15 110.475C1035.86 110.475 1037.15 109.686 1038.03 108.107L1041.9 110.219C1041.28 111.584 1040.29 112.651 1038.92 113.419C1037.58 114.187 1036 114.571 1034.19 114.571ZM1052.75 114.571C1050.93 114.571 1049.3 114.198 1047.85 113.451C1046.42 112.683 1045.3 111.627 1044.49 110.283C1043.68 108.939 1043.27 107.414 1043.27 105.707C1043.27 104 1043.68 102.475 1044.49 101.131C1045.3 99.7869 1046.42 98.7416 1047.85 97.9949C1049.3 97.2269 1050.93 96.8429 1052.75 96.8429C1054.56 96.8429 1056.18 97.2269 1057.61 97.9949C1059.04 98.7416 1060.16 99.7869 1060.97 101.131C1061.78 102.475 1062.19 104 1062.19 105.707C1062.19 107.414 1061.78 108.939 1060.97 110.283C1060.16 111.627 1059.04 112.683 1057.61 113.451C1056.18 114.198 1054.56 114.571 1052.75 114.571ZM1052.75 110.475C1054.03 110.475 1055.07 110.048 1055.88 109.195C1056.71 108.32 1057.13 107.158 1057.13 105.707C1057.13 104.256 1056.71 103.104 1055.88 102.251C1055.07 101.376 1054.03 100.939 1052.75 100.939C1051.47 100.939 1050.41 101.376 1049.58 102.251C1048.75 103.104 1048.33 104.256 1048.33 105.707C1048.33 107.158 1048.75 108.32 1049.58 109.195C1050.41 110.048 1051.47 110.475 1052.75 110.475ZM1087.57 96.8429C1089.73 96.8429 1091.43 97.4829 1092.69 98.7629C1093.97 100.022 1094.61 101.92 1094.61 104.459V114.315H1089.62V105.227C1089.62 103.862 1089.33 102.848 1088.75 102.187C1088.2 101.504 1087.4 101.163 1086.35 101.163C1085.18 101.163 1084.25 101.547 1083.57 102.315C1082.89 103.062 1082.55 104.182 1082.55 105.675V114.315H1077.55V105.227C1077.55 102.518 1076.47 101.163 1074.29 101.163C1073.14 101.163 1072.22 101.547 1071.54 102.315C1070.86 103.062 1070.51 104.182 1070.51 105.675V114.315H1065.52V97.0989H1070.29V99.0829C1070.93 98.3576 1071.71 97.8029 1072.63 97.4189C1073.57 97.0349 1074.59 96.8429 1075.7 96.8429C1076.91 96.8429 1078.01 97.0883 1078.99 97.5789C1079.98 98.0483 1080.77 98.7416 1081.36 99.6589C1082.07 98.7629 1082.95 98.0696 1084.02 97.5789C1085.11 97.0883 1086.29 96.8429 1087.57 96.8429Z" fill="#130F26"/>
<path fill-rule="evenodd" clip-rule="evenodd" d="M618.231 65.4336C621.416 65.4336 624.48 66.6923 626.734 68.951C628.99 71.2048 630.251 74.2448 630.251 77.4273V96.1898C630.251 102.816 624.86 108.184 618.231 108.184H594.768C588.14 108.184 582.751 102.816 582.751 96.1898V77.4273C582.751 70.8011 588.116 65.4336 594.768 65.4336H618.231ZM622.01 80.966L622.2 80.776C622.767 80.0873 622.767 79.0898 622.174 78.401C621.843 78.0471 621.39 77.831 620.917 77.7835C620.418 77.7574 619.943 77.926 619.585 78.2585L608.876 86.8085C607.498 87.9509 605.525 87.9509 604.126 86.8085L593.438 78.2585C592.7 77.7123 591.679 77.7835 591.063 78.4248C590.422 79.066 590.351 80.0873 590.895 80.7998L591.206 81.1085L602.012 89.5398C603.342 90.5848 604.955 91.1548 606.643 91.1548C608.327 91.1548 609.968 90.5848 611.296 89.5398L622.01 80.966Z" fill="#130F26"/>
<rect x="2016.76" y="74.8584" width="23.3" height="23.3" rx="11.65" fill="#466FFF"/>
<rect x="1932.88" y="74.8584" width="23.3" height="23.3" rx="11.65" fill="#7F30FF"/>
<rect x="1974.82" y="74.8584" width="23.3" height="23.3" rx="11.65" fill="#FF004F"/>
<rect x="1890.94" y="74.8584" width="23.3" height="23.3" rx="11.65" fill="#FF4880"/>
<rect x="1849" y="74.8584" width="23.3" height="23.3" rx="11.65" fill="#FF8000"/>
<rect x="2058.7" y="74.8584" width="23.3" height="23.3" rx="11.65" fill="#75D4FF"/>
</svg>
