<svg width="873" height="753" viewBox="0 0 873 753" fill="none" xmlns="http://www.w3.org/2000/svg">
<rect x="1.5" y="1.5" width="870" height="750" rx="30.5" fill="white" stroke="url(#paint0_linear_236_284)" stroke-width="3" stroke-miterlimit="2.61313"/>
<path d="M65.4486 307.159C65.4486 316.336 72.9097 323.814 82.1029 323.814C91.2795 323.814 98.7572 316.336 98.7572 307.159C98.7572 297.966 91.2795 290.505 82.1029 290.505C72.9097 290.505 65.4486 297.966 65.4486 307.159V307.159Z" fill="#130F26"/>
<rect x="75.9011" y="305.588" width="8.64277" height="2.88092" rx="1.44046" transform="rotate(45 75.9011 305.588)" fill="white"/>
<rect x="91.1797" y="302.532" width="15.8451" height="2.88092" rx="1.44046" transform="rotate(135 91.1797 302.532)" fill="white"/>
<path d="M136.562 312.874H133.715V316.546H129.768V312.874H120.349V310.151L128.593 299.059H132.84L125.196 309.576H129.892V306.303H133.715V309.576H136.562V312.874ZM153.516 299.059C155.065 299.059 156.406 299.317 157.538 299.833C158.687 300.35 159.57 301.082 160.186 302.032C160.803 302.981 161.111 304.105 161.111 305.404C161.111 306.687 160.803 307.811 160.186 308.777C159.57 309.726 158.687 310.459 157.538 310.975C156.406 311.475 155.065 311.724 153.516 311.724H149.994V316.546H145.947V299.059H153.516ZM153.291 308.427C154.507 308.427 155.432 308.169 156.064 307.652C156.697 307.12 157.014 306.37 157.014 305.404C157.014 304.422 156.697 303.672 156.064 303.156C155.432 302.623 154.507 302.356 153.291 302.356H149.994V308.427H153.291ZM170.096 316.746C168.68 316.746 167.406 316.454 166.274 315.871C165.158 315.272 164.284 314.447 163.651 313.398C163.018 312.349 162.701 311.158 162.701 309.826C162.701 308.494 163.018 307.303 163.651 306.254C164.284 305.204 165.158 304.388 166.274 303.805C167.406 303.206 168.68 302.906 170.096 302.906C171.512 302.906 172.777 303.206 173.893 303.805C175.009 304.388 175.883 305.204 176.516 306.254C177.149 307.303 177.466 308.494 177.466 309.826C177.466 311.158 177.149 312.349 176.516 313.398C175.883 314.447 175.009 315.272 173.893 315.871C172.777 316.454 171.512 316.746 170.096 316.746ZM170.096 313.548C171.095 313.548 171.911 313.215 172.544 312.549C173.194 311.866 173.518 310.958 173.518 309.826C173.518 308.693 173.194 307.794 172.544 307.128C171.911 306.445 171.095 306.104 170.096 306.104C169.097 306.104 168.272 306.445 167.623 307.128C166.973 307.794 166.649 308.693 166.649 309.826C166.649 310.958 166.973 311.866 167.623 312.549C168.272 313.215 169.097 313.548 170.096 313.548ZM184.592 316.746C183.476 316.746 182.385 316.613 181.32 316.346C180.254 316.063 179.404 315.713 178.771 315.297L180.07 312.499C180.67 312.882 181.394 313.198 182.244 313.448C183.093 313.681 183.926 313.798 184.742 313.798C186.391 313.798 187.215 313.39 187.215 312.574C187.215 312.191 186.99 311.916 186.541 311.749C186.091 311.583 185.4 311.441 184.467 311.325C183.368 311.158 182.46 310.967 181.744 310.75C181.028 310.534 180.404 310.151 179.871 309.601C179.354 309.051 179.096 308.269 179.096 307.253C179.096 306.403 179.338 305.654 179.821 305.004C180.32 304.338 181.036 303.822 181.969 303.456C182.918 303.089 184.034 302.906 185.317 302.906C186.266 302.906 187.207 303.014 188.139 303.231C189.089 303.431 189.872 303.714 190.488 304.08L189.189 306.853C188.006 306.187 186.716 305.854 185.317 305.854C184.484 305.854 183.859 305.97 183.443 306.204C183.027 306.437 182.818 306.737 182.818 307.103C182.818 307.519 183.043 307.811 183.493 307.977C183.943 308.144 184.659 308.302 185.641 308.452C186.741 308.635 187.64 308.835 188.339 309.051C189.039 309.251 189.647 309.626 190.163 310.176C190.679 310.725 190.937 311.491 190.937 312.474C190.937 313.307 190.688 314.048 190.188 314.697C189.688 315.347 188.956 315.855 187.99 316.221C187.04 316.571 185.908 316.746 184.592 316.746ZM202.01 315.896C201.627 316.18 201.153 316.396 200.586 316.546C200.037 316.679 199.454 316.746 198.838 316.746C197.239 316.746 195.998 316.338 195.116 315.522C194.25 314.706 193.817 313.506 193.817 311.924V306.403H191.743V303.406H193.817V300.133H197.714V303.406H201.061V306.403H197.714V311.874C197.714 312.441 197.855 312.882 198.138 313.198C198.438 313.498 198.854 313.648 199.387 313.648C200.004 313.648 200.528 313.482 200.961 313.148L202.01 315.896ZM208.72 316.746C207.604 316.746 206.513 316.613 205.447 316.346C204.381 316.063 203.532 315.713 202.899 315.297L204.198 312.499C204.798 312.882 205.522 313.198 206.371 313.448C207.221 313.681 208.054 313.798 208.87 313.798C210.518 313.798 211.343 313.39 211.343 312.574C211.343 312.191 211.118 311.916 210.668 311.749C210.219 311.583 209.527 311.441 208.595 311.325C207.496 311.158 206.588 310.967 205.872 310.75C205.156 310.534 204.531 310.151 203.998 309.601C203.482 309.051 203.224 308.269 203.224 307.253C203.224 306.403 203.465 305.654 203.948 305.004C204.448 304.338 205.164 303.822 206.097 303.456C207.046 303.089 208.162 302.906 209.444 302.906C210.393 302.906 211.334 303.014 212.267 303.231C213.216 303.431 213.999 303.714 214.615 304.08L213.316 306.853C212.134 306.187 210.843 305.854 209.444 305.854C208.611 305.854 207.987 305.97 207.571 306.204C207.154 306.437 206.946 306.737 206.946 307.103C206.946 307.519 207.171 307.811 207.621 307.977C208.07 308.144 208.786 308.302 209.769 308.452C210.868 308.635 211.767 308.835 212.467 309.051C213.166 309.251 213.774 309.626 214.291 310.176C214.807 310.725 215.065 311.491 215.065 312.474C215.065 313.307 214.815 314.048 214.316 314.697C213.816 315.347 213.083 315.855 212.117 316.221C211.168 316.571 210.035 316.746 208.72 316.746ZM231.673 303.181C232.955 303.181 234.104 303.464 235.12 304.03C236.136 304.596 236.927 305.388 237.493 306.403C238.076 307.419 238.368 308.593 238.368 309.926C238.368 311.258 238.076 312.441 237.493 313.473C236.927 314.489 236.136 315.28 235.12 315.846C234.104 316.413 232.955 316.696 231.673 316.696C230.724 316.696 229.849 316.513 229.05 316.146C228.267 315.78 227.601 315.247 227.051 314.547V321.392H224.653V303.306H226.951V305.404C227.484 304.671 228.159 304.122 228.975 303.755C229.791 303.372 230.69 303.181 231.673 303.181ZM231.473 314.597C232.322 314.597 233.08 314.406 233.746 314.023C234.429 313.623 234.962 313.073 235.345 312.374C235.745 311.658 235.945 310.842 235.945 309.926C235.945 309.01 235.745 308.202 235.345 307.503C234.962 306.786 234.429 306.237 233.746 305.854C233.08 305.471 232.322 305.279 231.473 305.279C230.64 305.279 229.882 305.479 229.2 305.879C228.533 306.262 228.001 306.803 227.601 307.503C227.218 308.202 227.026 309.01 227.026 309.926C227.026 310.842 227.218 311.658 227.601 312.374C227.984 313.073 228.517 313.623 229.2 314.023C229.882 314.406 230.64 314.597 231.473 314.597ZM253.648 310.001C253.648 310.184 253.631 310.425 253.598 310.725H242.856C243.005 311.891 243.513 312.832 244.379 313.548C245.262 314.248 246.353 314.597 247.652 314.597C249.234 314.597 250.508 314.064 251.474 312.999L252.798 314.547C252.199 315.247 251.449 315.78 250.55 316.146C249.667 316.513 248.676 316.696 247.577 316.696C246.178 316.696 244.937 316.413 243.855 315.846C242.772 315.264 241.931 314.456 241.332 313.423C240.749 312.391 240.457 311.225 240.457 309.926C240.457 308.643 240.74 307.486 241.307 306.453C241.89 305.421 242.681 304.621 243.68 304.055C244.696 303.472 245.837 303.181 247.102 303.181C248.368 303.181 249.492 303.472 250.475 304.055C251.474 304.621 252.249 305.421 252.798 306.453C253.364 307.486 253.648 308.668 253.648 310.001ZM247.102 305.204C245.953 305.204 244.987 305.554 244.205 306.254C243.438 306.953 242.989 307.869 242.856 309.001H251.349C251.216 307.886 250.758 306.978 249.975 306.279C249.209 305.562 248.252 305.204 247.102 305.204ZM259.276 305.529C259.692 304.763 260.309 304.18 261.125 303.78C261.941 303.381 262.932 303.181 264.097 303.181V305.504C263.964 305.487 263.781 305.479 263.548 305.479C262.249 305.479 261.225 305.87 260.475 306.653C259.742 307.419 259.376 308.519 259.376 309.951V316.546H256.978V303.306H259.276V305.529ZM293.968 303.306L289.022 316.546H286.723L282.901 306.503L279.029 316.546H276.731L271.809 303.306H274.083L277.93 313.848L281.927 303.306H283.95L287.873 313.898L291.82 303.306H293.968ZM308.002 310.001C308.002 310.184 307.985 310.425 307.952 310.725H297.21C297.36 311.891 297.868 312.832 298.734 313.548C299.616 314.248 300.707 314.597 302.006 314.597C303.588 314.597 304.862 314.064 305.828 312.999L307.152 314.547C306.553 315.247 305.803 315.78 304.904 316.146C304.021 316.513 303.03 316.696 301.931 316.696C300.532 316.696 299.292 316.413 298.209 315.846C297.126 315.264 296.285 314.456 295.686 313.423C295.103 312.391 294.812 311.225 294.812 309.926C294.812 308.643 295.095 307.486 295.661 306.453C296.244 305.421 297.035 304.621 298.034 304.055C299.05 303.472 300.191 303.181 301.457 303.181C302.722 303.181 303.847 303.472 304.829 304.055C305.828 304.621 306.603 305.421 307.152 306.453C307.719 307.486 308.002 308.668 308.002 310.001ZM301.457 305.204C300.307 305.204 299.342 305.554 298.559 306.254C297.793 306.953 297.343 307.869 297.21 309.001H305.703C305.57 307.886 305.112 306.978 304.329 306.279C303.563 305.562 302.606 305.204 301.457 305.204ZM323.298 310.001C323.298 310.184 323.281 310.425 323.248 310.725H312.506C312.656 311.891 313.164 312.832 314.03 313.548C314.913 314.248 316.003 314.597 317.302 314.597C318.885 314.597 320.159 314.064 321.125 312.999L322.449 314.547C321.849 315.247 321.1 315.78 320.2 316.146C319.318 316.513 318.327 316.696 317.228 316.696C315.829 316.696 314.588 316.413 313.505 315.846C312.423 315.264 311.582 314.456 310.982 313.423C310.399 312.391 310.108 311.225 310.108 309.926C310.108 308.643 310.391 307.486 310.957 306.453C311.54 305.421 312.331 304.621 313.33 304.055C314.346 303.472 315.487 303.181 316.753 303.181C318.019 303.181 319.143 303.472 320.125 304.055C321.125 304.621 321.899 305.421 322.449 306.453C323.015 307.486 323.298 308.668 323.298 310.001ZM316.753 305.204C315.604 305.204 314.638 305.554 313.855 306.254C313.089 306.953 312.639 307.869 312.506 309.001H321C320.867 307.886 320.409 306.978 319.626 306.279C318.86 305.562 317.902 305.204 316.753 305.204ZM331.774 310.375L329.026 312.924V316.546H326.628V298.01H329.026V309.901L336.246 303.306H339.144L333.573 308.777L339.694 316.546H336.746L331.774 310.375Z" fill="#1A1A1A"/>
<path d="M65.4486 372.111C65.4486 381.288 72.9097 388.766 82.1029 388.766C91.2795 388.766 98.7572 381.288 98.7572 372.111C98.7572 362.918 91.2795 355.457 82.1029 355.457C72.9097 355.457 65.4486 362.918 65.4486 372.111V372.111Z" fill="#130F26"/>
<rect x="75.9011" y="370.54" width="8.64277" height="2.88092" rx="1.44046" transform="rotate(45 75.9011 370.54)" fill="white"/>
<rect x="91.1797" y="367.484" width="15.8451" height="2.88092" rx="1.44046" transform="rotate(135 91.1797 367.484)" fill="white"/>
<path d="M128.718 371.131C130.25 371.381 131.425 371.955 132.241 372.854C133.057 373.737 133.465 374.836 133.465 376.152C133.465 377.168 133.198 378.109 132.665 378.975C132.132 379.824 131.316 380.507 130.217 381.023C129.135 381.54 127.802 381.798 126.22 381.798C124.988 381.798 123.772 381.64 122.573 381.323C121.39 380.99 120.383 380.524 119.55 379.924L121.124 376.827C121.79 377.326 122.556 377.718 123.422 378.001C124.305 378.267 125.204 378.4 126.12 378.4C127.136 378.4 127.936 378.209 128.518 377.826C129.101 377.426 129.393 376.868 129.393 376.152C129.393 374.72 128.302 374.004 126.12 374.004H124.272V371.331L127.869 367.259H120.424V364.011H132.665V366.634L128.718 371.131ZM154.649 381.498L151.277 376.627H151.077H147.554V381.498H143.507V364.011H151.077C152.626 364.011 153.966 364.269 155.099 364.785C156.248 365.302 157.131 366.035 157.747 366.984C158.363 367.933 158.671 369.057 158.671 370.356C158.671 371.655 158.355 372.78 157.722 373.729C157.106 374.661 156.223 375.378 155.074 375.877L158.996 381.498H154.649ZM154.574 370.356C154.574 369.374 154.258 368.624 153.625 368.108C152.992 367.575 152.068 367.309 150.852 367.309H147.554V373.404H150.852C152.068 373.404 152.992 373.138 153.625 372.605C154.258 372.072 154.574 371.322 154.574 370.356ZM174.768 374.828C174.768 374.878 174.743 375.228 174.693 375.877H164.526C164.709 376.71 165.142 377.368 165.825 377.851C166.507 378.334 167.357 378.575 168.373 378.575C169.072 378.575 169.688 378.475 170.221 378.275C170.771 378.059 171.279 377.726 171.745 377.276L173.819 379.525C172.553 380.973 170.704 381.698 168.273 381.698C166.757 381.698 165.417 381.406 164.251 380.824C163.085 380.224 162.186 379.4 161.553 378.35C160.92 377.301 160.603 376.11 160.603 374.778C160.603 373.462 160.912 372.28 161.528 371.231C162.161 370.165 163.018 369.34 164.101 368.757C165.2 368.158 166.424 367.858 167.773 367.858C169.089 367.858 170.28 368.141 171.345 368.708C172.411 369.274 173.244 370.09 173.844 371.156C174.46 372.205 174.768 373.429 174.768 374.828ZM167.798 370.806C166.915 370.806 166.174 371.056 165.575 371.555C164.975 372.055 164.609 372.738 164.476 373.604H171.096C170.962 372.755 170.596 372.08 169.996 371.58C169.397 371.064 168.664 370.806 167.798 370.806ZM190.528 374.828C190.528 374.878 190.503 375.228 190.453 375.877H180.285C180.469 376.71 180.902 377.368 181.584 377.851C182.267 378.334 183.117 378.575 184.132 378.575C184.832 378.575 185.448 378.475 185.981 378.275C186.531 378.059 187.039 377.726 187.505 377.276L189.578 379.525C188.313 380.973 186.464 381.698 184.033 381.698C182.517 381.698 181.176 381.406 180.011 380.824C178.845 380.224 177.945 379.4 177.313 378.35C176.68 377.301 176.363 376.11 176.363 374.778C176.363 373.462 176.671 372.28 177.288 371.231C177.92 370.165 178.778 369.34 179.861 368.757C180.96 368.158 182.184 367.858 183.533 367.858C184.849 367.858 186.039 368.141 187.105 368.708C188.171 369.274 189.004 370.09 189.603 371.156C190.22 372.205 190.528 373.429 190.528 374.828ZM183.558 370.806C182.675 370.806 181.934 371.056 181.335 371.555C180.735 372.055 180.369 372.738 180.235 373.604H186.855C186.722 372.755 186.356 372.08 185.756 371.58C185.157 371.064 184.424 370.806 183.558 370.806ZM193.122 362.962H197.019V381.498H193.122V362.962ZM205.158 381.698C204.042 381.698 202.951 381.565 201.885 381.298C200.819 381.015 199.97 380.665 199.337 380.249L200.636 377.451C201.236 377.834 201.96 378.151 202.81 378.4C203.659 378.634 204.492 378.75 205.308 378.75C206.957 378.75 207.781 378.342 207.781 377.526C207.781 377.143 207.556 376.868 207.106 376.702C206.657 376.535 205.966 376.393 205.033 376.277C203.934 376.11 203.026 375.919 202.31 375.702C201.594 375.486 200.969 375.103 200.436 374.553C199.92 374.004 199.662 373.221 199.662 372.205C199.662 371.356 199.903 370.606 200.386 369.957C200.886 369.29 201.602 368.774 202.535 368.408C203.484 368.041 204.6 367.858 205.882 367.858C206.832 367.858 207.773 367.966 208.705 368.183C209.655 368.383 210.437 368.666 211.054 369.032L209.754 371.805C208.572 371.139 207.281 370.806 205.882 370.806C205.05 370.806 204.425 370.923 204.009 371.156C203.592 371.389 203.384 371.689 203.384 372.055C203.384 372.471 203.609 372.763 204.059 372.929C204.508 373.096 205.225 373.254 206.207 373.404C207.306 373.587 208.206 373.787 208.905 374.004C209.605 374.203 210.212 374.578 210.729 375.128C211.245 375.677 211.503 376.443 211.503 377.426C211.503 378.259 211.253 379 210.754 379.649C210.254 380.299 209.521 380.807 208.555 381.173C207.606 381.523 206.474 381.698 205.158 381.698ZM228.111 368.133C229.393 368.133 230.543 368.416 231.558 368.982C232.574 369.549 233.365 370.34 233.932 371.356C234.515 372.371 234.806 373.546 234.806 374.878C234.806 376.21 234.515 377.393 233.932 378.425C233.365 379.441 232.574 380.232 231.558 380.799C230.543 381.365 229.393 381.648 228.111 381.648C227.162 381.648 226.287 381.465 225.488 381.098C224.705 380.732 224.039 380.199 223.489 379.5V386.344H221.091V368.258H223.389V370.356C223.922 369.624 224.597 369.074 225.413 368.708C226.229 368.324 227.128 368.133 228.111 368.133ZM227.911 379.549C228.761 379.549 229.518 379.358 230.184 378.975C230.867 378.575 231.4 378.026 231.783 377.326C232.183 376.61 232.383 375.794 232.383 374.878C232.383 373.962 232.183 373.154 231.783 372.455C231.4 371.739 230.867 371.189 230.184 370.806C229.518 370.423 228.761 370.231 227.911 370.231C227.078 370.231 226.321 370.431 225.638 370.831C224.972 371.214 224.439 371.755 224.039 372.455C223.656 373.154 223.464 373.962 223.464 374.878C223.464 375.794 223.656 376.61 224.039 377.326C224.422 378.026 224.955 378.575 225.638 378.975C226.321 379.358 227.078 379.549 227.911 379.549ZM250.086 374.953C250.086 375.136 250.069 375.378 250.036 375.677H239.294C239.444 376.843 239.952 377.784 240.818 378.5C241.7 379.2 242.791 379.549 244.09 379.549C245.672 379.549 246.946 379.017 247.912 377.951L249.236 379.5C248.637 380.199 247.887 380.732 246.988 381.098C246.105 381.465 245.114 381.648 244.015 381.648C242.616 381.648 241.376 381.365 240.293 380.799C239.21 380.216 238.369 379.408 237.77 378.375C237.187 377.343 236.895 376.177 236.895 374.878C236.895 373.596 237.179 372.438 237.745 371.406C238.328 370.373 239.119 369.574 240.118 369.007C241.134 368.424 242.275 368.133 243.541 368.133C244.806 368.133 245.93 368.424 246.913 369.007C247.912 369.574 248.687 370.373 249.236 371.406C249.803 372.438 250.086 373.621 250.086 374.953ZM243.541 370.156C242.391 370.156 241.425 370.506 240.643 371.206C239.877 371.905 239.427 372.821 239.294 373.954H247.787C247.654 372.838 247.196 371.93 246.413 371.231C245.647 370.515 244.69 370.156 243.541 370.156ZM255.714 370.481C256.131 369.715 256.747 369.132 257.563 368.733C258.379 368.333 259.37 368.133 260.536 368.133V370.456C260.402 370.44 260.219 370.431 259.986 370.431C258.687 370.431 257.663 370.823 256.913 371.605C256.18 372.371 255.814 373.471 255.814 374.903V381.498H253.416V368.258H255.714V370.481ZM290.406 368.258L285.46 381.498H283.162L279.339 371.455L275.467 381.498H273.169L268.248 368.258H270.521L274.368 378.8L278.365 368.258H280.389L284.311 378.85L288.258 368.258H290.406ZM304.44 374.953C304.44 375.136 304.423 375.378 304.39 375.677H293.648C293.798 376.843 294.306 377.784 295.172 378.5C296.054 379.2 297.145 379.549 298.444 379.549C300.027 379.549 301.301 379.017 302.267 377.951L303.591 379.5C302.991 380.199 302.242 380.732 301.342 381.098C300.46 381.465 299.469 381.648 298.369 381.648C296.97 381.648 295.73 381.365 294.647 380.799C293.565 380.216 292.724 379.408 292.124 378.375C291.541 377.343 291.25 376.177 291.25 374.878C291.25 373.596 291.533 372.438 292.099 371.406C292.682 370.373 293.473 369.574 294.472 369.007C295.488 368.424 296.629 368.133 297.895 368.133C299.161 368.133 300.285 368.424 301.267 369.007C302.267 369.574 303.041 370.373 303.591 371.406C304.157 372.438 304.44 373.621 304.44 374.953ZM297.895 370.156C296.746 370.156 295.78 370.506 294.997 371.206C294.231 371.905 293.781 372.821 293.648 373.954H302.142C302.008 372.838 301.55 371.93 300.768 371.231C300.002 370.515 299.044 370.156 297.895 370.156ZM319.736 374.953C319.736 375.136 319.72 375.378 319.686 375.677H308.944C309.094 376.843 309.602 377.784 310.468 378.5C311.351 379.2 312.442 379.549 313.741 379.549C315.323 379.549 316.597 379.017 317.563 377.951L318.887 379.5C318.287 380.199 317.538 380.732 316.639 381.098C315.756 381.465 314.765 381.648 313.666 381.648C312.267 381.648 311.026 381.365 309.943 380.799C308.861 380.216 308.02 379.408 307.42 378.375C306.837 377.343 306.546 376.177 306.546 374.878C306.546 373.596 306.829 372.438 307.395 371.406C307.978 370.373 308.769 369.574 309.769 369.007C310.785 368.424 311.925 368.133 313.191 368.133C314.457 368.133 315.581 368.424 316.564 369.007C317.563 369.574 318.337 370.373 318.887 371.406C319.453 372.438 319.736 373.621 319.736 374.953ZM313.191 370.156C312.042 370.156 311.076 370.506 310.293 371.206C309.527 371.905 309.077 372.821 308.944 373.954H317.438C317.305 372.838 316.847 371.93 316.064 371.231C315.298 370.515 314.34 370.156 313.191 370.156ZM328.213 375.328L325.465 377.876V381.498H323.066V362.962H325.465V374.853L332.684 368.258H335.582L330.011 373.729L336.132 381.498H333.184L328.213 375.328Z" fill="#1A1A1A"/>
<path d="M65.4486 502.015C65.4486 511.191 72.9097 518.669 82.1029 518.669C91.2795 518.669 98.7572 511.191 98.7572 502.015C98.7572 492.821 91.2795 485.36 82.1029 485.36C72.9097 485.36 65.4486 492.821 65.4486 502.015V502.015Z" fill="#130F26"/>
<rect x="75.9011" y="500.443" width="8.64277" height="2.88092" rx="1.44046" transform="rotate(45 75.9011 500.443)" fill="white"/>
<rect x="91.1797" y="497.388" width="15.8451" height="2.88092" rx="1.44046" transform="rotate(135 91.1797 497.388)" fill="white"/>
<path d="M133.34 507.03H124.047L122.123 511.401H119.55L127.469 493.914H129.942L137.886 511.401H135.263L133.34 507.03ZM132.466 505.031L128.693 496.462L124.921 505.031H132.466ZM145.794 511.551C144.445 511.551 143.238 511.26 142.172 510.677C141.123 510.094 140.298 509.295 139.699 508.279C139.099 507.246 138.799 506.08 138.799 504.781C138.799 503.482 139.099 502.325 139.699 501.309C140.298 500.276 141.123 499.477 142.172 498.911C143.238 498.328 144.445 498.036 145.794 498.036C146.993 498.036 148.059 498.278 148.992 498.761C149.941 499.244 150.674 499.943 151.19 500.859L149.366 502.033C148.95 501.4 148.434 500.926 147.818 500.609C147.201 500.293 146.519 500.135 145.769 500.135C144.903 500.135 144.12 500.326 143.421 500.709C142.738 501.092 142.197 501.642 141.797 502.358C141.414 503.058 141.222 503.865 141.222 504.781C141.222 505.714 141.414 506.538 141.797 507.254C142.197 507.954 142.738 508.495 143.421 508.878C144.12 509.261 144.903 509.453 145.769 509.453C146.519 509.453 147.201 509.295 147.818 508.978C148.434 508.662 148.95 508.187 149.366 507.554L151.19 508.703C150.674 509.619 149.941 510.327 148.992 510.827C148.059 511.31 146.993 511.551 145.794 511.551ZM159.871 511.551C158.522 511.551 157.314 511.26 156.248 510.677C155.199 510.094 154.375 509.295 153.775 508.279C153.176 507.246 152.876 506.08 152.876 504.781C152.876 503.482 153.176 502.325 153.775 501.309C154.375 500.276 155.199 499.477 156.248 498.911C157.314 498.328 158.522 498.036 159.871 498.036C161.07 498.036 162.136 498.278 163.068 498.761C164.018 499.244 164.75 499.943 165.267 500.859L163.443 502.033C163.027 501.4 162.51 500.926 161.894 500.609C161.278 500.293 160.595 500.135 159.846 500.135C158.98 500.135 158.197 500.326 157.497 500.709C156.815 501.092 156.273 501.642 155.874 502.358C155.49 503.058 155.299 503.865 155.299 504.781C155.299 505.714 155.49 506.538 155.874 507.254C156.273 507.954 156.815 508.495 157.497 508.878C158.197 509.261 158.98 509.453 159.846 509.453C160.595 509.453 161.278 509.295 161.894 508.978C162.51 508.662 163.027 508.187 163.443 507.554L165.267 508.703C164.75 509.619 164.018 510.327 163.068 510.827C162.136 511.31 161.07 511.551 159.871 511.551ZM173.847 511.551C172.531 511.551 171.349 511.26 170.3 510.677C169.251 510.094 168.426 509.295 167.827 508.279C167.244 507.246 166.952 506.08 166.952 504.781C166.952 503.482 167.244 502.325 167.827 501.309C168.426 500.276 169.251 499.477 170.3 498.911C171.349 498.328 172.531 498.036 173.847 498.036C175.163 498.036 176.337 498.328 177.37 498.911C178.419 499.477 179.235 500.276 179.818 501.309C180.417 502.325 180.717 503.482 180.717 504.781C180.717 506.08 180.417 507.246 179.818 508.279C179.235 509.295 178.419 510.094 177.37 510.677C176.337 511.26 175.163 511.551 173.847 511.551ZM173.847 509.453C174.697 509.453 175.454 509.261 176.12 508.878C176.803 508.479 177.336 507.929 177.719 507.229C178.102 506.513 178.294 505.697 178.294 504.781C178.294 503.865 178.102 503.058 177.719 502.358C177.336 501.642 176.803 501.092 176.12 500.709C175.454 500.326 174.697 500.135 173.847 500.135C172.998 500.135 172.232 500.326 171.549 500.709C170.883 501.092 170.35 501.642 169.95 502.358C169.567 503.058 169.375 503.865 169.375 504.781C169.375 505.697 169.567 506.513 169.95 507.229C170.35 507.929 170.883 508.479 171.549 508.878C172.232 509.261 172.998 509.453 173.847 509.453ZM196.375 498.161V511.401H194.101V509.403C193.618 510.086 192.977 510.619 192.178 511.002C191.395 511.368 190.537 511.551 189.605 511.551C187.839 511.551 186.449 511.068 185.433 510.102C184.417 509.12 183.909 507.679 183.909 505.781V498.161H186.307V505.506C186.307 506.788 186.615 507.762 187.231 508.429C187.848 509.078 188.73 509.403 189.879 509.403C191.145 509.403 192.144 509.02 192.877 508.254C193.61 507.488 193.976 506.405 193.976 505.006V498.161H196.375ZM208.01 498.036C209.692 498.036 211.024 498.528 212.007 499.51C213.006 500.476 213.506 501.9 213.506 503.782V511.401H211.108V504.057C211.108 502.774 210.799 501.808 210.183 501.159C209.567 500.509 208.684 500.185 207.535 500.185C206.236 500.185 205.212 500.568 204.463 501.334C203.713 502.083 203.338 503.166 203.338 504.581V511.401H200.94V498.161H203.238V500.16C203.721 499.477 204.371 498.952 205.187 498.586C206.02 498.219 206.961 498.036 208.01 498.036ZM225.389 510.627C225.039 510.927 224.606 511.16 224.09 511.326C223.573 511.476 223.04 511.551 222.491 511.551C221.158 511.551 220.126 511.193 219.393 510.477C218.66 509.761 218.294 508.737 218.294 507.404V500.135H216.046V498.161H218.294V495.263H220.692V498.161H224.489V500.135H220.692V507.304C220.692 508.021 220.867 508.57 221.217 508.953C221.583 509.336 222.099 509.528 222.766 509.528C223.498 509.528 224.123 509.32 224.639 508.903L225.389 510.627ZM251.56 498.036C253.225 498.036 254.541 498.519 255.507 499.485C256.489 500.451 256.981 501.883 256.981 503.782V511.401H254.582V504.057C254.582 502.774 254.283 501.808 253.683 501.159C253.1 500.509 252.259 500.185 251.16 500.185C249.944 500.185 248.978 500.568 248.262 501.334C247.546 502.083 247.188 503.166 247.188 504.581V511.401H244.79V504.057C244.79 502.774 244.49 501.808 243.89 501.159C243.307 500.509 242.466 500.185 241.367 500.185C240.151 500.185 239.185 500.568 238.469 501.334C237.753 502.083 237.395 503.166 237.395 504.581V511.401H234.997V498.161H237.295V500.135C237.778 499.452 238.411 498.936 239.194 498.586C239.977 498.219 240.868 498.036 241.867 498.036C242.899 498.036 243.815 498.244 244.615 498.661C245.414 499.077 246.03 499.685 246.463 500.484C246.963 499.718 247.654 499.119 248.537 498.686C249.436 498.253 250.444 498.036 251.56 498.036ZM266.215 498.036C268.047 498.036 269.446 498.486 270.412 499.385C271.394 500.285 271.886 501.625 271.886 503.407V511.401H269.612V509.653C269.213 510.269 268.638 510.744 267.889 511.077C267.156 511.393 266.281 511.551 265.265 511.551C263.783 511.551 262.592 511.193 261.693 510.477C260.81 509.761 260.369 508.82 260.369 507.654C260.369 506.488 260.794 505.556 261.643 504.856C262.493 504.14 263.842 503.782 265.69 503.782H269.487V503.307C269.487 502.275 269.188 501.484 268.588 500.934C267.988 500.385 267.106 500.11 265.94 500.11C265.157 500.11 264.391 500.243 263.642 500.509C262.892 500.759 262.259 501.101 261.743 501.534L260.744 499.735C261.427 499.185 262.243 498.769 263.192 498.486C264.141 498.186 265.149 498.036 266.215 498.036ZM265.665 509.703C266.581 509.703 267.372 509.503 268.038 509.103C268.705 508.687 269.188 508.104 269.487 507.354V505.506H265.79C263.758 505.506 262.742 506.189 262.742 507.554C262.742 508.22 263 508.745 263.517 509.128C264.033 509.511 264.749 509.703 265.665 509.703ZM283.393 498.036C285.076 498.036 286.408 498.528 287.39 499.51C288.39 500.476 288.889 501.9 288.889 503.782V511.401H286.491V504.057C286.491 502.774 286.183 501.808 285.567 501.159C284.951 500.509 284.068 500.185 282.919 500.185C281.62 500.185 280.596 500.568 279.846 501.334C279.097 502.083 278.722 503.166 278.722 504.581V511.401H276.324V498.161H278.622V500.16C279.105 499.477 279.754 498.952 280.571 498.586C281.403 498.219 282.344 498.036 283.393 498.036ZM298.149 498.036C299.981 498.036 301.38 498.486 302.346 499.385C303.329 500.285 303.82 501.625 303.82 503.407V511.401H301.547V509.653C301.147 510.269 300.572 510.744 299.823 511.077C299.09 511.393 298.216 511.551 297.2 511.551C295.718 511.551 294.527 511.193 293.627 510.477C292.745 509.761 292.303 508.82 292.303 507.654C292.303 506.488 292.728 505.556 293.577 504.856C294.427 504.14 295.776 503.782 297.624 503.782H301.422V503.307C301.422 502.275 301.122 501.484 300.522 500.934C299.923 500.385 299.04 500.11 297.874 500.11C297.092 500.11 296.325 500.243 295.576 500.509C294.827 500.759 294.194 501.101 293.677 501.534L292.678 499.735C293.361 499.185 294.177 498.769 295.126 498.486C296.076 498.186 297.083 498.036 298.149 498.036ZM297.6 509.703C298.516 509.703 299.307 509.503 299.973 509.103C300.639 508.687 301.122 508.104 301.422 507.354V505.506H297.724C295.693 505.506 294.677 506.189 294.677 507.554C294.677 508.22 294.935 508.745 295.451 509.128C295.967 509.511 296.684 509.703 297.6 509.703ZM320.997 498.161V509.603C320.997 511.918 320.422 513.625 319.273 514.724C318.124 515.84 316.409 516.398 314.127 516.398C312.878 516.398 311.687 516.223 310.555 515.873C309.422 515.54 308.506 515.057 307.807 514.424L308.956 512.575C309.572 513.108 310.33 513.525 311.229 513.825C312.145 514.141 313.086 514.299 314.052 514.299C315.601 514.299 316.742 513.933 317.474 513.2C318.224 512.467 318.599 511.351 318.599 509.853V508.803C318.032 509.486 317.333 510.002 316.5 510.352C315.684 510.685 314.793 510.852 313.827 510.852C312.561 510.852 311.412 510.585 310.38 510.052C309.364 509.503 308.564 508.745 307.981 507.779C307.399 506.796 307.107 505.681 307.107 504.432C307.107 503.182 307.399 502.075 307.981 501.109C308.564 500.126 309.364 499.369 310.38 498.836C311.412 498.303 312.561 498.036 313.827 498.036C314.826 498.036 315.751 498.219 316.6 498.586C317.466 498.952 318.174 499.494 318.723 500.21V498.161H320.997ZM314.102 508.753C314.968 508.753 315.742 508.57 316.425 508.204C317.125 507.837 317.666 507.329 318.049 506.68C318.449 506.014 318.649 505.264 318.649 504.432C318.649 503.149 318.224 502.117 317.374 501.334C316.525 500.534 315.434 500.135 314.102 500.135C312.753 500.135 311.654 500.534 310.804 501.334C309.955 502.117 309.53 503.149 309.53 504.432C309.53 505.264 309.722 506.014 310.105 506.68C310.505 507.329 311.046 507.837 311.729 508.204C312.428 508.57 313.219 508.753 314.102 508.753ZM337.545 504.856C337.545 505.039 337.529 505.281 337.495 505.581H326.753C326.903 506.746 327.411 507.687 328.277 508.404C329.16 509.103 330.251 509.453 331.55 509.453C333.132 509.453 334.406 508.92 335.372 507.854L336.696 509.403C336.096 510.102 335.347 510.635 334.448 511.002C333.565 511.368 332.574 511.551 331.475 511.551C330.076 511.551 328.835 511.268 327.753 510.702C326.67 510.119 325.829 509.311 325.229 508.279C324.647 507.246 324.355 506.08 324.355 504.781C324.355 503.499 324.638 502.341 325.204 501.309C325.787 500.276 326.578 499.477 327.578 498.911C328.594 498.328 329.734 498.036 331 498.036C332.266 498.036 333.39 498.328 334.373 498.911C335.372 499.477 336.146 500.276 336.696 501.309C337.262 502.341 337.545 503.524 337.545 504.856ZM331 500.06C329.851 500.06 328.885 500.41 328.102 501.109C327.336 501.808 326.887 502.724 326.753 503.857H335.247C335.114 502.741 334.656 501.833 333.873 501.134C333.107 500.418 332.149 500.06 331 500.06ZM357.438 498.036C359.104 498.036 360.419 498.519 361.385 499.485C362.368 500.451 362.859 501.883 362.859 503.782V511.401H360.461V504.057C360.461 502.774 360.161 501.808 359.562 501.159C358.979 500.509 358.138 500.185 357.038 500.185C355.823 500.185 354.857 500.568 354.141 501.334C353.424 502.083 353.066 503.166 353.066 504.581V511.401H350.668V504.057C350.668 502.774 350.368 501.808 349.769 501.159C349.186 500.509 348.345 500.185 347.246 500.185C346.03 500.185 345.064 500.568 344.348 501.334C343.632 502.083 343.274 503.166 343.274 504.581V511.401H340.875V498.161H343.174V500.135C343.657 499.452 344.29 498.936 345.072 498.586C345.855 498.219 346.746 498.036 347.745 498.036C348.778 498.036 349.694 498.244 350.493 498.661C351.293 499.077 351.909 499.685 352.342 500.484C352.842 499.718 353.533 499.119 354.415 498.686C355.315 498.253 356.322 498.036 357.438 498.036ZM379.311 504.856C379.311 505.039 379.295 505.281 379.261 505.581H368.519C368.669 506.746 369.177 507.687 370.043 508.404C370.926 509.103 372.017 509.453 373.316 509.453C374.898 509.453 376.172 508.92 377.138 507.854L378.462 509.403C377.862 510.102 377.113 510.635 376.213 511.002C375.331 511.368 374.34 511.551 373.241 511.551C371.842 511.551 370.601 511.268 369.518 510.702C368.436 510.119 367.595 509.311 366.995 508.279C366.412 507.246 366.121 506.08 366.121 504.781C366.121 503.499 366.404 502.341 366.97 501.309C367.553 500.276 368.344 499.477 369.344 498.911C370.359 498.328 371.5 498.036 372.766 498.036C374.032 498.036 375.156 498.328 376.139 498.911C377.138 499.477 377.912 500.276 378.462 501.309C379.028 502.341 379.311 503.524 379.311 504.856ZM372.766 500.06C371.617 500.06 370.651 500.41 369.868 501.109C369.102 501.808 368.652 502.724 368.519 503.857H377.013C376.88 502.741 376.422 501.833 375.639 501.134C374.873 500.418 373.915 500.06 372.766 500.06ZM389.711 498.036C391.393 498.036 392.726 498.528 393.708 499.51C394.707 500.476 395.207 501.9 395.207 503.782V511.401H392.809V504.057C392.809 502.774 392.501 501.808 391.884 501.159C391.268 500.509 390.386 500.185 389.236 500.185C387.937 500.185 386.913 500.568 386.164 501.334C385.414 502.083 385.04 503.166 385.04 504.581V511.401H382.641V498.161H384.94V500.16C385.423 499.477 386.072 498.952 386.888 498.586C387.721 498.219 388.662 498.036 389.711 498.036ZM407.09 510.627C406.74 510.927 406.307 511.16 405.791 511.326C405.274 511.476 404.742 511.551 404.192 511.551C402.86 511.551 401.827 511.193 401.094 510.477C400.361 509.761 399.995 508.737 399.995 507.404V500.135H397.747V498.161H399.995V495.263H402.393V498.161H406.19V500.135H402.393V507.304C402.393 508.021 402.568 508.57 402.918 508.953C403.284 509.336 403.801 509.528 404.467 509.528C405.2 509.528 405.824 509.32 406.34 508.903L407.09 510.627Z" fill="#1A1A1A"/>
<path d="M65.4486 437.063C65.4486 446.24 72.9097 453.718 82.1029 453.718C91.2795 453.718 98.7572 446.24 98.7572 437.063C98.7572 427.87 91.2795 420.409 82.1029 420.409C72.9097 420.409 65.4486 427.87 65.4486 437.063V437.063Z" fill="#130F26"/>
<rect x="75.9011" y="435.492" width="8.64277" height="2.88092" rx="1.44046" transform="rotate(45 75.9011 435.492)" fill="white"/>
<rect x="91.1797" y="432.437" width="15.8451" height="2.88092" rx="1.44046" transform="rotate(135 91.1797 432.437)" fill="white"/>
<path d="M122.198 428.963H124.696V446.45H122.198V428.963ZM136.652 433.085C138.334 433.085 139.666 433.576 140.649 434.559C141.648 435.525 142.148 436.949 142.148 438.831V446.45H139.749V439.106C139.749 437.823 139.441 436.857 138.825 436.208C138.209 435.558 137.326 435.234 136.177 435.234C134.878 435.234 133.854 435.617 133.104 436.383C132.355 437.132 131.98 438.215 131.98 439.63V446.45H129.582V433.21H131.88V435.209C132.363 434.526 133.013 434.001 133.829 433.635C134.661 433.268 135.602 433.085 136.652 433.085ZM150.383 446.6C149.301 446.6 148.26 446.459 147.26 446.175C146.261 445.876 145.478 445.501 144.912 445.051L145.911 443.153C146.494 443.569 147.202 443.902 148.035 444.152C148.868 444.402 149.709 444.527 150.558 444.527C152.656 444.527 153.706 443.927 153.706 442.728C153.706 442.328 153.564 442.012 153.281 441.779C152.998 441.545 152.64 441.379 152.207 441.279C151.79 441.162 151.191 441.038 150.408 440.904C149.342 440.738 148.468 440.546 147.785 440.33C147.119 440.113 146.544 439.747 146.061 439.231C145.578 438.714 145.337 437.99 145.337 437.057C145.337 435.858 145.836 434.9 146.836 434.184C147.835 433.452 149.176 433.085 150.858 433.085C151.74 433.085 152.623 433.193 153.506 433.41C154.388 433.626 155.113 433.918 155.679 434.284L154.655 436.183C153.572 435.483 152.298 435.134 150.833 435.134C149.817 435.134 149.042 435.3 148.509 435.633C147.977 435.966 147.71 436.408 147.71 436.957C147.71 437.39 147.86 437.732 148.16 437.981C148.46 438.231 148.826 438.414 149.259 438.531C149.709 438.648 150.333 438.781 151.133 438.931C152.198 439.114 153.056 439.314 153.706 439.53C154.372 439.73 154.938 440.08 155.404 440.58C155.871 441.079 156.104 441.779 156.104 442.678C156.104 443.877 155.588 444.835 154.555 445.551C153.539 446.25 152.148 446.6 150.383 446.6ZM166.546 445.676C166.196 445.976 165.763 446.209 165.246 446.375C164.73 446.525 164.197 446.6 163.648 446.6C162.315 446.6 161.283 446.242 160.55 445.526C159.817 444.81 159.451 443.786 159.451 442.453V435.184H157.202V433.21H159.451V430.312H161.849V433.21H165.646V435.184H161.849V442.353C161.849 443.069 162.024 443.619 162.374 444.002C162.74 444.385 163.256 444.577 163.922 444.577C164.655 444.577 165.28 444.368 165.796 443.952L166.546 445.676ZM174.266 433.085C176.098 433.085 177.497 433.535 178.463 434.434C179.446 435.333 179.937 436.674 179.937 438.456V446.45H177.664V444.701C177.264 445.318 176.69 445.792 175.94 446.125C175.207 446.442 174.333 446.6 173.317 446.6C171.835 446.6 170.644 446.242 169.745 445.526C168.862 444.81 168.421 443.869 168.421 442.703C168.421 441.537 168.845 440.605 169.695 439.905C170.544 439.189 171.893 438.831 173.742 438.831H177.539V438.356C177.539 437.324 177.239 436.533 176.64 435.983C176.04 435.433 175.157 435.159 173.992 435.159C173.209 435.159 172.443 435.292 171.693 435.558C170.944 435.808 170.311 436.149 169.795 436.583L168.795 434.784C169.478 434.234 170.294 433.818 171.244 433.535C172.193 433.235 173.2 433.085 174.266 433.085ZM173.717 444.751C174.633 444.751 175.424 444.552 176.09 444.152C176.756 443.736 177.239 443.153 177.539 442.403V440.555H173.842C171.81 440.555 170.794 441.237 170.794 442.603C170.794 443.269 171.052 443.794 171.568 444.177C172.085 444.56 172.801 444.751 173.717 444.751ZM197.114 433.21V444.652C197.114 446.966 196.539 448.674 195.39 449.773C194.241 450.889 192.526 451.446 190.244 451.446C188.995 451.446 187.804 451.272 186.672 450.922C185.539 450.589 184.623 450.106 183.924 449.473L185.073 447.624C185.689 448.157 186.447 448.574 187.346 448.873C188.262 449.19 189.203 449.348 190.169 449.348C191.718 449.348 192.859 448.982 193.592 448.249C194.341 447.516 194.716 446.4 194.716 444.901V443.852C194.15 444.535 193.45 445.051 192.617 445.401C191.801 445.734 190.91 445.901 189.944 445.901C188.679 445.901 187.529 445.634 186.497 445.101C185.481 444.552 184.682 443.794 184.099 442.828C183.516 441.845 183.224 440.729 183.224 439.48C183.224 438.231 183.516 437.124 184.099 436.158C184.682 435.175 185.481 434.417 186.497 433.885C187.529 433.352 188.679 433.085 189.944 433.085C190.944 433.085 191.868 433.268 192.717 433.635C193.583 434.001 194.291 434.542 194.841 435.258V433.21H197.114ZM190.219 443.802C191.085 443.802 191.86 443.619 192.542 443.253C193.242 442.886 193.783 442.378 194.166 441.729C194.566 441.063 194.766 440.313 194.766 439.48C194.766 438.198 194.341 437.165 193.492 436.383C192.642 435.583 191.552 435.184 190.219 435.184C188.87 435.184 187.771 435.583 186.922 436.383C186.072 437.165 185.648 438.198 185.648 439.48C185.648 440.313 185.839 441.063 186.222 441.729C186.622 442.378 187.163 442.886 187.846 443.253C188.545 443.619 189.336 443.802 190.219 443.802ZM203.995 435.433C204.411 434.667 205.027 434.084 205.843 433.685C206.659 433.285 207.65 433.085 208.816 433.085V435.408C208.683 435.392 208.5 435.383 208.267 435.383C206.967 435.383 205.943 435.775 205.194 436.558C204.461 437.324 204.095 438.423 204.095 439.855V446.45H201.696V433.21H203.995V435.433ZM216.569 433.085C218.401 433.085 219.8 433.535 220.766 434.434C221.748 435.333 222.24 436.674 222.24 438.456V446.45H219.966V444.701C219.567 445.318 218.992 445.792 218.243 446.125C217.51 446.442 216.636 446.6 215.62 446.6C214.137 446.6 212.947 446.242 212.047 445.526C211.165 444.81 210.723 443.869 210.723 442.703C210.723 441.537 211.148 440.605 211.997 439.905C212.847 439.189 214.196 438.831 216.044 438.831H219.842V438.356C219.842 437.324 219.542 436.533 218.942 435.983C218.343 435.433 217.46 435.159 216.294 435.159C215.511 435.159 214.745 435.292 213.996 435.558C213.246 435.808 212.614 436.149 212.097 436.583L211.098 434.784C211.781 434.234 212.597 433.818 213.546 433.535C214.496 433.235 215.503 433.085 216.569 433.085ZM216.019 444.751C216.935 444.751 217.726 444.552 218.393 444.152C219.059 443.736 219.542 443.153 219.842 442.403V440.555H216.144C214.112 440.555 213.097 441.237 213.097 442.603C213.097 443.269 213.355 443.794 213.871 444.177C214.387 444.56 215.103 444.751 216.019 444.751ZM243.241 433.085C244.906 433.085 246.222 433.568 247.188 434.534C248.17 435.5 248.662 436.932 248.662 438.831V446.45H246.263V439.106C246.263 437.823 245.964 436.857 245.364 436.208C244.781 435.558 243.94 435.234 242.841 435.234C241.625 435.234 240.659 435.617 239.943 436.383C239.227 437.132 238.869 438.215 238.869 439.63V446.45H236.471V439.106C236.471 437.823 236.171 436.857 235.571 436.208C234.988 435.558 234.147 435.234 233.048 435.234C231.832 435.234 230.866 435.617 230.15 436.383C229.434 437.132 229.076 438.215 229.076 439.63V446.45H226.678V433.21H228.976V435.184C229.459 434.501 230.092 433.984 230.875 433.635C231.658 433.268 232.549 433.085 233.548 433.085C234.58 433.085 235.496 433.293 236.296 433.71C237.095 434.126 237.711 434.734 238.144 435.533C238.644 434.767 239.335 434.168 240.218 433.735C241.117 433.302 242.125 433.085 243.241 433.085ZM262.856 451.297C261.907 449.764 261.174 448.007 260.658 446.026C260.141 444.027 259.883 441.887 259.883 439.605C259.883 437.324 260.141 435.184 260.658 433.185C261.174 431.17 261.907 429.413 262.856 427.914H265.129C264.13 429.663 263.397 431.495 262.931 433.41C262.465 435.325 262.231 437.39 262.231 439.605C262.231 441.82 262.465 443.885 262.931 445.801C263.397 447.716 264.13 449.548 265.129 451.297H262.856ZM279.367 439.231H275.02V443.477H271.797V439.231H267.475V436.183H271.797V431.936H275.02V436.183H279.367V439.231ZM294.53 443.153V446.45H281.315V443.827L288.06 437.457C288.776 436.774 289.259 436.191 289.509 435.708C289.759 435.209 289.884 434.717 289.884 434.234C289.884 433.535 289.642 433.002 289.159 432.635C288.693 432.252 288.002 432.061 287.086 432.061C286.32 432.061 285.629 432.211 285.013 432.511C284.396 432.794 283.88 433.227 283.464 433.81L280.516 431.911C281.199 430.895 282.14 430.104 283.339 429.538C284.538 428.955 285.912 428.663 287.461 428.663C288.76 428.663 289.892 428.88 290.858 429.313C291.841 429.729 292.599 430.329 293.132 431.112C293.681 431.878 293.956 432.785 293.956 433.835C293.956 434.784 293.756 435.675 293.356 436.508C292.957 437.34 292.182 438.29 291.033 439.355L287.011 443.153H294.53ZM309.879 446.6C308.563 446.6 307.381 446.309 306.332 445.726C305.282 445.143 304.458 444.343 303.859 443.328C303.276 442.295 302.984 441.129 302.984 439.83C302.984 438.531 303.276 437.374 303.859 436.358C304.458 435.325 305.282 434.526 306.332 433.959C307.381 433.377 308.563 433.085 309.879 433.085C311.195 433.085 312.369 433.377 313.401 433.959C314.451 434.526 315.267 435.325 315.85 436.358C316.449 437.374 316.749 438.531 316.749 439.83C316.749 441.129 316.449 442.295 315.85 443.328C315.267 444.343 314.451 445.143 313.401 445.726C312.369 446.309 311.195 446.6 309.879 446.6ZM309.879 444.502C310.728 444.502 311.486 444.31 312.152 443.927C312.835 443.527 313.368 442.978 313.751 442.278C314.134 441.562 314.326 440.746 314.326 439.83C314.326 438.914 314.134 438.106 313.751 437.407C313.368 436.691 312.835 436.141 312.152 435.758C311.486 435.375 310.728 435.184 309.879 435.184C309.03 435.184 308.264 435.375 307.581 435.758C306.915 436.141 306.382 436.691 305.982 437.407C305.599 438.106 305.407 438.914 305.407 439.83C305.407 440.746 305.599 441.562 305.982 442.278C306.382 442.978 306.915 443.527 307.581 443.927C308.264 444.31 309.03 444.502 309.879 444.502ZM327.51 445.676C327.16 445.976 326.727 446.209 326.211 446.375C325.695 446.525 325.162 446.6 324.612 446.6C323.28 446.6 322.247 446.242 321.515 445.526C320.782 444.81 320.415 443.786 320.415 442.453V435.184H318.167V433.21H320.415V430.312H322.814V433.21H326.611V435.184H322.814V442.353C322.814 443.069 322.988 443.619 323.338 444.002C323.705 444.385 324.221 444.577 324.887 444.577C325.62 444.577 326.244 444.368 326.761 443.952L327.51 445.676ZM337.479 433.085C339.161 433.085 340.494 433.576 341.476 434.559C342.476 435.525 342.975 436.949 342.975 438.831V446.45H340.577V439.106C340.577 437.823 340.269 436.857 339.653 436.208C339.036 435.558 338.154 435.234 337.005 435.234C335.706 435.234 334.681 435.617 333.932 436.383C333.183 437.132 332.808 438.215 332.808 439.63V446.45H330.41V427.914H332.808V435.084C333.307 434.451 333.957 433.959 334.756 433.61C335.572 433.26 336.48 433.085 337.479 433.085ZM359.453 439.905C359.453 440.088 359.436 440.33 359.403 440.63H348.661C348.811 441.795 349.319 442.736 350.185 443.452C351.067 444.152 352.158 444.502 353.457 444.502C355.039 444.502 356.314 443.969 357.279 442.903L358.603 444.452C358.004 445.151 357.254 445.684 356.355 446.05C355.472 446.417 354.482 446.6 353.382 446.6C351.983 446.6 350.743 446.317 349.66 445.751C348.578 445.168 347.737 444.36 347.137 443.328C346.554 442.295 346.263 441.129 346.263 439.83C346.263 438.548 346.546 437.39 347.112 436.358C347.695 435.325 348.486 434.526 349.485 433.959C350.501 433.377 351.642 433.085 352.908 433.085C354.173 433.085 355.298 433.377 356.28 433.959C357.279 434.526 358.054 435.325 358.603 436.358C359.17 437.39 359.453 438.573 359.453 439.905ZM352.908 435.109C351.759 435.109 350.793 435.458 350.01 436.158C349.244 436.857 348.794 437.773 348.661 438.906H357.155C357.021 437.79 356.563 436.882 355.781 436.183C355.014 435.467 354.057 435.109 352.908 435.109ZM365.081 435.433C365.498 434.667 366.114 434.084 366.93 433.685C367.746 433.285 368.737 433.085 369.903 433.085V435.408C369.77 435.392 369.586 435.383 369.353 435.383C368.054 435.383 367.03 435.775 366.28 436.558C365.548 437.324 365.181 438.423 365.181 439.855V446.45H362.783V433.21H365.081V435.433ZM386.758 433.085C388.04 433.085 389.19 433.368 390.205 433.934C391.221 434.501 392.012 435.292 392.579 436.308C393.162 437.324 393.453 438.498 393.453 439.83C393.453 441.162 393.162 442.345 392.579 443.377C392.012 444.393 391.221 445.184 390.205 445.751C389.19 446.317 388.04 446.6 386.758 446.6C385.809 446.6 384.934 446.417 384.135 446.05C383.352 445.684 382.686 445.151 382.136 444.452V451.297H379.738V433.21H382.037V435.308C382.569 434.576 383.244 434.026 384.06 433.66C384.876 433.277 385.775 433.085 386.758 433.085ZM386.558 444.502C387.408 444.502 388.165 444.31 388.831 443.927C389.514 443.527 390.047 442.978 390.43 442.278C390.83 441.562 391.03 440.746 391.03 439.83C391.03 438.914 390.83 438.106 390.43 437.407C390.047 436.691 389.514 436.141 388.831 435.758C388.165 435.375 387.408 435.184 386.558 435.184C385.725 435.184 384.968 435.383 384.285 435.783C383.619 436.166 383.086 436.707 382.686 437.407C382.303 438.106 382.111 438.914 382.111 439.83C382.111 440.746 382.303 441.562 382.686 442.278C383.069 442.978 383.602 443.527 384.285 443.927C384.968 444.31 385.725 444.502 386.558 444.502ZM396.767 427.914H399.165V446.45H396.767V427.914ZM408.565 433.085C410.397 433.085 411.796 433.535 412.762 434.434C413.745 435.333 414.236 436.674 414.236 438.456V446.45H411.963V444.701C411.563 445.318 410.988 445.792 410.239 446.125C409.506 446.442 408.632 446.6 407.616 446.6C406.134 446.6 404.943 446.242 404.044 445.526C403.161 444.81 402.72 443.869 402.72 442.703C402.72 441.537 403.144 440.605 403.994 439.905C404.843 439.189 406.192 438.831 408.041 438.831H411.838V438.356C411.838 437.324 411.538 436.533 410.939 435.983C410.339 435.433 409.456 435.159 408.29 435.159C407.508 435.159 406.742 435.292 405.992 435.558C405.243 435.808 404.61 436.149 404.094 436.583L403.094 434.784C403.777 434.234 404.593 433.818 405.543 433.535C406.492 433.235 407.499 433.085 408.565 433.085ZM408.016 444.751C408.932 444.751 409.723 444.552 410.389 444.152C411.055 443.736 411.538 443.153 411.838 442.403V440.555H408.141C406.109 440.555 405.093 441.237 405.093 442.603C405.093 443.269 405.351 443.794 405.867 444.177C406.384 444.56 407.1 444.751 408.016 444.751ZM426.119 445.676C425.769 445.976 425.336 446.209 424.82 446.375C424.303 446.525 423.77 446.6 423.221 446.6C421.888 446.6 420.856 446.242 420.123 445.526C419.39 444.81 419.024 443.786 419.024 442.453V435.184H416.776V433.21H419.024V430.312H421.422V433.21H425.219V435.184H421.422V442.353C421.422 443.069 421.597 443.619 421.947 444.002C422.313 444.385 422.829 444.577 423.496 444.577C424.228 444.577 424.853 444.368 425.369 443.952L426.119 445.676ZM433.864 429.738C432.432 429.738 431.716 430.512 431.716 432.061V433.21H435.563V435.184H431.766V446.45H429.368V435.184H427.119V433.21H429.368V432.036C429.368 430.72 429.751 429.679 430.517 428.913C431.283 428.147 432.357 427.764 433.74 427.764C434.273 427.764 434.772 427.831 435.238 427.964C435.705 428.097 436.104 428.289 436.438 428.538L435.713 430.362C435.164 429.946 434.547 429.738 433.864 429.738ZM443.301 446.6C441.985 446.6 440.802 446.309 439.753 445.726C438.704 445.143 437.88 444.343 437.28 443.328C436.697 442.295 436.406 441.129 436.406 439.83C436.406 438.531 436.697 437.374 437.28 436.358C437.88 435.325 438.704 434.526 439.753 433.959C440.802 433.377 441.985 433.085 443.301 433.085C444.616 433.085 445.79 433.377 446.823 433.959C447.872 434.526 448.688 435.325 449.271 436.358C449.871 437.374 450.171 438.531 450.171 439.83C450.171 441.129 449.871 442.295 449.271 443.328C448.688 444.343 447.872 445.143 446.823 445.726C445.79 446.309 444.616 446.6 443.301 446.6ZM443.301 444.502C444.15 444.502 444.908 444.31 445.574 443.927C446.257 443.527 446.79 442.978 447.173 442.278C447.556 441.562 447.747 440.746 447.747 439.83C447.747 438.914 447.556 438.106 447.173 437.407C446.79 436.691 446.257 436.141 445.574 435.758C444.908 435.375 444.15 435.184 443.301 435.184C442.451 435.184 441.685 435.375 441.002 435.758C440.336 436.141 439.803 436.691 439.404 437.407C439.02 438.106 438.829 438.914 438.829 439.83C438.829 440.746 439.02 441.562 439.404 442.278C439.803 442.978 440.336 443.527 441.002 443.927C441.685 444.31 442.451 444.502 443.301 444.502ZM455.786 435.433C456.202 434.667 456.818 434.084 457.634 433.685C458.45 433.285 459.441 433.085 460.607 433.085V435.408C460.474 435.392 460.291 435.383 460.057 435.383C458.758 435.383 457.734 435.775 456.985 436.558C456.252 437.324 455.885 438.423 455.885 439.855V446.45H453.487V433.21H455.786V435.433ZM480.125 433.085C481.791 433.085 483.107 433.568 484.073 434.534C485.055 435.5 485.546 436.932 485.546 438.831V446.45H483.148V439.106C483.148 437.823 482.848 436.857 482.249 436.208C481.666 435.558 480.825 435.234 479.726 435.234C478.51 435.234 477.544 435.617 476.828 436.383C476.112 437.132 475.754 438.215 475.754 439.63V446.45H473.356V439.106C473.356 437.823 473.056 436.857 472.456 436.208C471.873 435.558 471.032 435.234 469.933 435.234C468.717 435.234 467.751 435.617 467.035 436.383C466.319 437.132 465.961 438.215 465.961 439.63V446.45H463.563V433.21H465.861V435.184C466.344 434.501 466.977 433.984 467.76 433.635C468.542 433.268 469.433 433.085 470.433 433.085C471.465 433.085 472.381 433.293 473.181 433.71C473.98 434.126 474.596 434.734 475.029 435.533C475.529 434.767 476.22 434.168 477.103 433.735C478.002 433.302 479.01 433.085 480.125 433.085ZM493.756 446.6C492.674 446.6 491.633 446.459 490.634 446.175C489.634 445.876 488.852 445.501 488.285 445.051L489.285 443.153C489.868 443.569 490.575 443.902 491.408 444.152C492.241 444.402 493.082 444.527 493.931 444.527C496.03 444.527 497.079 443.927 497.079 442.728C497.079 442.328 496.937 442.012 496.654 441.779C496.371 441.545 496.013 441.379 495.58 441.279C495.164 441.162 494.564 441.038 493.781 440.904C492.716 440.738 491.841 440.546 491.158 440.33C490.492 440.113 489.918 439.747 489.435 439.231C488.952 438.714 488.71 437.99 488.71 437.057C488.71 435.858 489.21 434.9 490.209 434.184C491.208 433.452 492.549 433.085 494.231 433.085C495.114 433.085 495.996 433.193 496.879 433.41C497.762 433.626 498.486 433.918 499.052 434.284L498.028 436.183C496.946 435.483 495.672 435.134 494.206 435.134C493.19 435.134 492.416 435.3 491.883 435.633C491.35 435.966 491.083 436.408 491.083 436.957C491.083 437.39 491.233 437.732 491.533 437.981C491.833 438.231 492.199 438.414 492.632 438.531C493.082 438.648 493.706 438.781 494.506 438.931C495.572 439.114 496.429 439.314 497.079 439.53C497.745 439.73 498.311 440.08 498.778 440.58C499.244 441.079 499.477 441.779 499.477 442.678C499.477 443.877 498.961 444.835 497.928 445.551C496.912 446.25 495.522 446.6 493.756 446.6ZM501 451.297C502 449.548 502.733 447.716 503.199 445.801C503.682 443.885 503.923 441.82 503.923 439.605C503.923 437.39 503.682 435.325 503.199 433.41C502.733 431.495 502 429.663 501 427.914H503.274C504.24 429.413 504.981 431.162 505.497 433.16C506.013 435.159 506.272 437.307 506.272 439.605C506.272 441.887 506.013 444.027 505.497 446.026C504.981 448.024 504.24 449.781 503.274 451.297H501Z" fill="#1A1A1A"/>
<path d="M80.5497 77.384C81.851 77.7467 82.875 78.408 83.6217 79.368C84.3683 80.3067 84.7417 81.5013 84.7417 82.952C84.7417 84.8933 84.0057 86.3867 82.5337 87.432C81.083 88.4773 78.9603 89 76.1657 89H65.4777V66.6H75.5257C78.0857 66.6 80.059 67.112 81.4457 68.136C82.8537 69.16 83.5577 70.5787 83.5577 72.392C83.5577 73.5653 83.2803 74.5787 82.7257 75.432C82.1923 76.2853 81.467 76.936 80.5497 77.384ZM68.6777 69.192V76.36H75.2377C76.8803 76.36 78.139 76.0613 79.0137 75.464C79.9097 74.8453 80.3577 73.9493 80.3577 72.776C80.3577 71.6027 79.9097 70.7173 79.0137 70.12C78.139 69.5013 76.8803 69.192 75.2377 69.192H68.6777ZM76.0377 86.408C77.851 86.408 79.2163 86.1093 80.1337 85.512C81.051 84.9147 81.5097 83.976 81.5097 82.696C81.5097 80.2 79.6857 78.952 76.0377 78.952H68.6777V86.408H76.0377ZM95.4244 71.88C97.7711 71.88 99.5631 72.456 100.8 73.608C102.059 74.76 102.688 76.4773 102.688 78.76V89H99.7764V86.76C99.2644 87.5493 98.5284 88.1573 97.5684 88.584C96.6298 88.9893 95.5098 89.192 94.2084 89.192C92.3098 89.192 90.7844 88.7333 89.6324 87.816C88.5018 86.8987 87.9364 85.6933 87.9364 84.2C87.9364 82.7067 88.4804 81.512 89.5684 80.616C90.6564 79.6987 92.3844 79.24 94.7524 79.24H99.6164V78.632C99.6164 77.3093 99.2324 76.296 98.4644 75.592C97.6964 74.888 96.5658 74.536 95.0724 74.536C94.0698 74.536 93.0884 74.7067 92.1284 75.048C91.1684 75.368 90.3578 75.8053 89.6964 76.36L88.4164 74.056C89.2911 73.352 90.3364 72.8187 91.5524 72.456C92.7684 72.072 94.0591 71.88 95.4244 71.88ZM94.7204 86.824C95.8938 86.824 96.9071 86.568 97.7604 86.056C98.6138 85.5227 99.2324 84.776 99.6164 83.816V81.448H94.8804C92.2778 81.448 90.9764 82.3227 90.9764 84.072C90.9764 84.9253 91.3071 85.5973 91.9684 86.088C92.6298 86.5787 93.5471 86.824 94.7204 86.824ZM113.237 89.192C111.851 89.192 110.517 89.0107 109.237 88.648C107.957 88.264 106.955 87.784 106.229 87.208L107.509 84.776C108.256 85.3093 109.163 85.736 110.229 86.056C111.296 86.376 112.373 86.536 113.461 86.536C116.149 86.536 117.493 85.768 117.493 84.232C117.493 83.72 117.312 83.3147 116.949 83.016C116.587 82.7173 116.128 82.504 115.573 82.376C115.04 82.2267 114.272 82.0667 113.269 81.896C111.904 81.6827 110.784 81.4373 109.909 81.16C109.056 80.8827 108.32 80.4133 107.701 79.752C107.083 79.0907 106.773 78.1627 106.773 76.968C106.773 75.432 107.413 74.2053 108.693 73.288C109.973 72.3493 111.691 71.88 113.845 71.88C114.976 71.88 116.107 72.0187 117.237 72.296C118.368 72.5733 119.296 72.9467 120.021 73.416L118.709 75.848C117.323 74.952 115.691 74.504 113.813 74.504C112.512 74.504 111.52 74.7173 110.837 75.144C110.155 75.5707 109.813 76.136 109.813 76.84C109.813 77.3947 110.005 77.832 110.389 78.152C110.773 78.472 111.243 78.7067 111.797 78.856C112.373 79.0053 113.173 79.176 114.197 79.368C115.563 79.6027 116.661 79.8587 117.493 80.136C118.347 80.392 119.072 80.84 119.669 81.48C120.267 82.12 120.565 83.016 120.565 84.168C120.565 85.704 119.904 86.9307 118.581 87.848C117.28 88.744 115.499 89.192 113.237 89.192ZM124.405 72.04H127.477V89H124.405V72.04ZM125.941 68.776C125.343 68.776 124.842 68.584 124.437 68.2C124.053 67.816 123.861 67.3467 123.861 66.792C123.861 66.2373 124.053 65.768 124.437 65.384C124.842 64.9787 125.343 64.776 125.941 64.776C126.538 64.776 127.029 64.968 127.413 65.352C127.818 65.7147 128.021 66.1733 128.021 66.728C128.021 67.304 127.818 67.7947 127.413 68.2C127.029 68.584 126.538 68.776 125.941 68.776ZM140.734 89.192C139.006 89.192 137.46 88.8187 136.094 88.072C134.75 87.3253 133.694 86.3013 132.926 85C132.158 83.6773 131.774 82.184 131.774 80.52C131.774 78.856 132.158 77.3733 132.926 76.072C133.694 74.7493 134.75 73.7253 136.094 73C137.46 72.2533 139.006 71.88 140.734 71.88C142.27 71.88 143.636 72.1893 144.83 72.808C146.046 73.4267 146.985 74.3227 147.646 75.496L145.31 77C144.777 76.1893 144.116 75.5813 143.326 75.176C142.537 74.7707 141.662 74.568 140.702 74.568C139.593 74.568 138.59 74.8133 137.694 75.304C136.82 75.7947 136.126 76.4987 135.614 77.416C135.124 78.312 134.878 79.3467 134.878 80.52C134.878 81.7147 135.124 82.7707 135.614 83.688C136.126 84.584 136.82 85.2773 137.694 85.768C138.59 86.2587 139.593 86.504 140.702 86.504C141.662 86.504 142.537 86.3013 143.326 85.896C144.116 85.4907 144.777 84.8827 145.31 84.072L147.646 85.544C146.985 86.7173 146.046 87.624 144.83 88.264C143.636 88.8827 142.27 89.192 140.734 89.192Z" fill="#1A1A1A"/>
<path d="M106.038 184.24C106.038 188.176 104.598 191.56 101.718 194.392C98.8377 197.176 94.6857 198.904 89.2617 199.576V207.64H82.0617V199.792C78.5097 199.6 75.1257 198.976 71.9097 197.92C68.6937 196.864 66.1017 195.568 64.1337 194.032L68.0937 185.248C69.9177 186.592 72.0537 187.72 74.5017 188.632C76.9497 189.544 79.4697 190.12 82.0617 190.36V178.336C78.6537 177.52 75.7737 176.608 73.4217 175.6C71.0697 174.592 69.1017 173.128 67.5177 171.208C65.9337 169.24 65.1417 166.648 65.1417 163.432C65.1417 159.448 66.5817 156.04 69.4617 153.208C72.3897 150.328 76.5897 148.576 82.0617 147.952V139.96H89.2617V147.808C95.1657 148.288 100.038 149.752 103.878 152.2L100.278 161.056C96.6777 158.992 93.0057 157.744 89.2617 157.312V169.552C92.6217 170.32 95.4537 171.208 97.7577 172.216C100.11 173.176 102.078 174.64 103.662 176.608C105.246 178.528 106.038 181.072 106.038 184.24ZM76.7337 162.856C76.7337 164.056 77.1897 165.04 78.1017 165.808C79.0137 166.576 80.3337 167.224 82.0617 167.752V157.528C80.2377 157.96 78.8937 158.656 78.0297 159.616C77.1657 160.528 76.7337 161.608 76.7337 162.856ZM89.2617 190.072C90.9897 189.688 92.2857 189.064 93.1497 188.2C94.0137 187.336 94.4457 186.304 94.4457 185.104C94.4457 183.904 93.9897 182.92 93.0777 182.152C92.2137 181.384 90.9417 180.712 89.2617 180.136V190.072ZM148.496 189.496V199H110.408V191.44L129.848 173.08C131.912 171.112 133.304 169.432 134.024 168.04C134.744 166.6 135.104 165.184 135.104 163.792C135.104 161.776 134.408 160.24 133.016 159.184C131.672 158.08 129.68 157.528 127.04 157.528C124.832 157.528 122.84 157.96 121.064 158.824C119.288 159.64 117.8 160.888 116.6 162.568L108.104 157.096C110.072 154.168 112.784 151.888 116.24 150.256C119.696 148.576 123.656 147.736 128.12 147.736C131.864 147.736 135.128 148.36 137.912 149.608C140.744 150.808 142.928 152.536 144.464 154.792C146.048 157 146.84 159.616 146.84 162.64C146.84 165.376 146.264 167.944 145.112 170.344C143.96 172.744 141.728 175.48 138.416 178.552L126.824 189.496H148.496ZM171.02 147.736C178.076 147.736 183.596 149.896 187.58 154.216C191.564 158.488 193.556 164.656 193.556 172.72C193.556 178.432 192.476 183.328 190.316 187.408C188.204 191.488 185.204 194.584 181.316 196.696C177.428 198.808 172.94 199.864 167.852 199.864C165.164 199.864 162.596 199.576 160.148 199C157.7 198.376 155.612 197.512 153.884 196.408L158.204 187.84C160.652 189.52 163.796 190.36 167.636 190.36C171.908 190.36 175.292 189.112 177.788 186.616C180.284 184.072 181.628 180.424 181.82 175.672C178.796 178.696 174.62 180.208 169.292 180.208C166.076 180.208 163.148 179.56 160.508 178.264C157.868 176.968 155.78 175.144 154.244 172.792C152.708 170.392 151.94 167.632 151.94 164.512C151.94 161.152 152.78 158.2 154.46 155.656C156.14 153.112 158.42 151.168 161.3 149.824C164.228 148.432 167.468 147.736 171.02 147.736ZM171.884 171.496C174.428 171.496 176.492 170.8 178.076 169.408C179.708 167.968 180.524 166.144 180.524 163.936C180.524 161.728 179.732 159.928 178.148 158.536C176.612 157.144 174.476 156.448 171.74 156.448C169.244 156.448 167.204 157.12 165.62 158.464C164.084 159.808 163.316 161.632 163.316 163.936C163.316 166.24 164.084 168.088 165.62 169.48C167.204 170.824 169.292 171.496 171.884 171.496ZM216.864 147.736C223.92 147.736 229.44 149.896 233.424 154.216C237.408 158.488 239.4 164.656 239.4 172.72C239.4 178.432 238.32 183.328 236.16 187.408C234.048 191.488 231.048 194.584 227.16 196.696C223.272 198.808 218.784 199.864 213.696 199.864C211.008 199.864 208.44 199.576 205.992 199C203.544 198.376 201.456 197.512 199.728 196.408L204.048 187.84C206.496 189.52 209.64 190.36 213.48 190.36C217.752 190.36 221.136 189.112 223.632 186.616C226.128 184.072 227.472 180.424 227.664 175.672C224.64 178.696 220.464 180.208 215.136 180.208C211.92 180.208 208.992 179.56 206.352 178.264C203.712 176.968 201.624 175.144 200.088 172.792C198.552 170.392 197.784 167.632 197.784 164.512C197.784 161.152 198.624 158.2 200.304 155.656C201.984 153.112 204.264 151.168 207.144 149.824C210.072 148.432 213.312 147.736 216.864 147.736ZM217.728 171.496C220.272 171.496 222.336 170.8 223.92 169.408C225.552 167.968 226.368 166.144 226.368 163.936C226.368 161.728 225.576 159.928 223.992 158.536C222.456 157.144 220.32 156.448 217.584 156.448C215.088 156.448 213.048 157.12 211.464 158.464C209.928 159.808 209.16 161.632 209.16 163.936C209.16 166.24 209.928 168.088 211.464 169.48C213.048 170.824 215.136 171.496 217.728 171.496ZM248.128 182.16H250.908L244.308 201H241.528L248.128 182.16ZM264.42 199L264.4 190.6L260.28 197.52H258.82L254.72 190.78V199H251.68V185H254.36L259.6 193.7L264.76 185H267.42L267.46 199H264.42ZM275.682 199.16C274.548 199.16 273.528 198.927 272.622 198.46C271.728 197.98 271.028 197.32 270.522 196.48C270.015 195.64 269.762 194.687 269.762 193.62C269.762 192.553 270.015 191.6 270.522 190.76C271.028 189.92 271.728 189.267 272.622 188.8C273.528 188.32 274.548 188.08 275.682 188.08C276.815 188.08 277.828 188.32 278.722 188.8C279.615 189.267 280.315 189.92 280.822 190.76C281.328 191.6 281.582 192.553 281.582 193.62C281.582 194.687 281.328 195.64 280.822 196.48C280.315 197.32 279.615 197.98 278.722 198.46C277.828 198.927 276.815 199.16 275.682 199.16ZM275.682 196.6C276.482 196.6 277.135 196.333 277.642 195.8C278.162 195.253 278.422 194.527 278.422 193.62C278.422 192.713 278.162 191.993 277.642 191.46C277.135 190.913 276.482 190.64 275.682 190.64C274.882 190.64 274.222 190.913 273.702 191.46C273.182 191.993 272.922 192.713 272.922 193.62C272.922 194.527 273.182 195.253 273.702 195.8C274.222 196.333 274.882 196.6 275.682 196.6ZM290.207 188.08C291.54 188.08 292.614 188.48 293.427 189.28C294.254 190.08 294.667 191.267 294.667 192.84V199H291.547V193.32C291.547 192.467 291.36 191.833 290.987 191.42C290.614 190.993 290.074 190.78 289.367 190.78C288.58 190.78 287.954 191.027 287.487 191.52C287.02 192 286.787 192.72 286.787 193.68V199H283.667V188.24H286.647V189.5C287.06 189.047 287.574 188.7 288.187 188.46C288.8 188.207 289.474 188.08 290.207 188.08ZM304.435 198.48C304.129 198.707 303.749 198.88 303.295 199C302.855 199.107 302.389 199.16 301.895 199.16C300.615 199.16 299.622 198.833 298.915 198.18C298.222 197.527 297.875 196.567 297.875 195.3V190.88H296.215V188.48H297.875V185.86H300.995V188.48H303.675V190.88H300.995V195.26C300.995 195.713 301.109 196.067 301.335 196.32C301.575 196.56 301.909 196.68 302.335 196.68C302.829 196.68 303.249 196.547 303.595 196.28L304.435 198.48ZM312.727 188.08C314.06 188.08 315.133 188.48 315.947 189.28C316.773 190.08 317.187 191.267 317.187 192.84V199H314.067V193.32C314.067 192.467 313.88 191.833 313.507 191.42C313.133 190.993 312.593 190.78 311.887 190.78C311.1 190.78 310.473 191.027 310.007 191.52C309.54 192 309.307 192.72 309.307 193.68V199H306.187V184.16H309.307V189.36C309.72 188.947 310.22 188.633 310.807 188.42C311.393 188.193 312.033 188.08 312.727 188.08Z" fill="#1A1A1A"/>
<rect x="62" y="617" width="749" height="83" rx="16" fill="#130F26"/>
<path d="M345.041 663.096V666H333.403V663.69L339.343 658.08C339.973 657.479 340.399 656.965 340.619 656.54C340.839 656.1 340.949 655.667 340.949 655.242C340.949 654.626 340.736 654.157 340.311 653.834C339.9 653.497 339.291 653.328 338.485 653.328C337.81 653.328 337.201 653.46 336.659 653.724C336.116 653.973 335.661 654.355 335.295 654.868L332.699 653.196C333.3 652.301 334.129 651.605 335.185 651.106C336.241 650.593 337.451 650.336 338.815 650.336C339.959 650.336 340.956 650.527 341.807 650.908C342.672 651.275 343.339 651.803 343.809 652.492C344.293 653.167 344.535 653.966 344.535 654.89C344.535 655.726 344.359 656.511 344.007 657.244C343.655 657.977 342.973 658.813 341.961 659.752L338.419 663.096H345.041ZM358.77 666.264C357.552 666.264 356.372 666.103 355.228 665.78C354.098 665.443 353.189 665.01 352.5 664.482L353.71 661.798C354.37 662.282 355.154 662.671 356.064 662.964C356.973 663.257 357.882 663.404 358.792 663.404C359.804 663.404 360.552 663.257 361.036 662.964C361.52 662.656 361.762 662.253 361.762 661.754C361.762 661.387 361.615 661.087 361.322 660.852C361.043 660.603 360.676 660.405 360.222 660.258C359.782 660.111 359.18 659.95 358.418 659.774C357.244 659.495 356.284 659.217 355.536 658.938C354.788 658.659 354.142 658.212 353.6 657.596C353.072 656.98 352.808 656.159 352.808 655.132C352.808 654.237 353.05 653.431 353.534 652.712C354.018 651.979 354.744 651.399 355.712 650.974C356.694 650.549 357.89 650.336 359.298 650.336C360.28 650.336 361.241 650.453 362.18 650.688C363.118 650.923 363.94 651.26 364.644 651.7L363.544 654.406C362.121 653.599 360.698 653.196 359.276 653.196C358.278 653.196 357.538 653.357 357.054 653.68C356.584 654.003 356.35 654.428 356.35 654.956C356.35 655.484 356.621 655.88 357.164 656.144C357.721 656.393 358.564 656.643 359.694 656.892C360.867 657.171 361.828 657.449 362.576 657.728C363.324 658.007 363.962 658.447 364.49 659.048C365.032 659.649 365.304 660.463 365.304 661.49C365.304 662.37 365.054 663.177 364.556 663.91C364.072 664.629 363.338 665.201 362.356 665.626C361.373 666.051 360.178 666.264 358.77 666.264ZM367.497 649.676H370.929V666H367.497V649.676ZM379.746 666.176C378.5 666.176 377.378 665.919 376.38 665.406C375.398 664.878 374.628 664.152 374.07 663.228C373.513 662.304 373.234 661.255 373.234 660.082C373.234 658.909 373.513 657.86 374.07 656.936C374.628 656.012 375.398 655.293 376.38 654.78C377.378 654.252 378.5 653.988 379.746 653.988C380.993 653.988 382.108 654.252 383.09 654.78C384.073 655.293 384.843 656.012 385.4 656.936C385.958 657.86 386.236 658.909 386.236 660.082C386.236 661.255 385.958 662.304 385.4 663.228C384.843 664.152 384.073 664.878 383.09 665.406C382.108 665.919 380.993 666.176 379.746 666.176ZM379.746 663.36C380.626 663.36 381.345 663.067 381.902 662.48C382.474 661.879 382.76 661.079 382.76 660.082C382.76 659.085 382.474 658.293 381.902 657.706C381.345 657.105 380.626 656.804 379.746 656.804C378.866 656.804 378.14 657.105 377.568 657.706C376.996 658.293 376.71 659.085 376.71 660.082C376.71 661.079 376.996 661.879 377.568 662.48C378.14 663.067 378.866 663.36 379.746 663.36ZM396.164 665.428C395.827 665.677 395.409 665.868 394.91 666C394.426 666.117 393.913 666.176 393.37 666.176C391.962 666.176 390.87 665.817 390.092 665.098C389.33 664.379 388.948 663.323 388.948 661.93V657.068H387.122V654.428H388.948V651.546H392.38V654.428H395.328V657.068H392.38V661.886C392.38 662.385 392.505 662.773 392.754 663.052C393.018 663.316 393.385 663.448 393.854 663.448C394.397 663.448 394.859 663.301 395.24 663.008L396.164 665.428ZM402.073 666.176C401.09 666.176 400.13 666.059 399.191 665.824C398.252 665.575 397.504 665.267 396.947 664.9L398.091 662.436C398.619 662.773 399.257 663.052 400.005 663.272C400.753 663.477 401.486 663.58 402.205 663.58C403.657 663.58 404.383 663.221 404.383 662.502C404.383 662.165 404.185 661.923 403.789 661.776C403.393 661.629 402.784 661.505 401.963 661.402C400.995 661.255 400.196 661.087 399.565 660.896C398.934 660.705 398.384 660.368 397.915 659.884C397.46 659.4 397.233 658.711 397.233 657.816C397.233 657.068 397.446 656.408 397.871 655.836C398.311 655.249 398.942 654.795 399.763 654.472C400.599 654.149 401.582 653.988 402.711 653.988C403.547 653.988 404.376 654.083 405.197 654.274C406.033 654.45 406.722 654.699 407.265 655.022L406.121 657.464C405.08 656.877 403.943 656.584 402.711 656.584C401.978 656.584 401.428 656.687 401.061 656.892C400.694 657.097 400.511 657.361 400.511 657.684C400.511 658.051 400.709 658.307 401.105 658.454C401.501 658.601 402.132 658.74 402.997 658.872C403.965 659.033 404.757 659.209 405.373 659.4C405.989 659.576 406.524 659.906 406.979 660.39C407.434 660.874 407.661 661.549 407.661 662.414C407.661 663.147 407.441 663.8 407.001 664.372C406.561 664.944 405.916 665.391 405.065 665.714C404.229 666.022 403.232 666.176 402.073 666.176ZM426.063 666L423.093 661.71H422.917H419.815V666H416.251V650.6H422.917C424.281 650.6 425.461 650.827 426.459 651.282C427.471 651.737 428.248 652.382 428.791 653.218C429.333 654.054 429.605 655.044 429.605 656.188C429.605 657.332 429.326 658.322 428.769 659.158C428.226 659.979 427.449 660.61 426.437 661.05L429.891 666H426.063ZM425.997 656.188C425.997 655.323 425.718 654.663 425.161 654.208C424.603 653.739 423.789 653.504 422.719 653.504H419.815V658.872H422.719C423.789 658.872 424.603 658.637 425.161 658.168C425.718 657.699 425.997 657.039 425.997 656.188ZM443.781 660.126C443.781 660.17 443.759 660.478 443.715 661.05H434.761C434.922 661.783 435.303 662.363 435.905 662.788C436.506 663.213 437.254 663.426 438.149 663.426C438.765 663.426 439.307 663.338 439.777 663.162C440.261 662.971 440.708 662.678 441.119 662.282L442.945 664.262C441.83 665.538 440.202 666.176 438.061 666.176C436.726 666.176 435.545 665.919 434.519 665.406C433.492 664.878 432.7 664.152 432.143 663.228C431.585 662.304 431.307 661.255 431.307 660.082C431.307 658.923 431.578 657.882 432.121 656.958C432.678 656.019 433.433 655.293 434.387 654.78C435.355 654.252 436.433 653.988 437.621 653.988C438.779 653.988 439.828 654.237 440.767 654.736C441.705 655.235 442.439 655.953 442.967 656.892C443.509 657.816 443.781 658.894 443.781 660.126ZM437.643 656.584C436.865 656.584 436.213 656.804 435.685 657.244C435.157 657.684 434.834 658.285 434.717 659.048H440.547C440.429 658.3 440.107 657.706 439.579 657.266C439.051 656.811 438.405 656.584 437.643 656.584ZM461.223 653.988C462.705 653.988 463.878 654.428 464.743 655.308C465.623 656.173 466.063 657.479 466.063 659.224V666H462.631V659.752C462.631 658.813 462.433 658.117 462.037 657.662C461.656 657.193 461.106 656.958 460.387 656.958C459.581 656.958 458.943 657.222 458.473 657.75C458.004 658.263 457.769 659.033 457.769 660.06V666H454.337V659.752C454.337 657.889 453.589 656.958 452.093 656.958C451.301 656.958 450.671 657.222 450.201 657.75C449.732 658.263 449.497 659.033 449.497 660.06V666H446.065V654.164H449.343V655.528C449.783 655.029 450.319 654.648 450.949 654.384C451.595 654.12 452.299 653.988 453.061 653.988C453.897 653.988 454.653 654.157 455.327 654.494C456.002 654.817 456.545 655.293 456.955 655.924C457.439 655.308 458.048 654.831 458.781 654.494C459.529 654.157 460.343 653.988 461.223 653.988ZM473.914 653.988C475.747 653.988 477.155 654.428 478.138 655.308C479.12 656.173 479.612 657.486 479.612 659.246V666H476.4V664.526C475.754 665.626 474.552 666.176 472.792 666.176C471.882 666.176 471.09 666.022 470.416 665.714C469.756 665.406 469.25 664.981 468.898 664.438C468.546 663.895 468.37 663.279 468.37 662.59C468.37 661.49 468.78 660.625 469.602 659.994C470.438 659.363 471.721 659.048 473.452 659.048H476.18C476.18 658.3 475.952 657.728 475.498 657.332C475.043 656.921 474.361 656.716 473.452 656.716C472.821 656.716 472.198 656.819 471.582 657.024C470.98 657.215 470.467 657.479 470.042 657.816L468.81 655.418C469.455 654.963 470.225 654.611 471.12 654.362C472.029 654.113 472.96 653.988 473.914 653.988ZM473.65 663.866C474.236 663.866 474.757 663.734 475.212 663.47C475.666 663.191 475.989 662.788 476.18 662.26V661.05H473.826C472.418 661.05 471.714 661.512 471.714 662.436C471.714 662.876 471.882 663.228 472.22 663.492C472.572 663.741 473.048 663.866 473.65 663.866ZM482.718 654.164H486.15V666H482.718V654.164ZM484.434 652.514C483.803 652.514 483.29 652.331 482.894 651.964C482.498 651.597 482.3 651.143 482.3 650.6C482.3 650.057 482.498 649.603 482.894 649.236C483.29 648.869 483.803 648.686 484.434 648.686C485.064 648.686 485.578 648.862 485.974 649.214C486.37 649.566 486.568 650.006 486.568 650.534C486.568 651.106 486.37 651.583 485.974 651.964C485.578 652.331 485.064 652.514 484.434 652.514ZM496.529 653.988C497.996 653.988 499.176 654.428 500.071 655.308C500.98 656.188 501.435 657.493 501.435 659.224V666H498.003V659.752C498.003 658.813 497.798 658.117 497.387 657.662C496.976 657.193 496.382 656.958 495.605 656.958C494.74 656.958 494.05 657.229 493.537 657.772C493.024 658.3 492.767 659.092 492.767 660.148V666H489.335V654.164H492.613V655.55C493.068 655.051 493.632 654.67 494.307 654.406C494.982 654.127 495.722 653.988 496.529 653.988ZM504.546 654.164H507.978V666H504.546V654.164ZM506.262 652.514C505.631 652.514 505.118 652.331 504.722 651.964C504.326 651.597 504.128 651.143 504.128 650.6C504.128 650.057 504.326 649.603 504.722 649.236C505.118 648.869 505.631 648.686 506.262 648.686C506.893 648.686 507.406 648.862 507.802 649.214C508.198 649.566 508.396 650.006 508.396 650.534C508.396 651.106 508.198 651.583 507.802 651.964C507.406 652.331 506.893 652.514 506.262 652.514ZM518.357 653.988C519.824 653.988 521.004 654.428 521.899 655.308C522.808 656.188 523.263 657.493 523.263 659.224V666H519.831V659.752C519.831 658.813 519.626 658.117 519.215 657.662C518.804 657.193 518.21 656.958 517.433 656.958C516.568 656.958 515.878 657.229 515.365 657.772C514.852 658.3 514.595 659.092 514.595 660.148V666H511.163V654.164H514.441V655.55C514.896 655.051 515.46 654.67 516.135 654.406C516.81 654.127 517.55 653.988 518.357 653.988ZM538.713 654.164V664.02C538.713 666.191 538.148 667.804 537.019 668.86C535.89 669.916 534.24 670.444 532.069 670.444C530.925 670.444 529.84 670.305 528.813 670.026C527.786 669.747 526.936 669.344 526.261 668.816L527.625 666.352C528.124 666.763 528.754 667.085 529.517 667.32C530.28 667.569 531.042 667.694 531.805 667.694C532.993 667.694 533.866 667.423 534.423 666.88C534.995 666.352 535.281 665.545 535.281 664.46V663.954C534.386 664.937 533.14 665.428 531.541 665.428C530.456 665.428 529.458 665.193 528.549 664.724C527.654 664.24 526.943 663.565 526.415 662.7C525.887 661.835 525.623 660.837 525.623 659.708C525.623 658.579 525.887 657.581 526.415 656.716C526.943 655.851 527.654 655.183 528.549 654.714C529.458 654.23 530.456 653.988 531.541 653.988C533.257 653.988 534.562 654.553 535.457 655.682V654.164H538.713ZM532.223 662.612C533.132 662.612 533.873 662.348 534.445 661.82C535.032 661.277 535.325 660.573 535.325 659.708C535.325 658.843 535.032 658.146 534.445 657.618C533.873 657.075 533.132 656.804 532.223 656.804C531.314 656.804 530.566 657.075 529.979 657.618C529.392 658.146 529.099 658.843 529.099 659.708C529.099 660.573 529.392 661.277 529.979 661.82C530.566 662.348 531.314 662.612 532.223 662.612Z" fill="white"/>
<defs>
<linearGradient id="paint0_linear_236_284" x1="3.23715e-06" y1="13.8263" x2="650.186" y2="901.791" gradientUnits="userSpaceOnUse">
<stop stop-color="#FF8000"/>
<stop offset="0.2" stop-color="#FF4880"/>
<stop offset="0.369792" stop-color="#FF004F"/>
<stop offset="0.578125" stop-color="#7F30FF"/>
<stop offset="0.8" stop-color="#466FFF"/>
<stop offset="1" stop-color="#75D4FF"/>
</linearGradient>
</defs>
</svg>
