<svg width="873" height="753" viewBox="0 0 873 753" fill="none" xmlns="http://www.w3.org/2000/svg">
<rect x="1.5" y="1.5" width="870" height="750" rx="30.5" fill="white" stroke="url(#paint0_linear_236_309)" stroke-width="3" stroke-miterlimit="2.61313"/>
<path d="M65.3311 305.985C65.3311 315.162 72.7922 322.64 81.9854 322.64C91.1619 322.64 98.6397 315.162 98.6397 305.985C98.6397 296.792 91.1619 289.331 81.9854 289.331C72.7922 289.331 65.3311 296.792 65.3311 305.985V305.985Z" fill="#130F26"/>
<rect x="75.7834" y="304.414" width="8.64277" height="2.88092" rx="1.44046" transform="rotate(45 75.7834 304.414)" fill="white"/>
<rect x="91.0619" y="301.358" width="15.8451" height="2.88092" rx="1.44046" transform="rotate(135 91.0619 301.358)" fill="white"/>
<path d="M132.548 315.372L128.326 309.302L124.179 315.372H119.532L126.003 306.479L119.857 297.885H124.454L128.476 303.556L132.423 297.885H136.795L130.699 306.329L137.219 315.372H132.548ZM154.009 297.885C155.557 297.885 156.898 298.143 158.031 298.659C159.18 299.176 160.062 299.909 160.679 300.858C161.295 301.807 161.603 302.931 161.603 304.23C161.603 305.513 161.295 306.637 160.679 307.603C160.062 308.552 159.18 309.285 158.031 309.801C156.898 310.301 155.557 310.551 154.009 310.551H150.486V315.372H146.439V297.885H154.009ZM153.784 307.253C154.999 307.253 155.924 306.995 156.557 306.479C157.19 305.946 157.506 305.196 157.506 304.23C157.506 303.248 157.19 302.498 156.557 301.982C155.924 301.449 154.999 301.183 153.784 301.183H150.486V307.253H153.784ZM170.588 315.572C169.173 315.572 167.899 315.28 166.766 314.698C165.65 314.098 164.776 313.274 164.143 312.224C163.51 311.175 163.194 309.984 163.194 308.652C163.194 307.32 163.51 306.129 164.143 305.08C164.776 304.03 165.65 303.214 166.766 302.632C167.899 302.032 169.173 301.732 170.588 301.732C172.004 301.732 173.27 302.032 174.385 302.632C175.501 303.214 176.376 304.03 177.008 305.08C177.641 306.129 177.958 307.32 177.958 308.652C177.958 309.984 177.641 311.175 177.008 312.224C176.376 313.274 175.501 314.098 174.385 314.698C173.27 315.28 172.004 315.572 170.588 315.572ZM170.588 312.374C171.587 312.374 172.404 312.041 173.036 311.375C173.686 310.692 174.011 309.785 174.011 308.652C174.011 307.52 173.686 306.62 173.036 305.954C172.404 305.271 171.587 304.93 170.588 304.93C169.589 304.93 168.765 305.271 168.115 305.954C167.466 306.62 167.141 307.52 167.141 308.652C167.141 309.785 167.466 310.692 168.115 311.375C168.765 312.041 169.589 312.374 170.588 312.374ZM185.084 315.572C183.968 315.572 182.878 315.439 181.812 315.172C180.746 314.889 179.897 314.539 179.264 314.123L180.563 311.325C181.162 311.708 181.887 312.025 182.736 312.274C183.585 312.508 184.418 312.624 185.234 312.624C186.883 312.624 187.707 312.216 187.707 311.4C187.707 311.017 187.483 310.742 187.033 310.576C186.583 310.409 185.892 310.268 184.959 310.151C183.86 309.984 182.953 309.793 182.236 309.576C181.52 309.36 180.896 308.977 180.363 308.427C179.847 307.878 179.588 307.095 179.588 306.079C179.588 305.23 179.83 304.48 180.313 303.831C180.812 303.164 181.529 302.648 182.461 302.282C183.411 301.915 184.526 301.732 185.809 301.732C186.758 301.732 187.699 301.84 188.632 302.057C189.581 302.257 190.364 302.54 190.98 302.906L189.681 305.679C188.498 305.013 187.208 304.68 185.809 304.68C184.976 304.68 184.352 304.797 183.935 305.03C183.519 305.263 183.311 305.563 183.311 305.929C183.311 306.345 183.535 306.637 183.985 306.803C184.435 306.97 185.151 307.128 186.134 307.278C187.233 307.461 188.132 307.661 188.832 307.878C189.531 308.077 190.139 308.452 190.655 309.002C191.171 309.551 191.43 310.317 191.43 311.3C191.43 312.133 191.18 312.874 190.68 313.523C190.181 314.173 189.448 314.681 188.482 315.047C187.533 315.397 186.4 315.572 185.084 315.572ZM202.503 314.723C202.12 315.006 201.645 315.222 201.079 315.372C200.529 315.505 199.946 315.572 199.33 315.572C197.731 315.572 196.49 315.164 195.608 314.348C194.742 313.532 194.309 312.333 194.309 310.75V305.23H192.235V302.232H194.309V298.959H198.206V302.232H201.553V305.23H198.206V310.701C198.206 311.267 198.347 311.708 198.631 312.025C198.93 312.324 199.347 312.474 199.88 312.474C200.496 312.474 201.02 312.308 201.453 311.975L202.503 314.723ZM209.212 315.572C208.096 315.572 207.005 315.439 205.939 315.172C204.873 314.889 204.024 314.539 203.391 314.123L204.69 311.325C205.29 311.708 206.014 312.025 206.864 312.274C207.713 312.508 208.546 312.624 209.362 312.624C211.011 312.624 211.835 312.216 211.835 311.4C211.835 311.017 211.61 310.742 211.16 310.576C210.711 310.409 210.02 310.268 209.087 310.151C207.988 309.984 207.08 309.793 206.364 309.576C205.648 309.36 205.023 308.977 204.49 308.427C203.974 307.878 203.716 307.095 203.716 306.079C203.716 305.23 203.958 304.48 204.44 303.831C204.94 303.164 205.656 302.648 206.589 302.282C207.538 301.915 208.654 301.732 209.936 301.732C210.886 301.732 211.827 301.84 212.759 302.057C213.709 302.257 214.491 302.54 215.108 302.906L213.809 305.679C212.626 305.013 211.335 304.68 209.936 304.68C209.104 304.68 208.479 304.797 208.063 305.03C207.646 305.263 207.438 305.563 207.438 305.929C207.438 306.345 207.663 306.637 208.113 306.803C208.562 306.97 209.279 307.128 210.261 307.278C211.36 307.461 212.26 307.661 212.959 307.878C213.659 308.077 214.267 308.452 214.783 309.002C215.299 309.551 215.557 310.317 215.557 311.3C215.557 312.133 215.307 312.874 214.808 313.523C214.308 314.173 213.575 314.681 212.609 315.047C211.66 315.397 210.528 315.572 209.212 315.572ZM232.165 302.007C233.447 302.007 234.597 302.29 235.612 302.856C236.628 303.423 237.419 304.214 237.986 305.23C238.569 306.246 238.86 307.42 238.86 308.752C238.86 310.084 238.569 311.267 237.986 312.299C237.419 313.315 236.628 314.106 235.612 314.673C234.597 315.239 233.447 315.522 232.165 315.522C231.216 315.522 230.341 315.339 229.542 314.972C228.759 314.606 228.093 314.073 227.543 313.374V320.218H225.145V302.132H227.444V304.23C227.976 303.498 228.651 302.948 229.467 302.582C230.283 302.199 231.182 302.007 232.165 302.007ZM231.965 313.424C232.815 313.424 233.572 313.232 234.238 312.849C234.921 312.449 235.454 311.9 235.837 311.2C236.237 310.484 236.437 309.668 236.437 308.752C236.437 307.836 236.237 307.028 235.837 306.329C235.454 305.613 234.921 305.063 234.238 304.68C233.572 304.297 232.815 304.105 231.965 304.105C231.132 304.105 230.375 304.305 229.692 304.705C229.026 305.088 228.493 305.629 228.093 306.329C227.71 307.028 227.518 307.836 227.518 308.752C227.518 309.668 227.71 310.484 228.093 311.2C228.476 311.9 229.009 312.449 229.692 312.849C230.375 313.232 231.132 313.424 231.965 313.424ZM254.14 308.827C254.14 309.01 254.123 309.252 254.09 309.551H243.348C243.498 310.717 244.006 311.658 244.872 312.374C245.754 313.074 246.845 313.424 248.144 313.424C249.726 313.424 251 312.891 251.966 311.825L253.29 313.374C252.691 314.073 251.941 314.606 251.042 314.972C250.159 315.339 249.168 315.522 248.069 315.522C246.67 315.522 245.43 315.239 244.347 314.673C243.264 314.09 242.423 313.282 241.824 312.249C241.241 311.217 240.95 310.051 240.95 308.752C240.95 307.47 241.233 306.312 241.799 305.28C242.382 304.247 243.173 303.448 244.172 302.881C245.188 302.298 246.329 302.007 247.595 302.007C248.86 302.007 249.985 302.298 250.967 302.881C251.966 303.448 252.741 304.247 253.29 305.28C253.857 306.312 254.14 307.495 254.14 308.827ZM247.595 304.03C246.445 304.03 245.48 304.38 244.697 305.08C243.931 305.779 243.481 306.695 243.348 307.828H251.841C251.708 306.712 251.25 305.804 250.467 305.105C249.701 304.389 248.744 304.03 247.595 304.03ZM259.768 304.355C260.185 303.589 260.801 303.006 261.617 302.607C262.433 302.207 263.424 302.007 264.59 302.007V304.33C264.456 304.314 264.273 304.305 264.04 304.305C262.741 304.305 261.717 304.697 260.967 305.479C260.235 306.246 259.868 307.345 259.868 308.777V315.372H257.47V302.132H259.768V304.355ZM294.46 302.132L289.514 315.372H287.216L283.393 305.33L279.521 315.372H277.223L272.302 302.132H274.575L278.422 312.674L282.419 302.132H284.443L288.365 312.724L292.312 302.132H294.46ZM308.494 308.827C308.494 309.01 308.477 309.252 308.444 309.551H297.702C297.852 310.717 298.36 311.658 299.226 312.374C300.109 313.074 301.199 313.424 302.498 313.424C304.081 313.424 305.355 312.891 306.321 311.825L307.645 313.374C307.045 314.073 306.296 314.606 305.396 314.972C304.514 315.339 303.523 315.522 302.423 315.522C301.025 315.522 299.784 315.239 298.701 314.673C297.619 314.09 296.778 313.282 296.178 312.249C295.595 311.217 295.304 310.051 295.304 308.752C295.304 307.47 295.587 306.312 296.153 305.28C296.736 304.247 297.527 303.448 298.526 302.881C299.542 302.298 300.683 302.007 301.949 302.007C303.215 302.007 304.339 302.298 305.321 302.881C306.321 303.448 307.095 304.247 307.645 305.28C308.211 306.312 308.494 307.495 308.494 308.827ZM301.949 304.03C300.8 304.03 299.834 304.38 299.051 305.08C298.285 305.779 297.835 306.695 297.702 307.828H306.196C306.062 306.712 305.604 305.804 304.822 305.105C304.056 304.389 303.098 304.03 301.949 304.03ZM323.79 308.827C323.79 309.01 323.774 309.252 323.74 309.551H312.998C313.148 310.717 313.656 311.658 314.522 312.374C315.405 313.074 316.496 313.424 317.795 313.424C319.377 313.424 320.651 312.891 321.617 311.825L322.941 313.374C322.341 314.073 321.592 314.606 320.693 314.972C319.81 315.339 318.819 315.522 317.72 315.522C316.321 315.522 315.08 315.239 313.998 314.673C312.915 314.09 312.074 313.282 311.474 312.249C310.891 311.217 310.6 310.051 310.6 308.752C310.6 307.47 310.883 306.312 311.449 305.28C312.032 304.247 312.823 303.448 313.823 302.881C314.839 302.298 315.979 302.007 317.245 302.007C318.511 302.007 319.635 302.298 320.618 302.881C321.617 303.448 322.391 304.247 322.941 305.28C323.507 306.312 323.79 307.495 323.79 308.827ZM317.245 304.03C316.096 304.03 315.13 304.38 314.347 305.08C313.581 305.779 313.131 306.695 312.998 307.828H321.492C321.359 306.712 320.901 305.804 320.118 305.105C319.352 304.389 318.394 304.03 317.245 304.03ZM332.267 309.202L329.519 311.75V315.372H327.12V296.836H329.519V308.727L336.738 302.132H339.636L334.065 307.603L340.186 315.372H337.238L332.267 309.202Z" fill="#1A1A1A"/>
<path d="M65.3311 370.938C65.3311 380.114 72.7922 387.592 81.9854 387.592C91.1619 387.592 98.6397 380.114 98.6397 370.938C98.6397 361.744 91.1619 354.283 81.9854 354.283C72.7922 354.283 65.3311 361.744 65.3311 370.938V370.938Z" fill="#130F26"/>
<rect x="75.7834" y="369.366" width="8.64277" height="2.88092" rx="1.44046" transform="rotate(45 75.7834 369.366)" fill="white"/>
<rect x="91.0619" y="366.311" width="15.8451" height="2.88092" rx="1.44046" transform="rotate(135 91.0619 366.311)" fill="white"/>
<path d="M132.548 380.324L128.326 374.254L124.179 380.324H119.532L126.003 371.431L119.857 362.837H124.454L128.476 368.508L132.423 362.837H136.795L130.699 371.281L137.219 380.324H132.548ZM157.581 380.324L154.208 375.453H154.009H150.486V380.324H146.439V362.837H154.009C155.557 362.837 156.898 363.095 158.031 363.612C159.18 364.128 160.062 364.861 160.679 365.81C161.295 366.759 161.603 367.883 161.603 369.182C161.603 370.482 161.286 371.606 160.654 372.555C160.037 373.488 159.155 374.204 158.006 374.703L161.928 380.324H157.581ZM157.506 369.182C157.506 368.2 157.19 367.45 156.557 366.934C155.924 366.401 154.999 366.135 153.784 366.135H150.486V372.23H153.784C154.999 372.23 155.924 371.964 156.557 371.431C157.19 370.898 157.506 370.148 157.506 369.182ZM177.7 373.654C177.7 373.704 177.675 374.054 177.625 374.703H167.457C167.641 375.536 168.074 376.194 168.756 376.677C169.439 377.16 170.289 377.401 171.304 377.401C172.004 377.401 172.62 377.301 173.153 377.102C173.703 376.885 174.211 376.552 174.677 376.102L176.75 378.351C175.485 379.8 173.636 380.524 171.205 380.524C169.689 380.524 168.348 380.233 167.183 379.65C166.017 379.05 165.117 378.226 164.485 377.177C163.852 376.127 163.535 374.937 163.535 373.604C163.535 372.289 163.843 371.106 164.46 370.057C165.092 368.991 165.95 368.167 167.033 367.584C168.132 366.984 169.356 366.684 170.705 366.684C172.021 366.684 173.211 366.967 174.277 367.534C175.343 368.1 176.176 368.916 176.775 369.982C177.392 371.031 177.7 372.255 177.7 373.654ZM170.73 369.632C169.847 369.632 169.106 369.882 168.507 370.382C167.907 370.881 167.541 371.564 167.407 372.43H174.027C173.894 371.581 173.528 370.906 172.928 370.407C172.329 369.89 171.596 369.632 170.73 369.632ZM193.46 373.654C193.46 373.704 193.435 374.054 193.385 374.703H183.217C183.4 375.536 183.833 376.194 184.516 376.677C185.199 377.16 186.048 377.401 187.064 377.401C187.764 377.401 188.38 377.301 188.913 377.102C189.463 376.885 189.97 376.552 190.437 376.102L192.51 378.351C191.245 379.8 189.396 380.524 186.964 380.524C185.449 380.524 184.108 380.233 182.942 379.65C181.777 379.05 180.877 378.226 180.244 377.177C179.611 376.127 179.295 374.937 179.295 373.604C179.295 372.289 179.603 371.106 180.219 370.057C180.852 368.991 181.71 368.167 182.792 367.584C183.892 366.984 185.116 366.684 186.465 366.684C187.78 366.684 188.971 366.967 190.037 367.534C191.103 368.1 191.936 368.916 192.535 369.982C193.151 371.031 193.46 372.255 193.46 373.654ZM186.49 369.632C185.607 369.632 184.866 369.882 184.266 370.382C183.667 370.881 183.3 371.564 183.167 372.43H189.787C189.654 371.581 189.288 370.906 188.688 370.407C188.089 369.89 187.356 369.632 186.49 369.632ZM196.054 361.788H199.951V380.324H196.054V361.788ZM208.09 380.524C206.974 380.524 205.883 380.391 204.817 380.124C203.751 379.841 202.902 379.492 202.269 379.075L203.568 376.277C204.168 376.66 204.892 376.977 205.741 377.227C206.591 377.46 207.424 377.576 208.24 377.576C209.888 377.576 210.713 377.168 210.713 376.352C210.713 375.969 210.488 375.694 210.038 375.528C209.589 375.361 208.897 375.22 207.965 375.103C206.866 374.937 205.958 374.745 205.242 374.529C204.526 374.312 203.901 373.929 203.368 373.379C202.852 372.83 202.594 372.047 202.594 371.031C202.594 370.182 202.835 369.432 203.318 368.783C203.818 368.117 204.534 367.6 205.467 367.234C206.416 366.868 207.532 366.684 208.814 366.684C209.763 366.684 210.704 366.793 211.637 367.009C212.586 367.209 213.369 367.492 213.985 367.858L212.686 370.631C211.504 369.965 210.213 369.632 208.814 369.632C207.981 369.632 207.357 369.749 206.941 369.982C206.524 370.215 206.316 370.515 206.316 370.881C206.316 371.298 206.541 371.589 206.991 371.756C207.44 371.922 208.156 372.08 209.139 372.23C210.238 372.413 211.137 372.613 211.837 372.83C212.536 373.03 213.144 373.404 213.661 373.954C214.177 374.504 214.435 375.27 214.435 376.252C214.435 377.085 214.185 377.826 213.686 378.476C213.186 379.125 212.453 379.633 211.487 379.999C210.538 380.349 209.405 380.524 208.09 380.524ZM231.043 366.959C232.325 366.959 233.474 367.242 234.49 367.808C235.506 368.375 236.297 369.166 236.864 370.182C237.446 371.198 237.738 372.372 237.738 373.704C237.738 375.036 237.446 376.219 236.864 377.251C236.297 378.267 235.506 379.058 234.49 379.625C233.474 380.191 232.325 380.474 231.043 380.474C230.094 380.474 229.219 380.291 228.42 379.925C227.637 379.558 226.971 379.025 226.421 378.326V385.171H224.023V367.084H226.321V369.182C226.854 368.45 227.529 367.9 228.345 367.534C229.161 367.151 230.06 366.959 231.043 366.959ZM230.843 378.376C231.692 378.376 232.45 378.184 233.116 377.801C233.799 377.401 234.332 376.852 234.715 376.152C235.115 375.436 235.315 374.62 235.315 373.704C235.315 372.788 235.115 371.98 234.715 371.281C234.332 370.565 233.799 370.015 233.116 369.632C232.45 369.249 231.692 369.058 230.843 369.058C230.01 369.058 229.252 369.257 228.57 369.657C227.903 370.04 227.371 370.581 226.971 371.281C226.588 371.98 226.396 372.788 226.396 373.704C226.396 374.62 226.588 375.436 226.971 376.152C227.354 376.852 227.887 377.401 228.57 377.801C229.252 378.184 230.01 378.376 230.843 378.376ZM253.018 373.779C253.018 373.962 253.001 374.204 252.968 374.504H242.226C242.375 375.669 242.883 376.61 243.749 377.326C244.632 378.026 245.723 378.376 247.022 378.376C248.604 378.376 249.878 377.843 250.844 376.777L252.168 378.326C251.569 379.025 250.819 379.558 249.92 379.925C249.037 380.291 248.046 380.474 246.947 380.474C245.548 380.474 244.307 380.191 243.225 379.625C242.142 379.042 241.301 378.234 240.702 377.202C240.119 376.169 239.827 375.003 239.827 373.704C239.827 372.422 240.11 371.264 240.677 370.232C241.26 369.199 242.051 368.4 243.05 367.833C244.066 367.251 245.207 366.959 246.472 366.959C247.738 366.959 248.862 367.251 249.845 367.833C250.844 368.4 251.619 369.199 252.168 370.232C252.734 371.264 253.018 372.447 253.018 373.779ZM246.472 368.983C245.323 368.983 244.357 369.332 243.575 370.032C242.808 370.731 242.359 371.647 242.226 372.78H250.719C250.586 371.664 250.128 370.756 249.345 370.057C248.579 369.341 247.622 368.983 246.472 368.983ZM258.646 369.307C259.062 368.541 259.679 367.958 260.495 367.559C261.311 367.159 262.302 366.959 263.467 366.959V369.282C263.334 369.266 263.151 369.257 262.918 369.257C261.619 369.257 260.595 369.649 259.845 370.432C259.112 371.198 258.746 372.297 258.746 373.729V380.324H256.348V367.084H258.646V369.307ZM293.338 367.084L288.392 380.324H286.093L282.271 370.282L278.399 380.324H276.101L271.179 367.084H273.453L277.3 377.626L281.297 367.084H283.32L287.243 377.676L291.19 367.084H293.338ZM307.372 373.779C307.372 373.962 307.355 374.204 307.322 374.504H296.58C296.73 375.669 297.238 376.61 298.104 377.326C298.986 378.026 300.077 378.376 301.376 378.376C302.958 378.376 304.232 377.843 305.198 376.777L306.522 378.326C305.923 379.025 305.173 379.558 304.274 379.925C303.391 380.291 302.4 380.474 301.301 380.474C299.902 380.474 298.662 380.191 297.579 379.625C296.496 379.042 295.655 378.234 295.056 377.202C294.473 376.169 294.182 375.003 294.182 373.704C294.182 372.422 294.465 371.264 295.031 370.232C295.614 369.199 296.405 368.4 297.404 367.833C298.42 367.251 299.561 366.959 300.827 366.959C302.092 366.959 303.217 367.251 304.199 367.833C305.198 368.4 305.973 369.199 306.522 370.232C307.089 371.264 307.372 372.447 307.372 373.779ZM300.827 368.983C299.677 368.983 298.712 369.332 297.929 370.032C297.163 370.731 296.713 371.647 296.58 372.78H305.073C304.94 371.664 304.482 370.756 303.699 370.057C302.933 369.341 301.976 368.983 300.827 368.983ZM322.668 373.779C322.668 373.962 322.651 374.204 322.618 374.504H311.876C312.026 375.669 312.534 376.61 313.4 377.326C314.283 378.026 315.373 378.376 316.672 378.376C318.255 378.376 319.529 377.843 320.495 376.777L321.819 378.326C321.219 379.025 320.47 379.558 319.57 379.925C318.688 380.291 317.697 380.474 316.598 380.474C315.199 380.474 313.958 380.191 312.875 379.625C311.793 379.042 310.952 378.234 310.352 377.202C309.769 376.169 309.478 375.003 309.478 373.704C309.478 372.422 309.761 371.264 310.327 370.232C310.91 369.199 311.701 368.4 312.7 367.833C313.716 367.251 314.857 366.959 316.123 366.959C317.389 366.959 318.513 367.251 319.495 367.833C320.495 368.4 321.269 369.199 321.819 370.232C322.385 371.264 322.668 372.447 322.668 373.779ZM316.123 368.983C314.974 368.983 314.008 369.332 313.225 370.032C312.459 370.731 312.009 371.647 311.876 372.78H320.37C320.237 371.664 319.779 370.756 318.996 370.057C318.23 369.341 317.272 368.983 316.123 368.983ZM331.144 374.154L328.396 376.702V380.324H325.998V361.788H328.396V373.679L335.616 367.084H338.514L332.943 372.555L339.063 380.324H336.116L331.144 374.154Z" fill="#1A1A1A"/>
<path d="M65.3311 500.841C65.3311 510.017 72.7922 517.495 81.9854 517.495C91.1619 517.495 98.6397 510.017 98.6397 500.841C98.6397 491.648 91.1619 484.187 81.9854 484.187C72.7922 484.187 65.3311 491.648 65.3311 500.841V500.841Z" fill="#130F26"/>
<rect x="75.7834" y="499.27" width="8.64277" height="2.88092" rx="1.44046" transform="rotate(45 75.7834 499.27)" fill="white"/>
<rect x="91.0619" y="496.214" width="15.8451" height="2.88092" rx="1.44046" transform="rotate(135 91.0619 496.214)" fill="white"/>
<path d="M133.222 505.205H123.929L122.006 509.577H119.432L127.352 492.09H129.825L137.769 509.577H135.146L133.222 505.205ZM132.348 503.207L128.576 494.638L124.803 503.207H132.348ZM145.676 509.727C144.327 509.727 143.12 509.436 142.054 508.853C141.005 508.27 140.181 507.47 139.581 506.454C138.981 505.422 138.682 504.256 138.682 502.957C138.682 501.658 138.981 500.501 139.581 499.485C140.181 498.452 141.005 497.653 142.054 497.086C143.12 496.504 144.327 496.212 145.676 496.212C146.876 496.212 147.941 496.454 148.874 496.937C149.823 497.419 150.556 498.119 151.072 499.035L149.249 500.209C148.832 499.576 148.316 499.102 147.7 498.785C147.084 498.469 146.401 498.311 145.651 498.311C144.785 498.311 144.003 498.502 143.303 498.885C142.62 499.268 142.079 499.818 141.679 500.534C141.296 501.233 141.105 502.041 141.105 502.957C141.105 503.89 141.296 504.714 141.679 505.43C142.079 506.13 142.62 506.671 143.303 507.054C144.003 507.437 144.785 507.629 145.651 507.629C146.401 507.629 147.084 507.47 147.7 507.154C148.316 506.838 148.832 506.363 149.249 505.73L151.072 506.879C150.556 507.795 149.823 508.503 148.874 509.003C147.941 509.486 146.876 509.727 145.676 509.727ZM159.753 509.727C158.404 509.727 157.196 509.436 156.131 508.853C155.081 508.27 154.257 507.47 153.657 506.454C153.058 505.422 152.758 504.256 152.758 502.957C152.758 501.658 153.058 500.501 153.657 499.485C154.257 498.452 155.081 497.653 156.131 497.086C157.196 496.504 158.404 496.212 159.753 496.212C160.952 496.212 162.018 496.454 162.951 496.937C163.9 497.419 164.633 498.119 165.149 499.035L163.325 500.209C162.909 499.576 162.393 499.102 161.776 498.785C161.16 498.469 160.477 498.311 159.728 498.311C158.862 498.311 158.079 498.502 157.38 498.885C156.697 499.268 156.156 499.818 155.756 500.534C155.373 501.233 155.181 502.041 155.181 502.957C155.181 503.89 155.373 504.714 155.756 505.43C156.156 506.13 156.697 506.671 157.38 507.054C158.079 507.437 158.862 507.629 159.728 507.629C160.477 507.629 161.16 507.47 161.776 507.154C162.393 506.838 162.909 506.363 163.325 505.73L165.149 506.879C164.633 507.795 163.9 508.503 162.951 509.003C162.018 509.486 160.952 509.727 159.753 509.727ZM173.729 509.727C172.414 509.727 171.231 509.436 170.182 508.853C169.133 508.27 168.308 507.47 167.709 506.454C167.126 505.422 166.835 504.256 166.835 502.957C166.835 501.658 167.126 500.501 167.709 499.485C168.308 498.452 169.133 497.653 170.182 497.086C171.231 496.504 172.414 496.212 173.729 496.212C175.045 496.212 176.219 496.504 177.252 497.086C178.301 497.653 179.117 498.452 179.7 499.485C180.3 500.501 180.599 501.658 180.599 502.957C180.599 504.256 180.3 505.422 179.7 506.454C179.117 507.47 178.301 508.27 177.252 508.853C176.219 509.436 175.045 509.727 173.729 509.727ZM173.729 507.629C174.579 507.629 175.337 507.437 176.003 507.054C176.686 506.654 177.219 506.105 177.602 505.405C177.985 504.689 178.176 503.873 178.176 502.957C178.176 502.041 177.985 501.233 177.602 500.534C177.219 499.818 176.686 499.268 176.003 498.885C175.337 498.502 174.579 498.311 173.729 498.311C172.88 498.311 172.114 498.502 171.431 498.885C170.765 499.268 170.232 499.818 169.832 500.534C169.449 501.233 169.258 502.041 169.258 502.957C169.258 503.873 169.449 504.689 169.832 505.405C170.232 506.105 170.765 506.654 171.431 507.054C172.114 507.437 172.88 507.629 173.729 507.629ZM196.257 496.337V509.577H193.984V507.579C193.501 508.261 192.859 508.794 192.06 509.177C191.277 509.544 190.42 509.727 189.487 509.727C187.722 509.727 186.331 509.244 185.315 508.278C184.299 507.296 183.791 505.855 183.791 503.956V496.337H186.189V503.682C186.189 504.964 186.497 505.938 187.114 506.604C187.73 507.254 188.613 507.579 189.762 507.579C191.027 507.579 192.027 507.196 192.759 506.429C193.492 505.663 193.859 504.581 193.859 503.182V496.337H196.257ZM207.892 496.212C209.574 496.212 210.907 496.703 211.889 497.686C212.889 498.652 213.388 500.076 213.388 501.958V509.577H210.99V502.233C210.99 500.95 210.682 499.984 210.066 499.335C209.449 498.685 208.567 498.36 207.418 498.36C206.119 498.36 205.094 498.744 204.345 499.51C203.595 500.259 203.221 501.342 203.221 502.757V509.577H200.822V496.337H203.121V498.335C203.604 497.653 204.253 497.128 205.069 496.762C205.902 496.395 206.843 496.212 207.892 496.212ZM225.271 508.803C224.921 509.103 224.488 509.336 223.972 509.502C223.456 509.652 222.923 509.727 222.373 509.727C221.041 509.727 220.008 509.369 219.275 508.653C218.543 507.937 218.176 506.912 218.176 505.58V498.311H215.928V496.337H218.176V493.439H220.574V496.337H224.372V498.311H220.574V505.48C220.574 506.196 220.749 506.746 221.099 507.129C221.465 507.512 221.982 507.704 222.648 507.704C223.381 507.704 224.005 507.495 224.521 507.079L225.271 508.803ZM251.442 496.212C253.107 496.212 254.423 496.695 255.389 497.661C256.372 498.627 256.863 500.059 256.863 501.958V509.577H254.465V502.233C254.465 500.95 254.165 499.984 253.565 499.335C252.982 498.685 252.141 498.36 251.042 498.36C249.826 498.36 248.861 498.744 248.144 499.51C247.428 500.259 247.07 501.342 247.07 502.757V509.577H244.672V502.233C244.672 500.95 244.372 499.984 243.773 499.335C243.19 498.685 242.349 498.36 241.25 498.36C240.034 498.36 239.068 498.744 238.352 499.51C237.636 500.259 237.277 501.342 237.277 502.757V509.577H234.879V496.337H237.178V498.311C237.661 497.628 238.293 497.111 239.076 496.762C239.859 496.395 240.75 496.212 241.749 496.212C242.782 496.212 243.698 496.42 244.497 496.837C245.297 497.253 245.913 497.861 246.346 498.66C246.845 497.894 247.537 497.295 248.419 496.862C249.319 496.429 250.326 496.212 251.442 496.212ZM266.097 496.212C267.929 496.212 269.328 496.662 270.294 497.561C271.277 498.46 271.768 499.801 271.768 501.583V509.577H269.495V507.828C269.095 508.445 268.52 508.919 267.771 509.252C267.038 509.569 266.164 509.727 265.148 509.727C263.666 509.727 262.475 509.369 261.575 508.653C260.693 507.937 260.251 506.996 260.251 505.83C260.251 504.664 260.676 503.731 261.525 503.032C262.375 502.316 263.724 501.958 265.572 501.958H269.37V501.483C269.37 500.451 269.07 499.66 268.47 499.11C267.871 498.56 266.988 498.286 265.822 498.286C265.04 498.286 264.273 498.419 263.524 498.685C262.775 498.935 262.142 499.276 261.625 499.709L260.626 497.911C261.309 497.361 262.125 496.945 263.074 496.662C264.024 496.362 265.031 496.212 266.097 496.212ZM265.548 507.878C266.463 507.878 267.255 507.679 267.921 507.279C268.587 506.862 269.07 506.28 269.37 505.53V503.682H265.672C263.641 503.682 262.625 504.364 262.625 505.73C262.625 506.396 262.883 506.921 263.399 507.304C263.915 507.687 264.632 507.878 265.548 507.878ZM283.276 496.212C284.958 496.212 286.29 496.703 287.273 497.686C288.272 498.652 288.772 500.076 288.772 501.958V509.577H286.373V502.233C286.373 500.95 286.065 499.984 285.449 499.335C284.833 498.685 283.95 498.36 282.801 498.36C281.502 498.36 280.478 498.744 279.728 499.51C278.979 500.259 278.604 501.342 278.604 502.757V509.577H276.206V496.337H278.504V498.335C278.987 497.653 279.637 497.128 280.453 496.762C281.286 496.395 282.227 496.212 283.276 496.212ZM298.031 496.212C299.863 496.212 301.262 496.662 302.228 497.561C303.211 498.46 303.702 499.801 303.702 501.583V509.577H301.429V507.828C301.029 508.445 300.455 508.919 299.705 509.252C298.972 509.569 298.098 509.727 297.082 509.727C295.6 509.727 294.409 509.369 293.51 508.653C292.627 507.937 292.186 506.996 292.186 505.83C292.186 504.664 292.61 503.731 293.46 503.032C294.309 502.316 295.658 501.958 297.507 501.958H301.304V501.483C301.304 500.451 301.004 499.66 300.405 499.11C299.805 498.56 298.922 498.286 297.757 498.286C296.974 498.286 296.208 498.419 295.458 498.685C294.709 498.935 294.076 499.276 293.56 499.709L292.56 497.911C293.243 497.361 294.059 496.945 295.009 496.662C295.958 496.362 296.966 496.212 298.031 496.212ZM297.482 507.878C298.398 507.878 299.189 507.679 299.855 507.279C300.521 506.862 301.004 506.28 301.304 505.53V503.682H297.607C295.575 503.682 294.559 504.364 294.559 505.73C294.559 506.396 294.817 506.921 295.333 507.304C295.85 507.687 296.566 507.878 297.482 507.878ZM320.879 496.337V507.778C320.879 510.093 320.305 511.8 319.155 512.9C318.006 514.016 316.291 514.573 314.009 514.573C312.76 514.573 311.569 514.399 310.437 514.049C309.304 513.716 308.388 513.233 307.689 512.6L308.838 510.751C309.454 511.284 310.212 511.701 311.111 512C312.027 512.317 312.968 512.475 313.934 512.475C315.483 512.475 316.624 512.109 317.357 511.376C318.106 510.643 318.481 509.527 318.481 508.028V506.979C317.915 507.662 317.215 508.178 316.382 508.528C315.566 508.861 314.675 509.028 313.709 509.028C312.444 509.028 311.295 508.761 310.262 508.228C309.246 507.679 308.447 506.921 307.864 505.955C307.281 504.972 306.989 503.856 306.989 502.607C306.989 501.358 307.281 500.251 307.864 499.285C308.447 498.302 309.246 497.544 310.262 497.011C311.295 496.479 312.444 496.212 313.709 496.212C314.709 496.212 315.633 496.395 316.482 496.762C317.348 497.128 318.056 497.669 318.606 498.385V496.337H320.879ZM313.984 506.929C314.85 506.929 315.625 506.746 316.308 506.38C317.007 506.013 317.548 505.505 317.931 504.856C318.331 504.189 318.531 503.44 318.531 502.607C318.531 501.325 318.106 500.292 317.257 499.51C316.407 498.71 315.317 498.311 313.984 498.311C312.635 498.311 311.536 498.71 310.687 499.51C309.837 500.292 309.413 501.325 309.413 502.607C309.413 503.44 309.604 504.189 309.987 504.856C310.387 505.505 310.928 506.013 311.611 506.38C312.31 506.746 313.102 506.929 313.984 506.929ZM337.428 503.032C337.428 503.215 337.411 503.457 337.378 503.756H326.636C326.785 504.922 327.293 505.863 328.159 506.579C329.042 507.279 330.133 507.629 331.432 507.629C333.014 507.629 334.288 507.096 335.254 506.03L336.578 507.579C335.979 508.278 335.229 508.811 334.33 509.177C333.447 509.544 332.456 509.727 331.357 509.727C329.958 509.727 328.717 509.444 327.635 508.878C326.552 508.295 325.711 507.487 325.112 506.454C324.529 505.422 324.237 504.256 324.237 502.957C324.237 501.675 324.521 500.517 325.087 499.485C325.67 498.452 326.461 497.653 327.46 497.086C328.476 496.504 329.617 496.212 330.882 496.212C332.148 496.212 333.272 496.504 334.255 497.086C335.254 497.653 336.029 498.452 336.578 499.485C337.144 500.517 337.428 501.7 337.428 503.032ZM330.882 498.236C329.733 498.236 328.767 498.585 327.985 499.285C327.219 499.984 326.769 500.9 326.636 502.033H335.129C334.996 500.917 334.538 500.009 333.755 499.31C332.989 498.594 332.032 498.236 330.882 498.236ZM357.32 496.212C358.986 496.212 360.302 496.695 361.268 497.661C362.25 498.627 362.741 500.059 362.741 501.958V509.577H360.343V502.233C360.343 500.95 360.043 499.984 359.444 499.335C358.861 498.685 358.02 498.36 356.921 498.36C355.705 498.36 354.739 498.744 354.023 499.51C353.307 500.259 352.949 501.342 352.949 502.757V509.577H350.55V502.233C350.55 500.95 350.251 499.984 349.651 499.335C349.068 498.685 348.227 498.36 347.128 498.36C345.912 498.36 344.946 498.744 344.23 499.51C343.514 500.259 343.156 501.342 343.156 502.757V509.577H340.758V496.337H343.056V498.311C343.539 497.628 344.172 497.111 344.955 496.762C345.737 496.395 346.628 496.212 347.628 496.212C348.66 496.212 349.576 496.42 350.376 496.837C351.175 497.253 351.791 497.861 352.224 498.66C352.724 497.894 353.415 497.295 354.298 496.862C355.197 496.429 356.205 496.212 357.32 496.212ZM379.194 503.032C379.194 503.215 379.177 503.457 379.144 503.756H368.402C368.551 504.922 369.059 505.863 369.925 506.579C370.808 507.279 371.899 507.629 373.198 507.629C374.78 507.629 376.054 507.096 377.02 506.03L378.344 507.579C377.745 508.278 376.995 508.811 376.096 509.177C375.213 509.544 374.222 509.727 373.123 509.727C371.724 509.727 370.483 509.444 369.401 508.878C368.318 508.295 367.477 507.487 366.878 506.454C366.295 505.422 366.003 504.256 366.003 502.957C366.003 501.675 366.286 500.517 366.853 499.485C367.436 498.452 368.227 497.653 369.226 497.086C370.242 496.504 371.383 496.212 372.648 496.212C373.914 496.212 375.038 496.504 376.021 497.086C377.02 497.653 377.795 498.452 378.344 499.485C378.91 500.517 379.194 501.7 379.194 503.032ZM372.648 498.236C371.499 498.236 370.533 498.585 369.751 499.285C368.984 499.984 368.535 500.9 368.402 502.033H376.895C376.762 500.917 376.304 500.009 375.521 499.31C374.755 498.594 373.798 498.236 372.648 498.236ZM389.593 496.212C391.275 496.212 392.608 496.703 393.59 497.686C394.59 498.652 395.089 500.076 395.089 501.958V509.577H392.691V502.233C392.691 500.95 392.383 499.984 391.767 499.335C391.151 498.685 390.268 498.36 389.119 498.36C387.82 498.36 386.795 498.744 386.046 499.51C385.297 500.259 384.922 501.342 384.922 502.757V509.577H382.524V496.337H384.822V498.335C385.305 497.653 385.954 497.128 386.771 496.762C387.603 496.395 388.544 496.212 389.593 496.212ZM406.972 508.803C406.622 509.103 406.189 509.336 405.673 509.502C405.157 509.652 404.624 509.727 404.074 509.727C402.742 509.727 401.709 509.369 400.977 508.653C400.244 507.937 399.877 506.912 399.877 505.58V498.311H397.629V496.337H399.877V493.439H402.276V496.337H406.073V498.311H402.276V505.48C402.276 506.196 402.45 506.746 402.8 507.129C403.167 507.512 403.683 507.704 404.349 507.704C405.082 507.704 405.706 507.495 406.223 507.079L406.972 508.803ZM427.173 501.833H422.626V506.305H420.528V501.833H415.981V499.859H420.528V495.363H422.626V499.859H427.173V501.833ZM449.321 505.205H440.028L438.104 509.577H435.531L443.45 492.09H445.923L453.867 509.577H451.244L449.321 505.205ZM448.446 503.207L444.674 494.638L440.902 503.207H448.446ZM468.223 496.337V509.577H465.95V507.579C465.467 508.261 464.826 508.794 464.026 509.177C463.244 509.544 462.386 509.727 461.453 509.727C459.688 509.727 458.297 509.244 457.281 508.278C456.265 507.296 455.757 505.855 455.757 503.956V496.337H458.156V503.682C458.156 504.964 458.464 505.938 459.08 506.604C459.696 507.254 460.579 507.579 461.728 507.579C462.994 507.579 463.993 507.196 464.726 506.429C465.459 505.663 465.825 504.581 465.825 503.182V496.337H468.223ZM480.233 508.803C479.883 509.103 479.45 509.336 478.934 509.502C478.418 509.652 477.885 509.727 477.335 509.727C476.003 509.727 474.97 509.369 474.238 508.653C473.505 507.937 473.138 506.912 473.138 505.58V498.311H470.89V496.337H473.138V493.439H475.537V496.337H479.334V498.311H475.537V505.48C475.537 506.196 475.712 506.746 476.061 507.129C476.428 507.512 476.944 507.704 477.61 507.704C478.343 507.704 478.968 507.495 479.484 507.079L480.233 508.803ZM488.364 509.727C487.049 509.727 485.866 509.436 484.817 508.853C483.768 508.27 482.943 507.47 482.344 506.454C481.761 505.422 481.469 504.256 481.469 502.957C481.469 501.658 481.761 500.501 482.344 499.485C482.943 498.452 483.768 497.653 484.817 497.086C485.866 496.504 487.049 496.212 488.364 496.212C489.68 496.212 490.854 496.504 491.887 497.086C492.936 497.653 493.752 498.452 494.335 499.485C494.934 500.501 495.234 501.658 495.234 502.957C495.234 504.256 494.934 505.422 494.335 506.454C493.752 507.47 492.936 508.27 491.887 508.853C490.854 509.436 489.68 509.727 488.364 509.727ZM488.364 507.629C489.214 507.629 489.971 507.437 490.638 507.054C491.32 506.654 491.853 506.105 492.236 505.405C492.619 504.689 492.811 503.873 492.811 502.957C492.811 502.041 492.619 501.233 492.236 500.534C491.853 499.818 491.32 499.268 490.638 498.885C489.971 498.502 489.214 498.311 488.364 498.311C487.515 498.311 486.749 498.502 486.066 498.885C485.4 499.268 484.867 499.818 484.467 500.534C484.084 501.233 483.893 502.041 483.893 502.957C483.893 503.873 484.084 504.689 484.467 505.405C484.867 506.105 485.4 506.654 486.066 507.054C486.749 507.437 487.515 507.629 488.364 507.629ZM515.114 496.212C516.779 496.212 518.095 496.695 519.061 497.661C520.043 498.627 520.535 500.059 520.535 501.958V509.577H518.136V502.233C518.136 500.95 517.837 499.984 517.237 499.335C516.654 498.685 515.813 498.36 514.714 498.36C513.498 498.36 512.532 498.744 511.816 499.51C511.1 500.259 510.742 501.342 510.742 502.757V509.577H508.344V502.233C508.344 500.95 508.044 499.984 507.444 499.335C506.861 498.685 506.02 498.36 504.921 498.36C503.705 498.36 502.739 498.744 502.023 499.51C501.307 500.259 500.949 501.342 500.949 502.757V509.577H498.551V496.337H500.849V498.311C501.332 497.628 501.965 497.111 502.748 496.762C503.531 496.395 504.422 496.212 505.421 496.212C506.453 496.212 507.369 496.42 508.169 496.837C508.968 497.253 509.584 497.861 510.017 498.66C510.517 497.894 511.208 497.295 512.091 496.862C512.99 496.429 513.998 496.212 515.114 496.212ZM529.769 496.212C531.601 496.212 533 496.662 533.966 497.561C534.948 498.46 535.44 499.801 535.44 501.583V509.577H533.166V507.828C532.767 508.445 532.192 508.919 531.443 509.252C530.71 509.569 529.835 509.727 528.819 509.727C527.337 509.727 526.146 509.369 525.247 508.653C524.364 507.937 523.923 506.996 523.923 505.83C523.923 504.664 524.348 503.731 525.197 503.032C526.047 502.316 527.396 501.958 529.244 501.958H533.041V501.483C533.041 500.451 532.742 499.66 532.142 499.11C531.542 498.56 530.66 498.286 529.494 498.286C528.711 498.286 527.945 498.419 527.196 498.685C526.446 498.935 525.813 499.276 525.297 499.709L524.298 497.911C524.981 497.361 525.797 496.945 526.746 496.662C527.695 496.362 528.703 496.212 529.769 496.212ZM529.219 507.878C530.135 507.878 530.926 507.679 531.592 507.279C532.259 506.862 532.742 506.28 533.041 505.53V503.682H529.344C527.312 503.682 526.296 504.364 526.296 505.73C526.296 506.396 526.554 506.921 527.071 507.304C527.587 507.687 528.303 507.878 529.219 507.878ZM547.322 508.803C546.972 509.103 546.539 509.336 546.023 509.502C545.507 509.652 544.974 509.727 544.424 509.727C543.092 509.727 542.059 509.369 541.327 508.653C540.594 507.937 540.227 506.912 540.227 505.58V498.311H537.979V496.337H540.227V493.439H542.626V496.337H546.423V498.311H542.626V505.48C542.626 506.196 542.801 506.746 543.15 507.129C543.517 507.512 544.033 507.704 544.699 507.704C545.432 507.704 546.056 507.495 546.573 507.079L547.322 508.803ZM550.222 496.337H552.62V509.577H550.222V496.337ZM551.421 493.789C550.954 493.789 550.563 493.639 550.247 493.339C549.947 493.039 549.797 492.673 549.797 492.24C549.797 491.807 549.947 491.441 550.247 491.141C550.563 490.824 550.954 490.666 551.421 490.666C551.887 490.666 552.27 490.816 552.57 491.116C552.886 491.399 553.044 491.757 553.044 492.19C553.044 492.64 552.886 493.023 552.57 493.339C552.27 493.639 551.887 493.789 551.421 493.789ZM562.87 509.727C561.554 509.727 560.371 509.436 559.322 508.853C558.273 508.27 557.449 507.47 556.849 506.454C556.266 505.422 555.975 504.256 555.975 502.957C555.975 501.658 556.266 500.501 556.849 499.485C557.449 498.452 558.273 497.653 559.322 497.086C560.371 496.504 561.554 496.212 562.87 496.212C564.185 496.212 565.359 496.504 566.392 497.086C567.441 497.653 568.257 498.452 568.84 499.485C569.44 500.501 569.74 501.658 569.74 502.957C569.74 504.256 569.44 505.422 568.84 506.454C568.257 507.47 567.441 508.27 566.392 508.853C565.359 509.436 564.185 509.727 562.87 509.727ZM562.87 507.629C563.719 507.629 564.477 507.437 565.143 507.054C565.826 506.654 566.359 506.105 566.742 505.405C567.125 504.689 567.316 503.873 567.316 502.957C567.316 502.041 567.125 501.233 566.742 500.534C566.359 499.818 565.826 499.268 565.143 498.885C564.477 498.502 563.719 498.311 562.87 498.311C562.02 498.311 561.254 498.502 560.571 498.885C559.905 499.268 559.372 499.818 558.973 500.534C558.589 501.233 558.398 502.041 558.398 502.957C558.398 503.873 558.589 504.689 558.973 505.405C559.372 506.105 559.905 506.654 560.571 507.054C561.254 507.437 562.02 507.629 562.87 507.629ZM580.126 496.212C581.808 496.212 583.14 496.703 584.123 497.686C585.122 498.652 585.622 500.076 585.622 501.958V509.577H583.224V502.233C583.224 500.95 582.916 499.984 582.299 499.335C581.683 498.685 580.8 498.36 579.651 498.36C578.352 498.36 577.328 498.744 576.579 499.51C575.829 500.259 575.454 501.342 575.454 502.757V509.577H573.056V496.337H575.355V498.335C575.837 497.653 576.487 497.128 577.303 496.762C578.136 496.395 579.077 496.212 580.126 496.212Z" fill="#1A1A1A"/>
<path d="M65.3311 435.89C65.3311 445.066 72.7922 452.544 81.9854 452.544C91.1619 452.544 98.6397 445.066 98.6397 435.89C98.6397 426.696 91.1619 419.235 81.9854 419.235C72.7922 419.235 65.3311 426.696 65.3311 435.89V435.89Z" fill="#130F26"/>
<rect x="75.7834" y="434.318" width="8.64277" height="2.88092" rx="1.44046" transform="rotate(45 75.7834 434.318)" fill="white"/>
<rect x="91.0619" y="431.263" width="15.8451" height="2.88092" rx="1.44046" transform="rotate(135 91.0619 431.263)" fill="white"/>
<path d="M122.08 427.789H124.579V445.276H122.08V427.789ZM136.534 431.911C138.216 431.911 139.548 432.403 140.531 433.385C141.53 434.351 142.03 435.775 142.03 437.657V445.276H139.632V437.932C139.632 436.649 139.324 435.683 138.707 435.034C138.091 434.384 137.208 434.06 136.059 434.06C134.76 434.06 133.736 434.443 132.987 435.209C132.237 435.958 131.862 437.041 131.862 438.456V445.276H129.464V432.036H131.763V434.035C132.246 433.352 132.895 432.827 133.711 432.461C134.544 432.094 135.485 431.911 136.534 431.911ZM150.265 445.426C149.183 445.426 148.142 445.285 147.143 445.002C146.143 444.702 145.361 444.327 144.794 443.877L145.794 441.979C146.377 442.395 147.084 442.728 147.917 442.978C148.75 443.228 149.591 443.353 150.44 443.353C152.539 443.353 153.588 442.753 153.588 441.554C153.588 441.154 153.446 440.838 153.163 440.605C152.88 440.372 152.522 440.205 152.089 440.105C151.673 439.989 151.073 439.864 150.29 439.73C149.225 439.564 148.35 439.372 147.667 439.156C147.001 438.939 146.427 438.573 145.944 438.057C145.461 437.54 145.219 436.816 145.219 435.883C145.219 434.684 145.719 433.727 146.718 433.01C147.717 432.278 149.058 431.911 150.74 431.911C151.623 431.911 152.505 432.02 153.388 432.236C154.271 432.453 154.995 432.744 155.561 433.11L154.537 435.009C153.455 434.309 152.181 433.96 150.715 433.96C149.699 433.96 148.925 434.126 148.392 434.459C147.859 434.792 147.592 435.234 147.592 435.783C147.592 436.216 147.742 436.558 148.042 436.808C148.342 437.057 148.708 437.241 149.141 437.357C149.591 437.474 150.215 437.607 151.015 437.757C152.081 437.94 152.938 438.14 153.588 438.356C154.254 438.556 154.82 438.906 155.287 439.406C155.753 439.905 155.986 440.605 155.986 441.504C155.986 442.703 155.47 443.661 154.437 444.377C153.421 445.077 152.031 445.426 150.265 445.426ZM166.428 444.502C166.078 444.802 165.645 445.035 165.129 445.201C164.613 445.351 164.08 445.426 163.53 445.426C162.198 445.426 161.165 445.068 160.432 444.352C159.699 443.636 159.333 442.612 159.333 441.279V434.01H157.085V432.036H159.333V429.138H161.731V432.036H165.529V434.01H161.731V441.179C161.731 441.896 161.906 442.445 162.256 442.828C162.622 443.211 163.139 443.403 163.805 443.403C164.538 443.403 165.162 443.195 165.678 442.778L166.428 444.502ZM174.149 431.911C175.981 431.911 177.38 432.361 178.346 433.26C179.328 434.16 179.819 435.5 179.819 437.282V445.276H177.546V443.528C177.146 444.144 176.572 444.619 175.822 444.952C175.09 445.268 174.215 445.426 173.199 445.426C171.717 445.426 170.526 445.068 169.627 444.352C168.744 443.636 168.303 442.695 168.303 441.529C168.303 440.363 168.728 439.431 169.577 438.731C170.426 438.015 171.775 437.657 173.624 437.657H177.421V437.182C177.421 436.15 177.121 435.359 176.522 434.809C175.922 434.26 175.04 433.985 173.874 433.985C173.091 433.985 172.325 434.118 171.576 434.384C170.826 434.634 170.193 434.976 169.677 435.409L168.678 433.61C169.361 433.06 170.177 432.644 171.126 432.361C172.075 432.061 173.083 431.911 174.149 431.911ZM173.599 443.578C174.515 443.578 175.306 443.378 175.972 442.978C176.638 442.562 177.121 441.979 177.421 441.229V439.381H173.724C171.692 439.381 170.676 440.064 170.676 441.429C170.676 442.095 170.934 442.62 171.451 443.003C171.967 443.386 172.683 443.578 173.599 443.578ZM196.996 432.036V443.478C196.996 445.793 196.422 447.5 195.273 448.599C194.124 449.715 192.408 450.273 190.126 450.273C188.877 450.273 187.687 450.098 186.554 449.748C185.422 449.415 184.506 448.932 183.806 448.299L184.955 446.45C185.572 446.983 186.329 447.4 187.229 447.7C188.145 448.016 189.086 448.174 190.052 448.174C191.6 448.174 192.741 447.808 193.474 447.075C194.223 446.342 194.598 445.226 194.598 443.728V442.678C194.032 443.361 193.332 443.877 192.5 444.227C191.684 444.56 190.793 444.727 189.827 444.727C188.561 444.727 187.412 444.46 186.379 443.927C185.363 443.378 184.564 442.62 183.981 441.654C183.398 440.671 183.107 439.556 183.107 438.307C183.107 437.057 183.398 435.95 183.981 434.984C184.564 434.001 185.363 433.244 186.379 432.711C187.412 432.178 188.561 431.911 189.827 431.911C190.826 431.911 191.75 432.094 192.6 432.461C193.466 432.827 194.173 433.369 194.723 434.085V432.036H196.996ZM190.101 442.628C190.968 442.628 191.742 442.445 192.425 442.079C193.124 441.712 193.666 441.204 194.049 440.555C194.448 439.889 194.648 439.139 194.648 438.307C194.648 437.024 194.223 435.992 193.374 435.209C192.525 434.409 191.434 434.01 190.101 434.01C188.752 434.01 187.653 434.409 186.804 435.209C185.955 435.992 185.53 437.024 185.53 438.307C185.53 439.139 185.721 439.889 186.104 440.555C186.504 441.204 187.045 441.712 187.728 442.079C188.428 442.445 189.219 442.628 190.101 442.628ZM203.877 434.26C204.293 433.493 204.91 432.911 205.726 432.511C206.542 432.111 207.533 431.911 208.698 431.911V434.235C208.565 434.218 208.382 434.21 208.149 434.21C206.85 434.21 205.826 434.601 205.076 435.384C204.343 436.15 203.977 437.249 203.977 438.681V445.276H201.579V432.036H203.877V434.26ZM216.451 431.911C218.283 431.911 219.682 432.361 220.648 433.26C221.631 434.16 222.122 435.5 222.122 437.282V445.276H219.849V443.528C219.449 444.144 218.874 444.619 218.125 444.952C217.392 445.268 216.518 445.426 215.502 445.426C214.02 445.426 212.829 445.068 211.93 444.352C211.047 443.636 210.606 442.695 210.606 441.529C210.606 440.363 211.03 439.431 211.88 438.731C212.729 438.015 214.078 437.657 215.927 437.657H219.724V437.182C219.724 436.15 219.424 435.359 218.825 434.809C218.225 434.26 217.342 433.985 216.176 433.985C215.394 433.985 214.628 434.118 213.878 434.384C213.129 434.634 212.496 434.976 211.98 435.409L210.98 433.61C211.663 433.06 212.479 432.644 213.429 432.361C214.378 432.061 215.385 431.911 216.451 431.911ZM215.902 443.578C216.818 443.578 217.609 443.378 218.275 442.978C218.941 442.562 219.424 441.979 219.724 441.229V439.381H216.027C213.995 439.381 212.979 440.064 212.979 441.429C212.979 442.095 213.237 442.62 213.753 443.003C214.27 443.386 214.986 443.578 215.902 443.578ZM243.123 431.911C244.788 431.911 246.104 432.394 247.07 433.36C248.053 434.326 248.544 435.758 248.544 437.657V445.276H246.146V437.932C246.146 436.649 245.846 435.683 245.246 435.034C244.663 434.384 243.822 434.06 242.723 434.06C241.507 434.06 240.542 434.443 239.825 435.209C239.109 435.958 238.751 437.041 238.751 438.456V445.276H236.353V437.932C236.353 436.649 236.053 435.683 235.454 435.034C234.871 434.384 234.03 434.06 232.93 434.06C231.715 434.06 230.749 434.443 230.033 435.209C229.316 435.958 228.958 437.041 228.958 438.456V445.276H226.56V432.036H228.858V434.01C229.341 433.327 229.974 432.811 230.757 432.461C231.54 432.094 232.431 431.911 233.43 431.911C234.463 431.911 235.379 432.119 236.178 432.536C236.977 432.952 237.594 433.56 238.027 434.359C238.526 433.593 239.217 432.994 240.1 432.561C240.999 432.128 242.007 431.911 243.123 431.911ZM262.738 450.123C261.789 448.591 261.056 446.834 260.54 444.852C260.024 442.853 259.765 440.713 259.765 438.431C259.765 436.15 260.024 434.01 260.54 432.011C261.056 429.996 261.789 428.239 262.738 426.74H265.012C264.012 428.489 263.28 430.321 262.813 432.236C262.347 434.151 262.114 436.216 262.114 438.431C262.114 440.646 262.347 442.712 262.813 444.627C263.28 446.542 264.012 448.374 265.012 450.123H262.738ZM279.249 438.057H274.902V442.304H271.679V438.057H267.358V435.009H271.679V430.762H274.902V435.009H279.249V438.057ZM293.317 445.276L289.095 439.206L284.948 445.276H280.302L286.772 436.383L280.627 427.789H285.223L289.245 433.46L293.192 427.789H297.564L291.469 436.233L297.989 445.276H293.317ZM312.713 445.426C311.398 445.426 310.215 445.135 309.166 444.552C308.117 443.969 307.292 443.17 306.693 442.154C306.11 441.121 305.818 439.955 305.818 438.656C305.818 437.357 306.11 436.2 306.693 435.184C307.292 434.151 308.117 433.352 309.166 432.786C310.215 432.203 311.398 431.911 312.713 431.911C314.029 431.911 315.203 432.203 316.236 432.786C317.285 433.352 318.101 434.151 318.684 435.184C319.283 436.2 319.583 437.357 319.583 438.656C319.583 439.955 319.283 441.121 318.684 442.154C318.101 443.17 317.285 443.969 316.236 444.552C315.203 445.135 314.029 445.426 312.713 445.426ZM312.713 443.328C313.563 443.328 314.32 443.136 314.987 442.753C315.669 442.354 316.202 441.804 316.585 441.104C316.968 440.388 317.16 439.572 317.16 438.656C317.16 437.74 316.968 436.933 316.585 436.233C316.202 435.517 315.669 434.967 314.987 434.584C314.32 434.201 313.563 434.01 312.713 434.01C311.864 434.01 311.098 434.201 310.415 434.584C309.749 434.967 309.216 435.517 308.816 436.233C308.433 436.933 308.242 437.74 308.242 438.656C308.242 439.572 308.433 440.388 308.816 441.104C309.216 441.804 309.749 442.354 310.415 442.753C311.098 443.136 311.864 443.328 312.713 443.328ZM330.344 444.502C329.995 444.802 329.562 445.035 329.045 445.201C328.529 445.351 327.996 445.426 327.447 445.426C326.114 445.426 325.082 445.068 324.349 444.352C323.616 443.636 323.25 442.612 323.25 441.279V434.01H321.001V432.036H323.25V429.138H325.648V432.036H329.445V434.01H325.648V441.179C325.648 441.896 325.823 442.445 326.172 442.828C326.539 443.211 327.055 443.403 327.721 443.403C328.454 443.403 329.079 443.195 329.595 442.778L330.344 444.502ZM340.314 431.911C341.996 431.911 343.328 432.403 344.311 433.385C345.31 434.351 345.809 435.775 345.809 437.657V445.276H343.411V437.932C343.411 436.649 343.103 435.683 342.487 435.034C341.871 434.384 340.988 434.06 339.839 434.06C338.54 434.06 337.516 434.443 336.766 435.209C336.017 435.958 335.642 437.041 335.642 438.456V445.276H333.244V426.74H335.642V433.91C336.142 433.277 336.791 432.786 337.591 432.436C338.407 432.086 339.314 431.911 340.314 431.911ZM362.287 438.731C362.287 438.914 362.27 439.156 362.237 439.456H351.495C351.645 440.621 352.153 441.562 353.019 442.279C353.902 442.978 354.993 443.328 356.292 443.328C357.874 443.328 359.148 442.795 360.114 441.729L361.438 443.278C360.838 443.977 360.089 444.51 359.189 444.877C358.307 445.243 357.316 445.426 356.217 445.426C354.818 445.426 353.577 445.143 352.494 444.577C351.412 443.994 350.571 443.186 349.971 442.154C349.388 441.121 349.097 439.955 349.097 438.656C349.097 437.374 349.38 436.216 349.946 435.184C350.529 434.151 351.32 433.352 352.319 432.786C353.335 432.203 354.476 431.911 355.742 431.911C357.008 431.911 358.132 432.203 359.114 432.786C360.114 433.352 360.888 434.151 361.438 435.184C362.004 436.216 362.287 437.399 362.287 438.731ZM355.742 433.935C354.593 433.935 353.627 434.285 352.844 434.984C352.078 435.683 351.628 436.599 351.495 437.732H359.989C359.856 436.616 359.398 435.708 358.615 435.009C357.849 434.293 356.891 433.935 355.742 433.935ZM367.916 434.26C368.332 433.493 368.948 432.911 369.764 432.511C370.58 432.111 371.571 431.911 372.737 431.911V434.235C372.604 434.218 372.421 434.21 372.187 434.21C370.888 434.21 369.864 434.601 369.115 435.384C368.382 436.15 368.015 437.249 368.015 438.681V445.276H365.617V432.036H367.916V434.26ZM389.592 431.911C390.875 431.911 392.024 432.194 393.04 432.761C394.056 433.327 394.847 434.118 395.413 435.134C395.996 436.15 396.287 437.324 396.287 438.656C396.287 439.989 395.996 441.171 395.413 442.204C394.847 443.22 394.056 444.011 393.04 444.577C392.024 445.143 390.875 445.426 389.592 445.426C388.643 445.426 387.769 445.243 386.969 444.877C386.186 444.51 385.52 443.977 384.971 443.278V450.123H382.572V432.036H384.871V434.135C385.404 433.402 386.078 432.852 386.894 432.486C387.71 432.103 388.61 431.911 389.592 431.911ZM389.392 443.328C390.242 443.328 391 443.136 391.666 442.753C392.349 442.354 392.881 441.804 393.265 441.104C393.664 440.388 393.864 439.572 393.864 438.656C393.864 437.74 393.664 436.933 393.265 436.233C392.881 435.517 392.349 434.967 391.666 434.584C391 434.201 390.242 434.01 389.392 434.01C388.56 434.01 387.802 434.21 387.119 434.609C386.453 434.992 385.92 435.534 385.52 436.233C385.137 436.933 384.946 437.74 384.946 438.656C384.946 439.572 385.137 440.388 385.52 441.104C385.903 441.804 386.436 442.354 387.119 442.753C387.802 443.136 388.56 443.328 389.392 443.328ZM399.601 426.74H401.999V445.276H399.601V426.74ZM411.4 431.911C413.231 431.911 414.63 432.361 415.596 433.26C416.579 434.16 417.07 435.5 417.07 437.282V445.276H414.797V443.528C414.397 444.144 413.823 444.619 413.073 444.952C412.34 445.268 411.466 445.426 410.45 445.426C408.968 445.426 407.777 445.068 406.878 444.352C405.995 443.636 405.554 442.695 405.554 441.529C405.554 440.363 405.979 439.431 406.828 438.731C407.677 438.015 409.026 437.657 410.875 437.657H414.672V437.182C414.672 436.15 414.372 435.359 413.773 434.809C413.173 434.26 412.291 433.985 411.125 433.985C410.342 433.985 409.576 434.118 408.826 434.384C408.077 434.634 407.444 434.976 406.928 435.409L405.929 433.61C406.611 433.06 407.427 432.644 408.377 432.361C409.326 432.061 410.334 431.911 411.4 431.911ZM410.85 443.578C411.766 443.578 412.557 443.378 413.223 442.978C413.889 442.562 414.372 441.979 414.672 441.229V439.381H410.975C408.943 439.381 407.927 440.064 407.927 441.429C407.927 442.095 408.185 442.62 408.702 443.003C409.218 443.386 409.934 443.578 410.85 443.578ZM428.953 444.502C428.603 444.802 428.17 445.035 427.654 445.201C427.138 445.351 426.605 445.426 426.055 445.426C424.723 445.426 423.69 445.068 422.957 444.352C422.225 443.636 421.858 442.612 421.858 441.279V434.01H419.61V432.036H421.858V429.138H424.256V432.036H428.054V434.01H424.256V441.179C424.256 441.896 424.431 442.445 424.781 442.828C425.147 443.211 425.664 443.403 426.33 443.403C427.063 443.403 427.687 443.195 428.203 442.778L428.953 444.502ZM436.699 428.564C435.266 428.564 434.55 429.338 434.55 430.887V432.036H438.397V434.01H434.6V445.276H432.202V434.01H429.954V432.036H432.202V430.862C432.202 429.546 432.585 428.505 433.351 427.739C434.117 426.973 435.192 426.59 436.574 426.59C437.107 426.59 437.606 426.657 438.073 426.79C438.539 426.923 438.939 427.115 439.272 427.365L438.547 429.188C437.998 428.772 437.382 428.564 436.699 428.564ZM446.135 445.426C444.819 445.426 443.637 445.135 442.588 444.552C441.538 443.969 440.714 443.17 440.114 442.154C439.531 441.121 439.24 439.955 439.24 438.656C439.24 437.357 439.531 436.2 440.114 435.184C440.714 434.151 441.538 433.352 442.588 432.786C443.637 432.203 444.819 431.911 446.135 431.911C447.451 431.911 448.625 432.203 449.657 432.786C450.706 433.352 451.523 434.151 452.105 435.184C452.705 436.2 453.005 437.357 453.005 438.656C453.005 439.955 452.705 441.121 452.105 442.154C451.523 443.17 450.706 443.969 449.657 444.552C448.625 445.135 447.451 445.426 446.135 445.426ZM446.135 443.328C446.984 443.328 447.742 443.136 448.408 442.753C449.091 442.354 449.624 441.804 450.007 441.104C450.39 440.388 450.582 439.572 450.582 438.656C450.582 437.74 450.39 436.933 450.007 436.233C449.624 435.517 449.091 434.967 448.408 434.584C447.742 434.201 446.984 434.01 446.135 434.01C445.286 434.01 444.519 434.201 443.837 434.584C443.17 434.967 442.637 435.517 442.238 436.233C441.855 436.933 441.663 437.74 441.663 438.656C441.663 439.572 441.855 440.388 442.238 441.104C442.637 441.804 443.17 442.354 443.837 442.753C444.519 443.136 445.286 443.328 446.135 443.328ZM458.62 434.26C459.036 433.493 459.652 432.911 460.468 432.511C461.284 432.111 462.275 431.911 463.441 431.911V434.235C463.308 434.218 463.125 434.21 462.892 434.21C461.593 434.21 460.568 434.601 459.819 435.384C459.086 436.15 458.72 437.249 458.72 438.681V445.276H456.321V432.036H458.62V434.26ZM482.96 431.911C484.625 431.911 485.941 432.394 486.907 433.36C487.889 434.326 488.381 435.758 488.381 437.657V445.276H485.982V437.932C485.982 436.649 485.683 435.683 485.083 435.034C484.5 434.384 483.659 434.06 482.56 434.06C481.344 434.06 480.378 434.443 479.662 435.209C478.946 435.958 478.588 437.041 478.588 438.456V445.276H476.19V437.932C476.19 436.649 475.89 435.683 475.29 435.034C474.708 434.384 473.866 434.06 472.767 434.06C471.552 434.06 470.586 434.443 469.869 435.209C469.153 435.958 468.795 437.041 468.795 438.456V445.276H466.397V432.036H468.695V434.01C469.178 433.327 469.811 432.811 470.594 432.461C471.377 432.094 472.268 431.911 473.267 431.911C474.299 431.911 475.215 432.119 476.015 432.536C476.814 432.952 477.43 433.56 477.863 434.359C478.363 433.593 479.054 432.994 479.937 432.561C480.836 432.128 481.844 431.911 482.96 431.911ZM496.591 445.426C495.508 445.426 494.467 445.285 493.468 445.002C492.469 444.702 491.686 444.327 491.12 443.877L492.119 441.979C492.702 442.395 493.41 442.728 494.242 442.978C495.075 443.228 495.916 443.353 496.766 443.353C498.864 443.353 499.913 442.753 499.913 441.554C499.913 441.154 499.772 440.838 499.488 440.605C499.205 440.372 498.847 440.205 498.414 440.105C497.998 439.989 497.398 439.864 496.616 439.73C495.55 439.564 494.675 439.372 493.993 439.156C493.326 438.939 492.752 438.573 492.269 438.057C491.786 437.54 491.544 436.816 491.544 435.883C491.544 434.684 492.044 433.727 493.043 433.01C494.043 432.278 495.383 431.911 497.065 431.911C497.948 431.911 498.831 432.02 499.713 432.236C500.596 432.453 501.32 432.744 501.887 433.11L500.862 435.009C499.78 434.309 498.506 433.96 497.04 433.96C496.024 433.96 495.25 434.126 494.717 434.459C494.184 434.792 493.918 435.234 493.918 435.783C493.918 436.216 494.068 436.558 494.367 436.808C494.667 437.057 495.033 437.241 495.466 437.357C495.916 437.474 496.541 437.607 497.34 437.757C498.406 437.94 499.264 438.14 499.913 438.356C500.579 438.556 501.146 438.906 501.612 439.406C502.078 439.905 502.311 440.605 502.311 441.504C502.311 442.703 501.795 443.661 500.763 444.377C499.747 445.077 498.356 445.426 496.591 445.426ZM503.835 450.123C504.834 448.374 505.567 446.542 506.033 444.627C506.516 442.712 506.758 440.646 506.758 438.431C506.758 436.216 506.516 434.151 506.033 432.236C505.567 430.321 504.834 428.489 503.835 426.74H506.108C507.074 428.239 507.815 429.988 508.331 431.986C508.848 433.985 509.106 436.133 509.106 438.431C509.106 440.713 508.848 442.853 508.331 444.852C507.815 446.85 507.074 448.607 506.108 450.123H503.835Z" fill="#1A1A1A"/>
<path d="M75.4937 88.256C73.2537 88.256 71.227 87.7653 69.4137 86.784C67.6217 85.7813 66.2137 84.416 65.1897 82.688C64.1657 80.9387 63.6537 78.976 63.6537 76.8C63.6537 74.624 64.1657 72.672 65.1897 70.944C66.2137 69.1947 67.6323 67.8293 69.4457 66.848C71.259 65.8453 73.2857 65.344 75.5257 65.344C77.275 65.344 78.875 65.6427 80.3257 66.24C81.7763 66.816 83.0137 67.68 84.0377 68.832L81.9577 70.848C80.2723 69.0773 78.171 68.192 75.6537 68.192C73.9897 68.192 72.4857 68.5653 71.1417 69.312C69.7977 70.0587 68.7417 71.0933 67.9737 72.416C67.227 73.7173 66.8537 75.1787 66.8537 76.8C66.8537 78.4213 67.227 79.8933 67.9737 81.216C68.7417 82.5173 69.7977 83.5413 71.1417 84.288C72.4857 85.0347 73.9897 85.408 75.6537 85.408C78.1497 85.408 80.251 84.512 81.9577 82.72L84.0377 84.736C83.0137 85.888 81.7657 86.7627 80.2937 87.36C78.843 87.9573 77.243 88.256 75.4937 88.256ZM103.431 71.04V88H100.519V85.44C99.9008 86.3147 99.0794 86.9973 98.0554 87.488C97.0528 87.9573 95.9541 88.192 94.7594 88.192C92.4981 88.192 90.7168 87.5733 89.4154 86.336C88.1141 85.0773 87.4634 83.232 87.4634 80.8V71.04H90.5354V80.448C90.5354 82.0907 90.9301 83.3387 91.7194 84.192C92.5088 85.024 93.6394 85.44 95.1114 85.44C96.7328 85.44 98.0128 84.9493 98.9514 83.968C99.8901 82.9867 100.359 81.6 100.359 79.808V71.04H103.431ZM114.144 88.192C112.757 88.192 111.424 88.0107 110.144 87.648C108.864 87.264 107.861 86.784 107.136 86.208L108.416 83.776C109.162 84.3093 110.069 84.736 111.136 85.056C112.202 85.376 113.28 85.536 114.368 85.536C117.056 85.536 118.4 84.768 118.4 83.232C118.4 82.72 118.218 82.3147 117.856 82.016C117.493 81.7173 117.034 81.504 116.48 81.376C115.946 81.2267 115.178 81.0667 114.176 80.896C112.81 80.6827 111.69 80.4373 110.816 80.16C109.962 79.8827 109.226 79.4133 108.608 78.752C107.989 78.0907 107.68 77.1627 107.68 75.968C107.68 74.432 108.32 73.2053 109.6 72.288C110.88 71.3493 112.597 70.88 114.752 70.88C115.882 70.88 117.013 71.0187 118.144 71.296C119.274 71.5733 120.202 71.9467 120.928 72.416L119.616 74.848C118.229 73.952 116.597 73.504 114.72 73.504C113.418 73.504 112.426 73.7173 111.744 74.144C111.061 74.5707 110.72 75.136 110.72 75.84C110.72 76.3947 110.912 76.832 111.296 77.152C111.68 77.472 112.149 77.7067 112.704 77.856C113.28 78.0053 114.08 78.176 115.104 78.368C116.469 78.6027 117.568 78.8587 118.4 79.136C119.253 79.392 119.978 79.84 120.576 80.48C121.173 81.12 121.472 82.016 121.472 83.168C121.472 84.704 120.81 85.9307 119.488 86.848C118.186 87.744 116.405 88.192 114.144 88.192ZM134.847 87.008C134.399 87.392 133.844 87.6907 133.183 87.904C132.522 88.096 131.839 88.192 131.135 88.192C129.428 88.192 128.106 87.7333 127.167 86.816C126.228 85.8987 125.759 84.5867 125.759 82.88V73.568H122.879V71.04H125.759V67.328H128.831V71.04H133.695V73.568H128.831V82.752C128.831 83.6693 129.055 84.3733 129.503 84.864C129.972 85.3547 130.634 85.6 131.487 85.6C132.426 85.6 133.226 85.3333 133.887 84.8L134.847 87.008ZM145.262 88.192C143.577 88.192 142.062 87.8187 140.718 87.072C139.374 86.3253 138.318 85.3013 137.55 84C136.804 82.6773 136.43 81.184 136.43 79.52C136.43 77.856 136.804 76.3733 137.55 75.072C138.318 73.7493 139.374 72.7253 140.718 72C142.062 71.2533 143.577 70.88 145.262 70.88C146.948 70.88 148.452 71.2533 149.774 72C151.118 72.7253 152.164 73.7493 152.91 75.072C153.678 76.3733 154.062 77.856 154.062 79.52C154.062 81.184 153.678 82.6773 152.91 84C152.164 85.3013 151.118 86.3253 149.774 87.072C148.452 87.8187 146.948 88.192 145.262 88.192ZM145.262 85.504C146.35 85.504 147.321 85.2587 148.174 84.768C149.049 84.256 149.732 83.552 150.222 82.656C150.713 81.7387 150.958 80.6933 150.958 79.52C150.958 78.3467 150.713 77.312 150.222 76.416C149.732 75.4987 149.049 74.7947 148.174 74.304C147.321 73.8133 146.35 73.568 145.262 73.568C144.174 73.568 143.193 73.8133 142.318 74.304C141.465 74.7947 140.782 75.4987 140.27 76.416C139.78 77.312 139.534 78.3467 139.534 79.52C139.534 80.6933 139.78 81.7387 140.27 82.656C140.782 83.552 141.465 84.256 142.318 84.768C143.193 85.2587 144.174 85.504 145.262 85.504ZM179.527 70.88C181.66 70.88 183.346 71.4987 184.583 72.736C185.842 73.9733 186.471 75.808 186.471 78.24V88H183.399V78.592C183.399 76.9493 183.015 75.712 182.247 74.88C181.5 74.048 180.423 73.632 179.015 73.632C177.458 73.632 176.22 74.1227 175.303 75.104C174.386 76.064 173.927 77.4507 173.927 79.264V88H170.855V78.592C170.855 76.9493 170.471 75.712 169.703 74.88C168.956 74.048 167.879 73.632 166.471 73.632C164.914 73.632 163.676 74.1227 162.759 75.104C161.842 76.064 161.383 77.4507 161.383 79.264V88H158.311V71.04H161.255V73.568C161.874 72.6933 162.684 72.032 163.687 71.584C164.69 71.1147 165.831 70.88 167.111 70.88C168.434 70.88 169.607 71.1467 170.631 71.68C171.655 72.2133 172.444 72.992 172.999 74.016C173.639 73.0347 174.524 72.2667 175.655 71.712C176.807 71.1573 178.098 70.88 179.527 70.88Z" fill="#1A1A1A"/>
<path d="M106.038 183.24C106.038 187.176 104.598 190.56 101.718 193.392C98.8377 196.176 94.6857 197.904 89.2617 198.576V206.64H82.0617V198.792C78.5097 198.6 75.1257 197.976 71.9097 196.92C68.6937 195.864 66.1017 194.568 64.1337 193.032L68.0937 184.248C69.9177 185.592 72.0537 186.72 74.5017 187.632C76.9497 188.544 79.4697 189.12 82.0617 189.36V177.336C78.6537 176.52 75.7737 175.608 73.4217 174.6C71.0697 173.592 69.1017 172.128 67.5177 170.208C65.9337 168.24 65.1417 165.648 65.1417 162.432C65.1417 158.448 66.5817 155.04 69.4617 152.208C72.3897 149.328 76.5897 147.576 82.0617 146.952V138.96H89.2617V146.808C95.1657 147.288 100.038 148.752 103.878 151.2L100.278 160.056C96.6777 157.992 93.0057 156.744 89.2617 156.312V168.552C92.6217 169.32 95.4537 170.208 97.7577 171.216C100.11 172.176 102.078 173.64 103.662 175.608C105.246 177.528 106.038 180.072 106.038 183.24ZM76.7337 161.856C76.7337 163.056 77.1897 164.04 78.1017 164.808C79.0137 165.576 80.3337 166.224 82.0617 166.752V156.528C80.2377 156.96 78.8937 157.656 78.0297 158.616C77.1657 159.528 76.7337 160.608 76.7337 161.856ZM89.2617 189.072C90.9897 188.688 92.2857 188.064 93.1497 187.2C94.0137 186.336 94.4457 185.304 94.4457 184.104C94.4457 182.904 93.9897 181.92 93.0777 181.152C92.2137 180.384 90.9417 179.712 89.2617 179.136V189.072ZM157.695 187.416H149.487V198H138.111V187.416H110.967V179.568L134.727 147.6H146.967L124.935 177.912H138.471V168.48H149.487V177.912H157.695V187.416ZM178.614 146.736C185.67 146.736 191.19 148.896 195.174 153.216C199.158 157.488 201.15 163.656 201.15 171.72C201.15 177.432 200.07 182.328 197.91 186.408C195.798 190.488 192.798 193.584 188.91 195.696C185.022 197.808 180.534 198.864 175.446 198.864C172.758 198.864 170.19 198.576 167.742 198C165.294 197.376 163.206 196.512 161.478 195.408L165.798 186.84C168.246 188.52 171.39 189.36 175.23 189.36C179.502 189.36 182.886 188.112 185.382 185.616C187.878 183.072 189.222 179.424 189.414 174.672C186.39 177.696 182.214 179.208 176.886 179.208C173.67 179.208 170.742 178.56 168.102 177.264C165.462 175.968 163.374 174.144 161.838 171.792C160.302 169.392 159.534 166.632 159.534 163.512C159.534 160.152 160.374 157.2 162.054 154.656C163.734 152.112 166.014 150.168 168.894 148.824C171.822 147.432 175.062 146.736 178.614 146.736ZM179.478 170.496C182.022 170.496 184.086 169.8 185.67 168.408C187.302 166.968 188.118 165.144 188.118 162.936C188.118 160.728 187.326 158.928 185.742 157.536C184.206 156.144 182.07 155.448 179.334 155.448C176.838 155.448 174.798 156.12 173.214 157.464C171.678 158.808 170.91 160.632 170.91 162.936C170.91 165.24 171.678 167.088 173.214 168.48C174.798 169.824 176.886 170.496 179.478 170.496ZM224.458 146.736C231.514 146.736 237.034 148.896 241.018 153.216C245.002 157.488 246.994 163.656 246.994 171.72C246.994 177.432 245.914 182.328 243.754 186.408C241.642 190.488 238.642 193.584 234.754 195.696C230.866 197.808 226.378 198.864 221.29 198.864C218.602 198.864 216.034 198.576 213.586 198C211.138 197.376 209.05 196.512 207.322 195.408L211.642 186.84C214.09 188.52 217.234 189.36 221.074 189.36C225.346 189.36 228.73 188.112 231.226 185.616C233.722 183.072 235.066 179.424 235.258 174.672C232.234 177.696 228.058 179.208 222.73 179.208C219.514 179.208 216.586 178.56 213.946 177.264C211.306 175.968 209.218 174.144 207.682 171.792C206.146 169.392 205.378 166.632 205.378 163.512C205.378 160.152 206.218 157.2 207.898 154.656C209.578 152.112 211.858 150.168 214.738 148.824C217.666 147.432 220.906 146.736 224.458 146.736ZM225.322 170.496C227.866 170.496 229.93 169.8 231.514 168.408C233.146 166.968 233.962 165.144 233.962 162.936C233.962 160.728 233.17 158.928 231.586 157.536C230.05 156.144 227.914 155.448 225.178 155.448C222.682 155.448 220.642 156.12 219.058 157.464C217.522 158.808 216.754 160.632 216.754 162.936C216.754 165.24 217.522 167.088 219.058 168.48C220.642 169.824 222.73 170.496 225.322 170.496ZM255.722 181.16H258.502L251.902 200H249.122L255.722 181.16ZM272.014 198L271.994 189.6L267.874 196.52H266.414L262.314 189.78V198H259.274V184H261.954L267.194 192.7L272.354 184H275.014L275.054 198H272.014ZM283.275 198.16C282.142 198.16 281.122 197.927 280.215 197.46C279.322 196.98 278.622 196.32 278.115 195.48C277.609 194.64 277.355 193.687 277.355 192.62C277.355 191.553 277.609 190.6 278.115 189.76C278.622 188.92 279.322 188.267 280.215 187.8C281.122 187.32 282.142 187.08 283.275 187.08C284.409 187.08 285.422 187.32 286.315 187.8C287.209 188.267 287.909 188.92 288.415 189.76C288.922 190.6 289.175 191.553 289.175 192.62C289.175 193.687 288.922 194.64 288.415 195.48C287.909 196.32 287.209 196.98 286.315 197.46C285.422 197.927 284.409 198.16 283.275 198.16ZM283.275 195.6C284.075 195.6 284.729 195.333 285.235 194.8C285.755 194.253 286.015 193.527 286.015 192.62C286.015 191.713 285.755 190.993 285.235 190.46C284.729 189.913 284.075 189.64 283.275 189.64C282.475 189.64 281.815 189.913 281.295 190.46C280.775 190.993 280.515 191.713 280.515 192.62C280.515 193.527 280.775 194.253 281.295 194.8C281.815 195.333 282.475 195.6 283.275 195.6ZM297.801 187.08C299.134 187.08 300.207 187.48 301.021 188.28C301.847 189.08 302.261 190.267 302.261 191.84V198H299.141V192.32C299.141 191.467 298.954 190.833 298.581 190.42C298.207 189.993 297.667 189.78 296.961 189.78C296.174 189.78 295.547 190.027 295.081 190.52C294.614 191 294.381 191.72 294.381 192.68V198H291.261V187.24H294.241V188.5C294.654 188.047 295.167 187.7 295.781 187.46C296.394 187.207 297.067 187.08 297.801 187.08ZM312.029 197.48C311.722 197.707 311.342 197.88 310.889 198C310.449 198.107 309.982 198.16 309.489 198.16C308.209 198.16 307.216 197.833 306.509 197.18C305.816 196.527 305.469 195.567 305.469 194.3V189.88H303.809V187.48H305.469V184.86H308.589V187.48H311.269V189.88H308.589V194.26C308.589 194.713 308.702 195.067 308.929 195.32C309.169 195.56 309.502 195.68 309.929 195.68C310.422 195.68 310.842 195.547 311.189 195.28L312.029 197.48ZM320.32 187.08C321.654 187.08 322.727 187.48 323.54 188.28C324.367 189.08 324.78 190.267 324.78 191.84V198H321.66V192.32C321.66 191.467 321.474 190.833 321.1 190.42C320.727 189.993 320.187 189.78 319.48 189.78C318.694 189.78 318.067 190.027 317.6 190.52C317.134 191 316.9 191.72 316.9 192.68V198H313.78V183.16H316.9V188.36C317.314 187.947 317.814 187.633 318.4 187.42C318.987 187.193 319.627 187.08 320.32 187.08Z" fill="#1A1A1A"/>
<rect x="62" y="616" width="749" height="83" rx="16" fill="#130F26"/>
<path d="M382.392 665.264C380.823 665.264 379.4 664.927 378.124 664.252C376.863 663.563 375.866 662.617 375.132 661.414C374.414 660.197 374.054 658.825 374.054 657.3C374.054 655.775 374.414 654.411 375.132 653.208C375.866 651.991 376.863 651.045 378.124 650.37C379.4 649.681 380.83 649.336 382.414 649.336C383.749 649.336 384.952 649.571 386.022 650.04C387.108 650.509 388.017 651.184 388.75 652.064L386.462 654.176C385.421 652.973 384.13 652.372 382.59 652.372C381.637 652.372 380.786 652.585 380.038 653.01C379.29 653.421 378.704 654 378.278 654.748C377.868 655.496 377.662 656.347 377.662 657.3C377.662 658.253 377.868 659.104 378.278 659.852C378.704 660.6 379.29 661.187 380.038 661.612C380.786 662.023 381.637 662.228 382.59 662.228C384.13 662.228 385.421 661.619 386.462 660.402L388.75 662.514C388.017 663.409 387.108 664.091 386.022 664.56C384.937 665.029 383.727 665.264 382.392 665.264ZM396.139 665.176C394.892 665.176 393.77 664.919 392.773 664.406C391.79 663.878 391.02 663.152 390.463 662.228C389.906 661.304 389.627 660.255 389.627 659.082C389.627 657.909 389.906 656.86 390.463 655.936C391.02 655.012 391.79 654.293 392.773 653.78C393.77 653.252 394.892 652.988 396.139 652.988C397.386 652.988 398.5 653.252 399.483 653.78C400.466 654.293 401.236 655.012 401.793 655.936C402.35 656.86 402.629 657.909 402.629 659.082C402.629 660.255 402.35 661.304 401.793 662.228C401.236 663.152 400.466 663.878 399.483 664.406C398.5 664.919 397.386 665.176 396.139 665.176ZM396.139 662.36C397.019 662.36 397.738 662.067 398.295 661.48C398.867 660.879 399.153 660.079 399.153 659.082C399.153 658.085 398.867 657.293 398.295 656.706C397.738 656.105 397.019 655.804 396.139 655.804C395.259 655.804 394.533 656.105 393.961 656.706C393.389 657.293 393.103 658.085 393.103 659.082C393.103 660.079 393.389 660.879 393.961 661.48C394.533 662.067 395.259 662.36 396.139 662.36ZM412.117 652.988C413.584 652.988 414.764 653.428 415.659 654.308C416.568 655.188 417.023 656.493 417.023 658.224V665H413.591V658.752C413.591 657.813 413.386 657.117 412.975 656.662C412.564 656.193 411.97 655.958 411.193 655.958C410.328 655.958 409.638 656.229 409.125 656.772C408.612 657.3 408.355 658.092 408.355 659.148V665H404.923V653.164H408.201V654.55C408.656 654.051 409.22 653.67 409.895 653.406C410.57 653.127 411.31 652.988 412.117 652.988ZM427.768 664.428C427.43 664.677 427.012 664.868 426.514 665C426.03 665.117 425.516 665.176 424.974 665.176C423.566 665.176 422.473 664.817 421.696 664.098C420.933 663.379 420.552 662.323 420.552 660.93V656.068H418.726V653.428H420.552V650.546H423.984V653.428H426.932V656.068H423.984V660.886C423.984 661.385 424.108 661.773 424.358 662.052C424.622 662.316 424.988 662.448 425.458 662.448C426 662.448 426.462 662.301 426.844 662.008L427.768 664.428ZM434.468 652.988C436.302 652.988 437.71 653.428 438.692 654.308C439.675 655.173 440.166 656.486 440.166 658.246V665H436.954V663.526C436.309 664.626 435.106 665.176 433.346 665.176C432.437 665.176 431.645 665.022 430.97 664.714C430.31 664.406 429.804 663.981 429.452 663.438C429.1 662.895 428.924 662.279 428.924 661.59C428.924 660.49 429.335 659.625 430.156 658.994C430.992 658.363 432.276 658.048 434.006 658.048H436.734C436.734 657.3 436.507 656.728 436.052 656.332C435.598 655.921 434.916 655.716 434.006 655.716C433.376 655.716 432.752 655.819 432.136 656.024C431.535 656.215 431.022 656.479 430.596 656.816L429.364 654.418C430.01 653.963 430.78 653.611 431.674 653.362C432.584 653.113 433.515 652.988 434.468 652.988ZM434.204 662.866C434.791 662.866 435.312 662.734 435.766 662.47C436.221 662.191 436.544 661.788 436.734 661.26V660.05H434.38C432.972 660.05 432.268 660.512 432.268 661.436C432.268 661.876 432.437 662.228 432.774 662.492C433.126 662.741 433.603 662.866 434.204 662.866ZM449.121 665.176C447.86 665.176 446.723 664.919 445.711 664.406C444.714 663.878 443.929 663.152 443.357 662.228C442.8 661.304 442.521 660.255 442.521 659.082C442.521 657.909 442.8 656.86 443.357 655.936C443.929 655.012 444.714 654.293 445.711 653.78C446.723 653.252 447.86 652.988 449.121 652.988C450.368 652.988 451.453 653.252 452.377 653.78C453.316 654.293 453.998 655.034 454.423 656.002L451.761 657.432C451.145 656.347 450.258 655.804 449.099 655.804C448.205 655.804 447.464 656.097 446.877 656.684C446.291 657.271 445.997 658.07 445.997 659.082C445.997 660.094 446.291 660.893 446.877 661.48C447.464 662.067 448.205 662.36 449.099 662.36C450.273 662.36 451.16 661.817 451.761 660.732L454.423 662.184C453.998 663.123 453.316 663.856 452.377 664.384C451.453 664.912 450.368 665.176 449.121 665.176ZM464.205 664.428C463.868 664.677 463.45 664.868 462.951 665C462.467 665.117 461.954 665.176 461.411 665.176C460.003 665.176 458.911 664.817 458.133 664.098C457.371 663.379 456.989 662.323 456.989 660.93V656.068H455.163V653.428H456.989V650.546H460.421V653.428H463.369V656.068H460.421V660.886C460.421 661.385 460.546 661.773 460.795 662.052C461.059 662.316 461.426 662.448 461.895 662.448C462.438 662.448 462.9 662.301 463.281 662.008L464.205 664.428ZM479.446 665.264C477.246 665.264 475.53 664.655 474.298 663.438C473.081 662.221 472.472 660.483 472.472 658.224V649.6H476.036V658.092C476.036 660.849 477.18 662.228 479.468 662.228C480.583 662.228 481.434 661.898 482.02 661.238C482.607 660.563 482.9 659.515 482.9 658.092V649.6H486.42V658.224C486.42 660.483 485.804 662.221 484.572 663.438C483.355 664.655 481.646 665.264 479.446 665.264ZM493.682 665.176C492.7 665.176 491.739 665.059 490.8 664.824C489.862 664.575 489.114 664.267 488.556 663.9L489.7 661.436C490.228 661.773 490.866 662.052 491.614 662.272C492.362 662.477 493.096 662.58 493.814 662.58C495.266 662.58 495.992 662.221 495.992 661.502C495.992 661.165 495.794 660.923 495.398 660.776C495.002 660.629 494.394 660.505 493.572 660.402C492.604 660.255 491.805 660.087 491.174 659.896C490.544 659.705 489.994 659.368 489.524 658.884C489.07 658.4 488.842 657.711 488.842 656.816C488.842 656.068 489.055 655.408 489.48 654.836C489.92 654.249 490.551 653.795 491.372 653.472C492.208 653.149 493.191 652.988 494.32 652.988C495.156 652.988 495.985 653.083 496.806 653.274C497.642 653.45 498.332 653.699 498.874 654.022L497.73 656.464C496.689 655.877 495.552 655.584 494.32 655.584C493.587 655.584 493.037 655.687 492.67 655.892C492.304 656.097 492.12 656.361 492.12 656.684C492.12 657.051 492.318 657.307 492.714 657.454C493.11 657.601 493.741 657.74 494.606 657.872C495.574 658.033 496.366 658.209 496.982 658.4C497.598 658.576 498.134 658.906 498.588 659.39C499.043 659.874 499.27 660.549 499.27 661.414C499.27 662.147 499.05 662.8 498.61 663.372C498.17 663.944 497.525 664.391 496.674 664.714C495.838 665.022 494.841 665.176 493.682 665.176Z" fill="white"/>
<defs>
<linearGradient id="paint0_linear_236_309" x1="15.0047" y1="12.7627" x2="628.397" y2="905.986" gradientUnits="userSpaceOnUse">
<stop stop-color="#FF8000"/>
<stop offset="0.2" stop-color="#FF4880"/>
<stop offset="0.369792" stop-color="#FF004F"/>
<stop offset="0.578125" stop-color="#7F30FF"/>
<stop offset="0.8" stop-color="#466FFF"/>
<stop offset="1" stop-color="#75D4FF"/>
</linearGradient>
</defs>
</svg>
