<svg width="873" height="753" viewBox="0 0 873 753" fill="none" xmlns="http://www.w3.org/2000/svg">
<rect x="1.5" y="1.5" width="870" height="750" rx="30.5" fill="white" stroke="url(#paint0_linear_236_334)" stroke-width="3" stroke-miterlimit="2.61313"/>
<path d="M65.3311 305.985C65.3311 315.162 72.7922 322.64 81.9854 322.64C91.1619 322.64 98.6397 315.162 98.6397 305.985C98.6397 296.792 91.1619 289.331 81.9854 289.331C72.7922 289.331 65.3311 296.792 65.3311 305.985V305.985Z" fill="#130F26"/>
<rect x="75.7834" y="304.414" width="8.64277" height="2.88092" rx="1.44046" transform="rotate(45 75.7834 304.414)" fill="white"/>
<rect x="91.062" y="301.358" width="15.8451" height="2.88092" rx="1.44046" transform="rotate(135 91.062 301.358)" fill="white"/>
<path d="M121.531 297.885H125.578V315.372H121.531V297.885ZM137.622 301.732C139.287 301.732 140.628 302.232 141.644 303.231C142.677 304.23 143.193 305.713 143.193 307.678V315.372H139.296V308.277C139.296 307.211 139.063 306.42 138.596 305.904C138.13 305.371 137.456 305.105 136.573 305.105C135.59 305.105 134.807 305.413 134.225 306.029C133.642 306.629 133.35 307.528 133.35 308.727V315.372H129.453V301.932H133.175V303.506C133.692 302.94 134.333 302.507 135.099 302.207C135.865 301.89 136.706 301.732 137.622 301.732ZM151.247 315.572C150.131 315.572 149.04 315.439 147.975 315.172C146.909 314.889 146.059 314.539 145.426 314.123L146.725 311.325C147.325 311.708 148.049 312.025 148.899 312.274C149.748 312.508 150.581 312.624 151.397 312.624C153.046 312.624 153.87 312.216 153.87 311.4C153.87 311.017 153.645 310.742 153.196 310.576C152.746 310.409 152.055 310.268 151.122 310.151C150.023 309.984 149.115 309.793 148.399 309.576C147.683 309.36 147.059 308.977 146.526 308.427C146.009 307.878 145.751 307.095 145.751 306.079C145.751 305.23 145.993 304.48 146.476 303.831C146.975 303.164 147.691 302.648 148.624 302.282C149.573 301.915 150.689 301.732 151.972 301.732C152.921 301.732 153.862 301.84 154.794 302.057C155.744 302.257 156.527 302.54 157.143 302.906L155.844 305.679C154.661 305.013 153.371 304.68 151.972 304.68C151.139 304.68 150.514 304.797 150.098 305.03C149.682 305.263 149.473 305.563 149.473 305.929C149.473 306.345 149.698 306.637 150.148 306.803C150.598 306.97 151.314 307.128 152.296 307.278C153.396 307.461 154.295 307.661 154.994 307.878C155.694 308.077 156.302 308.452 156.818 309.002C157.334 309.551 157.592 310.317 157.592 311.3C157.592 312.133 157.343 312.874 156.843 313.523C156.343 314.173 155.611 314.681 154.645 315.047C153.695 315.397 152.563 315.572 151.247 315.572ZM168.665 314.723C168.282 315.006 167.808 315.222 167.241 315.372C166.692 315.505 166.109 315.572 165.493 315.572C163.894 315.572 162.653 315.164 161.771 314.348C160.905 313.532 160.472 312.333 160.472 310.75V305.23H158.398V302.232H160.472V298.959H164.369V302.232H167.716V305.23H164.369V310.701C164.369 311.267 164.51 311.708 164.793 312.025C165.093 312.324 165.509 312.474 166.042 312.474C166.659 312.474 167.183 312.308 167.616 311.975L168.665 314.723ZM176.274 301.732C178.356 301.732 179.955 302.232 181.07 303.231C182.186 304.214 182.744 305.704 182.744 307.703V315.372H179.097V313.698C178.364 314.947 176.999 315.572 175 315.572C173.967 315.572 173.068 315.397 172.302 315.047C171.553 314.698 170.978 314.215 170.578 313.598C170.179 312.982 169.979 312.283 169.979 311.5C169.979 310.251 170.445 309.268 171.378 308.552C172.327 307.836 173.784 307.478 175.749 307.478H178.847C178.847 306.629 178.589 305.979 178.073 305.529C177.556 305.063 176.782 304.83 175.749 304.83C175.033 304.83 174.326 304.946 173.626 305.18C172.943 305.396 172.36 305.696 171.877 306.079L170.478 303.356C171.211 302.84 172.085 302.44 173.101 302.157C174.134 301.874 175.192 301.732 176.274 301.732ZM175.974 312.949C176.64 312.949 177.232 312.799 177.748 312.499C178.264 312.183 178.631 311.725 178.847 311.125V309.751H176.174C174.575 309.751 173.776 310.276 173.776 311.325C173.776 311.825 173.967 312.224 174.35 312.524C174.75 312.807 175.291 312.949 175.974 312.949ZM200.282 301.932V313.124C200.282 315.589 199.641 317.421 198.359 318.62C197.076 319.819 195.203 320.418 192.738 320.418C191.439 320.418 190.207 320.26 189.041 319.944C187.875 319.627 186.909 319.169 186.143 318.57L187.692 315.772C188.258 316.238 188.974 316.604 189.84 316.871C190.706 317.154 191.572 317.296 192.438 317.296C193.787 317.296 194.778 316.988 195.411 316.371C196.061 315.772 196.385 314.856 196.385 313.623V313.049C195.369 314.165 193.954 314.723 192.138 314.723C190.906 314.723 189.774 314.456 188.741 313.923C187.725 313.374 186.917 312.607 186.318 311.625C185.718 310.642 185.418 309.51 185.418 308.227C185.418 306.945 185.718 305.812 186.318 304.83C186.917 303.847 187.725 303.09 188.741 302.557C189.774 302.007 190.906 301.732 192.138 301.732C194.087 301.732 195.569 302.373 196.585 303.656V301.932H200.282ZM192.913 311.525C193.945 311.525 194.787 311.225 195.436 310.626C196.102 310.009 196.435 309.21 196.435 308.227C196.435 307.245 196.102 306.454 195.436 305.854C194.787 305.238 193.945 304.93 192.913 304.93C191.88 304.93 191.031 305.238 190.365 305.854C189.699 306.454 189.366 307.245 189.366 308.227C189.366 309.21 189.699 310.009 190.365 310.626C191.031 311.225 191.88 311.525 192.913 311.525ZM207.632 303.706C208.098 303.056 208.723 302.565 209.505 302.232C210.305 301.899 211.221 301.732 212.253 301.732V305.33C211.82 305.296 211.529 305.28 211.379 305.28C210.263 305.28 209.389 305.596 208.756 306.229C208.123 306.845 207.807 307.778 207.807 309.027V315.372H203.91V301.932H207.632V303.706ZM219.918 301.732C222 301.732 223.599 302.232 224.715 303.231C225.831 304.214 226.389 305.704 226.389 307.703V315.372H222.741V313.698C222.009 314.947 220.643 315.572 218.644 315.572C217.612 315.572 216.712 315.397 215.946 315.047C215.197 314.698 214.622 314.215 214.223 313.598C213.823 312.982 213.623 312.283 213.623 311.5C213.623 310.251 214.089 309.268 215.022 308.552C215.971 307.836 217.429 307.478 219.394 307.478H222.492C222.492 306.629 222.233 305.979 221.717 305.529C221.201 305.063 220.426 304.83 219.394 304.83C218.678 304.83 217.97 304.946 217.27 305.18C216.588 305.396 216.005 305.696 215.522 306.079L214.123 303.356C214.856 302.84 215.73 302.44 216.746 302.157C217.778 301.874 218.836 301.732 219.918 301.732ZM219.619 312.949C220.285 312.949 220.876 312.799 221.392 312.499C221.909 312.183 222.275 311.725 222.492 311.125V309.751H219.819C218.22 309.751 217.42 310.276 217.42 311.325C217.42 311.825 217.612 312.224 217.995 312.524C218.395 312.807 218.936 312.949 219.619 312.949ZM247.128 301.732C248.81 301.732 250.142 302.232 251.125 303.231C252.124 304.214 252.624 305.696 252.624 307.678V315.372H248.727V308.277C248.727 307.211 248.502 306.42 248.052 305.904C247.619 305.371 246.995 305.105 246.179 305.105C245.263 305.105 244.538 305.404 244.005 306.004C243.472 306.587 243.206 307.461 243.206 308.627V315.372H239.309V308.277C239.309 306.162 238.459 305.105 236.761 305.105C235.861 305.105 235.145 305.404 234.612 306.004C234.079 306.587 233.813 307.461 233.813 308.627V315.372H229.916V301.932H233.638V303.481C234.138 302.915 234.745 302.482 235.462 302.182C236.194 301.882 236.994 301.732 237.86 301.732C238.809 301.732 239.667 301.924 240.433 302.307C241.199 302.673 241.815 303.214 242.282 303.931C242.831 303.231 243.522 302.69 244.355 302.307C245.204 301.924 246.129 301.732 247.128 301.732ZM280.229 315.372L280.204 302.632L273.884 313.249H272.735L266.414 302.706V315.372H264.016V297.885H266.065L273.359 310.176L280.554 297.885H282.602L282.627 315.372H280.229ZM292.347 302.007C294.179 302.007 295.578 302.457 296.544 303.356C297.527 304.255 298.018 305.596 298.018 307.378V315.372H295.745V313.623C295.345 314.24 294.77 314.714 294.021 315.047C293.288 315.364 292.414 315.522 291.398 315.522C289.916 315.522 288.725 315.164 287.826 314.448C286.943 313.732 286.501 312.791 286.501 311.625C286.501 310.459 286.926 309.526 287.776 308.827C288.625 308.111 289.974 307.753 291.823 307.753H295.62V307.278C295.62 306.246 295.32 305.454 294.72 304.905C294.121 304.355 293.238 304.08 292.072 304.08C291.29 304.08 290.524 304.214 289.774 304.48C289.025 304.73 288.392 305.071 287.875 305.504L286.876 303.706C287.559 303.156 288.375 302.74 289.324 302.457C290.274 302.157 291.281 302.007 292.347 302.007ZM291.798 313.673C292.714 313.673 293.505 313.473 294.171 313.074C294.837 312.657 295.32 312.075 295.62 311.325V309.476H291.922C289.891 309.476 288.875 310.159 288.875 311.525C288.875 312.191 289.133 312.716 289.649 313.099C290.165 313.482 290.882 313.673 291.798 313.673ZM309.526 302.007C311.208 302.007 312.54 302.498 313.523 303.481C314.522 304.447 315.022 305.871 315.022 307.753V315.372H312.624V308.028C312.624 306.745 312.315 305.779 311.699 305.13C311.083 304.48 310.2 304.155 309.051 304.155C307.752 304.155 306.728 304.538 305.978 305.305C305.229 306.054 304.854 307.137 304.854 308.552V315.372H302.456V302.132H304.754V304.13C305.237 303.448 305.887 302.923 306.703 302.557C307.536 302.19 308.477 302.007 309.526 302.007ZM324.281 302.007C326.113 302.007 327.512 302.457 328.478 303.356C329.461 304.255 329.952 305.596 329.952 307.378V315.372H327.679V313.623C327.279 314.24 326.705 314.714 325.955 315.047C325.222 315.364 324.348 315.522 323.332 315.522C321.85 315.522 320.659 315.164 319.76 314.448C318.877 313.732 318.436 312.791 318.436 311.625C318.436 310.459 318.861 309.526 319.71 308.827C320.559 308.111 321.908 307.753 323.757 307.753H327.554V307.278C327.554 306.246 327.254 305.454 326.655 304.905C326.055 304.355 325.172 304.08 324.007 304.08C323.224 304.08 322.458 304.214 321.708 304.48C320.959 304.73 320.326 305.071 319.81 305.504L318.811 303.706C319.493 303.156 320.309 302.74 321.259 302.457C322.208 302.157 323.216 302.007 324.281 302.007ZM323.732 313.673C324.648 313.673 325.439 313.473 326.105 313.074C326.771 312.657 327.254 312.075 327.554 311.325V309.476H323.857C321.825 309.476 320.809 310.159 320.809 311.525C320.809 312.191 321.067 312.716 321.583 313.099C322.1 313.482 322.816 313.673 323.732 313.673ZM347.129 302.132V313.573C347.129 315.888 346.555 317.595 345.405 318.695C344.256 319.81 342.541 320.368 340.259 320.368C339.01 320.368 337.819 320.193 336.687 319.844C335.554 319.511 334.638 319.028 333.939 318.395L335.088 316.546C335.704 317.079 336.462 317.495 337.361 317.795C338.277 318.112 339.218 318.27 340.184 318.27C341.733 318.27 342.874 317.904 343.607 317.171C344.356 316.438 344.731 315.322 344.731 313.823V312.774C344.165 313.457 343.465 313.973 342.633 314.323C341.816 314.656 340.925 314.822 339.96 314.822C338.694 314.822 337.545 314.556 336.512 314.023C335.496 313.473 334.697 312.716 334.114 311.75C333.531 310.767 333.239 309.651 333.239 308.402C333.239 307.153 333.531 306.046 334.114 305.08C334.697 304.097 335.496 303.339 336.512 302.806C337.545 302.273 338.694 302.007 339.96 302.007C340.959 302.007 341.883 302.19 342.732 302.557C343.598 302.923 344.306 303.464 344.856 304.18V302.132H347.129ZM340.234 312.724C341.1 312.724 341.875 312.541 342.558 312.174C343.257 311.808 343.798 311.3 344.181 310.651C344.581 309.984 344.781 309.235 344.781 308.402C344.781 307.12 344.356 306.087 343.507 305.305C342.658 304.505 341.567 304.105 340.234 304.105C338.885 304.105 337.786 304.505 336.937 305.305C336.087 306.087 335.663 307.12 335.663 308.402C335.663 309.235 335.854 309.984 336.237 310.651C336.637 311.3 337.178 311.808 337.861 312.174C338.561 312.541 339.352 312.724 340.234 312.724ZM363.678 308.827C363.678 309.01 363.661 309.252 363.628 309.551H352.886C353.036 310.717 353.544 311.658 354.41 312.374C355.292 313.074 356.383 313.424 357.682 313.424C359.264 313.424 360.538 312.891 361.504 311.825L362.828 313.374C362.229 314.073 361.479 314.606 360.58 314.972C359.697 315.339 358.706 315.522 357.607 315.522C356.208 315.522 354.967 315.239 353.885 314.673C352.802 314.09 351.961 313.282 351.362 312.249C350.779 311.217 350.487 310.051 350.487 308.752C350.487 307.47 350.771 306.312 351.337 305.28C351.92 304.247 352.711 303.448 353.71 302.881C354.726 302.298 355.867 302.007 357.133 302.007C358.398 302.007 359.522 302.298 360.505 302.881C361.504 303.448 362.279 304.247 362.828 305.28C363.395 306.312 363.678 307.495 363.678 308.827ZM357.133 304.03C355.983 304.03 355.017 304.38 354.235 305.08C353.469 305.779 353.019 306.695 352.886 307.828H361.379C361.246 306.712 360.788 305.804 360.005 305.105C359.239 304.389 358.282 304.03 357.133 304.03ZM383.571 302.007C385.236 302.007 386.552 302.49 387.518 303.456C388.5 304.422 388.992 305.854 388.992 307.753V315.372H386.593V308.028C386.593 306.745 386.294 305.779 385.694 305.13C385.111 304.48 384.27 304.155 383.171 304.155C381.955 304.155 380.989 304.538 380.273 305.305C379.557 306.054 379.199 307.137 379.199 308.552V315.372H376.801V308.028C376.801 306.745 376.501 305.779 375.901 305.13C375.318 304.48 374.477 304.155 373.378 304.155C372.162 304.155 371.196 304.538 370.48 305.305C369.764 306.054 369.406 307.137 369.406 308.552V315.372H367.008V302.132H369.306V304.105C369.789 303.423 370.422 302.906 371.205 302.557C371.987 302.19 372.878 302.007 373.878 302.007C374.91 302.007 375.826 302.215 376.626 302.632C377.425 303.048 378.041 303.656 378.474 304.455C378.974 303.689 379.665 303.09 380.548 302.656C381.447 302.223 382.455 302.007 383.571 302.007ZM405.444 308.827C405.444 309.01 405.427 309.252 405.394 309.551H394.652C394.801 310.717 395.309 311.658 396.175 312.374C397.058 313.074 398.149 313.424 399.448 313.424C401.03 313.424 402.304 312.891 403.27 311.825L404.594 313.374C403.995 314.073 403.245 314.606 402.346 314.972C401.463 315.339 400.472 315.522 399.373 315.522C397.974 315.522 396.733 315.239 395.651 314.673C394.568 314.09 393.727 313.282 393.128 312.249C392.545 311.217 392.253 310.051 392.253 308.752C392.253 307.47 392.536 306.312 393.103 305.28C393.686 304.247 394.477 303.448 395.476 302.881C396.492 302.298 397.633 302.007 398.898 302.007C400.164 302.007 401.288 302.298 402.271 302.881C403.27 303.448 404.045 304.247 404.594 305.28C405.16 306.312 405.444 307.495 405.444 308.827ZM398.898 304.03C397.749 304.03 396.783 304.38 396.001 305.08C395.234 305.779 394.785 306.695 394.652 307.828H403.145C403.012 306.712 402.554 305.804 401.771 305.105C401.005 304.389 400.048 304.03 398.898 304.03ZM415.843 302.007C417.526 302.007 418.858 302.498 419.841 303.481C420.84 304.447 421.339 305.871 421.339 307.753V315.372H418.941V308.028C418.941 306.745 418.633 305.779 418.017 305.13C417.401 304.48 416.518 304.155 415.369 304.155C414.07 304.155 413.046 304.538 412.296 305.305C411.547 306.054 411.172 307.137 411.172 308.552V315.372H408.774V302.132H411.072V304.13C411.555 303.448 412.205 302.923 413.021 302.557C413.853 302.19 414.794 302.007 415.843 302.007ZM433.222 314.598C432.872 314.897 432.439 315.131 431.923 315.297C431.407 315.447 430.874 315.522 430.324 315.522C428.992 315.522 427.959 315.164 427.227 314.448C426.494 313.732 426.127 312.707 426.127 311.375V304.105H423.879V302.132H426.127V299.234H428.526V302.132H432.323V304.105H428.526V311.275C428.526 311.991 428.701 312.541 429.05 312.924C429.417 313.307 429.933 313.498 430.599 313.498C431.332 313.498 431.956 313.29 432.473 312.874L433.222 314.598Z" fill="#1A1A1A"/>
<path d="M65.3311 370.938C65.3311 380.114 72.7922 387.592 81.9854 387.592C91.1619 387.592 98.6397 380.114 98.6397 370.938C98.6397 361.744 91.1619 354.283 81.9854 354.283C72.7922 354.283 65.3311 361.744 65.3311 370.938V370.938Z" fill="#130F26"/>
<rect x="75.7834" y="369.366" width="8.64277" height="2.88092" rx="1.44046" transform="rotate(45 75.7834 369.366)" fill="white"/>
<rect x="91.062" y="366.311" width="15.8451" height="2.88092" rx="1.44046" transform="rotate(135 91.062 366.311)" fill="white"/>
<path d="M125.153 366.135H119.557V362.837H134.796V366.135H129.2V380.324H125.153V366.135ZM157.478 366.884L152.606 380.324H148.859L145.836 371.98L142.714 380.324H138.966L134.12 366.884H137.792L140.965 375.977L144.262 366.884H147.56L150.758 375.977L154.03 366.884H157.478ZM159.289 366.884H163.186V380.324H159.289V366.884ZM161.238 365.011C160.522 365.011 159.939 364.802 159.489 364.386C159.04 363.97 158.815 363.453 158.815 362.837C158.815 362.221 159.04 361.705 159.489 361.288C159.939 360.872 160.522 360.664 161.238 360.664C161.954 360.664 162.537 360.864 162.987 361.263C163.436 361.663 163.661 362.163 163.661 362.762C163.661 363.412 163.436 363.953 162.987 364.386C162.537 364.802 161.954 365.011 161.238 365.011ZM175.472 379.675C175.089 379.958 174.614 380.174 174.048 380.324C173.498 380.457 172.915 380.524 172.299 380.524C170.7 380.524 169.46 380.116 168.577 379.3C167.711 378.484 167.278 377.285 167.278 375.703V370.182H165.205V367.184H167.278V363.911H171.175V367.184H174.523V370.182H171.175V375.653C171.175 376.219 171.317 376.66 171.6 376.977C171.9 377.276 172.316 377.426 172.849 377.426C173.465 377.426 173.99 377.26 174.423 376.927L175.472 379.675ZM186.035 379.675C185.652 379.958 185.178 380.174 184.611 380.324C184.062 380.457 183.479 380.524 182.863 380.524C181.264 380.524 180.023 380.116 179.14 379.3C178.274 378.484 177.841 377.285 177.841 375.703V370.182H175.768V367.184H177.841V363.911H181.739V367.184H185.086V370.182H181.739V375.653C181.739 376.219 181.88 376.66 182.163 376.977C182.463 377.276 182.879 377.426 183.412 377.426C184.029 377.426 184.553 377.26 184.986 376.927L186.035 379.675ZM200.974 373.654C200.974 373.704 200.949 374.054 200.899 374.703H190.731C190.914 375.536 191.347 376.194 192.03 376.677C192.713 377.16 193.562 377.401 194.578 377.401C195.278 377.401 195.894 377.301 196.427 377.102C196.976 376.885 197.484 376.552 197.951 376.102L200.024 378.351C198.758 379.8 196.91 380.524 194.478 380.524C192.963 380.524 191.622 380.233 190.456 379.65C189.291 379.05 188.391 378.226 187.758 377.177C187.125 376.127 186.809 374.937 186.809 373.604C186.809 372.289 187.117 371.106 187.733 370.057C188.366 368.991 189.224 368.167 190.306 367.584C191.406 366.984 192.63 366.684 193.979 366.684C195.294 366.684 196.485 366.967 197.551 367.534C198.617 368.1 199.45 368.916 200.049 369.982C200.665 371.031 200.974 372.255 200.974 373.654ZM194.004 369.632C193.121 369.632 192.38 369.882 191.78 370.382C191.181 370.881 190.814 371.564 190.681 372.43H197.301C197.168 371.581 196.802 370.906 196.202 370.407C195.603 369.89 194.87 369.632 194.004 369.632ZM207.29 368.658C207.757 368.008 208.381 367.517 209.164 367.184C209.963 366.851 210.879 366.684 211.912 366.684V370.282C211.479 370.248 211.187 370.232 211.038 370.232C209.922 370.232 209.047 370.548 208.414 371.181C207.782 371.797 207.465 372.73 207.465 373.979V380.324H203.568V366.884H207.29V368.658ZM233.002 375.952H223.709L221.785 380.324H219.212L227.131 362.837H229.604L237.548 380.324H234.925L233.002 375.952ZM232.127 373.954L228.355 365.385L224.583 373.954H232.127ZM251.904 367.084V380.324H249.631V378.326C249.148 379.009 248.507 379.541 247.707 379.925C246.924 380.291 246.067 380.474 245.134 380.474C243.369 380.474 241.978 379.991 240.962 379.025C239.946 378.043 239.438 376.602 239.438 374.703V367.084H241.837V374.429C241.837 375.711 242.145 376.685 242.761 377.351C243.377 378.001 244.26 378.326 245.409 378.326C246.675 378.326 247.674 377.943 248.407 377.177C249.139 376.41 249.506 375.328 249.506 373.929V367.084H251.904ZM263.914 379.55C263.564 379.85 263.131 380.083 262.615 380.249C262.099 380.399 261.566 380.474 261.016 380.474C259.684 380.474 258.651 380.116 257.919 379.4C257.186 378.684 256.819 377.66 256.819 376.327V369.058H254.571V367.084H256.819V364.186H259.218V367.084H263.015V369.058H259.218V376.227C259.218 376.943 259.392 377.493 259.742 377.876C260.109 378.259 260.625 378.451 261.291 378.451C262.024 378.451 262.648 378.242 263.165 377.826L263.914 379.55ZM272.045 380.474C270.73 380.474 269.547 380.183 268.498 379.6C267.449 379.017 266.624 378.217 266.025 377.202C265.442 376.169 265.15 375.003 265.15 373.704C265.15 372.405 265.442 371.248 266.025 370.232C266.624 369.199 267.449 368.4 268.498 367.833C269.547 367.251 270.73 366.959 272.045 366.959C273.361 366.959 274.535 367.251 275.568 367.833C276.617 368.4 277.433 369.199 278.016 370.232C278.615 371.248 278.915 372.405 278.915 373.704C278.915 375.003 278.615 376.169 278.016 377.202C277.433 378.217 276.617 379.017 275.568 379.6C274.535 380.183 273.361 380.474 272.045 380.474ZM272.045 378.376C272.895 378.376 273.652 378.184 274.319 377.801C275.001 377.401 275.534 376.852 275.917 376.152C276.3 375.436 276.492 374.62 276.492 373.704C276.492 372.788 276.3 371.98 275.917 371.281C275.534 370.565 275.001 370.015 274.319 369.632C273.652 369.249 272.895 369.058 272.045 369.058C271.196 369.058 270.43 369.249 269.747 369.632C269.081 370.015 268.548 370.565 268.148 371.281C267.765 371.98 267.574 372.788 267.574 373.704C267.574 374.62 267.765 375.436 268.148 376.152C268.548 376.852 269.081 377.401 269.747 377.801C270.43 378.184 271.196 378.376 272.045 378.376ZM298.795 366.959C300.46 366.959 301.776 367.442 302.742 368.408C303.724 369.374 304.216 370.806 304.216 372.705V380.324H301.817V372.98C301.817 371.697 301.518 370.731 300.918 370.082C300.335 369.432 299.494 369.108 298.395 369.108C297.179 369.108 296.213 369.491 295.497 370.257C294.781 371.006 294.423 372.089 294.423 373.504V380.324H292.025V372.98C292.025 371.697 291.725 370.731 291.125 370.082C290.542 369.432 289.701 369.108 288.602 369.108C287.386 369.108 286.42 369.491 285.704 370.257C284.988 371.006 284.63 372.089 284.63 373.504V380.324H282.232V367.084H284.53V369.058C285.013 368.375 285.646 367.858 286.429 367.509C287.211 367.142 288.102 366.959 289.102 366.959C290.134 366.959 291.05 367.167 291.85 367.584C292.649 368 293.265 368.608 293.698 369.407C294.198 368.641 294.889 368.042 295.772 367.609C296.671 367.176 297.679 366.959 298.795 366.959ZM313.45 366.959C315.282 366.959 316.681 367.409 317.647 368.308C318.629 369.207 319.12 370.548 319.12 372.33V380.324H316.847V378.576C316.447 379.192 315.873 379.666 315.123 379.999C314.391 380.316 313.516 380.474 312.5 380.474C311.018 380.474 309.827 380.116 308.928 379.4C308.045 378.684 307.604 377.743 307.604 376.577C307.604 375.411 308.029 374.479 308.878 373.779C309.727 373.063 311.076 372.705 312.925 372.705H316.722V372.23C316.722 371.198 316.422 370.407 315.823 369.857C315.223 369.307 314.341 369.033 313.175 369.033C312.392 369.033 311.626 369.166 310.877 369.432C310.127 369.682 309.494 370.024 308.978 370.457L307.979 368.658C308.662 368.108 309.478 367.692 310.427 367.409C311.376 367.109 312.384 366.959 313.45 366.959ZM312.9 378.625C313.816 378.625 314.607 378.426 315.273 378.026C315.94 377.61 316.422 377.027 316.722 376.277V374.429H313.025C310.993 374.429 309.977 375.111 309.977 376.477C309.977 377.143 310.235 377.668 310.752 378.051C311.268 378.434 311.984 378.625 312.9 378.625ZM331.003 379.55C330.653 379.85 330.22 380.083 329.704 380.249C329.188 380.399 328.655 380.474 328.105 380.474C326.773 380.474 325.74 380.116 325.008 379.4C324.275 378.684 323.908 377.66 323.908 376.327V369.058H321.66V367.084H323.908V364.186H326.307V367.084H330.104V369.058H326.307V376.227C326.307 376.943 326.481 377.493 326.831 377.876C327.198 378.259 327.714 378.451 328.38 378.451C329.113 378.451 329.737 378.242 330.254 377.826L331.003 379.55ZM333.902 367.084H336.301V380.324H333.902V367.084ZM335.102 364.536C334.635 364.536 334.244 364.386 333.927 364.086C333.628 363.786 333.478 363.42 333.478 362.987C333.478 362.554 333.628 362.188 333.927 361.888C334.244 361.571 334.635 361.413 335.102 361.413C335.568 361.413 335.951 361.563 336.251 361.863C336.567 362.146 336.725 362.504 336.725 362.937C336.725 363.387 336.567 363.77 336.251 364.086C335.951 364.386 335.568 364.536 335.102 364.536ZM346.551 380.474C345.235 380.474 344.052 380.183 343.003 379.6C341.954 379.017 341.13 378.217 340.53 377.202C339.947 376.169 339.656 375.003 339.656 373.704C339.656 372.405 339.947 371.248 340.53 370.232C341.13 369.199 341.954 368.4 343.003 367.833C344.052 367.251 345.235 366.959 346.551 366.959C347.866 366.959 349.04 367.251 350.073 367.833C351.122 368.4 351.938 369.199 352.521 370.232C353.121 371.248 353.42 372.405 353.42 373.704C353.42 375.003 353.121 376.169 352.521 377.202C351.938 378.217 351.122 379.017 350.073 379.6C349.04 380.183 347.866 380.474 346.551 380.474ZM346.551 378.376C347.4 378.376 348.158 378.184 348.824 377.801C349.507 377.401 350.04 376.852 350.423 376.152C350.806 375.436 350.997 374.62 350.997 373.704C350.997 372.788 350.806 371.98 350.423 371.281C350.04 370.565 349.507 370.015 348.824 369.632C348.158 369.249 347.4 369.058 346.551 369.058C345.701 369.058 344.935 369.249 344.252 369.632C343.586 370.015 343.053 370.565 342.653 371.281C342.27 371.98 342.079 372.788 342.079 373.704C342.079 374.62 342.27 375.436 342.653 376.152C343.053 376.852 343.586 377.401 344.252 377.801C344.935 378.184 345.701 378.376 346.551 378.376ZM363.807 366.959C365.489 366.959 366.821 367.45 367.804 368.433C368.803 369.399 369.303 370.823 369.303 372.705V380.324H366.905V372.98C366.905 371.697 366.596 370.731 365.98 370.082C365.364 369.432 364.481 369.108 363.332 369.108C362.033 369.108 361.009 369.491 360.26 370.257C359.51 371.006 359.135 372.089 359.135 373.504V380.324H356.737V367.084H359.035V369.083C359.518 368.4 360.168 367.875 360.984 367.509C361.817 367.142 362.758 366.959 363.807 366.959Z" fill="#1A1A1A"/>
<path d="M65.3311 500.841C65.3311 510.017 72.7922 517.495 81.9854 517.495C91.1619 517.495 98.6397 510.017 98.6397 500.841C98.6397 491.648 91.1619 484.187 81.9854 484.187C72.7922 484.187 65.3311 491.648 65.3311 500.841V500.841Z" fill="#130F26"/>
<rect x="75.7834" y="499.27" width="8.64277" height="2.88092" rx="1.44046" transform="rotate(45 75.7834 499.27)" fill="white"/>
<rect x="91.062" y="496.214" width="15.8451" height="2.88092" rx="1.44046" transform="rotate(135 91.062 496.214)" fill="white"/>
<path d="M127.177 510.427C125.861 510.427 124.587 510.228 123.355 509.828C122.139 509.411 121.181 508.879 120.482 508.229L121.406 506.28C122.072 506.88 122.921 507.371 123.954 507.754C125.003 508.121 126.077 508.304 127.177 508.304C128.626 508.304 129.708 508.062 130.424 507.58C131.14 507.08 131.498 506.422 131.498 505.606C131.498 505.006 131.299 504.523 130.899 504.157C130.516 503.774 130.033 503.483 129.45 503.283C128.884 503.083 128.076 502.858 127.027 502.608C125.711 502.292 124.645 501.975 123.829 501.659C123.03 501.342 122.339 500.859 121.756 500.21C121.189 499.544 120.906 498.653 120.906 497.537C120.906 496.604 121.148 495.763 121.631 495.014C122.13 494.264 122.88 493.665 123.879 493.215C124.878 492.765 126.119 492.541 127.601 492.541C128.634 492.541 129.65 492.674 130.649 492.94C131.648 493.207 132.506 493.59 133.222 494.09L132.398 496.088C131.665 495.622 130.882 495.272 130.05 495.039C129.217 494.789 128.401 494.664 127.601 494.664C126.186 494.664 125.12 494.922 124.404 495.439C123.704 495.955 123.355 496.621 123.355 497.437C123.355 498.037 123.554 498.528 123.954 498.911C124.354 499.277 124.845 499.569 125.428 499.785C126.028 499.985 126.835 500.202 127.851 500.435C129.167 500.751 130.224 501.068 131.024 501.384C131.823 501.701 132.506 502.184 133.072 502.833C133.655 503.483 133.947 504.357 133.947 505.456C133.947 506.372 133.697 507.213 133.197 507.979C132.698 508.729 131.94 509.328 130.924 509.778C129.908 510.211 128.659 510.427 127.177 510.427ZM142.917 510.377C141.602 510.377 140.419 510.086 139.37 509.503C138.321 508.92 137.496 508.121 136.897 507.105C136.314 506.072 136.022 504.906 136.022 503.607C136.022 502.308 136.314 501.151 136.897 500.135C137.496 499.102 138.321 498.303 139.37 497.737C140.419 497.154 141.602 496.862 142.917 496.862C144.233 496.862 145.407 497.154 146.44 497.737C147.489 498.303 148.305 499.102 148.888 500.135C149.487 501.151 149.787 502.308 149.787 503.607C149.787 504.906 149.487 506.072 148.888 507.105C148.305 508.121 147.489 508.92 146.44 509.503C145.407 510.086 144.233 510.377 142.917 510.377ZM142.917 508.279C143.767 508.279 144.524 508.087 145.191 507.704C145.873 507.305 146.406 506.755 146.789 506.056C147.173 505.339 147.364 504.523 147.364 503.607C147.364 502.691 147.173 501.884 146.789 501.184C146.406 500.468 145.873 499.919 145.191 499.535C144.524 499.152 143.767 498.961 142.917 498.961C142.068 498.961 141.302 499.152 140.619 499.535C139.953 499.919 139.42 500.468 139.02 501.184C138.637 501.884 138.446 502.691 138.446 503.607C138.446 504.523 138.637 505.339 139.02 506.056C139.42 506.755 139.953 507.305 140.619 507.704C141.302 508.087 142.068 508.279 142.917 508.279ZM158.875 510.377C157.526 510.377 156.318 510.086 155.252 509.503C154.203 508.92 153.379 508.121 152.779 507.105C152.18 506.072 151.88 504.906 151.88 503.607C151.88 502.308 152.18 501.151 152.779 500.135C153.379 499.102 154.203 498.303 155.252 497.737C156.318 497.154 157.526 496.862 158.875 496.862C160.074 496.862 161.14 497.104 162.072 497.587C163.022 498.07 163.754 498.769 164.271 499.685L162.447 500.859C162.031 500.227 161.514 499.752 160.898 499.436C160.282 499.119 159.599 498.961 158.85 498.961C157.984 498.961 157.201 499.152 156.501 499.535C155.819 499.919 155.277 500.468 154.878 501.184C154.495 501.884 154.303 502.691 154.303 503.607C154.303 504.54 154.495 505.364 154.878 506.081C155.277 506.78 155.819 507.321 156.501 507.704C157.201 508.087 157.984 508.279 158.85 508.279C159.599 508.279 160.282 508.121 160.898 507.804C161.514 507.488 162.031 507.013 162.447 506.38L164.271 507.53C163.754 508.446 163.022 509.153 162.072 509.653C161.14 510.136 160.074 510.377 158.875 510.377ZM167.376 496.987H169.774V510.228H167.376V496.987ZM168.575 494.439C168.108 494.439 167.717 494.289 167.401 493.99C167.101 493.69 166.951 493.323 166.951 492.89C166.951 492.457 167.101 492.091 167.401 491.791C167.717 491.475 168.108 491.317 168.575 491.317C169.041 491.317 169.424 491.466 169.724 491.766C170.04 492.049 170.198 492.407 170.198 492.84C170.198 493.29 170.04 493.673 169.724 493.99C169.424 494.289 169.041 494.439 168.575 494.439ZM179.174 496.862C181.006 496.862 182.405 497.312 183.371 498.211C184.354 499.111 184.845 500.451 184.845 502.233V510.228H182.572V508.479C182.172 509.095 181.597 509.57 180.848 509.903C180.115 510.219 179.241 510.377 178.225 510.377C176.743 510.377 175.552 510.019 174.653 509.303C173.77 508.587 173.329 507.646 173.329 506.48C173.329 505.315 173.753 504.382 174.603 503.682C175.452 502.966 176.801 502.608 178.65 502.608H182.447V502.134C182.447 501.101 182.147 500.31 181.547 499.76C180.948 499.211 180.065 498.936 178.899 498.936C178.117 498.936 177.351 499.069 176.601 499.336C175.852 499.585 175.219 499.927 174.703 500.36L173.703 498.561C174.386 498.012 175.202 497.595 176.151 497.312C177.101 497.012 178.108 496.862 179.174 496.862ZM178.625 508.529C179.541 508.529 180.332 508.329 180.998 507.929C181.664 507.513 182.147 506.93 182.447 506.181V504.332H178.75C176.718 504.332 175.702 505.015 175.702 506.38C175.702 507.047 175.96 507.571 176.476 507.954C176.993 508.337 177.709 508.529 178.625 508.529ZM189.283 491.691H191.681V510.228H189.283V491.691ZM219.532 510.228L219.507 497.487L213.187 508.104H212.038L205.717 497.562V510.228H203.319V492.741H205.368L212.662 505.031L219.857 492.741H221.905L221.93 510.228H219.532ZM238.795 503.682C238.795 503.866 238.778 504.107 238.745 504.407H228.003C228.153 505.573 228.661 506.514 229.527 507.23C230.409 507.929 231.5 508.279 232.799 508.279C234.381 508.279 235.655 507.746 236.621 506.68L237.945 508.229C237.346 508.929 236.596 509.461 235.697 509.828C234.814 510.194 233.823 510.377 232.724 510.377C231.325 510.377 230.084 510.094 229.002 509.528C227.919 508.945 227.078 508.137 226.479 507.105C225.896 506.072 225.604 504.906 225.604 503.607C225.604 502.325 225.888 501.168 226.454 500.135C227.037 499.102 227.828 498.303 228.827 497.737C229.843 497.154 230.984 496.862 232.25 496.862C233.515 496.862 234.639 497.154 235.622 497.737C236.621 498.303 237.396 499.102 237.945 500.135C238.512 501.168 238.795 502.35 238.795 503.682ZM232.25 498.886C231.1 498.886 230.134 499.236 229.352 499.935C228.586 500.635 228.136 501.551 228.003 502.683H236.496C236.363 501.567 235.905 500.66 235.122 499.96C234.356 499.244 233.399 498.886 232.25 498.886ZM254.616 491.691V510.228H252.317V508.129C251.784 508.862 251.11 509.42 250.294 509.803C249.478 510.186 248.578 510.377 247.596 510.377C246.313 510.377 245.164 510.094 244.148 509.528C243.132 508.962 242.333 508.171 241.75 507.155C241.184 506.122 240.901 504.94 240.901 503.607C240.901 502.275 241.184 501.101 241.75 500.085C242.333 499.069 243.132 498.278 244.148 497.712C245.164 497.146 246.313 496.862 247.596 496.862C248.545 496.862 249.419 497.046 250.219 497.412C251.018 497.762 251.684 498.286 252.217 498.986V491.691H254.616ZM247.796 508.279C248.628 508.279 249.386 508.087 250.069 507.704C250.752 507.305 251.285 506.755 251.668 506.056C252.051 505.339 252.242 504.523 252.242 503.607C252.242 502.691 252.051 501.884 251.668 501.184C251.285 500.468 250.752 499.919 250.069 499.535C249.386 499.152 248.628 498.961 247.796 498.961C246.946 498.961 246.18 499.152 245.497 499.535C244.831 499.919 244.298 500.468 243.899 501.184C243.515 501.884 243.324 502.691 243.324 503.607C243.324 504.523 243.515 505.339 243.899 506.056C244.298 506.755 244.831 507.305 245.497 507.704C246.18 508.087 246.946 508.279 247.796 508.279ZM259.153 496.987H261.551V510.228H259.153V496.987ZM260.352 494.439C259.886 494.439 259.495 494.289 259.178 493.99C258.878 493.69 258.729 493.323 258.729 492.89C258.729 492.457 258.878 492.091 259.178 491.791C259.495 491.475 259.886 491.317 260.352 491.317C260.819 491.317 261.202 491.466 261.501 491.766C261.818 492.049 261.976 492.407 261.976 492.84C261.976 493.29 261.818 493.673 261.501 493.99C261.202 494.289 260.819 494.439 260.352 494.439ZM270.952 496.862C272.784 496.862 274.183 497.312 275.149 498.211C276.131 499.111 276.623 500.451 276.623 502.233V510.228H274.349V508.479C273.95 509.095 273.375 509.57 272.626 509.903C271.893 510.219 271.019 510.377 270.003 510.377C268.52 510.377 267.33 510.019 266.43 509.303C265.548 508.587 265.106 507.646 265.106 506.48C265.106 505.315 265.531 504.382 266.38 503.682C267.23 502.966 268.579 502.608 270.427 502.608H274.224V502.134C274.224 501.101 273.925 500.31 273.325 499.76C272.726 499.211 271.843 498.936 270.677 498.936C269.894 498.936 269.128 499.069 268.379 499.336C267.629 499.585 266.997 499.927 266.48 500.36L265.481 498.561C266.164 498.012 266.98 497.595 267.929 497.312C268.878 497.012 269.886 496.862 270.952 496.862ZM270.402 508.529C271.318 508.529 272.109 508.329 272.776 507.929C273.442 507.513 273.925 506.93 274.224 506.181V504.332H270.527C268.495 504.332 267.479 505.015 267.479 506.38C267.479 507.047 267.738 507.571 268.254 507.954C268.77 508.337 269.486 508.529 270.402 508.529ZM299.261 505.856H289.968L288.044 510.228H285.471L293.391 492.741H295.864L303.808 510.228H301.185L299.261 505.856ZM298.387 503.857L294.615 495.289L290.842 503.857H298.387ZM318.435 491.691V510.228H316.137V508.129C315.604 508.862 314.93 509.42 314.114 509.803C313.298 510.186 312.398 510.377 311.416 510.377C310.133 510.377 308.984 510.094 307.968 509.528C306.952 508.962 306.153 508.171 305.57 507.155C305.004 506.122 304.721 504.94 304.721 503.607C304.721 502.275 305.004 501.101 305.57 500.085C306.153 499.069 306.952 498.278 307.968 497.712C308.984 497.146 310.133 496.862 311.416 496.862C312.365 496.862 313.239 497.046 314.039 497.412C314.838 497.762 315.504 498.286 316.037 498.986V491.691H318.435ZM311.615 508.279C312.448 508.279 313.206 508.087 313.889 507.704C314.572 507.305 315.105 506.755 315.488 506.056C315.871 505.339 316.062 504.523 316.062 503.607C316.062 502.691 315.871 501.884 315.488 501.184C315.105 500.468 314.572 499.919 313.889 499.535C313.206 499.152 312.448 498.961 311.615 498.961C310.766 498.961 310 499.152 309.317 499.535C308.651 499.919 308.118 500.468 307.718 501.184C307.335 501.884 307.144 502.691 307.144 503.607C307.144 504.523 307.335 505.339 307.718 506.056C308.118 506.755 308.651 507.305 309.317 507.704C310 508.087 310.766 508.279 311.615 508.279ZM337.851 510.427C336.102 510.427 334.52 510.044 333.104 509.278C331.705 508.495 330.606 507.43 329.807 506.081C329.007 504.715 328.608 503.183 328.608 501.484C328.608 499.785 329.007 498.261 329.807 496.912C330.606 495.547 331.714 494.481 333.129 493.715C334.545 492.932 336.127 492.541 337.876 492.541C339.242 492.541 340.491 492.774 341.623 493.24C342.756 493.69 343.722 494.364 344.521 495.264L342.897 496.837C341.581 495.455 339.941 494.764 337.976 494.764C336.677 494.764 335.503 495.055 334.453 495.638C333.404 496.221 332.58 497.029 331.98 498.062C331.397 499.077 331.106 500.218 331.106 501.484C331.106 502.75 331.397 503.899 331.98 504.931C332.58 505.947 333.404 506.747 334.453 507.33C335.503 507.913 336.677 508.204 337.976 508.204C339.924 508.204 341.565 507.505 342.897 506.106L344.521 507.679C343.722 508.579 342.747 509.262 341.598 509.728C340.466 510.194 339.217 510.427 337.851 510.427ZM352.386 496.862C354.218 496.862 355.617 497.312 356.583 498.211C357.565 499.111 358.056 500.451 358.056 502.233V510.228H355.783V508.479C355.383 509.095 354.809 509.57 354.059 509.903C353.327 510.219 352.452 510.377 351.436 510.377C349.954 510.377 348.763 510.019 347.864 509.303C346.981 508.587 346.54 507.646 346.54 506.48C346.54 505.315 346.965 504.382 347.814 503.682C348.663 502.966 350.012 502.608 351.861 502.608H355.658V502.134C355.658 501.101 355.358 500.31 354.759 499.76C354.159 499.211 353.277 498.936 352.111 498.936C351.328 498.936 350.562 499.069 349.813 499.336C349.063 499.585 348.43 499.927 347.914 500.36L346.915 498.561C347.598 498.012 348.414 497.595 349.363 497.312C350.312 497.012 351.32 496.862 352.386 496.862ZM351.836 508.529C352.752 508.529 353.543 508.329 354.209 507.929C354.875 507.513 355.358 506.93 355.658 506.181V504.332H351.961C349.929 504.332 348.913 505.015 348.913 506.38C348.913 507.047 349.171 507.571 349.688 507.954C350.204 508.337 350.92 508.529 351.836 508.529ZM379.057 496.862C380.723 496.862 382.038 497.345 383.004 498.311C383.987 499.277 384.478 500.71 384.478 502.608V510.228H382.08V502.883C382.08 501.601 381.78 500.635 381.181 499.985C380.598 499.336 379.757 499.011 378.658 499.011C377.442 499.011 376.476 499.394 375.76 500.16C375.044 500.909 374.686 501.992 374.686 503.408V510.228H372.287V502.883C372.287 501.601 371.988 500.635 371.388 499.985C370.805 499.336 369.964 499.011 368.865 499.011C367.649 499.011 366.683 499.394 365.967 500.16C365.251 500.909 364.893 501.992 364.893 503.408V510.228H362.495V496.987H364.793V498.961C365.276 498.278 365.909 497.762 366.691 497.412C367.474 497.046 368.365 496.862 369.364 496.862C370.397 496.862 371.313 497.071 372.112 497.487C372.912 497.903 373.528 498.511 373.961 499.311C374.461 498.545 375.152 497.945 376.035 497.512C376.934 497.079 377.941 496.862 379.057 496.862ZM395.911 496.862C397.193 496.862 398.342 497.146 399.358 497.712C400.374 498.278 401.165 499.069 401.731 500.085C402.314 501.101 402.606 502.275 402.606 503.607C402.606 504.94 402.314 506.122 401.731 507.155C401.165 508.171 400.374 508.962 399.358 509.528C398.342 510.094 397.193 510.377 395.911 510.377C394.962 510.377 394.087 510.194 393.288 509.828C392.505 509.461 391.839 508.929 391.289 508.229V515.074H388.891V496.987H391.189V499.086C391.722 498.353 392.397 497.803 393.213 497.437C394.029 497.054 394.928 496.862 395.911 496.862ZM395.711 508.279C396.56 508.279 397.318 508.087 397.984 507.704C398.667 507.305 399.2 506.755 399.583 506.056C399.983 505.339 400.183 504.523 400.183 503.607C400.183 502.691 399.983 501.884 399.583 501.184C399.2 500.468 398.667 499.919 397.984 499.535C397.318 499.152 396.56 498.961 395.711 498.961C394.878 498.961 394.12 499.161 393.438 499.56C392.771 499.943 392.239 500.485 391.839 501.184C391.456 501.884 391.264 502.691 391.264 503.607C391.264 504.523 391.456 505.339 391.839 506.056C392.222 506.755 392.755 507.305 393.438 507.704C394.12 508.087 394.878 508.279 395.711 508.279ZM410.619 496.862C412.451 496.862 413.85 497.312 414.816 498.211C415.798 499.111 416.29 500.451 416.29 502.233V510.228H414.016V508.479C413.617 509.095 413.042 509.57 412.293 509.903C411.56 510.219 410.685 510.377 409.67 510.377C408.187 510.377 406.997 510.019 406.097 509.303C405.215 508.587 404.773 507.646 404.773 506.48C404.773 505.315 405.198 504.382 406.047 503.682C406.897 502.966 408.246 502.608 410.094 502.608H413.891V502.134C413.891 501.101 413.592 500.31 412.992 499.76C412.393 499.211 411.51 498.936 410.344 498.936C409.561 498.936 408.795 499.069 408.046 499.336C407.296 499.585 406.663 499.927 406.147 500.36L405.148 498.561C405.831 498.012 406.647 497.595 407.596 497.312C408.545 497.012 409.553 496.862 410.619 496.862ZM410.069 508.529C410.985 508.529 411.776 508.329 412.442 507.929C413.109 507.513 413.592 506.93 413.891 506.181V504.332H410.194C408.162 504.332 407.146 505.015 407.146 506.38C407.146 507.047 407.405 507.571 407.921 507.954C408.437 508.337 409.153 508.529 410.069 508.529ZM420.728 496.987H423.126V510.228H420.728V496.987ZM421.927 494.439C421.461 494.439 421.069 494.289 420.753 493.99C420.453 493.69 420.303 493.323 420.303 492.89C420.303 492.457 420.453 492.091 420.753 491.791C421.069 491.475 421.461 491.317 421.927 491.317C422.393 491.317 422.776 491.466 423.076 491.766C423.392 492.049 423.551 492.407 423.551 492.84C423.551 493.29 423.392 493.673 423.076 493.99C422.776 494.289 422.393 494.439 421.927 494.439ZM440.371 496.987V508.429C440.371 510.744 439.796 512.451 438.647 513.55C437.498 514.666 435.782 515.224 433.501 515.224C432.252 515.224 431.061 515.049 429.928 514.699C428.796 514.366 427.88 513.883 427.18 513.25L428.33 511.402C428.946 511.935 429.704 512.351 430.603 512.651C431.519 512.967 432.46 513.125 433.426 513.125C434.975 513.125 436.115 512.759 436.848 512.026C437.598 511.293 437.972 510.178 437.972 508.679V507.629C437.406 508.312 436.707 508.829 435.874 509.178C435.058 509.511 434.167 509.678 433.201 509.678C431.935 509.678 430.786 509.411 429.753 508.879C428.738 508.329 427.938 507.571 427.355 506.605C426.772 505.623 426.481 504.507 426.481 503.258C426.481 502.009 426.772 500.901 427.355 499.935C427.938 498.953 428.738 498.195 429.753 497.662C430.786 497.129 431.935 496.862 433.201 496.862C434.2 496.862 435.124 497.046 435.974 497.412C436.84 497.778 437.548 498.32 438.097 499.036V496.987H440.371ZM433.476 507.58C434.342 507.58 435.116 507.396 435.799 507.03C436.498 506.664 437.04 506.156 437.423 505.506C437.822 504.84 438.022 504.09 438.022 503.258C438.022 501.975 437.598 500.943 436.748 500.16C435.899 499.361 434.808 498.961 433.476 498.961C432.127 498.961 431.028 499.361 430.178 500.16C429.329 500.943 428.904 501.975 428.904 503.258C428.904 504.09 429.096 504.84 429.479 505.506C429.878 506.156 430.42 506.664 431.102 507.03C431.802 507.396 432.593 507.58 433.476 507.58ZM452.023 496.862C453.705 496.862 455.037 497.354 456.02 498.336C457.019 499.302 457.519 500.726 457.519 502.608V510.228H455.12V502.883C455.12 501.601 454.812 500.635 454.196 499.985C453.58 499.336 452.697 499.011 451.548 499.011C450.249 499.011 449.225 499.394 448.475 500.16C447.726 500.909 447.351 501.992 447.351 503.408V510.228H444.953V496.987H447.251V498.986C447.734 498.303 448.384 497.778 449.2 497.412C450.033 497.046 450.973 496.862 452.023 496.862Z" fill="#1A1A1A"/>
<path d="M65.3311 435.89C65.3311 445.066 72.7922 452.544 81.9854 452.544C91.1619 452.544 98.6397 445.066 98.6397 435.89C98.6397 426.696 91.1619 419.235 81.9854 419.235C72.7922 419.235 65.3311 426.696 65.3311 435.89V435.89Z" fill="#130F26"/>
<rect x="75.7834" y="434.318" width="8.64277" height="2.88092" rx="1.44046" transform="rotate(45 75.7834 434.318)" fill="white"/>
<rect x="91.062" y="431.263" width="15.8451" height="2.88092" rx="1.44046" transform="rotate(135 91.062 431.263)" fill="white"/>
<path d="M137.444 445.276L137.419 434.784L132.273 443.428H130.449L125.328 435.009V445.276H121.531V427.789H124.878L131.424 438.656L137.869 427.789H141.191L141.241 445.276H137.444ZM151.511 445.476C150.095 445.476 148.821 445.185 147.688 444.602C146.573 444.002 145.698 443.178 145.065 442.129C144.432 441.079 144.116 439.889 144.116 438.556C144.116 437.224 144.432 436.033 145.065 434.984C145.698 433.935 146.573 433.119 147.688 432.536C148.821 431.936 150.095 431.636 151.511 431.636C152.926 431.636 154.192 431.936 155.308 432.536C156.424 433.119 157.298 433.935 157.931 434.984C158.564 436.033 158.88 437.224 158.88 438.556C158.88 439.889 158.564 441.079 157.931 442.129C157.298 443.178 156.424 444.002 155.308 444.602C154.192 445.185 152.926 445.476 151.511 445.476ZM151.511 442.279C152.51 442.279 153.326 441.946 153.959 441.279C154.608 440.597 154.933 439.689 154.933 438.556C154.933 437.424 154.608 436.525 153.959 435.858C153.326 435.176 152.51 434.834 151.511 434.834C150.511 434.834 149.687 435.176 149.037 435.858C148.388 436.525 148.063 437.424 148.063 438.556C148.063 439.689 148.388 440.597 149.037 441.279C149.687 441.946 150.511 442.279 151.511 442.279ZM169.654 431.636C171.319 431.636 172.66 432.136 173.676 433.135C174.709 434.135 175.225 435.617 175.225 437.582V445.276H171.328V438.182C171.328 437.116 171.095 436.325 170.628 435.808C170.162 435.275 169.487 435.009 168.605 435.009C167.622 435.009 166.839 435.317 166.256 435.933C165.674 436.533 165.382 437.432 165.382 438.631V445.276H161.485V431.836H165.207V433.41C165.724 432.844 166.365 432.411 167.131 432.111C167.897 431.795 168.738 431.636 169.654 431.636ZM187.426 444.627C187.043 444.91 186.568 445.126 186.002 445.276C185.452 445.41 184.87 445.476 184.253 445.476C182.654 445.476 181.414 445.068 180.531 444.252C179.665 443.436 179.232 442.237 179.232 440.655V435.134H177.159V432.136H179.232V428.864H183.129V432.136H186.477V435.134H183.129V440.605C183.129 441.171 183.271 441.612 183.554 441.929C183.854 442.229 184.27 442.379 184.803 442.379C185.419 442.379 185.944 442.212 186.377 441.879L187.426 444.627ZM197.783 431.636C199.448 431.636 200.789 432.136 201.805 433.135C202.837 434.135 203.353 435.617 203.353 437.582V445.276H199.456V438.182C199.456 437.116 199.223 436.325 198.757 435.808C198.29 435.275 197.616 435.009 196.733 435.009C195.751 435.009 194.968 435.317 194.385 435.933C193.802 436.533 193.511 437.432 193.511 438.631V445.276H189.614V426.74H193.511V433.235C194.027 432.719 194.652 432.328 195.384 432.061C196.117 431.778 196.916 431.636 197.783 431.636ZM206.886 426.74H210.783V445.276H206.886V426.74ZM227.74 431.836L221.669 446.101C221.053 447.65 220.287 448.74 219.371 449.373C218.472 450.006 217.381 450.323 216.099 450.323C215.399 450.323 214.708 450.214 214.025 449.998C213.342 449.781 212.784 449.482 212.351 449.099L213.775 446.326C214.075 446.592 214.417 446.8 214.8 446.95C215.199 447.1 215.591 447.175 215.974 447.175C216.507 447.175 216.94 447.042 217.273 446.775C217.606 446.525 217.906 446.101 218.172 445.501L218.222 445.376L212.401 431.836H216.423L220.196 440.955L223.993 431.836H227.74ZM248.196 441.529H240.077L238.528 445.276H234.382L242.176 427.789H246.173L253.992 445.276H249.745L248.196 441.529ZM246.922 438.456L244.149 431.761L241.376 438.456H246.922ZM263.7 431.636C265.366 431.636 266.707 432.136 267.722 433.135C268.755 434.135 269.271 435.617 269.271 437.582V445.276H265.374V438.182C265.374 437.116 265.141 436.325 264.675 435.808C264.208 435.275 263.534 435.009 262.651 435.009C261.669 435.009 260.886 435.317 260.303 435.933C259.72 436.533 259.429 437.432 259.429 438.631V445.276H255.532V431.836H259.254V433.41C259.77 432.844 260.411 432.411 261.177 432.111C261.943 431.795 262.784 431.636 263.7 431.636ZM278.225 431.636C280.307 431.636 281.905 432.136 283.021 433.135C284.137 434.118 284.695 435.609 284.695 437.607V445.276H281.048V443.603C280.315 444.852 278.949 445.476 276.951 445.476C275.918 445.476 275.019 445.301 274.253 444.952C273.503 444.602 272.929 444.119 272.529 443.503C272.129 442.886 271.929 442.187 271.929 441.404C271.929 440.155 272.396 439.173 273.328 438.456C274.278 437.74 275.735 437.382 277.7 437.382H280.798C280.798 436.533 280.54 435.883 280.023 435.434C279.507 434.967 278.733 434.734 277.7 434.734C276.984 434.734 276.276 434.851 275.577 435.084C274.894 435.3 274.311 435.6 273.828 435.983L272.429 433.26C273.162 432.744 274.036 432.344 275.052 432.061C276.085 431.778 277.142 431.636 278.225 431.636ZM277.925 442.853C278.591 442.853 279.182 442.703 279.699 442.403C280.215 442.087 280.581 441.629 280.798 441.03V439.656H278.125C276.526 439.656 275.727 440.18 275.727 441.229C275.727 441.729 275.918 442.129 276.301 442.428C276.701 442.712 277.242 442.853 277.925 442.853ZM288.222 426.74H292.119V445.276H288.222V426.74ZM309.076 431.836L303.006 446.101C302.389 447.65 301.623 448.74 300.707 449.373C299.808 450.006 298.717 450.323 297.435 450.323C296.735 450.323 296.044 450.214 295.361 449.998C294.679 449.781 294.121 449.482 293.688 449.099L295.112 446.326C295.411 446.592 295.753 446.8 296.136 446.95C296.535 447.1 296.927 447.175 297.31 447.175C297.843 447.175 298.276 447.042 298.609 446.775C298.942 446.525 299.242 446.101 299.508 445.501L299.558 445.376L293.738 431.836H297.76L301.532 440.955L305.329 431.836H309.076ZM319.701 444.627C319.318 444.91 318.843 445.126 318.277 445.276C317.727 445.41 317.144 445.476 316.528 445.476C314.929 445.476 313.689 445.068 312.806 444.252C311.94 443.436 311.507 442.237 311.507 440.655V435.134H309.434V432.136H311.507V428.864H315.404V432.136H318.752V435.134H315.404V440.605C315.404 441.171 315.546 441.612 315.829 441.929C316.129 442.229 316.545 442.379 317.078 442.379C317.694 442.379 318.219 442.212 318.652 441.879L319.701 444.627ZM321.889 431.836H325.786V445.276H321.889V431.836ZM323.837 429.963C323.121 429.963 322.538 429.755 322.088 429.338C321.639 428.922 321.414 428.406 321.414 427.789C321.414 427.173 321.639 426.657 322.088 426.24C322.538 425.824 323.121 425.616 323.837 425.616C324.553 425.616 325.136 425.816 325.586 426.216C326.035 426.615 326.26 427.115 326.26 427.714C326.26 428.364 326.035 428.905 325.586 429.338C325.136 429.755 324.553 429.963 323.837 429.963ZM335.898 445.476C334.465 445.476 333.175 445.185 332.026 444.602C330.893 444.002 330.002 443.178 329.353 442.129C328.72 441.079 328.403 439.889 328.403 438.556C328.403 437.224 328.72 436.033 329.353 434.984C330.002 433.935 330.893 433.119 332.026 432.536C333.175 431.936 334.465 431.636 335.898 431.636C337.313 431.636 338.546 431.936 339.595 432.536C340.661 433.119 341.435 433.96 341.918 435.059L338.895 436.683C338.196 435.45 337.188 434.834 335.873 434.834C334.857 434.834 334.016 435.167 333.35 435.833C332.683 436.5 332.35 437.407 332.35 438.556C332.35 439.705 332.683 440.613 333.35 441.279C334.016 441.946 334.857 442.279 335.873 442.279C337.205 442.279 338.213 441.662 338.895 440.43L341.918 442.079C341.435 443.145 340.661 443.977 339.595 444.577C338.546 445.176 337.313 445.476 335.898 445.476ZM348.684 445.476C347.568 445.476 346.477 445.343 345.411 445.077C344.345 444.793 343.496 444.444 342.863 444.027L344.162 441.229C344.762 441.612 345.486 441.929 346.335 442.179C347.185 442.412 348.018 442.528 348.834 442.528C350.482 442.528 351.307 442.12 351.307 441.304C351.307 440.921 351.082 440.646 350.632 440.48C350.183 440.313 349.491 440.172 348.559 440.055C347.46 439.889 346.552 439.697 345.836 439.481C345.12 439.264 344.495 438.881 343.962 438.332C343.446 437.782 343.188 436.999 343.188 435.983C343.188 435.134 343.429 434.384 343.912 433.735C344.412 433.069 345.128 432.552 346.061 432.186C347.01 431.82 348.126 431.636 349.408 431.636C350.357 431.636 351.298 431.745 352.231 431.961C353.18 432.161 353.963 432.444 354.579 432.811L353.28 435.584C352.098 434.917 350.807 434.584 349.408 434.584C348.575 434.584 347.951 434.701 347.535 434.934C347.118 435.167 346.91 435.467 346.91 435.833C346.91 436.25 347.135 436.541 347.585 436.708C348.034 436.874 348.75 437.032 349.733 437.182C350.832 437.366 351.731 437.565 352.431 437.782C353.13 437.982 353.738 438.356 354.255 438.906C354.771 439.456 355.029 440.222 355.029 441.204C355.029 442.037 354.779 442.778 354.28 443.428C353.78 444.077 353.047 444.585 352.081 444.952C351.132 445.301 349.999 445.476 348.684 445.476Z" fill="#1A1A1A"/>
<path d="M74.2137 65.6C77.115 65.6 79.3977 66.2933 81.0617 67.68C82.7257 69.0667 83.5577 70.976 83.5577 73.408C83.5577 75.84 82.7257 77.7493 81.0617 79.136C79.3977 80.5227 77.115 81.216 74.2137 81.216H68.6777V88H65.4777V65.6H74.2137ZM74.1177 78.432C76.1443 78.432 77.691 78.0053 78.7577 77.152C79.8243 76.2773 80.3577 75.0293 80.3577 73.408C80.3577 71.7867 79.8243 70.5493 78.7577 69.696C77.691 68.8213 76.1443 68.384 74.1177 68.384H68.6777V78.432H74.1177ZM90.4737 73.888C91.007 72.9067 91.7963 72.16 92.8417 71.648C93.887 71.136 95.1563 70.88 96.6497 70.88V73.856C96.479 73.8347 96.2443 73.824 95.9457 73.824C94.2817 73.824 92.9697 74.3253 92.0097 75.328C91.071 76.3093 90.6017 77.7173 90.6017 79.552V88H87.5297V71.04H90.4737V73.888ZM115.608 79.616C115.608 79.8507 115.586 80.16 115.544 80.544H101.784C101.976 82.0373 102.626 83.2427 103.736 84.16C104.866 85.056 106.264 85.504 107.928 85.504C109.954 85.504 111.586 84.8213 112.824 83.456L114.52 85.44C113.752 86.336 112.792 87.0187 111.64 87.488C110.509 87.9573 109.24 88.192 107.832 88.192C106.04 88.192 104.45 87.8293 103.064 87.104C101.677 86.3573 100.6 85.3227 99.8317 84C99.085 82.6773 98.7117 81.184 98.7117 79.52C98.7117 77.8773 99.0743 76.3947 99.7997 75.072C100.546 73.7493 101.56 72.7253 102.84 72C104.141 71.2533 105.602 70.88 107.224 70.88C108.845 70.88 110.285 71.2533 111.544 72C112.824 72.7253 113.816 73.7493 114.52 75.072C115.245 76.3947 115.608 77.9093 115.608 79.616ZM107.224 73.472C105.752 73.472 104.514 73.92 103.512 74.816C102.53 75.712 101.954 76.8853 101.784 78.336H112.664C112.493 76.9067 111.906 75.744 110.904 74.848C109.922 73.9307 108.696 73.472 107.224 73.472ZM141.089 70.88C143.223 70.88 144.908 71.4987 146.145 72.736C147.404 73.9733 148.033 75.808 148.033 78.24V88H144.961V78.592C144.961 76.9493 144.577 75.712 143.809 74.88C143.063 74.048 141.985 73.632 140.577 73.632C139.02 73.632 137.783 74.1227 136.865 75.104C135.948 76.064 135.489 77.4507 135.489 79.264V88H132.417V78.592C132.417 76.9493 132.033 75.712 131.265 74.88C130.519 74.048 129.441 73.632 128.033 73.632C126.476 73.632 125.239 74.1227 124.321 75.104C123.404 76.064 122.945 77.4507 122.945 79.264V88H119.873V71.04H122.817V73.568C123.436 72.6933 124.247 72.032 125.249 71.584C126.252 71.1147 127.393 70.88 128.673 70.88C129.996 70.88 131.169 71.1467 132.193 71.68C133.217 72.2133 134.007 72.992 134.561 74.016C135.201 73.0347 136.087 72.2667 137.217 71.712C138.369 71.1573 139.66 70.88 141.089 70.88ZM153.686 71.04H156.758V88H153.686V71.04ZM155.222 67.776C154.625 67.776 154.123 67.584 153.718 67.2C153.334 66.816 153.142 66.3467 153.142 65.792C153.142 65.2373 153.334 64.768 153.718 64.384C154.123 63.9787 154.625 63.776 155.222 63.776C155.819 63.776 156.31 63.968 156.694 64.352C157.099 64.7147 157.302 65.1733 157.302 65.728C157.302 66.304 157.099 66.7947 156.694 67.2C156.31 67.584 155.819 67.776 155.222 67.776ZM178.431 71.04V88H175.519V85.44C174.901 86.3147 174.079 86.9973 173.055 87.488C172.053 87.9573 170.954 88.192 169.759 88.192C167.498 88.192 165.717 87.5733 164.415 86.336C163.114 85.0773 162.463 83.232 162.463 80.8V71.04H165.535V80.448C165.535 82.0907 165.93 83.3387 166.719 84.192C167.509 85.024 168.639 85.44 170.111 85.44C171.733 85.44 173.013 84.9493 173.951 83.968C174.89 82.9867 175.359 81.6 175.359 79.808V71.04H178.431ZM205.496 70.88C207.629 70.88 209.314 71.4987 210.552 72.736C211.81 73.9733 212.44 75.808 212.44 78.24V88H209.368V78.592C209.368 76.9493 208.984 75.712 208.216 74.88C207.469 74.048 206.392 73.632 204.984 73.632C203.426 73.632 202.189 74.1227 201.272 75.104C200.354 76.064 199.896 77.4507 199.896 79.264V88H196.824V78.592C196.824 76.9493 196.44 75.712 195.672 74.88C194.925 74.048 193.848 73.632 192.44 73.632C190.882 73.632 189.645 74.1227 188.728 75.104C187.81 76.064 187.352 77.4507 187.352 79.264V88H184.28V71.04H187.224V73.568C187.842 72.6933 188.653 72.032 189.656 71.584C190.658 71.1147 191.8 70.88 193.08 70.88C194.402 70.88 195.576 71.1467 196.6 71.68C197.624 72.2133 198.413 72.992 198.968 74.016C199.608 73.0347 200.493 72.2667 201.624 71.712C202.776 71.1573 204.066 70.88 205.496 70.88Z" fill="#1A1A1A"/>
<path d="M106.038 183.24C106.038 187.176 104.598 190.56 101.718 193.392C98.8377 196.176 94.6857 197.904 89.2617 198.576V206.64H82.0617V198.792C78.5097 198.6 75.1257 197.976 71.9097 196.92C68.6937 195.864 66.1017 194.568 64.1337 193.032L68.0937 184.248C69.9177 185.592 72.0537 186.72 74.5017 187.632C76.9497 188.544 79.4697 189.12 82.0617 189.36V177.336C78.6537 176.52 75.7737 175.608 73.4217 174.6C71.0697 173.592 69.1017 172.128 67.5177 170.208C65.9337 168.24 65.1417 165.648 65.1417 162.432C65.1417 158.448 66.5817 155.04 69.4617 152.208C72.3897 149.328 76.5897 147.576 82.0617 146.952V138.96H89.2617V146.808C95.1657 147.288 100.038 148.752 103.878 151.2L100.278 160.056C96.6777 157.992 93.0057 156.744 89.2617 156.312V168.552C92.6217 169.32 95.4537 170.208 97.7577 171.216C100.11 172.176 102.078 173.64 103.662 175.608C105.246 177.528 106.038 180.072 106.038 183.24ZM76.7337 161.856C76.7337 163.056 77.1897 164.04 78.1017 164.808C79.0137 165.576 80.3337 166.224 82.0617 166.752V156.528C80.2377 156.96 78.8937 157.656 78.0297 158.616C77.1657 159.528 76.7337 160.608 76.7337 161.856ZM89.2617 189.072C90.9897 188.688 92.2857 188.064 93.1497 187.2C94.0137 186.336 94.4457 185.304 94.4457 184.104C94.4457 182.904 93.9897 181.92 93.0777 181.152C92.2137 180.384 90.9417 179.712 89.2617 179.136V189.072ZM129.577 147.6V198H117.913V156.96H107.833V147.6H129.577ZM159.932 198.864C155.756 198.864 152.036 197.832 148.772 195.768C145.508 193.704 142.94 190.728 141.068 186.84C139.244 182.904 138.332 178.224 138.332 172.8C138.332 167.376 139.244 162.72 141.068 158.832C142.94 154.896 145.508 151.896 148.772 149.832C152.036 147.768 155.756 146.736 159.932 146.736C164.108 146.736 167.828 147.768 171.092 149.832C174.356 151.896 176.9 154.896 178.724 158.832C180.596 162.72 181.532 167.376 181.532 172.8C181.532 178.224 180.596 182.904 178.724 186.84C176.9 190.728 174.356 193.704 171.092 195.768C167.828 197.832 164.108 198.864 159.932 198.864ZM159.932 189C163.004 189 165.404 187.68 167.132 185.04C168.908 182.4 169.796 178.32 169.796 172.8C169.796 167.28 168.908 163.2 167.132 160.56C165.404 157.92 163.004 156.6 159.932 156.6C156.908 156.6 154.508 157.92 152.732 160.56C151.004 163.2 150.14 167.28 150.14 172.8C150.14 178.32 151.004 182.4 152.732 185.04C154.508 187.68 156.908 189 159.932 189ZM208.799 198.864C204.623 198.864 200.903 197.832 197.639 195.768C194.375 193.704 191.807 190.728 189.935 186.84C188.111 182.904 187.199 178.224 187.199 172.8C187.199 167.376 188.111 162.72 189.935 158.832C191.807 154.896 194.375 151.896 197.639 149.832C200.903 147.768 204.623 146.736 208.799 146.736C212.975 146.736 216.695 147.768 219.959 149.832C223.223 151.896 225.767 154.896 227.591 158.832C229.463 162.72 230.399 167.376 230.399 172.8C230.399 178.224 229.463 182.904 227.591 186.84C225.767 190.728 223.223 193.704 219.959 195.768C216.695 197.832 212.975 198.864 208.799 198.864ZM208.799 189C211.871 189 214.271 187.68 215.999 185.04C217.775 182.4 218.663 178.32 218.663 172.8C218.663 167.28 217.775 163.2 215.999 160.56C214.271 157.92 211.871 156.6 208.799 156.6C205.775 156.6 203.375 157.92 201.599 160.56C199.871 163.2 199.007 167.28 199.007 172.8C199.007 178.32 199.871 182.4 201.599 185.04C203.375 187.68 205.775 189 208.799 189ZM257.666 198.864C253.49 198.864 249.77 197.832 246.506 195.768C243.242 193.704 240.674 190.728 238.802 186.84C236.978 182.904 236.066 178.224 236.066 172.8C236.066 167.376 236.978 162.72 238.802 158.832C240.674 154.896 243.242 151.896 246.506 149.832C249.77 147.768 253.49 146.736 257.666 146.736C261.842 146.736 265.562 147.768 268.826 149.832C272.09 151.896 274.634 154.896 276.458 158.832C278.33 162.72 279.266 167.376 279.266 172.8C279.266 178.224 278.33 182.904 276.458 186.84C274.634 190.728 272.09 193.704 268.826 195.768C265.562 197.832 261.842 198.864 257.666 198.864ZM257.666 189C260.738 189 263.138 187.68 264.866 185.04C266.642 182.4 267.53 178.32 267.53 172.8C267.53 167.28 266.642 163.2 264.866 160.56C263.138 157.92 260.738 156.6 257.666 156.6C254.642 156.6 252.242 157.92 250.466 160.56C248.738 163.2 247.874 167.28 247.874 172.8C247.874 178.32 248.738 182.4 250.466 185.04C252.242 187.68 254.642 189 257.666 189ZM288.065 181.16H290.845L284.245 200H281.465L288.065 181.16ZM304.358 198L304.338 189.6L300.218 196.52H298.758L294.658 189.78V198H291.618V184H294.298L299.538 192.7L304.698 184H307.358L307.398 198H304.358ZM315.619 198.16C314.486 198.16 313.466 197.927 312.559 197.46C311.666 196.98 310.966 196.32 310.459 195.48C309.952 194.64 309.699 193.687 309.699 192.62C309.699 191.553 309.952 190.6 310.459 189.76C310.966 188.92 311.666 188.267 312.559 187.8C313.466 187.32 314.486 187.08 315.619 187.08C316.752 187.08 317.766 187.32 318.659 187.8C319.552 188.267 320.252 188.92 320.759 189.76C321.266 190.6 321.519 191.553 321.519 192.62C321.519 193.687 321.266 194.64 320.759 195.48C320.252 196.32 319.552 196.98 318.659 197.46C317.766 197.927 316.752 198.16 315.619 198.16ZM315.619 195.6C316.419 195.6 317.072 195.333 317.579 194.8C318.099 194.253 318.359 193.527 318.359 192.62C318.359 191.713 318.099 190.993 317.579 190.46C317.072 189.913 316.419 189.64 315.619 189.64C314.819 189.64 314.159 189.913 313.639 190.46C313.119 190.993 312.859 191.713 312.859 192.62C312.859 193.527 313.119 194.253 313.639 194.8C314.159 195.333 314.819 195.6 315.619 195.6ZM330.145 187.08C331.478 187.08 332.551 187.48 333.365 188.28C334.191 189.08 334.605 190.267 334.605 191.84V198H331.485V192.32C331.485 191.467 331.298 190.833 330.925 190.42C330.551 189.993 330.011 189.78 329.305 189.78C328.518 189.78 327.891 190.027 327.425 190.52C326.958 191 326.725 191.72 326.725 192.68V198H323.605V187.24H326.585V188.5C326.998 188.047 327.511 187.7 328.125 187.46C328.738 187.207 329.411 187.08 330.145 187.08ZM344.373 197.48C344.066 197.707 343.686 197.88 343.233 198C342.793 198.107 342.326 198.16 341.833 198.16C340.553 198.16 339.559 197.833 338.853 197.18C338.159 196.527 337.813 195.567 337.813 194.3V189.88H336.153V187.48H337.813V184.86H340.933V187.48H343.613V189.88H340.933V194.26C340.933 194.713 341.046 195.067 341.273 195.32C341.513 195.56 341.846 195.68 342.273 195.68C342.766 195.68 343.186 195.547 343.533 195.28L344.373 197.48ZM352.664 187.08C353.997 187.08 355.071 187.48 355.884 188.28C356.711 189.08 357.124 190.267 357.124 191.84V198H354.004V192.32C354.004 191.467 353.817 190.833 353.444 190.42C353.071 189.993 352.531 189.78 351.824 189.78C351.037 189.78 350.411 190.027 349.944 190.52C349.477 191 349.244 191.72 349.244 192.68V198H346.124V183.16H349.244V188.36C349.657 187.947 350.157 187.633 350.744 187.42C351.331 187.193 351.971 187.08 352.664 187.08Z" fill="#1A1A1A"/>
<rect x="62" y="616" width="749" height="83" rx="16" fill="#130F26"/>
<path d="M382.392 665.264C380.823 665.264 379.4 664.927 378.124 664.252C376.863 663.563 375.866 662.617 375.132 661.414C374.414 660.197 374.054 658.825 374.054 657.3C374.054 655.775 374.414 654.411 375.132 653.208C375.866 651.991 376.863 651.045 378.124 650.37C379.4 649.681 380.83 649.336 382.414 649.336C383.749 649.336 384.952 649.571 386.022 650.04C387.108 650.509 388.017 651.184 388.75 652.064L386.462 654.176C385.421 652.973 384.13 652.372 382.59 652.372C381.637 652.372 380.786 652.585 380.038 653.01C379.29 653.421 378.704 654 378.278 654.748C377.868 655.496 377.662 656.347 377.662 657.3C377.662 658.253 377.868 659.104 378.278 659.852C378.704 660.6 379.29 661.187 380.038 661.612C380.786 662.023 381.637 662.228 382.59 662.228C384.13 662.228 385.421 661.619 386.462 660.402L388.75 662.514C388.017 663.409 387.108 664.091 386.022 664.56C384.937 665.029 383.727 665.264 382.392 665.264ZM396.139 665.176C394.892 665.176 393.77 664.919 392.773 664.406C391.79 663.878 391.02 663.152 390.463 662.228C389.906 661.304 389.627 660.255 389.627 659.082C389.627 657.909 389.906 656.86 390.463 655.936C391.02 655.012 391.79 654.293 392.773 653.78C393.77 653.252 394.892 652.988 396.139 652.988C397.386 652.988 398.5 653.252 399.483 653.78C400.466 654.293 401.236 655.012 401.793 655.936C402.35 656.86 402.629 657.909 402.629 659.082C402.629 660.255 402.35 661.304 401.793 662.228C401.236 663.152 400.466 663.878 399.483 664.406C398.5 664.919 397.386 665.176 396.139 665.176ZM396.139 662.36C397.019 662.36 397.738 662.067 398.295 661.48C398.867 660.879 399.153 660.079 399.153 659.082C399.153 658.085 398.867 657.293 398.295 656.706C397.738 656.105 397.019 655.804 396.139 655.804C395.259 655.804 394.533 656.105 393.961 656.706C393.389 657.293 393.103 658.085 393.103 659.082C393.103 660.079 393.389 660.879 393.961 661.48C394.533 662.067 395.259 662.36 396.139 662.36ZM412.117 652.988C413.584 652.988 414.764 653.428 415.659 654.308C416.568 655.188 417.023 656.493 417.023 658.224V665H413.591V658.752C413.591 657.813 413.386 657.117 412.975 656.662C412.564 656.193 411.97 655.958 411.193 655.958C410.328 655.958 409.638 656.229 409.125 656.772C408.612 657.3 408.355 658.092 408.355 659.148V665H404.923V653.164H408.201V654.55C408.656 654.051 409.22 653.67 409.895 653.406C410.57 653.127 411.31 652.988 412.117 652.988ZM427.768 664.428C427.43 664.677 427.012 664.868 426.514 665C426.03 665.117 425.516 665.176 424.974 665.176C423.566 665.176 422.473 664.817 421.696 664.098C420.933 663.379 420.552 662.323 420.552 660.93V656.068H418.726V653.428H420.552V650.546H423.984V653.428H426.932V656.068H423.984V660.886C423.984 661.385 424.108 661.773 424.358 662.052C424.622 662.316 424.988 662.448 425.458 662.448C426 662.448 426.462 662.301 426.844 662.008L427.768 664.428ZM434.468 652.988C436.302 652.988 437.71 653.428 438.692 654.308C439.675 655.173 440.166 656.486 440.166 658.246V665H436.954V663.526C436.309 664.626 435.106 665.176 433.346 665.176C432.437 665.176 431.645 665.022 430.97 664.714C430.31 664.406 429.804 663.981 429.452 663.438C429.1 662.895 428.924 662.279 428.924 661.59C428.924 660.49 429.335 659.625 430.156 658.994C430.992 658.363 432.276 658.048 434.006 658.048H436.734C436.734 657.3 436.507 656.728 436.052 656.332C435.598 655.921 434.916 655.716 434.006 655.716C433.376 655.716 432.752 655.819 432.136 656.024C431.535 656.215 431.022 656.479 430.596 656.816L429.364 654.418C430.01 653.963 430.78 653.611 431.674 653.362C432.584 653.113 433.515 652.988 434.468 652.988ZM434.204 662.866C434.791 662.866 435.312 662.734 435.766 662.47C436.221 662.191 436.544 661.788 436.734 661.26V660.05H434.38C432.972 660.05 432.268 660.512 432.268 661.436C432.268 661.876 432.437 662.228 432.774 662.492C433.126 662.741 433.603 662.866 434.204 662.866ZM449.121 665.176C447.86 665.176 446.723 664.919 445.711 664.406C444.714 663.878 443.929 663.152 443.357 662.228C442.8 661.304 442.521 660.255 442.521 659.082C442.521 657.909 442.8 656.86 443.357 655.936C443.929 655.012 444.714 654.293 445.711 653.78C446.723 653.252 447.86 652.988 449.121 652.988C450.368 652.988 451.453 653.252 452.377 653.78C453.316 654.293 453.998 655.034 454.423 656.002L451.761 657.432C451.145 656.347 450.258 655.804 449.099 655.804C448.205 655.804 447.464 656.097 446.877 656.684C446.291 657.271 445.997 658.07 445.997 659.082C445.997 660.094 446.291 660.893 446.877 661.48C447.464 662.067 448.205 662.36 449.099 662.36C450.273 662.36 451.16 661.817 451.761 660.732L454.423 662.184C453.998 663.123 453.316 663.856 452.377 664.384C451.453 664.912 450.368 665.176 449.121 665.176ZM464.205 664.428C463.868 664.677 463.45 664.868 462.951 665C462.467 665.117 461.954 665.176 461.411 665.176C460.003 665.176 458.911 664.817 458.133 664.098C457.371 663.379 456.989 662.323 456.989 660.93V656.068H455.163V653.428H456.989V650.546H460.421V653.428H463.369V656.068H460.421V660.886C460.421 661.385 460.546 661.773 460.795 662.052C461.059 662.316 461.426 662.448 461.895 662.448C462.438 662.448 462.9 662.301 463.281 662.008L464.205 664.428ZM479.446 665.264C477.246 665.264 475.53 664.655 474.298 663.438C473.081 662.221 472.472 660.483 472.472 658.224V649.6H476.036V658.092C476.036 660.849 477.18 662.228 479.468 662.228C480.583 662.228 481.434 661.898 482.02 661.238C482.607 660.563 482.9 659.515 482.9 658.092V649.6H486.42V658.224C486.42 660.483 485.804 662.221 484.572 663.438C483.355 664.655 481.646 665.264 479.446 665.264ZM493.682 665.176C492.7 665.176 491.739 665.059 490.8 664.824C489.862 664.575 489.114 664.267 488.556 663.9L489.7 661.436C490.228 661.773 490.866 662.052 491.614 662.272C492.362 662.477 493.096 662.58 493.814 662.58C495.266 662.58 495.992 662.221 495.992 661.502C495.992 661.165 495.794 660.923 495.398 660.776C495.002 660.629 494.394 660.505 493.572 660.402C492.604 660.255 491.805 660.087 491.174 659.896C490.544 659.705 489.994 659.368 489.524 658.884C489.07 658.4 488.842 657.711 488.842 656.816C488.842 656.068 489.055 655.408 489.48 654.836C489.92 654.249 490.551 653.795 491.372 653.472C492.208 653.149 493.191 652.988 494.32 652.988C495.156 652.988 495.985 653.083 496.806 653.274C497.642 653.45 498.332 653.699 498.874 654.022L497.73 656.464C496.689 655.877 495.552 655.584 494.32 655.584C493.587 655.584 493.037 655.687 492.67 655.892C492.304 656.097 492.12 656.361 492.12 656.684C492.12 657.051 492.318 657.307 492.714 657.454C493.11 657.601 493.741 657.74 494.606 657.872C495.574 658.033 496.366 658.209 496.982 658.4C497.598 658.576 498.134 658.906 498.588 659.39C499.043 659.874 499.27 660.549 499.27 661.414C499.27 662.147 499.05 662.8 498.61 663.372C498.17 663.944 497.525 664.391 496.674 664.714C495.838 665.022 494.841 665.176 493.682 665.176Z" fill="white"/>
<defs>
<linearGradient id="paint0_linear_236_334" x1="15.0047" y1="12.7627" x2="628.397" y2="905.986" gradientUnits="userSpaceOnUse">
<stop stop-color="#FF8000"/>
<stop offset="0.2" stop-color="#FF4880"/>
<stop offset="0.369792" stop-color="#FF004F"/>
<stop offset="0.578125" stop-color="#7F30FF"/>
<stop offset="0.8" stop-color="#466FFF"/>
<stop offset="1" stop-color="#75D4FF"/>
</linearGradient>
</defs>
</svg>
