<svg width="873" height="986" viewBox="0 0 873 986" fill="none" xmlns="http://www.w3.org/2000/svg">
<rect x="1.5" y="1.5" width="870" height="983" rx="30.5" fill="white" stroke="url(#paint0_linear_248_415)" stroke-width="3" stroke-miterlimit="2.61313"/>
<path d="M84.2062 378.237C84.2062 389.824 93.6274 399.266 105.236 399.266C116.823 399.266 126.265 389.824 126.265 378.237C126.265 366.628 116.823 357.207 105.236 357.207C93.6274 357.207 84.2062 366.628 84.2062 378.237V378.237Z" fill="#130F26"/>
<rect x="97.4045" y="376.251" width="10.9133" height="3.63778" rx="1.81889" transform="rotate(45 97.4045 376.251)" fill="white"/>
<rect x="116.697" y="372.393" width="20.0078" height="3.63778" rx="1.81889" transform="rotate(135 116.697 372.393)" fill="white"/>
<path d="M155.17 367.439H160.281V389.521H155.17V367.439ZM175.489 372.297C177.592 372.297 179.285 372.928 180.568 374.19C181.871 375.452 182.523 377.323 182.523 379.805V389.521H177.602V380.562C177.602 379.216 177.308 378.217 176.719 377.565C176.13 376.892 175.279 376.556 174.164 376.556C172.923 376.556 171.935 376.945 171.199 377.723C170.463 378.48 170.095 379.616 170.095 381.13V389.521H165.174V372.55H169.874V374.537C170.526 373.822 171.336 373.275 172.303 372.897C173.27 372.497 174.332 372.297 175.489 372.297ZM192.693 389.773C191.284 389.773 189.907 389.605 188.561 389.268C187.215 388.911 186.143 388.469 185.344 387.943L186.984 384.41C187.741 384.894 188.656 385.294 189.728 385.609C190.801 385.903 191.852 386.051 192.883 386.051C194.965 386.051 196.006 385.535 196.006 384.505C196.006 384.021 195.722 383.674 195.154 383.464C194.586 383.254 193.713 383.075 192.536 382.928C191.148 382.717 190.002 382.476 189.097 382.202C188.193 381.929 187.404 381.445 186.731 380.751C186.08 380.057 185.754 379.069 185.754 377.786C185.754 376.713 186.059 375.767 186.668 374.947C187.299 374.106 188.204 373.454 189.381 372.991C190.58 372.529 191.989 372.297 193.608 372.297C194.807 372.297 195.995 372.434 197.173 372.707C198.371 372.96 199.36 373.317 200.138 373.78L198.498 377.281C197.004 376.44 195.375 376.02 193.608 376.02C192.557 376.02 191.768 376.167 191.242 376.461C190.717 376.756 190.454 377.134 190.454 377.597C190.454 378.122 190.738 378.49 191.305 378.701C191.873 378.911 192.777 379.111 194.018 379.3C195.406 379.531 196.542 379.784 197.425 380.057C198.308 380.31 199.076 380.783 199.728 381.477C200.38 382.171 200.706 383.138 200.706 384.379C200.706 385.43 200.39 386.366 199.759 387.186C199.128 388.006 198.203 388.648 196.983 389.11C195.785 389.552 194.355 389.773 192.693 389.773ZM214.688 388.7C214.204 389.058 213.605 389.331 212.89 389.521C212.196 389.689 211.46 389.773 210.682 389.773C208.663 389.773 207.096 389.258 205.981 388.227C204.888 387.197 204.341 385.683 204.341 383.685V376.713H201.723V372.928H204.341V368.796H209.262V372.928H213.489V376.713H209.262V383.622C209.262 384.337 209.441 384.894 209.798 385.294C210.177 385.672 210.703 385.861 211.376 385.861C212.154 385.861 212.816 385.651 213.363 385.23L214.688 388.7ZM224.295 372.297C226.924 372.297 228.943 372.928 230.352 374.19C231.761 375.431 232.465 377.313 232.465 379.836V389.521H227.86V387.407C226.934 388.984 225.21 389.773 222.686 389.773C221.383 389.773 220.247 389.552 219.28 389.11C218.333 388.669 217.608 388.059 217.103 387.281C216.598 386.503 216.346 385.62 216.346 384.631C216.346 383.054 216.935 381.813 218.112 380.909C219.311 380.005 221.151 379.552 223.633 379.552H227.544C227.544 378.48 227.218 377.66 226.566 377.092C225.914 376.503 224.937 376.209 223.633 376.209C222.728 376.209 221.835 376.356 220.951 376.65C220.089 376.924 219.353 377.302 218.743 377.786L216.977 374.348C217.902 373.696 219.006 373.191 220.289 372.834C221.593 372.476 222.928 372.297 224.295 372.297ZM223.917 386.461C224.758 386.461 225.504 386.271 226.156 385.893C226.808 385.493 227.271 384.915 227.544 384.158V382.423H224.169C222.15 382.423 221.141 383.085 221.141 384.41C221.141 385.041 221.383 385.546 221.866 385.924C222.371 386.282 223.054 386.461 223.917 386.461ZM254.611 372.55V386.682C254.611 389.794 253.801 392.107 252.182 393.621C250.563 395.135 248.197 395.892 245.084 395.892C243.444 395.892 241.888 395.693 240.416 395.293C238.944 394.894 237.724 394.315 236.757 393.558L238.712 390.025C239.427 390.614 240.332 391.077 241.425 391.413C242.519 391.771 243.612 391.949 244.706 391.949C246.409 391.949 247.661 391.56 248.46 390.782C249.28 390.025 249.69 388.869 249.69 387.312V386.587C248.407 387.996 246.62 388.7 244.327 388.7C242.771 388.7 241.341 388.364 240.037 387.691C238.755 386.997 237.735 386.03 236.978 384.789C236.22 383.548 235.842 382.118 235.842 380.499C235.842 378.88 236.22 377.45 236.978 376.209C237.735 374.968 238.755 374.011 240.037 373.338C241.341 372.644 242.771 372.297 244.327 372.297C246.788 372.297 248.659 373.107 249.942 374.726V372.55H254.611ZM245.305 384.663C246.609 384.663 247.671 384.284 248.491 383.527C249.332 382.749 249.753 381.74 249.753 380.499C249.753 379.258 249.332 378.259 248.491 377.502C247.671 376.724 246.609 376.335 245.305 376.335C244.001 376.335 242.929 376.724 242.088 377.502C241.247 378.259 240.826 379.258 240.826 380.499C240.826 381.74 241.247 382.749 242.088 383.527C242.929 384.284 244.001 384.663 245.305 384.663ZM263.891 374.789C264.48 373.969 265.269 373.349 266.257 372.928C267.266 372.508 268.423 372.297 269.727 372.297V376.84C269.18 376.798 268.812 376.777 268.623 376.777C267.214 376.777 266.11 377.176 265.311 377.975C264.511 378.753 264.112 379.931 264.112 381.508V389.521H259.191V372.55H263.891V374.789ZM279.405 372.297C282.034 372.297 284.053 372.928 285.462 374.19C286.871 375.431 287.575 377.313 287.575 379.836V389.521H282.97V387.407C282.045 388.984 280.32 389.773 277.797 389.773C276.493 389.773 275.357 389.552 274.39 389.11C273.444 388.669 272.718 388.059 272.213 387.281C271.709 386.503 271.456 385.62 271.456 384.631C271.456 383.054 272.045 381.813 273.223 380.909C274.421 380.005 276.262 379.552 278.743 379.552H282.655C282.655 378.48 282.329 377.66 281.677 377.092C281.025 376.503 280.047 376.209 278.743 376.209C277.839 376.209 276.945 376.356 276.062 376.65C275.2 376.924 274.464 377.302 273.854 377.786L272.087 374.348C273.012 373.696 274.117 373.191 275.399 372.834C276.703 372.476 278.039 372.297 279.405 372.297ZM279.027 386.461C279.868 386.461 280.615 386.271 281.267 385.893C281.919 385.493 282.381 384.915 282.655 384.158V382.423H279.279C277.26 382.423 276.251 383.085 276.251 384.41C276.251 385.041 276.493 385.546 276.977 385.924C277.481 386.282 278.165 386.461 279.027 386.461ZM313.763 372.297C315.887 372.297 317.57 372.928 318.81 374.19C320.072 375.431 320.703 377.302 320.703 379.805V389.521H315.782V380.562C315.782 379.216 315.498 378.217 314.93 377.565C314.384 376.892 313.595 376.556 312.565 376.556C311.408 376.556 310.493 376.934 309.82 377.691C309.147 378.427 308.811 379.531 308.811 381.004V389.521H303.89V380.562C303.89 377.891 302.817 376.556 300.672 376.556C299.537 376.556 298.632 376.934 297.96 377.691C297.287 378.427 296.95 379.531 296.95 381.004V389.521H292.029V372.55H296.729V374.505C297.36 373.79 298.128 373.244 299.032 372.865C299.957 372.487 300.967 372.297 302.06 372.297C303.259 372.297 304.342 372.539 305.309 373.023C306.277 373.485 307.055 374.169 307.644 375.073C308.338 374.19 309.21 373.506 310.262 373.023C311.334 372.539 312.501 372.297 313.763 372.297ZM355.561 389.521L355.529 373.433L347.548 386.839H346.097L338.117 373.527V389.521H335.088V367.439H337.675L346.886 382.959L355.971 367.439H358.557L358.589 389.521H355.561ZM370.862 372.644C373.175 372.644 374.942 373.212 376.162 374.348C377.402 375.483 378.023 377.176 378.023 379.426V389.521H375.152V387.312C374.647 388.09 373.922 388.69 372.976 389.11C372.05 389.51 370.946 389.71 369.663 389.71C367.792 389.71 366.288 389.258 365.153 388.353C364.038 387.449 363.481 386.261 363.481 384.789C363.481 383.317 364.017 382.139 365.089 381.256C366.162 380.352 367.865 379.899 370.2 379.899H374.994V379.3C374.994 377.996 374.616 376.997 373.859 376.303C373.102 375.609 371.987 375.262 370.515 375.262C369.527 375.262 368.559 375.431 367.613 375.767C366.667 376.083 365.868 376.514 365.216 377.06L363.954 374.789C364.816 374.095 365.847 373.57 367.045 373.212C368.244 372.834 369.516 372.644 370.862 372.644ZM370.168 387.375C371.325 387.375 372.324 387.123 373.165 386.618C374.006 386.093 374.616 385.357 374.994 384.41V382.076H370.326C367.76 382.076 366.477 382.938 366.477 384.663C366.477 385.504 366.803 386.166 367.455 386.65C368.107 387.134 369.011 387.375 370.168 387.375ZM392.554 372.644C394.678 372.644 396.36 373.265 397.601 374.505C398.863 375.725 399.494 377.523 399.494 379.899V389.521H396.465V380.246C396.465 378.627 396.076 377.407 395.298 376.587C394.52 375.767 393.406 375.357 391.954 375.357C390.314 375.357 389.021 375.841 388.074 376.808C387.128 377.754 386.655 379.121 386.655 380.909V389.521H383.627V372.802H386.529V375.326C387.139 374.463 387.959 373.801 388.989 373.338C390.041 372.876 391.229 372.644 392.554 372.644ZM411.186 372.644C413.499 372.644 415.266 373.212 416.485 374.348C417.726 375.483 418.347 377.176 418.347 379.426V389.521H415.476V387.312C414.971 388.09 414.246 388.69 413.299 389.11C412.374 389.51 411.27 389.71 409.987 389.71C408.116 389.71 406.612 389.258 405.476 388.353C404.362 387.449 403.805 386.261 403.805 384.789C403.805 383.317 404.341 382.139 405.413 381.256C406.486 380.352 408.189 379.899 410.524 379.899H415.318V379.3C415.318 377.996 414.94 376.997 414.183 376.303C413.426 375.609 412.311 375.262 410.839 375.262C409.851 375.262 408.883 375.431 407.937 375.767C406.991 376.083 406.191 376.514 405.54 377.06L404.278 374.789C405.14 374.095 406.17 373.57 407.369 373.212C408.568 372.834 409.84 372.644 411.186 372.644ZM410.492 387.375C411.649 387.375 412.648 387.123 413.489 386.618C414.33 386.093 414.94 385.357 415.318 384.41V382.076H410.65C408.084 382.076 406.801 382.938 406.801 384.663C406.801 385.504 407.127 386.166 407.779 386.65C408.431 387.134 409.335 387.375 410.492 387.375ZM440.036 372.802V387.249C440.036 390.172 439.31 392.328 437.859 393.716C436.408 395.125 434.242 395.829 431.361 395.829C429.784 395.829 428.28 395.609 426.85 395.167C425.42 394.746 424.264 394.137 423.381 393.337L424.832 391.003C425.61 391.676 426.567 392.202 427.702 392.58C428.859 392.98 430.047 393.18 431.267 393.18C433.222 393.18 434.663 392.717 435.588 391.792C436.535 390.866 437.008 389.457 437.008 387.565V386.24C436.293 387.102 435.409 387.754 434.358 388.196C433.328 388.616 432.202 388.827 430.983 388.827C429.385 388.827 427.933 388.49 426.63 387.817C425.347 387.123 424.337 386.166 423.601 384.947C422.865 383.706 422.497 382.297 422.497 380.72C422.497 379.142 422.865 377.744 423.601 376.524C424.337 375.283 425.347 374.327 426.63 373.654C427.933 372.981 429.385 372.644 430.983 372.644C432.245 372.644 433.412 372.876 434.484 373.338C435.578 373.801 436.471 374.484 437.165 375.389V372.802H440.036ZM431.33 386.177C432.423 386.177 433.401 385.945 434.263 385.483C435.147 385.02 435.83 384.379 436.314 383.559C436.818 382.717 437.071 381.771 437.071 380.72C437.071 379.1 436.535 377.797 435.462 376.808C434.39 375.799 433.012 375.294 431.33 375.294C429.626 375.294 428.238 375.799 427.166 376.808C426.093 377.797 425.557 379.1 425.557 380.72C425.557 381.771 425.799 382.717 426.283 383.559C426.787 384.379 427.471 385.02 428.333 385.483C429.216 385.945 430.215 386.177 431.33 386.177ZM460.932 381.256C460.932 381.487 460.911 381.792 460.869 382.171H447.305C447.494 383.643 448.135 384.831 449.229 385.735C450.344 386.618 451.721 387.06 453.361 387.06C455.359 387.06 456.968 386.387 458.188 385.041L459.859 386.997C459.102 387.88 458.156 388.553 457.02 389.016C455.906 389.478 454.655 389.71 453.267 389.71C451.5 389.71 449.933 389.352 448.567 388.637C447.2 387.901 446.138 386.881 445.381 385.577C444.645 384.274 444.277 382.802 444.277 381.161C444.277 379.542 444.634 378.08 445.349 376.777C446.085 375.473 447.084 374.463 448.346 373.748C449.629 373.012 451.069 372.644 452.667 372.644C454.266 372.644 455.685 373.012 456.926 373.748C458.188 374.463 459.165 375.473 459.859 376.777C460.574 378.08 460.932 379.574 460.932 381.256ZM452.667 375.199C451.216 375.199 449.997 375.641 449.008 376.524C448.041 377.407 447.473 378.564 447.305 379.994H458.03C457.862 378.585 457.283 377.439 456.295 376.556C455.328 375.651 454.118 375.199 452.667 375.199ZM486.051 372.644C488.154 372.644 489.815 373.254 491.035 374.474C492.276 375.694 492.896 377.502 492.896 379.899V389.521H489.868V380.246C489.868 378.627 489.489 377.407 488.732 376.587C487.996 375.767 486.934 375.357 485.546 375.357C484.011 375.357 482.791 375.841 481.887 376.808C480.983 377.754 480.531 379.121 480.531 380.909V389.521H477.502V380.246C477.502 378.627 477.124 377.407 476.367 376.587C475.631 375.767 474.569 375.357 473.181 375.357C471.646 375.357 470.426 375.841 469.522 376.808C468.617 377.754 468.165 379.121 468.165 380.909V389.521H465.137V372.802H468.039V375.294C468.649 374.432 469.448 373.78 470.436 373.338C471.425 372.876 472.55 372.644 473.812 372.644C475.116 372.644 476.272 372.907 477.282 373.433C478.291 373.959 479.069 374.726 479.616 375.736C480.247 374.768 481.119 374.011 482.234 373.464C483.37 372.918 484.642 372.644 486.051 372.644ZM513.67 381.256C513.67 381.487 513.649 381.792 513.607 382.171H500.043C500.232 383.643 500.874 384.831 501.967 385.735C503.082 386.618 504.459 387.06 506.1 387.06C508.097 387.06 509.706 386.387 510.926 385.041L512.598 386.997C511.841 387.88 510.894 388.553 509.759 389.016C508.644 389.478 507.393 389.71 506.005 389.71C504.239 389.71 502.672 389.352 501.305 388.637C499.938 387.901 498.876 386.881 498.119 385.577C497.383 384.274 497.015 382.802 497.015 381.161C497.015 379.542 497.372 378.08 498.087 376.777C498.823 375.473 499.822 374.463 501.084 373.748C502.367 373.012 503.807 372.644 505.406 372.644C507.004 372.644 508.423 373.012 509.664 373.748C510.926 374.463 511.904 375.473 512.598 376.777C513.313 378.08 513.67 379.574 513.67 381.256ZM505.406 375.199C503.955 375.199 502.735 375.641 501.746 376.524C500.779 377.407 500.211 378.564 500.043 379.994H510.768C510.6 378.585 510.022 377.439 509.033 376.556C508.066 375.651 506.857 375.199 505.406 375.199ZM526.802 372.644C528.926 372.644 530.609 373.265 531.849 374.505C533.111 375.725 533.742 377.523 533.742 379.899V389.521H530.714V380.246C530.714 378.627 530.325 377.407 529.547 376.587C528.769 375.767 527.654 375.357 526.203 375.357C524.563 375.357 523.269 375.841 522.323 376.808C521.377 377.754 520.904 379.121 520.904 380.909V389.521H517.875V372.802H520.777V375.326C521.387 374.463 522.207 373.801 523.238 373.338C524.289 372.876 525.478 372.644 526.802 372.644ZM548.747 388.543C548.305 388.921 547.758 389.216 547.106 389.426C546.454 389.615 545.781 389.71 545.088 389.71C543.405 389.71 542.101 389.258 541.176 388.353C540.251 387.449 539.788 386.156 539.788 384.473V375.294H536.949V372.802H539.788V369.143H542.816V372.802H547.611V375.294H542.816V384.347C542.816 385.251 543.037 385.945 543.479 386.429C543.941 386.913 544.593 387.155 545.435 387.155C546.36 387.155 547.148 386.892 547.8 386.366L548.747 388.543Z" fill="#1A1A1A"/>
<path d="M84.2062 460.252C84.2062 471.84 93.6274 481.282 105.236 481.282C116.823 481.282 126.265 471.84 126.265 460.252C126.265 448.644 116.823 439.223 105.236 439.223C93.6274 439.223 84.2062 448.644 84.2062 460.252V460.252Z" fill="#130F26"/>
<rect x="97.4045" y="458.267" width="10.9133" height="3.63778" rx="1.81889" transform="rotate(45 97.4045 458.267)" fill="white"/>
<rect x="116.697" y="454.408" width="20.0078" height="3.63778" rx="1.81889" transform="rotate(135 116.697 454.408)" fill="white"/>
<path d="M159.744 453.619H152.678V449.455H171.92V453.619H164.854V471.536H159.744V453.619ZM200.561 454.565L194.41 471.536H189.678L185.861 461L181.918 471.536H177.186L171.067 454.565H175.704L179.71 466.047L183.874 454.565H188.038L192.075 466.047L196.208 454.565H200.561ZM202.848 454.565H207.769V471.536H202.848V454.565ZM205.309 452.199C204.405 452.199 203.669 451.937 203.101 451.411C202.533 450.885 202.249 450.233 202.249 449.455C202.249 448.677 202.533 448.025 203.101 447.499C203.669 446.974 204.405 446.711 205.309 446.711C206.213 446.711 206.949 446.963 207.517 447.468C208.085 447.972 208.369 448.603 208.369 449.36C208.369 450.181 208.085 450.864 207.517 451.411C206.949 451.937 206.213 452.199 205.309 452.199ZM223.282 470.716C222.799 471.073 222.199 471.347 221.484 471.536C220.79 471.704 220.054 471.788 219.276 471.788C217.257 471.788 215.691 471.273 214.576 470.243C213.483 469.212 212.936 467.698 212.936 465.7V458.729H210.318V454.944H212.936V450.811H217.857V454.944H222.084V458.729H217.857V465.637C217.857 466.352 218.035 466.91 218.393 467.309C218.771 467.688 219.297 467.877 219.97 467.877C220.748 467.877 221.411 467.667 221.957 467.246L223.282 470.716ZM236.621 470.716C236.137 471.073 235.538 471.347 234.823 471.536C234.129 471.704 233.393 471.788 232.615 471.788C230.596 471.788 229.029 471.273 227.915 470.243C226.821 469.212 226.274 467.698 226.274 465.7V458.729H223.656V454.944H226.274V450.811H231.195V454.944H235.422V458.729H231.195V465.637C231.195 466.352 231.374 466.91 231.732 467.309C232.11 467.688 232.636 467.877 233.309 467.877C234.087 467.877 234.749 467.667 235.296 467.246L236.621 470.716ZM255.483 463.114C255.483 463.177 255.452 463.618 255.389 464.439H242.55C242.782 465.49 243.328 466.321 244.191 466.931C245.053 467.541 246.125 467.845 247.408 467.845C248.291 467.845 249.069 467.719 249.742 467.467C250.436 467.194 251.078 466.773 251.667 466.205L254.285 469.044C252.687 470.874 250.352 471.788 247.282 471.788C245.368 471.788 243.675 471.42 242.203 470.684C240.731 469.927 239.596 468.886 238.797 467.562C237.997 466.237 237.598 464.733 237.598 463.051C237.598 461.389 237.987 459.896 238.765 458.571C239.564 457.225 240.647 456.185 242.014 455.448C243.402 454.691 244.948 454.313 246.651 454.313C248.312 454.313 249.816 454.67 251.162 455.385C252.508 456.1 253.559 457.131 254.316 458.477C255.094 459.802 255.483 461.347 255.483 463.114ZM246.683 458.035C245.568 458.035 244.632 458.351 243.875 458.981C243.118 459.612 242.655 460.475 242.487 461.568H250.846C250.678 460.496 250.216 459.644 249.459 459.013C248.701 458.361 247.776 458.035 246.683 458.035ZM263.46 456.805C264.049 455.985 264.837 455.364 265.826 454.944C266.835 454.523 267.992 454.313 269.296 454.313V458.855C268.749 458.813 268.381 458.792 268.191 458.792C266.782 458.792 265.678 459.192 264.879 459.991C264.08 460.769 263.681 461.947 263.681 463.524V471.536H258.76V454.565H263.46V456.805ZM295.926 466.016H284.191L281.762 471.536H278.513L288.513 449.455H291.636L301.667 471.536H298.355L295.926 466.016ZM294.822 463.492L290.059 452.673L285.295 463.492H294.822ZM319.794 454.818V471.536H316.924V469.013C316.314 469.875 315.504 470.548 314.495 471.031C313.506 471.494 312.423 471.725 311.246 471.725C309.016 471.725 307.261 471.116 305.978 469.896C304.695 468.655 304.054 466.836 304.054 464.439V454.818H307.082V464.092C307.082 465.711 307.471 466.941 308.249 467.782C309.027 468.603 310.142 469.013 311.593 469.013C313.191 469.013 314.453 468.529 315.378 467.562C316.303 466.594 316.766 465.227 316.766 463.461V454.818H319.794ZM334.959 470.558C334.518 470.937 333.971 471.231 333.319 471.441C332.667 471.631 331.994 471.725 331.3 471.725C329.618 471.725 328.314 471.273 327.389 470.369C326.463 469.465 326.001 468.171 326.001 466.489V457.31H323.162V454.818H326.001V451.158H329.029V454.818H333.824V457.31H329.029V466.363C329.029 467.267 329.25 467.961 329.691 468.445C330.154 468.928 330.806 469.17 331.647 469.17C332.573 469.17 333.361 468.907 334.013 468.382L334.959 470.558ZM345.227 471.725C343.565 471.725 342.072 471.357 340.747 470.621C339.422 469.885 338.381 468.876 337.624 467.593C336.888 466.289 336.52 464.817 336.52 463.177C336.52 461.537 336.888 460.075 337.624 458.792C338.381 457.488 339.422 456.479 340.747 455.764C342.072 455.028 343.565 454.66 345.227 454.66C346.888 454.66 348.371 455.028 349.674 455.764C350.999 456.479 352.03 457.488 352.766 458.792C353.523 460.075 353.901 461.537 353.901 463.177C353.901 464.817 353.523 466.289 352.766 467.593C352.03 468.876 350.999 469.885 349.674 470.621C348.371 471.357 346.888 471.725 345.227 471.725ZM345.227 469.076C346.299 469.076 347.256 468.834 348.097 468.35C348.959 467.845 349.632 467.151 350.116 466.268C350.6 465.364 350.841 464.333 350.841 463.177C350.841 462.02 350.6 461 350.116 460.117C349.632 459.213 348.959 458.519 348.097 458.035C347.256 457.551 346.299 457.31 345.227 457.31C344.154 457.31 343.187 457.551 342.325 458.035C341.483 458.519 340.81 459.213 340.306 460.117C339.822 461 339.58 462.02 339.58 463.177C339.58 464.333 339.822 465.364 340.306 466.268C340.81 467.151 341.483 467.845 342.325 468.35C343.187 468.834 344.154 469.076 345.227 469.076ZM379.003 454.66C381.106 454.66 382.768 455.27 383.987 456.489C385.228 457.709 385.848 459.518 385.848 461.915V471.536H382.82V462.262C382.82 460.643 382.442 459.423 381.685 458.603C380.949 457.783 379.887 457.373 378.499 457.373C376.963 457.373 375.744 457.856 374.839 458.824C373.935 459.77 373.483 461.137 373.483 462.925V471.536H370.455V462.262C370.455 460.643 370.076 459.423 369.319 458.603C368.583 457.783 367.521 457.373 366.133 457.373C364.598 457.373 363.378 457.856 362.474 458.824C361.57 459.77 361.118 461.137 361.118 462.925V471.536H358.089V454.818H360.991V457.31C361.601 456.447 362.4 455.795 363.389 455.354C364.377 454.891 365.502 454.66 366.764 454.66C368.068 454.66 369.224 454.923 370.234 455.448C371.243 455.974 372.021 456.742 372.568 457.751C373.199 456.784 374.072 456.027 375.186 455.48C376.322 454.933 377.594 454.66 379.003 454.66ZM397.508 454.66C399.822 454.66 401.588 455.228 402.808 456.363C404.049 457.499 404.669 459.192 404.669 461.442V471.536H401.799V469.328C401.294 470.106 400.568 470.705 399.622 471.126C398.697 471.526 397.593 471.725 396.31 471.725C394.438 471.725 392.935 471.273 391.799 470.369C390.684 469.465 390.127 468.277 390.127 466.804C390.127 465.332 390.663 464.155 391.736 463.271C392.808 462.367 394.512 461.915 396.846 461.915H401.641V461.316C401.641 460.012 401.262 459.013 400.505 458.319C399.748 457.625 398.634 457.278 397.162 457.278C396.173 457.278 395.206 457.446 394.259 457.783C393.313 458.098 392.514 458.529 391.862 459.076L390.6 456.805C391.462 456.111 392.493 455.585 393.692 455.228C394.89 454.849 396.163 454.66 397.508 454.66ZM396.815 469.391C397.971 469.391 398.97 469.139 399.811 468.634C400.652 468.108 401.262 467.372 401.641 466.426V464.092H396.972C394.407 464.092 393.124 464.954 393.124 466.678C393.124 467.519 393.45 468.182 394.102 468.666C394.754 469.149 395.658 469.391 396.815 469.391ZM419.673 470.558C419.232 470.937 418.685 471.231 418.033 471.441C417.381 471.631 416.708 471.725 416.014 471.725C414.332 471.725 413.028 471.273 412.103 470.369C411.177 469.465 410.715 468.171 410.715 466.489V457.31H407.876V454.818H410.715V451.158H413.743V454.818H418.538V457.31H413.743V466.363C413.743 467.267 413.964 467.961 414.405 468.445C414.868 468.928 415.52 469.17 416.361 469.17C417.287 469.17 418.075 468.907 418.727 468.382L419.673 470.558ZM423.334 454.818H426.363V471.536H423.334V454.818ZM424.849 451.6C424.26 451.6 423.766 451.411 423.366 451.032C422.988 450.654 422.798 450.191 422.798 449.644C422.798 449.098 422.988 448.635 423.366 448.256C423.766 447.857 424.26 447.657 424.849 447.657C425.437 447.657 425.921 447.846 426.3 448.225C426.699 448.582 426.899 449.034 426.899 449.581C426.899 450.149 426.699 450.633 426.3 451.032C425.921 451.411 425.437 451.6 424.849 451.6ZM439.305 471.725C437.644 471.725 436.151 471.357 434.826 470.621C433.501 469.885 432.46 468.876 431.703 467.593C430.967 466.289 430.599 464.817 430.599 463.177C430.599 461.537 430.967 460.075 431.703 458.792C432.46 457.488 433.501 456.479 434.826 455.764C436.151 455.028 437.644 454.66 439.305 454.66C440.967 454.66 442.449 455.028 443.753 455.764C445.078 456.479 446.108 457.488 446.844 458.792C447.602 460.075 447.98 461.537 447.98 463.177C447.98 464.817 447.602 466.289 446.844 467.593C446.108 468.876 445.078 469.885 443.753 470.621C442.449 471.357 440.967 471.725 439.305 471.725ZM439.305 469.076C440.378 469.076 441.335 468.834 442.176 468.35C443.038 467.845 443.711 467.151 444.195 466.268C444.678 465.364 444.92 464.333 444.92 463.177C444.92 462.02 444.678 461 444.195 460.117C443.711 459.213 443.038 458.519 442.176 458.035C441.335 457.551 440.378 457.31 439.305 457.31C438.233 457.31 437.265 457.551 436.403 458.035C435.562 458.519 434.889 459.213 434.384 460.117C433.901 461 433.659 462.02 433.659 463.177C433.659 464.333 433.901 465.364 434.384 466.268C434.889 467.151 435.562 467.845 436.403 468.35C437.265 468.834 438.233 469.076 439.305 469.076ZM461.095 454.66C463.219 454.66 464.901 455.28 466.142 456.521C467.404 457.741 468.035 459.539 468.035 461.915V471.536H465.007V462.262C465.007 460.643 464.618 459.423 463.839 458.603C463.061 457.783 461.947 457.373 460.496 457.373C458.855 457.373 457.562 457.856 456.616 458.824C455.669 459.77 455.196 461.137 455.196 462.925V471.536H452.168V454.818H455.07V457.341C455.68 456.479 456.5 455.817 457.531 455.354C458.582 454.891 459.77 454.66 461.095 454.66Z" fill="#1A1A1A"/>
<path d="M84.2062 624.283C84.2062 635.87 93.6274 645.312 105.236 645.312C116.823 645.312 126.265 635.87 126.265 624.283C126.265 612.674 116.823 603.253 105.236 603.253C93.6274 603.253 84.2062 612.674 84.2062 624.283V624.283Z" fill="#130F26"/>
<rect x="97.4045" y="622.297" width="10.9133" height="3.63778" rx="1.81889" transform="rotate(45 97.4045 622.297)" fill="white"/>
<rect x="116.697" y="618.438" width="20.0078" height="3.63778" rx="1.81889" transform="rotate(135 116.697 618.438)" fill="white"/>
<path d="M162.299 635.819C160.638 635.819 159.029 635.566 157.473 635.062C155.938 634.536 154.729 633.863 153.845 633.043L155.013 630.582C155.854 631.339 156.926 631.96 158.23 632.444C159.555 632.906 160.911 633.137 162.299 633.137C164.129 633.137 165.496 632.833 166.4 632.223C167.304 631.592 167.757 630.761 167.757 629.731C167.757 628.974 167.504 628.364 166.999 627.901C166.516 627.417 165.906 627.049 165.17 626.797C164.455 626.545 163.435 626.261 162.11 625.945C160.449 625.546 159.103 625.146 158.072 624.747C157.063 624.347 156.19 623.737 155.454 622.917C154.739 622.076 154.382 620.951 154.382 619.542C154.382 618.364 154.687 617.302 155.296 616.356C155.927 615.41 156.874 614.652 158.135 614.085C159.397 613.517 160.964 613.233 162.836 613.233C164.139 613.233 165.422 613.401 166.684 613.738C167.946 614.074 169.029 614.558 169.933 615.189L168.892 617.712C167.967 617.123 166.978 616.682 165.927 616.387C164.875 616.072 163.845 615.914 162.836 615.914C161.048 615.914 159.702 616.24 158.798 616.892C157.915 617.544 157.473 618.385 157.473 619.416C157.473 620.173 157.725 620.793 158.23 621.277C158.735 621.739 159.355 622.107 160.091 622.381C160.848 622.633 161.868 622.907 163.151 623.201C164.812 623.601 166.148 624 167.157 624.4C168.167 624.799 169.029 625.409 169.744 626.229C170.48 627.049 170.848 628.153 170.848 629.541C170.848 630.698 170.532 631.76 169.902 632.727C169.271 633.674 168.314 634.431 167.031 634.999C165.748 635.545 164.171 635.819 162.299 635.819ZM182.175 635.756C180.514 635.756 179.021 635.388 177.696 634.652C176.371 633.916 175.33 632.906 174.573 631.623C173.837 630.32 173.469 628.847 173.469 627.207C173.469 625.567 173.837 624.105 174.573 622.822C175.33 621.519 176.371 620.509 177.696 619.794C179.021 619.058 180.514 618.69 182.175 618.69C183.837 618.69 185.319 619.058 186.623 619.794C187.948 620.509 188.978 621.519 189.714 622.822C190.471 624.105 190.85 625.567 190.85 627.207C190.85 628.847 190.471 630.32 189.714 631.623C188.978 632.906 187.948 633.916 186.623 634.652C185.319 635.388 183.837 635.756 182.175 635.756ZM182.175 633.106C183.248 633.106 184.205 632.864 185.046 632.38C185.908 631.876 186.581 631.182 187.065 630.298C187.548 629.394 187.79 628.364 187.79 627.207C187.79 626.051 187.548 625.031 187.065 624.147C186.581 623.243 185.908 622.549 185.046 622.065C184.205 621.582 183.248 621.34 182.175 621.34C181.103 621.34 180.135 621.582 179.273 622.065C178.432 622.549 177.759 623.243 177.254 624.147C176.771 625.031 176.529 626.051 176.529 627.207C176.529 628.364 176.771 629.394 177.254 630.298C177.759 631.182 178.432 631.876 179.273 632.38C180.135 632.864 181.103 633.106 182.175 633.106ZM202.325 635.756C200.621 635.756 199.097 635.388 197.751 634.652C196.426 633.916 195.385 632.906 194.628 631.623C193.871 630.32 193.492 628.847 193.492 627.207C193.492 625.567 193.871 624.105 194.628 622.822C195.385 621.519 196.426 620.509 197.751 619.794C199.097 619.058 200.621 618.69 202.325 618.69C203.839 618.69 205.185 618.995 206.362 619.605C207.561 620.215 208.486 621.098 209.138 622.255L206.836 623.737C206.31 622.938 205.658 622.339 204.88 621.939C204.102 621.54 203.24 621.34 202.293 621.34C201.2 621.34 200.211 621.582 199.328 622.065C198.466 622.549 197.782 623.243 197.278 624.147C196.794 625.031 196.552 626.051 196.552 627.207C196.552 628.385 196.794 629.426 197.278 630.33C197.782 631.213 198.466 631.897 199.328 632.38C200.211 632.864 201.2 633.106 202.293 633.106C203.24 633.106 204.102 632.906 204.88 632.507C205.658 632.107 206.31 631.508 206.836 630.709L209.138 632.16C208.486 633.316 207.561 634.21 206.362 634.841C205.185 635.451 203.839 635.756 202.325 635.756ZM213.059 618.848H216.087V635.566H213.059V618.848ZM214.573 615.63C213.984 615.63 213.49 615.441 213.091 615.063C212.712 614.684 212.523 614.221 212.523 613.675C212.523 613.128 212.712 612.665 213.091 612.287C213.49 611.887 213.984 611.687 214.573 611.687C215.162 611.687 215.646 611.877 216.024 612.255C216.424 612.613 216.623 613.065 216.623 613.611C216.623 614.179 216.424 614.663 216.024 615.063C215.646 615.441 215.162 615.63 214.573 615.63ZM227.957 618.69C230.271 618.69 232.037 619.258 233.257 620.394C234.498 621.529 235.118 623.222 235.118 625.472V635.566H232.247V633.358C231.743 634.136 231.017 634.736 230.071 635.156C229.145 635.556 228.041 635.756 226.759 635.756C224.887 635.756 223.383 635.304 222.248 634.399C221.133 633.495 220.576 632.307 220.576 630.835C220.576 629.363 221.112 628.185 222.185 627.302C223.257 626.397 224.961 625.945 227.295 625.945H232.09V625.346C232.09 624.042 231.711 623.043 230.954 622.349C230.197 621.655 229.082 621.308 227.61 621.308C226.622 621.308 225.655 621.477 224.708 621.813C223.762 622.128 222.963 622.56 222.311 623.106L221.049 620.835C221.911 620.141 222.942 619.615 224.14 619.258C225.339 618.879 226.611 618.69 227.957 618.69ZM227.263 633.421C228.42 633.421 229.419 633.169 230.26 632.664C231.101 632.139 231.711 631.403 232.09 630.456V628.122H227.421C224.855 628.122 223.573 628.984 223.573 630.709C223.573 631.55 223.899 632.212 224.551 632.696C225.202 633.18 226.107 633.421 227.263 633.421ZM240.722 612.16H243.75V635.566H240.722V612.16ZM278.918 635.566L278.886 619.479L270.905 632.885H269.454L261.473 619.573V635.566H258.445V613.485H261.032L270.243 629.005L279.328 613.485H281.914L281.946 635.566H278.918ZM303.241 627.302C303.241 627.533 303.22 627.838 303.178 628.217H289.614C289.803 629.689 290.444 630.877 291.538 631.781C292.652 632.664 294.03 633.106 295.67 633.106C297.668 633.106 299.277 632.433 300.496 631.087L302.168 633.043C301.411 633.926 300.465 634.599 299.329 635.062C298.215 635.524 296.963 635.756 295.575 635.756C293.809 635.756 292.242 635.398 290.875 634.683C289.508 633.947 288.446 632.927 287.689 631.623C286.953 630.32 286.585 628.847 286.585 627.207C286.585 625.588 286.943 624.126 287.658 622.822C288.394 621.519 289.393 620.509 290.655 619.794C291.937 619.058 293.378 618.69 294.976 618.69C296.574 618.69 297.994 619.058 299.235 619.794C300.496 620.509 301.474 621.519 302.168 622.822C302.883 624.126 303.241 625.619 303.241 627.302ZM294.976 621.245C293.525 621.245 292.305 621.687 291.317 622.57C290.35 623.453 289.782 624.61 289.614 626.04H300.339C300.17 624.631 299.592 623.485 298.604 622.602C297.636 621.697 296.427 621.245 294.976 621.245ZM323.218 612.16V635.566H320.316V632.917C319.643 633.842 318.791 634.546 317.761 635.03C316.73 635.514 315.595 635.756 314.354 635.756C312.735 635.756 311.284 635.398 310.001 634.683C308.718 633.968 307.709 632.969 306.973 631.686C306.258 630.383 305.9 628.89 305.9 627.207C305.9 625.525 306.258 624.042 306.973 622.759C307.709 621.477 308.718 620.478 310.001 619.763C311.284 619.048 312.735 618.69 314.354 618.69C315.553 618.69 316.657 618.921 317.666 619.384C318.676 619.826 319.517 620.488 320.19 621.371V612.16H323.218ZM314.606 633.106C315.658 633.106 316.615 632.864 317.477 632.38C318.339 631.876 319.012 631.182 319.496 630.298C319.979 629.394 320.221 628.364 320.221 627.207C320.221 626.051 319.979 625.031 319.496 624.147C319.012 623.243 318.339 622.549 317.477 622.065C316.615 621.582 315.658 621.34 314.606 621.34C313.534 621.34 312.566 621.582 311.704 622.065C310.863 622.549 310.19 623.243 309.685 624.147C309.202 625.031 308.96 626.051 308.96 627.207C308.96 628.364 309.202 629.394 309.685 630.298C310.19 631.182 310.863 631.876 311.704 632.38C312.566 632.864 313.534 633.106 314.606 633.106ZM328.948 618.848H331.976V635.566H328.948V618.848ZM330.462 615.63C329.873 615.63 329.379 615.441 328.979 615.063C328.601 614.684 328.411 614.221 328.411 613.675C328.411 613.128 328.601 612.665 328.979 612.287C329.379 611.887 329.873 611.687 330.462 611.687C331.051 611.687 331.534 611.877 331.913 612.255C332.312 612.613 332.512 613.065 332.512 613.611C332.512 614.179 332.312 614.663 331.913 615.063C331.534 615.441 331.051 615.63 330.462 615.63ZM343.846 618.69C346.159 618.69 347.926 619.258 349.145 620.394C350.386 621.529 351.007 623.222 351.007 625.472V635.566H348.136V633.358C347.631 634.136 346.906 634.736 345.96 635.156C345.034 635.556 343.93 635.756 342.647 635.756C340.776 635.756 339.272 635.304 338.136 634.399C337.022 633.495 336.465 632.307 336.465 630.835C336.465 629.363 337.001 628.185 338.073 627.302C339.146 626.397 340.849 625.945 343.184 625.945H347.978V625.346C347.978 624.042 347.6 623.043 346.843 622.349C346.086 621.655 344.971 621.308 343.499 621.308C342.511 621.308 341.543 621.477 340.597 621.813C339.651 622.128 338.852 622.56 338.2 623.106L336.938 620.835C337.8 620.141 338.83 619.615 340.029 619.258C341.228 618.879 342.5 618.69 343.846 618.69ZM343.152 633.421C344.309 633.421 345.308 633.169 346.149 632.664C346.99 632.139 347.6 631.403 347.978 630.456V628.122H343.31C340.744 628.122 339.461 628.984 339.461 630.709C339.461 631.55 339.787 632.212 340.439 632.696C341.091 633.18 341.995 633.421 343.152 633.421ZM379.593 630.046H367.858L365.429 635.566H362.18L372.18 613.485H375.302L385.334 635.566H382.021L379.593 630.046ZM378.488 627.523L373.725 616.703L368.962 627.523H378.488ZM403.804 612.16V635.566H400.902V632.917C400.229 633.842 399.377 634.546 398.347 635.03C397.316 635.514 396.181 635.756 394.94 635.756C393.321 635.756 391.87 635.398 390.587 634.683C389.304 633.968 388.295 632.969 387.559 631.686C386.844 630.383 386.486 628.89 386.486 627.207C386.486 625.525 386.844 624.042 387.559 622.759C388.295 621.477 389.304 620.478 390.587 619.763C391.87 619.048 393.321 618.69 394.94 618.69C396.139 618.69 397.243 618.921 398.252 619.384C399.262 619.826 400.103 620.488 400.776 621.371V612.16H403.804ZM395.192 633.106C396.244 633.106 397.201 632.864 398.063 632.38C398.925 631.876 399.598 631.182 400.082 630.298C400.566 629.394 400.807 628.364 400.807 627.207C400.807 626.051 400.566 625.031 400.082 624.147C399.598 623.243 398.925 622.549 398.063 622.065C397.201 621.582 396.244 621.34 395.192 621.34C394.12 621.34 393.153 621.582 392.29 622.065C391.449 622.549 390.776 623.243 390.272 624.147C389.788 625.031 389.546 626.051 389.546 627.207C389.546 628.364 389.788 629.394 390.272 630.298C390.776 631.182 391.449 631.876 392.29 632.38C393.153 632.864 394.12 633.106 395.192 633.106ZM428.32 635.819C426.112 635.819 424.114 635.335 422.327 634.368C420.56 633.379 419.172 632.033 418.163 630.33C417.154 628.606 416.649 626.671 416.649 624.526C416.649 622.381 417.154 620.457 418.163 618.753C419.172 617.029 420.571 615.683 422.358 614.716C424.146 613.727 426.144 613.233 428.352 613.233C430.076 613.233 431.653 613.527 433.083 614.116C434.513 614.684 435.733 615.536 436.743 616.671L434.692 618.659C433.031 616.913 430.959 616.04 428.478 616.04C426.838 616.04 425.355 616.408 424.03 617.144C422.705 617.881 421.664 618.9 420.907 620.204C420.171 621.487 419.803 622.928 419.803 624.526C419.803 626.124 420.171 627.575 420.907 628.879C421.664 630.162 422.705 631.171 424.03 631.907C425.355 632.643 426.838 633.011 428.478 633.011C430.938 633.011 433.01 632.128 434.692 630.362L436.743 632.349C435.733 633.484 434.503 634.347 433.052 634.936C431.622 635.524 430.045 635.819 428.32 635.819ZM446.673 618.69C448.987 618.69 450.753 619.258 451.973 620.394C453.214 621.529 453.834 623.222 453.834 625.472V635.566H450.963V633.358C450.459 634.136 449.733 634.736 448.787 635.156C447.862 635.556 446.758 635.756 445.475 635.756C443.603 635.756 442.099 635.304 440.964 634.399C439.849 633.495 439.292 632.307 439.292 630.835C439.292 629.363 439.828 628.185 440.901 627.302C441.973 626.397 443.677 625.945 446.011 625.945H450.806V625.346C450.806 624.042 450.427 623.043 449.67 622.349C448.913 621.655 447.798 621.308 446.326 621.308C445.338 621.308 444.371 621.477 443.424 621.813C442.478 622.128 441.679 622.56 441.027 623.106L439.765 620.835C440.627 620.141 441.658 619.615 442.857 619.258C444.055 618.879 445.327 618.69 446.673 618.69ZM445.979 633.421C447.136 633.421 448.135 633.169 448.976 632.664C449.817 632.139 450.427 631.403 450.806 630.456V628.122H446.137C443.572 628.122 442.289 628.984 442.289 630.709C442.289 631.55 442.615 632.212 443.267 632.696C443.919 633.18 444.823 633.421 445.979 633.421ZM480.352 618.69C482.455 618.69 484.116 619.3 485.336 620.52C486.577 621.739 487.197 623.548 487.197 625.945V635.566H484.169V626.292C484.169 624.673 483.79 623.453 483.033 622.633C482.297 621.813 481.235 621.403 479.847 621.403C478.312 621.403 477.092 621.887 476.188 622.854C475.284 623.8 474.832 625.167 474.832 626.955V635.566H471.803V626.292C471.803 624.673 471.425 623.453 470.668 622.633C469.932 621.813 468.87 621.403 467.482 621.403C465.947 621.403 464.727 621.887 463.823 622.854C462.918 623.8 462.466 625.167 462.466 626.955V635.566H459.438V618.848H462.34V621.34C462.95 620.478 463.749 619.826 464.738 619.384C465.726 618.921 466.851 618.69 468.113 618.69C469.417 618.69 470.573 618.953 471.583 619.479C472.592 620.004 473.37 620.772 473.917 621.782C474.548 620.814 475.421 620.057 476.535 619.51C477.671 618.964 478.943 618.69 480.352 618.69ZM501.633 618.69C503.252 618.69 504.703 619.048 505.986 619.763C507.269 620.478 508.268 621.477 508.983 622.759C509.719 624.042 510.087 625.525 510.087 627.207C510.087 628.89 509.719 630.383 508.983 631.686C508.268 632.969 507.269 633.968 505.986 634.683C504.703 635.398 503.252 635.756 501.633 635.756C500.434 635.756 499.33 635.524 498.321 635.062C497.333 634.599 496.491 633.926 495.797 633.043V641.686H492.769V618.848H495.671V621.498C496.344 620.572 497.196 619.878 498.226 619.416C499.257 618.932 500.392 618.69 501.633 618.69ZM501.381 633.106C502.453 633.106 503.41 632.864 504.251 632.38C505.114 631.876 505.786 631.182 506.27 630.298C506.775 629.394 507.027 628.364 507.027 627.207C507.027 626.051 506.775 625.031 506.27 624.147C505.786 623.243 505.114 622.549 504.251 622.065C503.41 621.582 502.453 621.34 501.381 621.34C500.329 621.34 499.372 621.592 498.51 622.097C497.669 622.581 496.996 623.264 496.491 624.147C496.008 625.031 495.766 626.051 495.766 627.207C495.766 628.364 496.008 629.394 496.491 630.298C496.975 631.182 497.648 631.876 498.51 632.38C499.372 632.864 500.329 633.106 501.381 633.106ZM520.205 618.69C522.518 618.69 524.285 619.258 525.505 620.394C526.745 621.529 527.366 623.222 527.366 625.472V635.566H524.495V633.358C523.99 634.136 523.265 634.736 522.319 635.156C521.393 635.556 520.289 635.756 519.006 635.756C517.135 635.756 515.631 635.304 514.496 634.399C513.381 633.495 512.824 632.307 512.824 630.835C512.824 629.363 513.36 628.185 514.433 627.302C515.505 626.397 517.208 625.945 519.543 625.945H524.337V625.346C524.337 624.042 523.959 623.043 523.202 622.349C522.445 621.655 521.33 621.308 519.858 621.308C518.87 621.308 517.902 621.477 516.956 621.813C516.01 622.128 515.211 622.56 514.559 623.106L513.297 620.835C514.159 620.141 515.19 619.615 516.388 619.258C517.587 618.879 518.859 618.69 520.205 618.69ZM519.511 633.421C520.668 633.421 521.667 633.169 522.508 632.664C523.349 632.139 523.959 631.403 524.337 630.456V628.122H519.669C517.103 628.122 515.82 628.984 515.82 630.709C515.82 631.55 516.146 632.212 516.798 632.696C517.45 633.18 518.355 633.421 519.511 633.421ZM532.97 618.848H535.998V635.566H532.97V618.848ZM534.484 615.63C533.895 615.63 533.401 615.441 533.001 615.063C532.623 614.684 532.434 614.221 532.434 613.675C532.434 613.128 532.623 612.665 533.001 612.287C533.401 611.887 533.895 611.687 534.484 611.687C535.073 611.687 535.556 611.877 535.935 612.255C536.335 612.613 536.534 613.065 536.534 613.611C536.534 614.179 536.335 614.663 535.935 615.063C535.556 615.441 535.073 615.63 534.484 615.63ZM557.773 618.848V633.295C557.773 636.218 557.048 638.374 555.597 639.762C554.145 641.171 551.979 641.875 549.098 641.875C547.521 641.875 546.018 641.654 544.588 641.213C543.157 640.792 542.001 640.182 541.118 639.383L542.569 637.049C543.347 637.722 544.304 638.248 545.439 638.626C546.596 639.026 547.784 639.226 549.004 639.226C550.959 639.226 552.4 638.763 553.325 637.838C554.272 636.912 554.745 635.503 554.745 633.611V632.286C554.03 633.148 553.147 633.8 552.095 634.242C551.065 634.662 549.94 634.872 548.72 634.872C547.122 634.872 545.671 634.536 544.367 633.863C543.084 633.169 542.074 632.212 541.338 630.992C540.602 629.752 540.234 628.343 540.234 626.766C540.234 625.188 540.602 623.79 541.338 622.57C542.074 621.329 543.084 620.373 544.367 619.7C545.671 619.027 547.122 618.69 548.72 618.69C549.982 618.69 551.149 618.921 552.221 619.384C553.315 619.847 554.209 620.53 554.903 621.435V618.848H557.773ZM549.067 632.223C550.16 632.223 551.138 631.991 552 631.529C552.884 631.066 553.567 630.425 554.051 629.605C554.556 628.763 554.808 627.817 554.808 626.766C554.808 625.146 554.272 623.842 553.199 622.854C552.127 621.845 550.749 621.34 549.067 621.34C547.363 621.34 545.975 621.845 544.903 622.854C543.83 623.842 543.294 625.146 543.294 626.766C543.294 627.817 543.536 628.763 544.02 629.605C544.524 630.425 545.208 631.066 546.07 631.529C546.953 631.991 547.952 632.223 549.067 632.223ZM572.486 618.69C574.61 618.69 576.293 619.311 577.533 620.551C578.795 621.771 579.426 623.569 579.426 625.945V635.566H576.398V626.292C576.398 624.673 576.009 623.453 575.231 622.633C574.453 621.813 573.338 621.403 571.887 621.403C570.247 621.403 568.953 621.887 568.007 622.854C567.061 623.8 566.587 625.167 566.587 626.955V635.566H563.559V618.848H566.461V621.371C567.071 620.509 567.891 619.847 568.922 619.384C569.973 618.921 571.161 618.69 572.486 618.69Z" fill="#1A1A1A"/>
<path d="M84.2062 542.268C84.2062 553.855 93.6274 563.297 105.236 563.297C116.823 563.297 126.265 553.855 126.265 542.268C126.265 530.66 116.823 521.238 105.236 521.238C93.6274 521.238 84.2062 530.66 84.2062 542.268V542.268Z" fill="#130F26"/>
<rect x="97.4045" y="540.282" width="10.9133" height="3.63778" rx="1.81889" transform="rotate(45 97.4045 540.282)" fill="white"/>
<rect x="116.697" y="536.424" width="20.0078" height="3.63778" rx="1.81889" transform="rotate(135 116.697 536.424)" fill="white"/>
<path d="M175.264 553.552L175.233 540.303L168.734 551.217H166.432L159.965 540.587V553.552H155.17V531.471H159.397L167.662 545.192L175.8 531.471H179.996L180.059 553.552H175.264ZM193.026 553.804C191.239 553.804 189.63 553.436 188.2 552.7C186.791 551.943 185.687 550.902 184.888 549.577C184.088 548.252 183.689 546.749 183.689 545.066C183.689 543.384 184.088 541.88 184.888 540.555C185.687 539.231 186.791 538.2 188.2 537.464C189.63 536.707 191.239 536.329 193.026 536.329C194.814 536.329 196.412 536.707 197.821 537.464C199.23 538.2 200.334 539.231 201.133 540.555C201.932 541.88 202.332 543.384 202.332 545.066C202.332 546.749 201.932 548.252 201.133 549.577C200.334 550.902 199.23 551.943 197.821 552.7C196.412 553.436 194.814 553.804 193.026 553.804ZM193.026 549.766C194.288 549.766 195.318 549.346 196.117 548.505C196.938 547.642 197.348 546.496 197.348 545.066C197.348 543.636 196.938 542.501 196.117 541.66C195.318 540.797 194.288 540.366 193.026 540.366C191.764 540.366 190.723 540.797 189.903 541.66C189.083 542.501 188.673 543.636 188.673 545.066C188.673 546.496 189.083 547.642 189.903 548.505C190.723 549.346 191.764 549.766 193.026 549.766ZM215.936 536.329C218.039 536.329 219.732 536.959 221.015 538.221C222.318 539.483 222.97 541.355 222.97 543.836V553.552H218.049V544.593C218.049 543.247 217.755 542.248 217.166 541.596C216.577 540.923 215.726 540.587 214.611 540.587C213.37 540.587 212.382 540.976 211.646 541.754C210.91 542.511 210.542 543.647 210.542 545.161V553.552H205.621V536.581H210.321V538.568C210.973 537.853 211.783 537.306 212.75 536.928C213.717 536.528 214.779 536.329 215.936 536.329ZM238.377 552.732C237.893 553.089 237.294 553.362 236.579 553.552C235.885 553.72 235.149 553.804 234.371 553.804C232.352 553.804 230.785 553.289 229.671 552.258C228.577 551.228 228.03 549.714 228.03 547.716V540.745H225.412V536.959H228.03V532.827H232.951V536.959H237.178V540.745H232.951V547.653C232.951 548.368 233.13 548.925 233.487 549.325C233.866 549.703 234.392 549.893 235.065 549.893C235.843 549.893 236.505 549.682 237.052 549.262L238.377 552.732ZM251.454 536.329C253.557 536.329 255.25 536.959 256.533 538.221C257.837 539.483 258.489 541.355 258.489 543.836V553.552H253.568V544.593C253.568 543.247 253.273 542.248 252.684 541.596C252.096 540.923 251.244 540.587 250.129 540.587C248.889 540.587 247.9 540.976 247.164 541.754C246.428 542.511 246.06 543.647 246.06 545.161V553.552H241.139V530.146H246.06V538.347C246.712 537.695 247.501 537.201 248.426 536.865C249.351 536.507 250.361 536.329 251.454 536.329ZM262.949 530.146H267.87V553.552H262.949V530.146ZM289.282 536.581L281.617 554.593C280.838 556.548 279.871 557.926 278.714 558.725C277.579 559.524 276.201 559.924 274.582 559.924C273.699 559.924 272.826 559.787 271.964 559.514C271.102 559.24 270.397 558.862 269.85 558.378L271.649 554.877C272.027 555.213 272.458 555.476 272.942 555.665C273.447 555.854 273.941 555.949 274.424 555.949C275.097 555.949 275.644 555.781 276.065 555.444C276.485 555.129 276.864 554.593 277.2 553.836L277.263 553.678L269.914 536.581H274.992L279.755 548.095L284.55 536.581H289.282ZM315.112 548.82H304.86L302.905 553.552H297.668L307.51 531.471H312.557L322.431 553.552H317.068L315.112 548.82ZM313.504 544.94L310.002 536.486L306.501 544.94H313.504ZM334.69 536.329C336.792 536.329 338.485 536.959 339.768 538.221C341.072 539.483 341.724 541.355 341.724 543.836V553.552H336.803V544.593C336.803 543.247 336.509 542.248 335.92 541.596C335.331 540.923 334.479 540.587 333.365 540.587C332.124 540.587 331.136 540.976 330.399 541.754C329.663 542.511 329.295 543.647 329.295 545.161V553.552H324.374V536.581H329.075V538.568C329.727 537.853 330.536 537.306 331.504 536.928C332.471 536.528 333.533 536.329 334.69 536.329ZM353.03 536.329C355.658 536.329 357.677 536.959 359.086 538.221C360.495 539.462 361.2 541.344 361.2 543.868V553.552H356.594V551.438C355.669 553.016 353.944 553.804 351.421 553.804C350.117 553.804 348.981 553.583 348.014 553.142C347.068 552.7 346.342 552.09 345.838 551.312C345.333 550.534 345.08 549.651 345.08 548.662C345.08 547.085 345.669 545.844 346.847 544.94C348.046 544.036 349.886 543.584 352.367 543.584H356.279C356.279 542.511 355.953 541.691 355.301 541.123C354.649 540.534 353.671 540.24 352.367 540.24C351.463 540.24 350.569 540.387 349.686 540.682C348.824 540.955 348.088 541.334 347.478 541.817L345.711 538.379C346.637 537.727 347.741 537.222 349.024 536.865C350.327 536.507 351.663 536.329 353.03 536.329ZM352.651 550.492C353.492 550.492 354.239 550.303 354.891 549.924C355.543 549.525 356.005 548.946 356.279 548.189V546.454H352.903C350.885 546.454 349.875 547.117 349.875 548.442C349.875 549.072 350.117 549.577 350.601 549.956C351.105 550.313 351.789 550.492 352.651 550.492ZM365.653 530.146H370.574V553.552H365.653V530.146ZM391.986 536.581L384.321 554.593C383.543 556.548 382.575 557.926 381.419 558.725C380.283 559.524 378.906 559.924 377.286 559.924C376.403 559.924 375.53 559.787 374.668 559.514C373.806 559.24 373.101 558.862 372.555 558.378L374.353 554.877C374.731 555.213 375.162 555.476 375.646 555.665C376.151 555.854 376.645 555.949 377.129 555.949C377.802 555.949 378.348 555.781 378.769 555.444C379.189 555.129 379.568 554.593 379.904 553.836L379.968 553.678L372.618 536.581H377.696L382.46 548.095L387.254 536.581H391.986ZM405.402 552.732C404.918 553.089 404.319 553.362 403.604 553.552C402.91 553.72 402.174 553.804 401.396 553.804C399.377 553.804 397.81 553.289 396.696 552.258C395.602 551.228 395.055 549.714 395.055 547.716V540.745H392.437V536.959H395.055V532.827H399.976V536.959H404.203V540.745H399.976V547.653C399.976 548.368 400.155 548.925 400.513 549.325C400.891 549.703 401.417 549.893 402.09 549.893C402.868 549.893 403.53 549.682 404.077 549.262L405.402 552.732ZM408.164 536.581H413.085V553.552H408.164V536.581ZM410.625 534.215C409.721 534.215 408.984 533.952 408.417 533.426C407.849 532.901 407.565 532.249 407.565 531.471C407.565 530.693 407.849 530.041 408.417 529.515C408.984 528.989 409.721 528.726 410.625 528.726C411.529 528.726 412.265 528.979 412.833 529.483C413.401 529.988 413.685 530.619 413.685 531.376C413.685 532.196 413.401 532.88 412.833 533.426C412.265 533.952 411.529 534.215 410.625 534.215ZM425.854 553.804C424.045 553.804 422.416 553.436 420.964 552.7C419.534 551.943 418.409 550.902 417.589 549.577C416.79 548.252 416.391 546.749 416.391 545.066C416.391 543.384 416.79 541.88 417.589 540.555C418.409 539.231 419.534 538.2 420.964 537.464C422.416 536.707 424.045 536.329 425.854 536.329C427.641 536.329 429.198 536.707 430.522 537.464C431.868 538.2 432.846 539.262 433.456 540.65L429.639 542.7C428.756 541.144 427.484 540.366 425.822 540.366C424.539 540.366 423.478 540.787 422.636 541.628C421.795 542.469 421.375 543.615 421.375 545.066C421.375 546.517 421.795 547.663 422.636 548.505C423.478 549.346 424.539 549.766 425.822 549.766C427.505 549.766 428.777 548.988 429.639 547.432L433.456 549.514C432.846 550.86 431.868 551.911 430.522 552.669C429.198 553.426 427.641 553.804 425.854 553.804ZM441.999 553.804C440.59 553.804 439.213 553.636 437.867 553.299C436.521 552.942 435.448 552.5 434.649 551.975L436.289 548.442C437.046 548.925 437.961 549.325 439.034 549.64C440.106 549.935 441.158 550.082 442.188 550.082C444.27 550.082 445.311 549.567 445.311 548.536C445.311 548.053 445.027 547.706 444.459 547.495C443.892 547.285 443.019 547.106 441.841 546.959C440.453 546.749 439.307 546.507 438.403 546.233C437.499 545.96 436.71 545.476 436.037 544.782C435.385 544.088 435.059 543.1 435.059 541.817C435.059 540.745 435.364 539.798 435.974 538.978C436.605 538.137 437.509 537.485 438.687 537.022C439.885 536.56 441.294 536.329 442.914 536.329C444.112 536.329 445.301 536.465 446.478 536.739C447.677 536.991 448.665 537.348 449.443 537.811L447.803 541.313C446.31 540.471 444.68 540.051 442.914 540.051C441.862 540.051 441.074 540.198 440.548 540.492C440.022 540.787 439.759 541.165 439.759 541.628C439.759 542.154 440.043 542.522 440.611 542.732C441.179 542.942 442.083 543.142 443.324 543.331C444.712 543.563 445.847 543.815 446.731 544.088C447.614 544.341 448.381 544.814 449.033 545.508C449.685 546.202 450.011 547.169 450.011 548.41C450.011 549.461 449.696 550.397 449.065 551.217C448.434 552.038 447.509 552.679 446.289 553.142C445.09 553.583 443.66 553.804 441.999 553.804Z" fill="#1A1A1A"/>
<path d="M95.2443 90.7699C98.9007 90.7699 101.778 91.6437 103.875 93.3912C105.972 95.1388 107.02 97.5451 107.02 100.61C107.02 103.675 105.972 106.081 103.875 107.829C101.778 109.577 98.9007 110.45 95.2443 110.45H88.2674V119H84.2345V90.7699H95.2443ZM95.1233 106.942C97.6774 106.942 99.6267 106.404 100.971 105.329C102.315 104.226 102.987 102.653 102.987 100.61C102.987 98.5668 102.315 97.0074 100.971 95.9319C99.6267 94.8296 97.6774 94.2785 95.1233 94.2785H88.2674V106.942H95.1233ZM115.736 101.215C116.408 99.9783 117.403 99.0373 118.721 98.392C120.038 97.7467 121.638 97.4241 123.52 97.4241V101.175C123.305 101.148 123.009 101.134 122.633 101.134C120.535 101.134 118.882 101.766 117.672 103.03C116.489 104.267 115.898 106.041 115.898 108.353V119H112.026V97.6258H115.736V101.215ZM147.412 108.434C147.412 108.73 147.385 109.119 147.331 109.603H129.99C130.232 111.485 131.052 113.004 132.45 114.161C133.875 115.29 135.636 115.854 137.733 115.854C140.287 115.854 142.344 114.994 143.903 113.273L146.041 115.774C145.073 116.903 143.863 117.763 142.411 118.355C140.986 118.946 139.387 119.242 137.612 119.242C135.354 119.242 133.351 118.785 131.603 117.871C129.856 116.93 128.498 115.626 127.53 113.959C126.589 112.292 126.118 110.41 126.118 108.313C126.118 106.243 126.576 104.374 127.49 102.707C128.431 101.04 129.708 99.7497 131.321 98.8356C132.961 97.8946 134.803 97.4241 136.846 97.4241C138.889 97.4241 140.704 97.8946 142.29 98.8356C143.903 99.7497 145.154 101.04 146.041 102.707C146.955 104.374 147.412 106.283 147.412 108.434ZM136.846 100.691C134.991 100.691 133.431 101.255 132.168 102.385C130.931 103.514 130.205 104.992 129.99 106.821H143.702C143.487 105.019 142.747 103.554 141.484 102.425C140.247 101.269 138.701 100.691 136.846 100.691ZM179.526 97.4241C182.215 97.4241 184.339 98.2038 185.898 99.7632C187.484 101.323 188.277 103.635 188.277 106.7V119H184.406V107.143C184.406 105.073 183.922 103.514 182.954 102.465C182.013 101.417 180.655 100.892 178.881 100.892C176.918 100.892 175.359 101.511 174.203 102.748C173.047 103.957 172.469 105.705 172.469 107.99V119H168.597V107.143C168.597 105.073 168.113 103.514 167.145 102.465C166.204 101.417 164.846 100.892 163.072 100.892C161.109 100.892 159.55 101.511 158.394 102.748C157.238 103.957 156.66 105.705 156.66 107.99V119H152.788V97.6258H156.498V100.812C157.278 99.7094 158.3 98.8759 159.563 98.3113C160.827 97.7199 162.265 97.4241 163.878 97.4241C165.545 97.4241 167.024 97.7602 168.315 98.4323C169.605 99.1045 170.6 100.086 171.299 101.376C172.106 100.14 173.221 99.1717 174.646 98.4727C176.098 97.7736 177.725 97.4241 179.526 97.4241ZM195.401 97.6258H199.273V119H195.401V97.6258ZM197.337 93.5122C196.584 93.5122 195.952 93.2702 195.441 92.7863C194.957 92.3024 194.715 91.7109 194.715 91.0118C194.715 90.3128 194.957 89.7213 195.441 89.2374C195.952 88.7265 196.584 88.4711 197.337 88.4711C198.09 88.4711 198.708 88.7131 199.192 89.197C199.703 89.6541 199.958 90.2321 199.958 90.9312C199.958 91.6571 199.703 92.2755 199.192 92.7863C198.708 93.2702 198.09 93.5122 197.337 93.5122ZM226.587 97.6258V119H222.917V115.774C222.138 116.876 221.102 117.736 219.812 118.355C218.548 118.946 217.164 119.242 215.658 119.242C212.808 119.242 210.563 118.462 208.923 116.903C207.283 115.317 206.463 112.991 206.463 109.926V97.6258H210.335V109.482C210.335 111.553 210.832 113.125 211.827 114.201C212.822 115.249 214.247 115.774 216.102 115.774C218.145 115.774 219.758 115.155 220.941 113.919C222.124 112.682 222.716 110.934 222.716 108.676V97.6258H226.587ZM260.696 97.4241C263.384 97.4241 265.508 98.2038 267.068 99.7632C268.654 101.323 269.447 103.635 269.447 106.7V119H265.575V107.143C265.575 105.073 265.091 103.514 264.124 102.465C263.183 101.417 261.825 100.892 260.05 100.892C258.088 100.892 256.528 101.511 255.372 102.748C254.216 103.957 253.638 105.705 253.638 107.99V119H249.766V107.143C249.766 105.073 249.283 103.514 248.315 102.465C247.374 101.417 246.016 100.892 244.241 100.892C242.279 100.892 240.719 101.511 239.563 102.748C238.407 103.957 237.829 105.705 237.829 107.99V119H233.958V97.6258H237.668V100.812C238.448 99.7094 239.469 98.8759 240.733 98.3113C241.996 97.7199 243.435 97.4241 245.048 97.4241C246.715 97.4241 248.194 97.7602 249.484 98.4323C250.775 99.1045 251.769 100.086 252.468 101.376C253.275 100.14 254.391 99.1717 255.816 98.4727C257.268 97.7736 258.894 97.4241 260.696 97.4241Z" fill="#1A1A1A"/>
<path d="M135.351 228.467C135.351 233.427 133.536 237.692 129.907 241.261C126.277 244.77 121.045 246.947 114.209 247.794V257.957H105.135V248.066C100.658 247.825 96.3936 247.038 92.3406 245.707C88.2876 244.376 85.0209 242.743 82.5407 240.807L87.5314 229.737C89.8301 231.431 92.5221 232.852 95.6072 234.002C98.6924 235.151 101.868 235.877 105.135 236.18V221.026C100.84 219.998 97.2103 218.848 94.2461 217.578C91.282 216.308 88.8018 214.463 86.8055 212.043C84.8092 209.563 83.8111 206.296 83.8111 202.243C83.8111 197.222 85.6259 192.927 89.2555 189.358C92.9455 185.728 98.2387 183.52 105.135 182.734V172.662H114.209V182.552C121.65 183.157 127.79 185.002 132.629 188.088L128.092 199.249C123.555 196.647 118.927 195.074 114.209 194.53V209.956C118.443 210.924 122.012 212.043 124.916 213.313C127.88 214.523 130.361 216.368 132.357 218.848C134.353 221.268 135.351 224.474 135.351 228.467ZM98.4202 201.517C98.4202 203.029 98.9948 204.269 100.144 205.237C101.294 206.205 102.957 207.022 105.135 207.687V194.802C102.836 195.347 101.142 196.224 100.053 197.434C98.9646 198.583 98.4202 199.944 98.4202 201.517ZM114.209 235.817C116.387 235.333 118.02 234.546 119.109 233.457C120.198 232.369 120.742 231.068 120.742 229.556C120.742 228.043 120.167 226.803 119.018 225.835C117.929 224.867 116.326 224.02 114.209 223.295V235.817ZM165.017 183.551V247.068H150.317V195.347H137.613V183.551H165.017ZM203.273 248.157C198.01 248.157 193.322 246.857 189.208 244.255C185.095 241.654 181.858 237.904 179.499 233.004C177.2 228.043 176.051 222.145 176.051 215.309C176.051 208.474 177.2 202.606 179.499 197.706C181.858 192.746 185.095 188.965 189.208 186.363C193.322 183.762 198.01 182.462 203.273 182.462C208.536 182.462 213.224 183.762 217.337 186.363C221.451 188.965 224.657 192.746 226.956 197.706C229.315 202.606 230.495 208.474 230.495 215.309C230.495 222.145 229.315 228.043 226.956 233.004C224.657 237.904 221.451 241.654 217.337 244.255C213.224 246.857 208.536 248.157 203.273 248.157ZM203.273 235.726C207.144 235.726 210.169 234.062 212.347 230.735C214.585 227.408 215.704 222.266 215.704 215.309C215.704 208.353 214.585 203.211 212.347 199.884C210.169 196.557 207.144 194.893 203.273 194.893C199.462 194.893 196.437 196.557 194.199 199.884C192.021 203.211 190.932 208.353 190.932 215.309C190.932 222.266 192.021 227.408 194.199 230.735C196.437 234.062 199.462 235.726 203.273 235.726ZM264.859 248.157C259.596 248.157 254.908 246.857 250.794 244.255C246.681 241.654 243.444 237.904 241.085 233.004C238.786 228.043 237.637 222.145 237.637 215.309C237.637 208.474 238.786 202.606 241.085 197.706C243.444 192.746 246.681 188.965 250.794 186.363C254.908 183.762 259.596 182.462 264.859 182.462C270.122 182.462 274.81 183.762 278.923 186.363C283.037 188.965 286.243 192.746 288.542 197.706C290.901 202.606 292.081 208.474 292.081 215.309C292.081 222.145 290.901 228.043 288.542 233.004C286.243 237.904 283.037 241.654 278.923 244.255C274.81 246.857 270.122 248.157 264.859 248.157ZM264.859 235.726C268.73 235.726 271.755 234.062 273.933 230.735C276.171 227.408 277.29 222.266 277.29 215.309C277.29 208.353 276.171 203.211 273.933 199.884C271.755 196.557 268.73 194.893 264.859 194.893C261.048 194.893 258.023 196.557 255.785 199.884C253.607 203.211 252.518 208.353 252.518 215.309C252.518 222.266 253.607 227.408 255.785 230.735C258.023 234.062 261.048 235.726 264.859 235.726ZM326.445 248.157C321.182 248.157 316.494 246.857 312.38 244.255C308.267 241.654 305.03 237.904 302.671 233.004C300.372 228.043 299.223 222.145 299.223 215.309C299.223 208.474 300.372 202.606 302.671 197.706C305.03 192.746 308.267 188.965 312.38 186.363C316.494 183.762 321.182 182.462 326.445 182.462C331.708 182.462 336.396 183.762 340.509 186.363C344.623 188.965 347.829 192.746 350.128 197.706C352.487 202.606 353.667 208.474 353.667 215.309C353.667 222.145 352.487 228.043 350.128 233.004C347.829 237.904 344.623 241.654 340.509 244.255C336.396 246.857 331.708 248.157 326.445 248.157ZM326.445 235.726C330.316 235.726 333.341 234.062 335.519 230.735C337.757 227.408 338.876 222.266 338.876 215.309C338.876 208.353 337.757 203.211 335.519 199.884C333.341 196.557 330.316 194.893 326.445 194.893C322.634 194.893 319.609 196.557 317.371 199.884C315.193 203.211 314.104 208.353 314.104 215.309C314.104 222.266 315.193 227.408 317.371 230.735C319.609 234.062 322.634 235.726 326.445 235.726ZM364.756 225.845H368.26L359.942 249.589H356.438L364.756 225.845ZM385.289 247.068L385.263 236.482L380.071 245.203H378.231L373.064 236.709V247.068H369.233V229.425H372.61L379.214 240.389L385.717 229.425H389.069L389.12 247.068H385.289ZM399.481 247.27C398.053 247.27 396.767 246.976 395.625 246.388C394.499 245.783 393.617 244.951 392.978 243.892C392.34 242.834 392.02 241.632 392.02 240.288C392.02 238.944 392.34 237.742 392.978 236.684C393.617 235.625 394.499 234.802 395.625 234.214C396.767 233.609 398.053 233.306 399.481 233.306C400.91 233.306 402.187 233.609 403.312 234.214C404.438 234.802 405.32 235.625 405.959 236.684C406.598 237.742 406.917 238.944 406.917 240.288C406.917 241.632 406.598 242.834 405.959 243.892C405.32 244.951 404.438 245.783 403.312 246.388C402.187 246.976 400.91 247.27 399.481 247.27ZM399.481 244.044C400.489 244.044 401.313 243.708 401.951 243.035C402.607 242.347 402.934 241.431 402.934 240.288C402.934 239.145 402.607 238.238 401.951 237.566C401.313 236.877 400.489 236.532 399.481 236.532C398.473 236.532 397.641 236.877 396.986 237.566C396.331 238.238 396.003 239.145 396.003 240.288C396.003 241.431 396.331 242.347 396.986 243.035C397.641 243.708 398.473 244.044 399.481 244.044ZM417.787 233.306C419.468 233.306 420.82 233.81 421.845 234.818C422.887 235.827 423.408 237.322 423.408 239.305V247.068H419.476V239.91C419.476 238.835 419.241 238.036 418.77 237.515C418.3 236.978 417.619 236.709 416.729 236.709C415.737 236.709 414.947 237.02 414.359 237.642C413.771 238.246 413.477 239.154 413.477 240.364V247.068H409.545V233.508H413.301V235.096C413.822 234.524 414.469 234.088 415.242 233.785C416.015 233.466 416.863 233.306 417.787 233.306ZM435.719 246.413C435.332 246.699 434.853 246.917 434.282 247.068C433.727 247.203 433.139 247.27 432.518 247.27C430.904 247.27 429.653 246.858 428.762 246.035C427.888 245.212 427.451 244.002 427.451 242.405V236.835H425.359V233.81H427.451V230.508H431.383V233.81H434.761V236.835H431.383V242.355C431.383 242.926 431.526 243.372 431.812 243.691C432.114 243.993 432.534 244.145 433.072 244.145C433.694 244.145 434.223 243.976 434.66 243.64L435.719 246.413ZM446.168 233.306C447.848 233.306 449.201 233.81 450.226 234.818C451.268 235.827 451.789 237.322 451.789 239.305V247.068H447.857V239.91C447.857 238.835 447.622 238.036 447.151 237.515C446.681 236.978 446 236.709 445.109 236.709C444.118 236.709 443.328 237.02 442.74 237.642C442.152 238.246 441.858 239.154 441.858 240.364V247.068H437.926V228.366H441.858V234.919C442.379 234.398 443.009 234.004 443.748 233.735C444.488 233.449 445.294 233.306 446.168 233.306Z" fill="#1A1A1A"/>
<rect x="80" y="809" width="713" height="97" rx="16" fill="#130F26"/>
<path d="M377.473 866.288C375.761 866.288 374.209 865.92 372.817 865.184C371.441 864.432 370.353 863.4 369.553 862.088C368.769 860.76 368.377 859.264 368.377 857.6C368.377 855.936 368.769 854.448 369.553 853.136C370.353 851.808 371.441 850.776 372.817 850.04C374.209 849.288 375.769 848.912 377.497 848.912C378.953 848.912 380.265 849.168 381.433 849.68C382.617 850.192 383.609 850.928 384.409 851.888L381.913 854.192C380.777 852.88 379.369 852.224 377.689 852.224C376.649 852.224 375.721 852.456 374.905 852.92C374.089 853.368 373.449 854 372.985 854.816C372.537 855.632 372.313 856.56 372.313 857.6C372.313 858.64 372.537 859.568 372.985 860.384C373.449 861.2 374.089 861.84 374.905 862.304C375.721 862.752 376.649 862.976 377.689 862.976C379.369 862.976 380.777 862.312 381.913 860.984L384.409 863.288C383.609 864.264 382.617 865.008 381.433 865.52C380.249 866.032 378.929 866.288 377.473 866.288ZM392.47 866.192C391.11 866.192 389.886 865.912 388.798 865.352C387.726 864.776 386.886 863.984 386.278 862.976C385.67 861.968 385.366 860.824 385.366 859.544C385.366 858.264 385.67 857.12 386.278 856.112C386.886 855.104 387.726 854.32 388.798 853.76C389.886 853.184 391.11 852.896 392.47 852.896C393.83 852.896 395.046 853.184 396.118 853.76C397.19 854.32 398.03 855.104 398.638 856.112C399.246 857.12 399.55 858.264 399.55 859.544C399.55 860.824 399.246 861.968 398.638 862.976C398.03 863.984 397.19 864.776 396.118 865.352C395.046 865.912 393.83 866.192 392.47 866.192ZM392.47 863.12C393.43 863.12 394.214 862.8 394.822 862.16C395.446 861.504 395.758 860.632 395.758 859.544C395.758 858.456 395.446 857.592 394.822 856.952C394.214 856.296 393.43 855.968 392.47 855.968C391.51 855.968 390.718 856.296 390.094 856.952C389.47 857.592 389.158 858.456 389.158 859.544C389.158 860.632 389.47 861.504 390.094 862.16C390.718 862.8 391.51 863.12 392.47 863.12ZM409.9 852.896C411.5 852.896 412.788 853.376 413.764 854.336C414.756 855.296 415.252 856.72 415.252 858.608V866H411.508V859.184C411.508 858.16 411.284 857.4 410.836 856.904C410.388 856.392 409.74 856.136 408.892 856.136C407.948 856.136 407.196 856.432 406.636 857.024C406.076 857.6 405.796 858.464 405.796 859.616V866H402.052V853.088H405.628V854.6C406.124 854.056 406.74 853.64 407.476 853.352C408.212 853.048 409.02 852.896 409.9 852.896ZM426.974 865.376C426.606 865.648 426.15 865.856 425.606 866C425.078 866.128 424.518 866.192 423.926 866.192C422.39 866.192 421.198 865.8 420.35 865.016C419.518 864.232 419.102 863.08 419.102 861.56V856.256H417.11V853.376H419.102V850.232H422.846V853.376H426.062V856.256H422.846V861.512C422.846 862.056 422.982 862.48 423.254 862.784C423.542 863.072 423.942 863.216 424.454 863.216C425.046 863.216 425.55 863.056 425.966 862.736L426.974 865.376ZM434.284 852.896C436.284 852.896 437.82 853.376 438.892 854.336C439.964 855.28 440.5 856.712 440.5 858.632V866H436.996V864.392C436.292 865.592 434.98 866.192 433.06 866.192C432.068 866.192 431.204 866.024 430.468 865.688C429.748 865.352 429.196 864.888 428.812 864.296C428.428 863.704 428.236 863.032 428.236 862.28C428.236 861.08 428.684 860.136 429.58 859.448C430.492 858.76 431.892 858.416 433.78 858.416H436.756C436.756 857.6 436.508 856.976 436.012 856.544C435.516 856.096 434.772 855.872 433.78 855.872C433.092 855.872 432.412 855.984 431.74 856.208C431.084 856.416 430.524 856.704 430.06 857.072L428.716 854.456C429.42 853.96 430.26 853.576 431.236 853.304C432.228 853.032 433.244 852.896 434.284 852.896ZM433.996 863.672C434.636 863.672 435.204 863.528 435.7 863.24C436.196 862.936 436.548 862.496 436.756 861.92V860.6H434.188C432.652 860.6 431.884 861.104 431.884 862.112C431.884 862.592 432.068 862.976 432.436 863.264C432.82 863.536 433.34 863.672 433.996 863.672ZM450.269 866.192C448.893 866.192 447.653 865.912 446.549 865.352C445.461 864.776 444.605 863.984 443.981 862.976C443.373 861.968 443.069 860.824 443.069 859.544C443.069 858.264 443.373 857.12 443.981 856.112C444.605 855.104 445.461 854.32 446.549 853.76C447.653 853.184 448.893 852.896 450.269 852.896C451.629 852.896 452.813 853.184 453.821 853.76C454.845 854.32 455.589 855.128 456.053 856.184L453.149 857.744C452.477 856.56 451.509 855.968 450.245 855.968C449.269 855.968 448.461 856.288 447.821 856.928C447.181 857.568 446.861 858.44 446.861 859.544C446.861 860.648 447.181 861.52 447.821 862.16C448.461 862.8 449.269 863.12 450.245 863.12C451.525 863.12 452.493 862.528 453.149 861.344L456.053 862.928C455.589 863.952 454.845 864.752 453.821 865.328C452.813 865.904 451.629 866.192 450.269 866.192ZM466.724 865.376C466.356 865.648 465.9 865.856 465.356 866C464.828 866.128 464.268 866.192 463.676 866.192C462.14 866.192 460.948 865.8 460.1 865.016C459.268 864.232 458.852 863.08 458.852 861.56V856.256H456.86V853.376H458.852V850.232H462.596V853.376H465.812V856.256H462.596V861.512C462.596 862.056 462.732 862.48 463.004 862.784C463.292 863.072 463.692 863.216 464.204 863.216C464.796 863.216 465.3 863.056 465.716 862.736L466.724 865.376ZM483.351 866.288C480.951 866.288 479.079 865.624 477.735 864.296C476.407 862.968 475.743 861.072 475.743 858.608V849.2H479.631V858.464C479.631 861.472 480.879 862.976 483.375 862.976C484.591 862.976 485.519 862.616 486.159 861.896C486.799 861.16 487.119 860.016 487.119 858.464V849.2H490.959V858.608C490.959 861.072 490.287 862.968 488.943 864.296C487.615 865.624 485.751 866.288 483.351 866.288ZM498.881 866.192C497.809 866.192 496.761 866.064 495.737 865.808C494.713 865.536 493.897 865.2 493.289 864.8L494.537 862.112C495.113 862.48 495.809 862.784 496.625 863.024C497.441 863.248 498.241 863.36 499.025 863.36C500.609 863.36 501.401 862.968 501.401 862.184C501.401 861.816 501.185 861.552 500.753 861.392C500.321 861.232 499.657 861.096 498.761 860.984C497.705 860.824 496.833 860.64 496.145 860.432C495.457 860.224 494.857 859.856 494.345 859.328C493.849 858.8 493.601 858.048 493.601 857.072C493.601 856.256 493.833 855.536 494.297 854.912C494.777 854.272 495.465 853.776 496.361 853.424C497.273 853.072 498.345 852.896 499.577 852.896C500.489 852.896 501.393 853 502.289 853.208C503.201 853.4 503.953 853.672 504.545 854.024L503.297 856.688C502.161 856.048 500.921 855.728 499.577 855.728C498.777 855.728 498.177 855.84 497.777 856.064C497.377 856.288 497.177 856.576 497.177 856.928C497.177 857.328 497.393 857.608 497.825 857.768C498.257 857.928 498.945 858.08 499.889 858.224C500.945 858.4 501.809 858.592 502.481 858.8C503.153 858.992 503.737 859.352 504.233 859.88C504.729 860.408 504.977 861.144 504.977 862.088C504.977 862.888 504.737 863.6 504.257 864.224C503.777 864.848 503.073 865.336 502.145 865.688C501.233 866.024 500.145 866.192 498.881 866.192Z" fill="white"/>
<defs>
<linearGradient id="paint0_linear_248_415" x1="15.0047" y1="16.7119" x2="870.76" y2="968.388" gradientUnits="userSpaceOnUse">
<stop stop-color="#FF8000"/>
<stop offset="0.2" stop-color="#FF4880"/>
<stop offset="0.369792" stop-color="#FF004F"/>
<stop offset="0.578125" stop-color="#7F30FF"/>
<stop offset="0.8" stop-color="#466FFF"/>
<stop offset="1" stop-color="#75D4FF"/>
</linearGradient>
</defs>
</svg>
