<svg width="873" height="986" viewBox="0 0 873 986" fill="none" xmlns="http://www.w3.org/2000/svg">
<rect x="1.5" y="1.5" width="870" height="983" rx="30.5" fill="white" stroke="url(#paint0_linear_248_414)" stroke-width="3" stroke-miterlimit="2.61313"/>
<path d="M84.2061 378.237C84.2061 389.824 93.6274 399.266 105.236 399.266C116.823 399.266 126.265 389.824 126.265 378.237C126.265 366.628 116.823 357.207 105.236 357.207C93.6274 357.207 84.2061 366.628 84.2061 378.237V378.237Z" fill="#130F26"/>
<rect x="97.4045" y="376.251" width="10.9133" height="3.63778" rx="1.81889" transform="rotate(45 97.4045 376.251)" fill="white"/>
<rect x="116.697" y="372.393" width="20.0078" height="3.63778" rx="1.81889" transform="rotate(135 116.697 372.393)" fill="white"/>
<path d="M169.081 389.521L163.75 381.855L158.514 389.521H152.647L160.817 378.291L153.057 367.439H158.861L163.94 374.6L168.924 367.439H174.444L166.747 378.101L174.98 389.521H169.081ZM196.18 367.439C198.136 367.439 199.829 367.765 201.259 368.417C202.71 369.069 203.825 369.995 204.603 371.193C205.381 372.392 205.77 373.811 205.77 375.452C205.77 377.071 205.381 378.49 204.603 379.71C203.825 380.909 202.71 381.834 201.259 382.486C199.829 383.117 198.136 383.432 196.18 383.432H191.732V389.521H186.622V367.439H196.18ZM195.896 379.269C197.432 379.269 198.599 378.943 199.398 378.291C200.197 377.618 200.596 376.671 200.596 375.452C200.596 374.211 200.197 373.265 199.398 372.613C198.599 371.94 197.432 371.603 195.896 371.603H191.732V379.269H195.896ZM217.116 389.773C215.328 389.773 213.719 389.405 212.289 388.669C210.88 387.912 209.776 386.871 208.977 385.546C208.178 384.221 207.778 382.717 207.778 381.035C207.778 379.353 208.178 377.849 208.977 376.524C209.776 375.199 210.88 374.169 212.289 373.433C213.719 372.676 215.328 372.297 217.116 372.297C218.903 372.297 220.501 372.676 221.91 373.433C223.319 374.169 224.423 375.199 225.223 376.524C226.022 377.849 226.421 379.353 226.421 381.035C226.421 382.717 226.022 384.221 225.223 385.546C224.423 386.871 223.319 387.912 221.91 388.669C220.501 389.405 218.903 389.773 217.116 389.773ZM217.116 385.735C218.377 385.735 219.408 385.315 220.207 384.473C221.027 383.611 221.437 382.465 221.437 381.035C221.437 379.605 221.027 378.469 220.207 377.628C219.408 376.766 218.377 376.335 217.116 376.335C215.854 376.335 214.813 376.766 213.993 377.628C213.173 378.469 212.763 379.605 212.763 381.035C212.763 382.465 213.173 383.611 213.993 384.473C214.813 385.315 215.854 385.735 217.116 385.735ZM235.42 389.773C234.011 389.773 232.634 389.605 231.288 389.268C229.942 388.911 228.869 388.469 228.07 387.943L229.71 384.41C230.468 384.894 231.382 385.294 232.455 385.609C233.527 385.903 234.579 386.051 235.609 386.051C237.691 386.051 238.732 385.535 238.732 384.505C238.732 384.021 238.448 383.674 237.88 383.464C237.313 383.254 236.44 383.075 235.262 382.928C233.874 382.717 232.728 382.476 231.824 382.202C230.92 381.929 230.131 381.445 229.458 380.751C228.806 380.057 228.48 379.069 228.48 377.786C228.48 376.713 228.785 375.767 229.395 374.947C230.026 374.106 230.93 373.454 232.108 372.991C233.307 372.529 234.716 372.297 236.335 372.297C237.533 372.297 238.722 372.434 239.899 372.707C241.098 372.96 242.086 373.317 242.865 373.78L241.224 377.281C239.731 376.44 238.101 376.02 236.335 376.02C235.283 376.02 234.495 376.167 233.969 376.461C233.443 376.756 233.18 377.134 233.18 377.597C233.18 378.122 233.464 378.49 234.032 378.701C234.6 378.911 235.504 379.111 236.745 379.3C238.133 379.531 239.268 379.784 240.152 380.057C241.035 380.31 241.803 380.783 242.454 381.477C243.106 382.171 243.432 383.138 243.432 384.379C243.432 385.43 243.117 386.366 242.486 387.186C241.855 388.006 240.93 388.648 239.71 389.11C238.511 389.552 237.081 389.773 235.42 389.773ZM257.414 388.7C256.931 389.058 256.331 389.331 255.616 389.521C254.922 389.689 254.186 389.773 253.408 389.773C251.389 389.773 249.823 389.258 248.708 388.227C247.615 387.197 247.068 385.683 247.068 383.685V376.713H244.45V372.928H247.068V368.796H251.989V372.928H256.216V376.713H251.989V383.622C251.989 384.337 252.167 384.894 252.525 385.294C252.904 385.672 253.429 385.861 254.102 385.861C254.88 385.861 255.543 385.651 256.089 385.23L257.414 388.7ZM265.886 389.773C264.477 389.773 263.1 389.605 261.754 389.268C260.408 388.911 259.336 388.469 258.536 387.943L260.177 384.41C260.934 384.894 261.849 385.294 262.921 385.609C263.994 385.903 265.045 386.051 266.076 386.051C268.157 386.051 269.198 385.535 269.198 384.505C269.198 384.021 268.915 383.674 268.347 383.464C267.779 383.254 266.906 383.075 265.729 382.928C264.341 382.717 263.194 382.476 262.29 382.202C261.386 381.929 260.597 381.445 259.924 380.751C259.272 380.057 258.946 379.069 258.946 377.786C258.946 376.713 259.251 375.767 259.861 374.947C260.492 374.106 261.396 373.454 262.574 372.991C263.773 372.529 265.182 372.297 266.801 372.297C268 372.297 269.188 372.434 270.366 372.707C271.564 372.96 272.553 373.317 273.331 373.78L271.69 377.281C270.197 376.44 268.568 376.02 266.801 376.02C265.75 376.02 264.961 376.167 264.435 376.461C263.909 376.756 263.647 377.134 263.647 377.597C263.647 378.122 263.93 378.49 264.498 378.701C265.066 378.911 265.97 379.111 267.211 379.3C268.599 379.531 269.735 379.784 270.618 380.057C271.501 380.31 272.269 380.783 272.921 381.477C273.573 382.171 273.899 383.138 273.899 384.379C273.899 385.43 273.583 386.366 272.952 387.186C272.321 388.006 271.396 388.648 270.176 389.11C268.978 389.552 267.548 389.773 265.886 389.773ZM294.869 372.644C296.489 372.644 297.94 373.002 299.223 373.717C300.505 374.432 301.504 375.431 302.219 376.713C302.955 377.996 303.323 379.479 303.323 381.161C303.323 382.844 302.955 384.337 302.219 385.641C301.504 386.923 300.505 387.922 299.223 388.637C297.94 389.352 296.489 389.71 294.869 389.71C293.671 389.71 292.567 389.478 291.557 389.016C290.569 388.553 289.728 387.88 289.034 386.997V395.64H286.005V372.802H288.907V375.452C289.58 374.526 290.432 373.832 291.463 373.37C292.493 372.886 293.629 372.644 294.869 372.644ZM294.617 387.06C295.69 387.06 296.646 386.818 297.488 386.335C298.35 385.83 299.023 385.136 299.506 384.253C300.011 383.348 300.263 382.318 300.263 381.161C300.263 380.005 300.011 378.985 299.506 378.101C299.023 377.197 298.35 376.503 297.488 376.02C296.646 375.536 295.69 375.294 294.617 375.294C293.566 375.294 292.609 375.546 291.746 376.051C290.905 376.535 290.232 377.218 289.728 378.101C289.244 378.985 289.002 380.005 289.002 381.161C289.002 382.318 289.244 383.348 289.728 384.253C290.211 385.136 290.884 385.83 291.746 386.335C292.609 386.818 293.566 387.06 294.617 387.06ZM322.617 381.256C322.617 381.487 322.596 381.792 322.554 382.171H308.99C309.179 383.643 309.821 384.831 310.914 385.735C312.029 386.618 313.406 387.06 315.046 387.06C317.044 387.06 318.653 386.387 319.873 385.041L321.545 386.997C320.788 387.88 319.841 388.553 318.706 389.016C317.591 389.478 316.34 389.71 314.952 389.71C313.185 389.71 311.619 389.352 310.252 388.637C308.885 387.901 307.823 386.881 307.066 385.577C306.33 384.274 305.962 382.802 305.962 381.161C305.962 379.542 306.319 378.08 307.034 376.777C307.77 375.473 308.769 374.463 310.031 373.748C311.314 373.012 312.754 372.644 314.353 372.644C315.951 372.644 317.37 373.012 318.611 373.748C319.873 374.463 320.851 375.473 321.545 376.777C322.26 378.08 322.617 379.574 322.617 381.256ZM314.353 375.199C312.901 375.199 311.682 375.641 310.693 376.524C309.726 377.407 309.158 378.564 308.99 379.994H319.715C319.547 378.585 318.969 377.439 317.98 376.556C317.013 375.651 315.804 375.199 314.353 375.199ZM329.724 375.609C330.25 374.642 331.028 373.906 332.059 373.401C333.089 372.897 334.34 372.644 335.812 372.644V375.578C335.644 375.557 335.413 375.546 335.118 375.546C333.478 375.546 332.185 376.041 331.238 377.029C330.313 377.996 329.85 379.384 329.85 381.193V389.521H326.822V372.802H329.724V375.609ZM373.53 372.802L367.285 389.521H364.382L359.556 376.84L354.667 389.521H351.765L345.55 372.802H348.421L353.279 386.114L358.326 372.802H360.881L365.833 386.177L370.817 372.802H373.53ZM391.251 381.256C391.251 381.487 391.23 381.792 391.188 382.171H377.624C377.813 383.643 378.454 384.831 379.548 385.735C380.662 386.618 382.04 387.06 383.68 387.06C385.678 387.06 387.287 386.387 388.507 385.041L390.178 386.997C389.421 387.88 388.475 388.553 387.339 389.016C386.225 389.478 384.974 389.71 383.586 389.71C381.819 389.71 380.252 389.352 378.885 388.637C377.519 387.901 376.457 386.881 375.699 385.577C374.963 384.274 374.595 382.802 374.595 381.161C374.595 379.542 374.953 378.08 375.668 376.777C376.404 375.473 377.403 374.463 378.665 373.748C379.947 373.012 381.388 372.644 382.986 372.644C384.584 372.644 386.004 373.012 387.245 373.748C388.507 374.463 389.484 375.473 390.178 376.777C390.893 378.08 391.251 379.574 391.251 381.256ZM382.986 375.199C381.535 375.199 380.315 375.641 379.327 376.524C378.36 377.407 377.792 378.564 377.624 379.994H388.349C388.181 378.585 387.602 377.439 386.614 376.556C385.646 375.651 384.437 375.199 382.986 375.199ZM410.566 381.256C410.566 381.487 410.545 381.792 410.503 382.171H396.938C397.128 383.643 397.769 384.831 398.863 385.735C399.977 386.618 401.355 387.06 402.995 387.06C404.993 387.06 406.602 386.387 407.821 385.041L409.493 386.997C408.736 387.88 407.79 388.553 406.654 389.016C405.54 389.478 404.288 389.71 402.9 389.71C401.134 389.71 399.567 389.352 398.2 388.637C396.833 387.901 395.771 386.881 395.014 385.577C394.278 384.274 393.91 382.802 393.91 381.161C393.91 379.542 394.268 378.08 394.983 376.777C395.719 375.473 396.718 374.463 397.979 373.748C399.262 373.012 400.703 372.644 402.301 372.644C403.899 372.644 405.319 373.012 406.56 373.748C407.821 374.463 408.799 375.473 409.493 376.777C410.208 378.08 410.566 379.574 410.566 381.256ZM402.301 375.199C400.85 375.199 399.63 375.641 398.642 376.524C397.675 377.407 397.107 378.564 396.938 379.994H407.664C407.495 378.585 406.917 377.439 405.929 376.556C404.961 375.651 403.752 375.199 402.301 375.199ZM421.269 381.729L417.799 384.947V389.521H414.771V366.115H417.799V381.13L426.915 372.802H430.574L423.54 379.71L431.268 389.521H427.546L421.269 381.729Z" fill="#1A1A1A"/>
<path d="M84.2061 460.252C84.2061 471.84 93.6274 481.282 105.236 481.282C116.823 481.282 126.265 471.84 126.265 460.252C126.265 448.644 116.823 439.223 105.236 439.223C93.6274 439.223 84.2061 448.644 84.2061 460.252V460.252Z" fill="#130F26"/>
<rect x="97.4045" y="458.267" width="10.9133" height="3.63778" rx="1.81889" transform="rotate(45 97.4045 458.267)" fill="white"/>
<rect x="116.697" y="454.408" width="20.0078" height="3.63778" rx="1.81889" transform="rotate(135 116.697 454.408)" fill="white"/>
<path d="M169.081 471.536L163.75 463.871L158.514 471.536H152.647L160.817 460.306L153.057 449.455H158.861L163.94 456.616L168.924 449.455H174.444L166.747 460.117L174.98 471.536H169.081ZM200.691 471.536L196.433 465.385H196.18H191.732V471.536H186.622V449.455H196.18C198.136 449.455 199.829 449.781 201.259 450.433C202.71 451.085 203.825 452.01 204.603 453.209C205.381 454.408 205.77 455.827 205.77 457.467C205.77 459.108 205.37 460.527 204.571 461.726C203.793 462.903 202.678 463.808 201.227 464.439L206.18 471.536H200.691ZM200.596 457.467C200.596 456.227 200.197 455.28 199.398 454.628C198.599 453.955 197.432 453.619 195.896 453.619H191.732V461.316H195.896C197.432 461.316 198.599 460.979 199.398 460.306C200.197 459.633 200.596 458.687 200.596 457.467ZM226.095 463.114C226.095 463.177 226.064 463.618 226.001 464.439H213.162C213.394 465.49 213.94 466.321 214.803 466.931C215.665 467.541 216.737 467.845 218.02 467.845C218.903 467.845 219.681 467.719 220.354 467.467C221.048 467.194 221.69 466.773 222.279 466.205L224.897 469.044C223.299 470.874 220.964 471.788 217.894 471.788C215.98 471.788 214.287 471.42 212.815 470.684C211.343 469.927 210.208 468.886 209.408 467.562C208.609 466.237 208.21 464.733 208.21 463.051C208.21 461.389 208.599 459.896 209.377 458.571C210.176 457.225 211.259 456.185 212.626 455.448C214.014 454.691 215.56 454.313 217.263 454.313C218.924 454.313 220.428 454.67 221.774 455.385C223.12 456.1 224.171 457.131 224.928 458.477C225.706 459.802 226.095 461.347 226.095 463.114ZM217.295 458.035C216.18 458.035 215.244 458.351 214.487 458.981C213.73 459.612 213.267 460.475 213.099 461.568H221.458C221.29 460.496 220.828 459.644 220.07 459.013C219.313 458.361 218.388 458.035 217.295 458.035ZM245.996 463.114C245.996 463.177 245.964 463.618 245.901 464.439H233.062C233.294 465.49 233.84 466.321 234.703 466.931C235.565 467.541 236.637 467.845 237.92 467.845C238.803 467.845 239.581 467.719 240.254 467.467C240.948 467.194 241.59 466.773 242.179 466.205L244.797 469.044C243.199 470.874 240.864 471.788 237.794 471.788C235.88 471.788 234.187 471.42 232.715 470.684C231.243 469.927 230.108 468.886 229.309 467.562C228.509 466.237 228.11 464.733 228.11 463.051C228.11 461.389 228.499 459.896 229.277 458.571C230.076 457.225 231.159 456.185 232.526 455.448C233.914 454.691 235.46 454.313 237.163 454.313C238.824 454.313 240.328 454.67 241.674 455.385C243.02 456.1 244.071 457.131 244.828 458.477C245.606 459.802 245.996 461.347 245.996 463.114ZM237.195 458.035C236.08 458.035 235.144 458.351 234.387 458.981C233.63 459.612 233.167 460.475 232.999 461.568H241.358C241.19 460.496 240.728 459.644 239.971 459.013C239.213 458.361 238.288 458.035 237.195 458.035ZM249.272 448.13H254.193V471.536H249.272V448.13ZM264.469 471.788C263.06 471.788 261.683 471.62 260.337 471.284C258.991 470.926 257.918 470.485 257.119 469.959L258.76 466.426C259.517 466.91 260.432 467.309 261.504 467.625C262.577 467.919 263.628 468.066 264.658 468.066C266.74 468.066 267.781 467.551 267.781 466.521C267.781 466.037 267.497 465.69 266.93 465.48C266.362 465.269 265.489 465.091 264.311 464.943C262.924 464.733 261.777 464.491 260.873 464.218C259.969 463.944 259.18 463.461 258.507 462.767C257.855 462.073 257.529 461.084 257.529 459.802C257.529 458.729 257.834 457.783 258.444 456.963C259.075 456.121 259.979 455.47 261.157 455.007C262.356 454.544 263.765 454.313 265.384 454.313C266.583 454.313 267.771 454.45 268.949 454.723C270.147 454.975 271.136 455.333 271.914 455.795L270.273 459.297C268.78 458.456 267.15 458.035 265.384 458.035C264.333 458.035 263.544 458.182 263.018 458.477C262.492 458.771 262.23 459.15 262.23 459.612C262.23 460.138 262.513 460.506 263.081 460.716C263.649 460.927 264.553 461.126 265.794 461.316C267.182 461.547 268.318 461.799 269.201 462.073C270.084 462.325 270.852 462.798 271.504 463.492C272.156 464.186 272.481 465.154 272.481 466.394C272.481 467.446 272.166 468.382 271.535 469.202C270.904 470.022 269.979 470.663 268.759 471.126C267.561 471.568 266.131 471.788 264.469 471.788ZM293.452 454.66C295.072 454.66 296.523 455.017 297.805 455.732C299.088 456.447 300.087 457.446 300.802 458.729C301.538 460.012 301.906 461.494 301.906 463.177C301.906 464.859 301.538 466.352 300.802 467.656C300.087 468.939 299.088 469.938 297.805 470.653C296.523 471.368 295.072 471.725 293.452 471.725C292.254 471.725 291.15 471.494 290.14 471.031C289.152 470.569 288.311 469.896 287.617 469.013V477.656H284.588V454.818H287.49V457.467C288.163 456.542 289.015 455.848 290.046 455.385C291.076 454.902 292.212 454.66 293.452 454.66ZM293.2 469.076C294.273 469.076 295.229 468.834 296.071 468.35C296.933 467.845 297.606 467.151 298.089 466.268C298.594 465.364 298.846 464.333 298.846 463.177C298.846 462.02 298.594 461 298.089 460.117C297.606 459.213 296.933 458.519 296.071 458.035C295.229 457.551 294.273 457.31 293.2 457.31C292.149 457.31 291.192 457.562 290.329 458.067C289.488 458.55 288.815 459.234 288.311 460.117C287.827 461 287.585 462.02 287.585 463.177C287.585 464.333 287.827 465.364 288.311 466.268C288.794 467.151 289.467 467.845 290.329 468.35C291.192 468.834 292.149 469.076 293.2 469.076ZM321.2 463.271C321.2 463.503 321.179 463.808 321.137 464.186H307.573C307.762 465.658 308.404 466.847 309.497 467.751C310.612 468.634 311.989 469.076 313.629 469.076C315.627 469.076 317.236 468.403 318.456 467.057L320.128 469.013C319.371 469.896 318.424 470.569 317.289 471.031C316.174 471.494 314.923 471.725 313.535 471.725C311.768 471.725 310.202 471.368 308.835 470.653C307.468 469.917 306.406 468.897 305.649 467.593C304.913 466.289 304.545 464.817 304.545 463.177C304.545 461.558 304.902 460.096 305.617 458.792C306.353 457.488 307.352 456.479 308.614 455.764C309.897 455.028 311.337 454.66 312.935 454.66C314.534 454.66 315.953 455.028 317.194 455.764C318.456 456.479 319.434 457.488 320.128 458.792C320.843 460.096 321.2 461.589 321.2 463.271ZM312.935 457.215C311.484 457.215 310.265 457.657 309.276 458.54C308.309 459.423 307.741 460.58 307.573 462.01H318.298C318.13 460.601 317.551 459.455 316.563 458.571C315.596 457.667 314.387 457.215 312.935 457.215ZM328.307 457.625C328.833 456.658 329.611 455.922 330.641 455.417C331.672 454.912 332.923 454.66 334.395 454.66V457.594C334.227 457.572 333.996 457.562 333.701 457.562C332.061 457.562 330.768 458.056 329.821 459.045C328.896 460.012 328.433 461.4 328.433 463.208V471.536H325.405V454.818H328.307V457.625ZM372.113 454.818L365.867 471.536H362.965L358.139 458.855L353.25 471.536H350.348L344.133 454.818H347.004L351.862 468.129L356.909 454.818H359.464L364.416 468.192L369.4 454.818H372.113ZM389.834 463.271C389.834 463.503 389.813 463.808 389.771 464.186H376.207C376.396 465.658 377.037 466.847 378.131 467.751C379.245 468.634 380.623 469.076 382.263 469.076C384.261 469.076 385.87 468.403 387.089 467.057L388.761 469.013C388.004 469.896 387.058 470.569 385.922 471.031C384.808 471.494 383.557 471.725 382.169 471.725C380.402 471.725 378.835 471.368 377.468 470.653C376.102 469.917 375.04 468.897 374.282 467.593C373.546 466.289 373.178 464.817 373.178 463.177C373.178 461.558 373.536 460.096 374.251 458.792C374.987 457.488 375.986 456.479 377.248 455.764C378.53 455.028 379.971 454.66 381.569 454.66C383.167 454.66 384.587 455.028 385.828 455.764C387.089 456.479 388.067 457.488 388.761 458.792C389.476 460.096 389.834 461.589 389.834 463.271ZM381.569 457.215C380.118 457.215 378.898 457.657 377.91 458.54C376.943 459.423 376.375 460.58 376.207 462.01H386.932C386.764 460.601 386.185 459.455 385.197 458.571C384.229 457.667 383.02 457.215 381.569 457.215ZM409.149 463.271C409.149 463.503 409.128 463.808 409.086 464.186H395.521C395.711 465.658 396.352 466.847 397.446 467.751C398.56 468.634 399.938 469.076 401.578 469.076C403.576 469.076 405.185 468.403 406.404 467.057L408.076 469.013C407.319 469.896 406.373 470.569 405.237 471.031C404.123 471.494 402.871 471.725 401.483 471.725C399.717 471.725 398.15 471.368 396.783 470.653C395.416 469.917 394.354 468.897 393.597 467.593C392.861 466.289 392.493 464.817 392.493 463.177C392.493 461.558 392.851 460.096 393.566 458.792C394.302 457.488 395.301 456.479 396.562 455.764C397.845 455.028 399.286 454.66 400.884 454.66C402.482 454.66 403.902 455.028 405.142 455.764C406.404 456.479 407.382 457.488 408.076 458.792C408.791 460.096 409.149 461.589 409.149 463.271ZM400.884 457.215C399.433 457.215 398.213 457.657 397.225 458.54C396.257 459.423 395.69 460.58 395.521 462.01H406.247C406.078 460.601 405.5 459.455 404.512 458.571C403.544 457.667 402.335 457.215 400.884 457.215ZM419.852 463.745L416.382 466.962V471.536H413.354V448.13H416.382V463.145L425.498 454.818H429.157L422.123 461.726L429.851 471.536H426.129L419.852 463.745Z" fill="#1A1A1A"/>
<path d="M84.2061 624.283C84.2061 635.87 93.6274 645.312 105.236 645.312C116.823 645.312 126.265 635.87 126.265 624.283C126.265 612.674 116.823 603.253 105.236 603.253C93.6274 603.253 84.2061 612.674 84.2061 624.283V624.283Z" fill="#130F26"/>
<rect x="97.4045" y="622.297" width="10.9133" height="3.63778" rx="1.81889" transform="rotate(45 97.4045 622.297)" fill="white"/>
<rect x="116.697" y="618.438" width="20.0078" height="3.63778" rx="1.81889" transform="rotate(135 116.697 618.438)" fill="white"/>
<path d="M169.933 629.488H158.199L155.77 635.008H152.521L162.52 612.927H165.643L175.674 635.008H172.362L169.933 629.488ZM168.829 626.964L164.066 616.144L159.303 626.964H168.829ZM185.659 635.197C183.956 635.197 182.431 634.829 181.085 634.093C179.76 633.357 178.719 632.348 177.962 631.065C177.205 629.761 176.827 628.289 176.827 626.649C176.827 625.008 177.205 623.547 177.962 622.264C178.719 620.96 179.76 619.951 181.085 619.236C182.431 618.5 183.956 618.132 185.659 618.132C187.173 618.132 188.519 618.436 189.697 619.046C190.896 619.656 191.821 620.539 192.473 621.696L190.17 623.179C189.644 622.38 188.992 621.78 188.214 621.381C187.436 620.981 186.574 620.781 185.628 620.781C184.534 620.781 183.546 621.023 182.662 621.507C181.8 621.99 181.117 622.684 180.612 623.589C180.128 624.472 179.887 625.492 179.887 626.649C179.887 627.826 180.128 628.867 180.612 629.771C181.117 630.655 181.8 631.338 182.662 631.822C183.546 632.306 184.534 632.547 185.628 632.547C186.574 632.547 187.436 632.348 188.214 631.948C188.992 631.548 189.644 630.949 190.17 630.15L192.473 631.601C191.821 632.758 190.896 633.651 189.697 634.282C188.519 634.892 187.173 635.197 185.659 635.197ZM203.434 635.197C201.73 635.197 200.206 634.829 198.86 634.093C197.535 633.357 196.494 632.348 195.737 631.065C194.98 629.761 194.601 628.289 194.601 626.649C194.601 625.008 194.98 623.547 195.737 622.264C196.494 620.96 197.535 619.951 198.86 619.236C200.206 618.5 201.73 618.132 203.434 618.132C204.948 618.132 206.294 618.436 207.471 619.046C208.67 619.656 209.595 620.539 210.247 621.696L207.945 623.179C207.419 622.38 206.767 621.78 205.989 621.381C205.211 620.981 204.349 620.781 203.402 620.781C202.309 620.781 201.32 621.023 200.437 621.507C199.575 621.99 198.891 622.684 198.387 623.589C197.903 624.472 197.661 625.492 197.661 626.649C197.661 627.826 197.903 628.867 198.387 629.771C198.891 630.655 199.575 631.338 200.437 631.822C201.32 632.306 202.309 632.547 203.402 632.547C204.349 632.547 205.211 632.348 205.989 631.948C206.767 631.548 207.419 630.949 207.945 630.15L210.247 631.601C209.595 632.758 208.67 633.651 207.471 634.282C206.294 634.892 204.948 635.197 203.434 635.197ZM221.082 635.197C219.421 635.197 217.928 634.829 216.603 634.093C215.278 633.357 214.237 632.348 213.48 631.065C212.744 629.761 212.376 628.289 212.376 626.649C212.376 625.008 212.744 623.547 213.48 622.264C214.237 620.96 215.278 619.951 216.603 619.236C217.928 618.5 219.421 618.132 221.082 618.132C222.743 618.132 224.226 618.5 225.53 619.236C226.855 619.951 227.885 620.96 228.621 622.264C229.378 623.547 229.757 625.008 229.757 626.649C229.757 628.289 229.378 629.761 228.621 631.065C227.885 632.348 226.855 633.357 225.53 634.093C224.226 634.829 222.743 635.197 221.082 635.197ZM221.082 632.547C222.155 632.547 223.111 632.306 223.953 631.822C224.815 631.317 225.488 630.623 225.971 629.74C226.455 628.836 226.697 627.805 226.697 626.649C226.697 625.492 226.455 624.472 225.971 623.589C225.488 622.684 224.815 621.99 223.953 621.507C223.111 621.023 222.155 620.781 221.082 620.781C220.01 620.781 219.042 621.023 218.18 621.507C217.339 621.99 216.666 622.684 216.161 623.589C215.677 624.472 215.436 625.492 215.436 626.649C215.436 627.805 215.677 628.836 216.161 629.74C216.666 630.623 217.339 631.317 218.18 631.822C219.042 632.306 220.01 632.547 221.082 632.547ZM249.528 618.289V635.008H246.657V632.484C246.047 633.346 245.238 634.019 244.228 634.503C243.24 634.966 242.157 635.197 240.979 635.197C238.75 635.197 236.994 634.587 235.711 633.368C234.429 632.127 233.787 630.308 233.787 627.91V618.289H236.815V627.563C236.815 629.183 237.204 630.413 237.983 631.254C238.761 632.074 239.875 632.484 241.326 632.484C242.924 632.484 244.186 632.001 245.112 631.033C246.037 630.066 246.5 628.699 246.5 626.932V618.289H249.528ZM264.22 618.132C266.344 618.132 268.026 618.752 269.267 619.993C270.529 621.212 271.16 623.01 271.16 625.387V635.008H268.131V625.734C268.131 624.114 267.742 622.895 266.964 622.075C266.186 621.254 265.072 620.844 263.62 620.844C261.98 620.844 260.687 621.328 259.741 622.295C258.794 623.242 258.321 624.609 258.321 626.396V635.008H255.293V618.289H258.195V620.813C258.805 619.951 259.625 619.288 260.655 618.826C261.707 618.363 262.895 618.132 264.22 618.132ZM286.164 634.03C285.723 634.408 285.176 634.703 284.524 634.913C283.872 635.102 283.199 635.197 282.505 635.197C280.823 635.197 279.519 634.745 278.593 633.841C277.668 632.936 277.206 631.643 277.206 629.961V620.781H274.367V618.289H277.206V614.63H280.234V618.289H285.029V620.781H280.234V629.835C280.234 630.739 280.455 631.433 280.896 631.916C281.359 632.4 282.011 632.642 282.852 632.642C283.777 632.642 284.566 632.379 285.218 631.853L286.164 634.03ZM319.211 618.132C321.314 618.132 322.975 618.741 324.195 619.961C325.435 621.181 326.056 622.989 326.056 625.387V635.008H323.027V625.734C323.027 624.114 322.649 622.895 321.892 622.075C321.156 621.254 320.094 620.844 318.706 620.844C317.171 620.844 315.951 621.328 315.047 622.295C314.142 623.242 313.69 624.609 313.69 626.396V635.008H310.662V625.734C310.662 624.114 310.284 622.895 309.526 622.075C308.79 621.254 307.728 620.844 306.34 620.844C304.805 620.844 303.586 621.328 302.681 622.295C301.777 623.242 301.325 624.609 301.325 626.396V635.008H298.297V618.289H301.199V620.781C301.809 619.919 302.608 619.267 303.596 618.826C304.584 618.363 305.71 618.132 306.971 618.132C308.275 618.132 309.432 618.394 310.441 618.92C311.451 619.446 312.229 620.213 312.776 621.223C313.406 620.256 314.279 619.498 315.394 618.952C316.529 618.405 317.802 618.132 319.211 618.132ZM337.716 618.132C340.029 618.132 341.796 618.699 343.015 619.835C344.256 620.971 344.876 622.663 344.876 624.914V635.008H342.006V632.8C341.501 633.578 340.776 634.177 339.829 634.598C338.904 634.997 337.8 635.197 336.517 635.197C334.645 635.197 333.142 634.745 332.006 633.841C330.892 632.936 330.334 631.748 330.334 630.276C330.334 628.804 330.871 627.626 331.943 626.743C333.016 625.839 334.719 625.387 337.053 625.387H341.848V624.787C341.848 623.484 341.47 622.485 340.713 621.791C339.955 621.097 338.841 620.75 337.369 620.75C336.38 620.75 335.413 620.918 334.467 621.254C333.52 621.57 332.721 622.001 332.069 622.548L330.808 620.277C331.67 619.583 332.7 619.057 333.899 618.699C335.098 618.321 336.37 618.132 337.716 618.132ZM337.022 632.863C338.178 632.863 339.177 632.61 340.019 632.106C340.86 631.58 341.47 630.844 341.848 629.898V627.563H337.18C334.614 627.563 333.331 628.426 333.331 630.15C333.331 630.991 333.657 631.654 334.309 632.137C334.961 632.621 335.865 632.863 337.022 632.863ZM359.408 618.132C361.532 618.132 363.214 618.752 364.455 619.993C365.716 621.212 366.347 623.01 366.347 625.387V635.008H363.319V625.734C363.319 624.114 362.93 622.895 362.152 622.075C361.374 621.254 360.259 620.844 358.808 620.844C357.168 620.844 355.875 621.328 354.928 622.295C353.982 623.242 353.509 624.609 353.509 626.396V635.008H350.48V618.289H353.383V620.813C353.992 619.951 354.813 619.288 355.843 618.826C356.894 618.363 358.083 618.132 359.408 618.132ZM378.04 618.132C380.353 618.132 382.119 618.699 383.339 619.835C384.58 620.971 385.2 622.663 385.2 624.914V635.008H382.33V632.8C381.825 633.578 381.099 634.177 380.153 634.598C379.228 634.997 378.124 635.197 376.841 635.197C374.969 635.197 373.466 634.745 372.33 633.841C371.216 632.936 370.658 631.748 370.658 630.276C370.658 628.804 371.195 627.626 372.267 626.743C373.34 625.839 375.043 625.387 377.377 625.387H382.172V624.787C382.172 623.484 381.793 622.485 381.036 621.791C380.279 621.097 379.165 620.75 377.693 620.75C376.704 620.75 375.737 620.918 374.791 621.254C373.844 621.57 373.045 622.001 372.393 622.548L371.131 620.277C371.994 619.583 373.024 619.057 374.223 618.699C375.421 618.321 376.694 618.132 378.04 618.132ZM377.346 632.863C378.502 632.863 379.501 632.61 380.342 632.106C381.184 631.58 381.793 630.844 382.172 629.898V627.563H377.503C374.938 627.563 373.655 628.426 373.655 630.15C373.655 630.991 373.981 631.654 374.633 632.137C375.285 632.621 376.189 632.863 377.346 632.863ZM406.89 618.289V632.737C406.89 635.66 406.164 637.815 404.713 639.203C403.262 640.612 401.096 641.317 398.215 641.317C396.638 641.317 395.134 641.096 393.704 640.654C392.274 640.234 391.118 639.624 390.234 638.825L391.685 636.49C392.463 637.163 393.42 637.689 394.556 638.068C395.713 638.467 396.901 638.667 398.12 638.667C400.076 638.667 401.517 638.204 402.442 637.279C403.388 636.354 403.861 634.945 403.861 633.052V631.727C403.146 632.589 402.263 633.241 401.212 633.683C400.181 634.104 399.056 634.314 397.837 634.314C396.238 634.314 394.787 633.977 393.483 633.304C392.201 632.61 391.191 631.654 390.455 630.434C389.719 629.193 389.351 627.784 389.351 626.207C389.351 624.63 389.719 623.231 390.455 622.012C391.191 620.771 392.201 619.814 393.483 619.141C394.787 618.468 396.238 618.132 397.837 618.132C399.098 618.132 400.265 618.363 401.338 618.826C402.431 619.288 403.325 619.972 404.019 620.876V618.289H406.89ZM398.183 631.664C399.277 631.664 400.255 631.433 401.117 630.97C402 630.507 402.684 629.866 403.168 629.046C403.672 628.205 403.925 627.258 403.925 626.207C403.925 624.588 403.388 623.284 402.316 622.295C401.243 621.286 399.866 620.781 398.183 620.781C396.48 620.781 395.092 621.286 394.02 622.295C392.947 623.284 392.411 624.588 392.411 626.207C392.411 627.258 392.653 628.205 393.136 629.046C393.641 629.866 394.325 630.507 395.187 630.97C396.07 631.433 397.069 631.664 398.183 631.664ZM427.786 626.743C427.786 626.975 427.765 627.279 427.723 627.658H414.159C414.348 629.13 414.989 630.318 416.083 631.222C417.197 632.106 418.575 632.547 420.215 632.547C422.213 632.547 423.822 631.874 425.041 630.529L426.713 632.484C425.956 633.368 425.01 634.04 423.874 634.503C422.76 634.966 421.508 635.197 420.12 635.197C418.354 635.197 416.787 634.84 415.42 634.125C414.053 633.389 412.991 632.369 412.234 631.065C411.498 629.761 411.13 628.289 411.13 626.649C411.13 625.029 411.488 623.568 412.203 622.264C412.939 620.96 413.938 619.951 415.199 619.236C416.482 618.5 417.923 618.132 419.521 618.132C421.119 618.132 422.539 618.5 423.78 619.236C425.041 619.951 426.019 620.96 426.713 622.264C427.428 623.568 427.786 625.061 427.786 626.743ZM419.521 620.687C418.07 620.687 416.85 621.128 415.862 622.012C414.895 622.895 414.327 624.051 414.159 625.481H424.884C424.715 624.072 424.137 622.926 423.149 622.043C422.181 621.139 420.972 620.687 419.521 620.687ZM452.905 618.132C455.008 618.132 456.669 618.741 457.889 619.961C459.129 621.181 459.75 622.989 459.75 625.387V635.008H456.722V625.734C456.722 624.114 456.343 622.895 455.586 622.075C454.85 621.254 453.788 620.844 452.4 620.844C450.865 620.844 449.645 621.328 448.741 622.295C447.837 623.242 447.384 624.609 447.384 626.396V635.008H444.356V625.734C444.356 624.114 443.978 622.895 443.221 622.075C442.484 621.254 441.422 620.844 440.035 620.844C438.499 620.844 437.28 621.328 436.375 622.295C435.471 623.242 435.019 624.609 435.019 626.396V635.008H431.991V618.289H434.893V620.781C435.503 619.919 436.302 619.267 437.29 618.826C438.279 618.363 439.404 618.132 440.665 618.132C441.969 618.132 443.126 618.394 444.135 618.92C445.145 619.446 445.923 620.213 446.47 621.223C447.1 620.256 447.973 619.498 449.088 618.952C450.223 618.405 451.496 618.132 452.905 618.132ZM480.524 626.743C480.524 626.975 480.503 627.279 480.461 627.658H466.897C467.086 629.13 467.727 630.318 468.821 631.222C469.936 632.106 471.313 632.547 472.953 632.547C474.951 632.547 476.56 631.874 477.78 630.529L479.452 632.484C478.694 633.368 477.748 634.04 476.613 634.503C475.498 634.966 474.247 635.197 472.859 635.197C471.092 635.197 469.526 634.84 468.159 634.125C466.792 633.389 465.73 632.369 464.973 631.065C464.237 629.761 463.869 628.289 463.869 626.649C463.869 625.029 464.226 623.568 464.941 622.264C465.677 620.96 466.676 619.951 467.938 619.236C469.221 618.5 470.661 618.132 472.259 618.132C473.858 618.132 475.277 618.5 476.518 619.236C477.78 619.951 478.758 620.96 479.452 622.264C480.167 623.568 480.524 625.061 480.524 626.743ZM472.259 620.687C470.808 620.687 469.589 621.128 468.6 622.012C467.633 622.895 467.065 624.051 466.897 625.481H477.622C477.454 624.072 476.875 622.926 475.887 622.043C474.92 621.139 473.71 620.687 472.259 620.687ZM493.656 618.132C495.78 618.132 497.462 618.752 498.703 619.993C499.965 621.212 500.596 623.01 500.596 625.387V635.008H497.568V625.734C497.568 624.114 497.179 622.895 496.4 622.075C495.622 621.254 494.508 620.844 493.057 620.844C491.416 620.844 490.123 621.328 489.177 622.295C488.23 623.242 487.757 624.609 487.757 626.396V635.008H484.729V618.289H487.631V620.813C488.241 619.951 489.061 619.288 490.092 618.826C491.143 618.363 492.331 618.132 493.656 618.132ZM515.6 634.03C515.159 634.408 514.612 634.703 513.96 634.913C513.308 635.102 512.635 635.197 511.941 635.197C510.259 635.197 508.955 634.745 508.03 633.841C507.104 632.936 506.642 631.643 506.642 629.961V620.781H503.803V618.289H506.642V614.63H509.67V618.289H514.465V620.781H509.67V629.835C509.67 630.739 509.891 631.433 510.332 631.916C510.795 632.4 511.447 632.642 512.288 632.642C513.214 632.642 514.002 632.379 514.654 631.853L515.6 634.03ZM541.108 625.229H535.367V630.875H532.717V625.229H526.976V622.737H532.717V617.059H535.367V622.737H541.108V625.229ZM569.075 629.488H557.34L554.911 635.008H551.662L561.662 612.927H564.785L574.816 635.008H571.503L569.075 629.488ZM567.971 626.964L563.207 616.144L558.444 626.964H567.971ZM592.943 618.289V635.008H590.072V632.484C589.462 633.346 588.653 634.019 587.643 634.503C586.655 634.966 585.572 635.197 584.394 635.197C582.165 635.197 580.409 634.587 579.126 633.368C577.844 632.127 577.202 630.308 577.202 627.91V618.289H580.23V627.563C580.23 629.183 580.62 630.413 581.398 631.254C582.176 632.074 583.29 632.484 584.741 632.484C586.34 632.484 587.601 632.001 588.527 631.033C589.452 630.066 589.915 628.699 589.915 626.932V618.289H592.943ZM608.108 634.03C607.666 634.408 607.12 634.703 606.468 634.913C605.816 635.102 605.143 635.197 604.449 635.197C602.767 635.197 601.463 634.745 600.537 633.841C599.612 632.936 599.149 631.643 599.149 629.961V620.781H596.31V618.289H599.149V614.63H602.178V618.289H606.972V620.781H602.178V629.835C602.178 630.739 602.399 631.433 602.84 631.916C603.303 632.4 603.955 632.642 604.796 632.642C605.721 632.642 606.51 632.379 607.162 631.853L608.108 634.03ZM618.375 635.197C616.714 635.197 615.221 634.829 613.896 634.093C612.571 633.357 611.53 632.348 610.773 631.065C610.037 629.761 609.669 628.289 609.669 626.649C609.669 625.008 610.037 623.547 610.773 622.264C611.53 620.96 612.571 619.951 613.896 619.236C615.221 618.5 616.714 618.132 618.375 618.132C620.037 618.132 621.519 618.5 622.823 619.236C624.148 619.951 625.178 620.96 625.914 622.264C626.671 623.547 627.05 625.008 627.05 626.649C627.05 628.289 626.671 629.761 625.914 631.065C625.178 632.348 624.148 633.357 622.823 634.093C621.519 634.829 620.037 635.197 618.375 635.197ZM618.375 632.547C619.448 632.547 620.405 632.306 621.246 631.822C622.108 631.317 622.781 630.623 623.265 629.74C623.748 628.836 623.99 627.805 623.99 626.649C623.99 625.492 623.748 624.472 623.265 623.589C622.781 622.684 622.108 621.99 621.246 621.507C620.405 621.023 619.448 620.781 618.375 620.781C617.303 620.781 616.335 621.023 615.473 621.507C614.632 621.99 613.959 622.684 613.454 623.589C612.971 624.472 612.729 625.492 612.729 626.649C612.729 627.805 612.971 628.836 613.454 629.74C613.959 630.623 614.632 631.317 615.473 631.822C616.335 632.306 617.303 632.547 618.375 632.547ZM652.152 618.132C654.255 618.132 655.916 618.741 657.136 619.961C658.377 621.181 658.997 622.989 658.997 625.387V635.008H655.969V625.734C655.969 624.114 655.59 622.895 654.833 622.075C654.097 621.254 653.035 620.844 651.647 620.844C650.112 620.844 648.892 621.328 647.988 622.295C647.084 623.242 646.632 624.609 646.632 626.396V635.008H643.603V625.734C643.603 624.114 643.225 622.895 642.468 622.075C641.732 621.254 640.67 620.844 639.282 620.844C637.747 620.844 636.527 621.328 635.623 622.295C634.718 623.242 634.266 624.609 634.266 626.396V635.008H631.238V618.289H634.14V620.781C634.75 619.919 635.549 619.267 636.537 618.826C637.526 618.363 638.651 618.132 639.913 618.132C641.217 618.132 642.373 618.394 643.383 618.92C644.392 619.446 645.17 620.213 645.717 621.223C646.348 620.256 647.221 619.498 648.335 618.952C649.471 618.405 650.743 618.132 652.152 618.132ZM670.657 618.132C672.97 618.132 674.737 618.699 675.957 619.835C677.197 620.971 677.818 622.663 677.818 624.914V635.008H674.947V632.8C674.443 633.578 673.717 634.177 672.771 634.598C671.845 634.997 670.741 635.197 669.459 635.197C667.587 635.197 666.083 634.745 664.948 633.841C663.833 632.936 663.276 631.748 663.276 630.276C663.276 628.804 663.812 627.626 664.885 626.743C665.957 625.839 667.66 625.387 669.995 625.387H674.79V624.787C674.79 623.484 674.411 622.485 673.654 621.791C672.897 621.097 671.782 620.75 670.31 620.75C669.322 620.75 668.354 620.918 667.408 621.254C666.462 621.57 665.663 622.001 665.011 622.548L663.749 620.277C664.611 619.583 665.642 619.057 666.84 618.699C668.039 618.321 669.311 618.132 670.657 618.132ZM669.963 632.863C671.12 632.863 672.119 632.61 672.96 632.106C673.801 631.58 674.411 630.844 674.79 629.898V627.563H670.121C667.555 627.563 666.273 628.426 666.273 630.15C666.273 630.991 666.598 631.654 667.25 632.137C667.902 632.621 668.807 632.863 669.963 632.863ZM692.822 634.03C692.38 634.408 691.834 634.703 691.182 634.913C690.53 635.102 689.857 635.197 689.163 635.197C687.481 635.197 686.177 634.745 685.251 633.841C684.326 632.936 683.863 631.643 683.863 629.961V620.781H681.024V618.289H683.863V614.63H686.892V618.289H691.686V620.781H686.892V629.835C686.892 630.739 687.113 631.433 687.554 631.916C688.017 632.4 688.669 632.642 689.51 632.642C690.435 632.642 691.224 632.379 691.876 631.853L692.822 634.03ZM696.483 618.289H699.511V635.008H696.483V618.289ZM697.997 615.072C697.408 615.072 696.914 614.882 696.515 614.504C696.136 614.125 695.947 613.663 695.947 613.116C695.947 612.569 696.136 612.107 696.515 611.728C696.914 611.328 697.408 611.129 697.997 611.129C698.586 611.129 699.07 611.318 699.448 611.696C699.848 612.054 700.048 612.506 700.048 613.053C700.048 613.621 699.848 614.104 699.448 614.504C699.07 614.882 698.586 615.072 697.997 615.072ZM712.454 635.197C710.793 635.197 709.3 634.829 707.975 634.093C706.65 633.357 705.609 632.348 704.852 631.065C704.116 629.761 703.748 628.289 703.748 626.649C703.748 625.008 704.116 623.547 704.852 622.264C705.609 620.96 706.65 619.951 707.975 619.236C709.3 618.5 710.793 618.132 712.454 618.132C714.115 618.132 715.598 618.5 716.902 619.236C718.227 619.951 719.257 620.96 719.993 622.264C720.75 623.547 721.129 625.008 721.129 626.649C721.129 628.289 720.75 629.761 719.993 631.065C719.257 632.348 718.227 633.357 716.902 634.093C715.598 634.829 714.115 635.197 712.454 635.197ZM712.454 632.547C713.527 632.547 714.483 632.306 715.325 631.822C716.187 631.317 716.86 630.623 717.343 629.74C717.827 628.836 718.069 627.805 718.069 626.649C718.069 625.492 717.827 624.472 717.343 623.589C716.86 622.684 716.187 621.99 715.325 621.507C714.483 621.023 713.527 620.781 712.454 620.781C711.382 620.781 710.414 621.023 709.552 621.507C708.711 621.99 708.038 622.684 707.533 623.589C707.049 624.472 706.808 625.492 706.808 626.649C706.808 627.805 707.049 628.836 707.533 629.74C708.038 630.623 708.711 631.317 709.552 631.822C710.414 632.306 711.382 632.547 712.454 632.547ZM734.244 618.132C736.368 618.132 738.05 618.752 739.291 619.993C740.553 621.212 741.184 623.01 741.184 625.387V635.008H738.155V625.734C738.155 624.114 737.766 622.895 736.988 622.075C736.21 621.254 735.095 620.844 733.644 620.844C732.004 620.844 730.711 621.328 729.764 622.295C728.818 623.242 728.345 624.609 728.345 626.396V635.008H725.317V618.289H728.219V620.813C728.829 619.951 729.649 619.288 730.679 618.826C731.731 618.363 732.919 618.132 734.244 618.132Z" fill="#1A1A1A"/>
<path d="M84.2061 542.268C84.2061 553.855 93.6274 563.297 105.236 563.297C116.823 563.297 126.265 553.855 126.265 542.268C126.265 530.66 116.823 521.238 105.236 521.238C93.6274 521.238 84.2061 530.66 84.2061 542.268V542.268Z" fill="#130F26"/>
<rect x="97.4045" y="540.282" width="10.9133" height="3.63778" rx="1.81889" transform="rotate(45 97.4045 540.282)" fill="white"/>
<rect x="116.697" y="536.424" width="20.0078" height="3.63778" rx="1.81889" transform="rotate(135 116.697 536.424)" fill="white"/>
<path d="M155.864 531.471H159.019V553.552H155.864V531.471ZM174.115 536.675C176.239 536.675 177.921 537.296 179.162 538.537C180.424 539.756 181.055 541.554 181.055 543.931V553.552H178.026V544.278C178.026 542.658 177.637 541.439 176.859 540.619C176.081 539.798 174.967 539.388 173.516 539.388C171.875 539.388 170.582 539.872 169.636 540.839C168.689 541.786 168.216 543.153 168.216 544.94V553.552H165.188V536.833H168.09V539.357C168.7 538.495 169.52 537.832 170.55 537.369C171.602 536.907 172.79 536.675 174.115 536.675ZM191.454 553.741C190.087 553.741 188.772 553.562 187.511 553.205C186.249 552.826 185.261 552.353 184.546 551.785L185.807 549.388C186.543 549.914 187.437 550.334 188.489 550.65C189.54 550.965 190.602 551.123 191.675 551.123C194.324 551.123 195.649 550.366 195.649 548.852C195.649 548.347 195.47 547.947 195.113 547.653C194.755 547.359 194.303 547.148 193.757 547.022C193.231 546.875 192.474 546.717 191.485 546.549C190.139 546.339 189.035 546.097 188.173 545.823C187.332 545.55 186.606 545.087 185.997 544.435C185.387 543.784 185.082 542.869 185.082 541.691C185.082 540.177 185.713 538.968 186.974 538.063C188.236 537.138 189.929 536.675 192.053 536.675C193.168 536.675 194.282 536.812 195.397 537.086C196.511 537.359 197.426 537.727 198.141 538.19L196.848 540.587C195.481 539.704 193.872 539.262 192.022 539.262C190.739 539.262 189.761 539.472 189.088 539.893C188.415 540.314 188.079 540.871 188.079 541.565C188.079 542.112 188.268 542.543 188.646 542.858C189.025 543.174 189.488 543.405 190.034 543.552C190.602 543.699 191.391 543.868 192.4 544.057C193.746 544.288 194.829 544.541 195.649 544.814C196.49 545.066 197.205 545.508 197.794 546.139C198.383 546.77 198.677 547.653 198.677 548.789C198.677 550.303 198.026 551.512 196.722 552.416C195.439 553.299 193.683 553.741 191.454 553.741ZM211.862 552.574C211.421 552.952 210.874 553.247 210.222 553.457C209.57 553.646 208.897 553.741 208.203 553.741C206.521 553.741 205.217 553.289 204.292 552.385C203.366 551.48 202.904 550.187 202.904 548.505V539.325H200.065V536.833H202.904V533.174H205.932V536.833H210.727V539.325H205.932V548.378C205.932 549.283 206.153 549.977 206.594 550.46C207.057 550.944 207.709 551.186 208.55 551.186C209.475 551.186 210.264 550.923 210.916 550.397L211.862 552.574ZM221.611 536.675C223.925 536.675 225.691 537.243 226.911 538.379C228.152 539.514 228.772 541.207 228.772 543.458V553.552H225.901V551.344C225.397 552.122 224.671 552.721 223.725 553.142C222.8 553.541 221.696 553.741 220.413 553.741C218.541 553.741 217.038 553.289 215.902 552.385C214.787 551.48 214.23 550.292 214.23 548.82C214.23 547.348 214.766 546.17 215.839 545.287C216.911 544.383 218.615 543.931 220.949 543.931H225.744V543.331C225.744 542.028 225.365 541.029 224.608 540.335C223.851 539.641 222.737 539.294 221.264 539.294C220.276 539.294 219.309 539.462 218.362 539.798C217.416 540.114 216.617 540.545 215.965 541.092L214.703 538.821C215.565 538.127 216.596 537.601 217.795 537.243C218.993 536.865 220.266 536.675 221.611 536.675ZM220.917 551.407C222.074 551.407 223.073 551.154 223.914 550.65C224.755 550.124 225.365 549.388 225.744 548.442V546.107H221.075C218.51 546.107 217.227 546.969 217.227 548.694C217.227 549.535 217.553 550.198 218.205 550.681C218.857 551.165 219.761 551.407 220.917 551.407ZM250.462 536.833V551.281C250.462 554.204 249.736 556.359 248.285 557.747C246.834 559.156 244.668 559.861 241.787 559.861C240.21 559.861 238.706 559.64 237.276 559.198C235.846 558.778 234.689 558.168 233.806 557.369L235.257 555.034C236.035 555.707 236.992 556.233 238.128 556.612C239.284 557.011 240.472 557.211 241.692 557.211C243.648 557.211 245.088 556.748 246.014 555.823C246.96 554.898 247.433 553.489 247.433 551.596V550.271C246.718 551.133 245.835 551.785 244.784 552.227C243.753 552.647 242.628 552.858 241.408 552.858C239.81 552.858 238.359 552.521 237.055 551.848C235.772 551.154 234.763 550.198 234.027 548.978C233.291 547.737 232.923 546.328 232.923 544.751C232.923 543.174 233.291 541.775 234.027 540.555C234.763 539.315 235.772 538.358 237.055 537.685C238.359 537.012 239.81 536.675 241.408 536.675C242.67 536.675 243.837 536.907 244.91 537.369C246.003 537.832 246.897 538.516 247.591 539.42V536.833H250.462ZM241.755 550.208C242.849 550.208 243.827 549.977 244.689 549.514C245.572 549.051 246.256 548.41 246.739 547.59C247.244 546.749 247.496 545.802 247.496 544.751C247.496 543.132 246.96 541.828 245.888 540.839C244.815 539.83 243.438 539.325 241.755 539.325C240.052 539.325 238.664 539.83 237.591 540.839C236.519 541.828 235.983 543.132 235.983 544.751C235.983 545.802 236.224 546.749 236.708 547.59C237.213 548.41 237.896 549.051 238.759 549.514C239.642 549.977 240.641 550.208 241.755 550.208ZM259.15 539.641C259.676 538.673 260.454 537.937 261.484 537.433C262.515 536.928 263.766 536.675 265.238 536.675V539.609C265.07 539.588 264.838 539.578 264.544 539.578C262.904 539.578 261.61 540.072 260.664 541.06C259.739 542.028 259.276 543.415 259.276 545.224V553.552H256.248V536.833H259.15V539.641ZM275.027 536.675C277.341 536.675 279.107 537.243 280.327 538.379C281.568 539.514 282.188 541.207 282.188 543.458V553.552H279.318V551.344C278.813 552.122 278.087 552.721 277.141 553.142C276.216 553.541 275.112 553.741 273.829 553.741C271.957 553.741 270.454 553.289 269.318 552.385C268.203 551.48 267.646 550.292 267.646 548.82C267.646 547.348 268.182 546.17 269.255 545.287C270.327 544.383 272.031 543.931 274.365 543.931H279.16V543.331C279.16 542.028 278.781 541.029 278.024 540.335C277.267 539.641 276.153 539.294 274.68 539.294C273.692 539.294 272.725 539.462 271.778 539.798C270.832 540.114 270.033 540.545 269.381 541.092L268.119 538.821C268.981 538.127 270.012 537.601 271.211 537.243C272.409 536.865 273.682 536.675 275.027 536.675ZM274.333 551.407C275.49 551.407 276.489 551.154 277.33 550.65C278.171 550.124 278.781 549.388 279.16 548.442V546.107H274.491C271.926 546.107 270.643 546.969 270.643 548.694C270.643 549.535 270.969 550.198 271.621 550.681C272.273 551.165 273.177 551.407 274.333 551.407ZM308.706 536.675C310.809 536.675 312.47 537.285 313.69 538.505C314.931 539.725 315.551 541.533 315.551 543.931V553.552H312.523V544.278C312.523 542.658 312.144 541.439 311.387 540.619C310.651 539.798 309.589 539.388 308.201 539.388C306.666 539.388 305.446 539.872 304.542 540.839C303.638 541.786 303.186 543.153 303.186 544.94V553.552H300.158V544.278C300.158 542.658 299.779 541.439 299.022 540.619C298.286 539.798 297.224 539.388 295.836 539.388C294.301 539.388 293.081 539.872 292.177 540.839C291.273 541.786 290.82 543.153 290.82 544.94V553.552H287.792V536.833H290.694V539.325C291.304 538.463 292.103 537.811 293.092 537.369C294.08 536.907 295.205 536.675 296.467 536.675C297.771 536.675 298.927 536.938 299.937 537.464C300.946 537.99 301.724 538.757 302.271 539.767C302.902 538.799 303.775 538.042 304.889 537.496C306.025 536.949 307.297 536.675 308.706 536.675ZM333.475 559.671C332.276 557.737 331.351 555.518 330.699 553.016C330.047 550.492 329.721 547.79 329.721 544.909C329.721 542.028 330.047 539.325 330.699 536.802C331.351 534.257 332.276 532.038 333.475 530.146H336.345C335.083 532.354 334.158 534.667 333.569 537.086C332.98 539.504 332.686 542.112 332.686 544.909C332.686 547.706 332.98 550.313 333.569 552.732C334.158 555.15 335.083 557.463 336.345 559.671H333.475ZM354.323 544.435H348.834V549.798H344.765V544.435H339.308V540.587H344.765V535.224H348.834V540.587H354.323V544.435ZM372.087 553.552L366.756 545.886L361.52 553.552H355.652L363.822 542.322L356.062 531.471H361.867L366.945 538.631L371.929 531.471H377.449L369.753 542.133L377.986 553.552H372.087ZM396.579 553.741C394.917 553.741 393.424 553.373 392.099 552.637C390.774 551.901 389.734 550.892 388.976 549.609C388.24 548.305 387.872 546.833 387.872 545.192C387.872 543.552 388.24 542.091 388.976 540.808C389.734 539.504 390.774 538.495 392.099 537.78C393.424 537.044 394.917 536.675 396.579 536.675C398.24 536.675 399.723 537.044 401.026 537.78C402.351 538.495 403.382 539.504 404.118 540.808C404.875 542.091 405.253 543.552 405.253 545.192C405.253 546.833 404.875 548.305 404.118 549.609C403.382 550.892 402.351 551.901 401.026 552.637C399.723 553.373 398.24 553.741 396.579 553.741ZM396.579 551.091C397.651 551.091 398.608 550.849 399.449 550.366C400.311 549.861 400.984 549.167 401.468 548.284C401.952 547.38 402.194 546.349 402.194 545.192C402.194 544.036 401.952 543.016 401.468 542.133C400.984 541.228 400.311 540.534 399.449 540.051C398.608 539.567 397.651 539.325 396.579 539.325C395.506 539.325 394.539 539.567 393.677 540.051C392.835 540.534 392.162 541.228 391.658 542.133C391.174 543.016 390.932 544.036 390.932 545.192C390.932 546.349 391.174 547.38 391.658 548.284C392.162 549.167 392.835 549.861 393.677 550.366C394.539 550.849 395.506 551.091 396.579 551.091ZM418.842 552.574C418.4 552.952 417.853 553.247 417.201 553.457C416.549 553.646 415.876 553.741 415.182 553.741C413.5 553.741 412.196 553.289 411.271 552.385C410.346 551.48 409.883 550.187 409.883 548.505V539.325H407.044V536.833H409.883V533.174H412.911V536.833H417.706V539.325H412.911V548.378C412.911 549.283 413.132 549.977 413.574 550.46C414.036 550.944 414.688 551.186 415.529 551.186C416.455 551.186 417.243 550.923 417.895 550.397L418.842 552.574ZM431.43 536.675C433.554 536.675 435.236 537.296 436.477 538.537C437.739 539.756 438.37 541.554 438.37 543.931V553.552H435.341V544.278C435.341 542.658 434.952 541.439 434.174 540.619C433.396 539.798 432.282 539.388 430.83 539.388C429.19 539.388 427.897 539.872 426.951 540.839C426.004 541.786 425.531 543.153 425.531 544.94V553.552H422.503V530.146H425.531V539.199C426.162 538.4 426.982 537.78 427.991 537.338C429.022 536.896 430.168 536.675 431.43 536.675ZM459.176 545.287C459.176 545.518 459.155 545.823 459.113 546.202H445.549C445.738 547.674 446.38 548.862 447.473 549.766C448.588 550.65 449.965 551.091 451.605 551.091C453.603 551.091 455.212 550.418 456.432 549.072L458.104 551.028C457.347 551.911 456.4 552.584 455.265 553.047C454.15 553.51 452.899 553.741 451.511 553.741C449.744 553.741 448.178 553.384 446.811 552.669C445.444 551.932 444.382 550.913 443.625 549.609C442.889 548.305 442.521 546.833 442.521 545.192C442.521 543.573 442.878 542.112 443.593 540.808C444.329 539.504 445.328 538.495 446.59 537.78C447.873 537.044 449.313 536.675 450.911 536.675C452.51 536.675 453.929 537.044 455.17 537.78C456.432 538.495 457.41 539.504 458.104 540.808C458.819 542.112 459.176 543.605 459.176 545.287ZM450.911 539.231C449.46 539.231 448.241 539.672 447.252 540.555C446.285 541.439 445.717 542.595 445.549 544.025H456.274C456.106 542.616 455.527 541.47 454.539 540.587C453.572 539.683 452.362 539.231 450.911 539.231ZM466.283 539.641C466.809 538.673 467.587 537.937 468.617 537.433C469.648 536.928 470.899 536.675 472.371 536.675V539.609C472.203 539.588 471.972 539.578 471.677 539.578C470.037 539.578 468.744 540.072 467.797 541.06C466.872 542.028 466.409 543.415 466.409 545.224V553.552H463.381V536.833H466.283V539.641ZM493.655 536.675C495.274 536.675 496.725 537.033 498.008 537.748C499.291 538.463 500.289 539.462 501.004 540.745C501.741 542.028 502.109 543.51 502.109 545.192C502.109 546.875 501.741 548.368 501.004 549.672C500.289 550.955 499.291 551.954 498.008 552.669C496.725 553.384 495.274 553.741 493.655 553.741C492.456 553.741 491.352 553.51 490.342 553.047C489.354 552.584 488.513 551.911 487.819 551.028V559.671H484.791V536.833H487.693V539.483C488.366 538.558 489.217 537.864 490.248 537.401C491.278 536.917 492.414 536.675 493.655 536.675ZM493.402 551.091C494.475 551.091 495.432 550.849 496.273 550.366C497.135 549.861 497.808 549.167 498.292 548.284C498.796 547.38 499.049 546.349 499.049 545.192C499.049 544.036 498.796 543.016 498.292 542.133C497.808 541.228 497.135 540.534 496.273 540.051C495.432 539.567 494.475 539.325 493.402 539.325C492.351 539.325 491.394 539.578 490.532 540.082C489.691 540.566 489.018 541.249 488.513 542.133C488.029 543.016 487.787 544.036 487.787 545.192C487.787 546.349 488.029 547.38 488.513 548.284C488.997 549.167 489.67 549.861 490.532 550.366C491.394 550.849 492.351 551.091 493.402 551.091ZM506.293 530.146H509.321V553.552H506.293V530.146ZM521.191 536.675C523.504 536.675 525.271 537.243 526.49 538.379C527.731 539.514 528.351 541.207 528.351 543.458V553.552H525.481V551.344C524.976 552.122 524.251 552.721 523.304 553.142C522.379 553.541 521.275 553.741 519.992 553.741C518.121 553.741 516.617 553.289 515.481 552.385C514.367 551.48 513.81 550.292 513.81 548.82C513.81 547.348 514.346 546.17 515.418 545.287C516.491 544.383 518.194 543.931 520.528 543.931H525.323V543.331C525.323 542.028 524.945 541.029 524.188 540.335C523.431 539.641 522.316 539.294 520.844 539.294C519.856 539.294 518.888 539.462 517.942 539.798C516.996 540.114 516.196 540.545 515.544 541.092L514.283 538.821C515.145 538.127 516.175 537.601 517.374 537.243C518.573 536.865 519.845 536.675 521.191 536.675ZM520.497 551.407C521.654 551.407 522.652 551.154 523.494 550.65C524.335 550.124 524.945 549.388 525.323 548.442V546.107H520.655C518.089 546.107 516.806 546.969 516.806 548.694C516.806 549.535 517.132 550.198 517.784 550.681C518.436 551.165 519.34 551.407 520.497 551.407ZM543.356 552.574C542.914 552.952 542.367 553.247 541.715 553.457C541.064 553.646 540.391 553.741 539.697 553.741C538.014 553.741 536.71 553.289 535.785 552.385C534.86 551.48 534.397 550.187 534.397 548.505V539.325H531.558V536.833H534.397V533.174H537.425V536.833H542.22V539.325H537.425V548.378C537.425 549.283 537.646 549.977 538.088 550.46C538.551 550.944 539.202 551.186 540.044 551.186C540.969 551.186 541.758 550.923 542.409 550.397L543.356 552.574ZM553.137 532.449C551.328 532.449 550.424 533.426 550.424 535.382V536.833H555.282V539.325H550.487V553.552H547.459V539.325H544.62V536.833H547.459V535.351C547.459 533.689 547.942 532.375 548.91 531.408C549.877 530.44 551.233 529.957 552.979 529.957C553.652 529.957 554.283 530.041 554.871 530.209C555.46 530.377 555.965 530.619 556.386 530.934L555.471 533.237C554.777 532.711 553.999 532.449 553.137 532.449ZM565.052 553.741C563.39 553.741 561.897 553.373 560.572 552.637C559.248 551.901 558.207 550.892 557.449 549.609C556.713 548.305 556.345 546.833 556.345 545.192C556.345 543.552 556.713 542.091 557.449 540.808C558.207 539.504 559.248 538.495 560.572 537.78C561.897 537.044 563.39 536.675 565.052 536.675C566.713 536.675 568.196 537.044 569.499 537.78C570.824 538.495 571.855 539.504 572.591 540.808C573.348 542.091 573.726 543.552 573.726 545.192C573.726 546.833 573.348 548.305 572.591 549.609C571.855 550.892 570.824 551.901 569.499 552.637C568.196 553.373 566.713 553.741 565.052 553.741ZM565.052 551.091C566.124 551.091 567.081 550.849 567.922 550.366C568.784 549.861 569.457 549.167 569.941 548.284C570.425 547.38 570.667 546.349 570.667 545.192C570.667 544.036 570.425 543.016 569.941 542.133C569.457 541.228 568.784 540.534 567.922 540.051C567.081 539.567 566.124 539.325 565.052 539.325C563.979 539.325 563.012 539.567 562.15 540.051C561.308 540.534 560.635 541.228 560.131 542.133C559.647 543.016 559.405 544.036 559.405 545.192C559.405 546.349 559.647 547.38 560.131 548.284C560.635 549.167 561.308 549.861 562.15 550.366C563.012 550.849 563.979 551.091 565.052 551.091ZM580.816 539.641C581.342 538.673 582.12 537.937 583.151 537.433C584.181 536.928 585.432 536.675 586.905 536.675V539.609C586.736 539.588 586.505 539.578 586.211 539.578C584.57 539.578 583.277 540.072 582.331 541.06C581.405 542.028 580.943 543.415 580.943 545.224V553.552H577.914V536.833H580.816V539.641ZM611.551 536.675C613.654 536.675 615.315 537.285 616.535 538.505C617.776 539.725 618.396 541.533 618.396 543.931V553.552H615.368V544.278C615.368 542.658 614.989 541.439 614.232 540.619C613.496 539.798 612.434 539.388 611.046 539.388C609.511 539.388 608.291 539.872 607.387 540.839C606.483 541.786 606.031 543.153 606.031 544.94V553.552H603.002V544.278C603.002 542.658 602.624 541.439 601.867 540.619C601.131 539.798 600.069 539.388 598.681 539.388C597.146 539.388 595.926 539.872 595.022 540.839C594.117 541.786 593.665 543.153 593.665 544.94V553.552H590.637V536.833H593.539V539.325C594.149 538.463 594.948 537.811 595.936 537.369C596.925 536.907 598.05 536.675 599.312 536.675C600.615 536.675 601.772 536.938 602.781 537.464C603.791 537.99 604.569 538.757 605.116 539.767C605.747 538.799 606.619 538.042 607.734 537.496C608.87 536.949 610.142 536.675 611.551 536.675ZM628.763 553.741C627.396 553.741 626.081 553.562 624.82 553.205C623.558 552.826 622.57 552.353 621.855 551.785L623.116 549.388C623.852 549.914 624.746 550.334 625.798 550.65C626.849 550.965 627.911 551.123 628.984 551.123C631.633 551.123 632.958 550.366 632.958 548.852C632.958 548.347 632.779 547.947 632.422 547.653C632.064 547.359 631.612 547.148 631.066 547.022C630.54 546.875 629.783 546.717 628.794 546.549C627.448 546.339 626.344 546.097 625.482 545.823C624.641 545.55 623.915 545.087 623.306 544.435C622.696 543.784 622.391 542.869 622.391 541.691C622.391 540.177 623.022 538.968 624.283 538.063C625.545 537.138 627.238 536.675 629.362 536.675C630.477 536.675 631.591 536.812 632.706 537.086C633.82 537.359 634.735 537.727 635.45 538.19L634.157 540.587C632.79 539.704 631.181 539.262 629.331 539.262C628.048 539.262 627.07 539.472 626.397 539.893C625.724 540.314 625.388 540.871 625.388 541.565C625.388 542.112 625.577 542.543 625.955 542.858C626.334 543.174 626.796 543.405 627.343 543.552C627.911 543.699 628.7 543.868 629.709 544.057C631.055 544.288 632.138 544.541 632.958 544.814C633.799 545.066 634.514 545.508 635.103 546.139C635.692 546.77 635.986 547.653 635.986 548.789C635.986 550.303 635.335 551.512 634.031 552.416C632.748 553.299 630.992 553.741 628.763 553.741ZM637.91 559.671C639.172 557.463 640.097 555.15 640.686 552.732C641.296 550.313 641.601 547.706 641.601 544.909C641.601 542.112 641.296 539.504 640.686 537.086C640.097 534.667 639.172 532.354 637.91 530.146H640.78C642 532.038 642.936 534.247 643.588 536.77C644.24 539.294 644.566 542.007 644.566 544.909C644.566 547.79 644.24 550.492 643.588 553.016C642.936 555.539 642 557.758 640.78 559.671H637.91Z" fill="#1A1A1A"/>
<path d="M96.8574 119.323C94.0344 119.323 91.4803 118.704 89.195 117.468C86.9365 116.204 85.1621 114.483 83.8716 112.305C82.581 110.101 81.9358 107.627 81.9358 104.885C81.9358 102.143 82.581 99.6825 83.8716 97.5048C85.1621 95.3001 86.95 93.5794 89.2353 92.3427C91.5206 91.0791 94.0747 90.4472 96.8978 90.4472C99.1024 90.4472 101.119 90.8236 102.947 91.5764C104.775 92.3024 106.335 93.3912 107.625 94.8431L105.004 97.3838C102.88 95.1523 100.232 94.0365 97.0591 94.0365C94.962 94.0365 93.0665 94.507 91.3727 95.448C89.6789 96.389 88.3481 97.693 87.3802 99.3599C86.4392 101 85.9687 102.842 85.9687 104.885C85.9687 106.928 86.4392 108.783 87.3802 110.45C88.3481 112.09 89.6789 113.381 91.3727 114.322C93.0665 115.263 94.962 115.733 97.0591 115.733C100.205 115.733 102.853 114.604 105.004 112.346L107.625 114.886C106.335 116.338 104.762 117.441 102.907 118.193C101.079 118.946 99.0621 119.323 96.8574 119.323ZM132.067 97.6258V119H128.397V115.774C127.617 116.876 126.582 117.736 125.291 118.355C124.028 118.946 122.643 119.242 121.138 119.242C118.288 119.242 116.043 118.462 114.403 116.903C112.763 115.317 111.943 112.991 111.943 109.926V97.6258H115.814V109.482C115.814 111.553 116.312 113.125 117.306 114.201C118.301 115.249 119.726 115.774 121.581 115.774C123.624 115.774 125.238 115.155 126.421 113.919C127.604 112.682 128.195 110.934 128.195 108.676V97.6258H132.067ZM145.567 119.242C143.819 119.242 142.139 119.013 140.526 118.556C138.913 118.072 137.649 117.468 136.735 116.742L138.348 113.677C139.289 114.349 140.432 114.886 141.776 115.29C143.12 115.693 144.478 115.895 145.849 115.895C149.237 115.895 150.931 114.927 150.931 112.991C150.931 112.346 150.702 111.835 150.245 111.459C149.788 111.082 149.21 110.813 148.511 110.652C147.839 110.464 146.871 110.262 145.607 110.047C143.887 109.778 142.475 109.469 141.373 109.119C140.297 108.77 139.37 108.178 138.59 107.345C137.81 106.512 137.421 105.342 137.421 103.836C137.421 101.901 138.227 100.355 139.84 99.1986C141.453 98.0156 143.618 97.4241 146.333 97.4241C147.758 97.4241 149.183 97.5989 150.608 97.9484C152.033 98.2979 153.203 98.7684 154.117 99.3599L152.463 102.425C150.716 101.296 148.659 100.731 146.293 100.731C144.653 100.731 143.403 101 142.542 101.538C141.682 102.075 141.252 102.788 141.252 103.675C141.252 104.374 141.494 104.925 141.978 105.329C142.462 105.732 143.053 106.028 143.752 106.216C144.478 106.404 145.486 106.619 146.777 106.861C148.498 107.157 149.882 107.479 150.931 107.829C152.006 108.152 152.92 108.716 153.673 109.523C154.426 110.329 154.802 111.459 154.802 112.91C154.802 114.846 153.969 116.392 152.302 117.548C150.662 118.677 148.417 119.242 145.567 119.242ZM171.659 117.75C171.094 118.234 170.395 118.61 169.562 118.879C168.728 119.121 167.868 119.242 166.981 119.242C164.83 119.242 163.163 118.664 161.98 117.508C160.797 116.352 160.205 114.698 160.205 112.547V100.812H156.576V97.6258H160.205V92.9476H164.077V97.6258H170.207V100.812H164.077V112.386C164.077 113.542 164.359 114.429 164.924 115.048C165.515 115.666 166.349 115.975 167.424 115.975C168.607 115.975 169.615 115.639 170.449 114.967L171.659 117.75ZM184.785 119.242C182.661 119.242 180.752 118.771 179.058 117.83C177.365 116.889 176.034 115.599 175.066 113.959C174.125 112.292 173.654 110.41 173.654 108.313C173.654 106.216 174.125 104.347 175.066 102.707C176.034 101.04 177.365 99.7497 179.058 98.8356C180.752 97.8946 182.661 97.4241 184.785 97.4241C186.909 97.4241 188.805 97.8946 190.472 98.8356C192.165 99.7497 193.483 101.04 194.424 102.707C195.392 104.347 195.876 106.216 195.876 108.313C195.876 110.41 195.392 112.292 194.424 113.959C193.483 115.599 192.165 116.889 190.472 117.83C188.805 118.771 186.909 119.242 184.785 119.242ZM184.785 115.854C186.156 115.854 187.38 115.545 188.455 114.927C189.557 114.282 190.418 113.394 191.036 112.265C191.654 111.109 191.964 109.792 191.964 108.313C191.964 106.834 191.654 105.53 191.036 104.401C190.418 103.245 189.557 102.358 188.455 101.739C187.38 101.121 186.156 100.812 184.785 100.812C183.414 100.812 182.177 101.121 181.075 101.739C179.999 102.358 179.139 103.245 178.494 104.401C177.875 105.53 177.566 106.834 177.566 108.313C177.566 109.792 177.875 111.109 178.494 112.265C179.139 113.394 179.999 114.282 181.075 114.927C182.177 115.545 183.414 115.854 184.785 115.854ZM227.968 97.4241C230.656 97.4241 232.78 98.2038 234.34 99.7632C235.926 101.323 236.719 103.635 236.719 106.7V119H232.848V107.143C232.848 105.073 232.364 103.514 231.396 102.465C230.455 101.417 229.097 100.892 227.323 100.892C225.36 100.892 223.801 101.511 222.644 102.748C221.488 103.957 220.91 105.705 220.91 107.99V119H217.039V107.143C217.039 105.073 216.555 103.514 215.587 102.465C214.646 101.417 213.288 100.892 211.514 100.892C209.551 100.892 207.992 101.511 206.836 102.748C205.679 103.957 205.101 105.705 205.101 107.99V119H201.23V97.6258H204.94V100.812C205.72 99.7094 206.741 98.8759 208.005 98.3113C209.269 97.7199 210.707 97.4241 212.32 97.4241C213.987 97.4241 215.466 97.7602 216.756 98.4323C218.047 99.1045 219.042 100.086 219.741 101.376C220.547 100.14 221.663 99.1717 223.088 98.4727C224.54 97.7736 226.166 97.4241 227.968 97.4241Z" fill="#1A1A1A"/>
<path d="M135.351 228.467C135.351 233.427 133.536 237.692 129.907 241.261C126.277 244.77 121.045 246.947 114.209 247.794V257.957H105.135V248.066C100.658 247.825 96.3936 247.038 92.3406 245.707C88.2876 244.376 85.0209 242.743 82.5407 240.807L87.5314 229.737C89.8301 231.431 92.5221 232.852 95.6072 234.002C98.6924 235.151 101.868 235.877 105.135 236.18V221.026C100.84 219.998 97.2103 218.848 94.2461 217.578C91.282 216.308 88.8018 214.463 86.8055 212.043C84.8092 209.563 83.8111 206.296 83.8111 202.243C83.8111 197.222 85.6259 192.927 89.2555 189.358C92.9455 185.728 98.2387 183.52 105.135 182.734V172.662H114.209V182.552C121.65 183.157 127.79 185.002 132.629 188.088L128.092 199.249C123.555 196.647 118.927 195.074 114.209 194.53V209.956C118.443 210.924 122.012 212.043 124.916 213.313C127.88 214.523 130.361 216.368 132.357 218.848C134.353 221.268 135.351 224.474 135.351 228.467ZM98.4202 201.517C98.4202 203.029 98.9948 204.269 100.144 205.237C101.294 206.205 102.957 207.022 105.135 207.687V194.802C102.836 195.347 101.142 196.224 100.053 197.434C98.9646 198.583 98.4202 199.944 98.4202 201.517ZM114.209 235.817C116.387 235.333 118.02 234.546 119.109 233.457C120.198 232.369 120.742 231.068 120.742 229.556C120.742 228.043 120.167 226.803 119.018 225.835C117.929 224.867 116.326 224.02 114.209 223.295V235.817ZM200.453 233.73H190.109V247.068H175.772V233.73H141.563V223.839L171.507 183.551H186.933L159.167 221.752H176.226V209.865H190.109V221.752H200.453V233.73ZM226.818 182.462C235.71 182.462 242.667 185.184 247.688 190.628C252.709 196.012 255.219 203.786 255.219 213.948C255.219 221.147 253.858 227.317 251.136 232.459C248.474 237.601 244.693 241.503 239.793 244.165C234.893 246.826 229.237 248.157 222.825 248.157C219.437 248.157 216.201 247.794 213.116 247.068C210.031 246.282 207.399 245.193 205.222 243.802L210.666 233.004C213.751 235.121 217.713 236.18 222.553 236.18C227.937 236.18 232.201 234.607 235.347 231.461C238.493 228.255 240.187 223.658 240.429 217.669C236.617 221.48 231.355 223.385 224.64 223.385C220.587 223.385 216.897 222.569 213.57 220.935C210.242 219.302 207.611 217.003 205.675 214.039C203.739 211.014 202.772 207.536 202.772 203.604C202.772 199.37 203.83 195.649 205.947 192.443C208.065 189.237 210.938 186.787 214.568 185.093C218.258 183.339 222.341 182.462 226.818 182.462ZM227.906 212.406C231.113 212.406 233.714 211.529 235.71 209.774C237.767 207.96 238.795 205.661 238.795 202.878C238.795 200.095 237.797 197.827 235.801 196.073C233.865 194.318 231.173 193.441 227.725 193.441C224.579 193.441 222.008 194.288 220.012 195.982C218.076 197.676 217.108 199.974 217.108 202.878C217.108 205.782 218.076 208.111 220.012 209.865C222.008 211.559 224.64 212.406 227.906 212.406ZM284.593 182.462C293.486 182.462 300.442 185.184 305.463 190.628C310.484 196.012 312.995 203.786 312.995 213.948C312.995 221.147 311.634 227.317 308.912 232.459C306.25 237.601 302.469 241.503 297.569 244.165C292.669 246.826 287.013 248.157 280.601 248.157C277.213 248.157 273.977 247.794 270.892 247.068C267.806 246.282 265.175 245.193 262.997 243.802L268.442 233.004C271.527 235.121 275.489 236.18 280.329 236.18C285.712 236.18 289.977 234.607 293.123 231.461C296.268 228.255 297.962 223.658 298.204 217.669C294.393 221.48 289.13 223.385 282.416 223.385C278.362 223.385 274.672 222.569 271.345 220.935C268.018 219.302 265.387 217.003 263.451 214.039C261.515 211.014 260.547 207.536 260.547 203.604C260.547 199.37 261.606 195.649 263.723 192.443C265.84 189.237 268.714 186.787 272.343 185.093C276.033 183.339 280.117 182.462 284.593 182.462ZM285.682 212.406C288.888 212.406 291.489 211.529 293.486 209.774C295.543 207.96 296.571 205.661 296.571 202.878C296.571 200.095 295.573 197.827 293.577 196.073C291.641 194.318 288.949 193.441 285.501 193.441C282.355 193.441 279.784 194.288 277.788 195.982C275.852 197.676 274.884 199.974 274.884 202.878C274.884 205.782 275.852 208.111 277.788 209.865C279.784 211.559 282.416 212.406 285.682 212.406ZM323.994 225.845H327.498L319.18 249.589H315.676L323.994 225.845ZM344.527 247.068L344.501 236.482L339.309 245.203H337.469L332.302 236.709V247.068H328.471V229.425H331.848L338.452 240.389L344.955 229.425H348.307L348.358 247.068H344.527ZM358.719 247.27C357.291 247.27 356.005 246.976 354.863 246.388C353.737 245.783 352.855 244.951 352.216 243.892C351.578 242.834 351.258 241.632 351.258 240.288C351.258 238.944 351.578 237.742 352.216 236.684C352.855 235.625 353.737 234.802 354.863 234.214C356.005 233.609 357.291 233.306 358.719 233.306C360.148 233.306 361.425 233.609 362.55 234.214C363.676 234.802 364.559 235.625 365.197 236.684C365.836 237.742 366.155 238.944 366.155 240.288C366.155 241.632 365.836 242.834 365.197 243.892C364.559 244.951 363.676 245.783 362.55 246.388C361.425 246.976 360.148 247.27 358.719 247.27ZM358.719 244.044C359.727 244.044 360.551 243.708 361.189 243.035C361.845 242.347 362.172 241.431 362.172 240.288C362.172 239.145 361.845 238.238 361.189 237.566C360.551 236.877 359.727 236.532 358.719 236.532C357.711 236.532 356.879 236.877 356.224 237.566C355.569 238.238 355.241 239.145 355.241 240.288C355.241 241.431 355.569 242.347 356.224 243.035C356.879 243.708 357.711 244.044 358.719 244.044ZM377.025 233.306C378.706 233.306 380.058 233.81 381.083 234.818C382.125 235.827 382.646 237.322 382.646 239.305V247.068H378.714V239.91C378.714 238.835 378.479 238.036 378.008 237.515C377.538 236.978 376.857 236.709 375.967 236.709C374.975 236.709 374.185 237.02 373.597 237.642C373.009 238.246 372.715 239.154 372.715 240.364V247.068H368.783V233.508H372.539V235.096C373.06 234.524 373.707 234.088 374.48 233.785C375.253 233.466 376.101 233.306 377.025 233.306ZM394.957 246.413C394.57 246.699 394.091 246.917 393.52 247.068C392.965 247.203 392.377 247.27 391.756 247.27C390.142 247.27 388.891 246.858 388 246.035C387.126 245.212 386.689 244.002 386.689 242.405V236.835H384.597V233.81H386.689V230.508H390.621V233.81H393.999V236.835H390.621V242.355C390.621 242.926 390.764 243.372 391.05 243.691C391.352 243.993 391.772 244.145 392.31 244.145C392.932 244.145 393.461 243.976 393.898 243.64L394.957 246.413ZM405.406 233.306C407.086 233.306 408.439 233.81 409.464 234.818C410.506 235.827 411.027 237.322 411.027 239.305V247.068H407.095V239.91C407.095 238.835 406.86 238.036 406.389 237.515C405.919 236.978 405.238 236.709 404.347 236.709C403.356 236.709 402.566 237.02 401.978 237.642C401.39 238.246 401.096 239.154 401.096 240.364V247.068H397.164V228.366H401.096V234.919C401.617 234.398 402.247 234.004 402.986 233.735C403.726 233.449 404.532 233.306 405.406 233.306Z" fill="#1A1A1A"/>
<rect x="80" y="809" width="713" height="97" rx="16" fill="#130F26"/>
<path d="M377.473 866.288C375.761 866.288 374.209 865.92 372.817 865.184C371.441 864.432 370.353 863.4 369.553 862.088C368.769 860.76 368.377 859.264 368.377 857.6C368.377 855.936 368.769 854.448 369.553 853.136C370.353 851.808 371.441 850.776 372.817 850.04C374.209 849.288 375.769 848.912 377.497 848.912C378.953 848.912 380.265 849.168 381.433 849.68C382.617 850.192 383.609 850.928 384.409 851.888L381.913 854.192C380.777 852.88 379.369 852.224 377.689 852.224C376.649 852.224 375.721 852.456 374.905 852.92C374.089 853.368 373.449 854 372.985 854.816C372.537 855.632 372.313 856.56 372.313 857.6C372.313 858.64 372.537 859.568 372.985 860.384C373.449 861.2 374.089 861.84 374.905 862.304C375.721 862.752 376.649 862.976 377.689 862.976C379.369 862.976 380.777 862.312 381.913 860.984L384.409 863.288C383.609 864.264 382.617 865.008 381.433 865.52C380.249 866.032 378.929 866.288 377.473 866.288ZM392.47 866.192C391.11 866.192 389.886 865.912 388.798 865.352C387.726 864.776 386.886 863.984 386.278 862.976C385.67 861.968 385.366 860.824 385.366 859.544C385.366 858.264 385.67 857.12 386.278 856.112C386.886 855.104 387.726 854.32 388.798 853.76C389.886 853.184 391.11 852.896 392.47 852.896C393.83 852.896 395.046 853.184 396.118 853.76C397.19 854.32 398.03 855.104 398.638 856.112C399.246 857.12 399.55 858.264 399.55 859.544C399.55 860.824 399.246 861.968 398.638 862.976C398.03 863.984 397.19 864.776 396.118 865.352C395.046 865.912 393.83 866.192 392.47 866.192ZM392.47 863.12C393.43 863.12 394.214 862.8 394.822 862.16C395.446 861.504 395.758 860.632 395.758 859.544C395.758 858.456 395.446 857.592 394.822 856.952C394.214 856.296 393.43 855.968 392.47 855.968C391.51 855.968 390.718 856.296 390.094 856.952C389.47 857.592 389.158 858.456 389.158 859.544C389.158 860.632 389.47 861.504 390.094 862.16C390.718 862.8 391.51 863.12 392.47 863.12ZM409.9 852.896C411.5 852.896 412.788 853.376 413.764 854.336C414.756 855.296 415.252 856.72 415.252 858.608V866H411.508V859.184C411.508 858.16 411.284 857.4 410.836 856.904C410.388 856.392 409.74 856.136 408.892 856.136C407.948 856.136 407.196 856.432 406.636 857.024C406.076 857.6 405.796 858.464 405.796 859.616V866H402.052V853.088H405.628V854.6C406.124 854.056 406.74 853.64 407.476 853.352C408.212 853.048 409.02 852.896 409.9 852.896ZM426.974 865.376C426.606 865.648 426.15 865.856 425.606 866C425.078 866.128 424.518 866.192 423.926 866.192C422.39 866.192 421.198 865.8 420.35 865.016C419.518 864.232 419.102 863.08 419.102 861.56V856.256H417.11V853.376H419.102V850.232H422.846V853.376H426.062V856.256H422.846V861.512C422.846 862.056 422.982 862.48 423.254 862.784C423.542 863.072 423.942 863.216 424.454 863.216C425.046 863.216 425.55 863.056 425.966 862.736L426.974 865.376ZM434.284 852.896C436.284 852.896 437.82 853.376 438.892 854.336C439.964 855.28 440.5 856.712 440.5 858.632V866H436.996V864.392C436.292 865.592 434.98 866.192 433.06 866.192C432.068 866.192 431.204 866.024 430.468 865.688C429.748 865.352 429.196 864.888 428.812 864.296C428.428 863.704 428.236 863.032 428.236 862.28C428.236 861.08 428.684 860.136 429.58 859.448C430.492 858.76 431.892 858.416 433.78 858.416H436.756C436.756 857.6 436.508 856.976 436.012 856.544C435.516 856.096 434.772 855.872 433.78 855.872C433.092 855.872 432.412 855.984 431.74 856.208C431.084 856.416 430.524 856.704 430.06 857.072L428.716 854.456C429.42 853.96 430.26 853.576 431.236 853.304C432.228 853.032 433.244 852.896 434.284 852.896ZM433.996 863.672C434.636 863.672 435.204 863.528 435.7 863.24C436.196 862.936 436.548 862.496 436.756 861.92V860.6H434.188C432.652 860.6 431.884 861.104 431.884 862.112C431.884 862.592 432.068 862.976 432.436 863.264C432.82 863.536 433.34 863.672 433.996 863.672ZM450.269 866.192C448.893 866.192 447.653 865.912 446.549 865.352C445.461 864.776 444.605 863.984 443.981 862.976C443.373 861.968 443.069 860.824 443.069 859.544C443.069 858.264 443.373 857.12 443.981 856.112C444.605 855.104 445.461 854.32 446.549 853.76C447.653 853.184 448.893 852.896 450.269 852.896C451.629 852.896 452.813 853.184 453.821 853.76C454.845 854.32 455.589 855.128 456.053 856.184L453.149 857.744C452.477 856.56 451.509 855.968 450.245 855.968C449.269 855.968 448.461 856.288 447.821 856.928C447.181 857.568 446.861 858.44 446.861 859.544C446.861 860.648 447.181 861.52 447.821 862.16C448.461 862.8 449.269 863.12 450.245 863.12C451.525 863.12 452.493 862.528 453.149 861.344L456.053 862.928C455.589 863.952 454.845 864.752 453.821 865.328C452.813 865.904 451.629 866.192 450.269 866.192ZM466.724 865.376C466.356 865.648 465.9 865.856 465.356 866C464.828 866.128 464.268 866.192 463.676 866.192C462.14 866.192 460.948 865.8 460.1 865.016C459.268 864.232 458.852 863.08 458.852 861.56V856.256H456.86V853.376H458.852V850.232H462.596V853.376H465.812V856.256H462.596V861.512C462.596 862.056 462.732 862.48 463.004 862.784C463.292 863.072 463.692 863.216 464.204 863.216C464.796 863.216 465.3 863.056 465.716 862.736L466.724 865.376ZM483.351 866.288C480.951 866.288 479.079 865.624 477.735 864.296C476.407 862.968 475.743 861.072 475.743 858.608V849.2H479.631V858.464C479.631 861.472 480.879 862.976 483.375 862.976C484.591 862.976 485.519 862.616 486.159 861.896C486.799 861.16 487.119 860.016 487.119 858.464V849.2H490.959V858.608C490.959 861.072 490.287 862.968 488.943 864.296C487.615 865.624 485.751 866.288 483.351 866.288ZM498.881 866.192C497.809 866.192 496.761 866.064 495.737 865.808C494.713 865.536 493.897 865.2 493.289 864.8L494.537 862.112C495.113 862.48 495.809 862.784 496.625 863.024C497.441 863.248 498.241 863.36 499.025 863.36C500.609 863.36 501.401 862.968 501.401 862.184C501.401 861.816 501.185 861.552 500.753 861.392C500.321 861.232 499.657 861.096 498.761 860.984C497.705 860.824 496.833 860.64 496.145 860.432C495.457 860.224 494.857 859.856 494.345 859.328C493.849 858.8 493.601 858.048 493.601 857.072C493.601 856.256 493.833 855.536 494.297 854.912C494.777 854.272 495.465 853.776 496.361 853.424C497.273 853.072 498.345 852.896 499.577 852.896C500.489 852.896 501.393 853 502.289 853.208C503.201 853.4 503.953 853.672 504.545 854.024L503.297 856.688C502.161 856.048 500.921 855.728 499.577 855.728C498.777 855.728 498.177 855.84 497.777 856.064C497.377 856.288 497.177 856.576 497.177 856.928C497.177 857.328 497.393 857.608 497.825 857.768C498.257 857.928 498.945 858.08 499.889 858.224C500.945 858.4 501.809 858.592 502.481 858.8C503.153 858.992 503.737 859.352 504.233 859.88C504.729 860.408 504.977 861.144 504.977 862.088C504.977 862.888 504.737 863.6 504.257 864.224C503.777 864.848 503.073 865.336 502.145 865.688C501.233 866.024 500.145 866.192 498.881 866.192Z" fill="white"/>
<defs>
<linearGradient id="paint0_linear_248_414" x1="15.0047" y1="16.7119" x2="870.761" y2="968.388" gradientUnits="userSpaceOnUse">
<stop stop-color="#FF8000"/>
<stop offset="0.2" stop-color="#FF4880"/>
<stop offset="0.369792" stop-color="#FF004F"/>
<stop offset="0.578125" stop-color="#7F30FF"/>
<stop offset="0.8" stop-color="#466FFF"/>
<stop offset="1" stop-color="#75D4FF"/>
</linearGradient>
</defs>
</svg>
