<svg width="873" height="986" viewBox="0 0 873 986" fill="none" xmlns="http://www.w3.org/2000/svg">
<rect x="1.5" y="1.5" width="870" height="983" rx="30.5" fill="white" stroke="url(#paint0_linear_248_411)" stroke-width="3" stroke-miterlimit="2.61313"/>
<path d="M84.3181 378.721C84.3181 390.308 93.7394 399.751 105.348 399.751C116.935 399.751 126.377 390.308 126.377 378.721C126.377 367.113 116.935 357.691 105.348 357.691C93.7394 357.691 84.3181 367.113 84.3181 378.721V378.721Z" fill="#130F26"/>
<rect x="97.5165" y="376.735" width="10.9133" height="3.63778" rx="1.81889" transform="rotate(45 97.5165 376.735)" fill="white"/>
<rect x="116.809" y="372.877" width="20.0078" height="3.63778" rx="1.81889" transform="rotate(135 116.809 372.877)" fill="white"/>
<path d="M174.114 385.368H170.518V390.005H165.534V385.368H153.642V381.93L164.052 367.924H169.414L159.762 381.204H165.692V377.072H170.518V381.204H174.114V385.368ZM195.522 367.924C197.478 367.924 199.171 368.25 200.601 368.902C202.052 369.554 203.166 370.479 203.945 371.678C204.723 372.876 205.112 374.296 205.112 375.936C205.112 377.555 204.723 378.975 203.945 380.195C203.166 381.393 202.052 382.319 200.601 382.97C199.171 383.601 197.478 383.917 195.522 383.917H191.074V390.005H185.964V367.924H195.522ZM195.238 379.753C196.773 379.753 197.941 379.427 198.74 378.775C199.539 378.102 199.938 377.156 199.938 375.936C199.938 374.695 199.539 373.749 198.74 373.097C197.941 372.424 196.773 372.088 195.238 372.088H191.074V379.753H195.238ZM216.458 390.257C214.67 390.257 213.061 389.889 211.631 389.153C210.222 388.396 209.118 387.355 208.319 386.03C207.52 384.705 207.12 383.202 207.12 381.519C207.12 379.837 207.52 378.333 208.319 377.009C209.118 375.684 210.222 374.653 211.631 373.917C213.061 373.16 214.67 372.782 216.458 372.782C218.245 372.782 219.843 373.16 221.252 373.917C222.661 374.653 223.765 375.684 224.564 377.009C225.364 378.333 225.763 379.837 225.763 381.519C225.763 383.202 225.364 384.705 224.564 386.03C223.765 387.355 222.661 388.396 221.252 389.153C219.843 389.889 218.245 390.257 216.458 390.257ZM216.458 386.22C217.719 386.22 218.75 385.799 219.549 384.958C220.369 384.096 220.779 382.949 220.779 381.519C220.779 380.089 220.369 378.954 219.549 378.113C218.75 377.25 217.719 376.819 216.458 376.819C215.196 376.819 214.155 377.25 213.335 378.113C212.515 378.954 212.104 380.089 212.104 381.519C212.104 382.949 212.515 384.096 213.335 384.958C214.155 385.799 215.196 386.22 216.458 386.22ZM234.762 390.257C233.353 390.257 231.976 390.089 230.63 389.753C229.284 389.395 228.211 388.953 227.412 388.428L229.052 384.895C229.809 385.378 230.724 385.778 231.797 386.093C232.869 386.388 233.921 386.535 234.951 386.535C237.033 386.535 238.074 386.02 238.074 384.989C238.074 384.506 237.79 384.159 237.222 383.948C236.655 383.738 235.782 383.559 234.604 383.412C233.216 383.202 232.07 382.96 231.166 382.687C230.262 382.413 229.473 381.93 228.8 381.236C228.148 380.542 227.822 379.553 227.822 378.27C227.822 377.198 228.127 376.252 228.737 375.431C229.368 374.59 230.272 373.938 231.45 373.476C232.648 373.013 234.057 372.782 235.677 372.782C236.875 372.782 238.064 372.918 239.241 373.192C240.44 373.444 241.428 373.802 242.206 374.264L240.566 377.766C239.073 376.924 237.443 376.504 235.677 376.504C234.625 376.504 233.837 376.651 233.311 376.945C232.785 377.24 232.522 377.618 232.522 378.081C232.522 378.607 232.806 378.975 233.374 379.185C233.942 379.395 234.846 379.595 236.087 379.784C237.475 380.016 238.61 380.268 239.494 380.542C240.377 380.794 241.144 381.267 241.796 381.961C242.448 382.655 242.774 383.622 242.774 384.863C242.774 385.915 242.459 386.85 241.828 387.671C241.197 388.491 240.272 389.132 239.052 389.595C237.853 390.036 236.423 390.257 234.762 390.257ZM256.756 389.185C256.273 389.542 255.673 389.816 254.958 390.005C254.264 390.173 253.528 390.257 252.75 390.257C250.731 390.257 249.165 389.742 248.05 388.712C246.956 387.681 246.41 386.167 246.41 384.169V377.198H243.792V373.413H246.41V369.28H251.331V373.413H255.558V377.198H251.331V384.106C251.331 384.821 251.509 385.378 251.867 385.778C252.245 386.156 252.771 386.346 253.444 386.346C254.222 386.346 254.885 386.135 255.431 385.715L256.756 389.185ZM265.228 390.257C263.819 390.257 262.442 390.089 261.096 389.753C259.75 389.395 258.677 388.953 257.878 388.428L259.519 384.895C260.276 385.378 261.191 385.778 262.263 386.093C263.336 386.388 264.387 386.535 265.417 386.535C267.499 386.535 268.54 386.02 268.54 384.989C268.54 384.506 268.256 384.159 267.689 383.948C267.121 383.738 266.248 383.559 265.07 383.412C263.683 383.202 262.536 382.96 261.632 382.687C260.728 382.413 259.939 381.93 259.266 381.236C258.614 380.542 258.288 379.553 258.288 378.27C258.288 377.198 258.593 376.252 259.203 375.431C259.834 374.59 260.738 373.938 261.916 373.476C263.115 373.013 264.524 372.782 266.143 372.782C267.342 372.782 268.53 372.918 269.707 373.192C270.906 373.444 271.895 373.802 272.673 374.264L271.032 377.766C269.539 376.924 267.909 376.504 266.143 376.504C265.091 376.504 264.303 376.651 263.777 376.945C263.251 377.24 262.989 377.618 262.989 378.081C262.989 378.607 263.272 378.975 263.84 379.185C264.408 379.395 265.312 379.595 266.553 379.784C267.941 380.016 269.077 380.268 269.96 380.542C270.843 380.794 271.611 381.267 272.263 381.961C272.915 382.655 273.24 383.622 273.24 384.863C273.24 385.915 272.925 386.85 272.294 387.671C271.663 388.491 270.738 389.132 269.518 389.595C268.32 390.036 266.89 390.257 265.228 390.257ZM294.211 373.129C295.831 373.129 297.282 373.486 298.564 374.201C299.847 374.916 300.846 375.915 301.561 377.198C302.297 378.481 302.665 379.963 302.665 381.646C302.665 383.328 302.297 384.821 301.561 386.125C300.846 387.408 299.847 388.407 298.564 389.122C297.282 389.837 295.831 390.194 294.211 390.194C293.013 390.194 291.909 389.963 290.899 389.5C289.911 389.038 289.07 388.365 288.376 387.481V396.124H285.347V373.286H288.249V375.936C288.922 375.011 289.774 374.317 290.805 373.854C291.835 373.37 292.971 373.129 294.211 373.129ZM293.959 387.544C295.031 387.544 295.988 387.303 296.83 386.819C297.692 386.314 298.365 385.62 298.848 384.737C299.353 383.833 299.605 382.802 299.605 381.646C299.605 380.489 299.353 379.469 298.848 378.586C298.365 377.682 297.692 376.988 296.83 376.504C295.988 376.02 295.031 375.778 293.959 375.778C292.907 375.778 291.951 376.031 291.088 376.535C290.247 377.019 289.574 377.703 289.07 378.586C288.586 379.469 288.344 380.489 288.344 381.646C288.344 382.802 288.586 383.833 289.07 384.737C289.553 385.62 290.226 386.314 291.088 386.819C291.951 387.303 292.907 387.544 293.959 387.544ZM321.959 381.74C321.959 381.972 321.938 382.277 321.896 382.655H308.332C308.521 384.127 309.163 385.315 310.256 386.22C311.371 387.103 312.748 387.544 314.388 387.544C316.386 387.544 317.995 386.871 319.215 385.526L320.887 387.481C320.129 388.365 319.183 389.038 318.048 389.5C316.933 389.963 315.682 390.194 314.294 390.194C312.527 390.194 310.961 389.837 309.594 389.122C308.227 388.386 307.165 387.366 306.408 386.062C305.672 384.758 305.304 383.286 305.304 381.646C305.304 380.026 305.661 378.565 306.376 377.261C307.112 375.957 308.111 374.948 309.373 374.233C310.656 373.497 312.096 373.129 313.694 373.129C315.293 373.129 316.712 373.497 317.953 374.233C319.215 374.948 320.193 375.957 320.887 377.261C321.602 378.565 321.959 380.058 321.959 381.74ZM313.694 375.684C312.243 375.684 311.024 376.125 310.035 377.009C309.068 377.892 308.5 379.048 308.332 380.478H319.057C318.889 379.069 318.31 377.923 317.322 377.04C316.355 376.136 315.145 375.684 313.694 375.684ZM329.066 376.094C329.592 375.126 330.37 374.39 331.4 373.886C332.431 373.381 333.682 373.129 335.154 373.129V376.062C334.986 376.041 334.755 376.031 334.46 376.031C332.82 376.031 331.527 376.525 330.58 377.513C329.655 378.481 329.192 379.869 329.192 381.677V390.005H326.164V373.286H329.066V376.094ZM372.872 373.286L366.626 390.005H363.724L358.898 377.324L354.009 390.005H351.107L344.892 373.286H347.763L352.621 386.598L357.668 373.286H360.223L365.175 386.661L370.159 373.286H372.872ZM390.593 381.74C390.593 381.972 390.572 382.277 390.53 382.655H376.966C377.155 384.127 377.796 385.315 378.89 386.22C380.004 387.103 381.382 387.544 383.022 387.544C385.02 387.544 386.629 386.871 387.848 385.526L389.52 387.481C388.763 388.365 387.817 389.038 386.681 389.5C385.567 389.963 384.315 390.194 382.928 390.194C381.161 390.194 379.594 389.837 378.227 389.122C376.86 388.386 375.798 387.366 375.041 386.062C374.305 384.758 373.937 383.286 373.937 381.646C373.937 380.026 374.295 378.565 375.01 377.261C375.746 375.957 376.745 374.948 378.007 374.233C379.289 373.497 380.73 373.129 382.328 373.129C383.926 373.129 385.346 373.497 386.587 374.233C387.848 374.948 388.826 375.957 389.52 377.261C390.235 378.565 390.593 380.058 390.593 381.74ZM382.328 375.684C380.877 375.684 379.657 376.125 378.669 377.009C377.702 377.892 377.134 379.048 376.966 380.478H387.691C387.522 379.069 386.944 377.923 385.956 377.04C384.988 376.136 383.779 375.684 382.328 375.684ZM409.908 381.74C409.908 381.972 409.887 382.277 409.845 382.655H396.28C396.47 384.127 397.111 385.315 398.205 386.22C399.319 387.103 400.697 387.544 402.337 387.544C404.335 387.544 405.944 386.871 407.163 385.526L408.835 387.481C408.078 388.365 407.132 389.038 405.996 389.5C404.882 389.963 403.63 390.194 402.242 390.194C400.476 390.194 398.909 389.837 397.542 389.122C396.175 388.386 395.113 387.366 394.356 386.062C393.62 384.758 393.252 383.286 393.252 381.646C393.252 380.026 393.61 378.565 394.325 377.261C395.061 375.957 396.06 374.948 397.321 374.233C398.604 373.497 400.045 373.129 401.643 373.129C403.241 373.129 404.661 373.497 405.901 374.233C407.163 374.948 408.141 375.957 408.835 377.261C409.55 378.565 409.908 380.058 409.908 381.74ZM401.643 375.684C400.192 375.684 398.972 376.125 397.984 377.009C397.016 377.892 396.449 379.048 396.28 380.478H407.006C406.837 379.069 406.259 377.923 405.271 377.04C404.303 376.136 403.094 375.684 401.643 375.684ZM420.611 382.213L417.141 385.431V390.005H414.113V366.599H417.141V381.614L426.257 373.286H429.916L422.882 380.195L430.61 390.005H426.888L420.611 382.213Z" fill="#1A1A1A"/>
<path d="M84.3181 460.737C84.3181 472.324 93.7394 481.766 105.348 481.766C116.935 481.766 126.377 472.324 126.377 460.737C126.377 449.128 116.935 439.707 105.348 439.707C93.7394 439.707 84.3181 449.128 84.3181 460.737V460.737Z" fill="#130F26"/>
<rect x="97.5165" y="458.751" width="10.9133" height="3.63778" rx="1.81889" transform="rotate(45 97.5165 458.751)" fill="white"/>
<rect x="116.809" y="454.893" width="20.0078" height="3.63778" rx="1.81889" transform="rotate(135 116.809 454.893)" fill="white"/>
<path d="M164.209 458.93C166.144 459.245 167.627 459.971 168.657 461.106C169.688 462.221 170.203 463.609 170.203 465.27C170.203 466.553 169.866 467.741 169.193 468.835C168.521 469.907 167.49 470.769 166.102 471.421C164.735 472.073 163.053 472.399 161.055 472.399C159.499 472.399 157.964 472.199 156.45 471.8C154.956 471.379 153.684 470.79 152.633 470.033L154.62 466.122C155.461 466.753 156.428 467.247 157.522 467.604C158.637 467.941 159.772 468.109 160.929 468.109C162.212 468.109 163.221 467.867 163.957 467.383C164.693 466.879 165.061 466.174 165.061 465.27C165.061 463.461 163.684 462.557 160.929 462.557H158.595V459.182L163.137 454.04H153.737V449.939H169.193V453.252L164.209 458.93ZM196.953 472.021L192.694 465.869H192.442H187.994V472.021H182.884V449.939H192.442C194.397 449.939 196.09 450.265 197.52 450.917C198.971 451.569 200.086 452.495 200.864 453.693C201.642 454.892 202.031 456.311 202.031 457.952C202.031 459.592 201.632 461.012 200.832 462.21C200.054 463.388 198.94 464.292 197.489 464.923L202.441 472.021H196.953ZM196.858 457.952C196.858 456.711 196.458 455.765 195.659 455.113C194.86 454.44 193.693 454.103 192.158 454.103H187.994V461.8H192.158C193.693 461.8 194.86 461.464 195.659 460.791C196.458 460.118 196.858 459.171 196.858 457.952ZM222.357 463.598C222.357 463.661 222.325 464.103 222.262 464.923H209.424C209.655 465.974 210.202 466.805 211.064 467.415C211.926 468.025 212.999 468.33 214.282 468.33C215.165 468.33 215.943 468.204 216.616 467.951C217.31 467.678 217.951 467.257 218.54 466.69L221.158 469.528C219.56 471.358 217.226 472.273 214.155 472.273C212.242 472.273 210.549 471.905 209.077 471.169C207.605 470.412 206.469 469.371 205.67 468.046C204.871 466.721 204.471 465.217 204.471 463.535C204.471 461.874 204.86 460.381 205.638 459.056C206.437 457.71 207.52 456.669 208.887 455.933C210.275 455.176 211.821 454.797 213.524 454.797C215.186 454.797 216.689 455.155 218.035 455.87C219.381 456.585 220.433 457.615 221.19 458.961C221.968 460.286 222.357 461.832 222.357 463.598ZM213.556 458.52C212.441 458.52 211.506 458.835 210.749 459.466C209.991 460.097 209.529 460.959 209.361 462.052H217.72C217.552 460.98 217.089 460.128 216.332 459.497C215.575 458.845 214.65 458.52 213.556 458.52ZM242.257 463.598C242.257 463.661 242.225 464.103 242.162 464.923H229.324C229.555 465.974 230.102 466.805 230.964 467.415C231.826 468.025 232.899 468.33 234.182 468.33C235.065 468.33 235.843 468.204 236.516 467.951C237.21 467.678 237.851 467.257 238.44 466.69L241.058 469.528C239.46 471.358 237.126 472.273 234.055 472.273C232.142 472.273 230.449 471.905 228.977 471.169C227.505 470.412 226.369 469.371 225.57 468.046C224.771 466.721 224.371 465.217 224.371 463.535C224.371 461.874 224.76 460.381 225.538 459.056C226.338 457.71 227.421 456.669 228.787 455.933C230.175 455.176 231.721 454.797 233.425 454.797C235.086 454.797 236.589 455.155 237.935 455.87C239.281 456.585 240.333 457.615 241.09 458.961C241.868 460.286 242.257 461.832 242.257 463.598ZM233.456 458.52C232.341 458.52 231.406 458.835 230.649 459.466C229.892 460.097 229.429 460.959 229.261 462.052H237.62C237.452 460.98 236.989 460.128 236.232 459.497C235.475 458.845 234.55 458.52 233.456 458.52ZM245.533 448.615H250.454V472.021H245.533V448.615ZM260.731 472.273C259.322 472.273 257.944 472.105 256.598 471.768C255.252 471.411 254.18 470.969 253.381 470.443L255.021 466.91C255.778 467.394 256.693 467.794 257.765 468.109C258.838 468.403 259.889 468.551 260.92 468.551C263.002 468.551 264.043 468.035 264.043 467.005C264.043 466.521 263.759 466.174 263.191 465.964C262.623 465.754 261.751 465.575 260.573 465.428C259.185 465.217 258.039 464.976 257.135 464.702C256.23 464.429 255.442 463.945 254.769 463.251C254.117 462.557 253.791 461.569 253.791 460.286C253.791 459.213 254.096 458.267 254.706 457.447C255.337 456.606 256.241 455.954 257.418 455.491C258.617 455.029 260.026 454.797 261.645 454.797C262.844 454.797 264.032 454.934 265.21 455.207C266.409 455.46 267.397 455.817 268.175 456.28L266.535 459.781C265.042 458.94 263.412 458.52 261.645 458.52C260.594 458.52 259.805 458.667 259.28 458.961C258.754 459.256 258.491 459.634 258.491 460.097C258.491 460.622 258.775 460.99 259.343 461.201C259.91 461.411 260.815 461.611 262.056 461.8C263.443 462.031 264.579 462.284 265.462 462.557C266.346 462.81 267.113 463.283 267.765 463.977C268.417 464.671 268.743 465.638 268.743 466.879C268.743 467.93 268.427 468.866 267.797 469.686C267.166 470.506 266.24 471.148 265.021 471.61C263.822 472.052 262.392 472.273 260.731 472.273ZM289.714 455.144C291.333 455.144 292.784 455.502 294.067 456.217C295.35 456.932 296.349 457.931 297.064 459.213C297.8 460.496 298.168 461.979 298.168 463.661C298.168 465.344 297.8 466.837 297.064 468.141C296.349 469.423 295.35 470.422 294.067 471.137C292.784 471.852 291.333 472.21 289.714 472.21C288.515 472.21 287.411 471.978 286.402 471.516C285.413 471.053 284.572 470.38 283.878 469.497V478.14H280.85V455.302H283.752V457.952C284.425 457.026 285.277 456.332 286.307 455.87C287.337 455.386 288.473 455.144 289.714 455.144ZM289.461 469.56C290.534 469.56 291.491 469.318 292.332 468.835C293.194 468.33 293.867 467.636 294.351 466.753C294.856 465.848 295.108 464.818 295.108 463.661C295.108 462.505 294.856 461.485 294.351 460.601C293.867 459.697 293.194 459.003 292.332 458.52C291.491 458.036 290.534 457.794 289.461 457.794C288.41 457.794 287.453 458.046 286.591 458.551C285.75 459.035 285.077 459.718 284.572 460.601C284.088 461.485 283.847 462.505 283.847 463.661C283.847 464.818 284.088 465.848 284.572 466.753C285.056 467.636 285.729 468.33 286.591 468.835C287.453 469.318 288.41 469.56 289.461 469.56ZM317.462 463.756C317.462 463.987 317.441 464.292 317.398 464.671H303.834C304.024 466.143 304.665 467.331 305.759 468.235C306.873 469.118 308.251 469.56 309.891 469.56C311.889 469.56 313.497 468.887 314.717 467.541L316.389 469.497C315.632 470.38 314.686 471.053 313.55 471.516C312.435 471.978 311.184 472.21 309.796 472.21C308.03 472.21 306.463 471.852 305.096 471.137C303.729 470.401 302.667 469.381 301.91 468.077C301.174 466.774 300.806 465.302 300.806 463.661C300.806 462.042 301.164 460.58 301.879 459.277C302.615 457.973 303.614 456.963 304.875 456.248C306.158 455.512 307.599 455.144 309.197 455.144C310.795 455.144 312.215 455.512 313.455 456.248C314.717 456.963 315.695 457.973 316.389 459.277C317.104 460.58 317.462 462.074 317.462 463.756ZM309.197 457.699C307.746 457.699 306.526 458.141 305.538 459.024C304.57 459.907 304.003 461.064 303.834 462.494H314.559C314.391 461.085 313.813 459.939 312.825 459.056C311.857 458.151 310.648 457.699 309.197 457.699ZM324.569 458.109C325.094 457.142 325.872 456.406 326.903 455.901C327.933 455.397 329.185 455.144 330.657 455.144V458.078C330.488 458.057 330.257 458.046 329.963 458.046C328.322 458.046 327.029 458.541 326.083 459.529C325.157 460.496 324.695 461.884 324.695 463.693V472.021H321.667V455.302H324.569V458.109ZM368.375 455.302L362.129 472.021H359.227L354.401 459.34L349.511 472.021H346.609L340.395 455.302H343.265L348.123 468.614L353.17 455.302H355.725L360.678 468.677L365.662 455.302H368.375ZM386.095 463.756C386.095 463.987 386.074 464.292 386.032 464.671H372.468C372.657 466.143 373.299 467.331 374.392 468.235C375.507 469.118 376.884 469.56 378.525 469.56C380.522 469.56 382.131 468.887 383.351 467.541L385.023 469.497C384.266 470.38 383.319 471.053 382.184 471.516C381.069 471.978 379.818 472.21 378.43 472.21C376.663 472.21 375.097 471.852 373.73 471.137C372.363 470.401 371.301 469.381 370.544 468.077C369.808 466.774 369.44 465.302 369.44 463.661C369.44 462.042 369.797 460.58 370.512 459.277C371.248 457.973 372.247 456.963 373.509 456.248C374.792 455.512 376.232 455.144 377.831 455.144C379.429 455.144 380.848 455.512 382.089 456.248C383.351 456.963 384.329 457.973 385.023 459.277C385.738 460.58 386.095 462.074 386.095 463.756ZM377.831 457.699C376.38 457.699 375.16 458.141 374.171 459.024C373.204 459.907 372.636 461.064 372.468 462.494H383.193C383.025 461.085 382.447 459.939 381.458 459.056C380.491 458.151 379.282 457.699 377.831 457.699ZM405.41 463.756C405.41 463.987 405.389 464.292 405.347 464.671H391.783C391.972 466.143 392.614 467.331 393.707 468.235C394.822 469.118 396.199 469.56 397.839 469.56C399.837 469.56 401.446 468.887 402.666 467.541L404.338 469.497C403.58 470.38 402.634 471.053 401.499 471.516C400.384 471.978 399.133 472.21 397.745 472.21C395.978 472.21 394.412 471.852 393.045 471.137C391.678 470.401 390.616 469.381 389.859 468.077C389.123 466.774 388.755 465.302 388.755 463.661C388.755 462.042 389.112 460.58 389.827 459.277C390.563 457.973 391.562 456.963 392.824 456.248C394.107 455.512 395.547 455.144 397.145 455.144C398.744 455.144 400.163 455.512 401.404 456.248C402.666 456.963 403.644 457.973 404.338 459.277C405.053 460.58 405.41 462.074 405.41 463.756ZM397.145 457.699C395.694 457.699 394.475 458.141 393.486 459.024C392.519 459.907 391.951 461.064 391.783 462.494H402.508C402.34 461.085 401.761 459.939 400.773 459.056C399.806 458.151 398.596 457.699 397.145 457.699ZM416.113 464.229L412.643 467.447V472.021H409.615V448.615H412.643V463.63L421.76 455.302H425.419L418.384 462.21L426.113 472.021H422.391L416.113 464.229Z" fill="#1A1A1A"/>
<path d="M84.3181 624.767C84.3181 636.354 93.7394 645.797 105.348 645.797C116.935 645.797 126.377 636.354 126.377 624.767C126.377 613.159 116.935 603.737 105.348 603.737C93.7394 603.737 84.3181 613.159 84.3181 624.767V624.767Z" fill="#130F26"/>
<rect x="97.5165" y="622.781" width="10.9133" height="3.63778" rx="1.81889" transform="rotate(45 97.5165 622.781)" fill="white"/>
<rect x="116.809" y="618.923" width="20.0078" height="3.63778" rx="1.81889" transform="rotate(135 116.809 618.923)" fill="white"/>
<path d="M170.045 630.531H158.311L155.882 636.051H152.633L162.632 613.97H165.755L175.786 636.051H172.474L170.045 630.531ZM168.941 628.007L164.178 617.187L159.415 628.007H168.941ZM185.771 636.24C184.068 636.24 182.543 635.872 181.197 635.136C179.872 634.4 178.832 633.391 178.074 632.108C177.317 630.804 176.939 629.332 176.939 627.692C176.939 626.051 177.317 624.59 178.074 623.307C178.832 622.003 179.872 620.994 181.197 620.279C182.543 619.543 184.068 619.175 185.771 619.175C187.285 619.175 188.631 619.479 189.809 620.089C191.008 620.699 191.933 621.582 192.585 622.739L190.282 624.222C189.756 623.423 189.104 622.823 188.326 622.424C187.548 622.024 186.686 621.824 185.74 621.824C184.646 621.824 183.658 622.066 182.775 622.55C181.912 623.033 181.229 623.727 180.724 624.632C180.24 625.515 179.999 626.535 179.999 627.692C179.999 628.869 180.24 629.91 180.724 630.814C181.229 631.698 181.912 632.381 182.775 632.865C183.658 633.348 184.646 633.59 185.74 633.59C186.686 633.59 187.548 633.391 188.326 632.991C189.104 632.591 189.756 631.992 190.282 631.193L192.585 632.644C191.933 633.801 191.008 634.694 189.809 635.325C188.631 635.935 187.285 636.24 185.771 636.24ZM203.546 636.24C201.842 636.24 200.318 635.872 198.972 635.136C197.647 634.4 196.606 633.391 195.849 632.108C195.092 630.804 194.713 629.332 194.713 627.692C194.713 626.051 195.092 624.59 195.849 623.307C196.606 622.003 197.647 620.994 198.972 620.279C200.318 619.543 201.842 619.175 203.546 619.175C205.06 619.175 206.406 619.479 207.583 620.089C208.782 620.699 209.707 621.582 210.359 622.739L208.057 624.222C207.531 623.423 206.879 622.823 206.101 622.424C205.323 622.024 204.461 621.824 203.514 621.824C202.421 621.824 201.432 622.066 200.549 622.55C199.687 623.033 199.003 623.727 198.499 624.632C198.015 625.515 197.773 626.535 197.773 627.692C197.773 628.869 198.015 629.91 198.499 630.814C199.003 631.698 199.687 632.381 200.549 632.865C201.432 633.348 202.421 633.59 203.514 633.59C204.461 633.59 205.323 633.391 206.101 632.991C206.879 632.591 207.531 631.992 208.057 631.193L210.359 632.644C209.707 633.801 208.782 634.694 207.583 635.325C206.406 635.935 205.06 636.24 203.546 636.24ZM221.194 636.24C219.533 636.24 218.04 635.872 216.715 635.136C215.39 634.4 214.349 633.391 213.592 632.108C212.856 630.804 212.488 629.332 212.488 627.692C212.488 626.051 212.856 624.59 213.592 623.307C214.349 622.003 215.39 620.994 216.715 620.279C218.04 619.543 219.533 619.175 221.194 619.175C222.856 619.175 224.338 619.543 225.642 620.279C226.967 620.994 227.997 622.003 228.733 623.307C229.49 624.59 229.869 626.051 229.869 627.692C229.869 629.332 229.49 630.804 228.733 632.108C227.997 633.391 226.967 634.4 225.642 635.136C224.338 635.872 222.856 636.24 221.194 636.24ZM221.194 633.59C222.267 633.59 223.224 633.348 224.065 632.865C224.927 632.36 225.6 631.666 226.084 630.783C226.567 629.879 226.809 628.848 226.809 627.692C226.809 626.535 226.567 625.515 226.084 624.632C225.6 623.727 224.927 623.033 224.065 622.55C223.224 622.066 222.267 621.824 221.194 621.824C220.122 621.824 219.154 622.066 218.292 622.55C217.451 623.033 216.778 623.727 216.273 624.632C215.79 625.515 215.548 626.535 215.548 627.692C215.548 628.848 215.79 629.879 216.273 630.783C216.778 631.666 217.451 632.36 218.292 632.865C219.154 633.348 220.122 633.59 221.194 633.59ZM249.64 619.332V636.051H246.769V633.527C246.159 634.389 245.35 635.062 244.34 635.546C243.352 636.009 242.269 636.24 241.091 636.24C238.862 636.24 237.106 635.63 235.823 634.41C234.541 633.17 233.899 631.351 233.899 628.953V619.332H236.927V628.606C236.927 630.226 237.316 631.456 238.095 632.297C238.873 633.117 239.987 633.527 241.438 633.527C243.037 633.527 244.298 633.044 245.224 632.076C246.149 631.109 246.612 629.742 246.612 627.975V619.332H249.64ZM264.332 619.175C266.456 619.175 268.138 619.795 269.379 621.036C270.641 622.255 271.272 624.053 271.272 626.43V636.051H268.243V626.777C268.243 625.157 267.854 623.938 267.076 623.118C266.298 622.297 265.184 621.887 263.733 621.887C262.092 621.887 260.799 622.371 259.853 623.338C258.906 624.285 258.433 625.652 258.433 627.439V636.051H255.405V619.332H258.307V621.856C258.917 620.994 259.737 620.331 260.767 619.869C261.819 619.406 263.007 619.175 264.332 619.175ZM286.276 635.073C285.835 635.451 285.288 635.746 284.636 635.956C283.984 636.145 283.311 636.24 282.617 636.24C280.935 636.24 279.631 635.788 278.706 634.884C277.78 633.979 277.318 632.686 277.318 631.004V621.824H274.479V619.332H277.318V615.673H280.346V619.332H285.141V621.824H280.346V630.877C280.346 631.782 280.567 632.476 281.008 632.959C281.471 633.443 282.123 633.685 282.964 633.685C283.889 633.685 284.678 633.422 285.33 632.896L286.276 635.073ZM319.323 619.175C321.426 619.175 323.087 619.784 324.307 621.004C325.547 622.224 326.168 624.032 326.168 626.43V636.051H323.14V626.777C323.14 625.157 322.761 623.938 322.004 623.118C321.268 622.297 320.206 621.887 318.818 621.887C317.283 621.887 316.063 622.371 315.159 623.338C314.255 624.285 313.802 625.652 313.802 627.439V636.051H310.774V626.777C310.774 625.157 310.396 623.938 309.639 623.118C308.902 622.297 307.84 621.887 306.453 621.887C304.917 621.887 303.698 622.371 302.793 623.338C301.889 624.285 301.437 625.652 301.437 627.439V636.051H298.409V619.332H301.311V621.824C301.921 620.962 302.72 620.31 303.708 619.869C304.697 619.406 305.822 619.175 307.083 619.175C308.387 619.175 309.544 619.437 310.553 619.963C311.563 620.489 312.341 621.256 312.888 622.266C313.518 621.299 314.391 620.541 315.506 619.995C316.641 619.448 317.914 619.175 319.323 619.175ZM337.828 619.175C340.141 619.175 341.908 619.742 343.127 620.878C344.368 622.014 344.988 623.706 344.988 625.957V636.051H342.118V633.843C341.613 634.621 340.888 635.22 339.941 635.641C339.016 636.04 337.912 636.24 336.629 636.24C334.758 636.24 333.254 635.788 332.118 634.884C331.004 633.979 330.446 632.791 330.446 631.319C330.446 629.847 330.983 628.669 332.055 627.786C333.128 626.882 334.831 626.43 337.165 626.43H341.96V625.83C341.96 624.527 341.582 623.528 340.825 622.834C340.068 622.14 338.953 621.793 337.481 621.793C336.492 621.793 335.525 621.961 334.579 622.297C333.632 622.613 332.833 623.044 332.181 623.591L330.92 621.32C331.782 620.626 332.812 620.1 334.011 619.742C335.21 619.364 336.482 619.175 337.828 619.175ZM337.134 633.906C338.291 633.906 339.289 633.653 340.131 633.149C340.972 632.623 341.582 631.887 341.96 630.941V628.606H337.292C334.726 628.606 333.443 629.469 333.443 631.193C333.443 632.034 333.769 632.697 334.421 633.18C335.073 633.664 335.977 633.906 337.134 633.906ZM359.52 619.175C361.644 619.175 363.326 619.795 364.567 621.036C365.828 622.255 366.459 624.053 366.459 626.43V636.051H363.431V626.777C363.431 625.157 363.042 623.938 362.264 623.118C361.486 622.297 360.371 621.887 358.92 621.887C357.28 621.887 355.987 622.371 355.04 623.338C354.094 624.285 353.621 625.652 353.621 627.439V636.051H350.593V619.332H353.495V621.856C354.104 620.994 354.925 620.331 355.955 619.869C357.007 619.406 358.195 619.175 359.52 619.175ZM378.152 619.175C380.465 619.175 382.231 619.742 383.451 620.878C384.692 622.014 385.312 623.706 385.312 625.957V636.051H382.442V633.843C381.937 634.621 381.212 635.22 380.265 635.641C379.34 636.04 378.236 636.24 376.953 636.24C375.081 636.24 373.578 635.788 372.442 634.884C371.328 633.979 370.77 632.791 370.77 631.319C370.77 629.847 371.307 628.669 372.379 627.786C373.452 626.882 375.155 626.43 377.489 626.43H382.284V625.83C382.284 624.527 381.906 623.528 381.148 622.834C380.391 622.14 379.277 621.793 377.805 621.793C376.816 621.793 375.849 621.961 374.903 622.297C373.956 622.613 373.157 623.044 372.505 623.591L371.244 621.32C372.106 620.626 373.136 620.1 374.335 619.742C375.534 619.364 376.806 619.175 378.152 619.175ZM377.458 633.906C378.614 633.906 379.613 633.653 380.454 633.149C381.296 632.623 381.906 631.887 382.284 630.941V628.606H377.615C375.05 628.606 373.767 629.469 373.767 631.193C373.767 632.034 374.093 632.697 374.745 633.18C375.397 633.664 376.301 633.906 377.458 633.906ZM407.002 619.332V633.78C407.002 636.703 406.276 638.858 404.825 640.246C403.374 641.655 401.208 642.36 398.327 642.36C396.75 642.36 395.246 642.139 393.816 641.697C392.386 641.277 391.23 640.667 390.346 639.868L391.797 637.533C392.576 638.206 393.532 638.732 394.668 639.111C395.825 639.51 397.013 639.71 398.232 639.71C400.188 639.71 401.629 639.247 402.554 638.322C403.5 637.397 403.974 635.988 403.974 634.095V632.77C403.259 633.632 402.375 634.284 401.324 634.726C400.293 635.147 399.168 635.357 397.949 635.357C396.35 635.357 394.899 635.02 393.595 634.347C392.313 633.653 391.303 632.697 390.567 631.477C389.831 630.236 389.463 628.827 389.463 627.25C389.463 625.673 389.831 624.274 390.567 623.054C391.303 621.814 392.313 620.857 393.595 620.184C394.899 619.511 396.35 619.175 397.949 619.175C399.21 619.175 400.377 619.406 401.45 619.869C402.544 620.331 403.437 621.015 404.131 621.919V619.332H407.002ZM398.296 632.707C399.389 632.707 400.367 632.476 401.229 632.013C402.112 631.55 402.796 630.909 403.28 630.089C403.784 629.248 404.037 628.301 404.037 627.25C404.037 625.631 403.5 624.327 402.428 623.338C401.355 622.329 399.978 621.824 398.296 621.824C396.592 621.824 395.204 622.329 394.132 623.338C393.059 624.327 392.523 625.631 392.523 627.25C392.523 628.301 392.765 629.248 393.248 630.089C393.753 630.909 394.437 631.55 395.299 632.013C396.182 632.476 397.181 632.707 398.296 632.707ZM427.898 627.786C427.898 628.017 427.877 628.322 427.835 628.701H414.271C414.46 630.173 415.101 631.361 416.195 632.265C417.309 633.149 418.687 633.59 420.327 633.59C422.325 633.59 423.934 632.917 425.153 631.571L426.825 633.527C426.068 634.41 425.122 635.083 423.986 635.546C422.872 636.009 421.62 636.24 420.232 636.24C418.466 636.24 416.899 635.883 415.532 635.168C414.165 634.432 413.103 633.412 412.346 632.108C411.61 630.804 411.242 629.332 411.242 627.692C411.242 626.072 411.6 624.611 412.315 623.307C413.051 622.003 414.05 620.994 415.312 620.279C416.594 619.543 418.035 619.175 419.633 619.175C421.231 619.175 422.651 619.543 423.892 620.279C425.153 620.994 426.131 622.003 426.825 623.307C427.54 624.611 427.898 626.104 427.898 627.786ZM419.633 621.73C418.182 621.73 416.962 622.171 415.974 623.054C415.007 623.938 414.439 625.094 414.271 626.524H424.996C424.827 625.115 424.249 623.969 423.261 623.086C422.293 622.182 421.084 621.73 419.633 621.73ZM453.017 619.175C455.12 619.175 456.781 619.784 458.001 621.004C459.241 622.224 459.862 624.032 459.862 626.43V636.051H456.834V626.777C456.834 625.157 456.455 623.938 455.698 623.118C454.962 622.297 453.9 621.887 452.512 621.887C450.977 621.887 449.757 622.371 448.853 623.338C447.949 624.285 447.496 625.652 447.496 627.439V636.051H444.468V626.777C444.468 625.157 444.09 623.938 443.333 623.118C442.597 622.297 441.535 621.887 440.147 621.887C438.611 621.887 437.392 622.371 436.487 623.338C435.583 624.285 435.131 625.652 435.131 627.439V636.051H432.103V619.332H435.005V621.824C435.615 620.962 436.414 620.31 437.402 619.869C438.391 619.406 439.516 619.175 440.777 619.175C442.081 619.175 443.238 619.437 444.247 619.963C445.257 620.489 446.035 621.256 446.582 622.266C447.213 621.299 448.085 620.541 449.2 619.995C450.335 619.448 451.608 619.175 453.017 619.175ZM480.636 627.786C480.636 628.017 480.615 628.322 480.573 628.701H467.009C467.198 630.173 467.84 631.361 468.933 632.265C470.048 633.149 471.425 633.59 473.065 633.59C475.063 633.59 476.672 632.917 477.892 631.571L479.564 633.527C478.806 634.41 477.86 635.083 476.725 635.546C475.61 636.009 474.359 636.24 472.971 636.24C471.204 636.24 469.638 635.883 468.271 635.168C466.904 634.432 465.842 633.412 465.085 632.108C464.349 630.804 463.981 629.332 463.981 627.692C463.981 626.072 464.338 624.611 465.053 623.307C465.789 622.003 466.788 620.994 468.05 620.279C469.333 619.543 470.773 619.175 472.371 619.175C473.97 619.175 475.389 619.543 476.63 620.279C477.892 620.994 478.87 622.003 479.564 623.307C480.279 624.611 480.636 626.104 480.636 627.786ZM472.371 621.73C470.92 621.73 469.701 622.171 468.712 623.054C467.745 623.938 467.177 625.094 467.009 626.524H477.734C477.566 625.115 476.987 623.969 475.999 623.086C475.032 622.182 473.822 621.73 472.371 621.73ZM493.768 619.175C495.892 619.175 497.575 619.795 498.815 621.036C500.077 622.255 500.708 624.053 500.708 626.43V636.051H497.68V626.777C497.68 625.157 497.291 623.938 496.513 623.118C495.734 622.297 494.62 621.887 493.169 621.887C491.529 621.887 490.235 622.371 489.289 623.338C488.343 624.285 487.869 625.652 487.869 627.439V636.051H484.841V619.332H487.743V621.856C488.353 620.994 489.173 620.331 490.204 619.869C491.255 619.406 492.443 619.175 493.768 619.175ZM515.712 635.073C515.271 635.451 514.724 635.746 514.072 635.956C513.42 636.145 512.747 636.24 512.053 636.24C510.371 636.24 509.067 635.788 508.142 634.884C507.216 633.979 506.754 632.686 506.754 631.004V621.824H503.915V619.332H506.754V615.673H509.782V619.332H514.577V621.824H509.782V630.877C509.782 631.782 510.003 632.476 510.445 632.959C510.907 633.443 511.559 633.685 512.4 633.685C513.326 633.685 514.114 633.422 514.766 632.896L515.712 635.073Z" fill="#1A1A1A"/>
<path d="M84.3181 542.752C84.3181 554.34 93.7394 563.782 105.348 563.782C116.935 563.782 126.377 554.34 126.377 542.752C126.377 531.144 116.935 521.723 105.348 521.723C93.7394 521.723 84.3181 531.144 84.3181 542.752V542.752Z" fill="#130F26"/>
<rect x="97.5165" y="540.767" width="10.9133" height="3.63778" rx="1.81889" transform="rotate(45 97.5165 540.767)" fill="white"/>
<rect x="116.809" y="536.908" width="20.0078" height="3.63778" rx="1.81889" transform="rotate(135 116.809 536.908)" fill="white"/>
<path d="M155.976 531.955H159.131V554.036H155.976V531.955ZM174.227 537.16C176.351 537.16 178.033 537.78 179.274 539.021C180.536 540.241 181.167 542.039 181.167 544.415V554.036H178.139V544.762C178.139 543.143 177.749 541.923 176.971 541.103C176.193 540.283 175.079 539.873 173.628 539.873C171.987 539.873 170.694 540.356 169.748 541.324C168.801 542.27 168.328 543.637 168.328 545.425V554.036H165.3V537.318H168.202V539.841C168.812 538.979 169.632 538.317 170.662 537.854C171.714 537.391 172.902 537.16 174.227 537.16ZM191.566 554.225C190.199 554.225 188.885 554.047 187.623 553.689C186.361 553.311 185.373 552.837 184.658 552.27L185.919 549.872C186.655 550.398 187.549 550.819 188.601 551.134C189.652 551.449 190.714 551.607 191.787 551.607C194.436 551.607 195.761 550.85 195.761 549.336C195.761 548.831 195.582 548.432 195.225 548.137C194.867 547.843 194.415 547.633 193.869 547.506C193.343 547.359 192.586 547.202 191.597 547.033C190.251 546.823 189.147 546.581 188.285 546.308C187.444 546.034 186.719 545.572 186.109 544.92C185.499 544.268 185.194 543.353 185.194 542.175C185.194 540.661 185.825 539.452 187.087 538.548C188.348 537.623 190.041 537.16 192.165 537.16C193.28 537.16 194.394 537.297 195.509 537.57C196.623 537.843 197.538 538.211 198.253 538.674L196.96 541.071C195.593 540.188 193.984 539.747 192.134 539.747C190.851 539.747 189.873 539.957 189.2 540.377C188.527 540.798 188.191 541.355 188.191 542.049C188.191 542.596 188.38 543.027 188.758 543.343C189.137 543.658 189.6 543.889 190.146 544.037C190.714 544.184 191.503 544.352 192.512 544.541C193.858 544.773 194.941 545.025 195.761 545.298C196.602 545.551 197.317 545.992 197.906 546.623C198.495 547.254 198.79 548.137 198.79 549.273C198.79 550.787 198.138 551.996 196.834 552.901C195.551 553.784 193.795 554.225 191.566 554.225ZM211.974 553.058C211.533 553.437 210.986 553.731 210.334 553.941C209.682 554.131 209.009 554.225 208.315 554.225C206.633 554.225 205.329 553.773 204.404 552.869C203.478 551.965 203.016 550.671 203.016 548.989V539.81H200.177V537.318H203.016V533.658H206.044V537.318H210.839V539.81H206.044V548.863C206.044 549.767 206.265 550.461 206.706 550.945C207.169 551.428 207.821 551.67 208.662 551.67C209.587 551.67 210.376 551.407 211.028 550.882L211.974 553.058ZM221.724 537.16C224.037 537.16 225.803 537.728 227.023 538.863C228.264 539.999 228.884 541.692 228.884 543.942V554.036H226.014V551.828C225.509 552.606 224.783 553.205 223.837 553.626C222.912 554.026 221.808 554.225 220.525 554.225C218.653 554.225 217.15 553.773 216.014 552.869C214.899 551.965 214.342 550.777 214.342 549.304C214.342 547.832 214.878 546.655 215.951 545.771C217.023 544.867 218.727 544.415 221.061 544.415H225.856V543.816C225.856 542.512 225.477 541.513 224.72 540.819C223.963 540.125 222.849 539.778 221.377 539.778C220.388 539.778 219.421 539.946 218.474 540.283C217.528 540.598 216.729 541.029 216.077 541.576L214.815 539.305C215.678 538.611 216.708 538.085 217.907 537.728C219.105 537.349 220.378 537.16 221.724 537.16ZM221.03 551.891C222.186 551.891 223.185 551.639 224.026 551.134C224.867 550.608 225.477 549.872 225.856 548.926V546.592H221.187C218.622 546.592 217.339 547.454 217.339 549.178C217.339 550.019 217.665 550.682 218.317 551.166C218.969 551.649 219.873 551.891 221.03 551.891ZM250.574 537.318V551.765C250.574 554.688 249.848 556.844 248.397 558.232C246.946 559.641 244.78 560.345 241.899 560.345C240.322 560.345 238.818 560.124 237.388 559.683C235.958 559.262 234.801 558.652 233.918 557.853L235.369 555.519C236.147 556.192 237.104 556.717 238.24 557.096C239.396 557.496 240.585 557.695 241.804 557.695C243.76 557.695 245.201 557.233 246.126 556.307C247.072 555.382 247.545 553.973 247.545 552.08V550.756C246.83 551.618 245.947 552.27 244.896 552.711C243.865 553.132 242.74 553.342 241.52 553.342C239.922 553.342 238.471 553.006 237.167 552.333C235.884 551.639 234.875 550.682 234.139 549.462C233.403 548.221 233.035 546.812 233.035 545.235C233.035 543.658 233.403 542.26 234.139 541.04C234.875 539.799 235.884 538.842 237.167 538.169C238.471 537.496 239.922 537.16 241.52 537.16C242.782 537.16 243.949 537.391 245.022 537.854C246.115 538.317 247.009 539 247.703 539.904V537.318H250.574ZM241.867 550.692C242.961 550.692 243.939 550.461 244.801 549.998C245.684 549.536 246.368 548.894 246.851 548.074C247.356 547.233 247.608 546.287 247.608 545.235C247.608 543.616 247.072 542.312 246 541.324C244.927 540.314 243.55 539.81 241.867 539.81C240.164 539.81 238.776 540.314 237.703 541.324C236.631 542.312 236.095 543.616 236.095 545.235C236.095 546.287 236.337 547.233 236.82 548.074C237.325 548.894 238.008 549.536 238.871 549.998C239.754 550.461 240.753 550.692 241.867 550.692ZM259.262 540.125C259.788 539.158 260.566 538.422 261.596 537.917C262.627 537.412 263.878 537.16 265.35 537.16V540.094C265.182 540.072 264.95 540.062 264.656 540.062C263.016 540.062 261.722 540.556 260.776 541.545C259.851 542.512 259.388 543.9 259.388 545.708V554.036H256.36V537.318H259.262V540.125ZM275.14 537.16C277.453 537.16 279.219 537.728 280.439 538.863C281.68 539.999 282.3 541.692 282.3 543.942V554.036H279.43V551.828C278.925 552.606 278.199 553.205 277.253 553.626C276.328 554.026 275.224 554.225 273.941 554.225C272.069 554.225 270.566 553.773 269.43 552.869C268.315 551.965 267.758 550.777 267.758 549.304C267.758 547.832 268.294 546.655 269.367 545.771C270.439 544.867 272.143 544.415 274.477 544.415H279.272V543.816C279.272 542.512 278.893 541.513 278.136 540.819C277.379 540.125 276.265 539.778 274.793 539.778C273.804 539.778 272.837 539.946 271.89 540.283C270.944 540.598 270.145 541.029 269.493 541.576L268.231 539.305C269.094 538.611 270.124 538.085 271.323 537.728C272.521 537.349 273.794 537.16 275.14 537.16ZM274.446 551.891C275.602 551.891 276.601 551.639 277.442 551.134C278.283 550.608 278.893 549.872 279.272 548.926V546.592H274.603C272.038 546.592 270.755 547.454 270.755 549.178C270.755 550.019 271.081 550.682 271.733 551.166C272.385 551.649 273.289 551.891 274.446 551.891ZM308.818 537.16C310.921 537.16 312.582 537.77 313.802 538.989C315.043 540.209 315.663 542.018 315.663 544.415V554.036H312.635V544.762C312.635 543.143 312.256 541.923 311.499 541.103C310.763 540.283 309.701 539.873 308.313 539.873C306.778 539.873 305.559 540.356 304.654 541.324C303.75 542.27 303.298 543.637 303.298 545.425V554.036H300.27V544.762C300.27 543.143 299.891 541.923 299.134 541.103C298.398 540.283 297.336 539.873 295.948 539.873C294.413 539.873 293.193 540.356 292.289 541.324C291.385 542.27 290.932 543.637 290.932 545.425V554.036H287.904V537.318H290.806V539.81C291.416 538.947 292.215 538.295 293.204 537.854C294.192 537.391 295.317 537.16 296.579 537.16C297.883 537.16 299.039 537.423 300.049 537.948C301.058 538.474 301.836 539.242 302.383 540.251C303.014 539.284 303.887 538.527 305.001 537.98C306.137 537.433 307.409 537.16 308.818 537.16ZM333.587 560.156C332.388 558.221 331.463 556.002 330.811 553.5C330.159 550.976 329.833 548.274 329.833 545.393C329.833 542.512 330.159 539.81 330.811 537.286C331.463 534.741 332.388 532.523 333.587 530.63H336.457C335.195 532.838 334.27 535.152 333.681 537.57C333.092 539.988 332.798 542.596 332.798 545.393C332.798 548.19 333.092 550.798 333.681 553.216C334.27 555.634 335.195 557.948 336.457 560.156H333.587ZM354.435 544.92H348.946V550.282H344.877V544.92H339.42V541.071H344.877V535.709H348.946V541.071H354.435V544.92ZM373.582 549.872V554.036H356.895V550.724L365.412 542.68C366.317 541.818 366.927 541.082 367.242 540.472C367.557 539.841 367.715 539.221 367.715 538.611C367.715 537.728 367.41 537.055 366.8 536.592C366.212 536.108 365.339 535.867 364.182 535.867C363.215 535.867 362.342 536.056 361.564 536.434C360.786 536.792 360.134 537.339 359.608 538.075L355.886 535.677C356.748 534.394 357.936 533.396 359.451 532.681C360.965 531.945 362.7 531.577 364.655 531.577C366.296 531.577 367.726 531.85 368.945 532.397C370.186 532.922 371.143 533.679 371.816 534.668C372.51 535.635 372.857 536.781 372.857 538.106C372.857 539.305 372.605 540.43 372.1 541.481C371.595 542.533 370.617 543.732 369.166 545.078L364.088 549.872H373.582ZM392.963 554.225C391.302 554.225 389.809 553.857 388.484 553.121C387.159 552.385 386.118 551.376 385.361 550.093C384.625 548.789 384.257 547.317 384.257 545.677C384.257 544.037 384.625 542.575 385.361 541.292C386.118 539.988 387.159 538.979 388.484 538.264C389.809 537.528 391.302 537.16 392.963 537.16C394.625 537.16 396.107 537.528 397.411 538.264C398.736 538.979 399.766 539.988 400.502 541.292C401.259 542.575 401.638 544.037 401.638 545.677C401.638 547.317 401.259 548.789 400.502 550.093C399.766 551.376 398.736 552.385 397.411 553.121C396.107 553.857 394.625 554.225 392.963 554.225ZM392.963 551.576C394.036 551.576 394.993 551.334 395.834 550.85C396.696 550.345 397.369 549.651 397.853 548.768C398.336 547.864 398.578 546.833 398.578 545.677C398.578 544.52 398.336 543.5 397.853 542.617C397.369 541.713 396.696 541.019 395.834 540.535C394.993 540.051 394.036 539.81 392.963 539.81C391.891 539.81 390.923 540.051 390.061 540.535C389.22 541.019 388.547 541.713 388.042 542.617C387.559 543.5 387.317 544.52 387.317 545.677C387.317 546.833 387.559 547.864 388.042 548.768C388.547 549.651 389.22 550.345 390.061 550.85C390.923 551.334 391.891 551.576 392.963 551.576ZM415.226 553.058C414.785 553.437 414.238 553.731 413.586 553.941C412.934 554.131 412.261 554.225 411.567 554.225C409.885 554.225 408.581 553.773 407.656 552.869C406.73 551.965 406.268 550.671 406.268 548.989V539.81H403.429V537.318H406.268V533.658H409.296V537.318H414.091V539.81H409.296V548.863C409.296 549.767 409.517 550.461 409.958 550.945C410.421 551.428 411.073 551.67 411.914 551.67C412.839 551.67 413.628 551.407 414.28 550.882L415.226 553.058ZM427.814 537.16C429.938 537.16 431.621 537.78 432.862 539.021C434.123 540.241 434.754 542.039 434.754 544.415V554.036H431.726V544.762C431.726 543.143 431.337 541.923 430.559 541.103C429.781 540.283 428.666 539.873 427.215 539.873C425.575 539.873 424.281 540.356 423.335 541.324C422.389 542.27 421.916 543.637 421.916 545.425V554.036H418.887V530.63H421.916V539.683C422.547 538.884 423.367 538.264 424.376 537.822C425.407 537.381 426.553 537.16 427.814 537.16ZM455.561 545.771C455.561 546.003 455.54 546.308 455.498 546.686H441.934C442.123 548.158 442.764 549.347 443.858 550.251C444.972 551.134 446.35 551.576 447.99 551.576C449.988 551.576 451.597 550.903 452.816 549.557L454.488 551.513C453.731 552.396 452.785 553.069 451.649 553.531C450.535 553.994 449.283 554.225 447.895 554.225C446.129 554.225 444.562 553.868 443.195 553.153C441.828 552.417 440.766 551.397 440.009 550.093C439.273 548.789 438.905 547.317 438.905 545.677C438.905 544.058 439.263 542.596 439.978 541.292C440.714 539.988 441.713 538.979 442.975 538.264C444.257 537.528 445.698 537.16 447.296 537.16C448.894 537.16 450.314 537.528 451.555 538.264C452.816 538.979 453.794 539.988 454.488 541.292C455.203 542.596 455.561 544.089 455.561 545.771ZM447.296 539.715C445.845 539.715 444.625 540.157 443.637 541.04C442.67 541.923 442.102 543.08 441.934 544.51H452.659C452.49 543.101 451.912 541.955 450.924 541.071C449.956 540.167 448.747 539.715 447.296 539.715ZM462.668 540.125C463.194 539.158 463.972 538.422 465.002 537.917C466.033 537.412 467.284 537.16 468.756 537.16V540.094C468.588 540.072 468.356 540.062 468.062 540.062C466.422 540.062 465.128 540.556 464.182 541.545C463.257 542.512 462.794 543.9 462.794 545.708V554.036H459.766V537.318H462.668V540.125ZM490.039 537.16C491.659 537.16 493.11 537.517 494.392 538.232C495.675 538.947 496.674 539.946 497.389 541.229C498.125 542.512 498.493 543.994 498.493 545.677C498.493 547.359 498.125 548.852 497.389 550.156C496.674 551.439 495.675 552.438 494.392 553.153C493.11 553.868 491.659 554.225 490.039 554.225C488.841 554.225 487.737 553.994 486.727 553.531C485.739 553.069 484.898 552.396 484.204 551.513V560.156H481.175V537.318H484.077V539.967C484.75 539.042 485.602 538.348 486.632 537.885C487.663 537.402 488.799 537.16 490.039 537.16ZM489.787 551.576C490.859 551.576 491.816 551.334 492.657 550.85C493.52 550.345 494.193 549.651 494.676 548.768C495.181 547.864 495.433 546.833 495.433 545.677C495.433 544.52 495.181 543.5 494.676 542.617C494.193 541.713 493.52 541.019 492.657 540.535C491.816 540.051 490.859 539.81 489.787 539.81C488.735 539.81 487.779 540.062 486.916 540.567C486.075 541.05 485.402 541.734 484.898 542.617C484.414 543.5 484.172 544.52 484.172 545.677C484.172 546.833 484.414 547.864 484.898 548.768C485.381 549.651 486.054 550.345 486.916 550.85C487.779 551.334 488.735 551.576 489.787 551.576ZM502.677 530.63H505.706V554.036H502.677V530.63ZM517.576 537.16C519.889 537.16 521.655 537.728 522.875 538.863C524.116 539.999 524.736 541.692 524.736 543.942V554.036H521.866V551.828C521.361 552.606 520.635 553.205 519.689 553.626C518.764 554.026 517.66 554.225 516.377 554.225C514.505 554.225 513.002 553.773 511.866 552.869C510.751 551.965 510.194 550.777 510.194 549.304C510.194 547.832 510.73 546.655 511.803 545.771C512.875 544.867 514.579 544.415 516.913 544.415H521.708V543.816C521.708 542.512 521.329 541.513 520.572 540.819C519.815 540.125 518.701 539.778 517.229 539.778C516.24 539.778 515.273 539.946 514.326 540.283C513.38 540.598 512.581 541.029 511.929 541.576L510.667 539.305C511.53 538.611 512.56 538.085 513.759 537.728C514.957 537.349 516.23 537.16 517.576 537.16ZM516.882 551.891C518.038 551.891 519.037 551.639 519.878 551.134C520.719 550.608 521.329 549.872 521.708 548.926V546.592H517.039C514.474 546.592 513.191 547.454 513.191 549.178C513.191 550.019 513.517 550.682 514.169 551.166C514.821 551.649 515.725 551.891 516.882 551.891ZM539.74 553.058C539.299 553.437 538.752 553.731 538.1 553.941C537.448 554.131 536.775 554.225 536.081 554.225C534.399 554.225 533.095 553.773 532.17 552.869C531.244 551.965 530.782 550.671 530.782 548.989V539.81H527.943V537.318H530.782V533.658H533.81V537.318H538.605V539.81H533.81V548.863C533.81 549.767 534.031 550.461 534.473 550.945C534.935 551.428 535.587 551.67 536.428 551.67C537.354 551.67 538.142 551.407 538.794 550.882L539.74 553.058ZM549.521 532.933C547.713 532.933 546.808 533.911 546.808 535.867V537.318H551.666V539.81H546.871V554.036H543.843V539.81H541.004V537.318H543.843V535.835C543.843 534.174 544.327 532.859 545.294 531.892C546.262 530.925 547.618 530.441 549.363 530.441C550.036 530.441 550.667 530.525 551.256 530.693C551.845 530.862 552.35 531.103 552.77 531.419L551.855 533.722C551.161 533.196 550.383 532.933 549.521 532.933ZM561.436 554.225C559.775 554.225 558.282 553.857 556.957 553.121C555.632 552.385 554.591 551.376 553.834 550.093C553.098 548.789 552.73 547.317 552.73 545.677C552.73 544.037 553.098 542.575 553.834 541.292C554.591 539.988 555.632 538.979 556.957 538.264C558.282 537.528 559.775 537.16 561.436 537.16C563.098 537.16 564.58 537.528 565.884 538.264C567.209 538.979 568.239 539.988 568.975 541.292C569.733 542.575 570.111 544.037 570.111 545.677C570.111 547.317 569.733 548.789 568.975 550.093C568.239 551.376 567.209 552.385 565.884 553.121C564.58 553.857 563.098 554.225 561.436 554.225ZM561.436 551.576C562.509 551.576 563.466 551.334 564.307 550.85C565.169 550.345 565.842 549.651 566.326 548.768C566.809 547.864 567.051 546.833 567.051 545.677C567.051 544.52 566.809 543.5 566.326 542.617C565.842 541.713 565.169 541.019 564.307 540.535C563.466 540.051 562.509 539.81 561.436 539.81C560.364 539.81 559.396 540.051 558.534 540.535C557.693 541.019 557.02 541.713 556.515 542.617C556.032 543.5 555.79 544.52 555.79 545.677C555.79 546.833 556.032 547.864 556.515 548.768C557.02 549.651 557.693 550.345 558.534 550.85C559.396 551.334 560.364 551.576 561.436 551.576ZM577.201 540.125C577.727 539.158 578.505 538.422 579.535 537.917C580.566 537.412 581.817 537.16 583.289 537.16V540.094C583.121 540.072 582.89 540.062 582.595 540.062C580.955 540.062 579.662 540.556 578.715 541.545C577.79 542.512 577.327 543.9 577.327 545.708V554.036H574.299V537.318H577.201V540.125ZM607.935 537.16C610.038 537.16 611.7 537.77 612.92 538.989C614.16 540.209 614.781 542.018 614.781 544.415V554.036H611.752V544.762C611.752 543.143 611.374 541.923 610.617 541.103C609.881 540.283 608.819 539.873 607.431 539.873C605.896 539.873 604.676 540.356 603.772 541.324C602.867 542.27 602.415 543.637 602.415 545.425V554.036H599.387V544.762C599.387 543.143 599.008 541.923 598.251 541.103C597.515 540.283 596.453 539.873 595.065 539.873C593.53 539.873 592.31 540.356 591.406 541.324C590.502 542.27 590.05 543.637 590.05 545.425V554.036H587.022V537.318H589.924V539.81C590.533 538.947 591.333 538.295 592.321 537.854C593.309 537.391 594.434 537.16 595.696 537.16C597 537.16 598.157 537.423 599.166 537.948C600.176 538.474 600.954 539.242 601.5 540.251C602.131 539.284 603.004 538.527 604.119 537.98C605.254 537.433 606.527 537.16 607.935 537.16ZM625.147 554.225C623.78 554.225 622.466 554.047 621.204 553.689C619.943 553.311 618.954 552.837 618.239 552.27L619.501 549.872C620.237 550.398 621.131 550.819 622.182 551.134C623.234 551.449 624.296 551.607 625.368 551.607C628.018 551.607 629.343 550.85 629.343 549.336C629.343 548.831 629.164 548.432 628.807 548.137C628.449 547.843 627.997 547.633 627.45 547.506C626.924 547.359 626.167 547.202 625.179 547.033C623.833 546.823 622.729 546.581 621.867 546.308C621.026 546.034 620.3 545.572 619.69 544.92C619.08 544.268 618.775 543.353 618.775 542.175C618.775 540.661 619.406 539.452 620.668 538.548C621.93 537.623 623.623 537.16 625.747 537.16C626.861 537.16 627.976 537.297 629.09 537.57C630.205 537.843 631.12 538.211 631.835 538.674L630.542 541.071C629.175 540.188 627.566 539.747 625.715 539.747C624.432 539.747 623.455 539.957 622.782 540.377C622.109 540.798 621.772 541.355 621.772 542.049C621.772 542.596 621.961 543.027 622.34 543.343C622.718 543.658 623.181 543.889 623.728 544.037C624.296 544.184 625.084 544.352 626.094 544.541C627.44 544.773 628.523 545.025 629.343 545.298C630.184 545.551 630.899 545.992 631.488 546.623C632.077 547.254 632.371 548.137 632.371 549.273C632.371 550.787 631.719 551.996 630.415 552.901C629.133 553.784 627.377 554.225 625.147 554.225ZM634.295 560.156C635.556 557.948 636.482 555.634 637.07 553.216C637.68 550.798 637.985 548.19 637.985 545.393C637.985 542.596 637.68 539.988 637.07 537.57C636.482 535.152 635.556 532.838 634.295 530.63H637.165C638.385 532.523 639.321 534.731 639.973 537.255C640.624 539.778 640.95 542.491 640.95 545.393C640.95 548.274 640.624 550.976 639.973 553.5C639.321 556.023 638.385 558.242 637.165 560.156H634.295Z" fill="#1A1A1A"/>
<path d="M103.341 104.621C104.981 105.078 106.272 105.912 107.213 107.122C108.154 108.305 108.624 109.81 108.624 111.639C108.624 114.085 107.697 115.967 105.842 117.285C104.014 118.602 101.338 119.261 97.8164 119.261H84.3466V91.0306H97.0098C100.236 91.0306 102.723 91.6759 104.471 92.9664C106.245 94.2569 107.132 96.0448 107.132 98.3301C107.132 99.8088 106.783 101.086 106.084 102.161C105.412 103.237 104.498 104.057 103.341 104.621ZM88.3795 94.2972V103.331H96.6469C98.7171 103.331 100.303 102.954 101.406 102.202C102.535 101.422 103.099 100.293 103.099 98.8141C103.099 97.3353 102.535 96.2196 101.406 95.4668C100.303 94.6871 98.7171 94.2972 96.6469 94.2972H88.3795ZM97.6551 115.994C99.9404 115.994 101.661 115.618 102.817 114.865C103.973 114.112 104.551 112.929 104.551 111.316C104.551 108.17 102.253 106.598 97.6551 106.598H88.3795V115.994H97.6551ZM122.088 97.6849C125.045 97.6849 127.304 98.4108 128.863 99.8626C130.449 101.314 131.242 103.479 131.242 106.356V119.261H127.572V116.438C126.927 117.433 126 118.199 124.79 118.736C123.607 119.247 122.195 119.503 120.555 119.503C118.162 119.503 116.24 118.925 114.788 117.769C113.363 116.612 112.651 115.093 112.651 113.211C112.651 111.329 113.336 109.824 114.708 108.695C116.079 107.539 118.256 106.96 121.241 106.96H127.371V106.194C127.371 104.527 126.887 103.25 125.919 102.363C124.951 101.476 123.526 101.032 121.644 101.032C120.38 101.032 119.144 101.247 117.934 101.677C116.724 102.081 115.702 102.632 114.869 103.331L113.256 100.427C114.358 99.54 115.675 98.8678 117.208 98.4108C118.74 97.9268 120.367 97.6849 122.088 97.6849ZM121.2 116.518C122.679 116.518 123.956 116.196 125.032 115.55C126.107 114.878 126.887 113.937 127.371 112.727V109.743H121.402C118.122 109.743 116.482 110.845 116.482 113.05C116.482 114.126 116.899 114.972 117.732 115.591C118.566 116.209 119.722 116.518 121.2 116.518ZM144.537 119.503C142.789 119.503 141.109 119.274 139.496 118.817C137.883 118.333 136.619 117.728 135.705 117.002L137.318 113.937C138.259 114.609 139.402 115.147 140.746 115.55C142.09 115.954 143.448 116.155 144.819 116.155C148.207 116.155 149.901 115.188 149.901 113.252C149.901 112.606 149.672 112.096 149.215 111.719C148.758 111.343 148.18 111.074 147.481 110.913C146.809 110.724 145.841 110.523 144.577 110.308C142.857 110.039 141.445 109.73 140.343 109.38C139.267 109.031 138.34 108.439 137.56 107.606C136.78 106.772 136.391 105.603 136.391 104.097C136.391 102.161 137.197 100.615 138.81 99.4593C140.423 98.2763 142.588 97.6849 145.303 97.6849C146.728 97.6849 148.153 97.8596 149.578 98.2091C151.003 98.5586 152.173 99.0291 153.087 99.6206L151.433 102.686C149.686 101.556 147.629 100.992 145.263 100.992C143.623 100.992 142.373 101.261 141.512 101.798C140.652 102.336 140.222 103.049 140.222 103.936C140.222 104.635 140.464 105.186 140.948 105.589C141.432 105.993 142.023 106.288 142.722 106.477C143.448 106.665 144.456 106.88 145.747 107.122C147.468 107.418 148.852 107.74 149.901 108.09C150.976 108.412 151.89 108.977 152.643 109.783C153.396 110.59 153.772 111.719 153.772 113.171C153.772 115.107 152.939 116.653 151.272 117.809C149.632 118.938 147.387 119.503 144.537 119.503ZM158.611 97.8865H162.482V119.261H158.611V97.8865ZM160.547 93.773C159.794 93.773 159.162 93.531 158.651 93.047C158.167 92.5631 157.925 91.9716 157.925 91.2726C157.925 90.5735 158.167 89.9821 158.651 89.4981C159.162 88.9873 159.794 88.7319 160.547 88.7319C161.299 88.7319 161.918 88.9738 162.402 89.4578C162.912 89.9148 163.168 90.4929 163.168 91.1919C163.168 91.9178 162.912 92.5362 162.402 93.047C161.918 93.531 161.299 93.773 160.547 93.773ZM179.19 119.503C177.013 119.503 175.063 119.032 173.343 118.091C171.649 117.15 170.318 115.86 169.35 114.22C168.382 112.553 167.898 110.671 167.898 108.574C167.898 106.477 168.382 104.608 169.35 102.968C170.318 101.301 171.649 100.01 173.343 99.0964C175.063 98.1554 177.013 97.6849 179.19 97.6849C181.126 97.6849 182.847 98.0747 184.352 98.8544C185.885 99.6341 187.068 100.763 187.901 102.242L184.957 104.137C184.285 103.116 183.452 102.35 182.457 101.839C181.462 101.328 180.36 101.072 179.15 101.072C177.752 101.072 176.488 101.382 175.359 102C174.257 102.618 173.383 103.506 172.738 104.662C172.119 105.791 171.81 107.095 171.81 108.574C171.81 110.079 172.119 111.41 172.738 112.566C173.383 113.695 174.257 114.569 175.359 115.188C176.488 115.806 177.752 116.115 179.15 116.115C180.36 116.115 181.462 115.86 182.457 115.349C183.452 114.838 184.285 114.072 184.957 113.05L187.901 114.905C187.068 116.384 185.885 117.527 184.352 118.333C182.847 119.113 181.126 119.503 179.19 119.503Z" fill="#1A1A1A"/>
<path d="M135.463 228.727C135.463 233.688 133.648 237.953 130.019 241.522C126.389 245.03 121.157 247.208 114.321 248.055V258.218H105.247V248.327C100.77 248.085 96.5057 247.299 92.4527 245.968C88.3996 244.637 85.133 243.004 82.6528 241.068L87.6435 229.998C89.9422 231.692 92.6341 233.113 95.7193 234.263C98.8044 235.412 101.98 236.138 105.247 236.44V221.287C100.952 220.258 97.3224 219.109 94.3582 217.839C91.394 216.568 88.9138 214.723 86.9175 212.304C84.9213 209.823 83.9231 206.557 83.9231 202.504C83.9231 197.483 85.7379 193.188 89.3675 189.619C93.0576 185.989 98.3507 183.781 105.247 182.995V172.923H114.321V182.813C121.762 183.418 127.902 185.263 132.741 188.348L128.204 199.509C123.667 196.908 119.039 195.335 114.321 194.791V210.217C118.555 211.184 122.125 212.304 125.028 213.574C127.992 214.784 130.473 216.629 132.469 219.109C134.465 221.529 135.463 224.735 135.463 228.727ZM98.5322 201.778C98.5322 203.29 99.1069 204.53 100.256 205.498C101.406 206.466 103.069 207.283 105.247 207.948V195.063C102.948 195.607 101.254 196.485 100.166 197.694C99.0767 198.844 98.5322 200.205 98.5322 201.778ZM114.321 236.077C116.499 235.593 118.132 234.807 119.221 233.718C120.31 232.629 120.854 231.329 120.854 229.816C120.854 228.304 120.28 227.064 119.13 226.096C118.041 225.128 116.438 224.281 114.321 223.555V236.077ZM188.972 235.351V247.329H140.971V237.801L165.47 214.663C168.072 212.183 169.826 210.065 170.733 208.311C171.641 206.496 172.094 204.712 172.094 202.957C172.094 200.417 171.217 198.481 169.463 197.15C167.769 195.759 165.259 195.063 161.932 195.063C159.149 195.063 156.638 195.607 154.4 196.696C152.162 197.725 150.287 199.298 148.774 201.415L138.067 194.519C140.547 190.828 143.965 187.955 148.321 185.898C152.676 183.781 157.667 182.722 163.293 182.722C168.011 182.722 172.125 183.509 175.633 185.082C179.202 186.594 181.955 188.772 183.891 191.615C185.887 194.398 186.885 197.694 186.885 201.506C186.885 204.954 186.159 208.19 184.707 211.215C183.255 214.239 180.443 217.687 176.269 221.559L161.659 235.351H188.972ZM217.359 182.722C226.252 182.722 233.209 185.445 238.23 190.889C243.251 196.273 245.761 204.046 245.761 214.209C245.761 221.408 244.4 227.578 241.678 232.72C239.016 237.862 235.235 241.764 230.335 244.425C225.435 247.087 219.779 248.418 213.367 248.418C209.979 248.418 206.743 248.055 203.658 247.329C200.573 246.543 197.941 245.454 195.763 244.062L201.208 233.264C204.293 235.382 208.255 236.44 213.095 236.44C218.479 236.44 222.743 234.868 225.889 231.722C229.035 228.516 230.728 223.918 230.97 217.929C227.159 221.74 221.896 223.646 215.182 223.646C211.129 223.646 207.439 222.829 204.111 221.196C200.784 219.563 198.153 217.264 196.217 214.3C194.281 211.275 193.313 207.797 193.313 203.865C193.313 199.63 194.372 195.91 196.489 192.704C198.607 189.498 201.48 187.048 205.11 185.354C208.8 183.6 212.883 182.722 217.359 182.722ZM218.448 212.667C221.654 212.667 224.256 211.789 226.252 210.035C228.309 208.22 229.337 205.922 229.337 203.139C229.337 200.356 228.339 198.088 226.343 196.333C224.407 194.579 221.715 193.702 218.267 193.702C215.121 193.702 212.55 194.549 210.554 196.243C208.618 197.936 207.65 200.235 207.65 203.139C207.65 206.043 208.618 208.372 210.554 210.126C212.55 211.82 215.182 212.667 218.448 212.667ZM275.135 182.722C284.028 182.722 290.984 185.445 296.005 190.889C301.026 196.273 303.537 204.046 303.537 214.209C303.537 221.408 302.176 227.578 299.453 232.72C296.792 237.862 293.011 241.764 288.111 244.425C283.211 247.087 277.555 248.418 271.143 248.418C267.755 248.418 264.519 248.055 261.433 247.329C258.348 246.543 255.717 245.454 253.539 244.062L258.983 233.264C262.069 235.382 266.031 236.44 270.87 236.44C276.254 236.44 280.519 234.868 283.665 231.722C286.81 228.516 288.504 223.918 288.746 217.929C284.935 221.74 279.672 223.646 272.957 223.646C268.904 223.646 265.214 222.829 261.887 221.196C258.56 219.563 255.929 217.264 253.993 214.3C252.057 211.275 251.089 207.797 251.089 203.865C251.089 199.63 252.148 195.91 254.265 192.704C256.382 189.498 259.256 187.048 262.885 185.354C266.575 183.6 270.659 182.722 275.135 182.722ZM276.224 212.667C279.43 212.667 282.031 211.789 284.028 210.035C286.084 208.22 287.113 205.922 287.113 203.139C287.113 200.356 286.115 198.088 284.118 196.333C282.183 194.579 279.491 193.702 276.043 193.702C272.897 193.702 270.326 194.549 268.33 196.243C266.394 197.936 265.426 200.235 265.426 203.139C265.426 206.043 266.394 208.372 268.33 210.126C270.326 211.82 272.957 212.667 276.224 212.667ZM314.536 226.106H318.04L309.722 249.85H306.218L314.536 226.106ZM335.068 247.329L335.043 236.743L329.851 245.464H328.011L322.844 236.97V247.329H319.013V229.685H322.39L328.994 240.65L335.497 229.685H338.849L338.9 247.329H335.068ZM349.261 247.531C347.833 247.531 346.547 247.237 345.405 246.649C344.279 246.044 343.397 245.212 342.758 244.153C342.12 243.095 341.8 241.893 341.8 240.549C341.8 239.205 342.12 238.003 342.758 236.944C343.397 235.886 344.279 235.062 345.405 234.474C346.547 233.869 347.833 233.567 349.261 233.567C350.689 233.567 351.966 233.869 353.092 234.474C354.218 235.062 355.1 235.886 355.739 236.944C356.377 238.003 356.697 239.205 356.697 240.549C356.697 241.893 356.377 243.095 355.739 244.153C355.1 245.212 354.218 246.044 353.092 246.649C351.966 247.237 350.689 247.531 349.261 247.531ZM349.261 244.304C350.269 244.304 351.093 243.968 351.731 243.296C352.387 242.607 352.714 241.691 352.714 240.549C352.714 239.406 352.387 238.499 351.731 237.827C351.093 237.138 350.269 236.793 349.261 236.793C348.253 236.793 347.421 237.138 346.766 237.827C346.11 238.499 345.783 239.406 345.783 240.549C345.783 241.691 346.11 242.607 346.766 243.296C347.421 243.968 348.253 244.304 349.261 244.304ZM367.567 233.567C369.248 233.567 370.6 234.071 371.625 235.079C372.667 236.087 373.188 237.583 373.188 239.566V247.329H369.256V240.171C369.256 239.095 369.021 238.297 368.55 237.776C368.08 237.239 367.399 236.97 366.509 236.97C365.517 236.97 364.727 237.281 364.139 237.902C363.551 238.507 363.257 239.415 363.257 240.624V247.329H359.325V233.769H363.081V235.356C363.601 234.785 364.248 234.348 365.021 234.046C365.794 233.727 366.643 233.567 367.567 233.567ZM385.499 246.674C385.112 246.959 384.633 247.178 384.062 247.329C383.507 247.464 382.919 247.531 382.297 247.531C380.684 247.531 379.432 247.119 378.542 246.296C377.668 245.472 377.231 244.262 377.231 242.666V237.096H375.139V234.071H377.231V230.769H381.163V234.071H384.541V237.096H381.163V242.616C381.163 243.187 381.306 243.632 381.592 243.952C381.894 244.254 382.314 244.405 382.852 244.405C383.474 244.405 384.003 244.237 384.44 243.901L385.499 246.674ZM395.948 233.567C397.628 233.567 398.981 234.071 400.006 235.079C401.048 236.087 401.569 237.583 401.569 239.566V247.329H397.637V240.171C397.637 239.095 397.401 238.297 396.931 237.776C396.46 237.239 395.78 236.97 394.889 236.97C393.898 236.97 393.108 237.281 392.52 237.902C391.932 238.507 391.638 239.415 391.638 240.624V247.329H387.706V228.627H391.638V235.18C392.159 234.659 392.789 234.264 393.528 233.995C394.268 233.71 395.074 233.567 395.948 233.567Z" fill="#1A1A1A"/>
<rect x="80" y="809" width="713" height="97" rx="16" fill="#130F26"/>
<path d="M336.726 862.832V866H324.03V863.48L330.51 857.36C331.198 856.704 331.662 856.144 331.902 855.68C332.142 855.2 332.262 854.728 332.262 854.264C332.262 853.592 332.03 853.08 331.566 852.728C331.118 852.36 330.454 852.176 329.574 852.176C328.838 852.176 328.174 852.32 327.582 852.608C326.99 852.88 326.494 853.296 326.094 853.856L323.262 852.032C323.918 851.056 324.822 850.296 325.974 849.752C327.126 849.192 328.446 848.912 329.934 848.912C331.182 848.912 332.27 849.12 333.198 849.536C334.142 849.936 334.87 850.512 335.382 851.264C335.91 852 336.174 852.872 336.174 853.88C336.174 854.792 335.982 855.648 335.598 856.448C335.214 857.248 334.47 858.16 333.366 859.184L329.502 862.832H336.726ZM351.703 866.288C350.375 866.288 349.087 866.112 347.839 865.76C346.607 865.392 345.615 864.92 344.863 864.344L346.183 861.416C346.903 861.944 347.759 862.368 348.751 862.688C349.743 863.008 350.735 863.168 351.727 863.168C352.831 863.168 353.647 863.008 354.175 862.688C354.703 862.352 354.967 861.912 354.967 861.368C354.967 860.968 354.807 860.64 354.487 860.384C354.183 860.112 353.783 859.896 353.287 859.736C352.807 859.576 352.151 859.4 351.319 859.208C350.039 858.904 348.991 858.6 348.175 858.296C347.359 857.992 346.655 857.504 346.063 856.832C345.487 856.16 345.199 855.264 345.199 854.144C345.199 853.168 345.463 852.288 345.991 851.504C346.519 850.704 347.311 850.072 348.367 849.608C349.439 849.144 350.743 848.912 352.279 848.912C353.351 848.912 354.399 849.04 355.423 849.296C356.447 849.552 357.343 849.92 358.111 850.4L356.911 853.352C355.359 852.472 353.807 852.032 352.255 852.032C351.167 852.032 350.359 852.208 349.831 852.56C349.319 852.912 349.063 853.376 349.063 853.952C349.063 854.528 349.359 854.96 349.951 855.248C350.559 855.52 351.479 855.792 352.711 856.064C353.991 856.368 355.039 856.672 355.855 856.976C356.671 857.28 357.367 857.76 357.943 858.416C358.535 859.072 358.831 859.96 358.831 861.08C358.831 862.04 358.559 862.92 358.015 863.72C357.487 864.504 356.687 865.128 355.615 865.592C354.543 866.056 353.239 866.288 351.703 866.288ZM361.224 848.192H364.968V866H361.224V848.192ZM374.587 866.192C373.227 866.192 372.003 865.912 370.915 865.352C369.843 864.776 369.003 863.984 368.395 862.976C367.787 861.968 367.483 860.824 367.483 859.544C367.483 858.264 367.787 857.12 368.395 856.112C369.003 855.104 369.843 854.32 370.915 853.76C372.003 853.184 373.227 852.896 374.587 852.896C375.947 852.896 377.163 853.184 378.235 853.76C379.307 854.32 380.147 855.104 380.755 856.112C381.363 857.12 381.667 858.264 381.667 859.544C381.667 860.824 381.363 861.968 380.755 862.976C380.147 863.984 379.307 864.776 378.235 865.352C377.163 865.912 375.947 866.192 374.587 866.192ZM374.587 863.12C375.547 863.12 376.331 862.8 376.939 862.16C377.563 861.504 377.875 860.632 377.875 859.544C377.875 858.456 377.563 857.592 376.939 856.952C376.331 856.296 375.547 855.968 374.587 855.968C373.627 855.968 372.835 856.296 372.211 856.952C371.587 857.592 371.275 858.456 371.275 859.544C371.275 860.632 371.587 861.504 372.211 862.16C372.835 862.8 373.627 863.12 374.587 863.12ZM392.497 865.376C392.129 865.648 391.673 865.856 391.129 866C390.601 866.128 390.041 866.192 389.449 866.192C387.913 866.192 386.721 865.8 385.873 865.016C385.041 864.232 384.625 863.08 384.625 861.56V856.256H382.633V853.376H384.625V850.232H388.369V853.376H391.585V856.256H388.369V861.512C388.369 862.056 388.505 862.48 388.777 862.784C389.065 863.072 389.465 863.216 389.977 863.216C390.569 863.216 391.073 863.056 391.489 862.736L392.497 865.376ZM398.943 866.192C397.871 866.192 396.823 866.064 395.799 865.808C394.775 865.536 393.959 865.2 393.351 864.8L394.599 862.112C395.175 862.48 395.871 862.784 396.687 863.024C397.503 863.248 398.303 863.36 399.087 863.36C400.671 863.36 401.463 862.968 401.463 862.184C401.463 861.816 401.247 861.552 400.815 861.392C400.383 861.232 399.719 861.096 398.823 860.984C397.767 860.824 396.895 860.64 396.207 860.432C395.519 860.224 394.919 859.856 394.407 859.328C393.911 858.8 393.663 858.048 393.663 857.072C393.663 856.256 393.895 855.536 394.359 854.912C394.839 854.272 395.527 853.776 396.423 853.424C397.335 853.072 398.407 852.896 399.639 852.896C400.551 852.896 401.455 853 402.351 853.208C403.263 853.4 404.015 853.672 404.607 854.024L403.359 856.688C402.223 856.048 400.983 855.728 399.639 855.728C398.839 855.728 398.239 855.84 397.839 856.064C397.439 856.288 397.239 856.576 397.239 856.928C397.239 857.328 397.455 857.608 397.887 857.768C398.319 857.928 399.007 858.08 399.951 858.224C401.007 858.4 401.871 858.592 402.543 858.8C403.215 858.992 403.799 859.352 404.295 859.88C404.791 860.408 405.039 861.144 405.039 862.088C405.039 862.888 404.799 863.6 404.319 864.224C403.839 864.848 403.135 865.336 402.207 865.688C401.295 866.024 400.207 866.192 398.943 866.192ZM425.114 866L421.874 861.32H421.682H418.298V866H414.41V849.2H421.682C423.17 849.2 424.458 849.448 425.546 849.944C426.65 850.44 427.498 851.144 428.09 852.056C428.682 852.968 428.978 854.048 428.978 855.296C428.978 856.544 428.674 857.624 428.066 858.536C427.474 859.432 426.626 860.12 425.522 860.6L429.29 866H425.114ZM425.042 855.296C425.042 854.352 424.738 853.632 424.13 853.136C423.522 852.624 422.634 852.368 421.466 852.368H418.298V858.224H421.466C422.634 858.224 423.522 857.968 424.13 857.456C424.738 856.944 425.042 856.224 425.042 855.296ZM444.442 859.592C444.442 859.64 444.418 859.976 444.37 860.6H434.602C434.778 861.4 435.194 862.032 435.85 862.496C436.506 862.96 437.322 863.192 438.298 863.192C438.97 863.192 439.562 863.096 440.074 862.904C440.602 862.696 441.09 862.376 441.538 861.944L443.53 864.104C442.314 865.496 440.538 866.192 438.202 866.192C436.746 866.192 435.458 865.912 434.338 865.352C433.218 864.776 432.354 863.984 431.746 862.976C431.138 861.968 430.834 860.824 430.834 859.544C430.834 858.28 431.13 857.144 431.722 856.136C432.33 855.112 433.154 854.32 434.194 853.76C435.25 853.184 436.426 852.896 437.722 852.896C438.986 852.896 440.13 853.168 441.154 853.712C442.178 854.256 442.978 855.04 443.554 856.064C444.146 857.072 444.442 858.248 444.442 859.592ZM437.746 855.728C436.898 855.728 436.186 855.968 435.61 856.448C435.034 856.928 434.682 857.584 434.554 858.416H440.914C440.786 857.6 440.434 856.952 439.858 856.472C439.282 855.976 438.578 855.728 437.746 855.728ZM463.471 852.896C465.087 852.896 466.367 853.376 467.311 854.336C468.271 855.28 468.751 856.704 468.751 858.608V866H465.007V859.184C465.007 858.16 464.791 857.4 464.359 856.904C463.943 856.392 463.343 856.136 462.559 856.136C461.679 856.136 460.983 856.424 460.471 857C459.959 857.56 459.703 858.4 459.703 859.52V866H455.959V859.184C455.959 857.152 455.143 856.136 453.511 856.136C452.647 856.136 451.959 856.424 451.447 857C450.935 857.56 450.679 858.4 450.679 859.52V866H446.935V853.088H450.511V854.576C450.991 854.032 451.575 853.616 452.263 853.328C452.967 853.04 453.735 852.896 454.567 852.896C455.479 852.896 456.303 853.08 457.039 853.448C457.775 853.8 458.367 854.32 458.815 855.008C459.343 854.336 460.007 853.816 460.807 853.448C461.623 853.08 462.511 852.896 463.471 852.896ZM477.315 852.896C479.315 852.896 480.851 853.376 481.923 854.336C482.995 855.28 483.531 856.712 483.531 858.632V866H480.027V864.392C479.323 865.592 478.011 866.192 476.091 866.192C475.099 866.192 474.235 866.024 473.499 865.688C472.779 865.352 472.227 864.888 471.843 864.296C471.459 863.704 471.267 863.032 471.267 862.28C471.267 861.08 471.715 860.136 472.611 859.448C473.523 858.76 474.923 858.416 476.811 858.416H479.787C479.787 857.6 479.539 856.976 479.043 856.544C478.547 856.096 477.803 855.872 476.811 855.872C476.123 855.872 475.443 855.984 474.771 856.208C474.115 856.416 473.555 856.704 473.091 857.072L471.747 854.456C472.451 853.96 473.291 853.576 474.267 853.304C475.259 853.032 476.275 852.896 477.315 852.896ZM477.027 863.672C477.667 863.672 478.235 863.528 478.731 863.24C479.227 862.936 479.579 862.496 479.787 861.92V860.6H477.219C475.683 860.6 474.915 861.104 474.915 862.112C474.915 862.592 475.099 862.976 475.467 863.264C475.851 863.536 476.371 863.672 477.027 863.672ZM486.919 853.088H490.663V866H486.919V853.088ZM488.791 851.288C488.103 851.288 487.543 851.088 487.111 850.688C486.679 850.288 486.463 849.792 486.463 849.2C486.463 848.608 486.679 848.112 487.111 847.712C487.543 847.312 488.103 847.112 488.791 847.112C489.479 847.112 490.039 847.304 490.471 847.688C490.903 848.072 491.119 848.552 491.119 849.128C491.119 849.752 490.903 850.272 490.471 850.688C490.039 851.088 489.479 851.288 488.791 851.288ZM501.986 852.896C503.586 852.896 504.874 853.376 505.85 854.336C506.842 855.296 507.338 856.72 507.338 858.608V866H503.594V859.184C503.594 858.16 503.37 857.4 502.922 856.904C502.474 856.392 501.826 856.136 500.978 856.136C500.034 856.136 499.282 856.432 498.722 857.024C498.162 857.6 497.882 858.464 497.882 859.616V866H494.138V853.088H497.714V854.6C498.21 854.056 498.826 853.64 499.562 853.352C500.298 853.048 501.106 852.896 501.986 852.896ZM510.732 853.088H514.476V866H510.732V853.088ZM512.604 851.288C511.916 851.288 511.356 851.088 510.924 850.688C510.492 850.288 510.276 849.792 510.276 849.2C510.276 848.608 510.492 848.112 510.924 847.712C511.356 847.312 511.916 847.112 512.604 847.112C513.292 847.112 513.852 847.304 514.284 847.688C514.716 848.072 514.932 848.552 514.932 849.128C514.932 849.752 514.716 850.272 514.284 850.688C513.852 851.088 513.292 851.288 512.604 851.288ZM525.799 852.896C527.399 852.896 528.687 853.376 529.663 854.336C530.655 855.296 531.151 856.72 531.151 858.608V866H527.407V859.184C527.407 858.16 527.183 857.4 526.735 856.904C526.287 856.392 525.639 856.136 524.791 856.136C523.847 856.136 523.095 856.432 522.535 857.024C521.975 857.6 521.695 858.464 521.695 859.616V866H517.951V853.088H521.527V854.6C522.023 854.056 522.639 853.64 523.375 853.352C524.111 853.048 524.919 852.896 525.799 852.896ZM548.005 853.088V863.84C548.005 866.208 547.389 867.968 546.157 869.12C544.925 870.272 543.125 870.848 540.757 870.848C539.509 870.848 538.325 870.696 537.205 870.392C536.085 870.088 535.157 869.648 534.421 869.072L535.909 866.384C536.453 866.832 537.141 867.184 537.973 867.44C538.805 867.712 539.637 867.848 540.469 867.848C541.765 867.848 542.717 867.552 543.325 866.96C543.949 866.384 544.261 865.504 544.261 864.32V863.768C543.285 864.84 541.925 865.376 540.181 865.376C538.997 865.376 537.909 865.12 536.917 864.608C535.941 864.08 535.165 863.344 534.589 862.4C534.013 861.456 533.725 860.368 533.725 859.136C533.725 857.904 534.013 856.816 534.589 855.872C535.165 854.928 535.941 854.2 536.917 853.688C537.909 853.16 538.997 852.896 540.181 852.896C542.053 852.896 543.477 853.512 544.453 854.744V853.088H548.005ZM540.925 862.304C541.917 862.304 542.725 862.016 543.349 861.44C543.989 860.848 544.309 860.08 544.309 859.136C544.309 858.192 543.989 857.432 543.349 856.856C542.725 856.264 541.917 855.968 540.925 855.968C539.933 855.968 539.117 856.264 538.477 856.856C537.837 857.432 537.517 858.192 537.517 859.136C537.517 860.08 537.837 860.848 538.477 861.44C539.117 862.016 539.933 862.304 540.925 862.304Z" fill="white"/>
<defs>
<linearGradient id="paint0_linear_248_411" x1="3.23715e-06" y1="18.1045" x2="892.269" y2="948.724" gradientUnits="userSpaceOnUse">
<stop stop-color="#FF8000"/>
<stop offset="0.2" stop-color="#FF4880"/>
<stop offset="0.369792" stop-color="#FF004F"/>
<stop offset="0.578125" stop-color="#7F30FF"/>
<stop offset="0.8" stop-color="#466FFF"/>
<stop offset="1" stop-color="#75D4FF"/>
</linearGradient>
</defs>
</svg>
