<svg width="890" height="986" viewBox="0 0 890 986" fill="none" xmlns="http://www.w3.org/2000/svg">
<rect width="890" height="986" rx="32" fill="white"/>
<rect x="0.65" y="0.65" width="888.7" height="984.7" rx="31.35" stroke="black" stroke-opacity="0.2" stroke-width="1.3" stroke-miterlimit="2.61313"/>
<path d="M85.8782 378.721C85.8782 390.308 95.2994 399.751 106.908 399.751C118.495 399.751 127.937 390.308 127.937 378.721C127.937 367.113 118.495 357.691 106.908 357.691C95.2994 357.691 85.8782 367.113 85.8782 378.721Z" fill="#130F26"/>
<rect x="99.0765" y="376.735" width="10.9133" height="3.63778" rx="1.81889" transform="rotate(45 99.0765 376.735)" fill="white"/>
<rect x="118.369" y="372.877" width="20.0078" height="3.63778" rx="1.81889" transform="rotate(135 118.369 372.877)" fill="white"/>
<path d="M175.674 385.368H172.078V390.005H167.094V385.368H155.202V381.93L165.612 367.924H170.974L161.322 381.204H167.252V377.072H172.078V381.204H175.674V385.368ZM197.082 367.924C199.038 367.924 200.731 368.25 202.161 368.902C203.612 369.554 204.727 370.479 205.505 371.678C206.283 372.876 206.672 374.296 206.672 375.936C206.672 377.555 206.283 378.975 205.505 380.195C204.727 381.393 203.612 382.319 202.161 382.97C200.731 383.601 199.038 383.917 197.082 383.917H192.634V390.005H187.524V367.924H197.082ZM196.798 379.753C198.334 379.753 199.501 379.427 200.3 378.775C201.099 378.102 201.498 377.156 201.498 375.936C201.498 374.695 201.099 373.749 200.3 373.097C199.501 372.424 198.334 372.088 196.798 372.088H192.634V379.753H196.798ZM218.018 390.257C216.23 390.257 214.621 389.889 213.191 389.153C211.782 388.396 210.678 387.355 209.879 386.03C209.08 384.705 208.68 383.202 208.68 381.519C208.68 379.837 209.08 378.333 209.879 377.009C210.678 375.684 211.782 374.653 213.191 373.917C214.621 373.16 216.23 372.782 218.018 372.782C219.805 372.782 221.403 373.16 222.812 373.917C224.221 374.653 225.325 375.684 226.125 377.009C226.924 378.333 227.323 379.837 227.323 381.519C227.323 383.202 226.924 384.705 226.125 386.03C225.325 387.355 224.221 388.396 222.812 389.153C221.403 389.889 219.805 390.257 218.018 390.257ZM218.018 386.22C219.279 386.22 220.31 385.799 221.109 384.958C221.929 384.096 222.339 382.949 222.339 381.519C222.339 380.089 221.929 378.954 221.109 378.113C220.31 377.25 219.279 376.819 218.018 376.819C216.756 376.819 215.715 377.25 214.895 378.113C214.075 378.954 213.665 380.089 213.665 381.519C213.665 382.949 214.075 384.096 214.895 384.958C215.715 385.799 216.756 386.22 218.018 386.22ZM236.322 390.257C234.913 390.257 233.536 390.089 232.19 389.753C230.844 389.395 229.771 388.953 228.972 388.428L230.612 384.895C231.37 385.378 232.284 385.778 233.357 386.093C234.429 386.388 235.481 386.535 236.511 386.535C238.593 386.535 239.634 386.02 239.634 384.989C239.634 384.506 239.35 384.159 238.782 383.948C238.215 383.738 237.342 383.559 236.164 383.412C234.776 383.202 233.63 382.96 232.726 382.687C231.822 382.413 231.033 381.93 230.36 381.236C229.708 380.542 229.382 379.553 229.382 378.27C229.382 377.198 229.687 376.252 230.297 375.431C230.928 374.59 231.832 373.938 233.01 373.476C234.209 373.013 235.618 372.782 237.237 372.782C238.435 372.782 239.624 372.918 240.801 373.192C242 373.444 242.988 373.802 243.766 374.264L242.126 377.766C240.633 376.924 239.003 376.504 237.237 376.504C236.185 376.504 235.397 376.651 234.871 376.945C234.345 377.24 234.082 377.618 234.082 378.081C234.082 378.607 234.366 378.975 234.934 379.185C235.502 379.395 236.406 379.595 237.647 379.784C239.035 380.016 240.17 380.268 241.054 380.542C241.937 380.794 242.704 381.267 243.356 381.961C244.008 382.655 244.334 383.622 244.334 384.863C244.334 385.915 244.019 386.85 243.388 387.671C242.757 388.491 241.832 389.132 240.612 389.595C239.413 390.036 237.983 390.257 236.322 390.257ZM258.316 389.185C257.833 389.542 257.233 389.816 256.518 390.005C255.824 390.173 255.088 390.257 254.31 390.257C252.291 390.257 250.725 389.742 249.61 388.712C248.517 387.681 247.97 386.167 247.97 384.169V377.198H245.352V373.413H247.97V369.28H252.891V373.413H257.118V377.198H252.891V384.106C252.891 384.821 253.069 385.378 253.427 385.778C253.805 386.156 254.331 386.346 255.004 386.346C255.782 386.346 256.445 386.135 256.991 385.715L258.316 389.185ZM266.788 390.257C265.379 390.257 264.002 390.089 262.656 389.753C261.31 389.395 260.238 388.953 259.438 388.428L261.079 384.895C261.836 385.378 262.751 385.778 263.823 386.093C264.896 386.388 265.947 386.535 266.978 386.535C269.059 386.535 270.1 386.02 270.1 384.989C270.1 384.506 269.817 384.159 269.249 383.948C268.681 383.738 267.808 383.559 266.631 383.412C265.243 383.202 264.096 382.96 263.192 382.687C262.288 382.413 261.499 381.93 260.826 381.236C260.174 380.542 259.848 379.553 259.848 378.27C259.848 377.198 260.153 376.252 260.763 375.431C261.394 374.59 262.298 373.938 263.476 373.476C264.675 373.013 266.084 372.782 267.703 372.782C268.902 372.782 270.09 372.918 271.268 373.192C272.466 373.444 273.455 373.802 274.233 374.264L272.592 377.766C271.099 376.924 269.47 376.504 267.703 376.504C266.652 376.504 265.863 376.651 265.337 376.945C264.811 377.24 264.549 377.618 264.549 378.081C264.549 378.607 264.832 378.975 265.4 379.185C265.968 379.395 266.872 379.595 268.113 379.784C269.501 380.016 270.637 380.268 271.52 380.542C272.403 380.794 273.171 381.267 273.823 381.961C274.475 382.655 274.801 383.622 274.801 384.863C274.801 385.915 274.485 386.85 273.854 387.671C273.223 388.491 272.298 389.132 271.078 389.595C269.88 390.036 268.45 390.257 266.788 390.257ZM295.771 373.129C297.391 373.129 298.842 373.486 300.125 374.201C301.407 374.916 302.406 375.915 303.121 377.198C303.857 378.481 304.225 379.963 304.225 381.646C304.225 383.328 303.857 384.821 303.121 386.125C302.406 387.408 301.407 388.407 300.125 389.122C298.842 389.837 297.391 390.194 295.771 390.194C294.573 390.194 293.469 389.963 292.459 389.5C291.471 389.038 290.63 388.365 289.936 387.481V396.124H286.907V373.286H289.809V375.936C290.482 375.011 291.334 374.317 292.365 373.854C293.395 373.37 294.531 373.129 295.771 373.129ZM295.519 387.544C296.592 387.544 297.548 387.303 298.39 386.819C299.252 386.314 299.925 385.62 300.408 384.737C300.913 383.833 301.165 382.802 301.165 381.646C301.165 380.489 300.913 379.469 300.408 378.586C299.925 377.682 299.252 376.988 298.39 376.504C297.548 376.02 296.592 375.778 295.519 375.778C294.468 375.778 293.511 376.031 292.648 376.535C291.807 377.019 291.134 377.703 290.63 378.586C290.146 379.469 289.904 380.489 289.904 381.646C289.904 382.802 290.146 383.833 290.63 384.737C291.113 385.62 291.786 386.314 292.648 386.819C293.511 387.303 294.468 387.544 295.519 387.544ZM323.519 381.74C323.519 381.972 323.498 382.277 323.456 382.655H309.892C310.081 384.127 310.723 385.315 311.816 386.22C312.931 387.103 314.308 387.544 315.948 387.544C317.946 387.544 319.555 386.871 320.775 385.526L322.447 387.481C321.69 388.365 320.743 389.038 319.608 389.5C318.493 389.963 317.242 390.194 315.854 390.194C314.087 390.194 312.521 389.837 311.154 389.122C309.787 388.386 308.725 387.366 307.968 386.062C307.232 384.758 306.864 383.286 306.864 381.646C306.864 380.026 307.221 378.565 307.936 377.261C308.672 375.957 309.671 374.948 310.933 374.233C312.216 373.497 313.656 373.129 315.254 373.129C316.853 373.129 318.272 373.497 319.513 374.233C320.775 374.948 321.753 375.957 322.447 377.261C323.162 378.565 323.519 380.058 323.519 381.74ZM315.254 375.684C313.803 375.684 312.584 376.125 311.595 377.009C310.628 377.892 310.06 379.048 309.892 380.478H320.617C320.449 379.069 319.87 377.923 318.882 377.04C317.915 376.136 316.706 375.684 315.254 375.684ZM330.626 376.094C331.152 375.126 331.93 374.39 332.961 373.886C333.991 373.381 335.242 373.129 336.714 373.129V376.062C336.546 376.041 336.315 376.031 336.02 376.031C334.38 376.031 333.087 376.525 332.14 377.513C331.215 378.481 330.752 379.869 330.752 381.677V390.005H327.724V373.286H330.626V376.094ZM374.432 373.286L368.187 390.005H365.284L360.458 377.324L355.569 390.005H352.667L346.452 373.286H349.323L354.181 386.598L359.228 373.286H361.783L366.735 386.661L371.719 373.286H374.432ZM392.153 381.74C392.153 381.972 392.132 382.277 392.09 382.655H378.526C378.715 384.127 379.356 385.315 380.45 386.22C381.564 387.103 382.942 387.544 384.582 387.544C386.58 387.544 388.189 386.871 389.408 385.526L391.08 387.481C390.323 388.365 389.377 389.038 388.241 389.5C387.127 389.963 385.876 390.194 384.488 390.194C382.721 390.194 381.154 389.837 379.787 389.122C378.421 388.386 377.359 387.366 376.601 386.062C375.865 384.758 375.497 383.286 375.497 381.646C375.497 380.026 375.855 378.565 376.57 377.261C377.306 375.957 378.305 374.948 379.567 374.233C380.849 373.497 382.29 373.129 383.888 373.129C385.486 373.129 386.906 373.497 388.147 374.233C389.408 374.948 390.386 375.957 391.08 377.261C391.795 378.565 392.153 380.058 392.153 381.74ZM383.888 375.684C382.437 375.684 381.217 376.125 380.229 377.009C379.262 377.892 378.694 379.048 378.526 380.478H389.251C389.083 379.069 388.504 377.923 387.516 377.04C386.548 376.136 385.339 375.684 383.888 375.684ZM411.468 381.74C411.468 381.972 411.447 382.277 411.405 382.655H397.84C398.03 384.127 398.671 385.315 399.765 386.22C400.879 387.103 402.257 387.544 403.897 387.544C405.895 387.544 407.504 386.871 408.723 385.526L410.395 387.481C409.638 388.365 408.692 389.038 407.556 389.5C406.442 389.963 405.19 390.194 403.802 390.194C402.036 390.194 400.469 389.837 399.102 389.122C397.735 388.386 396.673 387.366 395.916 386.062C395.18 384.758 394.812 383.286 394.812 381.646C394.812 380.026 395.17 378.565 395.885 377.261C396.621 375.957 397.62 374.948 398.881 374.233C400.164 373.497 401.605 373.129 403.203 373.129C404.801 373.129 406.221 373.497 407.462 374.233C408.723 374.948 409.701 375.957 410.395 377.261C411.11 378.565 411.468 380.058 411.468 381.74ZM403.203 375.684C401.752 375.684 400.532 376.125 399.544 377.009C398.576 377.892 398.009 379.048 397.84 380.478H408.566C408.397 379.069 407.819 377.923 406.831 377.04C405.863 376.136 404.654 375.684 403.203 375.684ZM422.171 382.213L418.701 385.431V390.005H415.673V366.599H418.701V381.614L427.817 373.286H431.476L424.442 380.195L432.17 390.005H428.448L422.171 382.213Z" fill="#1A1A1A"/>
<path d="M85.8782 460.737C85.8782 472.324 95.2994 481.766 106.908 481.766C118.495 481.766 127.937 472.324 127.937 460.737C127.937 449.128 118.495 439.707 106.908 439.707C95.2994 439.707 85.8782 449.128 85.8782 460.737Z" fill="#130F26"/>
<rect x="99.0765" y="458.751" width="10.9133" height="3.63778" rx="1.81889" transform="rotate(45 99.0765 458.751)" fill="white"/>
<rect x="118.369" y="454.893" width="20.0078" height="3.63778" rx="1.81889" transform="rotate(135 118.369 454.893)" fill="white"/>
<path d="M165.769 458.93C167.704 459.245 169.187 459.971 170.217 461.106C171.248 462.221 171.763 463.609 171.763 465.27C171.763 466.553 171.426 467.741 170.754 468.835C170.081 469.907 169.05 470.769 167.662 471.421C166.295 472.073 164.613 472.399 162.615 472.399C161.059 472.399 159.524 472.199 158.01 471.8C156.516 471.379 155.244 470.79 154.193 470.033L156.18 466.122C157.021 466.753 157.989 467.247 159.082 467.604C160.197 467.941 161.332 468.109 162.489 468.109C163.772 468.109 164.781 467.867 165.517 467.383C166.253 466.879 166.621 466.174 166.621 465.27C166.621 463.461 165.244 462.557 162.489 462.557H160.155V459.182L164.697 454.04H155.297V449.939H170.754V453.252L165.769 458.93ZM198.513 472.021L194.254 465.869H194.002H189.554V472.021H184.444V449.939H194.002C195.957 449.939 197.65 450.265 199.08 450.917C200.531 451.569 201.646 452.495 202.424 453.693C203.202 454.892 203.591 456.311 203.591 457.952C203.591 459.592 203.192 461.012 202.393 462.21C201.614 463.388 200.5 464.292 199.049 464.923L204.001 472.021H198.513ZM198.418 457.952C198.418 456.711 198.018 455.765 197.219 455.113C196.42 454.44 195.253 454.103 193.718 454.103H189.554V461.8H193.718C195.253 461.8 196.42 461.464 197.219 460.791C198.018 460.118 198.418 459.171 198.418 457.952ZM223.917 463.598C223.917 463.661 223.885 464.103 223.822 464.923H210.984C211.215 465.974 211.762 466.805 212.624 467.415C213.486 468.025 214.559 468.33 215.842 468.33C216.725 468.33 217.503 468.204 218.176 467.951C218.87 467.678 219.511 467.257 220.1 466.69L222.718 469.528C221.12 471.358 218.786 472.273 215.715 472.273C213.802 472.273 212.109 471.905 210.637 471.169C209.165 470.412 208.029 469.371 207.23 468.046C206.431 466.721 206.031 465.217 206.031 463.535C206.031 461.874 206.42 460.381 207.198 459.056C207.998 457.71 209.081 456.669 210.447 455.933C211.835 455.176 213.381 454.797 215.084 454.797C216.746 454.797 218.249 455.155 219.595 455.87C220.941 456.585 221.993 457.615 222.75 458.961C223.528 460.286 223.917 461.832 223.917 463.598ZM215.116 458.52C214.001 458.52 213.066 458.835 212.309 459.466C211.552 460.097 211.089 460.959 210.921 462.052H219.28C219.112 460.98 218.649 460.128 217.892 459.497C217.135 458.845 216.21 458.52 215.116 458.52ZM243.817 463.598C243.817 463.661 243.785 464.103 243.722 464.923H230.884C231.115 465.974 231.662 466.805 232.524 467.415C233.386 468.025 234.459 468.33 235.742 468.33C236.625 468.33 237.403 468.204 238.076 467.951C238.77 467.678 239.411 467.257 240 466.69L242.618 469.528C241.02 471.358 238.686 472.273 235.615 472.273C233.702 472.273 232.009 471.905 230.537 471.169C229.065 470.412 227.929 469.371 227.13 468.046C226.331 466.721 225.931 465.217 225.931 463.535C225.931 461.874 226.32 460.381 227.098 459.056C227.898 457.71 228.981 456.669 230.348 455.933C231.736 455.176 233.281 454.797 234.985 454.797C236.646 454.797 238.15 455.155 239.495 455.87C240.841 456.585 241.893 457.615 242.65 458.961C243.428 460.286 243.817 461.832 243.817 463.598ZM235.016 458.52C233.902 458.52 232.966 458.835 232.209 459.466C231.452 460.097 230.989 460.959 230.821 462.052H239.18C239.012 460.98 238.549 460.128 237.792 459.497C237.035 458.845 236.11 458.52 235.016 458.52ZM247.093 448.615H252.014V472.021H247.093V448.615ZM262.291 472.273C260.882 472.273 259.504 472.105 258.158 471.768C256.812 471.411 255.74 470.969 254.941 470.443L256.581 466.91C257.338 467.394 258.253 467.794 259.326 468.109C260.398 468.403 261.45 468.551 262.48 468.551C264.562 468.551 265.603 468.035 265.603 467.005C265.603 466.521 265.319 466.174 264.751 465.964C264.183 465.754 263.311 465.575 262.133 465.428C260.745 465.217 259.599 464.976 258.695 464.702C257.79 464.429 257.002 463.945 256.329 463.251C255.677 462.557 255.351 461.569 255.351 460.286C255.351 459.213 255.656 458.267 256.266 457.447C256.897 456.606 257.801 455.954 258.979 455.491C260.177 455.029 261.586 454.797 263.205 454.797C264.404 454.797 265.592 454.934 266.77 455.207C267.969 455.46 268.957 455.817 269.735 456.28L268.095 459.781C266.602 458.94 264.972 458.52 263.205 458.52C262.154 458.52 261.365 458.667 260.84 458.961C260.314 459.256 260.051 459.634 260.051 460.097C260.051 460.622 260.335 460.99 260.903 461.201C261.471 461.411 262.375 461.611 263.616 461.8C265.004 462.031 266.139 462.284 267.022 462.557C267.906 462.81 268.673 463.283 269.325 463.977C269.977 464.671 270.303 465.638 270.303 466.879C270.303 467.93 269.988 468.866 269.357 469.686C268.726 470.506 267.8 471.148 266.581 471.61C265.382 472.052 263.952 472.273 262.291 472.273ZM291.274 455.144C292.893 455.144 294.344 455.502 295.627 456.217C296.91 456.932 297.909 457.931 298.624 459.213C299.36 460.496 299.728 461.979 299.728 463.661C299.728 465.344 299.36 466.837 298.624 468.141C297.909 469.423 296.91 470.422 295.627 471.137C294.344 471.852 292.893 472.21 291.274 472.21C290.075 472.21 288.971 471.978 287.962 471.516C286.973 471.053 286.132 470.38 285.438 469.497V478.14H282.41V455.302H285.312V457.952C285.985 457.026 286.837 456.332 287.867 455.87C288.898 455.386 290.033 455.144 291.274 455.144ZM291.021 469.56C292.094 469.56 293.051 469.318 293.892 468.835C294.754 468.33 295.427 467.636 295.911 466.753C296.416 465.848 296.668 464.818 296.668 463.661C296.668 462.505 296.416 461.485 295.911 460.601C295.427 459.697 294.754 459.003 293.892 458.52C293.051 458.036 292.094 457.794 291.021 457.794C289.97 457.794 289.013 458.046 288.151 458.551C287.31 459.035 286.637 459.718 286.132 460.601C285.648 461.485 285.407 462.505 285.407 463.661C285.407 464.818 285.648 465.848 286.132 466.753C286.616 467.636 287.289 468.33 288.151 468.835C289.013 469.318 289.97 469.56 291.021 469.56ZM319.022 463.756C319.022 463.987 319.001 464.292 318.958 464.671H305.394C305.584 466.143 306.225 467.331 307.319 468.235C308.433 469.118 309.811 469.56 311.451 469.56C313.449 469.56 315.058 468.887 316.277 467.541L317.949 469.497C317.192 470.38 316.246 471.053 315.11 471.516C313.996 471.978 312.744 472.21 311.356 472.21C309.59 472.21 308.023 471.852 306.656 471.137C305.289 470.401 304.227 469.381 303.47 468.077C302.734 466.774 302.366 465.302 302.366 463.661C302.366 462.042 302.724 460.58 303.439 459.277C304.175 457.973 305.174 456.963 306.435 456.248C307.718 455.512 309.159 455.144 310.757 455.144C312.355 455.144 313.775 455.512 315.015 456.248C316.277 456.963 317.255 457.973 317.949 459.277C318.664 460.58 319.022 462.074 319.022 463.756ZM310.757 457.699C309.306 457.699 308.086 458.141 307.098 459.024C306.13 459.907 305.563 461.064 305.394 462.494H316.12C315.951 461.085 315.373 459.939 314.385 459.056C313.417 458.151 312.208 457.699 310.757 457.699ZM326.129 458.109C326.654 457.142 327.433 456.406 328.463 455.901C329.493 455.397 330.745 455.144 332.217 455.144V458.078C332.049 458.057 331.817 458.046 331.523 458.046C329.882 458.046 328.589 458.541 327.643 459.529C326.718 460.496 326.255 461.884 326.255 463.693V472.021H323.227V455.302H326.129V458.109ZM369.935 455.302L363.689 472.021H360.787L355.961 459.34L351.071 472.021H348.169L341.955 455.302H344.825L349.683 468.614L354.73 455.302H357.285L362.238 468.677L367.222 455.302H369.935ZM387.655 463.756C387.655 463.987 387.634 464.292 387.592 464.671H374.028C374.217 466.143 374.859 467.331 375.952 468.235C377.067 469.118 378.444 469.56 380.085 469.56C382.082 469.56 383.691 468.887 384.911 467.541L386.583 469.497C385.826 470.38 384.879 471.053 383.744 471.516C382.629 471.978 381.378 472.21 379.99 472.21C378.224 472.21 376.657 471.852 375.29 471.137C373.923 470.401 372.861 469.381 372.104 468.077C371.368 466.774 371 465.302 371 463.661C371 462.042 371.357 460.58 372.072 459.277C372.808 457.973 373.807 456.963 375.069 456.248C376.352 455.512 377.792 455.144 379.391 455.144C380.989 455.144 382.408 455.512 383.649 456.248C384.911 456.963 385.889 457.973 386.583 459.277C387.298 460.58 387.655 462.074 387.655 463.756ZM379.391 457.699C377.94 457.699 376.72 458.141 375.732 459.024C374.764 459.907 374.196 461.064 374.028 462.494H384.753C384.585 461.085 384.007 459.939 383.018 459.056C382.051 458.151 380.842 457.699 379.391 457.699ZM406.97 463.756C406.97 463.987 406.949 464.292 406.907 464.671H393.343C393.532 466.143 394.174 467.331 395.267 468.235C396.382 469.118 397.759 469.56 399.399 469.56C401.397 469.56 403.006 468.887 404.226 467.541L405.898 469.497C405.141 470.38 404.194 471.053 403.059 471.516C401.944 471.978 400.693 472.21 399.305 472.21C397.538 472.21 395.972 471.852 394.605 471.137C393.238 470.401 392.176 469.381 391.419 468.077C390.683 466.774 390.315 465.302 390.315 463.661C390.315 462.042 390.672 460.58 391.387 459.277C392.123 457.973 393.122 456.963 394.384 456.248C395.667 455.512 397.107 455.144 398.705 455.144C400.304 455.144 401.723 455.512 402.964 456.248C404.226 456.963 405.204 457.973 405.898 459.277C406.613 460.58 406.97 462.074 406.97 463.756ZM398.705 457.699C397.254 457.699 396.035 458.141 395.046 459.024C394.079 459.907 393.511 461.064 393.343 462.494H404.068C403.9 461.085 403.321 459.939 402.333 459.056C401.366 458.151 400.157 457.699 398.705 457.699ZM417.673 464.229L414.203 467.447V472.021H411.175V448.615H414.203V463.63L423.32 455.302H426.979L419.944 462.21L427.673 472.021H423.951L417.673 464.229Z" fill="#1A1A1A"/>
<path d="M85.8782 624.767C85.8782 636.354 95.2994 645.797 106.908 645.797C118.495 645.797 127.937 636.354 127.937 624.767C127.937 613.159 118.495 603.737 106.908 603.737C95.2994 603.737 85.8782 613.159 85.8782 624.767Z" fill="#130F26"/>
<rect x="99.0765" y="622.781" width="10.9133" height="3.63778" rx="1.81889" transform="rotate(45 99.0765 622.781)" fill="white"/>
<rect x="118.369" y="618.923" width="20.0078" height="3.63778" rx="1.81889" transform="rotate(135 118.369 618.923)" fill="white"/>
<path d="M171.605 630.531H159.871L157.442 636.051H154.193L164.192 613.97H167.315L177.346 636.051H174.034L171.605 630.531ZM170.501 628.007L165.738 617.187L160.975 628.007H170.501ZM187.331 636.24C185.628 636.24 184.103 635.872 182.757 635.136C181.433 634.4 180.392 633.391 179.634 632.108C178.877 630.804 178.499 629.332 178.499 627.692C178.499 626.051 178.877 624.59 179.634 623.307C180.392 622.003 181.433 620.994 182.757 620.279C184.103 619.543 185.628 619.175 187.331 619.175C188.845 619.175 190.191 619.479 191.369 620.089C192.568 620.699 193.493 621.582 194.145 622.739L191.842 624.222C191.316 623.423 190.665 622.823 189.886 622.424C189.108 622.024 188.246 621.824 187.3 621.824C186.206 621.824 185.218 622.066 184.335 622.55C183.472 623.033 182.789 623.727 182.284 624.632C181.801 625.515 181.559 626.535 181.559 627.692C181.559 628.869 181.801 629.91 182.284 630.814C182.789 631.698 183.472 632.381 184.335 632.865C185.218 633.348 186.206 633.59 187.3 633.59C188.246 633.59 189.108 633.391 189.886 632.991C190.665 632.591 191.316 631.992 191.842 631.193L194.145 632.644C193.493 633.801 192.568 634.694 191.369 635.325C190.191 635.935 188.845 636.24 187.331 636.24ZM205.106 636.24C203.402 636.24 201.878 635.872 200.532 635.136C199.207 634.4 198.166 633.391 197.409 632.108C196.652 630.804 196.273 629.332 196.273 627.692C196.273 626.051 196.652 624.59 197.409 623.307C198.166 622.003 199.207 620.994 200.532 620.279C201.878 619.543 203.402 619.175 205.106 619.175C206.62 619.175 207.966 619.479 209.144 620.089C210.342 620.699 211.268 621.582 211.919 622.739L209.617 624.222C209.091 623.423 208.439 622.823 207.661 622.424C206.883 622.024 206.021 621.824 205.074 621.824C203.981 621.824 202.992 622.066 202.109 622.55C201.247 623.033 200.563 623.727 200.059 624.632C199.575 625.515 199.333 626.535 199.333 627.692C199.333 628.869 199.575 629.91 200.059 630.814C200.563 631.698 201.247 632.381 202.109 632.865C202.992 633.348 203.981 633.59 205.074 633.59C206.021 633.59 206.883 633.391 207.661 632.991C208.439 632.591 209.091 631.992 209.617 631.193L211.919 632.644C211.268 633.801 210.342 634.694 209.144 635.325C207.966 635.935 206.62 636.24 205.106 636.24ZM222.754 636.24C221.093 636.24 219.6 635.872 218.275 635.136C216.95 634.4 215.909 633.391 215.152 632.108C214.416 630.804 214.048 629.332 214.048 627.692C214.048 626.051 214.416 624.59 215.152 623.307C215.909 622.003 216.95 620.994 218.275 620.279C219.6 619.543 221.093 619.175 222.754 619.175C224.416 619.175 225.898 619.543 227.202 620.279C228.527 620.994 229.557 622.003 230.293 623.307C231.05 624.59 231.429 626.051 231.429 627.692C231.429 629.332 231.05 630.804 230.293 632.108C229.557 633.391 228.527 634.4 227.202 635.136C225.898 635.872 224.416 636.24 222.754 636.24ZM222.754 633.59C223.827 633.59 224.784 633.348 225.625 632.865C226.487 632.36 227.16 631.666 227.644 630.783C228.127 629.879 228.369 628.848 228.369 627.692C228.369 626.535 228.127 625.515 227.644 624.632C227.16 623.727 226.487 623.033 225.625 622.55C224.784 622.066 223.827 621.824 222.754 621.824C221.682 621.824 220.714 622.066 219.852 622.55C219.011 623.033 218.338 623.727 217.833 624.632C217.35 625.515 217.108 626.535 217.108 627.692C217.108 628.848 217.35 629.879 217.833 630.783C218.338 631.666 219.011 632.36 219.852 632.865C220.714 633.348 221.682 633.59 222.754 633.59ZM251.2 619.332V636.051H248.329V633.527C247.719 634.389 246.91 635.062 245.9 635.546C244.912 636.009 243.829 636.24 242.651 636.24C240.422 636.24 238.666 635.63 237.383 634.41C236.101 633.17 235.459 631.351 235.459 628.953V619.332H238.487V628.606C238.487 630.226 238.877 631.456 239.655 632.297C240.433 633.117 241.547 633.527 242.998 633.527C244.597 633.527 245.858 633.044 246.784 632.076C247.709 631.109 248.172 629.742 248.172 627.975V619.332H251.2ZM265.892 619.175C268.016 619.175 269.698 619.795 270.939 621.036C272.201 622.255 272.832 624.053 272.832 626.43V636.051H269.803V626.777C269.803 625.157 269.414 623.938 268.636 623.118C267.858 622.297 266.744 621.887 265.293 621.887C263.652 621.887 262.359 622.371 261.413 623.338C260.466 624.285 259.993 625.652 259.993 627.439V636.051H256.965V619.332H259.867V621.856C260.477 620.994 261.297 620.331 262.327 619.869C263.379 619.406 264.567 619.175 265.892 619.175ZM287.836 635.073C287.395 635.451 286.848 635.746 286.196 635.956C285.544 636.145 284.871 636.24 284.177 636.24C282.495 636.24 281.191 635.788 280.266 634.884C279.34 633.979 278.878 632.686 278.878 631.004V621.824H276.039V619.332H278.878V615.673H281.906V619.332H286.701V621.824H281.906V630.877C281.906 631.782 282.127 632.476 282.568 632.959C283.031 633.443 283.683 633.685 284.524 633.685C285.449 633.685 286.238 633.422 286.89 632.896L287.836 635.073ZM320.883 619.175C322.986 619.175 324.647 619.784 325.867 621.004C327.107 622.224 327.728 624.032 327.728 626.43V636.051H324.7V626.777C324.7 625.157 324.321 623.938 323.564 623.118C322.828 622.297 321.766 621.887 320.378 621.887C318.843 621.887 317.623 622.371 316.719 623.338C315.815 624.285 315.362 625.652 315.362 627.439V636.051H312.334V626.777C312.334 625.157 311.956 623.938 311.199 623.118C310.463 622.297 309.401 621.887 308.013 621.887C306.477 621.887 305.258 622.371 304.353 623.338C303.449 624.285 302.997 625.652 302.997 627.439V636.051H299.969V619.332H302.871V621.824C303.481 620.962 304.28 620.31 305.268 619.869C306.257 619.406 307.382 619.175 308.643 619.175C309.947 619.175 311.104 619.437 312.113 619.963C313.123 620.489 313.901 621.256 314.448 622.266C315.079 621.299 315.951 620.541 317.066 619.995C318.201 619.448 319.474 619.175 320.883 619.175ZM339.388 619.175C341.701 619.175 343.468 619.742 344.687 620.878C345.928 622.014 346.549 623.706 346.549 625.957V636.051H343.678V633.843C343.173 634.621 342.448 635.22 341.501 635.641C340.576 636.04 339.472 636.24 338.189 636.24C336.318 636.24 334.814 635.788 333.678 634.884C332.564 633.979 332.007 632.791 332.007 631.319C332.007 629.847 332.543 628.669 333.615 627.786C334.688 626.882 336.391 626.43 338.726 626.43H343.52V625.83C343.52 624.527 343.142 623.528 342.385 622.834C341.628 622.14 340.513 621.793 339.041 621.793C338.053 621.793 337.085 621.961 336.139 622.297C335.193 622.613 334.393 623.044 333.741 623.591L332.48 621.32C333.342 620.626 334.372 620.1 335.571 619.742C336.77 619.364 338.042 619.175 339.388 619.175ZM338.694 633.906C339.851 633.906 340.849 633.653 341.691 633.149C342.532 632.623 343.142 631.887 343.52 630.941V628.606H338.852C336.286 628.606 335.003 629.469 335.003 631.193C335.003 632.034 335.329 632.697 335.981 633.18C336.633 633.664 337.537 633.906 338.694 633.906ZM361.08 619.175C363.204 619.175 364.886 619.795 366.127 621.036C367.389 622.255 368.019 624.053 368.019 626.43V636.051H364.991V626.777C364.991 625.157 364.602 623.938 363.824 623.118C363.046 622.297 361.931 621.887 360.48 621.887C358.84 621.887 357.547 622.371 356.6 623.338C355.654 624.285 355.181 625.652 355.181 627.439V636.051H352.153V619.332H355.055V621.856C355.665 620.994 356.485 620.331 357.515 619.869C358.567 619.406 359.755 619.175 361.08 619.175ZM379.712 619.175C382.025 619.175 383.792 619.742 385.011 620.878C386.252 622.014 386.872 623.706 386.872 625.957V636.051H384.002V633.843C383.497 634.621 382.772 635.22 381.825 635.641C380.9 636.04 379.796 636.24 378.513 636.24C376.641 636.24 375.138 635.788 374.002 634.884C372.888 633.979 372.33 632.791 372.33 631.319C372.33 629.847 372.867 628.669 373.939 627.786C375.012 626.882 376.715 626.43 379.049 626.43H383.844V625.83C383.844 624.527 383.466 623.528 382.709 622.834C381.951 622.14 380.837 621.793 379.365 621.793C378.376 621.793 377.409 621.961 376.463 622.297C375.516 622.613 374.717 623.044 374.065 623.591L372.804 621.32C373.666 620.626 374.696 620.1 375.895 619.742C377.094 619.364 378.366 619.175 379.712 619.175ZM379.018 633.906C380.174 633.906 381.173 633.653 382.015 633.149C382.856 632.623 383.466 631.887 383.844 630.941V628.606H379.176C376.61 628.606 375.327 629.469 375.327 631.193C375.327 632.034 375.653 632.697 376.305 633.18C376.957 633.664 377.861 633.906 379.018 633.906ZM408.562 619.332V633.78C408.562 636.703 407.836 638.858 406.385 640.246C404.934 641.655 402.768 642.36 399.887 642.36C398.31 642.36 396.806 642.139 395.376 641.697C393.946 641.277 392.79 640.667 391.906 639.868L393.357 637.533C394.136 638.206 395.092 638.732 396.228 639.111C397.385 639.51 398.573 639.71 399.793 639.71C401.748 639.71 403.189 639.247 404.114 638.322C405.06 637.397 405.534 635.988 405.534 634.095V632.77C404.819 633.632 403.935 634.284 402.884 634.726C401.853 635.147 400.728 635.357 399.509 635.357C397.91 635.357 396.459 635.02 395.156 634.347C393.873 633.653 392.863 632.697 392.127 631.477C391.391 630.236 391.023 628.827 391.023 627.25C391.023 625.673 391.391 624.274 392.127 623.054C392.863 621.814 393.873 620.857 395.156 620.184C396.459 619.511 397.91 619.175 399.509 619.175C400.77 619.175 401.938 619.406 403.01 619.869C404.104 620.331 404.997 621.015 405.691 621.919V619.332H408.562ZM399.856 632.707C400.949 632.707 401.927 632.476 402.789 632.013C403.672 631.55 404.356 630.909 404.84 630.089C405.344 629.248 405.597 628.301 405.597 627.25C405.597 625.631 405.06 624.327 403.988 623.338C402.915 622.329 401.538 621.824 399.856 621.824C398.152 621.824 396.764 622.329 395.692 623.338C394.619 624.327 394.083 625.631 394.083 627.25C394.083 628.301 394.325 629.248 394.809 630.089C395.313 630.909 395.997 631.55 396.859 632.013C397.742 632.476 398.741 632.707 399.856 632.707ZM429.458 627.786C429.458 628.017 429.437 628.322 429.395 628.701H415.831C416.02 630.173 416.661 631.361 417.755 632.265C418.869 633.149 420.247 633.59 421.887 633.59C423.885 633.59 425.494 632.917 426.713 631.571L428.385 633.527C427.628 634.41 426.682 635.083 425.546 635.546C424.432 636.009 423.18 636.24 421.793 636.24C420.026 636.24 418.459 635.883 417.092 635.168C415.725 634.432 414.663 633.412 413.906 632.108C413.17 630.804 412.802 629.332 412.802 627.692C412.802 626.072 413.16 624.611 413.875 623.307C414.611 622.003 415.61 620.994 416.872 620.279C418.154 619.543 419.595 619.175 421.193 619.175C422.791 619.175 424.211 619.543 425.452 620.279C426.713 620.994 427.691 622.003 428.385 623.307C429.1 624.611 429.458 626.104 429.458 627.786ZM421.193 621.73C419.742 621.73 418.522 622.171 417.534 623.054C416.567 623.938 415.999 625.094 415.831 626.524H426.556C426.387 625.115 425.809 623.969 424.821 623.086C423.853 622.182 422.644 621.73 421.193 621.73ZM454.577 619.175C456.68 619.175 458.341 619.784 459.561 621.004C460.802 622.224 461.422 624.032 461.422 626.43V636.051H458.394V626.777C458.394 625.157 458.015 623.938 457.258 623.118C456.522 622.297 455.46 621.887 454.072 621.887C452.537 621.887 451.317 622.371 450.413 623.338C449.509 624.285 449.057 625.652 449.057 627.439V636.051H446.028V626.777C446.028 625.157 445.65 623.938 444.893 623.118C444.157 622.297 443.095 621.887 441.707 621.887C440.172 621.887 438.952 622.371 438.048 623.338C437.143 624.285 436.691 625.652 436.691 627.439V636.051H433.663V619.332H436.565V621.824C437.175 620.962 437.974 620.31 438.962 619.869C439.951 619.406 441.076 619.175 442.338 619.175C443.641 619.175 444.798 619.437 445.807 619.963C446.817 620.489 447.595 621.256 448.142 622.266C448.773 621.299 449.645 620.541 450.76 619.995C451.896 619.448 453.168 619.175 454.577 619.175ZM482.196 627.786C482.196 628.017 482.175 628.322 482.133 628.701H468.569C468.758 630.173 469.4 631.361 470.493 632.265C471.608 633.149 472.985 633.59 474.625 633.59C476.623 633.59 478.232 632.917 479.452 631.571L481.124 633.527C480.367 634.41 479.42 635.083 478.285 635.546C477.17 636.009 475.919 636.24 474.531 636.24C472.764 636.24 471.198 635.883 469.831 635.168C468.464 634.432 467.402 633.412 466.645 632.108C465.909 630.804 465.541 629.332 465.541 627.692C465.541 626.072 465.898 624.611 466.613 623.307C467.349 622.003 468.348 620.994 469.61 620.279C470.893 619.543 472.333 619.175 473.931 619.175C475.53 619.175 476.949 619.543 478.19 620.279C479.452 620.994 480.43 622.003 481.124 623.307C481.839 624.611 482.196 626.104 482.196 627.786ZM473.931 621.73C472.48 621.73 471.261 622.171 470.272 623.054C469.305 623.938 468.737 625.094 468.569 626.524H479.294C479.126 625.115 478.547 623.969 477.559 623.086C476.592 622.182 475.383 621.73 473.931 621.73ZM495.328 619.175C497.452 619.175 499.135 619.795 500.375 621.036C501.637 622.255 502.268 624.053 502.268 626.43V636.051H499.24V626.777C499.24 625.157 498.851 623.938 498.073 623.118C497.294 622.297 496.18 621.887 494.729 621.887C493.089 621.887 491.795 622.371 490.849 623.338C489.903 624.285 489.429 625.652 489.429 627.439V636.051H486.401V619.332H489.303V621.856C489.913 620.994 490.733 620.331 491.764 619.869C492.815 619.406 494.003 619.175 495.328 619.175ZM517.273 635.073C516.831 635.451 516.284 635.746 515.632 635.956C514.98 636.145 514.307 636.24 513.613 636.24C511.931 636.24 510.627 635.788 509.702 634.884C508.777 633.979 508.314 632.686 508.314 631.004V621.824H505.475V619.332H508.314V615.673H511.342V619.332H516.137V621.824H511.342V630.877C511.342 631.782 511.563 632.476 512.005 632.959C512.467 633.443 513.119 633.685 513.96 633.685C514.886 633.685 515.674 633.422 516.326 632.896L517.273 635.073Z" fill="#1A1A1A"/>
<path d="M85.8782 542.752C85.8782 554.34 95.2994 563.782 106.908 563.782C118.495 563.782 127.937 554.34 127.937 542.752C127.937 531.144 118.495 521.723 106.908 521.723C95.2994 521.723 85.8782 531.144 85.8782 542.752Z" fill="#130F26"/>
<rect x="99.0765" y="540.767" width="10.9133" height="3.63778" rx="1.81889" transform="rotate(45 99.0765 540.767)" fill="white"/>
<rect x="118.369" y="536.908" width="20.0078" height="3.63778" rx="1.81889" transform="rotate(135 118.369 536.908)" fill="white"/>
<path d="M157.536 531.955H160.691V554.036H157.536V531.955ZM175.787 537.16C177.911 537.16 179.593 537.78 180.834 539.021C182.096 540.241 182.727 542.039 182.727 544.415V554.036H179.699V544.762C179.699 543.143 179.31 541.923 178.531 541.103C177.753 540.283 176.639 539.873 175.188 539.873C173.547 539.873 172.254 540.356 171.308 541.324C170.361 542.27 169.888 543.637 169.888 545.425V554.036H166.86V537.318H169.762V539.841C170.372 538.979 171.192 538.317 172.223 537.854C173.274 537.391 174.462 537.16 175.787 537.16ZM193.126 554.225C191.759 554.225 190.445 554.047 189.183 553.689C187.921 553.311 186.933 552.837 186.218 552.27L187.479 549.872C188.215 550.398 189.109 550.819 190.161 551.134C191.212 551.449 192.274 551.607 193.347 551.607C195.996 551.607 197.321 550.85 197.321 549.336C197.321 548.831 197.143 548.432 196.785 548.137C196.428 547.843 195.975 547.633 195.429 547.506C194.903 547.359 194.146 547.202 193.157 547.033C191.812 546.823 190.707 546.581 189.845 546.308C189.004 546.034 188.279 545.572 187.669 544.92C187.059 544.268 186.754 543.353 186.754 542.175C186.754 540.661 187.385 539.452 188.647 538.548C189.908 537.623 191.601 537.16 193.725 537.16C194.84 537.16 195.954 537.297 197.069 537.57C198.184 537.843 199.098 538.211 199.813 538.674L198.52 541.071C197.153 540.188 195.544 539.747 193.694 539.747C192.411 539.747 191.433 539.957 190.76 540.377C190.087 540.798 189.751 541.355 189.751 542.049C189.751 542.596 189.94 543.027 190.318 543.343C190.697 543.658 191.16 543.889 191.706 544.037C192.274 544.184 193.063 544.352 194.072 544.541C195.418 544.773 196.501 545.025 197.321 545.298C198.162 545.551 198.877 545.992 199.466 546.623C200.055 547.254 200.35 548.137 200.35 549.273C200.35 550.787 199.698 551.996 198.394 552.901C197.111 553.784 195.355 554.225 193.126 554.225ZM213.534 553.058C213.093 553.437 212.546 553.731 211.894 553.941C211.242 554.131 210.569 554.225 209.875 554.225C208.193 554.225 206.889 553.773 205.964 552.869C205.038 551.965 204.576 550.671 204.576 548.989V539.81H201.737V537.318H204.576V533.658H207.604V537.318H212.399V539.81H207.604V548.863C207.604 549.767 207.825 550.461 208.266 550.945C208.729 551.428 209.381 551.67 210.222 551.67C211.148 551.67 211.936 551.407 212.588 550.882L213.534 553.058ZM223.284 537.16C225.597 537.16 227.363 537.728 228.583 538.863C229.824 539.999 230.444 541.692 230.444 543.942V554.036H227.574V551.828C227.069 552.606 226.343 553.205 225.397 553.626C224.472 554.026 223.368 554.225 222.085 554.225C220.213 554.225 218.71 553.773 217.574 552.869C216.459 551.965 215.902 550.777 215.902 549.304C215.902 547.832 216.438 546.655 217.511 545.771C218.583 544.867 220.287 544.415 222.621 544.415H227.416V543.816C227.416 542.512 227.037 541.513 226.28 540.819C225.523 540.125 224.409 539.778 222.937 539.778C221.948 539.778 220.981 539.946 220.035 540.283C219.088 540.598 218.289 541.029 217.637 541.576L216.375 539.305C217.238 538.611 218.268 538.085 219.467 537.728C220.665 537.349 221.938 537.16 223.284 537.16ZM222.59 551.891C223.746 551.891 224.745 551.639 225.586 551.134C226.428 550.608 227.037 549.872 227.416 548.926V546.592H222.747C220.182 546.592 218.899 547.454 218.899 549.178C218.899 550.019 219.225 550.682 219.877 551.166C220.529 551.649 221.433 551.891 222.59 551.891ZM252.134 537.318V551.765C252.134 554.688 251.408 556.844 249.957 558.232C248.506 559.641 246.34 560.345 243.459 560.345C241.882 560.345 240.378 560.124 238.948 559.683C237.518 559.262 236.361 558.652 235.478 557.853L236.929 555.519C237.707 556.192 238.664 556.717 239.8 557.096C240.956 557.496 242.145 557.695 243.364 557.695C245.32 557.695 246.761 557.233 247.686 556.307C248.632 555.382 249.105 553.973 249.105 552.08V550.756C248.39 551.618 247.507 552.27 246.456 552.711C245.425 553.132 244.3 553.342 243.08 553.342C241.482 553.342 240.031 553.006 238.727 552.333C237.444 551.639 236.435 550.682 235.699 549.462C234.963 548.221 234.595 546.812 234.595 545.235C234.595 543.658 234.963 542.26 235.699 541.04C236.435 539.799 237.444 538.842 238.727 538.169C240.031 537.496 241.482 537.16 243.08 537.16C244.342 537.16 245.509 537.391 246.582 537.854C247.675 538.317 248.569 539 249.263 539.904V537.318H252.134ZM243.427 550.692C244.521 550.692 245.499 550.461 246.361 549.998C247.244 549.536 247.928 548.894 248.411 548.074C248.916 547.233 249.168 546.287 249.168 545.235C249.168 543.616 248.632 542.312 247.56 541.324C246.487 540.314 245.11 539.81 243.427 539.81C241.724 539.81 240.336 540.314 239.264 541.324C238.191 542.312 237.655 543.616 237.655 545.235C237.655 546.287 237.897 547.233 238.38 548.074C238.885 548.894 239.568 549.536 240.431 549.998C241.314 550.461 242.313 550.692 243.427 550.692ZM260.822 540.125C261.348 539.158 262.126 538.422 263.156 537.917C264.187 537.412 265.438 537.16 266.91 537.16V540.094C266.742 540.072 266.51 540.062 266.216 540.062C264.576 540.062 263.282 540.556 262.336 541.545C261.411 542.512 260.948 543.9 260.948 545.708V554.036H257.92V537.318H260.822V540.125ZM276.7 537.16C279.013 537.16 280.779 537.728 281.999 538.863C283.24 539.999 283.86 541.692 283.86 543.942V554.036H280.99V551.828C280.485 552.606 279.759 553.205 278.813 553.626C277.888 554.026 276.784 554.225 275.501 554.225C273.629 554.225 272.126 553.773 270.99 552.869C269.875 551.965 269.318 550.777 269.318 549.304C269.318 547.832 269.854 546.655 270.927 545.771C271.999 544.867 273.703 544.415 276.037 544.415H280.832V543.816C280.832 542.512 280.453 541.513 279.696 540.819C278.939 540.125 277.825 539.778 276.353 539.778C275.364 539.778 274.397 539.946 273.451 540.283C272.504 540.598 271.705 541.029 271.053 541.576L269.791 539.305C270.654 538.611 271.684 538.085 272.883 537.728C274.081 537.349 275.354 537.16 276.7 537.16ZM276.006 551.891C277.162 551.891 278.161 551.639 279.002 551.134C279.844 550.608 280.453 549.872 280.832 548.926V546.592H276.163C273.598 546.592 272.315 547.454 272.315 549.178C272.315 550.019 272.641 550.682 273.293 551.166C273.945 551.649 274.849 551.891 276.006 551.891ZM310.378 537.16C312.481 537.16 314.142 537.77 315.362 538.989C316.603 540.209 317.223 542.018 317.223 544.415V554.036H314.195V544.762C314.195 543.143 313.817 541.923 313.059 541.103C312.323 540.283 311.261 539.873 309.873 539.873C308.338 539.873 307.119 540.356 306.214 541.324C305.31 542.27 304.858 543.637 304.858 545.425V554.036H301.83V544.762C301.83 543.143 301.451 541.923 300.694 541.103C299.958 540.283 298.896 539.873 297.508 539.873C295.973 539.873 294.753 540.356 293.849 541.324C292.945 542.27 292.492 543.637 292.492 545.425V554.036H289.464V537.318H292.366V539.81C292.976 538.947 293.775 538.295 294.764 537.854C295.752 537.391 296.877 537.16 298.139 537.16C299.443 537.16 300.599 537.423 301.609 537.948C302.618 538.474 303.396 539.242 303.943 540.251C304.574 539.284 305.447 538.527 306.561 537.98C307.697 537.433 308.969 537.16 310.378 537.16ZM335.147 560.156C333.948 558.221 333.023 556.002 332.371 553.5C331.719 550.976 331.393 548.274 331.393 545.393C331.393 542.512 331.719 539.81 332.371 537.286C333.023 534.741 333.948 532.523 335.147 530.63H338.017C336.755 532.838 335.83 535.152 335.241 537.57C334.653 539.988 334.358 542.596 334.358 545.393C334.358 548.19 334.653 550.798 335.241 553.216C335.83 555.634 336.755 557.948 338.017 560.156H335.147ZM355.995 544.92H350.506V550.282H346.437V544.92H340.98V541.071H346.437V535.709H350.506V541.071H355.995V544.92ZM375.143 549.872V554.036H358.456V550.724L366.973 542.68C367.877 541.818 368.487 541.082 368.802 540.472C369.118 539.841 369.275 539.221 369.275 538.611C369.275 537.728 368.97 537.055 368.36 536.592C367.772 536.108 366.899 535.867 365.742 535.867C364.775 535.867 363.902 536.056 363.124 536.434C362.346 536.792 361.694 537.339 361.168 538.075L357.446 535.677C358.308 534.394 359.497 533.396 361.011 532.681C362.525 531.945 364.26 531.577 366.215 531.577C367.856 531.577 369.286 531.85 370.506 532.397C371.746 532.922 372.703 533.679 373.376 534.668C374.07 535.635 374.417 536.781 374.417 538.106C374.417 539.305 374.165 540.43 373.66 541.481C373.155 542.533 372.177 543.732 370.726 545.078L365.648 549.872H375.143ZM394.523 554.225C392.862 554.225 391.369 553.857 390.044 553.121C388.719 552.385 387.678 551.376 386.921 550.093C386.185 548.789 385.817 547.317 385.817 545.677C385.817 544.037 386.185 542.575 386.921 541.292C387.678 539.988 388.719 538.979 390.044 538.264C391.369 537.528 392.862 537.16 394.523 537.16C396.185 537.16 397.667 537.528 398.971 538.264C400.296 538.979 401.326 539.988 402.062 541.292C402.82 542.575 403.198 544.037 403.198 545.677C403.198 547.317 402.82 548.789 402.062 550.093C401.326 551.376 400.296 552.385 398.971 553.121C397.667 553.857 396.185 554.225 394.523 554.225ZM394.523 551.576C395.596 551.576 396.553 551.334 397.394 550.85C398.256 550.345 398.929 549.651 399.413 548.768C399.896 547.864 400.138 546.833 400.138 545.677C400.138 544.52 399.896 543.5 399.413 542.617C398.929 541.713 398.256 541.019 397.394 540.535C396.553 540.051 395.596 539.81 394.523 539.81C393.451 539.81 392.483 540.051 391.621 540.535C390.78 541.019 390.107 541.713 389.602 542.617C389.119 543.5 388.877 544.52 388.877 545.677C388.877 546.833 389.119 547.864 389.602 548.768C390.107 549.651 390.78 550.345 391.621 550.85C392.483 551.334 393.451 551.576 394.523 551.576ZM416.786 553.058C416.345 553.437 415.798 553.731 415.146 553.941C414.494 554.131 413.821 554.225 413.127 554.225C411.445 554.225 410.141 553.773 409.216 552.869C408.29 551.965 407.828 550.671 407.828 548.989V539.81H404.989V537.318H407.828V533.658H410.856V537.318H415.651V539.81H410.856V548.863C410.856 549.767 411.077 550.461 411.518 550.945C411.981 551.428 412.633 551.67 413.474 551.67C414.399 551.67 415.188 551.407 415.84 550.882L416.786 553.058ZM429.375 537.16C431.499 537.16 433.181 537.78 434.422 539.021C435.683 540.241 436.314 542.039 436.314 544.415V554.036H433.286V544.762C433.286 543.143 432.897 541.923 432.119 541.103C431.341 540.283 430.226 539.873 428.775 539.873C427.135 539.873 425.842 540.356 424.895 541.324C423.949 542.27 423.476 543.637 423.476 545.425V554.036H420.447V530.63H423.476V539.683C424.107 538.884 424.927 538.264 425.936 537.822C426.967 537.381 428.113 537.16 429.375 537.16ZM457.121 545.771C457.121 546.003 457.1 546.308 457.058 546.686H443.494C443.683 548.158 444.324 549.347 445.418 550.251C446.532 551.134 447.91 551.576 449.55 551.576C451.548 551.576 453.157 550.903 454.376 549.557L456.048 551.513C455.291 552.396 454.345 553.069 453.209 553.531C452.095 553.994 450.843 554.225 449.455 554.225C447.689 554.225 446.122 553.868 444.755 553.153C443.388 552.417 442.326 551.397 441.569 550.093C440.833 548.789 440.465 547.317 440.465 545.677C440.465 544.058 440.823 542.596 441.538 541.292C442.274 539.988 443.273 538.979 444.535 538.264C445.817 537.528 447.258 537.16 448.856 537.16C450.454 537.16 451.874 537.528 453.115 538.264C454.376 538.979 455.354 539.988 456.048 541.292C456.763 542.596 457.121 544.089 457.121 545.771ZM448.856 539.715C447.405 539.715 446.185 540.157 445.197 541.04C444.23 541.923 443.662 543.08 443.494 544.51H454.219C454.05 543.101 453.472 541.955 452.484 541.071C451.516 540.167 450.307 539.715 448.856 539.715ZM464.228 540.125C464.754 539.158 465.532 538.422 466.562 537.917C467.593 537.412 468.844 537.16 470.316 537.16V540.094C470.148 540.072 469.916 540.062 469.622 540.062C467.982 540.062 466.688 540.556 465.742 541.545C464.817 542.512 464.354 543.9 464.354 545.708V554.036H461.326V537.318H464.228V540.125ZM491.599 537.16C493.219 537.16 494.67 537.517 495.952 538.232C497.235 538.947 498.234 539.946 498.949 541.229C499.685 542.512 500.053 543.994 500.053 545.677C500.053 547.359 499.685 548.852 498.949 550.156C498.234 551.439 497.235 552.438 495.952 553.153C494.67 553.868 493.219 554.225 491.599 554.225C490.401 554.225 489.297 553.994 488.287 553.531C487.299 553.069 486.458 552.396 485.764 551.513V560.156H482.735V537.318H485.637V539.967C486.31 539.042 487.162 538.348 488.193 537.885C489.223 537.402 490.359 537.16 491.599 537.16ZM491.347 551.576C492.419 551.576 493.376 551.334 494.218 550.85C495.08 550.345 495.753 549.651 496.236 548.768C496.741 547.864 496.993 546.833 496.993 545.677C496.993 544.52 496.741 543.5 496.236 542.617C495.753 541.713 495.08 541.019 494.218 540.535C493.376 540.051 492.419 539.81 491.347 539.81C490.295 539.81 489.339 540.062 488.476 540.567C487.635 541.05 486.962 541.734 486.458 542.617C485.974 543.5 485.732 544.52 485.732 545.677C485.732 546.833 485.974 547.864 486.458 548.768C486.941 549.651 487.614 550.345 488.476 550.85C489.339 551.334 490.295 551.576 491.347 551.576ZM504.237 530.63H507.266V554.036H504.237V530.63ZM519.136 537.16C521.449 537.16 523.215 537.728 524.435 538.863C525.676 539.999 526.296 541.692 526.296 543.942V554.036H523.426V551.828C522.921 552.606 522.195 553.205 521.249 553.626C520.324 554.026 519.22 554.225 517.937 554.225C516.065 554.225 514.562 553.773 513.426 552.869C512.312 551.965 511.754 550.777 511.754 549.304C511.754 547.832 512.29 546.655 513.363 545.771C514.435 544.867 516.139 544.415 518.473 544.415H523.268V543.816C523.268 542.512 522.889 541.513 522.132 540.819C521.375 540.125 520.261 539.778 518.789 539.778C517.8 539.778 516.833 539.946 515.887 540.283C514.94 540.598 514.141 541.029 513.489 541.576L512.227 539.305C513.09 538.611 514.12 538.085 515.319 537.728C516.517 537.349 517.79 537.16 519.136 537.16ZM518.442 551.891C519.598 551.891 520.597 551.639 521.438 551.134C522.28 550.608 522.889 549.872 523.268 548.926V546.592H518.599C516.034 546.592 514.751 547.454 514.751 549.178C514.751 550.019 515.077 550.682 515.729 551.166C516.381 551.649 517.285 551.891 518.442 551.891ZM541.3 553.058C540.859 553.437 540.312 553.731 539.66 553.941C539.008 554.131 538.335 554.225 537.641 554.225C535.959 554.225 534.655 553.773 533.73 552.869C532.805 551.965 532.342 550.671 532.342 548.989V539.81H529.503V537.318H532.342V533.658H535.37V537.318H540.165V539.81H535.37V548.863C535.37 549.767 535.591 550.461 536.033 550.945C536.495 551.428 537.147 551.67 537.988 551.67C538.914 551.67 539.702 551.407 540.354 550.882L541.3 553.058ZM551.081 532.933C549.273 532.933 548.368 533.911 548.368 535.867V537.318H553.226V539.81H548.431V554.036H545.403V539.81H542.564V537.318H545.403V535.835C545.403 534.174 545.887 532.859 546.854 531.892C547.822 530.925 549.178 530.441 550.923 530.441C551.596 530.441 552.227 530.525 552.816 530.693C553.405 530.862 553.91 531.103 554.33 531.419L553.416 533.722C552.722 533.196 551.943 532.933 551.081 532.933ZM562.996 554.225C561.335 554.225 559.842 553.857 558.517 553.121C557.192 552.385 556.151 551.376 555.394 550.093C554.658 548.789 554.29 547.317 554.29 545.677C554.29 544.037 554.658 542.575 555.394 541.292C556.151 539.988 557.192 538.979 558.517 538.264C559.842 537.528 561.335 537.16 562.996 537.16C564.658 537.16 566.14 537.528 567.444 538.264C568.769 538.979 569.799 539.988 570.536 541.292C571.293 542.575 571.671 544.037 571.671 545.677C571.671 547.317 571.293 548.789 570.536 550.093C569.799 551.376 568.769 552.385 567.444 553.121C566.14 553.857 564.658 554.225 562.996 554.225ZM562.996 551.576C564.069 551.576 565.026 551.334 565.867 550.85C566.729 550.345 567.402 549.651 567.886 548.768C568.369 547.864 568.611 546.833 568.611 545.677C568.611 544.52 568.369 543.5 567.886 542.617C567.402 541.713 566.729 541.019 565.867 540.535C565.026 540.051 564.069 539.81 562.996 539.81C561.924 539.81 560.957 540.051 560.094 540.535C559.253 541.019 558.58 541.713 558.075 542.617C557.592 543.5 557.35 544.52 557.35 545.677C557.35 546.833 557.592 547.864 558.075 548.768C558.58 549.651 559.253 550.345 560.094 550.85C560.957 551.334 561.924 551.576 562.996 551.576ZM578.761 540.125C579.287 539.158 580.065 538.422 581.095 537.917C582.126 537.412 583.377 537.16 584.849 537.16V540.094C584.681 540.072 584.45 540.062 584.155 540.062C582.515 540.062 581.222 540.556 580.275 541.545C579.35 542.512 578.887 543.9 578.887 545.708V554.036H575.859V537.318H578.761V540.125ZM609.496 537.16C611.599 537.16 613.26 537.77 614.48 538.989C615.72 540.209 616.341 542.018 616.341 544.415V554.036H613.312V544.762C613.312 543.143 612.934 541.923 612.177 541.103C611.441 540.283 610.379 539.873 608.991 539.873C607.456 539.873 606.236 540.356 605.332 541.324C604.427 542.27 603.975 543.637 603.975 545.425V554.036H600.947V544.762C600.947 543.143 600.568 541.923 599.811 541.103C599.075 540.283 598.013 539.873 596.625 539.873C595.09 539.873 593.871 540.356 592.966 541.324C592.062 542.27 591.61 543.637 591.61 545.425V554.036H588.582V537.318H591.484V539.81C592.094 538.947 592.893 538.295 593.881 537.854C594.869 537.391 595.995 537.16 597.256 537.16C598.56 537.16 599.717 537.423 600.726 537.948C601.736 538.474 602.514 539.242 603.06 540.251C603.691 539.284 604.564 538.527 605.679 537.98C606.814 537.433 608.087 537.16 609.496 537.16ZM626.707 554.225C625.341 554.225 624.026 554.047 622.764 553.689C621.503 553.311 620.514 552.837 619.799 552.27L621.061 549.872C621.797 550.398 622.691 550.819 623.742 551.134C624.794 551.449 625.856 551.607 626.928 551.607C629.578 551.607 630.903 550.85 630.903 549.336C630.903 548.831 630.724 548.432 630.367 548.137C630.009 547.843 629.557 547.633 629.01 547.506C628.484 547.359 627.727 547.202 626.739 547.033C625.393 546.823 624.289 546.581 623.427 546.308C622.586 546.034 621.86 545.572 621.25 544.92C620.64 544.268 620.335 543.353 620.335 542.175C620.335 540.661 620.966 539.452 622.228 538.548C623.49 537.623 625.183 537.16 627.307 537.16C628.421 537.16 629.536 537.297 630.651 537.57C631.765 537.843 632.68 538.211 633.395 538.674L632.102 541.071C630.735 540.188 629.126 539.747 627.275 539.747C625.992 539.747 625.015 539.957 624.342 540.377C623.669 540.798 623.332 541.355 623.332 542.049C623.332 542.596 623.521 543.027 623.9 543.343C624.279 543.658 624.741 543.889 625.288 544.037C625.856 544.184 626.644 544.352 627.654 544.541C629 544.773 630.083 545.025 630.903 545.298C631.744 545.551 632.459 545.992 633.048 546.623C633.637 547.254 633.931 548.137 633.931 549.273C633.931 550.787 633.279 551.996 631.975 552.901C630.693 553.784 628.937 554.225 626.707 554.225ZM635.855 560.156C637.116 557.948 638.042 555.634 638.631 553.216C639.24 550.798 639.545 548.19 639.545 545.393C639.545 542.596 639.24 539.988 638.631 537.57C638.042 535.152 637.116 532.838 635.855 530.63H638.725C639.945 532.523 640.881 534.731 641.533 537.255C642.185 539.778 642.51 542.491 642.51 545.393C642.51 548.274 642.185 550.976 641.533 553.5C640.881 556.023 639.945 558.242 638.725 560.156H635.855Z" fill="#1A1A1A"/>
<path d="M104.901 104.621C106.542 105.078 107.832 105.912 108.773 107.122C109.714 108.305 110.185 109.81 110.185 111.639C110.185 114.085 109.257 115.967 107.402 117.285C105.574 118.602 102.898 119.261 99.3764 119.261H85.9066V91.0306H98.5699C101.796 91.0306 104.283 91.6759 106.031 92.9664C107.805 94.2569 108.692 96.0448 108.692 98.3301C108.692 99.8088 108.343 101.086 107.644 102.161C106.972 103.237 106.058 104.057 104.901 104.621ZM89.9395 94.2972V103.331H98.2069C100.277 103.331 101.863 102.954 102.966 102.202C104.095 101.422 104.66 100.293 104.66 98.8141C104.66 97.3353 104.095 96.2196 102.966 95.4668C101.863 94.6871 100.277 94.2972 98.2069 94.2972H89.9395ZM99.2151 115.994C101.5 115.994 103.221 115.618 104.377 114.865C105.533 114.112 106.111 112.929 106.111 111.316C106.111 108.17 103.813 106.598 99.2151 106.598H89.9395V115.994H99.2151ZM123.648 97.6849C126.605 97.6849 128.864 98.4108 130.423 99.8626C132.009 101.314 132.802 103.479 132.802 106.356V119.261H129.132V116.438C128.487 117.433 127.56 118.199 126.35 118.736C125.167 119.247 123.755 119.503 122.115 119.503C119.722 119.503 117.8 118.925 116.348 117.769C114.923 116.612 114.211 115.093 114.211 113.211C114.211 111.329 114.896 109.824 116.268 108.695C117.639 107.539 119.817 106.96 122.801 106.96H128.931V106.194C128.931 104.527 128.447 103.25 127.479 102.363C126.511 101.476 125.086 101.032 123.204 101.032C121.94 101.032 120.704 101.247 119.494 101.677C118.284 102.081 117.262 102.632 116.429 103.331L114.816 100.427C115.918 99.54 117.235 98.8678 118.768 98.4108C120.3 97.9268 121.927 97.6849 123.648 97.6849ZM122.761 116.518C124.239 116.518 125.516 116.196 126.592 115.55C127.667 114.878 128.447 113.937 128.931 112.727V109.743H122.962C119.682 109.743 118.042 110.845 118.042 113.05C118.042 114.126 118.459 114.972 119.292 115.591C120.126 116.209 121.282 116.518 122.761 116.518ZM146.097 119.503C144.349 119.503 142.669 119.274 141.056 118.817C139.443 118.333 138.179 117.728 137.265 117.002L138.878 113.937C139.819 114.609 140.962 115.147 142.306 115.55C143.65 115.954 145.008 116.155 146.379 116.155C149.767 116.155 151.461 115.188 151.461 113.252C151.461 112.606 151.232 112.096 150.775 111.719C150.318 111.343 149.74 111.074 149.041 110.913C148.369 110.724 147.401 110.523 146.137 110.308C144.417 110.039 143.005 109.73 141.903 109.38C140.827 109.031 139.9 108.439 139.12 107.606C138.34 106.772 137.951 105.603 137.951 104.097C137.951 102.161 138.757 100.615 140.37 99.4593C141.983 98.2763 144.148 97.6849 146.863 97.6849C148.288 97.6849 149.713 97.8596 151.138 98.2091C152.563 98.5586 153.733 99.0291 154.647 99.6206L152.993 102.686C151.246 101.556 149.189 100.992 146.823 100.992C145.183 100.992 143.933 101.261 143.072 101.798C142.212 102.336 141.782 103.049 141.782 103.936C141.782 104.635 142.024 105.186 142.508 105.589C142.992 105.993 143.583 106.288 144.282 106.477C145.008 106.665 146.016 106.88 147.307 107.122C149.028 107.418 150.412 107.74 151.461 108.09C152.536 108.412 153.45 108.977 154.203 109.783C154.956 110.59 155.332 111.719 155.332 113.171C155.332 115.107 154.499 116.653 152.832 117.809C151.192 118.938 148.947 119.503 146.097 119.503ZM160.171 97.8865H164.042V119.261H160.171V97.8865ZM162.107 93.773C161.354 93.773 160.722 93.531 160.211 93.047C159.727 92.5631 159.485 91.9716 159.485 91.2726C159.485 90.5735 159.727 89.9821 160.211 89.4981C160.722 88.9873 161.354 88.7319 162.107 88.7319C162.859 88.7319 163.478 88.9738 163.962 89.4578C164.473 89.9148 164.728 90.4929 164.728 91.1919C164.728 91.9178 164.473 92.5362 163.962 93.047C163.478 93.531 162.859 93.773 162.107 93.773ZM180.75 119.503C178.573 119.503 176.623 119.032 174.903 118.091C173.209 117.15 171.878 115.86 170.91 114.22C169.942 112.553 169.458 110.671 169.458 108.574C169.458 106.477 169.942 104.608 170.91 102.968C171.878 101.301 173.209 100.01 174.903 99.0964C176.623 98.1554 178.573 97.6849 180.75 97.6849C182.686 97.6849 184.407 98.0747 185.913 98.8544C187.445 99.6341 188.628 100.763 189.461 102.242L186.517 104.137C185.845 103.116 185.012 102.35 184.017 101.839C183.022 101.328 181.92 101.072 180.71 101.072C179.312 101.072 178.048 101.382 176.919 102C175.817 102.618 174.943 103.506 174.298 104.662C173.679 105.791 173.37 107.095 173.37 108.574C173.37 110.079 173.679 111.41 174.298 112.566C174.943 113.695 175.817 114.569 176.919 115.188C178.048 115.806 179.312 116.115 180.71 116.115C181.92 116.115 183.022 115.86 184.017 115.349C185.012 114.838 185.845 114.072 186.517 113.05L189.461 114.905C188.628 116.384 187.445 117.527 185.913 118.333C184.407 119.113 182.686 119.503 180.75 119.503Z" fill="#1A1A1A"/>
<path d="M142.672 235.829C142.672 241.296 140.672 245.996 136.672 249.929C132.672 253.796 126.905 256.196 119.372 257.129V268.329H109.372V257.429C104.439 257.162 99.7388 256.296 95.2721 254.829C90.8055 253.362 87.2055 251.562 84.4721 249.429L89.9721 237.229C92.5055 239.096 95.4721 240.662 98.8721 241.929C102.272 243.196 105.772 243.996 109.372 244.329V227.629C104.639 226.496 100.639 225.229 97.3721 223.829C94.1055 222.429 91.3721 220.396 89.1721 217.729C86.9721 214.996 85.8721 211.396 85.8721 206.929C85.8721 201.396 87.8721 196.662 91.8721 192.729C95.9388 188.729 101.772 186.296 109.372 185.429V174.329H119.372V185.229C127.572 185.896 134.339 187.929 139.672 191.329L134.672 203.629C129.672 200.762 124.572 199.029 119.372 198.429V215.429C124.039 216.496 127.972 217.729 131.172 219.129C134.439 220.462 137.172 222.496 139.372 225.229C141.572 227.896 142.672 231.429 142.672 235.829ZM101.972 206.129C101.972 207.796 102.605 209.162 103.872 210.229C105.139 211.296 106.972 212.196 109.372 212.929V198.729C106.839 199.329 104.972 200.296 103.772 201.629C102.572 202.896 101.972 204.396 101.972 206.129ZM119.372 243.929C121.772 243.396 123.572 242.529 124.772 241.329C125.972 240.129 126.572 238.696 126.572 237.029C126.572 235.362 125.939 233.996 124.672 232.929C123.472 231.862 121.705 230.929 119.372 230.129V243.929ZM201.642 243.129V256.329H148.742V245.829L175.742 220.329C178.608 217.596 180.542 215.262 181.542 213.329C182.542 211.329 183.042 209.362 183.042 207.429C183.042 204.629 182.075 202.496 180.142 201.029C178.275 199.496 175.508 198.729 171.842 198.729C168.775 198.729 166.008 199.329 163.542 200.529C161.075 201.662 159.008 203.396 157.342 205.729L145.542 198.129C148.275 194.062 152.042 190.896 156.842 188.629C161.642 186.296 167.142 185.129 173.342 185.129C178.542 185.129 183.075 185.996 186.942 187.729C190.875 189.396 193.908 191.796 196.042 194.929C198.242 197.996 199.342 201.629 199.342 205.829C199.342 209.629 198.542 213.196 196.942 216.529C195.342 219.862 192.242 223.662 187.642 227.929L171.542 243.129H201.642ZM232.926 185.129C242.726 185.129 250.393 188.129 255.926 194.129C261.459 200.062 264.226 208.629 264.226 219.829C264.226 227.762 262.726 234.562 259.726 240.229C256.793 245.896 252.626 250.196 247.226 253.129C241.826 256.062 235.593 257.529 228.526 257.529C224.793 257.529 221.226 257.129 217.826 256.329C214.426 255.462 211.526 254.262 209.126 252.729L215.126 240.829C218.526 243.162 222.893 244.329 228.226 244.329C234.159 244.329 238.859 242.596 242.326 239.129C245.793 235.596 247.659 230.529 247.926 223.929C243.726 228.129 237.926 230.229 230.526 230.229C226.059 230.229 221.993 229.329 218.326 227.529C214.659 225.729 211.759 223.196 209.626 219.929C207.493 216.596 206.426 212.762 206.426 208.429C206.426 203.762 207.593 199.662 209.926 196.129C212.259 192.596 215.426 189.896 219.426 188.029C223.493 186.096 227.993 185.129 232.926 185.129ZM234.126 218.129C237.659 218.129 240.526 217.162 242.726 215.229C244.993 213.229 246.126 210.696 246.126 207.629C246.126 204.562 245.026 202.062 242.826 200.129C240.693 198.196 237.726 197.229 233.926 197.229C230.459 197.229 227.626 198.162 225.426 200.029C223.293 201.896 222.226 204.429 222.226 207.629C222.226 210.829 223.293 213.396 225.426 215.329C227.626 217.196 230.526 218.129 234.126 218.129ZM296.598 185.129C306.398 185.129 314.065 188.129 319.598 194.129C325.131 200.062 327.898 208.629 327.898 219.829C327.898 227.762 326.398 234.562 323.398 240.229C320.465 245.896 316.298 250.196 310.898 253.129C305.498 256.062 299.265 257.529 292.198 257.529C288.465 257.529 284.898 257.129 281.498 256.329C278.098 255.462 275.198 254.262 272.798 252.729L278.798 240.829C282.198 243.162 286.565 244.329 291.898 244.329C297.831 244.329 302.531 242.596 305.998 239.129C309.465 235.596 311.331 230.529 311.598 223.929C307.398 228.129 301.598 230.229 294.198 230.229C289.731 230.229 285.665 229.329 281.998 227.529C278.331 225.729 275.431 223.196 273.298 219.929C271.165 216.596 270.098 212.762 270.098 208.429C270.098 203.762 271.265 199.662 273.598 196.129C275.931 192.596 279.098 189.896 283.098 188.029C287.165 186.096 291.665 185.129 296.598 185.129ZM297.798 218.129C301.331 218.129 304.198 217.162 306.398 215.229C308.665 213.229 309.798 210.696 309.798 207.629C309.798 204.562 308.698 202.062 306.498 200.129C304.365 198.196 301.398 197.229 297.598 197.229C294.131 197.229 291.298 198.162 289.098 200.029C286.965 201.896 285.898 204.429 285.898 207.629C285.898 210.829 286.965 213.396 289.098 215.329C291.298 217.196 294.198 218.129 297.798 218.129ZM340.086 232.753H343.978L334.738 259.129H330.846L340.086 232.753ZM362.895 256.329L362.867 244.569L357.099 254.257H355.055L349.315 244.821V256.329H345.059V236.729H348.811L356.147 248.909L363.371 236.729H367.095L367.151 256.329H362.895ZM378.661 256.553C377.074 256.553 375.646 256.226 374.377 255.573C373.126 254.901 372.146 253.977 371.437 252.801C370.727 251.625 370.373 250.29 370.373 248.797C370.373 247.304 370.727 245.969 371.437 244.793C372.146 243.617 373.126 242.702 374.377 242.049C375.646 241.377 377.074 241.041 378.661 241.041C380.247 241.041 381.666 241.377 382.917 242.049C384.167 242.702 385.147 243.617 385.857 244.793C386.566 245.969 386.921 247.304 386.921 248.797C386.921 250.29 386.566 251.625 385.857 252.801C385.147 253.977 384.167 254.901 382.917 255.573C381.666 256.226 380.247 256.553 378.661 256.553ZM378.661 252.969C379.781 252.969 380.695 252.596 381.405 251.849C382.133 251.084 382.497 250.066 382.497 248.797C382.497 247.528 382.133 246.52 381.405 245.773C380.695 245.008 379.781 244.625 378.661 244.625C377.541 244.625 376.617 245.008 375.889 245.773C375.161 246.52 374.797 247.528 374.797 248.797C374.797 250.066 375.161 251.084 375.889 251.849C376.617 252.596 377.541 252.969 378.661 252.969ZM398.996 241.041C400.863 241.041 402.366 241.601 403.504 242.721C404.662 243.841 405.24 245.502 405.24 247.705V256.329H400.872V248.377C400.872 247.182 400.611 246.296 400.088 245.717C399.566 245.12 398.81 244.821 397.82 244.821C396.719 244.821 395.842 245.166 395.188 245.857C394.535 246.529 394.208 247.537 394.208 248.881V256.329H389.84V241.265H394.012V243.029C394.591 242.394 395.31 241.909 396.168 241.573C397.027 241.218 397.97 241.041 398.996 241.041ZM418.916 255.601C418.487 255.918 417.955 256.161 417.32 256.329C416.704 256.478 416.051 256.553 415.36 256.553C413.568 256.553 412.177 256.096 411.188 255.181C410.217 254.266 409.732 252.922 409.732 251.149V244.961H407.408V241.601H409.732V237.933H414.1V241.601H417.852V244.961H414.1V251.093C414.1 251.728 414.259 252.222 414.576 252.577C414.912 252.913 415.379 253.081 415.976 253.081C416.667 253.081 417.255 252.894 417.74 252.521L418.916 255.601ZM430.524 241.041C432.39 241.041 433.893 241.601 435.032 242.721C436.189 243.841 436.768 245.502 436.768 247.705V256.329H432.4V248.377C432.4 247.182 432.138 246.296 431.616 245.717C431.093 245.12 430.337 244.821 429.348 244.821C428.246 244.821 427.369 245.166 426.716 245.857C426.062 246.529 425.736 247.537 425.736 248.881V256.329H421.368V235.553H425.736V242.833C426.314 242.254 427.014 241.816 427.836 241.517C428.657 241.2 429.553 241.041 430.524 241.041Z" fill="#1A1A1A"/>
<rect x="81.5579" y="809" width="726.884" height="97" rx="16" fill="#130F26"/>
<path d="M341.832 867.836C340.283 867.836 338.78 867.631 337.324 867.22C335.887 866.791 334.73 866.24 333.852 865.568L335.392 862.152C336.232 862.768 337.231 863.263 338.388 863.636C339.546 864.009 340.703 864.196 341.86 864.196C343.148 864.196 344.1 864.009 344.716 863.636C345.332 863.244 345.64 862.731 345.64 862.096C345.64 861.629 345.454 861.247 345.08 860.948C344.726 860.631 344.259 860.379 343.68 860.192C343.12 860.005 342.355 859.8 341.384 859.576C339.891 859.221 338.668 858.867 337.716 858.512C336.764 858.157 335.943 857.588 335.252 856.804C334.58 856.02 334.244 854.975 334.244 853.668C334.244 852.529 334.552 851.503 335.168 850.588C335.784 849.655 336.708 848.917 337.94 848.376C339.191 847.835 340.712 847.564 342.504 847.564C343.755 847.564 344.978 847.713 346.172 848.012C347.367 848.311 348.412 848.74 349.308 849.3L347.908 852.744C346.098 851.717 344.287 851.204 342.476 851.204C341.207 851.204 340.264 851.409 339.648 851.82C339.051 852.231 338.752 852.772 338.752 853.444C338.752 854.116 339.098 854.62 339.788 854.956C340.498 855.273 341.571 855.591 343.008 855.908C344.502 856.263 345.724 856.617 346.676 856.972C347.628 857.327 348.44 857.887 349.112 858.652C349.803 859.417 350.148 860.453 350.148 861.76C350.148 862.88 349.831 863.907 349.196 864.84C348.58 865.755 347.647 866.483 346.396 867.024C345.146 867.565 343.624 867.836 341.832 867.836ZM360.22 867.724C358.614 867.724 357.168 867.397 355.88 866.744C354.61 866.072 353.612 865.148 352.884 863.972C352.174 862.796 351.82 861.461 351.82 859.968C351.82 858.475 352.174 857.14 352.884 855.964C353.612 854.788 354.61 853.873 355.88 853.22C357.168 852.548 358.614 852.212 360.22 852.212C361.806 852.212 363.188 852.548 364.364 853.22C365.558 853.873 366.426 854.816 366.968 856.048L363.58 857.868C362.796 856.487 361.666 855.796 360.192 855.796C359.053 855.796 358.11 856.169 357.364 856.916C356.617 857.663 356.244 858.68 356.244 859.968C356.244 861.256 356.617 862.273 357.364 863.02C358.11 863.767 359.053 864.14 360.192 864.14C361.685 864.14 362.814 863.449 363.58 862.068L366.968 863.916C366.426 865.111 365.558 866.044 364.364 866.716C363.188 867.388 361.806 867.724 360.22 867.724ZM378.529 852.212C380.396 852.212 381.899 852.772 383.037 853.892C384.195 855.012 384.773 856.673 384.773 858.876V867.5H380.405V859.548C380.405 858.353 380.144 857.467 379.621 856.888C379.099 856.291 378.343 855.992 377.353 855.992C376.252 855.992 375.375 856.337 374.721 857.028C374.068 857.7 373.741 858.708 373.741 860.052V867.5H369.373V846.724H373.741V854.004C374.32 853.425 375.02 852.987 375.841 852.688C376.663 852.371 377.559 852.212 378.529 852.212ZM403.653 860.024C403.653 860.08 403.625 860.472 403.569 861.2H392.173C392.378 862.133 392.864 862.871 393.629 863.412C394.394 863.953 395.346 864.224 396.485 864.224C397.269 864.224 397.96 864.112 398.557 863.888C399.173 863.645 399.742 863.272 400.265 862.768L402.589 865.288C401.17 866.912 399.098 867.724 396.373 867.724C394.674 867.724 393.172 867.397 391.865 866.744C390.558 866.072 389.55 865.148 388.841 863.972C388.132 862.796 387.777 861.461 387.777 859.968C387.777 858.493 388.122 857.168 388.813 855.992C389.522 854.797 390.484 853.873 391.697 853.22C392.929 852.548 394.301 852.212 395.813 852.212C397.288 852.212 398.622 852.529 399.817 853.164C401.012 853.799 401.945 854.713 402.617 855.908C403.308 857.084 403.653 858.456 403.653 860.024ZM395.841 855.516C394.852 855.516 394.021 855.796 393.349 856.356C392.677 856.916 392.266 857.681 392.117 858.652H399.537C399.388 857.7 398.977 856.944 398.305 856.384C397.633 855.805 396.812 855.516 395.841 855.516ZM421.905 846.724V867.5H417.733V865.764C416.65 867.071 415.082 867.724 413.029 867.724C411.61 867.724 410.322 867.407 409.165 866.772C408.026 866.137 407.13 865.232 406.477 864.056C405.824 862.88 405.497 861.517 405.497 859.968C405.497 858.419 405.824 857.056 406.477 855.88C407.13 854.704 408.026 853.799 409.165 853.164C410.322 852.529 411.61 852.212 413.029 852.212C414.952 852.212 416.454 852.819 417.537 854.032V846.724H421.905ZM413.785 864.14C414.886 864.14 415.801 863.767 416.529 863.02C417.257 862.255 417.621 861.237 417.621 859.968C417.621 858.699 417.257 857.691 416.529 856.944C415.801 856.179 414.886 855.796 413.785 855.796C412.665 855.796 411.741 856.179 411.013 856.944C410.285 857.691 409.921 858.699 409.921 859.968C409.921 861.237 410.285 862.255 411.013 863.02C411.741 863.767 412.665 864.14 413.785 864.14ZM441.124 852.436V867.5H436.98V865.708C436.401 866.361 435.71 866.865 434.908 867.22C434.105 867.556 433.237 867.724 432.304 867.724C430.325 867.724 428.757 867.155 427.6 866.016C426.442 864.877 425.864 863.188 425.864 860.948V852.436H430.232V860.304C430.232 862.731 431.249 863.944 433.284 863.944C434.329 863.944 435.169 863.608 435.804 862.936C436.438 862.245 436.756 861.228 436.756 859.884V852.436H441.124ZM445.17 846.724H449.538V867.5H445.17V846.724ZM468.348 860.024C468.348 860.08 468.32 860.472 468.264 861.2H456.868C457.074 862.133 457.559 862.871 458.324 863.412C459.09 863.953 460.042 864.224 461.18 864.224C461.964 864.224 462.655 864.112 463.252 863.888C463.868 863.645 464.438 863.272 464.96 862.768L467.284 865.288C465.866 866.912 463.794 867.724 461.068 867.724C459.37 867.724 457.867 867.397 456.56 866.744C455.254 866.072 454.246 865.148 453.536 863.972C452.827 862.796 452.472 861.461 452.472 859.968C452.472 858.493 452.818 857.168 453.508 855.992C454.218 854.797 455.179 853.873 456.392 853.22C457.624 852.548 458.996 852.212 460.508 852.212C461.983 852.212 463.318 852.529 464.512 853.164C465.707 853.799 466.64 854.713 467.312 855.908C468.003 857.084 468.348 858.456 468.348 860.024ZM460.536 855.516C459.547 855.516 458.716 855.796 458.044 856.356C457.372 856.916 456.962 857.681 456.812 858.652H464.232C464.083 857.7 463.672 856.944 463 856.384C462.328 855.805 461.507 855.516 460.536 855.516ZM485.262 852.212C487.595 852.212 489.387 852.772 490.638 853.892C491.889 854.993 492.514 856.664 492.514 858.904V867.5H488.426V865.624C487.605 867.024 486.074 867.724 483.834 867.724C482.677 867.724 481.669 867.528 480.81 867.136C479.97 866.744 479.326 866.203 478.878 865.512C478.43 864.821 478.206 864.037 478.206 863.16C478.206 861.76 478.729 860.659 479.774 859.856C480.838 859.053 482.471 858.652 484.674 858.652H488.146C488.146 857.7 487.857 856.972 487.278 856.468C486.699 855.945 485.831 855.684 484.674 855.684C483.871 855.684 483.078 855.815 482.294 856.076C481.529 856.319 480.875 856.655 480.334 857.084L478.766 854.032C479.587 853.453 480.567 853.005 481.706 852.688C482.863 852.371 484.049 852.212 485.262 852.212ZM484.926 864.784C485.673 864.784 486.335 864.616 486.914 864.28C487.493 863.925 487.903 863.412 488.146 862.74V861.2H485.15C483.358 861.2 482.462 861.788 482.462 862.964C482.462 863.524 482.677 863.972 483.106 864.308C483.554 864.625 484.161 864.784 484.926 864.784ZM514.085 867.836C512.088 867.836 510.277 867.407 508.653 866.548C507.048 865.671 505.778 864.467 504.845 862.936C503.93 861.387 503.473 859.641 503.473 857.7C503.473 855.759 503.93 854.023 504.845 852.492C505.778 850.943 507.048 849.739 508.653 848.88C510.277 848.003 512.097 847.564 514.113 847.564C515.812 847.564 517.342 847.863 518.705 848.46C520.086 849.057 521.244 849.916 522.177 851.036L519.265 853.724C517.94 852.193 516.297 851.428 514.337 851.428C513.124 851.428 512.041 851.699 511.089 852.24C510.137 852.763 509.39 853.5 508.849 854.452C508.326 855.404 508.065 856.487 508.065 857.7C508.065 858.913 508.326 859.996 508.849 860.948C509.39 861.9 510.137 862.647 511.089 863.188C512.041 863.711 513.124 863.972 514.337 863.972C516.297 863.972 517.94 863.197 519.265 861.648L522.177 864.336C521.244 865.475 520.086 866.343 518.705 866.94C517.324 867.537 515.784 867.836 514.085 867.836ZM530.899 852.212C533.232 852.212 535.024 852.772 536.275 853.892C537.525 854.993 538.151 856.664 538.151 858.904V867.5H534.063V865.624C533.241 867.024 531.711 867.724 529.471 867.724C528.313 867.724 527.305 867.528 526.447 867.136C525.607 866.744 524.963 866.203 524.515 865.512C524.067 864.821 523.843 864.037 523.843 863.16C523.843 861.76 524.365 860.659 525.411 859.856C526.475 859.053 528.108 858.652 530.311 858.652H533.783C533.783 857.7 533.493 856.972 532.915 856.468C532.336 855.945 531.468 855.684 530.311 855.684C529.508 855.684 528.715 855.815 527.931 856.076C527.165 856.319 526.512 856.655 525.971 857.084L524.403 854.032C525.224 853.453 526.204 853.005 527.343 852.688C528.5 852.371 529.685 852.212 530.899 852.212ZM530.563 864.784C531.309 864.784 531.972 864.616 532.551 864.28C533.129 863.925 533.54 863.412 533.783 862.74V861.2H530.787C528.995 861.2 528.099 861.788 528.099 862.964C528.099 863.524 528.313 863.972 528.743 864.308C529.191 864.625 529.797 864.784 530.563 864.784ZM542.104 846.724H546.472V867.5H542.104V846.724ZM550.526 846.724H554.894V867.5H550.526V846.724Z" fill="white"/>
</svg>
