<svg width="890" height="986" viewBox="0 0 890 986" fill="none" xmlns="http://www.w3.org/2000/svg">
<rect width="890" height="986" rx="32" fill="white"/>
<rect x="0.65" y="0.65" width="888.7" height="984.7" rx="31.35" stroke="black" stroke-opacity="0.2" stroke-width="1.3" stroke-miterlimit="2.61313"/>
<path d="M85.764 378.237C85.764 389.824 95.1853 399.266 106.794 399.266C118.381 399.266 127.823 389.824 127.823 378.237C127.823 366.628 118.381 357.207 106.794 357.207C95.1853 357.207 85.764 366.628 85.764 378.237Z" fill="#130F26"/>
<rect x="98.9624" y="376.251" width="10.9133" height="3.63778" rx="1.81889" transform="rotate(45 98.9624 376.251)" fill="white"/>
<rect x="118.255" y="372.393" width="20.0078" height="3.63778" rx="1.81889" transform="rotate(135 118.255 372.393)" fill="white"/>
<path d="M156.728 367.439H161.838V389.521H156.728V367.439ZM177.047 372.297C179.15 372.297 180.843 372.928 182.125 374.19C183.429 375.452 184.081 377.323 184.081 379.805V389.521H179.16V380.562C179.16 379.216 178.866 378.217 178.277 377.565C177.688 376.892 176.836 376.556 175.722 376.556C174.481 376.556 173.493 376.945 172.757 377.723C172.021 378.48 171.653 379.616 171.653 381.13V389.521H166.732V372.55H171.432V374.537C172.084 373.822 172.893 373.275 173.861 372.897C174.828 372.497 175.89 372.297 177.047 372.297ZM194.251 389.773C192.842 389.773 191.465 389.605 190.119 389.268C188.773 388.911 187.701 388.469 186.901 387.943L188.542 384.41C189.299 384.894 190.214 385.294 191.286 385.609C192.359 385.903 193.41 386.051 194.44 386.051C196.522 386.051 197.563 385.535 197.563 384.505C197.563 384.021 197.279 383.674 196.712 383.464C196.144 383.254 195.271 383.075 194.094 382.928C192.706 382.717 191.559 382.476 190.655 382.202C189.751 381.929 188.962 381.445 188.289 380.751C187.637 380.057 187.311 379.069 187.311 377.786C187.311 376.713 187.616 375.767 188.226 374.947C188.857 374.106 189.761 373.454 190.939 372.991C192.138 372.529 193.547 372.297 195.166 372.297C196.365 372.297 197.553 372.434 198.731 372.707C199.929 372.96 200.918 373.317 201.696 373.78L200.055 377.281C198.562 376.44 196.933 376.02 195.166 376.02C194.115 376.02 193.326 376.167 192.8 376.461C192.274 376.756 192.012 377.134 192.012 377.597C192.012 378.122 192.295 378.49 192.863 378.701C193.431 378.911 194.335 379.111 195.576 379.3C196.964 379.531 198.1 379.784 198.983 380.057C199.866 380.31 200.634 380.783 201.286 381.477C201.938 382.171 202.264 383.138 202.264 384.379C202.264 385.43 201.948 386.366 201.317 387.186C200.686 388.006 199.761 388.648 198.541 389.11C197.343 389.552 195.913 389.773 194.251 389.773ZM216.246 388.7C215.762 389.058 215.163 389.331 214.448 389.521C213.754 389.689 213.018 389.773 212.239 389.773C210.221 389.773 208.654 389.258 207.539 388.227C206.446 387.197 205.899 385.683 205.899 383.685V376.713H203.281V372.928H205.899V368.796H210.82V372.928H215.047V376.713H210.82V383.622C210.82 384.337 210.999 384.894 211.356 385.294C211.735 385.672 212.26 385.861 212.933 385.861C213.712 385.861 214.374 385.651 214.921 385.23L216.246 388.7ZM225.853 372.297C228.482 372.297 230.501 372.928 231.91 374.19C233.319 375.431 234.023 377.313 234.023 379.836V389.521H229.418V387.407C228.492 388.984 226.768 389.773 224.244 389.773C222.94 389.773 221.805 389.552 220.837 389.11C219.891 388.669 219.166 388.059 218.661 387.281C218.156 386.503 217.904 385.62 217.904 384.631C217.904 383.054 218.493 381.813 219.67 380.909C220.869 380.005 222.709 379.552 225.191 379.552H229.102C229.102 378.48 228.776 377.66 228.124 377.092C227.472 376.503 226.494 376.209 225.191 376.209C224.286 376.209 223.393 376.356 222.509 376.65C221.647 376.924 220.911 377.302 220.301 377.786L218.535 374.348C219.46 373.696 220.564 373.191 221.847 372.834C223.151 372.476 224.486 372.297 225.853 372.297ZM225.475 386.461C226.316 386.461 227.062 386.271 227.714 385.893C228.366 385.493 228.829 384.915 229.102 384.158V382.423H225.727C223.708 382.423 222.699 383.085 222.699 384.41C222.699 385.041 222.94 385.546 223.424 385.924C223.929 386.282 224.612 386.461 225.475 386.461ZM256.169 372.55V386.682C256.169 389.794 255.359 392.107 253.74 393.621C252.121 395.135 249.755 395.892 246.642 395.892C245.002 395.892 243.446 395.693 241.974 395.293C240.502 394.894 239.282 394.315 238.315 393.558L240.27 390.025C240.985 390.614 241.89 391.077 242.983 391.413C244.077 391.771 245.17 391.949 246.264 391.949C247.967 391.949 249.218 391.56 250.018 390.782C250.838 390.025 251.248 388.869 251.248 387.312V386.587C249.965 387.996 248.177 388.7 245.885 388.7C244.329 388.7 242.899 388.364 241.595 387.691C240.312 386.997 239.292 386.03 238.535 384.789C237.778 383.548 237.4 382.118 237.4 380.499C237.4 378.88 237.778 377.45 238.535 376.209C239.292 374.968 240.312 374.011 241.595 373.338C242.899 372.644 244.329 372.297 245.885 372.297C248.346 372.297 250.217 373.107 251.5 374.726V372.55H256.169ZM246.863 384.663C248.167 384.663 249.229 384.284 250.049 383.527C250.89 382.749 251.311 381.74 251.311 380.499C251.311 379.258 250.89 378.259 250.049 377.502C249.229 376.724 248.167 376.335 246.863 376.335C245.559 376.335 244.487 376.724 243.646 377.502C242.804 378.259 242.384 379.258 242.384 380.499C242.384 381.74 242.804 382.749 243.646 383.527C244.487 384.284 245.559 384.663 246.863 384.663ZM265.449 374.789C266.038 373.969 266.826 373.349 267.815 372.928C268.824 372.508 269.981 372.297 271.285 372.297V376.84C270.738 376.798 270.37 376.777 270.181 376.777C268.772 376.777 267.668 377.176 266.868 377.975C266.069 378.753 265.67 379.931 265.67 381.508V389.521H260.749V372.55H265.449V374.789ZM280.963 372.297C283.592 372.297 285.611 372.928 287.02 374.19C288.429 375.431 289.133 377.313 289.133 379.836V389.521H284.528V387.407C283.603 388.984 281.878 389.773 279.355 389.773C278.051 389.773 276.915 389.552 275.948 389.11C275.001 388.669 274.276 388.059 273.771 387.281C273.267 386.503 273.014 385.62 273.014 384.631C273.014 383.054 273.603 381.813 274.781 380.909C275.979 380.005 277.819 379.552 280.301 379.552H284.212C284.212 378.48 283.886 377.66 283.235 377.092C282.583 376.503 281.605 376.209 280.301 376.209C279.397 376.209 278.503 376.356 277.62 376.65C276.757 376.924 276.021 377.302 275.412 377.786L273.645 374.348C274.57 373.696 275.674 373.191 276.957 372.834C278.261 372.476 279.596 372.297 280.963 372.297ZM280.585 386.461C281.426 386.461 282.173 386.271 282.824 385.893C283.476 385.493 283.939 384.915 284.212 384.158V382.423H280.837C278.818 382.423 277.809 383.085 277.809 384.41C277.809 385.041 278.051 385.546 278.534 385.924C279.039 386.282 279.723 386.461 280.585 386.461ZM315.321 372.297C317.445 372.297 319.127 372.928 320.368 374.19C321.63 375.431 322.261 377.302 322.261 379.805V389.521H317.34V380.562C317.34 379.216 317.056 378.217 316.488 377.565C315.941 376.892 315.153 376.556 314.122 376.556C312.966 376.556 312.051 376.934 311.378 377.691C310.705 378.427 310.369 379.531 310.369 381.004V389.521H305.448V380.562C305.448 377.891 304.375 376.556 302.23 376.556C301.095 376.556 300.19 376.934 299.517 377.691C298.844 378.427 298.508 379.531 298.508 381.004V389.521H293.587V372.55H298.287V374.505C298.918 373.79 299.686 373.244 300.59 372.865C301.515 372.487 302.525 372.297 303.618 372.297C304.817 372.297 305.9 372.539 306.867 373.023C307.835 373.485 308.613 374.169 309.202 375.073C309.895 374.19 310.768 373.506 311.82 373.023C312.892 372.539 314.059 372.297 315.321 372.297ZM357.118 389.521L357.087 373.433L349.106 386.839H347.655L339.674 373.527V389.521H336.646V367.439H339.233L348.444 382.959L357.529 367.439H360.115L360.147 389.521H357.118ZM372.42 372.644C374.733 372.644 376.5 373.212 377.719 374.348C378.96 375.483 379.581 377.176 379.581 379.426V389.521H376.71V387.312C376.205 388.09 375.48 388.69 374.533 389.11C373.608 389.51 372.504 389.71 371.221 389.71C369.35 389.71 367.846 389.258 366.71 388.353C365.596 387.449 365.039 386.261 365.039 384.789C365.039 383.317 365.575 382.139 366.647 381.256C367.72 380.352 369.423 379.899 371.758 379.899H376.552V379.3C376.552 377.996 376.174 376.997 375.417 376.303C374.66 375.609 373.545 375.262 372.073 375.262C371.085 375.262 370.117 375.431 369.171 375.767C368.225 376.083 367.425 376.514 366.773 377.06L365.512 374.789C366.374 374.095 367.404 373.57 368.603 373.212C369.802 372.834 371.074 372.644 372.42 372.644ZM371.726 387.375C372.883 387.375 373.882 387.123 374.723 386.618C375.564 386.093 376.174 385.357 376.552 384.41V382.076H371.884C369.318 382.076 368.035 382.938 368.035 384.663C368.035 385.504 368.361 386.166 369.013 386.65C369.665 387.134 370.569 387.375 371.726 387.375ZM394.112 372.644C396.236 372.644 397.918 373.265 399.159 374.505C400.421 375.725 401.051 377.523 401.051 379.899V389.521H398.023V380.246C398.023 378.627 397.634 377.407 396.856 376.587C396.078 375.767 394.963 375.357 393.512 375.357C391.872 375.357 390.579 375.841 389.632 376.808C388.686 377.754 388.213 379.121 388.213 380.909V389.521H385.185V372.802H388.087V375.326C388.697 374.463 389.517 373.801 390.547 373.338C391.599 372.876 392.787 372.644 394.112 372.644ZM412.744 372.644C415.057 372.644 416.824 373.212 418.043 374.348C419.284 375.483 419.904 377.176 419.904 379.426V389.521H417.034V387.312C416.529 388.09 415.804 388.69 414.857 389.11C413.932 389.51 412.828 389.71 411.545 389.71C409.673 389.71 408.17 389.258 407.034 388.353C405.92 387.449 405.362 386.261 405.362 384.789C405.362 383.317 405.899 382.139 406.971 381.256C408.044 380.352 409.747 379.899 412.081 379.899H416.876V379.3C416.876 377.996 416.498 376.997 415.741 376.303C414.983 375.609 413.869 375.262 412.397 375.262C411.408 375.262 410.441 375.431 409.495 375.767C408.548 376.083 407.749 376.514 407.097 377.06L405.836 374.789C406.698 374.095 407.728 373.57 408.927 373.212C410.126 372.834 411.398 372.644 412.744 372.644ZM412.05 387.375C413.206 387.375 414.205 387.123 415.047 386.618C415.888 386.093 416.498 385.357 416.876 384.41V382.076H412.208C409.642 382.076 408.359 382.938 408.359 384.663C408.359 385.504 408.685 386.166 409.337 386.65C409.989 387.134 410.893 387.375 412.05 387.375ZM441.594 372.802V387.249C441.594 390.172 440.868 392.328 439.417 393.716C437.966 395.125 435.8 395.829 432.919 395.829C431.342 395.829 429.838 395.609 428.408 395.167C426.978 394.746 425.822 394.137 424.938 393.337L426.389 391.003C427.168 391.676 428.124 392.202 429.26 392.58C430.417 392.98 431.605 393.18 432.825 393.18C434.78 393.18 436.221 392.717 437.146 391.792C438.092 390.866 438.566 389.457 438.566 387.565V386.24C437.851 387.102 436.967 387.754 435.916 388.196C434.885 388.616 433.76 388.827 432.541 388.827C430.942 388.827 429.491 388.49 428.187 387.817C426.905 387.123 425.895 386.166 425.159 384.947C424.423 383.706 424.055 382.297 424.055 380.72C424.055 379.142 424.423 377.744 425.159 376.524C425.895 375.283 426.905 374.327 428.187 373.654C429.491 372.981 430.942 372.644 432.541 372.644C433.802 372.644 434.97 372.876 436.042 373.338C437.136 373.801 438.029 374.484 438.723 375.389V372.802H441.594ZM432.888 386.177C433.981 386.177 434.959 385.945 435.821 385.483C436.704 385.02 437.388 384.379 437.872 383.559C438.376 382.717 438.629 381.771 438.629 380.72C438.629 379.1 438.092 377.797 437.02 376.808C435.947 375.799 434.57 375.294 432.888 375.294C431.184 375.294 429.796 375.799 428.724 376.808C427.651 377.797 427.115 379.1 427.115 380.72C427.115 381.771 427.357 382.717 427.841 383.559C428.345 384.379 429.029 385.02 429.891 385.483C430.774 385.945 431.773 386.177 432.888 386.177ZM462.49 381.256C462.49 381.487 462.469 381.792 462.427 382.171H448.863C449.052 383.643 449.693 384.831 450.787 385.735C451.901 386.618 453.279 387.06 454.919 387.06C456.917 387.06 458.526 386.387 459.745 385.041L461.417 386.997C460.66 387.88 459.714 388.553 458.578 389.016C457.464 389.478 456.212 389.71 454.825 389.71C453.058 389.71 451.491 389.352 450.124 388.637C448.758 387.901 447.696 386.881 446.938 385.577C446.202 384.274 445.834 382.802 445.834 381.161C445.834 379.542 446.192 378.08 446.907 376.777C447.643 375.473 448.642 374.463 449.904 373.748C451.186 373.012 452.627 372.644 454.225 372.644C455.823 372.644 457.243 373.012 458.484 373.748C459.745 374.463 460.723 375.473 461.417 376.777C462.132 378.08 462.49 379.574 462.49 381.256ZM454.225 375.199C452.774 375.199 451.554 375.641 450.566 376.524C449.599 377.407 449.031 378.564 448.863 379.994H459.588C459.42 378.585 458.841 377.439 457.853 376.556C456.885 375.651 455.676 375.199 454.225 375.199ZM487.609 372.644C489.712 372.644 491.373 373.254 492.593 374.474C493.834 375.694 494.454 377.502 494.454 379.899V389.521H491.426V380.246C491.426 378.627 491.047 377.407 490.29 376.587C489.554 375.767 488.492 375.357 487.104 375.357C485.569 375.357 484.349 375.841 483.445 376.808C482.541 377.754 482.089 379.121 482.089 380.909V389.521H479.06V380.246C479.06 378.627 478.682 377.407 477.925 376.587C477.189 375.767 476.127 375.357 474.739 375.357C473.204 375.357 471.984 375.841 471.08 376.808C470.175 377.754 469.723 379.121 469.723 380.909V389.521H466.695V372.802H469.597V375.294C470.207 374.432 471.006 373.78 471.994 373.338C472.983 372.876 474.108 372.644 475.37 372.644C476.673 372.644 477.83 372.907 478.839 373.433C479.849 373.959 480.627 374.726 481.174 375.736C481.805 374.768 482.677 374.011 483.792 373.464C484.928 372.918 486.2 372.644 487.609 372.644ZM515.228 381.256C515.228 381.487 515.207 381.792 515.165 382.171H501.601C501.79 383.643 502.432 384.831 503.525 385.735C504.64 386.618 506.017 387.06 507.657 387.06C509.655 387.06 511.264 386.387 512.484 385.041L514.156 386.997C513.399 387.88 512.452 388.553 511.317 389.016C510.202 389.478 508.951 389.71 507.563 389.71C505.796 389.71 504.23 389.352 502.863 388.637C501.496 387.901 500.434 386.881 499.677 385.577C498.941 384.274 498.573 382.802 498.573 381.161C498.573 379.542 498.93 378.08 499.645 376.777C500.381 375.473 501.38 374.463 502.642 373.748C503.925 373.012 505.365 372.644 506.964 372.644C508.562 372.644 509.981 373.012 511.222 373.748C512.484 374.463 513.462 375.473 514.156 376.777C514.871 378.08 515.228 379.574 515.228 381.256ZM506.964 375.199C505.512 375.199 504.293 375.641 503.304 376.524C502.337 377.407 501.769 378.564 501.601 379.994H512.326C512.158 378.585 511.58 377.439 510.591 376.556C509.624 375.651 508.415 375.199 506.964 375.199ZM528.36 372.644C530.484 372.644 532.167 373.265 533.407 374.505C534.669 375.725 535.3 377.523 535.3 379.899V389.521H532.272V380.246C532.272 378.627 531.883 377.407 531.105 376.587C530.326 375.767 529.212 375.357 527.761 375.357C526.121 375.357 524.827 375.841 523.881 376.808C522.935 377.754 522.461 379.121 522.461 380.909V389.521H519.433V372.802H522.335V375.326C522.945 374.463 523.765 373.801 524.796 373.338C525.847 372.876 527.035 372.644 528.36 372.644ZM550.305 388.543C549.863 388.921 549.316 389.216 548.664 389.426C548.012 389.615 547.339 389.71 546.645 389.71C544.963 389.71 543.659 389.258 542.734 388.353C541.809 387.449 541.346 386.156 541.346 384.473V375.294H538.507V372.802H541.346V369.143H544.374V372.802H549.169V375.294H544.374V384.347C544.374 385.251 544.595 385.945 545.037 386.429C545.499 386.913 546.151 387.155 546.992 387.155C547.918 387.155 548.706 386.892 549.358 386.366L550.305 388.543Z" fill="#1A1A1A"/>
<path d="M85.764 460.252C85.764 471.84 95.1853 481.282 106.794 481.282C118.381 481.282 127.823 471.84 127.823 460.252C127.823 448.644 118.381 439.223 106.794 439.223C95.1853 439.223 85.764 448.644 85.764 460.252Z" fill="#130F26"/>
<rect x="98.9624" y="458.267" width="10.9133" height="3.63778" rx="1.81889" transform="rotate(45 98.9624 458.267)" fill="white"/>
<rect x="118.255" y="454.408" width="20.0078" height="3.63778" rx="1.81889" transform="rotate(135 118.255 454.408)" fill="white"/>
<path d="M161.302 453.619H154.236V449.455H173.478V453.619H166.412V471.536H161.302V453.619ZM202.119 454.565L195.967 471.536H191.236L187.419 461L183.476 471.536H178.744L172.625 454.565H177.262L181.268 466.047L185.432 454.565H189.595L193.633 466.047L197.765 454.565H202.119ZM204.406 454.565H209.327V471.536H204.406V454.565ZM206.867 452.199C205.963 452.199 205.226 451.937 204.659 451.411C204.091 450.885 203.807 450.233 203.807 449.455C203.807 448.677 204.091 448.025 204.659 447.499C205.226 446.974 205.963 446.711 206.867 446.711C207.771 446.711 208.507 446.963 209.075 447.468C209.643 447.972 209.927 448.603 209.927 449.36C209.927 450.181 209.643 450.864 209.075 451.411C208.507 451.937 207.771 452.199 206.867 452.199ZM224.84 470.716C224.357 471.073 223.757 471.347 223.042 471.536C222.348 471.704 221.612 471.788 220.834 471.788C218.815 471.788 217.248 471.273 216.134 470.243C215.04 469.212 214.494 467.698 214.494 465.7V458.729H211.875V454.944H214.494V450.811H219.415V454.944H223.641V458.729H219.415V465.637C219.415 466.352 219.593 466.91 219.951 467.309C220.329 467.688 220.855 467.877 221.528 467.877C222.306 467.877 222.969 467.667 223.515 467.246L224.84 470.716ZM238.179 470.716C237.695 471.073 237.096 471.347 236.381 471.536C235.687 471.704 234.951 471.788 234.173 471.788C232.154 471.788 230.587 471.273 229.473 470.243C228.379 469.212 227.832 467.698 227.832 465.7V458.729H225.214V454.944H227.832V450.811H232.753V454.944H236.98V458.729H232.753V465.637C232.753 466.352 232.932 466.91 233.289 467.309C233.668 467.688 234.194 467.877 234.867 467.877C235.645 467.877 236.307 467.667 236.854 467.246L238.179 470.716ZM257.041 463.114C257.041 463.177 257.01 463.618 256.947 464.439H244.108C244.339 465.49 244.886 466.321 245.748 466.931C246.611 467.541 247.683 467.845 248.966 467.845C249.849 467.845 250.627 467.719 251.3 467.467C251.994 467.194 252.636 466.773 253.224 466.205L255.843 469.044C254.244 470.874 251.91 471.788 248.84 471.788C246.926 471.788 245.233 471.42 243.761 470.684C242.289 469.927 241.153 468.886 240.354 467.562C239.555 466.237 239.156 464.733 239.156 463.051C239.156 461.389 239.545 459.896 240.323 458.571C241.122 457.225 242.205 456.185 243.572 455.448C244.96 454.691 246.506 454.313 248.209 454.313C249.87 454.313 251.374 454.67 252.72 455.385C254.066 456.1 255.117 457.131 255.874 458.477C256.652 459.802 257.041 461.347 257.041 463.114ZM248.24 458.035C247.126 458.035 246.19 458.351 245.433 458.981C244.676 459.612 244.213 460.475 244.045 461.568H252.404C252.236 460.496 251.773 459.644 251.016 459.013C250.259 458.361 249.334 458.035 248.24 458.035ZM265.018 456.805C265.606 455.985 266.395 455.364 267.383 454.944C268.393 454.523 269.55 454.313 270.853 454.313V458.855C270.307 458.813 269.939 458.792 269.749 458.792C268.34 458.792 267.236 459.192 266.437 459.991C265.638 460.769 265.238 461.947 265.238 463.524V471.536H260.318V454.565H265.018V456.805ZM297.484 466.016H285.749L283.32 471.536H280.071L290.071 449.455H293.194L303.225 471.536H299.913L297.484 466.016ZM296.38 463.492L291.616 452.673L286.853 463.492H296.38ZM321.352 454.818V471.536H318.481V469.013C317.872 469.875 317.062 470.548 316.053 471.031C315.064 471.494 313.981 471.725 312.803 471.725C310.574 471.725 308.818 471.116 307.536 469.896C306.253 468.655 305.611 466.836 305.611 464.439V454.818H308.64V464.092C308.64 465.711 309.029 466.941 309.807 467.782C310.585 468.603 311.699 469.013 313.15 469.013C314.749 469.013 316.011 468.529 316.936 467.562C317.861 466.594 318.324 465.227 318.324 463.461V454.818H321.352ZM336.517 470.558C336.076 470.937 335.529 471.231 334.877 471.441C334.225 471.631 333.552 471.725 332.858 471.725C331.176 471.725 329.872 471.273 328.947 470.369C328.021 469.465 327.559 468.171 327.559 466.489V457.31H324.72V454.818H327.559V451.158H330.587V454.818H335.382V457.31H330.587V466.363C330.587 467.267 330.808 467.961 331.249 468.445C331.712 468.928 332.364 469.17 333.205 469.17C334.13 469.17 334.919 468.907 335.571 468.382L336.517 470.558ZM346.784 471.725C345.123 471.725 343.63 471.357 342.305 470.621C340.98 469.885 339.939 468.876 339.182 467.593C338.446 466.289 338.078 464.817 338.078 463.177C338.078 461.537 338.446 460.075 339.182 458.792C339.939 457.488 340.98 456.479 342.305 455.764C343.63 455.028 345.123 454.66 346.784 454.66C348.446 454.66 349.928 455.028 351.232 455.764C352.557 456.479 353.588 457.488 354.324 458.792C355.081 460.075 355.459 461.537 355.459 463.177C355.459 464.817 355.081 466.289 354.324 467.593C353.588 468.876 352.557 469.885 351.232 470.621C349.928 471.357 348.446 471.725 346.784 471.725ZM346.784 469.076C347.857 469.076 348.814 468.834 349.655 468.35C350.517 467.845 351.19 467.151 351.674 466.268C352.158 465.364 352.399 464.333 352.399 463.177C352.399 462.02 352.158 461 351.674 460.117C351.19 459.213 350.517 458.519 349.655 458.035C348.814 457.551 347.857 457.31 346.784 457.31C345.712 457.31 344.745 457.551 343.882 458.035C343.041 458.519 342.368 459.213 341.864 460.117C341.38 461 341.138 462.02 341.138 463.177C341.138 464.333 341.38 465.364 341.864 466.268C342.368 467.151 343.041 467.845 343.882 468.35C344.745 468.834 345.712 469.076 346.784 469.076ZM380.561 454.66C382.664 454.66 384.325 455.27 385.545 456.489C386.786 457.709 387.406 459.518 387.406 461.915V471.536H384.378V462.262C384.378 460.643 383.999 459.423 383.242 458.603C382.506 457.783 381.444 457.373 380.056 457.373C378.521 457.373 377.302 457.856 376.397 458.824C375.493 459.77 375.041 461.137 375.041 462.925V471.536H372.013V462.262C372.013 460.643 371.634 459.423 370.877 458.603C370.141 457.783 369.079 457.373 367.691 457.373C366.156 457.373 364.936 457.856 364.032 458.824C363.128 459.77 362.675 461.137 362.675 462.925V471.536H359.647V454.818H362.549V457.31C363.159 456.447 363.958 455.795 364.947 455.354C365.935 454.891 367.06 454.66 368.322 454.66C369.626 454.66 370.782 454.923 371.792 455.448C372.801 455.974 373.579 456.742 374.126 457.751C374.757 456.784 375.63 456.027 376.744 455.48C377.88 454.933 379.152 454.66 380.561 454.66ZM399.066 454.66C401.38 454.66 403.146 455.228 404.366 456.363C405.607 457.499 406.227 459.192 406.227 461.442V471.536H403.356V469.328C402.852 470.106 402.126 470.705 401.18 471.126C400.255 471.526 399.15 471.725 397.868 471.725C395.996 471.725 394.492 471.273 393.357 470.369C392.242 469.465 391.685 468.277 391.685 466.804C391.685 465.332 392.221 464.155 393.294 463.271C394.366 462.367 396.07 461.915 398.404 461.915H403.199V461.316C403.199 460.012 402.82 459.013 402.063 458.319C401.306 457.625 400.191 457.278 398.719 457.278C397.731 457.278 396.764 457.446 395.817 457.783C394.871 458.098 394.072 458.529 393.42 459.076L392.158 456.805C393.02 456.111 394.051 455.585 395.249 455.228C396.448 454.849 397.72 454.66 399.066 454.66ZM398.372 469.391C399.529 469.391 400.528 469.139 401.369 468.634C402.21 468.108 402.82 467.372 403.199 466.426V464.092H398.53C395.964 464.092 394.682 464.954 394.682 466.678C394.682 467.519 395.008 468.182 395.66 468.666C396.311 469.149 397.216 469.391 398.372 469.391ZM421.231 470.558C420.79 470.937 420.243 471.231 419.591 471.441C418.939 471.631 418.266 471.725 417.572 471.725C415.89 471.725 414.586 471.273 413.661 470.369C412.735 469.465 412.273 468.171 412.273 466.489V457.31H409.434V454.818H412.273V451.158H415.301V454.818H420.096V457.31H415.301V466.363C415.301 467.267 415.522 467.961 415.963 468.445C416.426 468.928 417.078 469.17 417.919 469.17C418.844 469.17 419.633 468.907 420.285 468.382L421.231 470.558ZM424.892 454.818H427.921V471.536H424.892V454.818ZM426.406 451.6C425.818 451.6 425.323 451.411 424.924 451.032C424.545 450.654 424.356 450.191 424.356 449.644C424.356 449.098 424.545 448.635 424.924 448.256C425.323 447.857 425.818 447.657 426.406 447.657C426.995 447.657 427.479 447.846 427.858 448.225C428.257 448.582 428.457 449.034 428.457 449.581C428.457 450.149 428.257 450.633 427.858 451.032C427.479 451.411 426.995 451.6 426.406 451.6ZM440.863 471.725C439.202 471.725 437.709 471.357 436.384 470.621C435.059 469.885 434.018 468.876 433.261 467.593C432.525 466.289 432.157 464.817 432.157 463.177C432.157 461.537 432.525 460.075 433.261 458.792C434.018 457.488 435.059 456.479 436.384 455.764C437.709 455.028 439.202 454.66 440.863 454.66C442.525 454.66 444.007 455.028 445.311 455.764C446.636 456.479 447.666 457.488 448.402 458.792C449.159 460.075 449.538 461.537 449.538 463.177C449.538 464.817 449.159 466.289 448.402 467.593C447.666 468.876 446.636 469.885 445.311 470.621C444.007 471.357 442.525 471.725 440.863 471.725ZM440.863 469.076C441.936 469.076 442.893 468.834 443.734 468.35C444.596 467.845 445.269 467.151 445.753 466.268C446.236 465.364 446.478 464.333 446.478 463.177C446.478 462.02 446.236 461 445.753 460.117C445.269 459.213 444.596 458.519 443.734 458.035C442.893 457.551 441.936 457.31 440.863 457.31C439.791 457.31 438.823 457.551 437.961 458.035C437.12 458.519 436.447 459.213 435.942 460.117C435.459 461 435.217 462.02 435.217 463.177C435.217 464.333 435.459 465.364 435.942 466.268C436.447 467.151 437.12 467.845 437.961 468.35C438.823 468.834 439.791 469.076 440.863 469.076ZM462.653 454.66C464.777 454.66 466.459 455.28 467.7 456.521C468.962 457.741 469.593 459.539 469.593 461.915V471.536H466.564V462.262C466.564 460.643 466.175 459.423 465.397 458.603C464.619 457.783 463.505 457.373 462.054 457.373C460.413 457.373 459.12 457.856 458.174 458.824C457.227 459.77 456.754 461.137 456.754 462.925V471.536H453.726V454.818H456.628V457.341C457.238 456.479 458.058 455.817 459.088 455.354C460.14 454.891 461.328 454.66 462.653 454.66Z" fill="#1A1A1A"/>
<path d="M85.764 624.283C85.764 635.87 95.1853 645.312 106.794 645.312C118.381 645.312 127.823 635.87 127.823 624.283C127.823 612.674 118.381 603.253 106.794 603.253C95.1853 603.253 85.764 612.674 85.764 624.283Z" fill="#130F26"/>
<rect x="98.9624" y="622.297" width="10.9133" height="3.63778" rx="1.81889" transform="rotate(45 98.9624 622.297)" fill="white"/>
<rect x="118.255" y="618.438" width="20.0078" height="3.63778" rx="1.81889" transform="rotate(135 118.255 618.438)" fill="white"/>
<path d="M163.857 635.819C162.196 635.819 160.587 635.566 159.031 635.062C157.496 634.536 156.287 633.863 155.403 633.043L156.57 630.582C157.412 631.339 158.484 631.96 159.788 632.444C161.113 632.906 162.469 633.137 163.857 633.137C165.687 633.137 167.054 632.833 167.958 632.223C168.862 631.592 169.314 630.761 169.314 629.731C169.314 628.974 169.062 628.364 168.557 627.901C168.074 627.417 167.464 627.049 166.728 626.797C166.013 626.545 164.993 626.261 163.668 625.945C162.007 625.546 160.661 625.146 159.63 624.747C158.621 624.347 157.748 623.737 157.012 622.917C156.297 622.076 155.94 620.951 155.94 619.542C155.94 618.364 156.244 617.302 156.854 616.356C157.485 615.41 158.432 614.652 159.693 614.085C160.955 613.517 162.522 613.233 164.393 613.233C165.697 613.233 166.98 613.401 168.242 613.738C169.504 614.074 170.587 614.558 171.491 615.189L170.45 617.712C169.525 617.123 168.536 616.682 167.485 616.387C166.433 616.072 165.403 615.914 164.393 615.914C162.606 615.914 161.26 616.24 160.356 616.892C159.473 617.544 159.031 618.385 159.031 619.416C159.031 620.173 159.283 620.793 159.788 621.277C160.293 621.739 160.913 622.107 161.649 622.381C162.406 622.633 163.426 622.907 164.709 623.201C166.37 623.601 167.706 624 168.715 624.4C169.724 624.799 170.587 625.409 171.302 626.229C172.038 627.049 172.406 628.153 172.406 629.541C172.406 630.698 172.09 631.76 171.459 632.727C170.829 633.674 169.872 634.431 168.589 634.999C167.306 635.545 165.729 635.819 163.857 635.819ZM183.733 635.756C182.072 635.756 180.579 635.388 179.254 634.652C177.929 633.916 176.888 632.906 176.131 631.623C175.395 630.32 175.027 628.847 175.027 627.207C175.027 625.567 175.395 624.105 176.131 622.822C176.888 621.519 177.929 620.509 179.254 619.794C180.579 619.058 182.072 618.69 183.733 618.69C185.394 618.69 186.877 619.058 188.181 619.794C189.506 620.509 190.536 621.519 191.272 622.822C192.029 624.105 192.408 625.567 192.408 627.207C192.408 628.847 192.029 630.32 191.272 631.623C190.536 632.906 189.506 633.916 188.181 634.652C186.877 635.388 185.394 635.756 183.733 635.756ZM183.733 633.106C184.806 633.106 185.762 632.864 186.604 632.38C187.466 631.876 188.139 631.182 188.623 630.298C189.106 629.394 189.348 628.364 189.348 627.207C189.348 626.051 189.106 625.031 188.623 624.147C188.139 623.243 187.466 622.549 186.604 622.065C185.762 621.582 184.806 621.34 183.733 621.34C182.661 621.34 181.693 621.582 180.831 622.065C179.99 622.549 179.317 623.243 178.812 624.147C178.329 625.031 178.087 626.051 178.087 627.207C178.087 628.364 178.329 629.394 178.812 630.298C179.317 631.182 179.99 631.876 180.831 632.38C181.693 632.864 182.661 633.106 183.733 633.106ZM203.883 635.756C202.179 635.756 200.655 635.388 199.309 634.652C197.984 633.916 196.943 632.906 196.186 631.623C195.429 630.32 195.05 628.847 195.05 627.207C195.05 625.567 195.429 624.105 196.186 622.822C196.943 621.519 197.984 620.509 199.309 619.794C200.655 619.058 202.179 618.69 203.883 618.69C205.397 618.69 206.743 618.995 207.92 619.605C209.119 620.215 210.044 621.098 210.696 622.255L208.393 623.737C207.868 622.938 207.216 622.339 206.438 621.939C205.66 621.54 204.797 621.34 203.851 621.34C202.758 621.34 201.769 621.582 200.886 622.065C200.024 622.549 199.34 623.243 198.836 624.147C198.352 625.031 198.11 626.051 198.11 627.207C198.11 628.385 198.352 629.426 198.836 630.33C199.34 631.213 200.024 631.897 200.886 632.38C201.769 632.864 202.758 633.106 203.851 633.106C204.797 633.106 205.66 632.906 206.438 632.507C207.216 632.107 207.868 631.508 208.393 630.709L210.696 632.16C210.044 633.316 209.119 634.21 207.92 634.841C206.743 635.451 205.397 635.756 203.883 635.756ZM214.617 618.848H217.645V635.566H214.617V618.848ZM216.131 615.63C215.542 615.63 215.048 615.441 214.648 615.063C214.27 614.684 214.081 614.221 214.081 613.675C214.081 613.128 214.27 612.665 214.648 612.287C215.048 611.887 215.542 611.687 216.131 611.687C216.72 611.687 217.203 611.877 217.582 612.255C217.982 612.613 218.181 613.065 218.181 613.611C218.181 614.179 217.982 614.663 217.582 615.063C217.203 615.441 216.72 615.63 216.131 615.63ZM229.515 618.69C231.828 618.69 233.595 619.258 234.815 620.394C236.055 621.529 236.676 623.222 236.676 625.472V635.566H233.805V633.358C233.3 634.136 232.575 634.736 231.629 635.156C230.703 635.556 229.599 635.756 228.316 635.756C226.445 635.756 224.941 635.304 223.806 634.399C222.691 633.495 222.134 632.307 222.134 630.835C222.134 629.363 222.67 628.185 223.743 627.302C224.815 626.397 226.518 625.945 228.853 625.945H233.647V625.346C233.647 624.042 233.269 623.043 232.512 622.349C231.755 621.655 230.64 621.308 229.168 621.308C228.18 621.308 227.212 621.477 226.266 621.813C225.32 622.128 224.521 622.56 223.869 623.106L222.607 620.835C223.469 620.141 224.5 619.615 225.698 619.258C226.897 618.879 228.169 618.69 229.515 618.69ZM228.821 633.421C229.978 633.421 230.977 633.169 231.818 632.664C232.659 632.139 233.269 631.403 233.647 630.456V628.122H228.979C226.413 628.122 225.13 628.984 225.13 630.709C225.13 631.55 225.456 632.212 226.108 632.696C226.76 633.18 227.665 633.421 228.821 633.421ZM242.28 612.16H245.308V635.566H242.28V612.16ZM280.475 635.566L280.444 619.479L272.463 632.885H271.012L263.031 619.573V635.566H260.003V613.485H262.59L271.801 629.005L280.885 613.485H283.472L283.504 635.566H280.475ZM304.799 627.302C304.799 627.533 304.778 627.838 304.736 628.217H291.171C291.361 629.689 292.002 630.877 293.096 631.781C294.21 632.664 295.588 633.106 297.228 633.106C299.226 633.106 300.835 632.433 302.054 631.087L303.726 633.043C302.969 633.926 302.023 634.599 300.887 635.062C299.773 635.524 298.521 635.756 297.133 635.756C295.367 635.756 293.8 635.398 292.433 634.683C291.066 633.947 290.004 632.927 289.247 631.623C288.511 630.32 288.143 628.847 288.143 627.207C288.143 625.588 288.501 624.126 289.216 622.822C289.952 621.519 290.951 620.509 292.212 619.794C293.495 619.058 294.936 618.69 296.534 618.69C298.132 618.69 299.552 619.058 300.792 619.794C302.054 620.509 303.032 621.519 303.726 622.822C304.441 624.126 304.799 625.619 304.799 627.302ZM296.534 621.245C295.083 621.245 293.863 621.687 292.875 622.57C291.907 623.453 291.34 624.61 291.171 626.04H301.897C301.728 624.631 301.15 623.485 300.162 622.602C299.194 621.697 297.985 621.245 296.534 621.245ZM324.776 612.16V635.566H321.874V632.917C321.201 633.842 320.349 634.546 319.319 635.03C318.288 635.514 317.153 635.756 315.912 635.756C314.293 635.756 312.842 635.398 311.559 634.683C310.276 633.968 309.266 632.969 308.53 631.686C307.815 630.383 307.458 628.89 307.458 627.207C307.458 625.525 307.815 624.042 308.53 622.759C309.266 621.477 310.276 620.478 311.559 619.763C312.842 619.048 314.293 618.69 315.912 618.69C317.111 618.69 318.215 618.921 319.224 619.384C320.233 619.826 321.075 620.488 321.748 621.371V612.16H324.776ZM316.164 633.106C317.216 633.106 318.173 632.864 319.035 632.38C319.897 631.876 320.57 631.182 321.054 630.298C321.537 629.394 321.779 628.364 321.779 627.207C321.779 626.051 321.537 625.031 321.054 624.147C320.57 623.243 319.897 622.549 319.035 622.065C318.173 621.582 317.216 621.34 316.164 621.34C315.092 621.34 314.124 621.582 313.262 622.065C312.421 622.549 311.748 623.243 311.243 624.147C310.76 625.031 310.518 626.051 310.518 627.207C310.518 628.364 310.76 629.394 311.243 630.298C311.748 631.182 312.421 631.876 313.262 632.38C314.124 632.864 315.092 633.106 316.164 633.106ZM330.506 618.848H333.534V635.566H330.506V618.848ZM332.02 615.63C331.431 615.63 330.937 615.441 330.537 615.063C330.159 614.684 329.969 614.221 329.969 613.675C329.969 613.128 330.159 612.665 330.537 612.287C330.937 611.887 331.431 611.687 332.02 611.687C332.609 611.687 333.092 611.877 333.471 612.255C333.87 612.613 334.07 613.065 334.07 613.611C334.07 614.179 333.87 614.663 333.471 615.063C333.092 615.441 332.609 615.63 332.02 615.63ZM345.404 618.69C347.717 618.69 349.484 619.258 350.703 620.394C351.944 621.529 352.564 623.222 352.564 625.472V635.566H349.694V633.358C349.189 634.136 348.464 634.736 347.517 635.156C346.592 635.556 345.488 635.756 344.205 635.756C342.334 635.756 340.83 635.304 339.694 634.399C338.58 633.495 338.023 632.307 338.023 630.835C338.023 629.363 338.559 628.185 339.631 627.302C340.704 626.397 342.407 625.945 344.741 625.945H349.536V625.346C349.536 624.042 349.158 623.043 348.401 622.349C347.644 621.655 346.529 621.308 345.057 621.308C344.069 621.308 343.101 621.477 342.155 621.813C341.208 622.128 340.409 622.56 339.757 623.106L338.496 620.835C339.358 620.141 340.388 619.615 341.587 619.258C342.786 618.879 344.058 618.69 345.404 618.69ZM344.71 633.421C345.867 633.421 346.865 633.169 347.707 632.664C348.548 632.139 349.158 631.403 349.536 630.456V628.122H344.868C342.302 628.122 341.019 628.984 341.019 630.709C341.019 631.55 341.345 632.212 341.997 632.696C342.649 633.18 343.553 633.421 344.71 633.421ZM381.15 630.046H369.416L366.987 635.566H363.738L373.737 613.485H376.86L386.891 635.566H383.579L381.15 630.046ZM380.046 627.523L375.283 616.703L370.52 627.523H380.046ZM405.362 612.16V635.566H402.46V632.917C401.787 633.842 400.935 634.546 399.905 635.03C398.874 635.514 397.739 635.756 396.498 635.756C394.879 635.756 393.428 635.398 392.145 634.683C390.862 633.968 389.853 632.969 389.117 631.686C388.402 630.383 388.044 628.89 388.044 627.207C388.044 625.525 388.402 624.042 389.117 622.759C389.853 621.477 390.862 620.478 392.145 619.763C393.428 619.048 394.879 618.69 396.498 618.69C397.697 618.69 398.801 618.921 399.81 619.384C400.82 619.826 401.661 620.488 402.334 621.371V612.16H405.362ZM396.75 633.106C397.802 633.106 398.759 632.864 399.621 632.38C400.483 631.876 401.156 631.182 401.64 630.298C402.123 629.394 402.365 628.364 402.365 627.207C402.365 626.051 402.123 625.031 401.64 624.147C401.156 623.243 400.483 622.549 399.621 622.065C398.759 621.582 397.802 621.34 396.75 621.34C395.678 621.34 394.71 621.582 393.848 622.065C393.007 622.549 392.334 623.243 391.829 624.147C391.346 625.031 391.104 626.051 391.104 627.207C391.104 628.364 391.346 629.394 391.829 630.298C392.334 631.182 393.007 631.876 393.848 632.38C394.71 632.864 395.678 633.106 396.75 633.106ZM429.878 635.819C427.67 635.819 425.672 635.335 423.885 634.368C422.118 633.379 420.73 632.033 419.721 630.33C418.711 628.606 418.207 626.671 418.207 624.526C418.207 622.381 418.711 620.457 419.721 618.753C420.73 617.029 422.129 615.683 423.916 614.716C425.704 613.727 427.702 613.233 429.91 613.233C431.634 613.233 433.211 613.527 434.641 614.116C436.071 614.684 437.291 615.536 438.3 616.671L436.25 618.659C434.589 616.913 432.517 616.04 430.036 616.04C428.396 616.04 426.913 616.408 425.588 617.144C424.263 617.881 423.222 618.9 422.465 620.204C421.729 621.487 421.361 622.928 421.361 624.526C421.361 626.124 421.729 627.575 422.465 628.879C423.222 630.162 424.263 631.171 425.588 631.907C426.913 632.643 428.396 633.011 430.036 633.011C432.496 633.011 434.568 632.128 436.25 630.362L438.3 632.349C437.291 633.484 436.061 634.347 434.61 634.936C433.18 635.524 431.603 635.819 429.878 635.819ZM448.231 618.69C450.545 618.69 452.311 619.258 453.531 620.394C454.771 621.529 455.392 623.222 455.392 625.472V635.566H452.521V633.358C452.017 634.136 451.291 634.736 450.345 635.156C449.419 635.556 448.315 635.756 447.033 635.756C445.161 635.756 443.657 635.304 442.522 634.399C441.407 633.495 440.85 632.307 440.85 630.835C440.85 629.363 441.386 628.185 442.459 627.302C443.531 626.397 445.235 625.945 447.569 625.945H452.364V625.346C452.364 624.042 451.985 623.043 451.228 622.349C450.471 621.655 449.356 621.308 447.884 621.308C446.896 621.308 445.929 621.477 444.982 621.813C444.036 622.128 443.237 622.56 442.585 623.106L441.323 620.835C442.185 620.141 443.216 619.615 444.414 619.258C445.613 618.879 446.885 618.69 448.231 618.69ZM447.537 633.421C448.694 633.421 449.693 633.169 450.534 632.664C451.375 632.139 451.985 631.403 452.364 630.456V628.122H447.695C445.129 628.122 443.847 628.984 443.847 630.709C443.847 631.55 444.173 632.212 444.824 632.696C445.476 633.18 446.381 633.421 447.537 633.421ZM481.91 618.69C484.013 618.69 485.674 619.3 486.894 620.52C488.135 621.739 488.755 623.548 488.755 625.945V635.566H485.727V626.292C485.727 624.673 485.348 623.453 484.591 622.633C483.855 621.813 482.793 621.403 481.405 621.403C479.87 621.403 478.65 621.887 477.746 622.854C476.842 623.8 476.39 625.167 476.39 626.955V635.566H473.361V626.292C473.361 624.673 472.983 623.453 472.226 622.633C471.49 621.813 470.428 621.403 469.04 621.403C467.505 621.403 466.285 621.887 465.381 622.854C464.476 623.8 464.024 625.167 464.024 626.955V635.566H460.996V618.848H463.898V621.34C464.508 620.478 465.307 619.826 466.295 619.384C467.284 618.921 468.409 618.69 469.671 618.69C470.974 618.69 472.131 618.953 473.141 619.479C474.15 620.004 474.928 620.772 475.475 621.782C476.106 620.814 476.978 620.057 478.093 619.51C479.229 618.964 480.501 618.69 481.91 618.69ZM503.191 618.69C504.81 618.69 506.261 619.048 507.544 619.763C508.827 620.478 509.826 621.477 510.541 622.759C511.277 624.042 511.645 625.525 511.645 627.207C511.645 628.89 511.277 630.383 510.541 631.686C509.826 632.969 508.827 633.968 507.544 634.683C506.261 635.398 504.81 635.756 503.191 635.756C501.992 635.756 500.888 635.524 499.879 635.062C498.89 634.599 498.049 633.926 497.355 633.043V641.686H494.327V618.848H497.229V621.498C497.902 620.572 498.754 619.878 499.784 619.416C500.815 618.932 501.95 618.69 503.191 618.69ZM502.939 633.106C504.011 633.106 504.968 632.864 505.809 632.38C506.671 631.876 507.344 631.182 507.828 630.298C508.333 629.394 508.585 628.364 508.585 627.207C508.585 626.051 508.333 625.031 507.828 624.147C507.344 623.243 506.671 622.549 505.809 622.065C504.968 621.582 504.011 621.34 502.939 621.34C501.887 621.34 500.93 621.592 500.068 622.097C499.227 622.581 498.554 623.264 498.049 624.147C497.566 625.031 497.324 626.051 497.324 627.207C497.324 628.364 497.566 629.394 498.049 630.298C498.533 631.182 499.206 631.876 500.068 632.38C500.93 632.864 501.887 633.106 502.939 633.106ZM521.763 618.69C524.076 618.69 525.843 619.258 527.062 620.394C528.303 621.529 528.924 623.222 528.924 625.472V635.566H526.053V633.358C525.548 634.136 524.823 634.736 523.876 635.156C522.951 635.556 521.847 635.756 520.564 635.756C518.693 635.756 517.189 635.304 516.053 634.399C514.939 633.495 514.382 632.307 514.382 630.835C514.382 629.363 514.918 628.185 515.99 627.302C517.063 626.397 518.766 625.945 521.101 625.945H525.895V625.346C525.895 624.042 525.517 623.043 524.76 622.349C524.003 621.655 522.888 621.308 521.416 621.308C520.428 621.308 519.46 621.477 518.514 621.813C517.568 622.128 516.768 622.56 516.117 623.106L514.855 620.835C515.717 620.141 516.747 619.615 517.946 619.258C519.145 618.879 520.417 618.69 521.763 618.69ZM521.069 633.421C522.226 633.421 523.225 633.169 524.066 632.664C524.907 632.139 525.517 631.403 525.895 630.456V628.122H521.227C518.661 628.122 517.378 628.984 517.378 630.709C517.378 631.55 517.704 632.212 518.356 632.696C519.008 633.18 519.912 633.421 521.069 633.421ZM534.528 618.848H537.556V635.566H534.528V618.848ZM536.042 615.63C535.453 615.63 534.959 615.441 534.559 615.063C534.181 614.684 533.991 614.221 533.991 613.675C533.991 613.128 534.181 612.665 534.559 612.287C534.959 611.887 535.453 611.687 536.042 611.687C536.631 611.687 537.114 611.877 537.493 612.255C537.892 612.613 538.092 613.065 538.092 613.611C538.092 614.179 537.892 614.663 537.493 615.063C537.114 615.441 536.631 615.63 536.042 615.63ZM559.331 618.848V633.295C559.331 636.218 558.605 638.374 557.154 639.762C555.703 641.171 553.537 641.875 550.656 641.875C549.079 641.875 547.575 641.654 546.145 641.213C544.715 640.792 543.559 640.182 542.675 639.383L544.127 637.049C544.905 637.722 545.861 638.248 546.997 638.626C548.154 639.026 549.342 639.226 550.562 639.226C552.517 639.226 553.958 638.763 554.883 637.838C555.83 636.912 556.303 635.503 556.303 633.611V632.286C555.588 633.148 554.704 633.8 553.653 634.242C552.622 634.662 551.497 634.872 550.278 634.872C548.679 634.872 547.228 634.536 545.925 633.863C544.642 633.169 543.632 632.212 542.896 630.992C542.16 629.752 541.792 628.343 541.792 626.766C541.792 625.188 542.16 623.79 542.896 622.57C543.632 621.329 544.642 620.373 545.925 619.7C547.228 619.027 548.679 618.69 550.278 618.69C551.539 618.69 552.707 618.921 553.779 619.384C554.873 619.847 555.766 620.53 556.46 621.435V618.848H559.331ZM550.625 632.223C551.718 632.223 552.696 631.991 553.558 631.529C554.442 631.066 555.125 630.425 555.609 629.605C556.113 628.763 556.366 627.817 556.366 626.766C556.366 625.146 555.83 623.842 554.757 622.854C553.684 621.845 552.307 621.34 550.625 621.34C548.921 621.34 547.533 621.845 546.461 622.854C545.388 623.842 544.852 625.146 544.852 626.766C544.852 627.817 545.094 628.763 545.578 629.605C546.082 630.425 546.766 631.066 547.628 631.529C548.511 631.991 549.51 632.223 550.625 632.223ZM574.044 618.69C576.168 618.69 577.851 619.311 579.091 620.551C580.353 621.771 580.984 623.569 580.984 625.945V635.566H577.956V626.292C577.956 624.673 577.567 623.453 576.789 622.633C576.01 621.813 574.896 621.403 573.445 621.403C571.805 621.403 570.511 621.887 569.565 622.854C568.619 623.8 568.145 625.167 568.145 626.955V635.566H565.117V618.848H568.019V621.371C568.629 620.509 569.449 619.847 570.48 619.384C571.531 618.921 572.719 618.69 574.044 618.69Z" fill="#1A1A1A"/>
<path d="M85.764 542.268C85.764 553.855 95.1853 563.297 106.794 563.297C118.381 563.297 127.823 553.855 127.823 542.268C127.823 530.66 118.381 521.238 106.794 521.238C95.1853 521.238 85.764 530.66 85.764 542.268Z" fill="#130F26"/>
<rect x="98.9624" y="540.282" width="10.9133" height="3.63778" rx="1.81889" transform="rotate(45 98.9624 540.282)" fill="white"/>
<rect x="118.255" y="536.424" width="20.0078" height="3.63778" rx="1.81889" transform="rotate(135 118.255 536.424)" fill="white"/>
<path d="M176.822 553.552L176.79 540.303L170.292 551.217H167.99L161.523 540.587V553.552H156.728V531.471H160.955L169.22 545.192L177.358 531.471H181.554L181.617 553.552H176.822ZM194.584 553.804C192.796 553.804 191.188 553.436 189.758 552.7C188.349 551.943 187.245 550.902 186.445 549.577C185.646 548.252 185.247 546.749 185.247 545.066C185.247 543.384 185.646 541.88 186.445 540.555C187.245 539.231 188.349 538.2 189.758 537.464C191.188 536.707 192.796 536.329 194.584 536.329C196.371 536.329 197.97 536.707 199.379 537.464C200.788 538.2 201.892 539.231 202.691 540.555C203.49 541.88 203.89 543.384 203.89 545.066C203.89 546.749 203.49 548.252 202.691 549.577C201.892 550.902 200.788 551.943 199.379 552.7C197.97 553.436 196.371 553.804 194.584 553.804ZM194.584 549.766C195.846 549.766 196.876 549.346 197.675 548.505C198.495 547.642 198.906 546.496 198.906 545.066C198.906 543.636 198.495 542.501 197.675 541.66C196.876 540.797 195.846 540.366 194.584 540.366C193.322 540.366 192.281 540.797 191.461 541.66C190.641 542.501 190.231 543.636 190.231 545.066C190.231 546.496 190.641 547.642 191.461 548.505C192.281 549.346 193.322 549.766 194.584 549.766ZM217.494 536.329C219.597 536.329 221.29 536.959 222.572 538.221C223.876 539.483 224.528 541.355 224.528 543.836V553.552H219.607V544.593C219.607 543.247 219.313 542.248 218.724 541.596C218.135 540.923 217.283 540.587 216.169 540.587C214.928 540.587 213.94 540.976 213.204 541.754C212.468 542.511 212.1 543.647 212.1 545.161V553.552H207.179V536.581H211.879V538.568C212.531 537.853 213.34 537.306 214.308 536.928C215.275 536.528 216.337 536.329 217.494 536.329ZM239.935 552.732C239.451 553.089 238.852 553.362 238.137 553.552C237.443 553.72 236.707 553.804 235.929 553.804C233.91 553.804 232.343 553.289 231.228 552.258C230.135 551.228 229.588 549.714 229.588 547.716V540.745H226.97V536.959H229.588V532.827H234.509V536.959H238.736V540.745H234.509V547.653C234.509 548.368 234.688 548.925 235.045 549.325C235.424 549.703 235.95 549.893 236.623 549.893C237.401 549.893 238.063 549.682 238.61 549.262L239.935 552.732ZM253.012 536.329C255.115 536.329 256.808 536.959 258.091 538.221C259.395 539.483 260.046 541.355 260.046 543.836V553.552H255.126V544.593C255.126 543.247 254.831 542.248 254.242 541.596C253.653 540.923 252.802 540.587 251.687 540.587C250.446 540.587 249.458 540.976 248.722 541.754C247.986 542.511 247.618 543.647 247.618 545.161V553.552H242.697V530.146H247.618V538.347C248.27 537.695 249.058 537.201 249.984 536.865C250.909 536.507 251.919 536.329 253.012 536.329ZM264.507 530.146H269.428V553.552H264.507V530.146ZM290.84 536.581L283.174 554.593C282.396 556.548 281.429 557.926 280.272 558.725C279.137 559.524 277.759 559.924 276.14 559.924C275.257 559.924 274.384 559.787 273.522 559.514C272.66 559.24 271.955 558.862 271.408 558.378L273.206 554.877C273.585 555.213 274.016 555.476 274.5 555.665C275.004 555.854 275.499 555.949 275.982 555.949C276.655 555.949 277.202 555.781 277.623 555.444C278.043 555.129 278.422 554.593 278.758 553.836L278.821 553.678L271.471 536.581H276.55L281.313 548.095L286.108 536.581H290.84ZM316.67 548.82H306.418L304.462 553.552H299.226L309.068 531.471H314.115L323.988 553.552H318.626L316.67 548.82ZM315.061 544.94L311.56 536.486L308.059 544.94H315.061ZM336.247 536.329C338.35 536.329 340.043 536.959 341.326 538.221C342.63 539.483 343.282 541.355 343.282 543.836V553.552H338.361V544.593C338.361 543.247 338.066 542.248 337.478 541.596C336.889 540.923 336.037 540.587 334.923 540.587C333.682 540.587 332.693 540.976 331.957 541.754C331.221 542.511 330.853 543.647 330.853 545.161V553.552H325.932V536.581H330.632V538.568C331.284 537.853 332.094 537.306 333.061 536.928C334.029 536.528 335.091 536.329 336.247 536.329ZM354.588 536.329C357.216 536.329 359.235 536.959 360.644 538.221C362.053 539.462 362.758 541.344 362.758 543.868V553.552H358.152V551.438C357.227 553.016 355.502 553.804 352.979 553.804C351.675 553.804 350.539 553.583 349.572 553.142C348.626 552.7 347.9 552.09 347.395 551.312C346.891 550.534 346.638 549.651 346.638 548.662C346.638 547.085 347.227 545.844 348.405 544.94C349.603 544.036 351.444 543.584 353.925 543.584H357.837C357.837 542.511 357.511 541.691 356.859 541.123C356.207 540.534 355.229 540.24 353.925 540.24C353.021 540.24 352.127 540.387 351.244 540.682C350.382 540.955 349.646 541.334 349.036 541.817L347.269 538.379C348.195 537.727 349.299 537.222 350.581 536.865C351.885 536.507 353.221 536.329 354.588 536.329ZM354.209 550.492C355.05 550.492 355.797 550.303 356.449 549.924C357.101 549.525 357.563 548.946 357.837 548.189V546.454H354.461C352.442 546.454 351.433 547.117 351.433 548.442C351.433 549.072 351.675 549.577 352.159 549.956C352.663 550.313 353.347 550.492 354.209 550.492ZM367.211 530.146H372.132V553.552H367.211V530.146ZM393.544 536.581L385.879 554.593C385.1 556.548 384.133 557.926 382.976 558.725C381.841 559.524 380.463 559.924 378.844 559.924C377.961 559.924 377.088 559.787 376.226 559.514C375.364 559.24 374.659 558.862 374.113 558.378L375.911 554.877C376.289 555.213 376.72 555.476 377.204 555.665C377.709 555.854 378.203 555.949 378.686 555.949C379.359 555.949 379.906 555.781 380.327 555.444C380.747 555.129 381.126 554.593 381.462 553.836L381.525 553.678L374.176 536.581H379.254L384.017 548.095L388.812 536.581H393.544ZM406.96 552.732C406.476 553.089 405.877 553.362 405.162 553.552C404.468 553.72 403.732 553.804 402.954 553.804C400.935 553.804 399.368 553.289 398.254 552.258C397.16 551.228 396.613 549.714 396.613 547.716V540.745H393.995V536.959H396.613V532.827H401.534V536.959H405.761V540.745H401.534V547.653C401.534 548.368 401.713 548.925 402.07 549.325C402.449 549.703 402.975 549.893 403.648 549.893C404.426 549.893 405.088 549.682 405.635 549.262L406.96 552.732ZM409.722 536.581H414.643V553.552H409.722V536.581ZM412.183 534.215C411.278 534.215 410.542 533.952 409.975 533.426C409.407 532.901 409.123 532.249 409.123 531.471C409.123 530.693 409.407 530.041 409.975 529.515C410.542 528.989 411.278 528.726 412.183 528.726C413.087 528.726 413.823 528.979 414.391 529.483C414.959 529.988 415.242 530.619 415.242 531.376C415.242 532.196 414.959 532.88 414.391 533.426C413.823 533.952 413.087 534.215 412.183 534.215ZM427.412 553.804C425.603 553.804 423.973 553.436 422.522 552.7C421.092 551.943 419.967 550.902 419.147 549.577C418.348 548.252 417.948 546.749 417.948 545.066C417.948 543.384 418.348 541.88 419.147 540.555C419.967 539.231 421.092 538.2 422.522 537.464C423.973 536.707 425.603 536.329 427.412 536.329C429.199 536.329 430.755 536.707 432.08 537.464C433.426 538.2 434.404 539.262 435.014 540.65L431.197 542.7C430.314 541.144 429.042 540.366 427.38 540.366C426.097 540.366 425.035 540.787 424.194 541.628C423.353 542.469 422.932 543.615 422.932 545.066C422.932 546.517 423.353 547.663 424.194 548.505C425.035 549.346 426.097 549.766 427.38 549.766C429.063 549.766 430.335 548.988 431.197 547.432L435.014 549.514C434.404 550.86 433.426 551.911 432.08 552.669C430.755 553.426 429.199 553.804 427.412 553.804ZM443.557 553.804C442.148 553.804 440.77 553.636 439.424 553.299C438.079 552.942 437.006 552.5 436.207 551.975L437.847 548.442C438.604 548.925 439.519 549.325 440.592 549.64C441.664 549.935 442.716 550.082 443.746 550.082C445.828 550.082 446.869 549.567 446.869 548.536C446.869 548.053 446.585 547.706 446.017 547.495C445.449 547.285 444.577 547.106 443.399 546.959C442.011 546.749 440.865 546.507 439.961 546.233C439.056 545.96 438.268 545.476 437.595 544.782C436.943 544.088 436.617 543.1 436.617 541.817C436.617 540.745 436.922 539.798 437.532 538.978C438.163 538.137 439.067 537.485 440.245 537.022C441.443 536.56 442.852 536.329 444.472 536.329C445.67 536.329 446.858 536.465 448.036 536.739C449.235 536.991 450.223 537.348 451.001 537.811L449.361 541.313C447.868 540.471 446.238 540.051 444.472 540.051C443.42 540.051 442.631 540.198 442.106 540.492C441.58 540.787 441.317 541.165 441.317 541.628C441.317 542.154 441.601 542.522 442.169 542.732C442.737 542.942 443.641 543.142 444.882 543.331C446.27 543.563 447.405 543.815 448.288 544.088C449.172 544.341 449.939 544.814 450.591 545.508C451.243 546.202 451.569 547.169 451.569 548.41C451.569 549.461 451.254 550.397 450.623 551.217C449.992 552.038 449.067 552.679 447.847 553.142C446.648 553.583 445.218 553.804 443.557 553.804Z" fill="#1A1A1A"/>
<path d="M96.8021 90.7699C100.459 90.7699 103.335 91.6437 105.432 93.3912C107.53 95.1388 108.578 97.5451 108.578 100.61C108.578 103.675 107.53 106.081 105.432 107.829C103.335 109.577 100.459 110.45 96.8021 110.45H89.8253V119H85.7924V90.7699H96.8021ZM96.6811 106.942C99.2353 106.942 101.185 106.404 102.529 105.329C103.873 104.226 104.545 102.653 104.545 100.61C104.545 98.5668 103.873 97.0074 102.529 95.9319C101.185 94.8296 99.2353 94.2785 96.6811 94.2785H89.8253V106.942H96.6811ZM117.294 101.215C117.966 99.9783 118.961 99.0373 120.279 98.392C121.596 97.7467 123.196 97.4241 125.078 97.4241V101.175C124.863 101.148 124.567 101.134 124.19 101.134C122.093 101.134 120.44 101.766 119.23 103.03C118.047 104.267 117.456 106.041 117.456 108.353V119H113.584V97.6258H117.294V101.215ZM148.97 108.434C148.97 108.73 148.943 109.119 148.889 109.603H131.548C131.79 111.485 132.61 113.004 134.008 114.161C135.433 115.29 137.194 115.854 139.291 115.854C141.845 115.854 143.902 114.994 145.461 113.273L147.599 115.774C146.631 116.903 145.421 117.763 143.969 118.355C142.544 118.946 140.944 119.242 139.17 119.242C136.912 119.242 134.909 118.785 133.161 117.871C131.413 116.93 130.056 115.626 129.088 113.959C128.147 112.292 127.676 110.41 127.676 108.313C127.676 106.243 128.133 104.374 129.048 102.707C129.989 101.04 131.266 99.7497 132.879 98.8356C134.519 97.8946 136.36 97.4241 138.404 97.4241C140.447 97.4241 142.262 97.8946 143.848 98.8356C145.461 99.7497 146.712 101.04 147.599 102.707C148.513 104.374 148.97 106.283 148.97 108.434ZM138.404 100.691C136.549 100.691 134.989 101.255 133.726 102.385C132.489 103.514 131.763 104.992 131.548 106.821H145.26C145.045 105.019 144.305 103.554 143.042 102.425C141.805 101.269 140.259 100.691 138.404 100.691ZM181.084 97.4241C183.772 97.4241 185.896 98.2038 187.456 99.7632C189.042 101.323 189.835 103.635 189.835 106.7V119H185.964V107.143C185.964 105.073 185.48 103.514 184.512 102.465C183.571 101.417 182.213 100.892 180.439 100.892C178.476 100.892 176.917 101.511 175.761 102.748C174.604 103.957 174.026 105.705 174.026 107.99V119H170.155V107.143C170.155 105.073 169.671 103.514 168.703 102.465C167.762 101.417 166.404 100.892 164.63 100.892C162.667 100.892 161.108 101.511 159.952 102.748C158.796 103.957 158.217 105.705 158.217 107.99V119H154.346V97.6258H158.056V100.812C158.836 99.7094 159.858 98.8759 161.121 98.3113C162.385 97.7199 163.823 97.4241 165.436 97.4241C167.103 97.4241 168.582 97.7602 169.873 98.4323C171.163 99.1045 172.158 100.086 172.857 101.376C173.663 100.14 174.779 99.1717 176.204 98.4727C177.656 97.7736 179.283 97.4241 181.084 97.4241ZM196.959 97.6258H200.831V119H196.959V97.6258ZM198.895 93.5122C198.142 93.5122 197.51 93.2702 196.999 92.7863C196.515 92.3024 196.273 91.7109 196.273 91.0118C196.273 90.3128 196.515 89.7213 196.999 89.2374C197.51 88.7265 198.142 88.4711 198.895 88.4711C199.648 88.4711 200.266 88.7131 200.75 89.197C201.261 89.6541 201.516 90.2321 201.516 90.9312C201.516 91.6571 201.261 92.2755 200.75 92.7863C200.266 93.2702 199.648 93.5122 198.895 93.5122ZM228.145 97.6258V119H224.475V115.774C223.695 116.876 222.66 117.736 221.37 118.355C220.106 118.946 218.722 119.242 217.216 119.242C214.366 119.242 212.121 118.462 210.481 116.903C208.841 115.317 208.021 112.991 208.021 109.926V97.6258H211.893V109.482C211.893 111.553 212.39 113.125 213.385 114.201C214.379 115.249 215.804 115.774 217.66 115.774C219.703 115.774 221.316 115.155 222.499 113.919C223.682 112.682 224.273 110.934 224.273 108.676V97.6258H228.145ZM262.253 97.4241C264.942 97.4241 267.066 98.2038 268.625 99.7632C270.212 101.323 271.005 103.635 271.005 106.7V119H267.133V107.143C267.133 105.073 266.649 103.514 265.681 102.465C264.74 101.417 263.383 100.892 261.608 100.892C259.645 100.892 258.086 101.511 256.93 102.748C255.774 103.957 255.196 105.705 255.196 107.99V119H251.324V107.143C251.324 105.073 250.84 103.514 249.872 102.465C248.931 101.417 247.574 100.892 245.799 100.892C243.837 100.892 242.277 101.511 241.121 102.748C239.965 103.957 239.387 105.705 239.387 107.99V119H235.515V97.6258H239.226V100.812C240.005 99.7094 241.027 98.8759 242.291 98.3113C243.554 97.7199 244.993 97.4241 246.606 97.4241C248.273 97.4241 249.752 97.7602 251.042 98.4323C252.333 99.1045 253.327 100.086 254.026 101.376C254.833 100.14 255.949 99.1717 257.374 98.4727C258.825 97.7736 260.452 97.4241 262.253 97.4241Z" fill="#1A1A1A"/>
<path d="M142.558 235.568C142.558 241.035 140.558 245.735 136.558 249.668C132.558 253.535 126.791 255.935 119.258 256.868V268.068H109.258V257.168C104.325 256.902 99.6245 256.035 95.1579 254.568C90.6912 253.102 87.0912 251.302 84.3579 249.168L89.8579 236.968C92.3912 238.835 95.3579 240.402 98.7579 241.668C102.158 242.935 105.658 243.735 109.258 244.068V227.368C104.525 226.235 100.525 224.968 97.2579 223.568C93.9912 222.168 91.2579 220.135 89.0579 217.468C86.8579 214.735 85.7579 211.135 85.7579 206.668C85.7579 201.135 87.7579 196.402 91.7579 192.468C95.8245 188.468 101.658 186.035 109.258 185.168V174.068H119.258V184.968C127.458 185.635 134.225 187.668 139.558 191.068L134.558 203.368C129.558 200.502 124.458 198.768 119.258 198.168V215.168C123.925 216.235 127.858 217.468 131.058 218.868C134.325 220.202 137.058 222.235 139.258 224.968C141.458 227.635 142.558 231.168 142.558 235.568ZM101.858 205.868C101.858 207.535 102.491 208.902 103.758 209.968C105.025 211.035 106.858 211.935 109.258 212.668V198.468C106.725 199.068 104.858 200.035 103.658 201.368C102.458 202.635 101.858 204.135 101.858 205.868ZM119.258 243.668C121.658 243.135 123.458 242.268 124.658 241.068C125.858 239.868 126.458 238.435 126.458 236.768C126.458 235.102 125.825 233.735 124.558 232.668C123.358 231.602 121.591 230.668 119.258 229.868V243.668ZM175.251 186.068V256.068H159.051V199.068H145.051V186.068H175.251ZM217.411 257.268C211.611 257.268 206.444 255.835 201.911 252.968C197.378 250.102 193.811 245.968 191.211 240.568C188.678 235.102 187.411 228.602 187.411 221.068C187.411 213.535 188.678 207.068 191.211 201.668C193.811 196.202 197.378 192.035 201.911 189.168C206.444 186.302 211.611 184.868 217.411 184.868C223.211 184.868 228.378 186.302 232.911 189.168C237.444 192.035 240.978 196.202 243.511 201.668C246.111 207.068 247.411 213.535 247.411 221.068C247.411 228.602 246.111 235.102 243.511 240.568C240.978 245.968 237.444 250.102 232.911 252.968C228.378 255.835 223.211 257.268 217.411 257.268ZM217.411 243.568C221.678 243.568 225.011 241.735 227.411 238.068C229.878 234.402 231.111 228.735 231.111 221.068C231.111 213.402 229.878 207.735 227.411 204.068C225.011 200.402 221.678 198.568 217.411 198.568C213.211 198.568 209.878 200.402 207.411 204.068C205.011 207.735 203.811 213.402 203.811 221.068C203.811 228.735 205.011 234.402 207.411 238.068C209.878 241.735 213.211 243.568 217.411 243.568ZM285.282 257.268C279.482 257.268 274.315 255.835 269.782 252.968C265.249 250.102 261.682 245.968 259.082 240.568C256.549 235.102 255.282 228.602 255.282 221.068C255.282 213.535 256.549 207.068 259.082 201.668C261.682 196.202 265.249 192.035 269.782 189.168C274.315 186.302 279.482 184.868 285.282 184.868C291.082 184.868 296.249 186.302 300.782 189.168C305.315 192.035 308.849 196.202 311.382 201.668C313.982 207.068 315.282 213.535 315.282 221.068C315.282 228.602 313.982 235.102 311.382 240.568C308.849 245.968 305.315 250.102 300.782 252.968C296.249 255.835 291.082 257.268 285.282 257.268ZM285.282 243.568C289.549 243.568 292.882 241.735 295.282 238.068C297.749 234.402 298.982 228.735 298.982 221.068C298.982 213.402 297.749 207.735 295.282 204.068C292.882 200.402 289.549 198.568 285.282 198.568C281.082 198.568 277.749 200.402 275.282 204.068C272.882 207.735 271.682 213.402 271.682 221.068C271.682 228.735 272.882 234.402 275.282 238.068C277.749 241.735 281.082 243.568 285.282 243.568ZM353.153 257.268C347.353 257.268 342.187 255.835 337.653 252.968C333.12 250.102 329.553 245.968 326.953 240.568C324.42 235.102 323.153 228.602 323.153 221.068C323.153 213.535 324.42 207.068 326.953 201.668C329.553 196.202 333.12 192.035 337.653 189.168C342.187 186.302 347.353 184.868 353.153 184.868C358.953 184.868 364.12 186.302 368.653 189.168C373.187 192.035 376.72 196.202 379.253 201.668C381.853 207.068 383.153 213.535 383.153 221.068C383.153 228.602 381.853 235.102 379.253 240.568C376.72 245.968 373.187 250.102 368.653 252.968C364.12 255.835 358.953 257.268 353.153 257.268ZM353.153 243.568C357.42 243.568 360.753 241.735 363.153 238.068C365.62 234.402 366.853 228.735 366.853 221.068C366.853 213.402 365.62 207.735 363.153 204.068C360.753 200.402 357.42 198.568 353.153 198.568C348.953 198.568 345.62 200.402 343.153 204.068C340.753 207.735 339.553 213.402 339.553 221.068C339.553 228.735 340.753 234.402 343.153 238.068C345.62 241.735 348.953 243.568 353.153 243.568ZM395.44 232.492H399.332L390.092 258.868H386.2L395.44 232.492ZM418.249 256.068L418.221 244.308L412.453 253.996H410.409L404.669 244.56V256.068H400.413V236.468H404.165L411.501 248.648L418.725 236.468H422.449L422.505 256.068H418.249ZM434.015 256.292C432.429 256.292 431.001 255.966 429.731 255.312C428.481 254.64 427.501 253.716 426.791 252.54C426.082 251.364 425.727 250.03 425.727 248.536C425.727 247.043 426.082 245.708 426.791 244.532C427.501 243.356 428.481 242.442 429.731 241.788C431.001 241.116 432.429 240.78 434.015 240.78C435.602 240.78 437.021 241.116 438.271 241.788C439.522 242.442 440.502 243.356 441.211 244.532C441.921 245.708 442.275 247.043 442.275 248.536C442.275 250.03 441.921 251.364 441.211 252.54C440.502 253.716 439.522 254.64 438.271 255.312C437.021 255.966 435.602 256.292 434.015 256.292ZM434.015 252.708C435.135 252.708 436.05 252.335 436.759 251.588C437.487 250.823 437.851 249.806 437.851 248.536C437.851 247.267 437.487 246.259 436.759 245.512C436.05 244.747 435.135 244.364 434.015 244.364C432.895 244.364 431.971 244.747 431.243 245.512C430.515 246.259 430.151 247.267 430.151 248.536C430.151 249.806 430.515 250.823 431.243 251.588C431.971 252.335 432.895 252.708 434.015 252.708ZM454.351 240.78C456.218 240.78 457.72 241.34 458.859 242.46C460.016 243.58 460.595 245.242 460.595 247.444V256.068H456.227V248.116C456.227 246.922 455.966 246.035 455.443 245.456C454.92 244.859 454.164 244.56 453.175 244.56C452.074 244.56 451.196 244.906 450.543 245.596C449.89 246.268 449.563 247.276 449.563 248.62V256.068H445.195V241.004H449.367V242.768C449.946 242.134 450.664 241.648 451.523 241.312C452.382 240.958 453.324 240.78 454.351 240.78ZM474.27 255.34C473.841 255.658 473.309 255.9 472.674 256.068C472.058 256.218 471.405 256.292 470.714 256.292C468.922 256.292 467.532 255.835 466.542 254.92C465.572 254.006 465.086 252.662 465.086 250.888V244.7H462.762V241.34H465.086V237.672H469.454V241.34H473.206V244.7H469.454V250.832C469.454 251.467 469.613 251.962 469.93 252.316C470.266 252.652 470.733 252.82 471.33 252.82C472.021 252.82 472.609 252.634 473.094 252.26L474.27 255.34ZM485.878 240.78C487.745 240.78 489.248 241.34 490.386 242.46C491.544 243.58 492.122 245.242 492.122 247.444V256.068H487.754V248.116C487.754 246.922 487.493 246.035 486.97 245.456C486.448 244.859 485.692 244.56 484.702 244.56C483.601 244.56 482.724 244.906 482.07 245.596C481.417 246.268 481.09 247.276 481.09 248.62V256.068H476.722V235.292H481.09V242.572C481.669 241.994 482.369 241.555 483.19 241.256C484.012 240.939 484.908 240.78 485.878 240.78Z" fill="#1A1A1A"/>
<rect x="81.6706" y="809" width="726.884" height="97" rx="16" fill="#130F26"/>
<path d="M343.886 867.836C342.337 867.836 340.834 867.631 339.378 867.22C337.941 866.791 336.784 866.24 335.906 865.568L337.446 862.152C338.286 862.768 339.285 863.263 340.442 863.636C341.6 864.009 342.757 864.196 343.914 864.196C345.202 864.196 346.154 864.009 346.77 863.636C347.386 863.244 347.694 862.731 347.694 862.096C347.694 861.629 347.508 861.247 347.134 860.948C346.78 860.631 346.313 860.379 345.734 860.192C345.174 860.005 344.409 859.8 343.438 859.576C341.945 859.221 340.722 858.867 339.77 858.512C338.818 858.157 337.997 857.588 337.306 856.804C336.634 856.02 336.298 854.975 336.298 853.668C336.298 852.529 336.606 851.503 337.222 850.588C337.838 849.655 338.762 848.917 339.994 848.376C341.245 847.835 342.766 847.564 344.558 847.564C345.809 847.564 347.032 847.713 348.226 848.012C349.421 848.311 350.466 848.74 351.362 849.3L349.962 852.744C348.152 851.717 346.341 851.204 344.53 851.204C343.261 851.204 342.318 851.409 341.702 851.82C341.105 852.231 340.806 852.772 340.806 853.444C340.806 854.116 341.152 854.62 341.842 854.956C342.552 855.273 343.625 855.591 345.062 855.908C346.556 856.263 347.778 856.617 348.73 856.972C349.682 857.327 350.494 857.887 351.166 858.652C351.857 859.417 352.202 860.453 352.202 861.76C352.202 862.88 351.885 863.907 351.25 864.84C350.634 865.755 349.701 866.483 348.45 867.024C347.2 867.565 345.678 867.836 343.886 867.836ZM362.274 867.724C360.669 867.724 359.222 867.397 357.934 866.744C356.665 866.072 355.666 865.148 354.938 863.972C354.229 862.796 353.874 861.461 353.874 859.968C353.874 858.475 354.229 857.14 354.938 855.964C355.666 854.788 356.665 853.873 357.934 853.22C359.222 852.548 360.669 852.212 362.274 852.212C363.861 852.212 365.242 852.548 366.418 853.22C367.613 853.873 368.481 854.816 369.022 856.048L365.634 857.868C364.85 856.487 363.721 855.796 362.246 855.796C361.107 855.796 360.165 856.169 359.418 856.916C358.671 857.663 358.298 858.68 358.298 859.968C358.298 861.256 358.671 862.273 359.418 863.02C360.165 863.767 361.107 864.14 362.246 864.14C363.739 864.14 364.869 863.449 365.634 862.068L369.022 863.916C368.481 865.111 367.613 866.044 366.418 866.716C365.242 867.388 363.861 867.724 362.274 867.724ZM380.584 852.212C382.45 852.212 383.953 852.772 385.092 853.892C386.249 855.012 386.828 856.673 386.828 858.876V867.5H382.46V859.548C382.46 858.353 382.198 857.467 381.676 856.888C381.153 856.291 380.397 855.992 379.408 855.992C378.306 855.992 377.429 856.337 376.776 857.028C376.122 857.7 375.796 858.708 375.796 860.052V867.5H371.428V846.724H375.796V854.004C376.374 853.425 377.074 852.987 377.896 852.688C378.717 852.371 379.613 852.212 380.584 852.212ZM405.707 860.024C405.707 860.08 405.679 860.472 405.623 861.2H394.227C394.432 862.133 394.918 862.871 395.683 863.412C396.448 863.953 397.4 864.224 398.539 864.224C399.323 864.224 400.014 864.112 400.611 863.888C401.227 863.645 401.796 863.272 402.319 862.768L404.643 865.288C403.224 866.912 401.152 867.724 398.427 867.724C396.728 867.724 395.226 867.397 393.919 866.744C392.612 866.072 391.604 865.148 390.895 863.972C390.186 862.796 389.831 861.461 389.831 859.968C389.831 858.493 390.176 857.168 390.867 855.992C391.576 854.797 392.538 853.873 393.751 853.22C394.983 852.548 396.355 852.212 397.867 852.212C399.342 852.212 400.676 852.529 401.871 853.164C403.066 853.799 403.999 854.713 404.671 855.908C405.362 857.084 405.707 858.456 405.707 860.024ZM397.895 855.516C396.906 855.516 396.075 855.796 395.403 856.356C394.731 856.916 394.32 857.681 394.171 858.652H401.591C401.442 857.7 401.031 856.944 400.359 856.384C399.687 855.805 398.866 855.516 397.895 855.516ZM423.959 846.724V867.5H419.787V865.764C418.704 867.071 417.136 867.724 415.083 867.724C413.664 867.724 412.376 867.407 411.219 866.772C410.08 866.137 409.184 865.232 408.531 864.056C407.878 862.88 407.551 861.517 407.551 859.968C407.551 858.419 407.878 857.056 408.531 855.88C409.184 854.704 410.08 853.799 411.219 853.164C412.376 852.529 413.664 852.212 415.083 852.212C417.006 852.212 418.508 852.819 419.591 854.032V846.724H423.959ZM415.839 864.14C416.94 864.14 417.855 863.767 418.583 863.02C419.311 862.255 419.675 861.237 419.675 859.968C419.675 858.699 419.311 857.691 418.583 856.944C417.855 856.179 416.94 855.796 415.839 855.796C414.719 855.796 413.795 856.179 413.067 856.944C412.339 857.691 411.975 858.699 411.975 859.968C411.975 861.237 412.339 862.255 413.067 863.02C413.795 863.767 414.719 864.14 415.839 864.14ZM443.178 852.436V867.5H439.034V865.708C438.455 866.361 437.764 866.865 436.962 867.22C436.159 867.556 435.291 867.724 434.358 867.724C432.379 867.724 430.811 867.155 429.654 866.016C428.496 864.877 427.918 863.188 427.918 860.948V852.436H432.286V860.304C432.286 862.731 433.303 863.944 435.338 863.944C436.383 863.944 437.223 863.608 437.858 862.936C438.492 862.245 438.81 861.228 438.81 859.884V852.436H443.178ZM447.224 846.724H451.592V867.5H447.224V846.724ZM470.402 860.024C470.402 860.08 470.374 860.472 470.318 861.2H458.922C459.128 862.133 459.613 862.871 460.378 863.412C461.144 863.953 462.096 864.224 463.234 864.224C464.018 864.224 464.709 864.112 465.306 863.888C465.922 863.645 466.492 863.272 467.014 862.768L469.338 865.288C467.92 866.912 465.848 867.724 463.122 867.724C461.424 867.724 459.921 867.397 458.614 866.744C457.308 866.072 456.3 865.148 455.59 863.972C454.881 862.796 454.526 861.461 454.526 859.968C454.526 858.493 454.872 857.168 455.562 855.992C456.272 854.797 457.233 853.873 458.446 853.22C459.678 852.548 461.05 852.212 462.562 852.212C464.037 852.212 465.372 852.529 466.566 853.164C467.761 853.799 468.694 854.713 469.366 855.908C470.057 857.084 470.402 858.456 470.402 860.024ZM462.59 855.516C461.601 855.516 460.77 855.796 460.098 856.356C459.426 856.916 459.016 857.681 458.866 858.652H466.286C466.137 857.7 465.726 856.944 465.054 856.384C464.382 855.805 463.561 855.516 462.59 855.516ZM487.316 852.212C489.649 852.212 491.441 852.772 492.692 853.892C493.943 854.993 494.568 856.664 494.568 858.904V867.5H490.48V865.624C489.659 867.024 488.128 867.724 485.888 867.724C484.731 867.724 483.723 867.528 482.864 867.136C482.024 866.744 481.38 866.203 480.932 865.512C480.484 864.821 480.26 864.037 480.26 863.16C480.26 861.76 480.783 860.659 481.828 859.856C482.892 859.053 484.525 858.652 486.728 858.652H490.2C490.2 857.7 489.911 856.972 489.332 856.468C488.753 855.945 487.885 855.684 486.728 855.684C485.925 855.684 485.132 855.815 484.348 856.076C483.583 856.319 482.929 856.655 482.388 857.084L480.82 854.032C481.641 853.453 482.621 853.005 483.76 852.688C484.917 852.371 486.103 852.212 487.316 852.212ZM486.98 864.784C487.727 864.784 488.389 864.616 488.968 864.28C489.547 863.925 489.957 863.412 490.2 862.74V861.2H487.204C485.412 861.2 484.516 861.788 484.516 862.964C484.516 863.524 484.731 863.972 485.16 864.308C485.608 864.625 486.215 864.784 486.98 864.784ZM513.731 867.724C512.126 867.724 510.679 867.397 509.391 866.744C508.122 866.072 507.123 865.148 506.395 863.972C505.686 862.796 505.331 861.461 505.331 859.968C505.331 858.475 505.686 857.14 506.395 855.964C507.123 854.788 508.122 853.873 509.391 853.22C510.679 852.548 512.126 852.212 513.731 852.212C515.318 852.212 516.699 852.548 517.875 853.22C519.07 853.873 519.938 854.816 520.479 856.048L517.091 857.868C516.307 856.487 515.178 855.796 513.703 855.796C512.564 855.796 511.622 856.169 510.875 856.916C510.128 857.663 509.755 858.68 509.755 859.968C509.755 861.256 510.128 862.273 510.875 863.02C511.622 863.767 512.564 864.14 513.703 864.14C515.196 864.14 516.326 863.449 517.091 862.068L520.479 863.916C519.938 865.111 519.07 866.044 517.875 866.716C516.699 867.388 515.318 867.724 513.731 867.724ZM529.07 852.212C531.403 852.212 533.195 852.772 534.446 853.892C535.697 854.993 536.322 856.664 536.322 858.904V867.5H532.234V865.624C531.413 867.024 529.882 867.724 527.642 867.724C526.485 867.724 525.477 867.528 524.618 867.136C523.778 866.744 523.134 866.203 522.686 865.512C522.238 864.821 522.014 864.037 522.014 863.16C522.014 861.76 522.537 860.659 523.582 859.856C524.646 859.053 526.279 858.652 528.482 858.652H531.954C531.954 857.7 531.665 856.972 531.086 856.468C530.507 855.945 529.639 855.684 528.482 855.684C527.679 855.684 526.886 855.815 526.102 856.076C525.337 856.319 524.683 856.655 524.142 857.084L522.574 854.032C523.395 853.453 524.375 853.005 525.514 852.688C526.671 852.371 527.857 852.212 529.07 852.212ZM528.734 864.784C529.481 864.784 530.143 864.616 530.722 864.28C531.301 863.925 531.711 863.412 531.954 862.74V861.2H528.958C527.166 861.2 526.27 861.788 526.27 862.964C526.27 863.524 526.485 863.972 526.914 864.308C527.362 864.625 527.969 864.784 528.734 864.784ZM540.275 846.724H544.643V867.5H540.275V846.724ZM548.697 846.724H553.065V867.5H548.697V846.724Z" fill="white"/>
</svg>
