<svg width="890" height="986" viewBox="0 0 890 986" fill="none" xmlns="http://www.w3.org/2000/svg">
<rect width="890" height="986" rx="32" fill="white"/>
<rect x="0.85" y="0.85" width="888.3" height="984.3" rx="31.15" stroke="black" stroke-opacity="0.2" stroke-width="1.7" stroke-miterlimit="2.61313"/>
<path d="M85.8782 378.721C85.8782 390.308 95.2994 399.751 106.908 399.751C118.495 399.751 127.937 390.308 127.937 378.721C127.937 367.113 118.495 357.691 106.908 357.691C95.2994 357.691 85.8782 367.113 85.8782 378.721Z" fill="#130F26"/>
<rect x="99.0765" y="376.735" width="10.9133" height="3.63778" rx="1.81889" transform="rotate(45 99.0765 376.735)" fill="white"/>
<rect x="118.369" y="372.877" width="20.0078" height="3.63778" rx="1.81889" transform="rotate(135 118.369 372.877)" fill="white"/>
<path d="M175.674 385.368H172.078V390.005H167.094V385.368H155.202V381.93L165.612 367.924H170.974L161.322 381.204H167.252V377.072H172.078V381.204H175.674V385.368ZM197.082 367.924C199.038 367.924 200.731 368.25 202.161 368.902C203.612 369.554 204.727 370.479 205.505 371.678C206.283 372.876 206.672 374.296 206.672 375.936C206.672 377.555 206.283 378.975 205.505 380.195C204.727 381.393 203.612 382.319 202.161 382.97C200.731 383.601 199.038 383.917 197.082 383.917H192.634V390.005H187.524V367.924H197.082ZM196.798 379.753C198.334 379.753 199.501 379.427 200.3 378.775C201.099 378.102 201.498 377.156 201.498 375.936C201.498 374.695 201.099 373.749 200.3 373.097C199.501 372.424 198.334 372.088 196.798 372.088H192.634V379.753H196.798ZM218.018 390.257C216.23 390.257 214.621 389.889 213.191 389.153C211.782 388.396 210.678 387.355 209.879 386.03C209.08 384.705 208.68 383.202 208.68 381.519C208.68 379.837 209.08 378.333 209.879 377.009C210.678 375.684 211.782 374.653 213.191 373.917C214.621 373.16 216.23 372.782 218.018 372.782C219.805 372.782 221.403 373.16 222.812 373.917C224.221 374.653 225.325 375.684 226.125 377.009C226.924 378.333 227.323 379.837 227.323 381.519C227.323 383.202 226.924 384.705 226.125 386.03C225.325 387.355 224.221 388.396 222.812 389.153C221.403 389.889 219.805 390.257 218.018 390.257ZM218.018 386.22C219.279 386.22 220.31 385.799 221.109 384.958C221.929 384.096 222.339 382.949 222.339 381.519C222.339 380.089 221.929 378.954 221.109 378.113C220.31 377.25 219.279 376.819 218.018 376.819C216.756 376.819 215.715 377.25 214.895 378.113C214.075 378.954 213.665 380.089 213.665 381.519C213.665 382.949 214.075 384.096 214.895 384.958C215.715 385.799 216.756 386.22 218.018 386.22ZM236.322 390.257C234.913 390.257 233.536 390.089 232.19 389.753C230.844 389.395 229.771 388.953 228.972 388.428L230.612 384.895C231.37 385.378 232.284 385.778 233.357 386.093C234.429 386.388 235.481 386.535 236.511 386.535C238.593 386.535 239.634 386.02 239.634 384.989C239.634 384.506 239.35 384.159 238.782 383.948C238.215 383.738 237.342 383.559 236.164 383.412C234.776 383.202 233.63 382.96 232.726 382.687C231.822 382.413 231.033 381.93 230.36 381.236C229.708 380.542 229.382 379.553 229.382 378.27C229.382 377.198 229.687 376.252 230.297 375.431C230.928 374.59 231.832 373.938 233.01 373.476C234.209 373.013 235.618 372.782 237.237 372.782C238.435 372.782 239.624 372.918 240.801 373.192C242 373.444 242.988 373.802 243.766 374.264L242.126 377.766C240.633 376.924 239.003 376.504 237.237 376.504C236.185 376.504 235.397 376.651 234.871 376.945C234.345 377.24 234.082 377.618 234.082 378.081C234.082 378.607 234.366 378.975 234.934 379.185C235.502 379.395 236.406 379.595 237.647 379.784C239.035 380.016 240.17 380.268 241.054 380.542C241.937 380.794 242.704 381.267 243.356 381.961C244.008 382.655 244.334 383.622 244.334 384.863C244.334 385.915 244.019 386.85 243.388 387.671C242.757 388.491 241.832 389.132 240.612 389.595C239.413 390.036 237.983 390.257 236.322 390.257ZM258.316 389.185C257.833 389.542 257.233 389.816 256.518 390.005C255.824 390.173 255.088 390.257 254.31 390.257C252.291 390.257 250.725 389.742 249.61 388.712C248.517 387.681 247.97 386.167 247.97 384.169V377.198H245.352V373.413H247.97V369.28H252.891V373.413H257.118V377.198H252.891V384.106C252.891 384.821 253.069 385.378 253.427 385.778C253.805 386.156 254.331 386.346 255.004 386.346C255.782 386.346 256.445 386.135 256.991 385.715L258.316 389.185ZM266.788 390.257C265.379 390.257 264.002 390.089 262.656 389.753C261.31 389.395 260.238 388.953 259.438 388.428L261.079 384.895C261.836 385.378 262.751 385.778 263.823 386.093C264.896 386.388 265.947 386.535 266.978 386.535C269.059 386.535 270.1 386.02 270.1 384.989C270.1 384.506 269.817 384.159 269.249 383.948C268.681 383.738 267.808 383.559 266.631 383.412C265.243 383.202 264.096 382.96 263.192 382.687C262.288 382.413 261.499 381.93 260.826 381.236C260.174 380.542 259.848 379.553 259.848 378.27C259.848 377.198 260.153 376.252 260.763 375.431C261.394 374.59 262.298 373.938 263.476 373.476C264.675 373.013 266.084 372.782 267.703 372.782C268.902 372.782 270.09 372.918 271.268 373.192C272.466 373.444 273.455 373.802 274.233 374.264L272.592 377.766C271.099 376.924 269.47 376.504 267.703 376.504C266.652 376.504 265.863 376.651 265.337 376.945C264.811 377.24 264.549 377.618 264.549 378.081C264.549 378.607 264.832 378.975 265.4 379.185C265.968 379.395 266.872 379.595 268.113 379.784C269.501 380.016 270.637 380.268 271.52 380.542C272.403 380.794 273.171 381.267 273.823 381.961C274.475 382.655 274.801 383.622 274.801 384.863C274.801 385.915 274.485 386.85 273.854 387.671C273.223 388.491 272.298 389.132 271.078 389.595C269.88 390.036 268.45 390.257 266.788 390.257ZM295.771 373.129C297.391 373.129 298.842 373.486 300.125 374.201C301.407 374.916 302.406 375.915 303.121 377.198C303.857 378.481 304.225 379.963 304.225 381.646C304.225 383.328 303.857 384.821 303.121 386.125C302.406 387.408 301.407 388.407 300.125 389.122C298.842 389.837 297.391 390.194 295.771 390.194C294.573 390.194 293.469 389.963 292.459 389.5C291.471 389.038 290.63 388.365 289.936 387.481V396.124H286.907V373.286H289.809V375.936C290.482 375.011 291.334 374.317 292.365 373.854C293.395 373.37 294.531 373.129 295.771 373.129ZM295.519 387.544C296.592 387.544 297.548 387.303 298.39 386.819C299.252 386.314 299.925 385.62 300.408 384.737C300.913 383.833 301.165 382.802 301.165 381.646C301.165 380.489 300.913 379.469 300.408 378.586C299.925 377.682 299.252 376.988 298.39 376.504C297.548 376.02 296.592 375.778 295.519 375.778C294.468 375.778 293.511 376.031 292.648 376.535C291.807 377.019 291.134 377.703 290.63 378.586C290.146 379.469 289.904 380.489 289.904 381.646C289.904 382.802 290.146 383.833 290.63 384.737C291.113 385.62 291.786 386.314 292.648 386.819C293.511 387.303 294.468 387.544 295.519 387.544ZM323.519 381.74C323.519 381.972 323.498 382.277 323.456 382.655H309.892C310.081 384.127 310.723 385.315 311.816 386.22C312.931 387.103 314.308 387.544 315.948 387.544C317.946 387.544 319.555 386.871 320.775 385.526L322.447 387.481C321.69 388.365 320.743 389.038 319.608 389.5C318.493 389.963 317.242 390.194 315.854 390.194C314.087 390.194 312.521 389.837 311.154 389.122C309.787 388.386 308.725 387.366 307.968 386.062C307.232 384.758 306.864 383.286 306.864 381.646C306.864 380.026 307.221 378.565 307.936 377.261C308.672 375.957 309.671 374.948 310.933 374.233C312.216 373.497 313.656 373.129 315.254 373.129C316.853 373.129 318.272 373.497 319.513 374.233C320.775 374.948 321.753 375.957 322.447 377.261C323.162 378.565 323.519 380.058 323.519 381.74ZM315.254 375.684C313.803 375.684 312.584 376.125 311.595 377.009C310.628 377.892 310.06 379.048 309.892 380.478H320.617C320.449 379.069 319.87 377.923 318.882 377.04C317.915 376.136 316.706 375.684 315.254 375.684ZM330.626 376.094C331.152 375.126 331.93 374.39 332.961 373.886C333.991 373.381 335.242 373.129 336.714 373.129V376.062C336.546 376.041 336.315 376.031 336.02 376.031C334.38 376.031 333.087 376.525 332.14 377.513C331.215 378.481 330.752 379.869 330.752 381.677V390.005H327.724V373.286H330.626V376.094ZM370.048 390.005L370.016 373.917L362.035 387.324H360.584L352.604 374.012V390.005H349.575V367.924H352.162L361.373 383.444L370.458 367.924H373.044L373.076 390.005H370.048ZM386.422 390.194C384.76 390.194 383.267 389.826 381.942 389.09C380.617 388.354 379.577 387.345 378.819 386.062C378.083 384.758 377.715 383.286 377.715 381.646C377.715 380.005 378.083 378.544 378.819 377.261C379.577 375.957 380.617 374.948 381.942 374.233C383.267 373.497 384.76 373.129 386.422 373.129C388.083 373.129 389.566 373.497 390.869 374.233C392.194 374.948 393.225 375.957 393.961 377.261C394.718 378.544 395.096 380.005 395.096 381.646C395.096 383.286 394.718 384.758 393.961 386.062C393.225 387.345 392.194 388.354 390.869 389.09C389.566 389.826 388.083 390.194 386.422 390.194ZM386.422 387.544C387.494 387.544 388.451 387.303 389.292 386.819C390.154 386.314 390.827 385.62 391.311 384.737C391.795 383.833 392.037 382.802 392.037 381.646C392.037 380.489 391.795 379.469 391.311 378.586C390.827 377.682 390.154 376.988 389.292 376.504C388.451 376.02 387.494 375.778 386.422 375.778C385.349 375.778 384.382 376.02 383.52 376.504C382.678 376.988 382.005 377.682 381.501 378.586C381.017 379.469 380.775 380.489 380.775 381.646C380.775 382.802 381.017 383.833 381.501 384.737C382.005 385.62 382.678 386.314 383.52 386.819C384.382 387.303 385.349 387.544 386.422 387.544ZM408.211 373.129C410.335 373.129 412.018 373.749 413.259 374.99C414.52 376.209 415.151 378.007 415.151 380.384V390.005H412.123V380.731C412.123 379.112 411.734 377.892 410.956 377.072C410.178 376.252 409.063 375.841 407.612 375.841C405.972 375.841 404.678 376.325 403.732 377.292C402.786 378.239 402.313 379.606 402.313 381.393V390.005H399.284V373.286H402.186V375.81C402.796 374.948 403.616 374.285 404.647 373.823C405.698 373.36 406.887 373.129 408.211 373.129ZM430.156 389.027C429.714 389.406 429.167 389.7 428.515 389.91C427.864 390.1 427.191 390.194 426.497 390.194C424.814 390.194 423.51 389.742 422.585 388.838C421.66 387.933 421.197 386.64 421.197 384.958V375.778H418.358V373.286H421.197V369.627H424.225V373.286H429.02V375.778H424.225V384.832C424.225 385.736 424.446 386.43 424.888 386.914C425.35 387.397 426.002 387.639 426.844 387.639C427.769 387.639 428.558 387.376 429.209 386.85L430.156 389.027ZM442.744 373.129C444.868 373.129 446.55 373.749 447.791 374.99C449.053 376.209 449.684 378.007 449.684 380.384V390.005H446.655V380.731C446.655 379.112 446.266 377.892 445.488 377.072C444.71 376.252 443.596 375.841 442.145 375.841C440.504 375.841 439.211 376.325 438.265 377.292C437.318 378.239 436.845 379.606 436.845 381.393V390.005H433.817V366.599H436.845V375.652C437.476 374.853 438.296 374.233 439.306 373.791C440.336 373.349 441.482 373.129 442.744 373.129Z" fill="#1A1A1A"/>
<path d="M85.8782 460.737C85.8782 472.324 95.2994 481.766 106.908 481.766C118.495 481.766 127.937 472.324 127.937 460.737C127.937 449.128 118.495 439.707 106.908 439.707C95.2994 439.707 85.8782 449.128 85.8782 460.737Z" fill="#130F26"/>
<rect x="99.0765" y="458.751" width="10.9133" height="3.63778" rx="1.81889" transform="rotate(45 99.0765 458.751)" fill="white"/>
<rect x="118.369" y="454.893" width="20.0078" height="3.63778" rx="1.81889" transform="rotate(135 118.369 454.893)" fill="white"/>
<path d="M165.769 458.93C167.704 459.245 169.187 459.971 170.217 461.106C171.248 462.221 171.763 463.609 171.763 465.27C171.763 466.553 171.426 467.741 170.754 468.835C170.081 469.907 169.05 470.769 167.662 471.421C166.295 472.073 164.613 472.399 162.615 472.399C161.059 472.399 159.524 472.199 158.01 471.8C156.516 471.379 155.244 470.79 154.193 470.033L156.18 466.122C157.021 466.753 157.989 467.247 159.082 467.604C160.197 467.941 161.332 468.109 162.489 468.109C163.772 468.109 164.781 467.867 165.517 467.383C166.253 466.879 166.621 466.174 166.621 465.27C166.621 463.461 165.244 462.557 162.489 462.557H160.155V459.182L164.697 454.04H155.297V449.939H170.754V453.252L165.769 458.93ZM198.513 472.021L194.254 465.869H194.002H189.554V472.021H184.444V449.939H194.002C195.957 449.939 197.65 450.265 199.08 450.917C200.531 451.569 201.646 452.495 202.424 453.693C203.202 454.892 203.591 456.311 203.591 457.952C203.591 459.592 203.192 461.012 202.393 462.21C201.614 463.388 200.5 464.292 199.049 464.923L204.001 472.021H198.513ZM198.418 457.952C198.418 456.711 198.018 455.765 197.219 455.113C196.42 454.44 195.253 454.103 193.718 454.103H189.554V461.8H193.718C195.253 461.8 196.42 461.464 197.219 460.791C198.018 460.118 198.418 459.171 198.418 457.952ZM223.917 463.598C223.917 463.661 223.885 464.103 223.822 464.923H210.984C211.215 465.974 211.762 466.805 212.624 467.415C213.486 468.025 214.559 468.33 215.842 468.33C216.725 468.33 217.503 468.204 218.176 467.951C218.87 467.678 219.511 467.257 220.1 466.69L222.718 469.528C221.12 471.358 218.786 472.273 215.715 472.273C213.802 472.273 212.109 471.905 210.637 471.169C209.165 470.412 208.029 469.371 207.23 468.046C206.431 466.721 206.031 465.217 206.031 463.535C206.031 461.874 206.42 460.381 207.198 459.056C207.998 457.71 209.081 456.669 210.447 455.933C211.835 455.176 213.381 454.797 215.084 454.797C216.746 454.797 218.249 455.155 219.595 455.87C220.941 456.585 221.993 457.615 222.75 458.961C223.528 460.286 223.917 461.832 223.917 463.598ZM215.116 458.52C214.001 458.52 213.066 458.835 212.309 459.466C211.552 460.097 211.089 460.959 210.921 462.052H219.28C219.112 460.98 218.649 460.128 217.892 459.497C217.135 458.845 216.21 458.52 215.116 458.52ZM243.817 463.598C243.817 463.661 243.785 464.103 243.722 464.923H230.884C231.115 465.974 231.662 466.805 232.524 467.415C233.386 468.025 234.459 468.33 235.742 468.33C236.625 468.33 237.403 468.204 238.076 467.951C238.77 467.678 239.411 467.257 240 466.69L242.618 469.528C241.02 471.358 238.686 472.273 235.615 472.273C233.702 472.273 232.009 471.905 230.537 471.169C229.065 470.412 227.929 469.371 227.13 468.046C226.331 466.721 225.931 465.217 225.931 463.535C225.931 461.874 226.32 460.381 227.098 459.056C227.898 457.71 228.981 456.669 230.348 455.933C231.736 455.176 233.281 454.797 234.985 454.797C236.646 454.797 238.15 455.155 239.495 455.87C240.841 456.585 241.893 457.615 242.65 458.961C243.428 460.286 243.817 461.832 243.817 463.598ZM235.016 458.52C233.902 458.52 232.966 458.835 232.209 459.466C231.452 460.097 230.989 460.959 230.821 462.052H239.18C239.012 460.98 238.549 460.128 237.792 459.497C237.035 458.845 236.11 458.52 235.016 458.52ZM247.093 448.615H252.014V472.021H247.093V448.615ZM262.291 472.273C260.882 472.273 259.504 472.105 258.158 471.768C256.812 471.411 255.74 470.969 254.941 470.443L256.581 466.91C257.338 467.394 258.253 467.794 259.326 468.109C260.398 468.403 261.45 468.551 262.48 468.551C264.562 468.551 265.603 468.035 265.603 467.005C265.603 466.521 265.319 466.174 264.751 465.964C264.183 465.754 263.311 465.575 262.133 465.428C260.745 465.217 259.599 464.976 258.695 464.702C257.79 464.429 257.002 463.945 256.329 463.251C255.677 462.557 255.351 461.569 255.351 460.286C255.351 459.213 255.656 458.267 256.266 457.447C256.897 456.606 257.801 455.954 258.979 455.491C260.177 455.029 261.586 454.797 263.205 454.797C264.404 454.797 265.592 454.934 266.77 455.207C267.969 455.46 268.957 455.817 269.735 456.28L268.095 459.781C266.602 458.94 264.972 458.52 263.205 458.52C262.154 458.52 261.365 458.667 260.84 458.961C260.314 459.256 260.051 459.634 260.051 460.097C260.051 460.622 260.335 460.99 260.903 461.201C261.471 461.411 262.375 461.611 263.616 461.8C265.004 462.031 266.139 462.284 267.022 462.557C267.906 462.81 268.673 463.283 269.325 463.977C269.977 464.671 270.303 465.638 270.303 466.879C270.303 467.93 269.988 468.866 269.357 469.686C268.726 470.506 267.8 471.148 266.581 471.61C265.382 472.052 263.952 472.273 262.291 472.273ZM291.274 455.144C292.893 455.144 294.344 455.502 295.627 456.217C296.91 456.932 297.909 457.931 298.624 459.213C299.36 460.496 299.728 461.979 299.728 463.661C299.728 465.344 299.36 466.837 298.624 468.141C297.909 469.423 296.91 470.422 295.627 471.137C294.344 471.852 292.893 472.21 291.274 472.21C290.075 472.21 288.971 471.978 287.962 471.516C286.973 471.053 286.132 470.38 285.438 469.497V478.14H282.41V455.302H285.312V457.952C285.985 457.026 286.837 456.332 287.867 455.87C288.898 455.386 290.033 455.144 291.274 455.144ZM291.021 469.56C292.094 469.56 293.051 469.318 293.892 468.835C294.754 468.33 295.427 467.636 295.911 466.753C296.416 465.848 296.668 464.818 296.668 463.661C296.668 462.505 296.416 461.485 295.911 460.601C295.427 459.697 294.754 459.003 293.892 458.52C293.051 458.036 292.094 457.794 291.021 457.794C289.97 457.794 289.013 458.046 288.151 458.551C287.31 459.035 286.637 459.718 286.132 460.601C285.648 461.485 285.407 462.505 285.407 463.661C285.407 464.818 285.648 465.848 286.132 466.753C286.616 467.636 287.289 468.33 288.151 468.835C289.013 469.318 289.97 469.56 291.021 469.56ZM319.022 463.756C319.022 463.987 319.001 464.292 318.958 464.671H305.394C305.584 466.143 306.225 467.331 307.319 468.235C308.433 469.118 309.811 469.56 311.451 469.56C313.449 469.56 315.058 468.887 316.277 467.541L317.949 469.497C317.192 470.38 316.246 471.053 315.11 471.516C313.996 471.978 312.744 472.21 311.356 472.21C309.59 472.21 308.023 471.852 306.656 471.137C305.289 470.401 304.227 469.381 303.47 468.077C302.734 466.774 302.366 465.302 302.366 463.661C302.366 462.042 302.724 460.58 303.439 459.277C304.175 457.973 305.174 456.963 306.435 456.248C307.718 455.512 309.159 455.144 310.757 455.144C312.355 455.144 313.775 455.512 315.015 456.248C316.277 456.963 317.255 457.973 317.949 459.277C318.664 460.58 319.022 462.074 319.022 463.756ZM310.757 457.699C309.306 457.699 308.086 458.141 307.098 459.024C306.13 459.907 305.563 461.064 305.394 462.494H316.12C315.951 461.085 315.373 459.939 314.385 459.056C313.417 458.151 312.208 457.699 310.757 457.699ZM326.129 458.109C326.654 457.142 327.433 456.406 328.463 455.901C329.493 455.397 330.745 455.144 332.217 455.144V458.078C332.049 458.057 331.817 458.046 331.523 458.046C329.882 458.046 328.589 458.541 327.643 459.529C326.718 460.496 326.255 461.884 326.255 463.693V472.021H323.227V455.302H326.129V458.109ZM365.55 472.021L365.519 455.933L357.538 469.339H356.087L348.106 456.027V472.021H345.078V449.939H347.664L356.875 465.459L365.96 449.939H368.547L368.578 472.021H365.55ZM381.924 472.21C380.263 472.21 378.77 471.842 377.445 471.106C376.12 470.37 375.079 469.36 374.322 468.077C373.586 466.774 373.218 465.302 373.218 463.661C373.218 462.021 373.586 460.559 374.322 459.277C375.079 457.973 376.12 456.963 377.445 456.248C378.77 455.512 380.263 455.144 381.924 455.144C383.585 455.144 385.068 455.512 386.372 456.248C387.697 456.963 388.727 457.973 389.463 459.277C390.22 460.559 390.599 462.021 390.599 463.661C390.599 465.302 390.22 466.774 389.463 468.077C388.727 469.36 387.697 470.37 386.372 471.106C385.068 471.842 383.585 472.21 381.924 472.21ZM381.924 469.56C382.997 469.56 383.953 469.318 384.795 468.835C385.657 468.33 386.33 467.636 386.813 466.753C387.297 465.848 387.539 464.818 387.539 463.661C387.539 462.505 387.297 461.485 386.813 460.601C386.33 459.697 385.657 459.003 384.795 458.52C383.953 458.036 382.997 457.794 381.924 457.794C380.852 457.794 379.884 458.036 379.022 458.52C378.181 459.003 377.508 459.697 377.003 460.601C376.519 461.485 376.278 462.505 376.278 463.661C376.278 464.818 376.519 465.848 377.003 466.753C377.508 467.636 378.181 468.33 379.022 468.835C379.884 469.318 380.852 469.56 381.924 469.56ZM403.714 455.144C405.838 455.144 407.52 455.765 408.761 457.005C410.023 458.225 410.654 460.023 410.654 462.399V472.021H407.625V462.746C407.625 461.127 407.236 459.907 406.458 459.087C405.68 458.267 404.566 457.857 403.115 457.857C401.474 457.857 400.181 458.341 399.235 459.308C398.288 460.254 397.815 461.621 397.815 463.409V472.021H394.787V455.302H397.689V457.826C398.299 456.963 399.119 456.301 400.149 455.838C401.201 455.376 402.389 455.144 403.714 455.144ZM425.658 471.043C425.217 471.421 424.67 471.716 424.018 471.926C423.366 472.115 422.693 472.21 421.999 472.21C420.317 472.21 419.013 471.758 418.088 470.853C417.162 469.949 416.7 468.656 416.7 466.973V457.794H413.861V455.302H416.7V451.643H419.728V455.302H424.523V457.794H419.728V466.847C419.728 467.751 419.949 468.445 420.39 468.929C420.853 469.413 421.505 469.655 422.346 469.655C423.271 469.655 424.06 469.392 424.712 468.866L425.658 471.043ZM438.246 455.144C440.37 455.144 442.053 455.765 443.294 457.005C444.555 458.225 445.186 460.023 445.186 462.399V472.021H442.158V462.746C442.158 461.127 441.769 459.907 440.991 459.087C440.213 458.267 439.098 457.857 437.647 457.857C436.007 457.857 434.713 458.341 433.767 459.308C432.821 460.254 432.348 461.621 432.348 463.409V472.021H429.319V448.615H432.348V457.668C432.978 456.869 433.799 456.248 434.808 455.807C435.839 455.365 436.985 455.144 438.246 455.144Z" fill="#1A1A1A"/>
<path d="M85.8782 543.237C85.8782 554.824 95.2994 564.266 106.908 564.266C118.495 564.266 127.937 554.824 127.937 543.237C127.937 531.628 118.495 522.207 106.908 522.207C95.2994 522.207 85.8782 531.628 85.8782 543.237Z" fill="#130F26"/>
<rect x="99.0765" y="541.251" width="10.9133" height="3.63778" rx="1.81889" transform="rotate(45 99.0765 541.251)" fill="white"/>
<rect x="118.369" y="537.393" width="20.0078" height="3.63778" rx="1.81889" transform="rotate(135 118.369 537.393)" fill="white"/>
<path d="M171.605 549.215H159.871L157.442 554.735H154.193L164.192 532.654H167.315L177.346 554.735H174.034L171.605 549.215ZM170.501 546.692L165.738 535.872L160.975 546.692H170.501ZM187.331 554.925C185.628 554.925 184.103 554.557 182.757 553.821C181.433 553.085 180.392 552.075 179.634 550.792C178.877 549.488 178.499 548.016 178.499 546.376C178.499 544.736 178.877 543.274 179.634 541.991C180.392 540.688 181.433 539.678 182.757 538.963C184.103 538.227 185.628 537.859 187.331 537.859C188.845 537.859 190.191 538.164 191.369 538.774C192.568 539.384 193.493 540.267 194.145 541.424L191.842 542.906C191.316 542.107 190.665 541.508 189.886 541.108C189.108 540.709 188.246 540.509 187.3 540.509C186.206 540.509 185.218 540.751 184.335 541.234C183.472 541.718 182.789 542.412 182.284 543.316C181.801 544.2 181.559 545.219 181.559 546.376C181.559 547.554 181.801 548.595 182.284 549.499C182.789 550.382 183.472 551.066 184.335 551.549C185.218 552.033 186.206 552.275 187.3 552.275C188.246 552.275 189.108 552.075 189.886 551.676C190.665 551.276 191.316 550.677 191.842 549.878L194.145 551.329C193.493 552.485 192.568 553.379 191.369 554.01C190.191 554.62 188.845 554.925 187.331 554.925ZM205.106 554.925C203.402 554.925 201.878 554.557 200.532 553.821C199.207 553.085 198.166 552.075 197.409 550.792C196.652 549.488 196.273 548.016 196.273 546.376C196.273 544.736 196.652 543.274 197.409 541.991C198.166 540.688 199.207 539.678 200.532 538.963C201.878 538.227 203.402 537.859 205.106 537.859C206.62 537.859 207.966 538.164 209.144 538.774C210.342 539.384 211.268 540.267 211.919 541.424L209.617 542.906C209.091 542.107 208.439 541.508 207.661 541.108C206.883 540.709 206.021 540.509 205.074 540.509C203.981 540.509 202.992 540.751 202.109 541.234C201.247 541.718 200.563 542.412 200.059 543.316C199.575 544.2 199.333 545.219 199.333 546.376C199.333 547.554 199.575 548.595 200.059 549.499C200.563 550.382 201.247 551.066 202.109 551.549C202.992 552.033 203.981 552.275 205.074 552.275C206.021 552.275 206.883 552.075 207.661 551.676C208.439 551.276 209.091 550.677 209.617 549.878L211.919 551.329C211.268 552.485 210.342 553.379 209.144 554.01C207.966 554.62 206.62 554.925 205.106 554.925ZM222.754 554.925C221.093 554.925 219.6 554.557 218.275 553.821C216.95 553.085 215.909 552.075 215.152 550.792C214.416 549.488 214.048 548.016 214.048 546.376C214.048 544.736 214.416 543.274 215.152 541.991C215.909 540.688 216.95 539.678 218.275 538.963C219.6 538.227 221.093 537.859 222.754 537.859C224.416 537.859 225.898 538.227 227.202 538.963C228.527 539.678 229.557 540.688 230.293 541.991C231.05 543.274 231.429 544.736 231.429 546.376C231.429 548.016 231.05 549.488 230.293 550.792C229.557 552.075 228.527 553.085 227.202 553.821C225.898 554.557 224.416 554.925 222.754 554.925ZM222.754 552.275C223.827 552.275 224.784 552.033 225.625 551.549C226.487 551.045 227.16 550.351 227.644 549.467C228.127 548.563 228.369 547.533 228.369 546.376C228.369 545.219 228.127 544.2 227.644 543.316C227.16 542.412 226.487 541.718 225.625 541.234C224.784 540.751 223.827 540.509 222.754 540.509C221.682 540.509 220.714 540.751 219.852 541.234C219.011 541.718 218.338 542.412 217.833 543.316C217.35 544.2 217.108 545.219 217.108 546.376C217.108 547.533 217.35 548.563 217.833 549.467C218.338 550.351 219.011 551.045 219.852 551.549C220.714 552.033 221.682 552.275 222.754 552.275ZM251.2 538.017V554.735H248.329V552.212C247.719 553.074 246.91 553.747 245.9 554.231C244.912 554.693 243.829 554.925 242.651 554.925C240.422 554.925 238.666 554.315 237.383 553.095C236.101 551.854 235.459 550.035 235.459 547.638V538.017H238.487V547.291C238.487 548.91 238.877 550.14 239.655 550.982C240.433 551.802 241.547 552.212 242.998 552.212C244.597 552.212 245.858 551.728 246.784 550.761C247.709 549.793 248.172 548.426 248.172 546.66V538.017H251.2ZM265.892 537.859C268.016 537.859 269.698 538.479 270.939 539.72C272.201 540.94 272.832 542.738 272.832 545.114V554.735H269.803V545.461C269.803 543.842 269.414 542.622 268.636 541.802C267.858 540.982 266.744 540.572 265.293 540.572C263.652 540.572 262.359 541.056 261.413 542.023C260.466 542.969 259.993 544.336 259.993 546.124V554.735H256.965V538.017H259.867V540.54C260.477 539.678 261.297 539.016 262.327 538.553C263.379 538.09 264.567 537.859 265.892 537.859ZM287.836 553.757C287.395 554.136 286.848 554.43 286.196 554.641C285.544 554.83 284.871 554.925 284.177 554.925C282.495 554.925 281.191 554.472 280.266 553.568C279.34 552.664 278.878 551.371 278.878 549.688V540.509H276.039V538.017H278.878V534.358H281.906V538.017H286.701V540.509H281.906V549.562C281.906 550.466 282.127 551.16 282.568 551.644C283.031 552.128 283.683 552.37 284.524 552.37C285.449 552.37 286.238 552.107 286.89 551.581L287.836 553.757ZM320.883 537.859C322.986 537.859 324.647 538.469 325.867 539.689C327.107 540.908 327.728 542.717 327.728 545.114V554.735H324.7V545.461C324.7 543.842 324.321 542.622 323.564 541.802C322.828 540.982 321.766 540.572 320.378 540.572C318.843 540.572 317.623 541.056 316.719 542.023C315.815 542.969 315.362 544.336 315.362 546.124V554.735H312.334V545.461C312.334 543.842 311.956 542.622 311.199 541.802C310.463 540.982 309.401 540.572 308.013 540.572C306.477 540.572 305.258 541.056 304.353 542.023C303.449 542.969 302.997 544.336 302.997 546.124V554.735H299.969V538.017H302.871V540.509C303.481 539.647 304.28 538.995 305.268 538.553C306.257 538.09 307.382 537.859 308.643 537.859C309.947 537.859 311.104 538.122 312.113 538.648C313.123 539.173 313.901 539.941 314.448 540.95C315.079 539.983 315.951 539.226 317.066 538.679C318.201 538.132 319.474 537.859 320.883 537.859ZM339.388 537.859C341.701 537.859 343.468 538.427 344.687 539.562C345.928 540.698 346.549 542.391 346.549 544.641V554.735H343.678V552.527C343.173 553.305 342.448 553.905 341.501 554.325C340.576 554.725 339.472 554.925 338.189 554.925C336.318 554.925 334.814 554.472 333.678 553.568C332.564 552.664 332.007 551.476 332.007 550.004C332.007 548.532 332.543 547.354 333.615 546.471C334.688 545.566 336.391 545.114 338.726 545.114H343.52V544.515C343.52 543.211 343.142 542.212 342.385 541.518C341.628 540.824 340.513 540.477 339.041 540.477C338.053 540.477 337.085 540.646 336.139 540.982C335.193 541.297 334.393 541.729 333.741 542.275L332.48 540.004C333.342 539.31 334.372 538.784 335.571 538.427C336.77 538.048 338.042 537.859 339.388 537.859ZM338.694 552.59C339.851 552.59 340.849 552.338 341.691 551.833C342.532 551.308 343.142 550.571 343.52 549.625V547.291H338.852C336.286 547.291 335.003 548.153 335.003 549.878C335.003 550.719 335.329 551.381 335.981 551.865C336.633 552.348 337.537 552.59 338.694 552.59ZM361.08 537.859C363.204 537.859 364.886 538.479 366.127 539.72C367.389 540.94 368.019 542.738 368.019 545.114V554.735H364.991V545.461C364.991 543.842 364.602 542.622 363.824 541.802C363.046 540.982 361.931 540.572 360.48 540.572C358.84 540.572 357.547 541.056 356.6 542.023C355.654 542.969 355.181 544.336 355.181 546.124V554.735H352.153V538.017H355.055V540.54C355.665 539.678 356.485 539.016 357.515 538.553C358.567 538.09 359.755 537.859 361.08 537.859ZM379.712 537.859C382.025 537.859 383.792 538.427 385.011 539.562C386.252 540.698 386.872 542.391 386.872 544.641V554.735H384.002V552.527C383.497 553.305 382.772 553.905 381.825 554.325C380.9 554.725 379.796 554.925 378.513 554.925C376.641 554.925 375.138 554.472 374.002 553.568C372.888 552.664 372.33 551.476 372.33 550.004C372.33 548.532 372.867 547.354 373.939 546.471C375.012 545.566 376.715 545.114 379.049 545.114H383.844V544.515C383.844 543.211 383.466 542.212 382.709 541.518C381.951 540.824 380.837 540.477 379.365 540.477C378.376 540.477 377.409 540.646 376.463 540.982C375.516 541.297 374.717 541.729 374.065 542.275L372.804 540.004C373.666 539.31 374.696 538.784 375.895 538.427C377.094 538.048 378.366 537.859 379.712 537.859ZM379.018 552.59C380.174 552.59 381.173 552.338 382.015 551.833C382.856 551.308 383.466 550.571 383.844 549.625V547.291H379.176C376.61 547.291 375.327 548.153 375.327 549.878C375.327 550.719 375.653 551.381 376.305 551.865C376.957 552.348 377.861 552.59 379.018 552.59ZM408.562 538.017V552.464C408.562 555.387 407.836 557.543 406.385 558.931C404.934 560.34 402.768 561.044 399.887 561.044C398.31 561.044 396.806 560.823 395.376 560.382C393.946 559.961 392.79 559.351 391.906 558.552L393.357 556.218C394.136 556.891 395.092 557.417 396.228 557.795C397.385 558.195 398.573 558.395 399.793 558.395C401.748 558.395 403.189 557.932 404.114 557.007C405.06 556.081 405.534 554.672 405.534 552.78V551.455C404.819 552.317 403.935 552.969 402.884 553.41C401.853 553.831 400.728 554.041 399.509 554.041C397.91 554.041 396.459 553.705 395.156 553.032C393.873 552.338 392.863 551.381 392.127 550.161C391.391 548.921 391.023 547.512 391.023 545.934C391.023 544.357 391.391 542.959 392.127 541.739C392.863 540.498 393.873 539.541 395.156 538.869C396.459 538.196 397.91 537.859 399.509 537.859C400.77 537.859 401.938 538.09 403.01 538.553C404.104 539.016 404.997 539.699 405.691 540.603V538.017H408.562ZM399.856 551.392C400.949 551.392 401.927 551.16 402.789 550.698C403.672 550.235 404.356 549.594 404.84 548.773C405.344 547.932 405.597 546.986 405.597 545.934C405.597 544.315 405.06 543.011 403.988 542.023C402.915 541.014 401.538 540.509 399.856 540.509C398.152 540.509 396.764 541.014 395.692 542.023C394.619 543.011 394.083 544.315 394.083 545.934C394.083 546.986 394.325 547.932 394.809 548.773C395.313 549.594 395.997 550.235 396.859 550.698C397.742 551.16 398.741 551.392 399.856 551.392ZM429.458 546.471C429.458 546.702 429.437 547.007 429.395 547.386H415.831C416.02 548.858 416.661 550.046 417.755 550.95C418.869 551.833 420.247 552.275 421.887 552.275C423.885 552.275 425.494 551.602 426.713 550.256L428.385 552.212C427.628 553.095 426.682 553.768 425.546 554.231C424.432 554.693 423.18 554.925 421.793 554.925C420.026 554.925 418.459 554.567 417.092 553.852C415.725 553.116 414.663 552.096 413.906 550.792C413.17 549.488 412.802 548.016 412.802 546.376C412.802 544.757 413.16 543.295 413.875 541.991C414.611 540.688 415.61 539.678 416.872 538.963C418.154 538.227 419.595 537.859 421.193 537.859C422.791 537.859 424.211 538.227 425.452 538.963C426.713 539.678 427.691 540.688 428.385 541.991C429.1 543.295 429.458 544.788 429.458 546.471ZM421.193 540.414C419.742 540.414 418.522 540.856 417.534 541.739C416.567 542.622 415.999 543.779 415.831 545.209H426.556C426.387 543.8 425.809 542.654 424.821 541.771C423.853 540.866 422.644 540.414 421.193 540.414ZM454.577 537.859C456.68 537.859 458.341 538.469 459.561 539.689C460.802 540.908 461.422 542.717 461.422 545.114V554.735H458.394V545.461C458.394 543.842 458.015 542.622 457.258 541.802C456.522 540.982 455.46 540.572 454.072 540.572C452.537 540.572 451.317 541.056 450.413 542.023C449.509 542.969 449.057 544.336 449.057 546.124V554.735H446.028V545.461C446.028 543.842 445.65 542.622 444.893 541.802C444.157 540.982 443.095 540.572 441.707 540.572C440.172 540.572 438.952 541.056 438.048 542.023C437.143 542.969 436.691 544.336 436.691 546.124V554.735H433.663V538.017H436.565V540.509C437.175 539.647 437.974 538.995 438.962 538.553C439.951 538.09 441.076 537.859 442.338 537.859C443.641 537.859 444.798 538.122 445.807 538.648C446.817 539.173 447.595 539.941 448.142 540.95C448.773 539.983 449.645 539.226 450.76 538.679C451.896 538.132 453.168 537.859 454.577 537.859ZM482.196 546.471C482.196 546.702 482.175 547.007 482.133 547.386H468.569C468.758 548.858 469.4 550.046 470.493 550.95C471.608 551.833 472.985 552.275 474.625 552.275C476.623 552.275 478.232 551.602 479.452 550.256L481.124 552.212C480.367 553.095 479.42 553.768 478.285 554.231C477.17 554.693 475.919 554.925 474.531 554.925C472.764 554.925 471.198 554.567 469.831 553.852C468.464 553.116 467.402 552.096 466.645 550.792C465.909 549.488 465.541 548.016 465.541 546.376C465.541 544.757 465.898 543.295 466.613 541.991C467.349 540.688 468.348 539.678 469.61 538.963C470.893 538.227 472.333 537.859 473.931 537.859C475.53 537.859 476.949 538.227 478.19 538.963C479.452 539.678 480.43 540.688 481.124 541.991C481.839 543.295 482.196 544.788 482.196 546.471ZM473.931 540.414C472.48 540.414 471.261 540.856 470.272 541.739C469.305 542.622 468.737 543.779 468.569 545.209H479.294C479.126 543.8 478.547 542.654 477.559 541.771C476.592 540.866 475.383 540.414 473.931 540.414ZM495.328 537.859C497.452 537.859 499.135 538.479 500.375 539.72C501.637 540.94 502.268 542.738 502.268 545.114V554.735H499.24V545.461C499.24 543.842 498.851 542.622 498.073 541.802C497.294 540.982 496.18 540.572 494.729 540.572C493.089 540.572 491.795 541.056 490.849 542.023C489.903 542.969 489.429 544.336 489.429 546.124V554.735H486.401V538.017H489.303V540.54C489.913 539.678 490.733 539.016 491.764 538.553C492.815 538.09 494.003 537.859 495.328 537.859ZM517.273 553.757C516.831 554.136 516.284 554.43 515.632 554.641C514.98 554.83 514.307 554.925 513.613 554.925C511.931 554.925 510.627 554.472 509.702 553.568C508.777 552.664 508.314 551.371 508.314 549.688V540.509H505.475V538.017H508.314V534.358H511.342V538.017H516.137V540.509H511.342V549.562C511.342 550.466 511.563 551.16 512.005 551.644C512.467 552.128 513.119 552.37 513.96 552.37C514.886 552.37 515.674 552.107 516.326 551.581L517.273 553.757ZM533.285 560.855C532.086 558.92 531.161 556.702 530.509 554.199C529.857 551.676 529.531 548.973 529.531 546.092C529.531 543.211 529.857 540.509 530.509 537.985C531.161 535.441 532.086 533.222 533.285 531.329H536.156C534.894 533.538 533.968 535.851 533.38 538.269C532.791 540.688 532.496 543.295 532.496 546.092C532.496 548.889 532.791 551.497 533.38 553.915C533.968 556.334 534.894 558.647 536.156 560.855H533.285ZM545.83 532.654V554.735H542.707V535.399H537.723V532.654H545.83ZM574.998 549.215H563.263L560.834 554.735H557.585L567.585 532.654H570.708L580.739 554.735H577.427L574.998 549.215ZM573.894 546.692L569.131 535.872L564.367 546.692H573.894ZM590.724 554.925C589.021 554.925 587.496 554.557 586.15 553.821C584.825 553.085 583.784 552.075 583.027 550.792C582.27 549.488 581.891 548.016 581.891 546.376C581.891 544.736 582.27 543.274 583.027 541.991C583.784 540.688 584.825 539.678 586.15 538.963C587.496 538.227 589.021 537.859 590.724 537.859C592.238 537.859 593.584 538.164 594.762 538.774C595.96 539.384 596.886 540.267 597.538 541.424L595.235 542.906C594.709 542.107 594.057 541.508 593.279 541.108C592.501 540.709 591.639 540.509 590.692 540.509C589.599 540.509 588.61 540.751 587.727 541.234C586.865 541.718 586.182 542.412 585.677 543.316C585.193 544.2 584.951 545.219 584.951 546.376C584.951 547.554 585.193 548.595 585.677 549.499C586.182 550.382 586.865 551.066 587.727 551.549C588.61 552.033 589.599 552.275 590.692 552.275C591.639 552.275 592.501 552.075 593.279 551.676C594.057 551.276 594.709 550.677 595.235 549.878L597.538 551.329C596.886 552.485 595.96 553.379 594.762 554.01C593.584 554.62 592.238 554.925 590.724 554.925ZM608.498 554.925C606.795 554.925 605.27 554.557 603.925 553.821C602.6 553.085 601.559 552.075 600.802 550.792C600.045 549.488 599.666 548.016 599.666 546.376C599.666 544.736 600.045 543.274 600.802 541.991C601.559 540.688 602.6 539.678 603.925 538.963C605.27 538.227 606.795 537.859 608.498 537.859C610.013 537.859 611.358 538.164 612.536 538.774C613.735 539.384 614.66 540.267 615.312 541.424L613.009 542.906C612.484 542.107 611.832 541.508 611.054 541.108C610.275 540.709 609.413 540.509 608.467 540.509C607.373 540.509 606.385 540.751 605.502 541.234C604.64 541.718 603.956 542.412 603.451 543.316C602.968 544.2 602.726 545.219 602.726 546.376C602.726 547.554 602.968 548.595 603.451 549.499C603.956 550.382 604.64 551.066 605.502 551.549C606.385 552.033 607.373 552.275 608.467 552.275C609.413 552.275 610.275 552.075 611.054 551.676C611.832 551.276 612.484 550.677 613.009 549.878L615.312 551.329C614.66 552.485 613.735 553.379 612.536 554.01C611.358 554.62 610.013 554.925 608.498 554.925ZM626.147 554.925C624.485 554.925 622.992 554.557 621.668 553.821C620.343 553.085 619.302 552.075 618.545 550.792C617.809 549.488 617.441 548.016 617.441 546.376C617.441 544.736 617.809 543.274 618.545 541.991C619.302 540.688 620.343 539.678 621.668 538.963C622.992 538.227 624.485 537.859 626.147 537.859C627.808 537.859 629.291 538.227 630.595 538.963C631.919 539.678 632.95 540.688 633.686 541.991C634.443 543.274 634.822 544.736 634.822 546.376C634.822 548.016 634.443 549.488 633.686 550.792C632.95 552.075 631.919 553.085 630.595 553.821C629.291 554.557 627.808 554.925 626.147 554.925ZM626.147 552.275C627.219 552.275 628.176 552.033 629.017 551.549C629.88 551.045 630.553 550.351 631.036 549.467C631.52 548.563 631.762 547.533 631.762 546.376C631.762 545.219 631.52 544.2 631.036 543.316C630.553 542.412 629.88 541.718 629.017 541.234C628.176 540.751 627.219 540.509 626.147 540.509C625.074 540.509 624.107 540.751 623.245 541.234C622.404 541.718 621.731 542.412 621.226 543.316C620.742 544.2 620.5 545.219 620.5 546.376C620.5 547.533 620.742 548.563 621.226 549.467C621.731 550.351 622.404 551.045 623.245 551.549C624.107 552.033 625.074 552.275 626.147 552.275ZM654.592 538.017V554.735H651.722V552.212C651.112 553.074 650.302 553.747 649.293 554.231C648.305 554.693 647.222 554.925 646.044 554.925C643.815 554.925 642.059 554.315 640.776 553.095C639.493 551.854 638.852 550.035 638.852 547.638V538.017H641.88V547.291C641.88 548.91 642.269 550.14 643.047 550.982C643.825 551.802 644.94 552.212 646.391 552.212C647.989 552.212 649.251 551.728 650.176 550.761C651.102 549.793 651.564 548.426 651.564 546.66V538.017H654.592ZM669.285 537.859C671.409 537.859 673.091 538.479 674.332 539.72C675.593 540.94 676.224 542.738 676.224 545.114V554.735H673.196V545.461C673.196 543.842 672.807 542.622 672.029 541.802C671.251 540.982 670.136 540.572 668.685 540.572C667.045 540.572 665.752 541.056 664.805 542.023C663.859 542.969 663.386 544.336 663.386 546.124V554.735H660.357V538.017H663.26V540.54C663.869 539.678 664.69 539.016 665.72 538.553C666.771 538.09 667.96 537.859 669.285 537.859ZM691.229 553.757C690.787 554.136 690.24 554.43 689.589 554.641C688.937 554.83 688.264 554.925 687.57 554.925C685.887 554.925 684.583 554.472 683.658 553.568C682.733 552.664 682.27 551.371 682.27 549.688V540.509H679.431V538.017H682.27V534.358H685.298V538.017H690.093V540.509H685.298V549.562C685.298 550.466 685.519 551.16 685.961 551.644C686.424 552.128 687.075 552.37 687.917 552.37C688.842 552.37 689.631 552.107 690.283 551.581L691.229 553.757ZM693.029 560.855C694.291 558.647 695.216 556.334 695.805 553.915C696.415 551.497 696.72 548.889 696.72 546.092C696.72 543.295 696.415 540.688 695.805 538.269C695.216 535.851 694.291 533.538 693.029 531.329H695.899C697.119 533.222 698.055 535.43 698.707 537.954C699.359 540.477 699.685 543.19 699.685 546.092C699.685 548.973 699.359 551.676 698.707 554.199C698.055 556.723 697.119 558.941 695.899 560.855H693.029Z" fill="#1A1A1A"/>
<path d="M104.901 104.621C106.542 105.078 107.832 105.912 108.773 107.122C109.714 108.305 110.185 109.81 110.185 111.639C110.185 114.085 109.257 115.967 107.402 117.285C105.574 118.602 102.898 119.261 99.3764 119.261H85.9066V91.0306H98.5699C101.796 91.0306 104.283 91.6759 106.031 92.9664C107.805 94.2569 108.692 96.0448 108.692 98.3301C108.692 99.8088 108.343 101.086 107.644 102.161C106.972 103.237 106.058 104.057 104.901 104.621ZM89.9395 94.2972V103.331H98.2069C100.277 103.331 101.863 102.954 102.966 102.202C104.095 101.422 104.66 100.293 104.66 98.8141C104.66 97.3353 104.095 96.2196 102.966 95.4668C101.863 94.6871 100.277 94.2972 98.2069 94.2972H89.9395ZM99.2151 115.994C101.5 115.994 103.221 115.618 104.377 114.865C105.533 114.112 106.111 112.929 106.111 111.316C106.111 108.17 103.813 106.598 99.2151 106.598H89.9395V115.994H99.2151ZM123.648 97.6849C126.605 97.6849 128.864 98.4108 130.423 99.8626C132.009 101.314 132.802 103.479 132.802 106.356V119.261H129.132V116.438C128.487 117.433 127.56 118.199 126.35 118.736C125.167 119.247 123.755 119.503 122.115 119.503C119.722 119.503 117.8 118.925 116.348 117.769C114.923 116.612 114.211 115.093 114.211 113.211C114.211 111.329 114.896 109.824 116.268 108.695C117.639 107.539 119.817 106.96 122.801 106.96H128.931V106.194C128.931 104.527 128.447 103.25 127.479 102.363C126.511 101.476 125.086 101.032 123.204 101.032C121.94 101.032 120.704 101.247 119.494 101.677C118.284 102.081 117.262 102.632 116.429 103.331L114.816 100.427C115.918 99.54 117.235 98.8678 118.768 98.4108C120.3 97.9268 121.927 97.6849 123.648 97.6849ZM122.761 116.518C124.239 116.518 125.516 116.196 126.592 115.55C127.667 114.878 128.447 113.937 128.931 112.727V109.743H122.962C119.682 109.743 118.042 110.845 118.042 113.05C118.042 114.126 118.459 114.972 119.292 115.591C120.126 116.209 121.282 116.518 122.761 116.518ZM146.097 119.503C144.349 119.503 142.669 119.274 141.056 118.817C139.443 118.333 138.179 117.728 137.265 117.002L138.878 113.937C139.819 114.609 140.962 115.147 142.306 115.55C143.65 115.954 145.008 116.155 146.379 116.155C149.767 116.155 151.461 115.188 151.461 113.252C151.461 112.606 151.232 112.096 150.775 111.719C150.318 111.343 149.74 111.074 149.041 110.913C148.369 110.724 147.401 110.523 146.137 110.308C144.417 110.039 143.005 109.73 141.903 109.38C140.827 109.031 139.9 108.439 139.12 107.606C138.34 106.772 137.951 105.603 137.951 104.097C137.951 102.161 138.757 100.615 140.37 99.4593C141.983 98.2763 144.148 97.6849 146.863 97.6849C148.288 97.6849 149.713 97.8596 151.138 98.2091C152.563 98.5586 153.733 99.0291 154.647 99.6206L152.993 102.686C151.246 101.556 149.189 100.992 146.823 100.992C145.183 100.992 143.933 101.261 143.072 101.798C142.212 102.336 141.782 103.049 141.782 103.936C141.782 104.635 142.024 105.186 142.508 105.589C142.992 105.993 143.583 106.288 144.282 106.477C145.008 106.665 146.016 106.88 147.307 107.122C149.028 107.418 150.412 107.74 151.461 108.09C152.536 108.412 153.45 108.977 154.203 109.783C154.956 110.59 155.332 111.719 155.332 113.171C155.332 115.107 154.499 116.653 152.832 117.809C151.192 118.938 148.947 119.503 146.097 119.503ZM160.171 97.8865H164.042V119.261H160.171V97.8865ZM162.107 93.773C161.354 93.773 160.722 93.531 160.211 93.047C159.727 92.5631 159.485 91.9716 159.485 91.2726C159.485 90.5735 159.727 89.9821 160.211 89.4981C160.722 88.9873 161.354 88.7319 162.107 88.7319C162.859 88.7319 163.478 88.9738 163.962 89.4578C164.473 89.9148 164.728 90.4929 164.728 91.1919C164.728 91.9178 164.473 92.5362 163.962 93.047C163.478 93.531 162.859 93.773 162.107 93.773ZM180.75 119.503C178.573 119.503 176.623 119.032 174.903 118.091C173.209 117.15 171.878 115.86 170.91 114.22C169.942 112.553 169.458 110.671 169.458 108.574C169.458 106.477 169.942 104.608 170.91 102.968C171.878 101.301 173.209 100.01 174.903 99.0964C176.623 98.1554 178.573 97.6849 180.75 97.6849C182.686 97.6849 184.407 98.0747 185.913 98.8544C187.445 99.6341 188.628 100.763 189.461 102.242L186.517 104.137C185.845 103.116 185.012 102.35 184.017 101.839C183.022 101.328 181.92 101.072 180.71 101.072C179.312 101.072 178.048 101.382 176.919 102C175.817 102.618 174.943 103.506 174.298 104.662C173.679 105.791 173.37 107.095 173.37 108.574C173.37 110.079 173.679 111.41 174.298 112.566C174.943 113.695 175.817 114.569 176.919 115.188C178.048 115.806 179.312 116.115 180.71 116.115C181.92 116.115 183.022 115.86 184.017 115.349C185.012 114.838 185.845 114.072 186.517 113.05L189.461 114.905C188.628 116.384 187.445 117.527 185.913 118.333C184.407 119.113 182.686 119.503 180.75 119.503Z" fill="#1A1A1A"/>
<path d="M142.672 235.829C142.672 241.296 140.672 245.996 136.672 249.929C132.672 253.796 126.905 256.196 119.372 257.129V268.329H109.372V257.429C104.439 257.162 99.7388 256.296 95.2721 254.829C90.8055 253.362 87.2055 251.562 84.4721 249.429L89.9721 237.229C92.5055 239.096 95.4721 240.662 98.8721 241.929C102.272 243.196 105.772 243.996 109.372 244.329V227.629C104.639 226.496 100.639 225.229 97.3721 223.829C94.1055 222.429 91.3721 220.396 89.1721 217.729C86.9721 214.996 85.8721 211.396 85.8721 206.929C85.8721 201.396 87.8721 196.662 91.8721 192.729C95.9388 188.729 101.772 186.296 109.372 185.429V174.329H119.372V185.229C127.572 185.896 134.339 187.929 139.672 191.329L134.672 203.629C129.672 200.762 124.572 199.029 119.372 198.429V215.429C124.039 216.496 127.972 217.729 131.172 219.129C134.439 220.462 137.172 222.496 139.372 225.229C141.572 227.896 142.672 231.429 142.672 235.829ZM101.972 206.129C101.972 207.796 102.605 209.162 103.872 210.229C105.139 211.296 106.972 212.196 109.372 212.929V198.729C106.839 199.329 104.972 200.296 103.772 201.629C102.572 202.896 101.972 204.396 101.972 206.129ZM119.372 243.929C121.772 243.396 123.572 242.529 124.772 241.329C125.972 240.129 126.572 238.696 126.572 237.029C126.572 235.362 125.939 233.996 124.672 232.929C123.472 231.862 121.705 230.929 119.372 230.129V243.929ZM201.642 243.129V256.329H148.742V245.829L175.742 220.329C178.608 217.596 180.542 215.262 181.542 213.329C182.542 211.329 183.042 209.362 183.042 207.429C183.042 204.629 182.075 202.496 180.142 201.029C178.275 199.496 175.508 198.729 171.842 198.729C168.775 198.729 166.008 199.329 163.542 200.529C161.075 201.662 159.008 203.396 157.342 205.729L145.542 198.129C148.275 194.062 152.042 190.896 156.842 188.629C161.642 186.296 167.142 185.129 173.342 185.129C178.542 185.129 183.075 185.996 186.942 187.729C190.875 189.396 193.908 191.796 196.042 194.929C198.242 197.996 199.342 201.629 199.342 205.829C199.342 209.629 198.542 213.196 196.942 216.529C195.342 219.862 192.242 223.662 187.642 227.929L171.542 243.129H201.642ZM232.926 185.129C242.726 185.129 250.393 188.129 255.926 194.129C261.459 200.062 264.226 208.629 264.226 219.829C264.226 227.762 262.726 234.562 259.726 240.229C256.793 245.896 252.626 250.196 247.226 253.129C241.826 256.062 235.593 257.529 228.526 257.529C224.793 257.529 221.226 257.129 217.826 256.329C214.426 255.462 211.526 254.262 209.126 252.729L215.126 240.829C218.526 243.162 222.893 244.329 228.226 244.329C234.159 244.329 238.859 242.596 242.326 239.129C245.793 235.596 247.659 230.529 247.926 223.929C243.726 228.129 237.926 230.229 230.526 230.229C226.059 230.229 221.993 229.329 218.326 227.529C214.659 225.729 211.759 223.196 209.626 219.929C207.493 216.596 206.426 212.762 206.426 208.429C206.426 203.762 207.593 199.662 209.926 196.129C212.259 192.596 215.426 189.896 219.426 188.029C223.493 186.096 227.993 185.129 232.926 185.129ZM234.126 218.129C237.659 218.129 240.526 217.162 242.726 215.229C244.993 213.229 246.126 210.696 246.126 207.629C246.126 204.562 245.026 202.062 242.826 200.129C240.693 198.196 237.726 197.229 233.926 197.229C230.459 197.229 227.626 198.162 225.426 200.029C223.293 201.896 222.226 204.429 222.226 207.629C222.226 210.829 223.293 213.396 225.426 215.329C227.626 217.196 230.526 218.129 234.126 218.129ZM296.598 185.129C306.398 185.129 314.065 188.129 319.598 194.129C325.131 200.062 327.898 208.629 327.898 219.829C327.898 227.762 326.398 234.562 323.398 240.229C320.465 245.896 316.298 250.196 310.898 253.129C305.498 256.062 299.265 257.529 292.198 257.529C288.465 257.529 284.898 257.129 281.498 256.329C278.098 255.462 275.198 254.262 272.798 252.729L278.798 240.829C282.198 243.162 286.565 244.329 291.898 244.329C297.831 244.329 302.531 242.596 305.998 239.129C309.465 235.596 311.331 230.529 311.598 223.929C307.398 228.129 301.598 230.229 294.198 230.229C289.731 230.229 285.665 229.329 281.998 227.529C278.331 225.729 275.431 223.196 273.298 219.929C271.165 216.596 270.098 212.762 270.098 208.429C270.098 203.762 271.265 199.662 273.598 196.129C275.931 192.596 279.098 189.896 283.098 188.029C287.165 186.096 291.665 185.129 296.598 185.129ZM297.798 218.129C301.331 218.129 304.198 217.162 306.398 215.229C308.665 213.229 309.798 210.696 309.798 207.629C309.798 204.562 308.698 202.062 306.498 200.129C304.365 198.196 301.398 197.229 297.598 197.229C294.131 197.229 291.298 198.162 289.098 200.029C286.965 201.896 285.898 204.429 285.898 207.629C285.898 210.829 286.965 213.396 289.098 215.329C291.298 217.196 294.198 218.129 297.798 218.129ZM340.086 232.753H343.978L334.738 259.129H330.846L340.086 232.753ZM362.895 256.329L362.867 244.569L357.099 254.257H355.055L349.315 244.821V256.329H345.059V236.729H348.811L356.147 248.909L363.371 236.729H367.095L367.151 256.329H362.895ZM378.661 256.553C377.074 256.553 375.646 256.226 374.377 255.573C373.126 254.901 372.146 253.977 371.437 252.801C370.727 251.625 370.373 250.29 370.373 248.797C370.373 247.304 370.727 245.969 371.437 244.793C372.146 243.617 373.126 242.702 374.377 242.049C375.646 241.377 377.074 241.041 378.661 241.041C380.247 241.041 381.666 241.377 382.917 242.049C384.167 242.702 385.147 243.617 385.857 244.793C386.566 245.969 386.921 247.304 386.921 248.797C386.921 250.29 386.566 251.625 385.857 252.801C385.147 253.977 384.167 254.901 382.917 255.573C381.666 256.226 380.247 256.553 378.661 256.553ZM378.661 252.969C379.781 252.969 380.695 252.596 381.405 251.849C382.133 251.084 382.497 250.066 382.497 248.797C382.497 247.528 382.133 246.52 381.405 245.773C380.695 245.008 379.781 244.625 378.661 244.625C377.541 244.625 376.617 245.008 375.889 245.773C375.161 246.52 374.797 247.528 374.797 248.797C374.797 250.066 375.161 251.084 375.889 251.849C376.617 252.596 377.541 252.969 378.661 252.969ZM398.996 241.041C400.863 241.041 402.366 241.601 403.504 242.721C404.662 243.841 405.24 245.502 405.24 247.705V256.329H400.872V248.377C400.872 247.182 400.611 246.296 400.088 245.717C399.566 245.12 398.81 244.821 397.82 244.821C396.719 244.821 395.842 245.166 395.188 245.857C394.535 246.529 394.208 247.537 394.208 248.881V256.329H389.84V241.265H394.012V243.029C394.591 242.394 395.31 241.909 396.168 241.573C397.027 241.218 397.97 241.041 398.996 241.041ZM418.916 255.601C418.487 255.918 417.955 256.161 417.32 256.329C416.704 256.478 416.051 256.553 415.36 256.553C413.568 256.553 412.177 256.096 411.188 255.181C410.217 254.266 409.732 252.922 409.732 251.149V244.961H407.408V241.601H409.732V237.933H414.1V241.601H417.852V244.961H414.1V251.093C414.1 251.728 414.259 252.222 414.576 252.577C414.912 252.913 415.379 253.081 415.976 253.081C416.667 253.081 417.255 252.894 417.74 252.521L418.916 255.601ZM430.524 241.041C432.39 241.041 433.893 241.601 435.032 242.721C436.189 243.841 436.768 245.502 436.768 247.705V256.329H432.4V248.377C432.4 247.182 432.138 246.296 431.616 245.717C431.093 245.12 430.337 244.821 429.348 244.821C428.246 244.821 427.369 245.166 426.716 245.857C426.062 246.529 425.736 247.537 425.736 248.881V256.329H421.368V235.553H425.736V242.833C426.314 242.254 427.014 241.816 427.836 241.517C428.657 241.2 429.553 241.041 430.524 241.041Z" fill="#1A1A1A"/>
</svg>
