<svg width="514" height="708" viewBox="0 0 514 708" fill="none" xmlns="http://www.w3.org/2000/svg">
<rect x="1.5" y="1.5" width="510.608" height="705" rx="30.5" fill="white" stroke="#466FFF" stroke-width="3"/>
<path d="M68.6667 303C68.6667 310.347 74.6401 316.333 82.0001 316.333C89.3467 316.333 95.3334 310.347 95.3334 303C95.3334 295.64 89.3467 289.667 82.0001 289.667C74.6401 289.667 68.6667 295.64 68.6667 303V303Z" fill="#130F26"/>
<rect x="77.0349" y="301.743" width="6.91934" height="2.30645" rx="1.15322" transform="rotate(45 77.0349 301.743)" fill="white"/>
<rect x="89.2668" y="299.297" width="12.6855" height="2.30645" rx="1.15322" transform="rotate(135 89.2668 299.297)" fill="white"/>
<path d="M125.6 307.56H123.32V310.5H120.16V307.56H112.62V305.38L119.22 296.5H122.62L116.5 304.92H120.26V302.3H123.32V304.92H125.6V307.56ZM139.173 296.5C140.413 296.5 141.486 296.707 142.393 297.12C143.313 297.533 144.02 298.12 144.513 298.88C145.006 299.64 145.253 300.54 145.253 301.58C145.253 302.607 145.006 303.507 144.513 304.28C144.02 305.04 143.313 305.627 142.393 306.04C141.486 306.44 140.413 306.64 139.173 306.64H136.353V310.5H133.113V296.5H139.173ZM138.993 304C139.966 304 140.706 303.793 141.213 303.38C141.72 302.953 141.973 302.353 141.973 301.58C141.973 300.793 141.72 300.193 141.213 299.78C140.706 299.353 139.966 299.14 138.993 299.14H136.353V304H138.993ZM152.447 310.66C151.313 310.66 150.293 310.427 149.387 309.96C148.493 309.48 147.793 308.82 147.287 307.98C146.78 307.14 146.527 306.187 146.527 305.12C146.527 304.053 146.78 303.1 147.287 302.26C147.793 301.42 148.493 300.767 149.387 300.3C150.293 299.82 151.313 299.58 152.447 299.58C153.58 299.58 154.593 299.82 155.487 300.3C156.38 300.767 157.08 301.42 157.587 302.26C158.093 303.1 158.347 304.053 158.347 305.12C158.347 306.187 158.093 307.14 157.587 307.98C157.08 308.82 156.38 309.48 155.487 309.96C154.593 310.427 153.58 310.66 152.447 310.66ZM152.447 308.1C153.247 308.1 153.9 307.833 154.407 307.3C154.927 306.753 155.187 306.027 155.187 305.12C155.187 304.213 154.927 303.493 154.407 302.96C153.9 302.413 153.247 302.14 152.447 302.14C151.647 302.14 150.987 302.413 150.467 302.96C149.947 303.493 149.687 304.213 149.687 305.12C149.687 306.027 149.947 306.753 150.467 307.3C150.987 307.833 151.647 308.1 152.447 308.1ZM164.052 310.66C163.159 310.66 162.286 310.553 161.432 310.34C160.579 310.113 159.899 309.833 159.392 309.5L160.432 307.26C160.912 307.567 161.492 307.82 162.172 308.02C162.852 308.207 163.519 308.3 164.172 308.3C165.492 308.3 166.152 307.973 166.152 307.32C166.152 307.013 165.972 306.793 165.612 306.66C165.252 306.527 164.699 306.413 163.952 306.32C163.072 306.187 162.346 306.033 161.772 305.86C161.199 305.687 160.699 305.38 160.272 304.94C159.859 304.5 159.652 303.873 159.652 303.06C159.652 302.38 159.846 301.78 160.232 301.26C160.632 300.727 161.206 300.313 161.952 300.02C162.712 299.727 163.606 299.58 164.632 299.58C165.392 299.58 166.146 299.667 166.892 299.84C167.652 300 168.279 300.227 168.772 300.52L167.732 302.74C166.786 302.207 165.752 301.94 164.632 301.94C163.966 301.94 163.466 302.033 163.132 302.22C162.799 302.407 162.632 302.647 162.632 302.94C162.632 303.273 162.812 303.507 163.172 303.64C163.532 303.773 164.106 303.9 164.892 304.02C165.772 304.167 166.492 304.327 167.052 304.5C167.612 304.66 168.099 304.96 168.512 305.4C168.926 305.84 169.132 306.453 169.132 307.24C169.132 307.907 168.932 308.5 168.532 309.02C168.132 309.54 167.546 309.947 166.772 310.24C166.012 310.52 165.106 310.66 164.052 310.66ZM177.997 309.98C177.691 310.207 177.311 310.38 176.857 310.5C176.417 310.607 175.951 310.66 175.457 310.66C174.177 310.66 173.184 310.333 172.477 309.68C171.784 309.027 171.437 308.067 171.437 306.8V302.38H169.777V299.98H171.437V297.36H174.557V299.98H177.237V302.38H174.557V306.76C174.557 307.213 174.671 307.567 174.897 307.82C175.137 308.06 175.471 308.18 175.897 308.18C176.391 308.18 176.811 308.047 177.157 307.78L177.997 309.98ZM183.369 310.66C182.475 310.66 181.602 310.553 180.749 310.34C179.895 310.113 179.215 309.833 178.709 309.5L179.749 307.26C180.229 307.567 180.809 307.82 181.489 308.02C182.169 308.207 182.835 308.3 183.489 308.3C184.809 308.3 185.469 307.973 185.469 307.32C185.469 307.013 185.289 306.793 184.929 306.66C184.569 306.527 184.015 306.413 183.269 306.32C182.389 306.187 181.662 306.033 181.089 305.86C180.515 305.687 180.015 305.38 179.589 304.94C179.175 304.5 178.969 303.873 178.969 303.06C178.969 302.38 179.162 301.78 179.549 301.26C179.949 300.727 180.522 300.313 181.269 300.02C182.029 299.727 182.922 299.58 183.949 299.58C184.709 299.58 185.462 299.667 186.209 299.84C186.969 300 187.595 300.227 188.089 300.52L187.049 302.74C186.102 302.207 185.069 301.94 183.949 301.94C183.282 301.94 182.782 302.033 182.449 302.22C182.115 302.407 181.949 302.647 181.949 302.94C181.949 303.273 182.129 303.507 182.489 303.64C182.849 303.773 183.422 303.9 184.209 304.02C185.089 304.167 185.809 304.327 186.369 304.5C186.929 304.66 187.415 304.96 187.829 305.4C188.242 305.84 188.449 306.453 188.449 307.24C188.449 307.907 188.249 308.5 187.849 309.02C187.449 309.54 186.862 309.947 186.089 310.24C185.329 310.52 184.422 310.66 183.369 310.66ZM201.745 299.8C202.771 299.8 203.691 300.027 204.505 300.48C205.318 300.933 205.951 301.567 206.405 302.38C206.871 303.193 207.105 304.133 207.105 305.2C207.105 306.267 206.871 307.213 206.405 308.04C205.951 308.853 205.318 309.487 204.505 309.94C203.691 310.393 202.771 310.62 201.745 310.62C200.985 310.62 200.285 310.473 199.645 310.18C199.018 309.887 198.485 309.46 198.045 308.9V314.38H196.125V299.9H197.965V301.58C198.391 300.993 198.931 300.553 199.585 300.26C200.238 299.953 200.958 299.8 201.745 299.8ZM201.585 308.94C202.265 308.94 202.871 308.787 203.405 308.48C203.951 308.16 204.378 307.72 204.685 307.16C205.005 306.587 205.165 305.933 205.165 305.2C205.165 304.467 205.005 303.82 204.685 303.26C204.378 302.687 203.951 302.247 203.405 301.94C202.871 301.633 202.265 301.48 201.585 301.48C200.918 301.48 200.311 301.64 199.765 301.96C199.231 302.267 198.805 302.7 198.485 303.26C198.178 303.82 198.025 304.467 198.025 305.2C198.025 305.933 198.178 306.587 198.485 307.16C198.791 307.72 199.218 308.16 199.765 308.48C200.311 308.787 200.918 308.94 201.585 308.94ZM219.338 305.26C219.338 305.407 219.324 305.6 219.298 305.84H210.698C210.818 306.773 211.224 307.527 211.918 308.1C212.624 308.66 213.498 308.94 214.538 308.94C215.804 308.94 216.824 308.513 217.598 307.66L218.658 308.9C218.178 309.46 217.578 309.887 216.858 310.18C216.151 310.473 215.358 310.62 214.478 310.62C213.358 310.62 212.364 310.393 211.498 309.94C210.631 309.473 209.958 308.827 209.478 308C209.011 307.173 208.778 306.24 208.778 305.2C208.778 304.173 209.004 303.247 209.458 302.42C209.924 301.593 210.558 300.953 211.358 300.5C212.171 300.033 213.084 299.8 214.098 299.8C215.111 299.8 216.011 300.033 216.798 300.5C217.598 300.953 218.218 301.593 218.658 302.42C219.111 303.247 219.338 304.193 219.338 305.26ZM214.098 301.42C213.178 301.42 212.404 301.7 211.778 302.26C211.164 302.82 210.804 303.553 210.698 304.46H217.498C217.391 303.567 217.024 302.84 216.398 302.28C215.784 301.707 215.018 301.42 214.098 301.42ZM223.844 301.68C224.177 301.067 224.67 300.6 225.324 300.28C225.977 299.96 226.77 299.8 227.704 299.8V301.66C227.597 301.647 227.45 301.64 227.264 301.64C226.224 301.64 225.404 301.953 224.804 302.58C224.217 303.193 223.924 304.073 223.924 305.22V310.5H222.004V299.9H223.844V301.68ZM251.618 299.9L247.658 310.5H245.818L242.758 302.46L239.658 310.5H237.818L233.878 299.9H235.698L238.778 308.34L241.978 299.9H243.598L246.738 308.38L249.898 299.9H251.618ZM262.853 305.26C262.853 305.407 262.84 305.6 262.813 305.84H254.213C254.333 306.773 254.74 307.527 255.433 308.1C256.14 308.66 257.013 308.94 258.053 308.94C259.32 308.94 260.34 308.513 261.113 307.66L262.173 308.9C261.693 309.46 261.093 309.887 260.373 310.18C259.666 310.473 258.873 310.62 257.993 310.62C256.873 310.62 255.88 310.393 255.013 309.94C254.146 309.473 253.473 308.827 252.993 308C252.526 307.173 252.293 306.24 252.293 305.2C252.293 304.173 252.52 303.247 252.973 302.42C253.44 301.593 254.073 300.953 254.873 300.5C255.686 300.033 256.6 299.8 257.613 299.8C258.626 299.8 259.526 300.033 260.313 300.5C261.113 300.953 261.733 301.593 262.173 302.42C262.626 303.247 262.853 304.193 262.853 305.26ZM257.613 301.42C256.693 301.42 255.92 301.7 255.293 302.26C254.68 302.82 254.32 303.553 254.213 304.46H261.013C260.906 303.567 260.54 302.84 259.913 302.28C259.3 301.707 258.533 301.42 257.613 301.42ZM275.099 305.26C275.099 305.407 275.086 305.6 275.059 305.84H266.459C266.579 306.773 266.986 307.527 267.679 308.1C268.386 308.66 269.259 308.94 270.299 308.94C271.566 308.94 272.586 308.513 273.359 307.66L274.419 308.9C273.939 309.46 273.339 309.887 272.619 310.18C271.913 310.473 271.119 310.62 270.239 310.62C269.119 310.62 268.126 310.393 267.259 309.94C266.393 309.473 265.719 308.827 265.239 308C264.773 307.173 264.539 306.24 264.539 305.2C264.539 304.173 264.766 303.247 265.219 302.42C265.686 301.593 266.319 300.953 267.119 300.5C267.933 300.033 268.846 299.8 269.859 299.8C270.873 299.8 271.773 300.033 272.559 300.5C273.359 300.953 273.979 301.593 274.419 302.42C274.873 303.247 275.099 304.193 275.099 305.26ZM269.859 301.42C268.939 301.42 268.166 301.7 267.539 302.26C266.926 302.82 266.566 303.553 266.459 304.46H273.259C273.153 303.567 272.786 302.84 272.159 302.28C271.546 301.707 270.779 301.42 269.859 301.42ZM281.885 305.56L279.685 307.6V310.5H277.765V295.66H279.685V305.18L285.465 299.9H287.785L283.325 304.28L288.225 310.5H285.865L281.885 305.56Z" fill="#1A1A1A"/>
<path d="M68.6667 355C68.6667 362.347 74.6401 368.333 82.0001 368.333C89.3467 368.333 95.3334 362.347 95.3334 355C95.3334 347.64 89.3467 341.667 82.0001 341.667C74.6401 341.667 68.6667 347.64 68.6667 355V355Z" fill="#130F26"/>
<rect x="77.0349" y="353.743" width="6.91934" height="2.30645" rx="1.15322" transform="rotate(45 77.0349 353.743)" fill="white"/>
<rect x="89.2668" y="351.297" width="12.6855" height="2.30645" rx="1.15322" transform="rotate(135 89.2668 351.297)" fill="white"/>
<path d="M119.32 354.2C120.547 354.4 121.487 354.86 122.14 355.58C122.793 356.287 123.12 357.167 123.12 358.22C123.12 359.033 122.907 359.787 122.48 360.48C122.053 361.16 121.4 361.707 120.52 362.12C119.653 362.533 118.587 362.74 117.32 362.74C116.333 362.74 115.36 362.613 114.4 362.36C113.453 362.093 112.647 361.72 111.98 361.24L113.24 358.76C113.773 359.16 114.387 359.473 115.08 359.7C115.787 359.913 116.507 360.02 117.24 360.02C118.053 360.02 118.693 359.867 119.16 359.56C119.627 359.24 119.86 358.793 119.86 358.22C119.86 357.073 118.987 356.5 117.24 356.5H115.76V354.36L118.64 351.1H112.68V348.5H122.48V350.6L119.32 354.2ZM140.08 362.5L137.38 358.6H137.22H134.4V362.5H131.16V348.5H137.22C138.46 348.5 139.533 348.707 140.44 349.12C141.36 349.533 142.067 350.12 142.56 350.88C143.053 351.64 143.3 352.54 143.3 353.58C143.3 354.62 143.047 355.52 142.54 356.28C142.047 357.027 141.34 357.6 140.42 358L143.56 362.5H140.08ZM140.02 353.58C140.02 352.793 139.767 352.193 139.26 351.78C138.753 351.353 138.013 351.14 137.04 351.14H134.4V356.02H137.04C138.013 356.02 138.753 355.807 139.26 355.38C139.767 354.953 140.02 354.353 140.02 353.58ZM156.187 357.16C156.187 357.2 156.167 357.48 156.127 358H147.987C148.134 358.667 148.48 359.193 149.027 359.58C149.574 359.967 150.254 360.16 151.067 360.16C151.627 360.16 152.12 360.08 152.547 359.92C152.987 359.747 153.394 359.48 153.767 359.12L155.427 360.92C154.414 362.08 152.934 362.66 150.987 362.66C149.774 362.66 148.7 362.427 147.767 361.96C146.834 361.48 146.114 360.82 145.607 359.98C145.1 359.14 144.847 358.187 144.847 357.12C144.847 356.067 145.094 355.12 145.587 354.28C146.094 353.427 146.78 352.767 147.647 352.3C148.527 351.82 149.507 351.58 150.587 351.58C151.64 351.58 152.594 351.807 153.447 352.26C154.3 352.713 154.967 353.367 155.447 354.22C155.94 355.06 156.187 356.04 156.187 357.16ZM150.607 353.94C149.9 353.94 149.307 354.14 148.827 354.54C148.347 354.94 148.054 355.487 147.947 356.18H153.247C153.14 355.5 152.847 354.96 152.367 354.56C151.887 354.147 151.3 353.94 150.607 353.94ZM168.804 357.16C168.804 357.2 168.784 357.48 168.744 358H160.604C160.751 358.667 161.098 359.193 161.644 359.58C162.191 359.967 162.871 360.16 163.684 360.16C164.244 360.16 164.738 360.08 165.164 359.92C165.604 359.747 166.011 359.48 166.384 359.12L168.044 360.92C167.031 362.08 165.551 362.66 163.604 362.66C162.391 362.66 161.318 362.427 160.384 361.96C159.451 361.48 158.731 360.82 158.224 359.98C157.718 359.14 157.464 358.187 157.464 357.12C157.464 356.067 157.711 355.12 158.204 354.28C158.711 353.427 159.398 352.767 160.264 352.3C161.144 351.82 162.124 351.58 163.204 351.58C164.258 351.58 165.211 351.807 166.064 352.26C166.918 352.713 167.584 353.367 168.064 354.22C168.558 355.06 168.804 356.04 168.804 357.16ZM163.224 353.94C162.518 353.94 161.924 354.14 161.444 354.54C160.964 354.94 160.671 355.487 160.564 356.18H165.864C165.758 355.5 165.464 354.96 164.984 354.56C164.504 354.147 163.918 353.94 163.224 353.94ZM170.881 347.66H174.001V362.5H170.881V347.66ZM180.517 362.66C179.624 362.66 178.75 362.553 177.897 362.34C177.044 362.113 176.364 361.833 175.857 361.5L176.897 359.26C177.377 359.567 177.957 359.82 178.637 360.02C179.317 360.207 179.984 360.3 180.637 360.3C181.957 360.3 182.617 359.973 182.617 359.32C182.617 359.013 182.437 358.793 182.077 358.66C181.717 358.527 181.164 358.413 180.417 358.32C179.537 358.187 178.81 358.033 178.237 357.86C177.664 357.687 177.164 357.38 176.737 356.94C176.324 356.5 176.117 355.873 176.117 355.06C176.117 354.38 176.31 353.78 176.697 353.26C177.097 352.727 177.67 352.313 178.417 352.02C179.177 351.727 180.07 351.58 181.097 351.58C181.857 351.58 182.61 351.667 183.357 351.84C184.117 352 184.744 352.227 185.237 352.52L184.197 354.74C183.25 354.207 182.217 353.94 181.097 353.94C180.43 353.94 179.93 354.033 179.597 354.22C179.264 354.407 179.097 354.647 179.097 354.94C179.097 355.273 179.277 355.507 179.637 355.64C179.997 355.773 180.57 355.9 181.357 356.02C182.237 356.167 182.957 356.327 183.517 356.5C184.077 356.66 184.564 356.96 184.977 357.4C185.39 357.84 185.597 358.453 185.597 359.24C185.597 359.907 185.397 360.5 184.997 361.02C184.597 361.54 184.01 361.947 183.237 362.24C182.477 362.52 181.57 362.66 180.517 362.66ZM198.893 351.8C199.92 351.8 200.84 352.027 201.653 352.48C202.466 352.933 203.1 353.567 203.553 354.38C204.02 355.193 204.253 356.133 204.253 357.2C204.253 358.267 204.02 359.213 203.553 360.04C203.1 360.853 202.466 361.487 201.653 361.94C200.84 362.393 199.92 362.62 198.893 362.62C198.133 362.62 197.433 362.473 196.793 362.18C196.166 361.887 195.633 361.46 195.193 360.9V366.38H193.273V351.9H195.113V353.58C195.54 352.993 196.08 352.553 196.733 352.26C197.386 351.953 198.106 351.8 198.893 351.8ZM198.733 360.94C199.413 360.94 200.02 360.787 200.553 360.48C201.1 360.16 201.526 359.72 201.833 359.16C202.153 358.587 202.313 357.933 202.313 357.2C202.313 356.467 202.153 355.82 201.833 355.26C201.526 354.687 201.1 354.247 200.553 353.94C200.02 353.633 199.413 353.48 198.733 353.48C198.066 353.48 197.46 353.64 196.913 353.96C196.38 354.267 195.953 354.7 195.633 355.26C195.326 355.82 195.173 356.467 195.173 357.2C195.173 357.933 195.326 358.587 195.633 359.16C195.94 359.72 196.366 360.16 196.913 360.48C197.46 360.787 198.066 360.94 198.733 360.94ZM216.486 357.26C216.486 357.407 216.473 357.6 216.446 357.84H207.846C207.966 358.773 208.373 359.527 209.066 360.1C209.773 360.66 210.646 360.94 211.686 360.94C212.953 360.94 213.973 360.513 214.746 359.66L215.806 360.9C215.326 361.46 214.726 361.887 214.006 362.18C213.299 362.473 212.506 362.62 211.626 362.62C210.506 362.62 209.513 362.393 208.646 361.94C207.779 361.473 207.106 360.827 206.626 360C206.159 359.173 205.926 358.24 205.926 357.2C205.926 356.173 206.153 355.247 206.606 354.42C207.073 353.593 207.706 352.953 208.506 352.5C209.319 352.033 210.233 351.8 211.246 351.8C212.259 351.8 213.159 352.033 213.946 352.5C214.746 352.953 215.366 353.593 215.806 354.42C216.259 355.247 216.486 356.193 216.486 357.26ZM211.246 353.42C210.326 353.42 209.553 353.7 208.926 354.26C208.313 354.82 207.953 355.553 207.846 356.46H214.646C214.539 355.567 214.173 354.84 213.546 354.28C212.933 353.707 212.166 353.42 211.246 353.42ZM220.992 353.68C221.325 353.067 221.819 352.6 222.472 352.28C223.125 351.96 223.919 351.8 224.852 351.8V353.66C224.745 353.647 224.599 353.64 224.412 353.64C223.372 353.64 222.552 353.953 221.952 354.58C221.365 355.193 221.072 356.073 221.072 357.22V362.5H219.152V351.9H220.992V353.68ZM248.766 351.9L244.806 362.5H242.966L239.906 354.46L236.806 362.5H234.966L231.026 351.9H232.846L235.926 360.34L239.126 351.9H240.746L243.886 360.38L247.046 351.9H248.766ZM260.002 357.26C260.002 357.407 259.988 357.6 259.962 357.84H251.362C251.482 358.773 251.888 359.527 252.582 360.1C253.288 360.66 254.162 360.94 255.202 360.94C256.468 360.94 257.488 360.513 258.262 359.66L259.322 360.9C258.842 361.46 258.242 361.887 257.522 362.18C256.815 362.473 256.022 362.62 255.142 362.62C254.022 362.62 253.028 362.393 252.162 361.94C251.295 361.473 250.622 360.827 250.142 360C249.675 359.173 249.442 358.24 249.442 357.2C249.442 356.173 249.668 355.247 250.122 354.42C250.588 353.593 251.222 352.953 252.022 352.5C252.835 352.033 253.748 351.8 254.762 351.8C255.775 351.8 256.675 352.033 257.462 352.5C258.262 352.953 258.882 353.593 259.322 354.42C259.775 355.247 260.002 356.193 260.002 357.26ZM254.762 353.42C253.842 353.42 253.068 353.7 252.442 354.26C251.828 354.82 251.468 355.553 251.362 356.46H258.162C258.055 355.567 257.688 354.84 257.062 354.28C256.448 353.707 255.682 353.42 254.762 353.42ZM272.248 357.26C272.248 357.407 272.234 357.6 272.208 357.84H263.608C263.728 358.773 264.134 359.527 264.828 360.1C265.534 360.66 266.408 360.94 267.448 360.94C268.714 360.94 269.734 360.513 270.508 359.66L271.568 360.9C271.088 361.46 270.488 361.887 269.768 362.18C269.061 362.473 268.268 362.62 267.388 362.62C266.268 362.62 265.274 362.393 264.408 361.94C263.541 361.473 262.868 360.827 262.388 360C261.921 359.173 261.688 358.24 261.688 357.2C261.688 356.173 261.914 355.247 262.368 354.42C262.834 353.593 263.468 352.953 264.268 352.5C265.081 352.033 265.994 351.8 267.008 351.8C268.021 351.8 268.921 352.033 269.708 352.5C270.508 352.953 271.128 353.593 271.568 354.42C272.021 355.247 272.248 356.193 272.248 357.26ZM267.008 353.42C266.088 353.42 265.314 353.7 264.688 354.26C264.074 354.82 263.714 355.553 263.608 356.46H270.408C270.301 355.567 269.934 354.84 269.308 354.28C268.694 353.707 267.928 353.42 267.008 353.42ZM279.034 357.56L276.834 359.6V362.5H274.914V347.66H276.834V357.18L282.614 351.9H284.934L280.474 356.28L285.374 362.5H283.014L279.034 357.56Z" fill="#1A1A1A"/>
<path d="M68.6667 459C68.6667 466.347 74.6401 472.333 82.0001 472.333C89.3467 472.333 95.3334 466.347 95.3334 459C95.3334 451.64 89.3467 445.667 82.0001 445.667C74.6401 445.667 68.6667 451.64 68.6667 459V459Z" fill="#130F26"/>
<rect x="77.0349" y="457.743" width="6.91934" height="2.30645" rx="1.15322" transform="rotate(45 77.0349 457.743)" fill="white"/>
<rect x="89.2668" y="455.297" width="12.6855" height="2.30645" rx="1.15322" transform="rotate(135 89.2668 455.297)" fill="white"/>
<path d="M123.02 463H115.58L114.04 466.5H111.98L118.32 452.5H120.3L126.66 466.5H124.56L123.02 463ZM122.32 461.4L119.3 454.54L116.28 461.4H122.32ZM132.991 466.62C131.911 466.62 130.944 466.387 130.091 465.92C129.251 465.453 128.591 464.813 128.111 464C127.631 463.173 127.391 462.24 127.391 461.2C127.391 460.16 127.631 459.233 128.111 458.42C128.591 457.593 129.251 456.953 130.091 456.5C130.944 456.033 131.911 455.8 132.991 455.8C133.951 455.8 134.804 455.993 135.551 456.38C136.311 456.767 136.897 457.327 137.311 458.06L135.851 459C135.517 458.493 135.104 458.113 134.611 457.86C134.117 457.607 133.571 457.48 132.971 457.48C132.277 457.48 131.651 457.633 131.091 457.94C130.544 458.247 130.111 458.687 129.791 459.26C129.484 459.82 129.331 460.467 129.331 461.2C129.331 461.947 129.484 462.607 129.791 463.18C130.111 463.74 130.544 464.173 131.091 464.48C131.651 464.787 132.277 464.94 132.971 464.94C133.571 464.94 134.117 464.813 134.611 464.56C135.104 464.307 135.517 463.927 135.851 463.42L137.311 464.34C136.897 465.073 136.311 465.64 135.551 466.04C134.804 466.427 133.951 466.62 132.991 466.62ZM144.26 466.62C143.18 466.62 142.214 466.387 141.36 465.92C140.52 465.453 139.86 464.813 139.38 464C138.9 463.173 138.66 462.24 138.66 461.2C138.66 460.16 138.9 459.233 139.38 458.42C139.86 457.593 140.52 456.953 141.36 456.5C142.214 456.033 143.18 455.8 144.26 455.8C145.22 455.8 146.074 455.993 146.82 456.38C147.58 456.767 148.167 457.327 148.58 458.06L147.12 459C146.787 458.493 146.374 458.113 145.88 457.86C145.387 457.607 144.84 457.48 144.24 457.48C143.547 457.48 142.92 457.633 142.36 457.94C141.814 458.247 141.38 458.687 141.06 459.26C140.754 459.82 140.6 460.467 140.6 461.2C140.6 461.947 140.754 462.607 141.06 463.18C141.38 463.74 141.814 464.173 142.36 464.48C142.92 464.787 143.547 464.94 144.24 464.94C144.84 464.94 145.387 464.813 145.88 464.56C146.374 464.307 146.787 463.927 147.12 463.42L148.58 464.34C148.167 465.073 147.58 465.64 146.82 466.04C146.074 466.427 145.22 466.62 144.26 466.62ZM155.45 466.62C154.397 466.62 153.45 466.387 152.61 465.92C151.77 465.453 151.11 464.813 150.63 464C150.163 463.173 149.93 462.24 149.93 461.2C149.93 460.16 150.163 459.233 150.63 458.42C151.11 457.593 151.77 456.953 152.61 456.5C153.45 456.033 154.397 455.8 155.45 455.8C156.503 455.8 157.443 456.033 158.27 456.5C159.11 456.953 159.763 457.593 160.23 458.42C160.71 459.233 160.95 460.16 160.95 461.2C160.95 462.24 160.71 463.173 160.23 464C159.763 464.813 159.11 465.453 158.27 465.92C157.443 466.387 156.503 466.62 155.45 466.62ZM155.45 464.94C156.13 464.94 156.737 464.787 157.27 464.48C157.817 464.16 158.243 463.72 158.55 463.16C158.857 462.587 159.01 461.933 159.01 461.2C159.01 460.467 158.857 459.82 158.55 459.26C158.243 458.687 157.817 458.247 157.27 457.94C156.737 457.633 156.13 457.48 155.45 457.48C154.77 457.48 154.157 457.633 153.61 457.94C153.077 458.247 152.65 458.687 152.33 459.26C152.023 459.82 151.87 460.467 151.87 461.2C151.87 461.933 152.023 462.587 152.33 463.16C152.65 463.72 153.077 464.16 153.61 464.48C154.157 464.787 154.77 464.94 155.45 464.94ZM173.485 455.9V466.5H171.665V464.9C171.278 465.447 170.765 465.873 170.125 466.18C169.498 466.473 168.812 466.62 168.065 466.62C166.652 466.62 165.538 466.233 164.725 465.46C163.912 464.673 163.505 463.52 163.505 462V455.9H165.425V461.78C165.425 462.807 165.672 463.587 166.165 464.12C166.658 464.64 167.365 464.9 168.285 464.9C169.298 464.9 170.098 464.593 170.685 463.98C171.272 463.367 171.565 462.5 171.565 461.38V455.9H173.485ZM182.8 455.8C184.147 455.8 185.214 456.193 186 456.98C186.8 457.753 187.2 458.893 187.2 460.4V466.5H185.28V460.62C185.28 459.593 185.034 458.82 184.54 458.3C184.047 457.78 183.34 457.52 182.42 457.52C181.38 457.52 180.56 457.827 179.96 458.44C179.36 459.04 179.06 459.907 179.06 461.04V466.5H177.14V455.9H178.98V457.5C179.367 456.953 179.887 456.533 180.54 456.24C181.207 455.947 181.96 455.8 182.8 455.8ZM196.714 465.88C196.434 466.12 196.087 466.307 195.674 466.44C195.26 466.56 194.834 466.62 194.394 466.62C193.327 466.62 192.5 466.333 191.914 465.76C191.327 465.187 191.034 464.367 191.034 463.3V457.48H189.234V455.9H191.034V453.58H192.954V455.9H195.994V457.48H192.954V463.22C192.954 463.793 193.094 464.233 193.374 464.54C193.667 464.847 194.08 465 194.614 465C195.2 465 195.7 464.833 196.114 464.5L196.714 465.88ZM217.666 455.8C218.999 455.8 220.053 456.187 220.826 456.96C221.613 457.733 222.006 458.88 222.006 460.4V466.5H220.086V460.62C220.086 459.593 219.846 458.82 219.366 458.3C218.899 457.78 218.226 457.52 217.346 457.52C216.373 457.52 215.599 457.827 215.026 458.44C214.453 459.04 214.166 459.907 214.166 461.04V466.5H212.246V460.62C212.246 459.593 212.006 458.82 211.526 458.3C211.059 457.78 210.386 457.52 209.506 457.52C208.533 457.52 207.759 457.827 207.186 458.44C206.613 459.04 206.326 459.907 206.326 461.04V466.5H204.406V455.9H206.246V457.48C206.633 456.933 207.139 456.52 207.766 456.24C208.393 455.947 209.106 455.8 209.906 455.8C210.733 455.8 211.466 455.967 212.106 456.3C212.746 456.633 213.239 457.12 213.586 457.76C213.986 457.147 214.539 456.667 215.246 456.32C215.966 455.973 216.773 455.8 217.666 455.8ZM229.399 455.8C230.865 455.8 231.985 456.16 232.759 456.88C233.545 457.6 233.939 458.673 233.939 460.1V466.5H232.119V465.1C231.799 465.593 231.339 465.973 230.739 466.24C230.152 466.493 229.452 466.62 228.639 466.62C227.452 466.62 226.499 466.333 225.779 465.76C225.072 465.187 224.719 464.433 224.719 463.5C224.719 462.567 225.059 461.82 225.739 461.26C226.419 460.687 227.499 460.4 228.979 460.4H232.019V460.02C232.019 459.193 231.779 458.56 231.299 458.12C230.819 457.68 230.112 457.46 229.179 457.46C228.552 457.46 227.939 457.567 227.339 457.78C226.739 457.98 226.232 458.253 225.819 458.6L225.019 457.16C225.565 456.72 226.219 456.387 226.979 456.16C227.739 455.92 228.545 455.8 229.399 455.8ZM228.959 465.14C229.692 465.14 230.325 464.98 230.859 464.66C231.392 464.327 231.779 463.86 232.019 463.26V461.78H229.059C227.432 461.78 226.619 462.327 226.619 463.42C226.619 463.953 226.825 464.373 227.239 464.68C227.652 464.987 228.225 465.14 228.959 465.14ZM243.152 455.8C244.499 455.8 245.565 456.193 246.352 456.98C247.152 457.753 247.552 458.893 247.552 460.4V466.5H245.632V460.62C245.632 459.593 245.385 458.82 244.892 458.3C244.399 457.78 243.692 457.52 242.772 457.52C241.732 457.52 240.912 457.827 240.312 458.44C239.712 459.04 239.412 459.907 239.412 461.04V466.5H237.492V455.9H239.332V457.5C239.719 456.953 240.239 456.533 240.892 456.24C241.559 455.947 242.312 455.8 243.152 455.8ZM254.965 455.8C256.432 455.8 257.552 456.16 258.325 456.88C259.112 457.6 259.505 458.673 259.505 460.1V466.5H257.685V465.1C257.365 465.593 256.905 465.973 256.305 466.24C255.718 466.493 255.018 466.62 254.205 466.62C253.018 466.62 252.065 466.333 251.345 465.76C250.638 465.187 250.285 464.433 250.285 463.5C250.285 462.567 250.625 461.82 251.305 461.26C251.985 460.687 253.065 460.4 254.545 460.4H257.585V460.02C257.585 459.193 257.345 458.56 256.865 458.12C256.385 457.68 255.678 457.46 254.745 457.46C254.118 457.46 253.505 457.567 252.905 457.78C252.305 457.98 251.798 458.253 251.385 458.6L250.585 457.16C251.132 456.72 251.785 456.387 252.545 456.16C253.305 455.92 254.112 455.8 254.965 455.8ZM254.525 465.14C255.258 465.14 255.892 464.98 256.425 464.66C256.958 464.327 257.345 463.86 257.585 463.26V461.78H254.625C252.998 461.78 252.185 462.327 252.185 463.42C252.185 463.953 252.392 464.373 252.805 464.68C253.218 464.987 253.792 465.14 254.525 465.14ZM273.257 455.9V465.06C273.257 466.913 272.797 468.28 271.877 469.16C270.957 470.053 269.584 470.5 267.757 470.5C266.757 470.5 265.804 470.36 264.897 470.08C263.99 469.813 263.257 469.427 262.697 468.92L263.617 467.44C264.11 467.867 264.717 468.2 265.437 468.44C266.17 468.693 266.924 468.82 267.697 468.82C268.937 468.82 269.85 468.527 270.437 467.94C271.037 467.353 271.337 466.46 271.337 465.26V464.42C270.884 464.967 270.324 465.38 269.657 465.66C269.004 465.927 268.29 466.06 267.517 466.06C266.504 466.06 265.584 465.847 264.757 465.42C263.944 464.98 263.304 464.373 262.837 463.6C262.37 462.813 262.137 461.92 262.137 460.92C262.137 459.92 262.37 459.033 262.837 458.26C263.304 457.473 263.944 456.867 264.757 456.44C265.584 456.013 266.504 455.8 267.517 455.8C268.317 455.8 269.057 455.947 269.737 456.24C270.43 456.533 270.997 456.967 271.437 457.54V455.9H273.257ZM267.737 464.38C268.43 464.38 269.05 464.233 269.597 463.94C270.157 463.647 270.59 463.24 270.897 462.72C271.217 462.187 271.377 461.587 271.377 460.92C271.377 459.893 271.037 459.067 270.357 458.44C269.677 457.8 268.804 457.48 267.737 457.48C266.657 457.48 265.777 457.8 265.097 458.44C264.417 459.067 264.077 459.893 264.077 460.92C264.077 461.587 264.23 462.187 264.537 462.72C264.857 463.24 265.29 463.647 265.837 463.94C266.397 464.233 267.03 464.38 267.737 464.38ZM286.505 461.26C286.505 461.407 286.492 461.6 286.465 461.84H277.865C277.985 462.773 278.392 463.527 279.085 464.1C279.792 464.66 280.665 464.94 281.705 464.94C282.972 464.94 283.992 464.513 284.765 463.66L285.825 464.9C285.345 465.46 284.745 465.887 284.025 466.18C283.319 466.473 282.525 466.62 281.645 466.62C280.525 466.62 279.532 466.393 278.665 465.94C277.799 465.473 277.125 464.827 276.645 464C276.179 463.173 275.945 462.24 275.945 461.2C275.945 460.173 276.172 459.247 276.625 458.42C277.092 457.593 277.725 456.953 278.525 456.5C279.339 456.033 280.252 455.8 281.265 455.8C282.279 455.8 283.179 456.033 283.965 456.5C284.765 456.953 285.385 457.593 285.825 458.42C286.279 459.247 286.505 460.193 286.505 461.26ZM281.265 457.42C280.345 457.42 279.572 457.7 278.945 458.26C278.332 458.82 277.972 459.553 277.865 460.46H284.665C284.559 459.567 284.192 458.84 283.565 458.28C282.952 457.707 282.185 457.42 281.265 457.42ZM302.432 455.8C303.765 455.8 304.818 456.187 305.592 456.96C306.378 457.733 306.772 458.88 306.772 460.4V466.5H304.852V460.62C304.852 459.593 304.612 458.82 304.132 458.3C303.665 457.78 302.992 457.52 302.112 457.52C301.138 457.52 300.365 457.827 299.792 458.44C299.218 459.04 298.932 459.907 298.932 461.04V466.5H297.012V460.62C297.012 459.593 296.772 458.82 296.292 458.3C295.825 457.78 295.152 457.52 294.272 457.52C293.298 457.52 292.525 457.827 291.952 458.44C291.378 459.04 291.092 459.907 291.092 461.04V466.5H289.172V455.9H291.012V457.48C291.398 456.933 291.905 456.52 292.532 456.24C293.158 455.947 293.872 455.8 294.672 455.8C295.498 455.8 296.232 455.967 296.872 456.3C297.512 456.633 298.005 457.12 298.352 457.76C298.752 457.147 299.305 456.667 300.012 456.32C300.732 455.973 301.538 455.8 302.432 455.8ZM319.943 461.26C319.943 461.407 319.93 461.6 319.903 461.84H311.303C311.423 462.773 311.83 463.527 312.523 464.1C313.23 464.66 314.103 464.94 315.143 464.94C316.41 464.94 317.43 464.513 318.203 463.66L319.263 464.9C318.783 465.46 318.183 465.887 317.463 466.18C316.756 466.473 315.963 466.62 315.083 466.62C313.963 466.62 312.97 466.393 312.103 465.94C311.236 465.473 310.563 464.827 310.083 464C309.616 463.173 309.383 462.24 309.383 461.2C309.383 460.173 309.61 459.247 310.063 458.42C310.53 457.593 311.163 456.953 311.963 456.5C312.776 456.033 313.69 455.8 314.703 455.8C315.716 455.8 316.616 456.033 317.403 456.5C318.203 456.953 318.823 457.593 319.263 458.42C319.716 459.247 319.943 460.193 319.943 461.26ZM314.703 457.42C313.783 457.42 313.01 457.7 312.383 458.26C311.77 458.82 311.41 459.553 311.303 460.46H318.103C317.996 459.567 317.63 458.84 317.003 458.28C316.39 457.707 315.623 457.42 314.703 457.42ZM328.269 455.8C329.616 455.8 330.682 456.193 331.469 456.98C332.269 457.753 332.669 458.893 332.669 460.4V466.5H330.749V460.62C330.749 459.593 330.502 458.82 330.009 458.3C329.516 457.78 328.809 457.52 327.889 457.52C326.849 457.52 326.029 457.827 325.429 458.44C324.829 459.04 324.529 459.907 324.529 461.04V466.5H322.609V455.9H324.449V457.5C324.836 456.953 325.356 456.533 326.009 456.24C326.676 455.947 327.429 455.8 328.269 455.8ZM342.182 465.88C341.902 466.12 341.556 466.307 341.142 466.44C340.729 466.56 340.302 466.62 339.862 466.62C338.796 466.62 337.969 466.333 337.382 465.76C336.796 465.187 336.502 464.367 336.502 463.3V457.48H334.702V455.9H336.502V453.58H338.422V455.9H341.462V457.48H338.422V463.22C338.422 463.793 338.562 464.233 338.842 464.54C339.136 464.847 339.549 465 340.082 465C340.669 465 341.169 464.833 341.582 464.5L342.182 465.88Z" fill="#1A1A1A"/>
<path d="M68.6667 407C68.6667 414.347 74.6401 420.333 82.0001 420.333C89.3467 420.333 95.3334 414.347 95.3334 407C95.3334 399.64 89.3467 393.667 82.0001 393.667C74.6401 393.667 68.6667 399.64 68.6667 407V407Z" fill="#130F26"/>
<rect x="77.0349" y="405.743" width="6.91934" height="2.30645" rx="1.15322" transform="rotate(45 77.0349 405.743)" fill="white"/>
<rect x="89.2668" y="403.297" width="12.6855" height="2.30645" rx="1.15322" transform="rotate(135 89.2668 403.297)" fill="white"/>
<path d="M114.1 400.5H116.1V414.5H114.1V400.5ZM125.671 403.8C127.018 403.8 128.085 404.193 128.871 404.98C129.671 405.753 130.071 406.893 130.071 408.4V414.5H128.151V408.62C128.151 407.593 127.905 406.82 127.411 406.3C126.918 405.78 126.211 405.52 125.291 405.52C124.251 405.52 123.431 405.827 122.831 406.44C122.231 407.04 121.931 407.907 121.931 409.04V414.5H120.011V403.9H121.851V405.5C122.238 404.953 122.758 404.533 123.411 404.24C124.078 403.947 124.831 403.8 125.671 403.8ZM136.665 414.62C135.798 414.62 134.965 414.507 134.165 414.28C133.365 414.04 132.738 413.74 132.285 413.38L133.085 411.86C133.551 412.193 134.118 412.46 134.785 412.66C135.451 412.86 136.125 412.96 136.805 412.96C138.485 412.96 139.325 412.48 139.325 411.52C139.325 411.2 139.211 410.947 138.985 410.76C138.758 410.573 138.471 410.44 138.125 410.36C137.791 410.267 137.311 410.167 136.685 410.06C135.831 409.927 135.131 409.773 134.585 409.6C134.051 409.427 133.591 409.133 133.205 408.72C132.818 408.307 132.625 407.727 132.625 406.98C132.625 406.02 133.025 405.253 133.825 404.68C134.625 404.093 135.698 403.8 137.045 403.8C137.751 403.8 138.458 403.887 139.165 404.06C139.871 404.233 140.451 404.467 140.905 404.76L140.085 406.28C139.218 405.72 138.198 405.44 137.025 405.44C136.211 405.44 135.591 405.573 135.165 405.84C134.738 406.107 134.525 406.46 134.525 406.9C134.525 407.247 134.645 407.52 134.885 407.72C135.125 407.92 135.418 408.067 135.765 408.16C136.125 408.253 136.625 408.36 137.265 408.48C138.118 408.627 138.805 408.787 139.325 408.96C139.858 409.12 140.311 409.4 140.685 409.8C141.058 410.2 141.245 410.76 141.245 411.48C141.245 412.44 140.831 413.207 140.005 413.78C139.191 414.34 138.078 414.62 136.665 414.62ZM149.604 413.88C149.324 414.12 148.978 414.307 148.564 414.44C148.151 414.56 147.724 414.62 147.284 414.62C146.218 414.62 145.391 414.333 144.804 413.76C144.218 413.187 143.924 412.367 143.924 411.3V405.48H142.124V403.9H143.924V401.58H145.844V403.9H148.884V405.48H145.844V411.22C145.844 411.793 145.984 412.233 146.264 412.54C146.558 412.847 146.971 413 147.504 413C148.091 413 148.591 412.833 149.004 412.5L149.604 413.88ZM155.785 403.8C157.252 403.8 158.372 404.16 159.145 404.88C159.932 405.6 160.325 406.673 160.325 408.1V414.5H158.505V413.1C158.185 413.593 157.725 413.973 157.125 414.24C156.539 414.493 155.839 414.62 155.025 414.62C153.839 414.62 152.885 414.333 152.165 413.76C151.459 413.187 151.105 412.433 151.105 411.5C151.105 410.567 151.445 409.82 152.125 409.26C152.805 408.687 153.885 408.4 155.365 408.4H158.405V408.02C158.405 407.193 158.165 406.56 157.685 406.12C157.205 405.68 156.499 405.46 155.565 405.46C154.939 405.46 154.325 405.567 153.725 405.78C153.125 405.98 152.619 406.253 152.205 406.6L151.405 405.16C151.952 404.72 152.605 404.387 153.365 404.16C154.125 403.92 154.932 403.8 155.785 403.8ZM155.345 413.14C156.079 413.14 156.712 412.98 157.245 412.66C157.779 412.327 158.165 411.86 158.405 411.26V409.78H155.445C153.819 409.78 153.005 410.327 153.005 411.42C153.005 411.953 153.212 412.373 153.625 412.68C154.039 412.987 154.612 413.14 155.345 413.14ZM174.077 403.9V413.06C174.077 414.913 173.617 416.28 172.697 417.16C171.777 418.053 170.404 418.5 168.577 418.5C167.577 418.5 166.624 418.36 165.717 418.08C164.811 417.813 164.077 417.427 163.517 416.92L164.437 415.44C164.931 415.867 165.537 416.2 166.257 416.44C166.991 416.693 167.744 416.82 168.517 416.82C169.757 416.82 170.671 416.527 171.257 415.94C171.857 415.353 172.157 414.46 172.157 413.26V412.42C171.704 412.967 171.144 413.38 170.477 413.66C169.824 413.927 169.111 414.06 168.337 414.06C167.324 414.06 166.404 413.847 165.577 413.42C164.764 412.98 164.124 412.373 163.657 411.6C163.191 410.813 162.957 409.92 162.957 408.92C162.957 407.92 163.191 407.033 163.657 406.26C164.124 405.473 164.764 404.867 165.577 404.44C166.404 404.013 167.324 403.8 168.337 403.8C169.137 403.8 169.877 403.947 170.557 404.24C171.251 404.533 171.817 404.967 172.257 405.54V403.9H174.077ZM168.557 412.38C169.251 412.38 169.871 412.233 170.417 411.94C170.977 411.647 171.411 411.24 171.717 410.72C172.037 410.187 172.197 409.587 172.197 408.92C172.197 407.893 171.857 407.067 171.177 406.44C170.497 405.8 169.624 405.48 168.557 405.48C167.477 405.48 166.597 405.8 165.917 406.44C165.237 407.067 164.897 407.893 164.897 408.92C164.897 409.587 165.051 410.187 165.357 410.72C165.677 411.24 166.111 411.647 166.657 411.94C167.217 412.233 167.851 412.38 168.557 412.38ZM179.586 405.68C179.919 405.067 180.412 404.6 181.066 404.28C181.719 403.96 182.512 403.8 183.446 403.8V405.66C183.339 405.647 183.192 405.64 183.006 405.64C181.966 405.64 181.146 405.953 180.546 406.58C179.959 407.193 179.666 408.073 179.666 409.22V414.5H177.746V403.9H179.586V405.68ZM189.653 403.8C191.119 403.8 192.239 404.16 193.013 404.88C193.799 405.6 194.193 406.673 194.193 408.1V414.5H192.373V413.1C192.053 413.593 191.593 413.973 190.993 414.24C190.406 414.493 189.706 414.62 188.893 414.62C187.706 414.62 186.753 414.333 186.033 413.76C185.326 413.187 184.973 412.433 184.973 411.5C184.973 410.567 185.313 409.82 185.993 409.26C186.673 408.687 187.753 408.4 189.233 408.4H192.273V408.02C192.273 407.193 192.033 406.56 191.553 406.12C191.073 405.68 190.366 405.46 189.433 405.46C188.806 405.46 188.193 405.567 187.593 405.78C186.993 405.98 186.486 406.253 186.073 406.6L185.273 405.16C185.819 404.72 186.473 404.387 187.233 404.16C187.993 403.92 188.799 403.8 189.653 403.8ZM189.213 413.14C189.946 413.14 190.579 412.98 191.113 412.66C191.646 412.327 192.033 411.86 192.273 411.26V409.78H189.313C187.686 409.78 186.873 410.327 186.873 411.42C186.873 411.953 187.079 412.373 187.493 412.68C187.906 412.987 188.479 413.14 189.213 413.14ZM211.006 403.8C212.339 403.8 213.392 404.187 214.166 404.96C214.952 405.733 215.346 406.88 215.346 408.4V414.5H213.426V408.62C213.426 407.593 213.186 406.82 212.706 406.3C212.239 405.78 211.566 405.52 210.686 405.52C209.712 405.52 208.939 405.827 208.366 406.44C207.792 407.04 207.506 407.907 207.506 409.04V414.5H205.586V408.62C205.586 407.593 205.346 406.82 204.866 406.3C204.399 405.78 203.726 405.52 202.846 405.52C201.872 405.52 201.099 405.827 200.526 406.44C199.952 407.04 199.666 407.907 199.666 409.04V414.5H197.746V403.9H199.586V405.48C199.972 404.933 200.479 404.52 201.106 404.24C201.732 403.947 202.446 403.8 203.246 403.8C204.072 403.8 204.806 403.967 205.446 404.3C206.086 404.633 206.579 405.12 206.926 405.76C207.326 405.147 207.879 404.667 208.586 404.32C209.306 403.973 210.112 403.8 211.006 403.8ZM226.71 418.38C225.95 417.153 225.363 415.747 224.95 414.16C224.536 412.56 224.33 410.847 224.33 409.02C224.33 407.193 224.536 405.48 224.95 403.88C225.363 402.267 225.95 400.86 226.71 399.66H228.53C227.73 401.06 227.143 402.527 226.77 404.06C226.396 405.593 226.21 407.247 226.21 409.02C226.21 410.793 226.396 412.447 226.77 413.98C227.143 415.513 227.73 416.98 228.53 418.38H226.71ZM239.928 408.72H236.448V412.12H233.868V408.72H230.408V406.28H233.868V402.88H236.448V406.28H239.928V408.72ZM252.068 411.86V414.5H241.488V412.4L246.888 407.3C247.461 406.753 247.848 406.287 248.048 405.9C248.248 405.5 248.348 405.107 248.348 404.72C248.348 404.16 248.155 403.733 247.768 403.44C247.395 403.133 246.841 402.98 246.108 402.98C245.495 402.98 244.941 403.1 244.448 403.34C243.955 403.567 243.541 403.913 243.208 404.38L240.848 402.86C241.395 402.047 242.148 401.413 243.108 400.96C244.068 400.493 245.168 400.26 246.408 400.26C247.448 400.26 248.355 400.433 249.128 400.78C249.915 401.113 250.521 401.593 250.948 402.22C251.388 402.833 251.608 403.56 251.608 404.4C251.608 405.16 251.448 405.873 251.128 406.54C250.808 407.207 250.188 407.967 249.268 408.82L246.048 411.86H252.068ZM264.356 414.62C263.303 414.62 262.356 414.387 261.516 413.92C260.676 413.453 260.016 412.813 259.536 412C259.069 411.173 258.836 410.24 258.836 409.2C258.836 408.16 259.069 407.233 259.536 406.42C260.016 405.593 260.676 404.953 261.516 404.5C262.356 404.033 263.303 403.8 264.356 403.8C265.409 403.8 266.349 404.033 267.176 404.5C268.016 404.953 268.669 405.593 269.136 406.42C269.616 407.233 269.856 408.16 269.856 409.2C269.856 410.24 269.616 411.173 269.136 412C268.669 412.813 268.016 413.453 267.176 413.92C266.349 414.387 265.409 414.62 264.356 414.62ZM264.356 412.94C265.036 412.94 265.643 412.787 266.176 412.48C266.723 412.16 267.149 411.72 267.456 411.16C267.763 410.587 267.916 409.933 267.916 409.2C267.916 408.467 267.763 407.82 267.456 407.26C267.149 406.687 266.723 406.247 266.176 405.94C265.643 405.633 265.036 405.48 264.356 405.48C263.676 405.48 263.063 405.633 262.516 405.94C261.983 406.247 261.556 406.687 261.236 407.26C260.929 407.82 260.776 408.467 260.776 409.2C260.776 409.933 260.929 410.587 261.236 411.16C261.556 411.72 261.983 412.16 262.516 412.48C263.063 412.787 263.676 412.94 264.356 412.94ZM278.471 413.88C278.191 414.12 277.845 414.307 277.431 414.44C277.018 414.56 276.591 414.62 276.151 414.62C275.085 414.62 274.258 414.333 273.671 413.76C273.085 413.187 272.791 412.367 272.791 411.3V405.48H270.991V403.9H272.791V401.58H274.711V403.9H277.751V405.48H274.711V411.22C274.711 411.793 274.851 412.233 275.131 412.54C275.425 412.847 275.838 413 276.371 413C276.958 413 277.458 412.833 277.871 412.5L278.471 413.88ZM286.453 403.8C287.799 403.8 288.866 404.193 289.653 404.98C290.453 405.753 290.853 406.893 290.853 408.4V414.5H288.933V408.62C288.933 407.593 288.686 406.82 288.193 406.3C287.699 405.78 286.993 405.52 286.073 405.52C285.033 405.52 284.213 405.827 283.613 406.44C283.013 407.04 282.713 407.907 282.713 409.04V414.5H280.793V399.66H282.713V405.4C283.113 404.893 283.633 404.5 284.273 404.22C284.926 403.94 285.653 403.8 286.453 403.8ZM304.045 409.26C304.045 409.407 304.031 409.6 304.005 409.84H295.405C295.525 410.773 295.931 411.527 296.625 412.1C297.331 412.66 298.205 412.94 299.245 412.94C300.511 412.94 301.531 412.513 302.305 411.66L303.365 412.9C302.885 413.46 302.285 413.887 301.565 414.18C300.858 414.473 300.065 414.62 299.185 414.62C298.065 414.62 297.071 414.393 296.205 413.94C295.338 413.473 294.665 412.827 294.185 412C293.718 411.173 293.485 410.24 293.485 409.2C293.485 408.173 293.711 407.247 294.165 406.42C294.631 405.593 295.265 404.953 296.065 404.5C296.878 404.033 297.791 403.8 298.805 403.8C299.818 403.8 300.718 404.033 301.505 404.5C302.305 404.953 302.925 405.593 303.365 406.42C303.818 407.247 304.045 408.193 304.045 409.26ZM298.805 405.42C297.885 405.42 297.111 405.7 296.485 406.26C295.871 406.82 295.511 407.553 295.405 408.46H302.205C302.098 407.567 301.731 406.84 301.105 406.28C300.491 405.707 299.725 405.42 298.805 405.42ZM308.551 405.68C308.884 405.067 309.377 404.6 310.031 404.28C310.684 403.96 311.477 403.8 312.411 403.8V405.66C312.304 405.647 312.157 405.64 311.971 405.64C310.931 405.64 310.111 405.953 309.511 406.58C308.924 407.193 308.631 408.073 308.631 409.22V414.5H306.711V403.9H308.551V405.68ZM325.905 403.8C326.932 403.8 327.852 404.027 328.665 404.48C329.478 404.933 330.112 405.567 330.565 406.38C331.032 407.193 331.265 408.133 331.265 409.2C331.265 410.267 331.032 411.213 330.565 412.04C330.112 412.853 329.478 413.487 328.665 413.94C327.852 414.393 326.932 414.62 325.905 414.62C325.145 414.62 324.445 414.473 323.805 414.18C323.178 413.887 322.645 413.46 322.205 412.9V418.38H320.285V403.9H322.125V405.58C322.552 404.993 323.092 404.553 323.745 404.26C324.398 403.953 325.118 403.8 325.905 403.8ZM325.745 412.94C326.425 412.94 327.032 412.787 327.565 412.48C328.112 412.16 328.538 411.72 328.845 411.16C329.165 410.587 329.325 409.933 329.325 409.2C329.325 408.467 329.165 407.82 328.845 407.26C328.538 406.687 328.112 406.247 327.565 405.94C327.032 405.633 326.425 405.48 325.745 405.48C325.078 405.48 324.472 405.64 323.925 405.96C323.392 406.267 322.965 406.7 322.645 407.26C322.338 407.82 322.185 408.467 322.185 409.2C322.185 409.933 322.338 410.587 322.645 411.16C322.952 411.72 323.378 412.16 323.925 412.48C324.472 412.787 325.078 412.94 325.745 412.94ZM333.918 399.66H335.838V414.5H333.918V399.66ZM343.364 403.8C344.83 403.8 345.95 404.16 346.724 404.88C347.51 405.6 347.904 406.673 347.904 408.1V414.5H346.084V413.1C345.764 413.593 345.304 413.973 344.704 414.24C344.117 414.493 343.417 414.62 342.604 414.62C341.417 414.62 340.464 414.333 339.744 413.76C339.037 413.187 338.684 412.433 338.684 411.5C338.684 410.567 339.024 409.82 339.704 409.26C340.384 408.687 341.464 408.4 342.944 408.4H345.984V408.02C345.984 407.193 345.744 406.56 345.264 406.12C344.784 405.68 344.077 405.46 343.144 405.46C342.517 405.46 341.904 405.567 341.304 405.78C340.704 405.98 340.197 406.253 339.784 406.6L338.984 405.16C339.53 404.72 340.184 404.387 340.944 404.16C341.704 403.92 342.51 403.8 343.364 403.8ZM342.924 413.14C343.657 413.14 344.29 412.98 344.824 412.66C345.357 412.327 345.744 411.86 345.984 411.26V409.78H343.024C341.397 409.78 340.584 410.327 340.584 411.42C340.584 411.953 340.79 412.373 341.204 412.68C341.617 412.987 342.19 413.14 342.924 413.14ZM357.417 413.88C357.137 414.12 356.79 414.307 356.377 414.44C355.963 414.56 355.537 414.62 355.097 414.62C354.03 414.62 353.203 414.333 352.617 413.76C352.03 413.187 351.737 412.367 351.737 411.3V405.48H349.937V403.9H351.737V401.58H353.657V403.9H356.697V405.48H353.657V411.22C353.657 411.793 353.797 412.233 354.077 412.54C354.37 412.847 354.783 413 355.317 413C355.903 413 356.403 412.833 356.817 412.5L357.417 413.88ZM363.618 401.12C362.471 401.12 361.898 401.74 361.898 402.98V403.9H364.978V405.48H361.938V414.5H360.018V405.48H358.218V403.9H360.018V402.96C360.018 401.907 360.325 401.073 360.938 400.46C361.551 399.847 362.411 399.54 363.518 399.54C363.945 399.54 364.345 399.593 364.718 399.7C365.091 399.807 365.411 399.96 365.678 400.16L365.098 401.62C364.658 401.287 364.165 401.12 363.618 401.12ZM371.173 414.62C370.119 414.62 369.173 414.387 368.333 413.92C367.493 413.453 366.833 412.813 366.353 412C365.886 411.173 365.653 410.24 365.653 409.2C365.653 408.16 365.886 407.233 366.353 406.42C366.833 405.593 367.493 404.953 368.333 404.5C369.173 404.033 370.119 403.8 371.173 403.8C372.226 403.8 373.166 404.033 373.993 404.5C374.833 404.953 375.486 405.593 375.953 406.42C376.433 407.233 376.673 408.16 376.673 409.2C376.673 410.24 376.433 411.173 375.953 412C375.486 412.813 374.833 413.453 373.993 413.92C373.166 414.387 372.226 414.62 371.173 414.62ZM371.173 412.94C371.853 412.94 372.459 412.787 372.993 412.48C373.539 412.16 373.966 411.72 374.273 411.16C374.579 410.587 374.733 409.933 374.733 409.2C374.733 408.467 374.579 407.82 374.273 407.26C373.966 406.687 373.539 406.247 372.993 405.94C372.459 405.633 371.853 405.48 371.173 405.48C370.493 405.48 369.879 405.633 369.333 405.94C368.799 406.247 368.373 406.687 368.053 407.26C367.746 407.82 367.593 408.467 367.593 409.2C367.593 409.933 367.746 410.587 368.053 411.16C368.373 411.72 368.799 412.16 369.333 412.48C369.879 412.787 370.493 412.94 371.173 412.94ZM381.168 405.68C381.501 405.067 381.994 404.6 382.648 404.28C383.301 403.96 384.094 403.8 385.028 403.8V405.66C384.921 405.647 384.774 405.64 384.588 405.64C383.548 405.64 382.728 405.953 382.128 406.58C381.541 407.193 381.248 408.073 381.248 409.22V414.5H379.328V403.9H381.168V405.68ZM400.654 403.8C401.988 403.8 403.041 404.187 403.814 404.96C404.601 405.733 404.994 406.88 404.994 408.4V414.5H403.074V408.62C403.074 407.593 402.834 406.82 402.354 406.3C401.888 405.78 401.214 405.52 400.334 405.52C399.361 405.52 398.588 405.827 398.014 406.44C397.441 407.04 397.154 407.907 397.154 409.04V414.5H395.234V408.62C395.234 407.593 394.994 406.82 394.514 406.3C394.048 405.78 393.374 405.52 392.494 405.52C391.521 405.52 390.748 405.827 390.174 406.44C389.601 407.04 389.314 407.907 389.314 409.04V414.5H387.394V403.9H389.234V405.48C389.621 404.933 390.128 404.52 390.754 404.24C391.381 403.947 392.094 403.8 392.894 403.8C393.721 403.8 394.454 403.967 395.094 404.3C395.734 404.633 396.228 405.12 396.574 405.76C396.974 405.147 397.528 404.667 398.234 404.32C398.954 403.973 399.761 403.8 400.654 403.8ZM411.567 414.62C410.7 414.62 409.867 414.507 409.067 414.28C408.267 414.04 407.64 413.74 407.187 413.38L407.987 411.86C408.454 412.193 409.02 412.46 409.687 412.66C410.354 412.86 411.027 412.96 411.707 412.96C413.387 412.96 414.227 412.48 414.227 411.52C414.227 411.2 414.114 410.947 413.887 410.76C413.66 410.573 413.374 410.44 413.027 410.36C412.694 410.267 412.214 410.167 411.587 410.06C410.734 409.927 410.034 409.773 409.487 409.6C408.954 409.427 408.494 409.133 408.107 408.72C407.72 408.307 407.527 407.727 407.527 406.98C407.527 406.02 407.927 405.253 408.727 404.68C409.527 404.093 410.6 403.8 411.947 403.8C412.654 403.8 413.36 403.887 414.067 404.06C414.774 404.233 415.354 404.467 415.807 404.76L414.987 406.28C414.12 405.72 413.1 405.44 411.927 405.44C411.114 405.44 410.494 405.573 410.067 405.84C409.64 406.107 409.427 406.46 409.427 406.9C409.427 407.247 409.547 407.52 409.787 407.72C410.027 407.92 410.32 408.067 410.667 408.16C411.027 408.253 411.527 408.36 412.167 408.48C413.02 408.627 413.707 408.787 414.227 408.96C414.76 409.12 415.214 409.4 415.587 409.8C415.96 410.2 416.147 410.76 416.147 411.48C416.147 412.44 415.734 413.207 414.907 413.78C414.094 414.34 412.98 414.62 411.567 414.62ZM417.367 418.38C418.167 416.98 418.753 415.513 419.127 413.98C419.513 412.447 419.707 410.793 419.707 409.02C419.707 407.247 419.513 405.593 419.127 404.06C418.753 402.527 418.167 401.06 417.367 399.66H419.187C419.96 400.86 420.553 402.26 420.967 403.86C421.38 405.46 421.587 407.18 421.587 409.02C421.587 410.847 421.38 412.56 420.967 414.16C420.553 415.76 419.96 417.167 419.187 418.38H417.367Z" fill="#1A1A1A"/>
<path d="M82.128 74.836C83.2667 75.1533 84.1627 75.732 84.816 76.572C85.4693 77.3933 85.796 78.4387 85.796 79.708C85.796 81.4067 85.152 82.7133 83.864 83.628C82.5947 84.5427 80.7373 85 78.292 85H68.94V65.4H77.732C79.972 65.4 81.6987 65.848 82.912 66.744C84.144 67.64 84.76 68.8813 84.76 70.468C84.76 71.4947 84.5173 72.3813 84.032 73.128C83.5653 73.8747 82.9307 74.444 82.128 74.836ZM71.74 67.668V73.94H77.48C78.9173 73.94 80.0187 73.6787 80.784 73.156C81.568 72.6147 81.96 71.8307 81.96 70.804C81.96 69.7773 81.568 69.0027 80.784 68.48C80.0187 67.9387 78.9173 67.668 77.48 67.668H71.74ZM78.18 82.732C79.7667 82.732 80.9613 82.4707 81.764 81.948C82.5667 81.4253 82.968 80.604 82.968 79.484C82.968 77.3 81.372 76.208 78.18 76.208H71.74V82.732H78.18ZM95.1434 70.02C97.1967 70.02 98.7647 70.524 99.8474 71.532C100.949 72.54 101.499 74.0427 101.499 76.04V85H98.9514V83.04C98.5034 83.7307 97.8594 84.2627 97.0194 84.636C96.1981 84.9907 95.2181 85.168 94.0794 85.168C92.4181 85.168 91.0834 84.7667 90.0754 83.964C89.0861 83.1613 88.5914 82.1067 88.5914 80.8C88.5914 79.4933 89.0674 78.448 90.0194 77.664C90.9714 76.8613 92.4834 76.46 94.5554 76.46H98.8114V75.928C98.8114 74.7707 98.4754 73.884 97.8034 73.268C97.1314 72.652 96.1421 72.344 94.8354 72.344C93.9581 72.344 93.0994 72.4933 92.2594 72.792C91.4194 73.072 90.7101 73.4547 90.1314 73.94L89.0114 71.924C89.7767 71.308 90.6914 70.8413 91.7554 70.524C92.8194 70.188 93.9487 70.02 95.1434 70.02ZM94.5274 83.096C95.5541 83.096 96.4407 82.872 97.1874 82.424C97.9341 81.9573 98.4754 81.304 98.8114 80.464V78.392H94.6674C92.3901 78.392 91.2514 79.1573 91.2514 80.688C91.2514 81.4347 91.5407 82.0227 92.1194 82.452C92.6981 82.8813 93.5007 83.096 94.5274 83.096ZM110.73 85.168C109.516 85.168 108.35 85.0093 107.23 84.692C106.11 84.356 105.232 83.936 104.598 83.432L105.718 81.304C106.371 81.7707 107.164 82.144 108.098 82.424C109.031 82.704 109.974 82.844 110.926 82.844C113.278 82.844 114.454 82.172 114.454 80.828C114.454 80.38 114.295 80.0253 113.978 79.764C113.66 79.5027 113.259 79.316 112.774 79.204C112.307 79.0733 111.635 78.9333 110.758 78.784C109.563 78.5973 108.583 78.3827 107.818 78.14C107.071 77.8973 106.427 77.4867 105.886 76.908C105.344 76.3293 105.074 75.5173 105.074 74.472C105.074 73.128 105.634 72.0547 106.754 71.252C107.874 70.4307 109.376 70.02 111.262 70.02C112.251 70.02 113.24 70.1413 114.23 70.384C115.219 70.6267 116.031 70.9533 116.666 71.364L115.518 73.492C114.304 72.708 112.876 72.316 111.234 72.316C110.095 72.316 109.227 72.5027 108.63 72.876C108.032 73.2493 107.734 73.744 107.734 74.36C107.734 74.8453 107.902 75.228 108.238 75.508C108.574 75.788 108.984 75.9933 109.47 76.124C109.974 76.2547 110.674 76.404 111.57 76.572C112.764 76.7773 113.726 77.0013 114.454 77.244C115.2 77.468 115.835 77.86 116.358 78.42C116.88 78.98 117.142 79.764 117.142 80.772C117.142 82.116 116.563 83.1893 115.406 83.992C114.267 84.776 112.708 85.168 110.73 85.168ZM120.501 70.16H123.189V85H120.501V70.16ZM121.845 67.304C121.322 67.304 120.884 67.136 120.529 66.8C120.193 66.464 120.025 66.0533 120.025 65.568C120.025 65.0827 120.193 64.672 120.529 64.336C120.884 63.9813 121.322 63.804 121.845 63.804C122.368 63.804 122.797 63.972 123.133 64.308C123.488 64.6253 123.665 65.0267 123.665 65.512C123.665 66.016 123.488 66.4453 123.133 66.8C122.797 67.136 122.368 67.304 121.845 67.304ZM134.789 85.168C133.277 85.168 131.924 84.8413 130.729 84.188C129.553 83.5347 128.629 82.6387 127.957 81.5C127.285 80.3427 126.949 79.036 126.949 77.58C126.949 76.124 127.285 74.8267 127.957 73.688C128.629 72.5307 129.553 71.6347 130.729 71C131.924 70.3467 133.277 70.02 134.789 70.02C136.133 70.02 137.328 70.2907 138.373 70.832C139.437 71.3733 140.259 72.1573 140.837 73.184L138.793 74.5C138.327 73.7907 137.748 73.2587 137.057 72.904C136.367 72.5493 135.601 72.372 134.761 72.372C133.791 72.372 132.913 72.5867 132.129 73.016C131.364 73.4453 130.757 74.0613 130.309 74.864C129.88 75.648 129.665 76.5533 129.665 77.58C129.665 78.6253 129.88 79.5493 130.309 80.352C130.757 81.136 131.364 81.7427 132.129 82.172C132.913 82.6013 133.791 82.816 134.761 82.816C135.601 82.816 136.367 82.6387 137.057 82.284C137.748 81.9293 138.327 81.3973 138.793 80.688L140.837 81.976C140.259 83.0027 139.437 83.796 138.373 84.356C137.328 84.8973 136.133 85.168 134.789 85.168Z" fill="#1A1A1A"/>
<path d="M109.92 184.24C109.92 188.176 108.48 191.56 105.6 194.392C102.72 197.176 98.568 198.904 93.144 199.576V207.64H85.944V199.792C82.392 199.6 79.008 198.976 75.792 197.92C72.576 196.864 69.984 195.568 68.016 194.032L71.976 185.248C73.8 186.592 75.936 187.72 78.384 188.632C80.832 189.544 83.352 190.12 85.944 190.36V178.336C82.536 177.52 79.656 176.608 77.304 175.6C74.952 174.592 72.984 173.128 71.4 171.208C69.816 169.24 69.024 166.648 69.024 163.432C69.024 159.448 70.464 156.04 73.344 153.208C76.272 150.328 80.472 148.576 85.944 147.952V139.96H93.144V147.808C99.048 148.288 103.92 149.752 107.76 152.2L104.16 161.056C100.56 158.992 96.888 157.744 93.144 157.312V169.552C96.504 170.32 99.336 171.208 101.64 172.216C103.992 173.176 105.96 174.64 107.544 176.608C109.128 178.528 109.92 181.072 109.92 184.24ZM80.616 162.856C80.616 164.056 81.072 165.04 81.984 165.808C82.896 166.576 84.216 167.224 85.944 167.752V157.528C84.12 157.96 82.776 158.656 81.912 159.616C81.048 160.528 80.616 161.608 80.616 162.856ZM93.144 190.072C94.872 189.688 96.168 189.064 97.032 188.2C97.896 187.336 98.328 186.304 98.328 185.104C98.328 183.904 97.872 182.92 96.96 182.152C96.096 181.384 94.824 180.712 93.144 180.136V190.072ZM152.378 189.496V199H114.29V191.44L133.73 173.08C135.794 171.112 137.186 169.432 137.906 168.04C138.626 166.6 138.986 165.184 138.986 163.792C138.986 161.776 138.29 160.24 136.898 159.184C135.554 158.08 133.562 157.528 130.922 157.528C128.714 157.528 126.722 157.96 124.946 158.824C123.17 159.64 121.682 160.888 120.482 162.568L111.986 157.096C113.954 154.168 116.666 151.888 120.122 150.256C123.578 148.576 127.538 147.736 132.002 147.736C135.746 147.736 139.01 148.36 141.794 149.608C144.626 150.808 146.81 152.536 148.346 154.792C149.93 157 150.722 159.616 150.722 162.64C150.722 165.376 150.146 167.944 148.994 170.344C147.842 172.744 145.61 175.48 142.298 178.552L130.706 189.496H152.378ZM174.903 147.736C181.959 147.736 187.479 149.896 191.463 154.216C195.447 158.488 197.439 164.656 197.439 172.72C197.439 178.432 196.359 183.328 194.199 187.408C192.087 191.488 189.087 194.584 185.199 196.696C181.311 198.808 176.823 199.864 171.735 199.864C169.047 199.864 166.479 199.576 164.031 199C161.583 198.376 159.495 197.512 157.767 196.408L162.087 187.84C164.535 189.52 167.679 190.36 171.519 190.36C175.791 190.36 179.175 189.112 181.671 186.616C184.167 184.072 185.511 180.424 185.703 175.672C182.679 178.696 178.503 180.208 173.175 180.208C169.959 180.208 167.031 179.56 164.391 178.264C161.751 176.968 159.663 175.144 158.127 172.792C156.591 170.392 155.823 167.632 155.823 164.512C155.823 161.152 156.663 158.2 158.343 155.656C160.023 153.112 162.303 151.168 165.183 149.824C168.111 148.432 171.351 147.736 174.903 147.736ZM175.767 171.496C178.311 171.496 180.375 170.8 181.959 169.408C183.591 167.968 184.407 166.144 184.407 163.936C184.407 161.728 183.615 159.928 182.031 158.536C180.495 157.144 178.359 156.448 175.623 156.448C173.127 156.448 171.087 157.12 169.503 158.464C167.967 159.808 167.199 161.632 167.199 163.936C167.199 166.24 167.967 168.088 169.503 169.48C171.087 170.824 173.175 171.496 175.767 171.496ZM220.747 147.736C227.803 147.736 233.323 149.896 237.307 154.216C241.291 158.488 243.283 164.656 243.283 172.72C243.283 178.432 242.203 183.328 240.043 187.408C237.931 191.488 234.931 194.584 231.043 196.696C227.155 198.808 222.667 199.864 217.579 199.864C214.891 199.864 212.323 199.576 209.875 199C207.427 198.376 205.339 197.512 203.611 196.408L207.931 187.84C210.379 189.52 213.523 190.36 217.363 190.36C221.635 190.36 225.019 189.112 227.515 186.616C230.011 184.072 231.355 180.424 231.547 175.672C228.523 178.696 224.347 180.208 219.019 180.208C215.803 180.208 212.875 179.56 210.235 178.264C207.595 176.968 205.507 175.144 203.971 172.792C202.435 170.392 201.667 167.632 201.667 164.512C201.667 161.152 202.507 158.2 204.187 155.656C205.867 153.112 208.147 151.168 211.027 149.824C213.955 148.432 217.195 147.736 220.747 147.736ZM221.611 171.496C224.155 171.496 226.219 170.8 227.803 169.408C229.435 167.968 230.251 166.144 230.251 163.936C230.251 161.728 229.459 159.928 227.875 158.536C226.339 157.144 224.203 156.448 221.467 156.448C218.971 156.448 216.931 157.12 215.347 158.464C213.811 159.808 213.043 161.632 213.043 163.936C213.043 166.24 213.811 168.088 215.347 169.48C216.931 170.824 219.019 171.496 221.611 171.496ZM252.01 182.16H254.79L248.19 201H245.41L252.01 182.16ZM268.302 199L268.282 190.6L264.162 197.52H262.702L258.602 190.78V199H255.562V185H258.242L263.482 193.7L268.642 185H271.302L271.342 199H268.302ZM279.564 199.16C278.431 199.16 277.411 198.927 276.504 198.46C275.611 197.98 274.911 197.32 274.404 196.48C273.897 195.64 273.644 194.687 273.644 193.62C273.644 192.553 273.897 191.6 274.404 190.76C274.911 189.92 275.611 189.267 276.504 188.8C277.411 188.32 278.431 188.08 279.564 188.08C280.697 188.08 281.711 188.32 282.604 188.8C283.497 189.267 284.197 189.92 284.704 190.76C285.211 191.6 285.464 192.553 285.464 193.62C285.464 194.687 285.211 195.64 284.704 196.48C284.197 197.32 283.497 197.98 282.604 198.46C281.711 198.927 280.697 199.16 279.564 199.16ZM279.564 196.6C280.364 196.6 281.017 196.333 281.524 195.8C282.044 195.253 282.304 194.527 282.304 193.62C282.304 192.713 282.044 191.993 281.524 191.46C281.017 190.913 280.364 190.64 279.564 190.64C278.764 190.64 278.104 190.913 277.584 191.46C277.064 191.993 276.804 192.713 276.804 193.62C276.804 194.527 277.064 195.253 277.584 195.8C278.104 196.333 278.764 196.6 279.564 196.6ZM294.089 188.08C295.423 188.08 296.496 188.48 297.309 189.28C298.136 190.08 298.549 191.267 298.549 192.84V199H295.429V193.32C295.429 192.467 295.243 191.833 294.869 191.42C294.496 190.993 293.956 190.78 293.249 190.78C292.463 190.78 291.836 191.027 291.369 191.52C290.903 192 290.669 192.72 290.669 193.68V199H287.549V188.24H290.529V189.5C290.943 189.047 291.456 188.7 292.069 188.46C292.683 188.207 293.356 188.08 294.089 188.08ZM308.318 198.48C308.011 198.707 307.631 198.88 307.178 199C306.738 199.107 306.271 199.16 305.778 199.16C304.498 199.16 303.504 198.833 302.798 198.18C302.104 197.527 301.758 196.567 301.758 195.3V190.88H300.098V188.48H301.758V185.86H304.878V188.48H307.558V190.88H304.878V195.26C304.878 195.713 304.991 196.067 305.217 196.32C305.458 196.56 305.791 196.68 306.218 196.68C306.711 196.68 307.131 196.547 307.478 196.28L308.318 198.48ZM316.609 188.08C317.942 188.08 319.016 188.48 319.829 189.28C320.656 190.08 321.069 191.267 321.069 192.84V199H317.949V193.32C317.949 192.467 317.762 191.833 317.389 191.42C317.016 190.993 316.476 190.78 315.769 190.78C314.982 190.78 314.356 191.027 313.889 191.52C313.422 192 313.189 192.72 313.189 193.68V199H310.069V184.16H313.189V189.36C313.602 188.947 314.102 188.633 314.689 188.42C315.276 188.193 315.916 188.08 316.609 188.08Z" fill="#1A1A1A"/>
<rect x="66" y="567" width="381" height="80" rx="16" fill="#130F26"/>
<path d="M173.355 611.36V614H162.775V611.9L168.175 606.8C168.749 606.253 169.135 605.787 169.335 605.4C169.535 605 169.635 604.607 169.635 604.22C169.635 603.66 169.442 603.233 169.055 602.94C168.682 602.633 168.129 602.48 167.395 602.48C166.782 602.48 166.229 602.6 165.735 602.84C165.242 603.067 164.829 603.413 164.495 603.88L162.135 602.36C162.682 601.547 163.435 600.913 164.395 600.46C165.355 599.993 166.455 599.76 167.695 599.76C168.735 599.76 169.642 599.933 170.415 600.28C171.202 600.613 171.809 601.093 172.235 601.72C172.675 602.333 172.895 603.06 172.895 603.9C172.895 604.66 172.735 605.373 172.415 606.04C172.095 606.707 171.475 607.467 170.555 608.32L167.335 611.36H173.355ZM185.836 614.24C184.73 614.24 183.656 614.093 182.616 613.8C181.59 613.493 180.763 613.1 180.136 612.62L181.236 610.18C181.836 610.62 182.55 610.973 183.376 611.24C184.203 611.507 185.03 611.64 185.856 611.64C186.776 611.64 187.456 611.507 187.896 611.24C188.336 610.96 188.556 610.593 188.556 610.14C188.556 609.807 188.423 609.533 188.156 609.32C187.903 609.093 187.57 608.913 187.156 608.78C186.756 608.647 186.21 608.5 185.516 608.34C184.45 608.087 183.576 607.833 182.896 607.58C182.216 607.327 181.63 606.92 181.136 606.36C180.656 605.8 180.416 605.053 180.416 604.12C180.416 603.307 180.636 602.573 181.076 601.92C181.516 601.253 182.176 600.727 183.056 600.34C183.95 599.953 185.036 599.76 186.316 599.76C187.21 599.76 188.083 599.867 188.936 600.08C189.79 600.293 190.536 600.6 191.176 601L190.176 603.46C188.883 602.727 187.59 602.36 186.296 602.36C185.39 602.36 184.716 602.507 184.276 602.8C183.85 603.093 183.636 603.48 183.636 603.96C183.636 604.44 183.883 604.8 184.376 605.04C184.883 605.267 185.65 605.493 186.676 605.72C187.743 605.973 188.616 606.227 189.296 606.48C189.976 606.733 190.556 607.133 191.036 607.68C191.53 608.227 191.776 608.967 191.776 609.9C191.776 610.7 191.55 611.433 191.096 612.1C190.656 612.753 189.99 613.273 189.096 613.66C188.203 614.047 187.116 614.24 185.836 614.24ZM193.77 599.16H196.89V614H193.77V599.16ZM204.906 614.16C203.772 614.16 202.752 613.927 201.846 613.46C200.952 612.98 200.252 612.32 199.746 611.48C199.239 610.64 198.986 609.687 198.986 608.62C198.986 607.553 199.239 606.6 199.746 605.76C200.252 604.92 200.952 604.267 201.846 603.8C202.752 603.32 203.772 603.08 204.906 603.08C206.039 603.08 207.052 603.32 207.946 603.8C208.839 604.267 209.539 604.92 210.046 605.76C210.552 606.6 210.806 607.553 210.806 608.62C210.806 609.687 210.552 610.64 210.046 611.48C209.539 612.32 208.839 612.98 207.946 613.46C207.052 613.927 206.039 614.16 204.906 614.16ZM204.906 611.6C205.706 611.6 206.359 611.333 206.866 610.8C207.386 610.253 207.646 609.527 207.646 608.62C207.646 607.713 207.386 606.993 206.866 606.46C206.359 605.913 205.706 605.64 204.906 605.64C204.106 605.64 203.446 605.913 202.926 606.46C202.406 606.993 202.146 607.713 202.146 608.62C202.146 609.527 202.406 610.253 202.926 610.8C203.446 611.333 204.106 611.6 204.906 611.6ZM219.831 613.48C219.525 613.707 219.145 613.88 218.691 614C218.251 614.107 217.785 614.16 217.291 614.16C216.011 614.16 215.018 613.833 214.311 613.18C213.618 612.527 213.271 611.567 213.271 610.3V605.88H211.611V603.48H213.271V600.86H216.391V603.48H219.071V605.88H216.391V610.26C216.391 610.713 216.505 611.067 216.731 611.32C216.971 611.56 217.305 611.68 217.731 611.68C218.225 611.68 218.645 611.547 218.991 611.28L219.831 613.48ZM225.203 614.16C224.309 614.16 223.436 614.053 222.583 613.84C221.729 613.613 221.049 613.333 220.543 613L221.583 610.76C222.063 611.067 222.643 611.32 223.323 611.52C224.003 611.707 224.669 611.8 225.323 611.8C226.643 611.8 227.303 611.473 227.303 610.82C227.303 610.513 227.123 610.293 226.763 610.16C226.403 610.027 225.849 609.913 225.103 609.82C224.223 609.687 223.496 609.533 222.923 609.36C222.349 609.187 221.849 608.88 221.423 608.44C221.009 608 220.803 607.373 220.803 606.56C220.803 605.88 220.996 605.28 221.383 604.76C221.783 604.227 222.356 603.813 223.103 603.52C223.863 603.227 224.756 603.08 225.783 603.08C226.543 603.08 227.296 603.167 228.043 603.34C228.803 603.5 229.429 603.727 229.923 604.02L228.883 606.24C227.936 605.707 226.903 605.44 225.783 605.44C225.116 605.44 224.616 605.533 224.283 605.72C223.949 605.907 223.783 606.147 223.783 606.44C223.783 606.773 223.963 607.007 224.323 607.14C224.683 607.273 225.256 607.4 226.043 607.52C226.923 607.667 227.643 607.827 228.203 608C228.763 608.16 229.249 608.46 229.663 608.9C230.076 609.34 230.283 609.953 230.283 610.74C230.283 611.407 230.083 612 229.683 612.52C229.283 613.04 228.696 613.447 227.923 613.74C227.163 614.02 226.256 614.16 225.203 614.16ZM247.012 614L244.312 610.1H244.152H241.332V614H238.092V600H244.152C245.392 600 246.465 600.207 247.372 600.62C248.292 601.033 248.998 601.62 249.492 602.38C249.985 603.14 250.232 604.04 250.232 605.08C250.232 606.12 249.978 607.02 249.472 607.78C248.978 608.527 248.272 609.1 247.352 609.5L250.492 614H247.012ZM246.952 605.08C246.952 604.293 246.698 603.693 246.192 603.28C245.685 602.853 244.945 602.64 243.972 602.64H241.332V607.52H243.972C244.945 607.52 245.685 607.307 246.192 606.88C246.698 606.453 246.952 605.853 246.952 605.08ZM263.119 608.66C263.119 608.7 263.099 608.98 263.059 609.5H254.919C255.065 610.167 255.412 610.693 255.959 611.08C256.505 611.467 257.185 611.66 257.999 611.66C258.559 611.66 259.052 611.58 259.479 611.42C259.919 611.247 260.325 610.98 260.699 610.62L262.359 612.42C261.345 613.58 259.865 614.16 257.919 614.16C256.705 614.16 255.632 613.927 254.699 613.46C253.765 612.98 253.045 612.32 252.539 611.48C252.032 610.64 251.779 609.687 251.779 608.62C251.779 607.567 252.025 606.62 252.519 605.78C253.025 604.927 253.712 604.267 254.579 603.8C255.459 603.32 256.439 603.08 257.519 603.08C258.572 603.08 259.525 603.307 260.379 603.76C261.232 604.213 261.899 604.867 262.379 605.72C262.872 606.56 263.119 607.54 263.119 608.66ZM257.539 605.44C256.832 605.44 256.239 605.64 255.759 606.04C255.279 606.44 254.985 606.987 254.879 607.68H260.179C260.072 607 259.779 606.46 259.299 606.06C258.819 605.647 258.232 605.44 257.539 605.44ZM278.976 603.08C280.323 603.08 281.389 603.48 282.176 604.28C282.976 605.067 283.376 606.253 283.376 607.84V614H280.256V608.32C280.256 607.467 280.076 606.833 279.716 606.42C279.369 605.993 278.869 605.78 278.216 605.78C277.483 605.78 276.903 606.02 276.476 606.5C276.049 606.967 275.836 607.667 275.836 608.6V614H272.716V608.32C272.716 606.627 272.036 605.78 270.676 605.78C269.956 605.78 269.383 606.02 268.956 606.5C268.529 606.967 268.316 607.667 268.316 608.6V614H265.196V603.24H268.176V604.48C268.576 604.027 269.063 603.68 269.636 603.44C270.223 603.2 270.863 603.08 271.556 603.08C272.316 603.08 273.003 603.233 273.616 603.54C274.229 603.833 274.723 604.267 275.096 604.84C275.536 604.28 276.089 603.847 276.756 603.54C277.436 603.233 278.176 603.08 278.976 603.08ZM290.512 603.08C292.179 603.08 293.459 603.48 294.352 604.28C295.246 605.067 295.692 606.26 295.692 607.86V614H292.772V612.66C292.186 613.66 291.092 614.16 289.492 614.16C288.666 614.16 287.946 614.02 287.332 613.74C286.732 613.46 286.272 613.073 285.952 612.58C285.632 612.087 285.472 611.527 285.472 610.9C285.472 609.9 285.846 609.113 286.592 608.54C287.352 607.967 288.519 607.68 290.092 607.68H292.572C292.572 607 292.366 606.48 291.952 606.12C291.539 605.747 290.919 605.56 290.092 605.56C289.519 605.56 288.952 605.653 288.392 605.84C287.846 606.013 287.379 606.253 286.992 606.56L285.872 604.38C286.459 603.967 287.159 603.647 287.972 603.42C288.799 603.193 289.646 603.08 290.512 603.08ZM290.272 612.06C290.806 612.06 291.279 611.94 291.692 611.7C292.106 611.447 292.399 611.08 292.572 610.6V609.5H290.432C289.152 609.5 288.512 609.92 288.512 610.76C288.512 611.16 288.666 611.48 288.972 611.72C289.292 611.947 289.726 612.06 290.272 612.06ZM298.516 603.24H301.636V614H298.516V603.24ZM300.076 601.74C299.503 601.74 299.036 601.573 298.676 601.24C298.316 600.907 298.136 600.493 298.136 600C298.136 599.507 298.316 599.093 298.676 598.76C299.036 598.427 299.503 598.26 300.076 598.26C300.65 598.26 301.116 598.42 301.476 598.74C301.836 599.06 302.016 599.46 302.016 599.94C302.016 600.46 301.836 600.893 301.476 601.24C301.116 601.573 300.65 601.74 300.076 601.74ZM311.072 603.08C312.405 603.08 313.478 603.48 314.292 604.28C315.118 605.08 315.532 606.267 315.532 607.84V614H312.412V608.32C312.412 607.467 312.225 606.833 311.852 606.42C311.478 605.993 310.938 605.78 310.232 605.78C309.445 605.78 308.818 606.027 308.352 606.52C307.885 607 307.652 607.72 307.652 608.68V614H304.532V603.24H307.512V604.5C307.925 604.047 308.438 603.7 309.052 603.46C309.665 603.207 310.338 603.08 311.072 603.08ZM318.36 603.24H321.48V614H318.36V603.24ZM319.92 601.74C319.347 601.74 318.88 601.573 318.52 601.24C318.16 600.907 317.98 600.493 317.98 600C317.98 599.507 318.16 599.093 318.52 598.76C318.88 598.427 319.347 598.26 319.92 598.26C320.493 598.26 320.96 598.42 321.32 598.74C321.68 599.06 321.86 599.46 321.86 599.94C321.86 600.46 321.68 600.893 321.32 601.24C320.96 601.573 320.493 601.74 319.92 601.74ZM330.916 603.08C332.249 603.08 333.322 603.48 334.136 604.28C334.962 605.08 335.376 606.267 335.376 607.84V614H332.256V608.32C332.256 607.467 332.069 606.833 331.696 606.42C331.322 605.993 330.782 605.78 330.076 605.78C329.289 605.78 328.662 606.027 328.196 606.52C327.729 607 327.496 607.72 327.496 608.68V614H324.376V603.24H327.356V604.5C327.769 604.047 328.282 603.7 328.896 603.46C329.509 603.207 330.182 603.08 330.916 603.08ZM349.421 603.24V612.2C349.421 614.173 348.908 615.64 347.881 616.6C346.854 617.56 345.354 618.04 343.381 618.04C342.341 618.04 341.354 617.913 340.421 617.66C339.488 617.407 338.714 617.04 338.101 616.56L339.341 614.32C339.794 614.693 340.368 614.987 341.061 615.2C341.754 615.427 342.448 615.54 343.141 615.54C344.221 615.54 345.014 615.293 345.521 614.8C346.041 614.32 346.301 613.587 346.301 612.6V612.14C345.488 613.033 344.354 613.48 342.901 613.48C341.914 613.48 341.008 613.267 340.181 612.84C339.368 612.4 338.721 611.787 338.241 611C337.761 610.213 337.521 609.307 337.521 608.28C337.521 607.253 337.761 606.347 338.241 605.56C338.721 604.773 339.368 604.167 340.181 603.74C341.008 603.3 341.914 603.08 342.901 603.08C344.461 603.08 345.648 603.593 346.461 604.62V603.24H349.421ZM343.521 610.92C344.348 610.92 345.021 610.68 345.541 610.2C346.074 609.707 346.341 609.067 346.341 608.28C346.341 607.493 346.074 606.86 345.541 606.38C345.021 605.887 344.348 605.64 343.521 605.64C342.694 605.64 342.014 605.887 341.481 606.38C340.948 606.86 340.681 607.493 340.681 608.28C340.681 609.067 340.948 609.707 341.481 610.2C342.014 610.68 342.694 610.92 343.521 610.92Z" fill="white"/>
</svg>
