<svg width="515" height="708" viewBox="0 0 515 708" fill="none" xmlns="http://www.w3.org/2000/svg">
<rect x="2.10809" y="1.5" width="510.608" height="705" rx="30.5" fill="white" stroke="#FF8000" stroke-width="3"/>
<path d="M69.2749 303C69.2749 310.347 75.2482 316.333 82.6082 316.333C89.9549 316.333 95.9416 310.347 95.9416 303C95.9416 295.64 89.9549 289.667 82.6082 289.667C75.2482 289.667 69.2749 295.64 69.2749 303V303Z" fill="#130F26"/>
<rect x="77.643" y="301.743" width="6.91934" height="2.30645" rx="1.15322" transform="rotate(45 77.643 301.743)" fill="white"/>
<rect x="89.8749" y="299.297" width="12.6855" height="2.30645" rx="1.15322" transform="rotate(135 89.8749 299.297)" fill="white"/>
<path d="M123.088 310.5L119.708 305.64L116.388 310.5H112.668L117.848 303.38L112.928 296.5H116.608L119.828 301.04L122.988 296.5H126.488L121.608 303.26L126.828 310.5H123.088ZM140.269 296.5C141.509 296.5 142.583 296.707 143.49 297.12C144.41 297.533 145.116 298.12 145.61 298.88C146.103 299.64 146.35 300.54 146.35 301.58C146.35 302.607 146.103 303.507 145.61 304.28C145.116 305.04 144.41 305.627 143.49 306.04C142.583 306.44 141.509 306.64 140.269 306.64H137.449V310.5H134.209V296.5H140.269ZM140.089 304C141.063 304 141.803 303.793 142.31 303.38C142.816 302.953 143.069 302.353 143.069 301.58C143.069 300.793 142.816 300.193 142.31 299.78C141.803 299.353 141.063 299.14 140.089 299.14H137.449V304H140.089ZM153.543 310.66C152.41 310.66 151.39 310.427 150.483 309.96C149.59 309.48 148.89 308.82 148.383 307.98C147.876 307.14 147.623 306.187 147.623 305.12C147.623 304.053 147.876 303.1 148.383 302.26C148.89 301.42 149.59 300.767 150.483 300.3C151.39 299.82 152.41 299.58 153.543 299.58C154.676 299.58 155.69 299.82 156.583 300.3C157.476 300.767 158.176 301.42 158.683 302.26C159.19 303.1 159.443 304.053 159.443 305.12C159.443 306.187 159.19 307.14 158.683 307.98C158.176 308.82 157.476 309.48 156.583 309.96C155.69 310.427 154.676 310.66 153.543 310.66ZM153.543 308.1C154.343 308.1 154.996 307.833 155.503 307.3C156.023 306.753 156.283 306.027 156.283 305.12C156.283 304.213 156.023 303.493 155.503 302.96C154.996 302.413 154.343 302.14 153.543 302.14C152.743 302.14 152.083 302.413 151.563 302.96C151.043 303.493 150.783 304.213 150.783 305.12C150.783 306.027 151.043 306.753 151.563 307.3C152.083 307.833 152.743 308.1 153.543 308.1ZM165.149 310.66C164.255 310.66 163.382 310.553 162.529 310.34C161.675 310.113 160.995 309.833 160.489 309.5L161.529 307.26C162.009 307.567 162.589 307.82 163.269 308.02C163.949 308.207 164.615 308.3 165.269 308.3C166.589 308.3 167.249 307.973 167.249 307.32C167.249 307.013 167.069 306.793 166.709 306.66C166.349 306.527 165.795 306.413 165.049 306.32C164.169 306.187 163.442 306.033 162.869 305.86C162.295 305.687 161.795 305.38 161.369 304.94C160.955 304.5 160.749 303.873 160.749 303.06C160.749 302.38 160.942 301.78 161.329 301.26C161.729 300.727 162.302 300.313 163.049 300.02C163.809 299.727 164.702 299.58 165.729 299.58C166.489 299.58 167.242 299.667 167.989 299.84C168.749 300 169.375 300.227 169.869 300.52L168.829 302.74C167.882 302.207 166.849 301.94 165.729 301.94C165.062 301.94 164.562 302.033 164.229 302.22C163.895 302.407 163.729 302.647 163.729 302.94C163.729 303.273 163.909 303.507 164.269 303.64C164.629 303.773 165.202 303.9 165.989 304.02C166.869 304.167 167.589 304.327 168.149 304.5C168.709 304.66 169.195 304.96 169.609 305.4C170.022 305.84 170.229 306.453 170.229 307.24C170.229 307.907 170.029 308.5 169.629 309.02C169.229 309.54 168.642 309.947 167.869 310.24C167.109 310.52 166.202 310.66 165.149 310.66ZM179.094 309.98C178.787 310.207 178.407 310.38 177.954 310.5C177.514 310.607 177.047 310.66 176.554 310.66C175.274 310.66 174.28 310.333 173.574 309.68C172.88 309.027 172.534 308.067 172.534 306.8V302.38H170.874V299.98H172.534V297.36H175.654V299.98H178.334V302.38H175.654V306.76C175.654 307.213 175.767 307.567 175.994 307.82C176.234 308.06 176.567 308.18 176.994 308.18C177.487 308.18 177.907 308.047 178.254 307.78L179.094 309.98ZM184.465 310.66C183.572 310.66 182.698 310.553 181.845 310.34C180.992 310.113 180.312 309.833 179.805 309.5L180.845 307.26C181.325 307.567 181.905 307.82 182.585 308.02C183.265 308.207 183.932 308.3 184.585 308.3C185.905 308.3 186.565 307.973 186.565 307.32C186.565 307.013 186.385 306.793 186.025 306.66C185.665 306.527 185.112 306.413 184.365 306.32C183.485 306.187 182.758 306.033 182.185 305.86C181.612 305.687 181.112 305.38 180.685 304.94C180.272 304.5 180.065 303.873 180.065 303.06C180.065 302.38 180.258 301.78 180.645 301.26C181.045 300.727 181.618 300.313 182.365 300.02C183.125 299.727 184.018 299.58 185.045 299.58C185.805 299.58 186.558 299.667 187.305 299.84C188.065 300 188.692 300.227 189.185 300.52L188.145 302.74C187.198 302.207 186.165 301.94 185.045 301.94C184.378 301.94 183.878 302.033 183.545 302.22C183.212 302.407 183.045 302.647 183.045 302.94C183.045 303.273 183.225 303.507 183.585 303.64C183.945 303.773 184.518 303.9 185.305 304.02C186.185 304.167 186.905 304.327 187.465 304.5C188.025 304.66 188.512 304.96 188.925 305.4C189.338 305.84 189.545 306.453 189.545 307.24C189.545 307.907 189.345 308.5 188.945 309.02C188.545 309.54 187.958 309.947 187.185 310.24C186.425 310.52 185.518 310.66 184.465 310.66ZM202.841 299.8C203.868 299.8 204.788 300.027 205.601 300.48C206.414 300.933 207.048 301.567 207.501 302.38C207.968 303.193 208.201 304.133 208.201 305.2C208.201 306.267 207.968 307.213 207.501 308.04C207.048 308.853 206.414 309.487 205.601 309.94C204.788 310.393 203.868 310.62 202.841 310.62C202.081 310.62 201.381 310.473 200.741 310.18C200.114 309.887 199.581 309.46 199.141 308.9V314.38H197.221V299.9H199.061V301.58C199.488 300.993 200.028 300.553 200.681 300.26C201.334 299.953 202.054 299.8 202.841 299.8ZM202.681 308.94C203.361 308.94 203.968 308.787 204.501 308.48C205.048 308.16 205.474 307.72 205.781 307.16C206.101 306.587 206.261 305.933 206.261 305.2C206.261 304.467 206.101 303.82 205.781 303.26C205.474 302.687 205.048 302.247 204.501 301.94C203.968 301.633 203.361 301.48 202.681 301.48C202.014 301.48 201.408 301.64 200.861 301.96C200.328 302.267 199.901 302.7 199.581 303.26C199.274 303.82 199.121 304.467 199.121 305.2C199.121 305.933 199.274 306.587 199.581 307.16C199.888 307.72 200.314 308.16 200.861 308.48C201.408 308.787 202.014 308.94 202.681 308.94ZM220.434 305.26C220.434 305.407 220.421 305.6 220.394 305.84H211.794C211.914 306.773 212.321 307.527 213.014 308.1C213.721 308.66 214.594 308.94 215.634 308.94C216.901 308.94 217.921 308.513 218.694 307.66L219.754 308.9C219.274 309.46 218.674 309.887 217.954 310.18C217.247 310.473 216.454 310.62 215.574 310.62C214.454 310.62 213.461 310.393 212.594 309.94C211.727 309.473 211.054 308.827 210.574 308C210.107 307.173 209.874 306.24 209.874 305.2C209.874 304.173 210.101 303.247 210.554 302.42C211.021 301.593 211.654 300.953 212.454 300.5C213.267 300.033 214.181 299.8 215.194 299.8C216.207 299.8 217.107 300.033 217.894 300.5C218.694 300.953 219.314 301.593 219.754 302.42C220.207 303.247 220.434 304.193 220.434 305.26ZM215.194 301.42C214.274 301.42 213.501 301.7 212.874 302.26C212.261 302.82 211.901 303.553 211.794 304.46H218.594C218.487 303.567 218.121 302.84 217.494 302.28C216.881 301.707 216.114 301.42 215.194 301.42ZM224.94 301.68C225.273 301.067 225.767 300.6 226.42 300.28C227.073 299.96 227.867 299.8 228.8 299.8V301.66C228.693 301.647 228.547 301.64 228.36 301.64C227.32 301.64 226.5 301.953 225.9 302.58C225.313 303.193 225.02 304.073 225.02 305.22V310.5H223.1V299.9H224.94V301.68ZM252.714 299.9L248.754 310.5H246.914L243.854 302.46L240.754 310.5H238.914L234.974 299.9H236.794L239.874 308.34L243.074 299.9H244.694L247.834 308.38L250.994 299.9H252.714ZM263.95 305.26C263.95 305.407 263.936 305.6 263.909 305.84H255.309C255.429 306.773 255.836 307.527 256.529 308.1C257.236 308.66 258.109 308.94 259.149 308.94C260.416 308.94 261.436 308.513 262.209 307.66L263.269 308.9C262.789 309.46 262.189 309.887 261.469 310.18C260.763 310.473 259.969 310.62 259.089 310.62C257.969 310.62 256.976 310.393 256.109 309.94C255.243 309.473 254.569 308.827 254.089 308C253.623 307.173 253.389 306.24 253.389 305.2C253.389 304.173 253.616 303.247 254.069 302.42C254.536 301.593 255.169 300.953 255.969 300.5C256.783 300.033 257.696 299.8 258.71 299.8C259.723 299.8 260.623 300.033 261.409 300.5C262.209 300.953 262.829 301.593 263.269 302.42C263.723 303.247 263.95 304.193 263.95 305.26ZM258.71 301.42C257.789 301.42 257.016 301.7 256.389 302.26C255.776 302.82 255.416 303.553 255.309 304.46H262.109C262.003 303.567 261.636 302.84 261.009 302.28C260.396 301.707 259.629 301.42 258.71 301.42ZM276.196 305.26C276.196 305.407 276.182 305.6 276.156 305.84H267.556C267.676 306.773 268.082 307.527 268.776 308.1C269.482 308.66 270.356 308.94 271.396 308.94C272.662 308.94 273.682 308.513 274.456 307.66L275.516 308.9C275.036 309.46 274.436 309.887 273.716 310.18C273.009 310.473 272.216 310.62 271.336 310.62C270.216 310.62 269.222 310.393 268.356 309.94C267.489 309.473 266.816 308.827 266.336 308C265.869 307.173 265.636 306.24 265.636 305.2C265.636 304.173 265.862 303.247 266.316 302.42C266.782 301.593 267.416 300.953 268.216 300.5C269.029 300.033 269.942 299.8 270.956 299.8C271.969 299.8 272.869 300.033 273.656 300.5C274.456 300.953 275.076 301.593 275.516 302.42C275.969 303.247 276.196 304.193 276.196 305.26ZM270.956 301.42C270.036 301.42 269.262 301.7 268.636 302.26C268.022 302.82 267.662 303.553 267.556 304.46H274.356C274.249 303.567 273.882 302.84 273.256 302.28C272.642 301.707 271.876 301.42 270.956 301.42ZM282.982 305.56L280.782 307.6V310.5H278.862V295.66H280.782V305.18L286.562 299.9H288.882L284.422 304.28L289.322 310.5H286.962L282.982 305.56Z" fill="#1A1A1A"/>
<path d="M69.2749 355C69.2749 362.347 75.2482 368.333 82.6082 368.333C89.9549 368.333 95.9416 362.347 95.9416 355C95.9416 347.64 89.9549 341.667 82.6082 341.667C75.2482 341.667 69.2749 347.64 69.2749 355V355Z" fill="#130F26"/>
<rect x="77.643" y="353.743" width="6.91934" height="2.30645" rx="1.15322" transform="rotate(45 77.643 353.743)" fill="white"/>
<rect x="89.8749" y="351.297" width="12.6855" height="2.30645" rx="1.15322" transform="rotate(135 89.8749 351.297)" fill="white"/>
<path d="M123.088 362.5L119.708 357.64L116.388 362.5H112.668L117.848 355.38L112.928 348.5H116.608L119.828 353.04L122.988 348.5H126.488L121.608 355.26L126.828 362.5H123.088ZM143.13 362.5L140.429 358.6H140.269H137.449V362.5H134.209V348.5H140.269C141.509 348.5 142.583 348.707 143.49 349.12C144.41 349.533 145.116 350.12 145.61 350.88C146.103 351.64 146.35 352.54 146.35 353.58C146.35 354.62 146.096 355.52 145.589 356.28C145.096 357.027 144.389 357.6 143.469 358L146.609 362.5H143.13ZM143.069 353.58C143.069 352.793 142.816 352.193 142.31 351.78C141.803 351.353 141.063 351.14 140.089 351.14H137.449V356.02H140.089C141.063 356.02 141.803 355.807 142.31 355.38C142.816 354.953 143.069 354.353 143.069 353.58ZM159.237 357.16C159.237 357.2 159.217 357.48 159.177 358H151.037C151.183 358.667 151.53 359.193 152.077 359.58C152.623 359.967 153.303 360.16 154.117 360.16C154.677 360.16 155.17 360.08 155.597 359.92C156.037 359.747 156.443 359.48 156.817 359.12L158.477 360.92C157.463 362.08 155.983 362.66 154.037 362.66C152.823 362.66 151.75 362.427 150.817 361.96C149.883 361.48 149.163 360.82 148.657 359.98C148.15 359.14 147.897 358.187 147.897 357.12C147.897 356.067 148.143 355.12 148.637 354.28C149.143 353.427 149.83 352.767 150.697 352.3C151.577 351.82 152.557 351.58 153.637 351.58C154.69 351.58 155.643 351.807 156.497 352.26C157.35 352.713 158.017 353.367 158.497 354.22C158.99 355.06 159.237 356.04 159.237 357.16ZM153.657 353.94C152.95 353.94 152.357 354.14 151.877 354.54C151.397 354.94 151.103 355.487 150.997 356.18H156.297C156.19 355.5 155.897 354.96 155.417 354.56C154.937 354.147 154.35 353.94 153.657 353.94ZM171.854 357.16C171.854 357.2 171.834 357.48 171.794 358H163.654C163.8 358.667 164.147 359.193 164.694 359.58C165.24 359.967 165.92 360.16 166.734 360.16C167.294 360.16 167.787 360.08 168.214 359.92C168.654 359.747 169.06 359.48 169.434 359.12L171.094 360.92C170.08 362.08 168.6 362.66 166.654 362.66C165.44 362.66 164.367 362.427 163.434 361.96C162.5 361.48 161.78 360.82 161.274 359.98C160.767 359.14 160.514 358.187 160.514 357.12C160.514 356.067 160.76 355.12 161.254 354.28C161.76 353.427 162.447 352.767 163.314 352.3C164.194 351.82 165.174 351.58 166.254 351.58C167.307 351.58 168.26 351.807 169.114 352.26C169.967 352.713 170.634 353.367 171.114 354.22C171.607 355.06 171.854 356.04 171.854 357.16ZM166.274 353.94C165.567 353.94 164.974 354.14 164.494 354.54C164.014 354.94 163.72 355.487 163.614 356.18H168.914C168.807 355.5 168.514 354.96 168.034 354.56C167.554 354.147 166.967 353.94 166.274 353.94ZM173.931 347.66H177.051V362.5H173.931V347.66ZM183.567 362.66C182.673 362.66 181.8 362.553 180.947 362.34C180.093 362.113 179.413 361.833 178.907 361.5L179.947 359.26C180.427 359.567 181.007 359.82 181.687 360.02C182.367 360.207 183.033 360.3 183.687 360.3C185.007 360.3 185.667 359.973 185.667 359.32C185.667 359.013 185.487 358.793 185.127 358.66C184.767 358.527 184.213 358.413 183.467 358.32C182.587 358.187 181.86 358.033 181.287 357.86C180.713 357.687 180.213 357.38 179.787 356.94C179.373 356.5 179.167 355.873 179.167 355.06C179.167 354.38 179.36 353.78 179.747 353.26C180.147 352.727 180.72 352.313 181.467 352.02C182.227 351.727 183.12 351.58 184.147 351.58C184.907 351.58 185.66 351.667 186.407 351.84C187.167 352 187.793 352.227 188.287 352.52L187.247 354.74C186.3 354.207 185.267 353.94 184.147 353.94C183.48 353.94 182.98 354.033 182.647 354.22C182.313 354.407 182.147 354.647 182.147 354.94C182.147 355.273 182.327 355.507 182.687 355.64C183.047 355.773 183.62 355.9 184.407 356.02C185.287 356.167 186.007 356.327 186.567 356.5C187.127 356.66 187.613 356.96 188.027 357.4C188.44 357.84 188.647 358.453 188.647 359.24C188.647 359.907 188.447 360.5 188.047 361.02C187.647 361.54 187.06 361.947 186.287 362.24C185.527 362.52 184.62 362.66 183.567 362.66ZM201.943 351.8C202.969 351.8 203.889 352.027 204.703 352.48C205.516 352.933 206.149 353.567 206.603 354.38C207.069 355.193 207.303 356.133 207.303 357.2C207.303 358.267 207.069 359.213 206.603 360.04C206.149 360.853 205.516 361.487 204.703 361.94C203.889 362.393 202.969 362.62 201.943 362.62C201.183 362.62 200.483 362.473 199.843 362.18C199.216 361.887 198.683 361.46 198.243 360.9V366.38H196.323V351.9H198.163V353.58C198.589 352.993 199.129 352.553 199.783 352.26C200.436 351.953 201.156 351.8 201.943 351.8ZM201.783 360.94C202.463 360.94 203.069 360.787 203.603 360.48C204.149 360.16 204.576 359.72 204.883 359.16C205.203 358.587 205.363 357.933 205.363 357.2C205.363 356.467 205.203 355.82 204.883 355.26C204.576 354.687 204.149 354.247 203.603 353.94C203.069 353.633 202.463 353.48 201.783 353.48C201.116 353.48 200.509 353.64 199.963 353.96C199.429 354.267 199.003 354.7 198.683 355.26C198.376 355.82 198.223 356.467 198.223 357.2C198.223 357.933 198.376 358.587 198.683 359.16C198.989 359.72 199.416 360.16 199.963 360.48C200.509 360.787 201.116 360.94 201.783 360.94ZM219.535 357.26C219.535 357.407 219.522 357.6 219.495 357.84H210.895C211.015 358.773 211.422 359.527 212.115 360.1C212.822 360.66 213.695 360.94 214.735 360.94C216.002 360.94 217.022 360.513 217.795 359.66L218.855 360.9C218.375 361.46 217.775 361.887 217.055 362.18C216.349 362.473 215.555 362.62 214.675 362.62C213.555 362.62 212.562 362.393 211.695 361.94C210.829 361.473 210.155 360.827 209.675 360C209.209 359.173 208.975 358.24 208.975 357.2C208.975 356.173 209.202 355.247 209.655 354.42C210.122 353.593 210.755 352.953 211.555 352.5C212.369 352.033 213.282 351.8 214.295 351.8C215.309 351.8 216.209 352.033 216.995 352.5C217.795 352.953 218.415 353.593 218.855 354.42C219.309 355.247 219.535 356.193 219.535 357.26ZM214.295 353.42C213.375 353.42 212.602 353.7 211.975 354.26C211.362 354.82 211.002 355.553 210.895 356.46H217.695C217.589 355.567 217.222 354.84 216.595 354.28C215.982 353.707 215.215 353.42 214.295 353.42ZM224.042 353.68C224.375 353.067 224.868 352.6 225.522 352.28C226.175 351.96 226.968 351.8 227.902 351.8V353.66C227.795 353.647 227.648 353.64 227.462 353.64C226.422 353.64 225.602 353.953 225.002 354.58C224.415 355.193 224.122 356.073 224.122 357.22V362.5H222.202V351.9H224.042V353.68ZM251.816 351.9L247.856 362.5H246.016L242.956 354.46L239.856 362.5H238.016L234.076 351.9H235.896L238.976 360.34L242.176 351.9H243.796L246.936 360.38L250.096 351.9H251.816ZM263.051 357.26C263.051 357.407 263.038 357.6 263.011 357.84H254.411C254.531 358.773 254.938 359.527 255.631 360.1C256.338 360.66 257.211 360.94 258.251 360.94C259.518 360.94 260.538 360.513 261.311 359.66L262.371 360.9C261.891 361.46 261.291 361.887 260.571 362.18C259.864 362.473 259.071 362.62 258.191 362.62C257.071 362.62 256.078 362.393 255.211 361.94C254.344 361.473 253.671 360.827 253.191 360C252.724 359.173 252.491 358.24 252.491 357.2C252.491 356.173 252.718 355.247 253.171 354.42C253.638 353.593 254.271 352.953 255.071 352.5C255.884 352.033 256.798 351.8 257.811 351.8C258.824 351.8 259.724 352.033 260.511 352.5C261.311 352.953 261.931 353.593 262.371 354.42C262.824 355.247 263.051 356.193 263.051 357.26ZM257.811 353.42C256.891 353.42 256.118 353.7 255.491 354.26C254.878 354.82 254.518 355.553 254.411 356.46H261.211C261.104 355.567 260.738 354.84 260.111 354.28C259.498 353.707 258.731 353.42 257.811 353.42ZM275.297 357.26C275.297 357.407 275.284 357.6 275.257 357.84H266.657C266.777 358.773 267.184 359.527 267.877 360.1C268.584 360.66 269.457 360.94 270.497 360.94C271.764 360.94 272.784 360.513 273.557 359.66L274.617 360.9C274.137 361.46 273.537 361.887 272.817 362.18C272.11 362.473 271.317 362.62 270.437 362.62C269.317 362.62 268.324 362.393 267.457 361.94C266.59 361.473 265.917 360.827 265.437 360C264.97 359.173 264.737 358.24 264.737 357.2C264.737 356.173 264.964 355.247 265.417 354.42C265.884 353.593 266.517 352.953 267.317 352.5C268.13 352.033 269.044 351.8 270.057 351.8C271.07 351.8 271.97 352.033 272.757 352.5C273.557 352.953 274.177 353.593 274.617 354.42C275.07 355.247 275.297 356.193 275.297 357.26ZM270.057 353.42C269.137 353.42 268.364 353.7 267.737 354.26C267.124 354.82 266.764 355.553 266.657 356.46H273.457C273.35 355.567 272.984 354.84 272.357 354.28C271.744 353.707 270.977 353.42 270.057 353.42ZM282.083 357.56L279.883 359.6V362.5H277.963V347.66H279.883V357.18L285.663 351.9H287.983L283.523 356.28L288.423 362.5H286.063L282.083 357.56Z" fill="#1A1A1A"/>
<path d="M69.2749 459C69.2749 466.347 75.2482 472.333 82.6082 472.333C89.9549 472.333 95.9416 466.347 95.9416 459C95.9416 451.64 89.9549 445.667 82.6082 445.667C75.2482 445.667 69.2749 451.64 69.2749 459V459Z" fill="#130F26"/>
<rect x="77.643" y="457.743" width="6.91934" height="2.30645" rx="1.15322" transform="rotate(45 77.643 457.743)" fill="white"/>
<rect x="89.8749" y="455.297" width="12.6855" height="2.30645" rx="1.15322" transform="rotate(135 89.8749 455.297)" fill="white"/>
<path d="M123.628 462H116.188L114.648 465.5H112.588L118.928 451.5H120.908L127.268 465.5H125.168L123.628 462ZM122.928 460.4L119.908 453.54L116.888 460.4H122.928ZM133.599 465.62C132.519 465.62 131.552 465.387 130.699 464.92C129.859 464.453 129.199 463.813 128.719 463C128.239 462.173 127.999 461.24 127.999 460.2C127.999 459.16 128.239 458.233 128.719 457.42C129.199 456.593 129.859 455.953 130.699 455.5C131.552 455.033 132.519 454.8 133.599 454.8C134.559 454.8 135.412 454.993 136.159 455.38C136.919 455.767 137.506 456.327 137.919 457.06L136.459 458C136.126 457.493 135.712 457.113 135.219 456.86C134.726 456.607 134.179 456.48 133.579 456.48C132.886 456.48 132.259 456.633 131.699 456.94C131.152 457.247 130.719 457.687 130.399 458.26C130.092 458.82 129.939 459.467 129.939 460.2C129.939 460.947 130.092 461.607 130.399 462.18C130.719 462.74 131.152 463.173 131.699 463.48C132.259 463.787 132.886 463.94 133.579 463.94C134.179 463.94 134.726 463.813 135.219 463.56C135.712 463.307 136.126 462.927 136.459 462.42L137.919 463.34C137.506 464.073 136.919 464.64 136.159 465.04C135.412 465.427 134.559 465.62 133.599 465.62ZM144.868 465.62C143.788 465.62 142.822 465.387 141.968 464.92C141.128 464.453 140.468 463.813 139.988 463C139.508 462.173 139.268 461.24 139.268 460.2C139.268 459.16 139.508 458.233 139.988 457.42C140.468 456.593 141.128 455.953 141.968 455.5C142.822 455.033 143.788 454.8 144.868 454.8C145.828 454.8 146.682 454.993 147.428 455.38C148.188 455.767 148.775 456.327 149.188 457.06L147.728 458C147.395 457.493 146.982 457.113 146.488 456.86C145.995 456.607 145.448 456.48 144.848 456.48C144.155 456.48 143.528 456.633 142.968 456.94C142.422 457.247 141.988 457.687 141.668 458.26C141.362 458.82 141.208 459.467 141.208 460.2C141.208 460.947 141.362 461.607 141.668 462.18C141.988 462.74 142.422 463.173 142.968 463.48C143.528 463.787 144.155 463.94 144.848 463.94C145.448 463.94 145.995 463.813 146.488 463.56C146.982 463.307 147.395 462.927 147.728 462.42L149.188 463.34C148.775 464.073 148.188 464.64 147.428 465.04C146.682 465.427 145.828 465.62 144.868 465.62ZM156.058 465.62C155.005 465.62 154.058 465.387 153.218 464.92C152.378 464.453 151.718 463.813 151.238 463C150.771 462.173 150.538 461.24 150.538 460.2C150.538 459.16 150.771 458.233 151.238 457.42C151.718 456.593 152.378 455.953 153.218 455.5C154.058 455.033 155.005 454.8 156.058 454.8C157.111 454.8 158.051 455.033 158.878 455.5C159.718 455.953 160.371 456.593 160.838 457.42C161.318 458.233 161.558 459.16 161.558 460.2C161.558 461.24 161.318 462.173 160.838 463C160.371 463.813 159.718 464.453 158.878 464.92C158.051 465.387 157.111 465.62 156.058 465.62ZM156.058 463.94C156.738 463.94 157.345 463.787 157.878 463.48C158.425 463.16 158.851 462.72 159.158 462.16C159.465 461.587 159.618 460.933 159.618 460.2C159.618 459.467 159.465 458.82 159.158 458.26C158.851 457.687 158.425 457.247 157.878 456.94C157.345 456.633 156.738 456.48 156.058 456.48C155.378 456.48 154.765 456.633 154.218 456.94C153.685 457.247 153.258 457.687 152.938 458.26C152.631 458.82 152.478 459.467 152.478 460.2C152.478 460.933 152.631 461.587 152.938 462.16C153.258 462.72 153.685 463.16 154.218 463.48C154.765 463.787 155.378 463.94 156.058 463.94ZM174.093 454.9V465.5H172.273V463.9C171.887 464.447 171.373 464.873 170.733 465.18C170.107 465.473 169.42 465.62 168.673 465.62C167.26 465.62 166.147 465.233 165.333 464.46C164.52 463.673 164.113 462.52 164.113 461V454.9H166.033V460.78C166.033 461.807 166.28 462.587 166.773 463.12C167.267 463.64 167.973 463.9 168.893 463.9C169.907 463.9 170.707 463.593 171.293 462.98C171.88 462.367 172.173 461.5 172.173 460.38V454.9H174.093ZM183.408 454.8C184.755 454.8 185.822 455.193 186.608 455.98C187.408 456.753 187.808 457.893 187.808 459.4V465.5H185.888V459.62C185.888 458.593 185.642 457.82 185.148 457.3C184.655 456.78 183.948 456.52 183.028 456.52C181.988 456.52 181.168 456.827 180.568 457.44C179.968 458.04 179.668 458.907 179.668 460.04V465.5H177.748V454.9H179.588V456.5C179.975 455.953 180.495 455.533 181.148 455.24C181.815 454.947 182.568 454.8 183.408 454.8ZM197.322 464.88C197.042 465.12 196.695 465.307 196.282 465.44C195.868 465.56 195.442 465.62 195.002 465.62C193.935 465.62 193.108 465.333 192.522 464.76C191.935 464.187 191.642 463.367 191.642 462.3V456.48H189.842V454.9H191.642V452.58H193.562V454.9H196.602V456.48H193.562V462.22C193.562 462.793 193.702 463.233 193.982 463.54C194.275 463.847 194.688 464 195.222 464C195.808 464 196.308 463.833 196.722 463.5L197.322 464.88ZM218.274 454.8C219.607 454.8 220.661 455.187 221.434 455.96C222.221 456.733 222.614 457.88 222.614 459.4V465.5H220.694V459.62C220.694 458.593 220.454 457.82 219.974 457.3C219.507 456.78 218.834 456.52 217.954 456.52C216.981 456.52 216.207 456.827 215.634 457.44C215.061 458.04 214.774 458.907 214.774 460.04V465.5H212.854V459.62C212.854 458.593 212.614 457.82 212.134 457.3C211.667 456.78 210.994 456.52 210.114 456.52C209.141 456.52 208.367 456.827 207.794 457.44C207.221 458.04 206.934 458.907 206.934 460.04V465.5H205.014V454.9H206.854V456.48C207.241 455.933 207.747 455.52 208.374 455.24C209.001 454.947 209.714 454.8 210.514 454.8C211.341 454.8 212.074 454.967 212.714 455.3C213.354 455.633 213.847 456.12 214.194 456.76C214.594 456.147 215.147 455.667 215.854 455.32C216.574 454.973 217.381 454.8 218.274 454.8ZM230.007 454.8C231.474 454.8 232.594 455.16 233.367 455.88C234.154 456.6 234.547 457.673 234.547 459.1V465.5H232.727V464.1C232.407 464.593 231.947 464.973 231.347 465.24C230.76 465.493 230.06 465.62 229.247 465.62C228.06 465.62 227.107 465.333 226.387 464.76C225.68 464.187 225.327 463.433 225.327 462.5C225.327 461.567 225.667 460.82 226.347 460.26C227.027 459.687 228.107 459.4 229.587 459.4H232.627V459.02C232.627 458.193 232.387 457.56 231.907 457.12C231.427 456.68 230.72 456.46 229.787 456.46C229.16 456.46 228.547 456.567 227.947 456.78C227.347 456.98 226.84 457.253 226.427 457.6L225.627 456.16C226.174 455.72 226.827 455.387 227.587 455.16C228.347 454.92 229.154 454.8 230.007 454.8ZM229.567 464.14C230.3 464.14 230.934 463.98 231.467 463.66C232 463.327 232.387 462.86 232.627 462.26V460.78H229.667C228.04 460.78 227.227 461.327 227.227 462.42C227.227 462.953 227.434 463.373 227.847 463.68C228.26 463.987 228.834 464.14 229.567 464.14ZM243.76 454.8C245.107 454.8 246.173 455.193 246.96 455.98C247.76 456.753 248.16 457.893 248.16 459.4V465.5H246.24V459.62C246.24 458.593 245.993 457.82 245.5 457.3C245.007 456.78 244.3 456.52 243.38 456.52C242.34 456.52 241.52 456.827 240.92 457.44C240.32 458.04 240.02 458.907 240.02 460.04V465.5H238.1V454.9H239.94V456.5C240.327 455.953 240.847 455.533 241.5 455.24C242.167 454.947 242.92 454.8 243.76 454.8ZM255.573 454.8C257.04 454.8 258.16 455.16 258.933 455.88C259.72 456.6 260.113 457.673 260.113 459.1V465.5H258.293V464.1C257.973 464.593 257.513 464.973 256.913 465.24C256.327 465.493 255.627 465.62 254.813 465.62C253.627 465.62 252.673 465.333 251.953 464.76C251.247 464.187 250.893 463.433 250.893 462.5C250.893 461.567 251.233 460.82 251.913 460.26C252.593 459.687 253.673 459.4 255.153 459.4H258.193V459.02C258.193 458.193 257.953 457.56 257.473 457.12C256.993 456.68 256.287 456.46 255.353 456.46C254.727 456.46 254.113 456.567 253.513 456.78C252.913 456.98 252.407 457.253 251.993 457.6L251.193 456.16C251.74 455.72 252.393 455.387 253.153 455.16C253.913 454.92 254.72 454.8 255.573 454.8ZM255.133 464.14C255.867 464.14 256.5 463.98 257.033 463.66C257.567 463.327 257.953 462.86 258.193 462.26V460.78H255.233C253.607 460.78 252.793 461.327 252.793 462.42C252.793 462.953 253 463.373 253.413 463.68C253.827 463.987 254.4 464.14 255.133 464.14ZM273.865 454.9V464.06C273.865 465.913 273.405 467.28 272.485 468.16C271.565 469.053 270.192 469.5 268.365 469.5C267.365 469.5 266.412 469.36 265.505 469.08C264.598 468.813 263.865 468.427 263.305 467.92L264.225 466.44C264.718 466.867 265.325 467.2 266.045 467.44C266.778 467.693 267.532 467.82 268.305 467.82C269.545 467.82 270.458 467.527 271.045 466.94C271.645 466.353 271.945 465.46 271.945 464.26V463.42C271.492 463.967 270.932 464.38 270.265 464.66C269.612 464.927 268.898 465.06 268.125 465.06C267.112 465.06 266.192 464.847 265.365 464.42C264.552 463.98 263.912 463.373 263.445 462.6C262.978 461.813 262.745 460.92 262.745 459.92C262.745 458.92 262.978 458.033 263.445 457.26C263.912 456.473 264.552 455.867 265.365 455.44C266.192 455.013 267.112 454.8 268.125 454.8C268.925 454.8 269.665 454.947 270.345 455.24C271.038 455.533 271.605 455.967 272.045 456.54V454.9H273.865ZM268.345 463.38C269.038 463.38 269.658 463.233 270.205 462.94C270.765 462.647 271.198 462.24 271.505 461.72C271.825 461.187 271.985 460.587 271.985 459.92C271.985 458.893 271.645 458.067 270.965 457.44C270.285 456.8 269.412 456.48 268.345 456.48C267.265 456.48 266.385 456.8 265.705 457.44C265.025 458.067 264.685 458.893 264.685 459.92C264.685 460.587 264.838 461.187 265.145 461.72C265.465 462.24 265.898 462.647 266.445 462.94C267.005 463.233 267.638 463.38 268.345 463.38ZM287.114 460.26C287.114 460.407 287.1 460.6 287.074 460.84H278.474C278.594 461.773 279 462.527 279.694 463.1C280.4 463.66 281.274 463.94 282.314 463.94C283.58 463.94 284.6 463.513 285.374 462.66L286.434 463.9C285.954 464.46 285.354 464.887 284.634 465.18C283.927 465.473 283.134 465.62 282.254 465.62C281.134 465.62 280.14 465.393 279.274 464.94C278.407 464.473 277.734 463.827 277.254 463C276.787 462.173 276.554 461.24 276.554 460.2C276.554 459.173 276.78 458.247 277.234 457.42C277.7 456.593 278.334 455.953 279.134 455.5C279.947 455.033 280.86 454.8 281.874 454.8C282.887 454.8 283.787 455.033 284.574 455.5C285.374 455.953 285.994 456.593 286.434 457.42C286.887 458.247 287.114 459.193 287.114 460.26ZM281.874 456.42C280.954 456.42 280.18 456.7 279.554 457.26C278.94 457.82 278.58 458.553 278.474 459.46H285.274C285.167 458.567 284.8 457.84 284.174 457.28C283.56 456.707 282.794 456.42 281.874 456.42ZM303.04 454.8C304.373 454.8 305.426 455.187 306.2 455.96C306.986 456.733 307.38 457.88 307.38 459.4V465.5H305.46V459.62C305.46 458.593 305.22 457.82 304.74 457.3C304.273 456.78 303.6 456.52 302.72 456.52C301.746 456.52 300.973 456.827 300.4 457.44C299.826 458.04 299.54 458.907 299.54 460.04V465.5H297.62V459.62C297.62 458.593 297.38 457.82 296.9 457.3C296.433 456.78 295.76 456.52 294.88 456.52C293.906 456.52 293.133 456.827 292.56 457.44C291.986 458.04 291.7 458.907 291.7 460.04V465.5H289.78V454.9H291.62V456.48C292.006 455.933 292.513 455.52 293.14 455.24C293.766 454.947 294.48 454.8 295.28 454.8C296.106 454.8 296.84 454.967 297.48 455.3C298.12 455.633 298.613 456.12 298.96 456.76C299.36 456.147 299.913 455.667 300.62 455.32C301.34 454.973 302.146 454.8 303.04 454.8ZM320.551 460.26C320.551 460.407 320.538 460.6 320.511 460.84H311.911C312.031 461.773 312.438 462.527 313.131 463.1C313.838 463.66 314.711 463.94 315.751 463.94C317.018 463.94 318.038 463.513 318.811 462.66L319.871 463.9C319.391 464.46 318.791 464.887 318.071 465.18C317.364 465.473 316.571 465.62 315.691 465.62C314.571 465.62 313.578 465.393 312.711 464.94C311.844 464.473 311.171 463.827 310.691 463C310.224 462.173 309.991 461.24 309.991 460.2C309.991 459.173 310.218 458.247 310.671 457.42C311.138 456.593 311.771 455.953 312.571 455.5C313.384 455.033 314.298 454.8 315.311 454.8C316.324 454.8 317.224 455.033 318.011 455.5C318.811 455.953 319.431 456.593 319.871 457.42C320.324 458.247 320.551 459.193 320.551 460.26ZM315.311 456.42C314.391 456.42 313.618 456.7 312.991 457.26C312.378 457.82 312.018 458.553 311.911 459.46H318.711C318.604 458.567 318.238 457.84 317.611 457.28C316.998 456.707 316.231 456.42 315.311 456.42ZM328.877 454.8C330.224 454.8 331.29 455.193 332.077 455.98C332.877 456.753 333.277 457.893 333.277 459.4V465.5H331.357V459.62C331.357 458.593 331.11 457.82 330.617 457.3C330.124 456.78 329.417 456.52 328.497 456.52C327.457 456.52 326.637 456.827 326.037 457.44C325.437 458.04 325.137 458.907 325.137 460.04V465.5H323.217V454.9H325.057V456.5C325.444 455.953 325.964 455.533 326.617 455.24C327.284 454.947 328.037 454.8 328.877 454.8ZM342.79 464.88C342.51 465.12 342.164 465.307 341.75 465.44C341.337 465.56 340.91 465.62 340.47 465.62C339.404 465.62 338.577 465.333 337.99 464.76C337.404 464.187 337.11 463.367 337.11 462.3V456.48H335.31V454.9H337.11V452.58H339.03V454.9H342.07V456.48H339.03V462.22C339.03 462.793 339.17 463.233 339.45 463.54C339.744 463.847 340.157 464 340.69 464C341.277 464 341.777 463.833 342.19 463.5L342.79 464.88ZM358.963 459.3H355.323V462.88H353.643V459.3H350.003V457.72H353.643V454.12H355.323V457.72H358.963V459.3ZM123.628 486H116.188L114.648 489.5H112.588L118.928 475.5H120.908L127.268 489.5H125.168L123.628 486ZM122.928 484.4L119.908 477.54L116.888 484.4H122.928ZM138.761 478.9V489.5H136.941V487.9C136.555 488.447 136.041 488.873 135.401 489.18C134.775 489.473 134.088 489.62 133.341 489.62C131.928 489.62 130.815 489.233 130.001 488.46C129.188 487.673 128.781 486.52 128.781 485V478.9H130.701V484.78C130.701 485.807 130.948 486.587 131.441 487.12C131.935 487.64 132.641 487.9 133.561 487.9C134.575 487.9 135.375 487.593 135.961 486.98C136.548 486.367 136.841 485.5 136.841 484.38V478.9H138.761ZM148.376 488.88C148.096 489.12 147.75 489.307 147.336 489.44C146.923 489.56 146.496 489.62 146.056 489.62C144.99 489.62 144.163 489.333 143.576 488.76C142.99 488.187 142.696 487.367 142.696 486.3V480.48H140.896V478.9H142.696V476.58H144.616V478.9H147.656V480.48H144.616V486.22C144.616 486.793 144.756 487.233 145.036 487.54C145.33 487.847 145.743 488 146.276 488C146.863 488 147.363 487.833 147.776 487.5L148.376 488.88ZM154.886 489.62C153.833 489.62 152.886 489.387 152.046 488.92C151.206 488.453 150.546 487.813 150.066 487C149.599 486.173 149.366 485.24 149.366 484.2C149.366 483.16 149.599 482.233 150.066 481.42C150.546 480.593 151.206 479.953 152.046 479.5C152.886 479.033 153.833 478.8 154.886 478.8C155.939 478.8 156.879 479.033 157.706 479.5C158.546 479.953 159.199 480.593 159.666 481.42C160.146 482.233 160.386 483.16 160.386 484.2C160.386 485.24 160.146 486.173 159.666 487C159.199 487.813 158.546 488.453 157.706 488.92C156.879 489.387 155.939 489.62 154.886 489.62ZM154.886 487.94C155.566 487.94 156.173 487.787 156.706 487.48C157.253 487.16 157.679 486.72 157.986 486.16C158.293 485.587 158.446 484.933 158.446 484.2C158.446 483.467 158.293 482.82 157.986 482.26C157.679 481.687 157.253 481.247 156.706 480.94C156.173 480.633 155.566 480.48 154.886 480.48C154.206 480.48 153.593 480.633 153.046 480.94C152.513 481.247 152.086 481.687 151.766 482.26C151.459 482.82 151.306 483.467 151.306 484.2C151.306 484.933 151.459 485.587 151.766 486.16C152.086 486.72 152.513 487.16 153.046 487.48C153.593 487.787 154.206 487.94 154.886 487.94ZM176.301 478.8C177.635 478.8 178.688 479.187 179.461 479.96C180.248 480.733 180.641 481.88 180.641 483.4V489.5H178.721V483.62C178.721 482.593 178.481 481.82 178.001 481.3C177.535 480.78 176.861 480.52 175.981 480.52C175.008 480.52 174.235 480.827 173.661 481.44C173.088 482.04 172.801 482.907 172.801 484.04V489.5H170.881V483.62C170.881 482.593 170.641 481.82 170.161 481.3C169.695 480.78 169.021 480.52 168.141 480.52C167.168 480.52 166.395 480.827 165.821 481.44C165.248 482.04 164.961 482.907 164.961 484.04V489.5H163.041V478.9H164.881V480.48C165.268 479.933 165.775 479.52 166.401 479.24C167.028 478.947 167.741 478.8 168.541 478.8C169.368 478.8 170.101 478.967 170.741 479.3C171.381 479.633 171.875 480.12 172.221 480.76C172.621 480.147 173.175 479.667 173.881 479.32C174.601 478.973 175.408 478.8 176.301 478.8ZM188.034 478.8C189.501 478.8 190.621 479.16 191.394 479.88C192.181 480.6 192.574 481.673 192.574 483.1V489.5H190.754V488.1C190.434 488.593 189.974 488.973 189.374 489.24C188.788 489.493 188.088 489.62 187.274 489.62C186.088 489.62 185.134 489.333 184.414 488.76C183.708 488.187 183.354 487.433 183.354 486.5C183.354 485.567 183.694 484.82 184.374 484.26C185.054 483.687 186.134 483.4 187.614 483.4H190.654V483.02C190.654 482.193 190.414 481.56 189.934 481.12C189.454 480.68 188.748 480.46 187.814 480.46C187.188 480.46 186.574 480.567 185.974 480.78C185.374 480.98 184.868 481.253 184.454 481.6L183.654 480.16C184.201 479.72 184.854 479.387 185.614 479.16C186.374 478.92 187.181 478.8 188.034 478.8ZM187.594 488.14C188.328 488.14 188.961 487.98 189.494 487.66C190.028 487.327 190.414 486.86 190.654 486.26V484.78H187.694C186.068 484.78 185.254 485.327 185.254 486.42C185.254 486.953 185.461 487.373 185.874 487.68C186.288 487.987 186.861 488.14 187.594 488.14ZM202.087 488.88C201.807 489.12 201.461 489.307 201.047 489.44C200.634 489.56 200.207 489.62 199.767 489.62C198.701 489.62 197.874 489.333 197.287 488.76C196.701 488.187 196.407 487.367 196.407 486.3V480.48H194.607V478.9H196.407V476.58H198.327V478.9H201.367V480.48H198.327V486.22C198.327 486.793 198.467 487.233 198.747 487.54C199.041 487.847 199.454 488 199.987 488C200.574 488 201.074 487.833 201.487 487.5L202.087 488.88ZM204.409 478.9H206.329V489.5H204.409V478.9ZM205.369 476.86C204.995 476.86 204.682 476.74 204.429 476.5C204.189 476.26 204.069 475.967 204.069 475.62C204.069 475.273 204.189 474.98 204.429 474.74C204.682 474.487 204.995 474.36 205.369 474.36C205.742 474.36 206.049 474.48 206.289 474.72C206.542 474.947 206.669 475.233 206.669 475.58C206.669 475.94 206.542 476.247 206.289 476.5C206.049 476.74 205.742 476.86 205.369 476.86ZM214.534 489.62C213.481 489.62 212.534 489.387 211.694 488.92C210.854 488.453 210.194 487.813 209.714 487C209.248 486.173 209.014 485.24 209.014 484.2C209.014 483.16 209.248 482.233 209.714 481.42C210.194 480.593 210.854 479.953 211.694 479.5C212.534 479.033 213.481 478.8 214.534 478.8C215.588 478.8 216.528 479.033 217.354 479.5C218.194 479.953 218.848 480.593 219.315 481.42C219.795 482.233 220.035 483.16 220.035 484.2C220.035 485.24 219.795 486.173 219.315 487C218.848 487.813 218.194 488.453 217.354 488.92C216.528 489.387 215.588 489.62 214.534 489.62ZM214.534 487.94C215.214 487.94 215.821 487.787 216.354 487.48C216.901 487.16 217.328 486.72 217.634 486.16C217.941 485.587 218.094 484.933 218.094 484.2C218.094 483.467 217.941 482.82 217.634 482.26C217.328 481.687 216.901 481.247 216.354 480.94C215.821 480.633 215.214 480.48 214.534 480.48C213.854 480.48 213.241 480.633 212.694 480.94C212.161 481.247 211.734 481.687 211.414 482.26C211.108 482.82 210.954 483.467 210.954 484.2C210.954 484.933 211.108 485.587 211.414 486.16C211.734 486.72 212.161 487.16 212.694 487.48C213.241 487.787 213.854 487.94 214.534 487.94ZM228.35 478.8C229.696 478.8 230.763 479.193 231.55 479.98C232.35 480.753 232.75 481.893 232.75 483.4V489.5H230.83V483.62C230.83 482.593 230.583 481.82 230.09 481.3C229.596 480.78 228.89 480.52 227.97 480.52C226.93 480.52 226.11 480.827 225.51 481.44C224.91 482.04 224.61 482.907 224.61 484.04V489.5H222.69V478.9H224.53V480.5C224.916 479.953 225.436 479.533 226.09 479.24C226.756 478.947 227.51 478.8 228.35 478.8Z" fill="#1A1A1A"/>
<path d="M69.2749 407C69.2749 414.347 75.2482 420.333 82.6082 420.333C89.9549 420.333 95.9416 414.347 95.9416 407C95.9416 399.64 89.9549 393.667 82.6082 393.667C75.2482 393.667 69.2749 399.64 69.2749 407V407Z" fill="#130F26"/>
<rect x="77.643" y="405.743" width="6.91934" height="2.30645" rx="1.15322" transform="rotate(45 77.643 405.743)" fill="white"/>
<rect x="89.8749" y="403.297" width="12.6855" height="2.30645" rx="1.15322" transform="rotate(135 89.8749 403.297)" fill="white"/>
<path d="M114.708 400.5H116.708V414.5H114.708V400.5ZM126.279 403.8C127.626 403.8 128.693 404.193 129.48 404.98C130.28 405.753 130.68 406.893 130.68 408.4V414.5H128.76V408.62C128.76 407.593 128.513 406.82 128.02 406.3C127.526 405.78 126.819 405.52 125.899 405.52C124.859 405.52 124.039 405.827 123.439 406.44C122.839 407.04 122.539 407.907 122.539 409.04V414.5H120.619V403.9H122.459V405.5C122.846 404.953 123.366 404.533 124.019 404.24C124.686 403.947 125.439 403.8 126.279 403.8ZM137.273 414.62C136.406 414.62 135.573 414.507 134.773 414.28C133.973 414.04 133.346 413.74 132.893 413.38L133.693 411.86C134.159 412.193 134.726 412.46 135.393 412.66C136.059 412.86 136.733 412.96 137.413 412.96C139.093 412.96 139.933 412.48 139.933 411.52C139.933 411.2 139.819 410.947 139.593 410.76C139.366 410.573 139.079 410.44 138.733 410.36C138.399 410.267 137.919 410.167 137.293 410.06C136.439 409.927 135.739 409.773 135.193 409.6C134.659 409.427 134.199 409.133 133.813 408.72C133.426 408.307 133.233 407.727 133.233 406.98C133.233 406.02 133.633 405.253 134.433 404.68C135.233 404.093 136.306 403.8 137.653 403.8C138.359 403.8 139.066 403.887 139.773 404.06C140.479 404.233 141.059 404.467 141.513 404.76L140.693 406.28C139.826 405.72 138.806 405.44 137.633 405.44C136.819 405.44 136.199 405.573 135.773 405.84C135.346 406.107 135.133 406.46 135.133 406.9C135.133 407.247 135.253 407.52 135.493 407.72C135.733 407.92 136.026 408.067 136.373 408.16C136.733 408.253 137.233 408.36 137.873 408.48C138.726 408.627 139.413 408.787 139.933 408.96C140.466 409.12 140.919 409.4 141.293 409.8C141.666 410.2 141.853 410.76 141.853 411.48C141.853 412.44 141.439 413.207 140.613 413.78C139.799 414.34 138.686 414.62 137.273 414.62ZM150.212 413.88C149.932 414.12 149.586 414.307 149.172 414.44C148.759 414.56 148.332 414.62 147.892 414.62C146.826 414.62 145.999 414.333 145.412 413.76C144.826 413.187 144.532 412.367 144.532 411.3V405.48H142.732V403.9H144.532V401.58H146.452V403.9H149.492V405.48H146.452V411.22C146.452 411.793 146.592 412.233 146.872 412.54C147.166 412.847 147.579 413 148.112 413C148.699 413 149.199 412.833 149.612 412.5L150.212 413.88ZM156.394 403.8C157.86 403.8 158.98 404.16 159.754 404.88C160.54 405.6 160.934 406.673 160.934 408.1V414.5H159.114V413.1C158.794 413.593 158.334 413.973 157.734 414.24C157.147 414.493 156.447 414.62 155.634 414.62C154.447 414.62 153.494 414.333 152.774 413.76C152.067 413.187 151.714 412.433 151.714 411.5C151.714 410.567 152.054 409.82 152.734 409.26C153.414 408.687 154.494 408.4 155.974 408.4H159.014V408.02C159.014 407.193 158.774 406.56 158.294 406.12C157.814 405.68 157.107 405.46 156.174 405.46C155.547 405.46 154.934 405.567 154.334 405.78C153.734 405.98 153.227 406.253 152.814 406.6L152.014 405.16C152.56 404.72 153.214 404.387 153.974 404.16C154.734 403.92 155.54 403.8 156.394 403.8ZM155.954 413.14C156.687 413.14 157.32 412.98 157.854 412.66C158.387 412.327 158.774 411.86 159.014 411.26V409.78H156.054C154.427 409.78 153.614 410.327 153.614 411.42C153.614 411.953 153.82 412.373 154.234 412.68C154.647 412.987 155.22 413.14 155.954 413.14ZM174.685 403.9V413.06C174.685 414.913 174.225 416.28 173.305 417.16C172.385 418.053 171.012 418.5 169.185 418.5C168.185 418.5 167.232 418.36 166.325 418.08C165.419 417.813 164.685 417.427 164.125 416.92L165.045 415.44C165.539 415.867 166.145 416.2 166.865 416.44C167.599 416.693 168.352 416.82 169.125 416.82C170.365 416.82 171.279 416.527 171.865 415.94C172.465 415.353 172.765 414.46 172.765 413.26V412.42C172.312 412.967 171.752 413.38 171.085 413.66C170.432 413.927 169.719 414.06 168.945 414.06C167.932 414.06 167.012 413.847 166.185 413.42C165.372 412.98 164.732 412.373 164.265 411.6C163.799 410.813 163.565 409.92 163.565 408.92C163.565 407.92 163.799 407.033 164.265 406.26C164.732 405.473 165.372 404.867 166.185 404.44C167.012 404.013 167.932 403.8 168.945 403.8C169.745 403.8 170.485 403.947 171.165 404.24C171.859 404.533 172.425 404.967 172.865 405.54V403.9H174.685ZM169.165 412.38C169.859 412.38 170.479 412.233 171.025 411.94C171.585 411.647 172.019 411.24 172.325 410.72C172.645 410.187 172.805 409.587 172.805 408.92C172.805 407.893 172.465 407.067 171.785 406.44C171.105 405.8 170.232 405.48 169.165 405.48C168.085 405.48 167.205 405.8 166.525 406.44C165.845 407.067 165.505 407.893 165.505 408.92C165.505 409.587 165.659 410.187 165.965 410.72C166.285 411.24 166.719 411.647 167.265 411.94C167.825 412.233 168.459 412.38 169.165 412.38ZM180.194 405.68C180.527 405.067 181.021 404.6 181.674 404.28C182.327 403.96 183.121 403.8 184.054 403.8V405.66C183.947 405.647 183.801 405.64 183.614 405.64C182.574 405.64 181.754 405.953 181.154 406.58C180.567 407.193 180.274 408.073 180.274 409.22V414.5H178.354V403.9H180.194V405.68ZM190.261 403.8C191.727 403.8 192.847 404.16 193.621 404.88C194.407 405.6 194.801 406.673 194.801 408.1V414.5H192.981V413.1C192.661 413.593 192.201 413.973 191.601 414.24C191.014 414.493 190.314 414.62 189.501 414.62C188.314 414.62 187.361 414.333 186.641 413.76C185.934 413.187 185.581 412.433 185.581 411.5C185.581 410.567 185.921 409.82 186.601 409.26C187.281 408.687 188.361 408.4 189.841 408.4H192.881V408.02C192.881 407.193 192.641 406.56 192.161 406.12C191.681 405.68 190.974 405.46 190.041 405.46C189.414 405.46 188.801 405.567 188.201 405.78C187.601 405.98 187.094 406.253 186.681 406.6L185.881 405.16C186.427 404.72 187.081 404.387 187.841 404.16C188.601 403.92 189.407 403.8 190.261 403.8ZM189.821 413.14C190.554 413.14 191.187 412.98 191.721 412.66C192.254 412.327 192.641 411.86 192.881 411.26V409.78H189.921C188.294 409.78 187.481 410.327 187.481 411.42C187.481 411.953 187.687 412.373 188.101 412.68C188.514 412.987 189.087 413.14 189.821 413.14ZM211.614 403.8C212.947 403.8 214.001 404.187 214.774 404.96C215.561 405.733 215.954 406.88 215.954 408.4V414.5H214.034V408.62C214.034 407.593 213.794 406.82 213.314 406.3C212.847 405.78 212.174 405.52 211.294 405.52C210.321 405.52 209.547 405.827 208.974 406.44C208.401 407.04 208.114 407.907 208.114 409.04V414.5H206.194V408.62C206.194 407.593 205.954 406.82 205.474 406.3C205.007 405.78 204.334 405.52 203.454 405.52C202.481 405.52 201.707 405.827 201.134 406.44C200.561 407.04 200.274 407.907 200.274 409.04V414.5H198.354V403.9H200.194V405.48C200.581 404.933 201.087 404.52 201.714 404.24C202.341 403.947 203.054 403.8 203.854 403.8C204.681 403.8 205.414 403.967 206.054 404.3C206.694 404.633 207.187 405.12 207.534 405.76C207.934 405.147 208.487 404.667 209.194 404.32C209.914 403.973 210.721 403.8 211.614 403.8ZM227.318 418.38C226.558 417.153 225.971 415.747 225.558 414.16C225.144 412.56 224.938 410.847 224.938 409.02C224.938 407.193 225.144 405.48 225.558 403.88C225.971 402.267 226.558 400.86 227.318 399.66H229.138C228.338 401.06 227.751 402.527 227.378 404.06C227.004 405.593 226.818 407.247 226.818 409.02C226.818 410.793 227.004 412.447 227.378 413.98C227.751 415.513 228.338 416.98 229.138 418.38H227.318ZM240.536 408.72H237.056V412.12H234.476V408.72H231.016V406.28H234.476V402.88H237.056V406.28H240.536V408.72ZM251.799 414.5L248.419 409.64L245.099 414.5H241.379L246.559 407.38L241.639 400.5H245.319L248.539 405.04L251.699 400.5H255.199L250.319 407.26L255.539 414.5H251.799ZM267.327 414.62C266.274 414.62 265.327 414.387 264.487 413.92C263.647 413.453 262.987 412.813 262.507 412C262.041 411.173 261.807 410.24 261.807 409.2C261.807 408.16 262.041 407.233 262.507 406.42C262.987 405.593 263.647 404.953 264.487 404.5C265.327 404.033 266.274 403.8 267.327 403.8C268.381 403.8 269.321 404.033 270.147 404.5C270.987 404.953 271.641 405.593 272.107 406.42C272.587 407.233 272.827 408.16 272.827 409.2C272.827 410.24 272.587 411.173 272.107 412C271.641 412.813 270.987 413.453 270.147 413.92C269.321 414.387 268.381 414.62 267.327 414.62ZM267.327 412.94C268.007 412.94 268.614 412.787 269.147 412.48C269.694 412.16 270.121 411.72 270.427 411.16C270.734 410.587 270.887 409.933 270.887 409.2C270.887 408.467 270.734 407.82 270.427 407.26C270.121 406.687 269.694 406.247 269.147 405.94C268.614 405.633 268.007 405.48 267.327 405.48C266.647 405.48 266.034 405.633 265.487 405.94C264.954 406.247 264.527 406.687 264.207 407.26C263.901 407.82 263.747 408.467 263.747 409.2C263.747 409.933 263.901 410.587 264.207 411.16C264.527 411.72 264.954 412.16 265.487 412.48C266.034 412.787 266.647 412.94 267.327 412.94ZM281.443 413.88C281.163 414.12 280.816 414.307 280.403 414.44C279.989 414.56 279.563 414.62 279.123 414.62C278.056 414.62 277.229 414.333 276.643 413.76C276.056 413.187 275.763 412.367 275.763 411.3V405.48H273.963V403.9H275.763V401.58H277.683V403.9H280.723V405.48H277.683V411.22C277.683 411.793 277.823 412.233 278.103 412.54C278.396 412.847 278.809 413 279.343 413C279.929 413 280.429 412.833 280.843 412.5L281.443 413.88ZM289.424 403.8C290.771 403.8 291.837 404.193 292.624 404.98C293.424 405.753 293.824 406.893 293.824 408.4V414.5H291.904V408.62C291.904 407.593 291.657 406.82 291.164 406.3C290.671 405.78 289.964 405.52 289.044 405.52C288.004 405.52 287.184 405.827 286.584 406.44C285.984 407.04 285.684 407.907 285.684 409.04V414.5H283.764V399.66H285.684V405.4C286.084 404.893 286.604 404.5 287.244 404.22C287.897 403.94 288.624 403.8 289.424 403.8ZM307.016 409.26C307.016 409.407 307.003 409.6 306.976 409.84H298.376C298.496 410.773 298.903 411.527 299.596 412.1C300.303 412.66 301.176 412.94 302.216 412.94C303.483 412.94 304.503 412.513 305.276 411.66L306.336 412.9C305.856 413.46 305.256 413.887 304.536 414.18C303.829 414.473 303.036 414.62 302.156 414.62C301.036 414.62 300.043 414.393 299.176 413.94C298.309 413.473 297.636 412.827 297.156 412C296.689 411.173 296.456 410.24 296.456 409.2C296.456 408.173 296.683 407.247 297.136 406.42C297.603 405.593 298.236 404.953 299.036 404.5C299.849 404.033 300.763 403.8 301.776 403.8C302.789 403.8 303.689 404.033 304.476 404.5C305.276 404.953 305.896 405.593 306.336 406.42C306.789 407.247 307.016 408.193 307.016 409.26ZM301.776 405.42C300.856 405.42 300.083 405.7 299.456 406.26C298.843 406.82 298.483 407.553 298.376 408.46H305.176C305.069 407.567 304.703 406.84 304.076 406.28C303.463 405.707 302.696 405.42 301.776 405.42ZM311.522 405.68C311.855 405.067 312.349 404.6 313.002 404.28C313.655 403.96 314.449 403.8 315.382 403.8V405.66C315.275 405.647 315.129 405.64 314.942 405.64C313.902 405.64 313.082 405.953 312.482 406.58C311.895 407.193 311.602 408.073 311.602 409.22V414.5H309.682V403.9H311.522V405.68ZM328.876 403.8C329.903 403.8 330.823 404.027 331.636 404.48C332.45 404.933 333.083 405.567 333.536 406.38C334.003 407.193 334.236 408.133 334.236 409.2C334.236 410.267 334.003 411.213 333.536 412.04C333.083 412.853 332.45 413.487 331.636 413.94C330.823 414.393 329.903 414.62 328.876 414.62C328.116 414.62 327.416 414.473 326.776 414.18C326.15 413.887 325.616 413.46 325.176 412.9V418.38H323.256V403.9H325.096V405.58C325.523 404.993 326.063 404.553 326.716 404.26C327.37 403.953 328.09 403.8 328.876 403.8ZM328.716 412.94C329.396 412.94 330.003 412.787 330.536 412.48C331.083 412.16 331.51 411.72 331.816 411.16C332.136 410.587 332.296 409.933 332.296 409.2C332.296 408.467 332.136 407.82 331.816 407.26C331.51 406.687 331.083 406.247 330.536 405.94C330.003 405.633 329.396 405.48 328.716 405.48C328.05 405.48 327.443 405.64 326.896 405.96C326.363 406.267 325.936 406.7 325.616 407.26C325.31 407.82 325.156 408.467 325.156 409.2C325.156 409.933 325.31 410.587 325.616 411.16C325.923 411.72 326.35 412.16 326.896 412.48C327.443 412.787 328.05 412.94 328.716 412.94ZM336.889 399.66H338.809V414.5H336.889V399.66ZM346.335 403.8C347.802 403.8 348.922 404.16 349.695 404.88C350.482 405.6 350.875 406.673 350.875 408.1V414.5H349.055V413.1C348.735 413.593 348.275 413.973 347.675 414.24C347.088 414.493 346.388 414.62 345.575 414.62C344.388 414.62 343.435 414.333 342.715 413.76C342.008 413.187 341.655 412.433 341.655 411.5C341.655 410.567 341.995 409.82 342.675 409.26C343.355 408.687 344.435 408.4 345.915 408.4H348.955V408.02C348.955 407.193 348.715 406.56 348.235 406.12C347.755 405.68 347.048 405.46 346.115 405.46C345.488 405.46 344.875 405.567 344.275 405.78C343.675 405.98 343.168 406.253 342.755 406.6L341.955 405.16C342.502 404.72 343.155 404.387 343.915 404.16C344.675 403.92 345.482 403.8 346.335 403.8ZM345.895 413.14C346.628 413.14 347.262 412.98 347.795 412.66C348.328 412.327 348.715 411.86 348.955 411.26V409.78H345.995C344.368 409.78 343.555 410.327 343.555 411.42C343.555 411.953 343.762 412.373 344.175 412.68C344.588 412.987 345.162 413.14 345.895 413.14ZM360.388 413.88C360.108 414.12 359.761 414.307 359.348 414.44C358.935 414.56 358.508 414.62 358.068 414.62C357.001 414.62 356.175 414.333 355.588 413.76C355.001 413.187 354.708 412.367 354.708 411.3V405.48H352.908V403.9H354.708V401.58H356.628V403.9H359.668V405.48H356.628V411.22C356.628 411.793 356.768 412.233 357.048 412.54C357.341 412.847 357.755 413 358.288 413C358.875 413 359.375 412.833 359.788 412.5L360.388 413.88ZM366.589 401.12C365.443 401.12 364.869 401.74 364.869 402.98V403.9H367.949V405.48H364.909V414.5H362.989V405.48H361.189V403.9H362.989V402.96C362.989 401.907 363.296 401.073 363.909 400.46C364.523 399.847 365.383 399.54 366.489 399.54C366.916 399.54 367.316 399.593 367.689 399.7C368.063 399.807 368.383 399.96 368.649 400.16L368.069 401.62C367.629 401.287 367.136 401.12 366.589 401.12ZM374.144 414.62C373.091 414.62 372.144 414.387 371.304 413.92C370.464 413.453 369.804 412.813 369.324 412C368.857 411.173 368.624 410.24 368.624 409.2C368.624 408.16 368.857 407.233 369.324 406.42C369.804 405.593 370.464 404.953 371.304 404.5C372.144 404.033 373.091 403.8 374.144 403.8C375.197 403.8 376.137 404.033 376.964 404.5C377.804 404.953 378.457 405.593 378.924 406.42C379.404 407.233 379.644 408.16 379.644 409.2C379.644 410.24 379.404 411.173 378.924 412C378.457 412.813 377.804 413.453 376.964 413.92C376.137 414.387 375.197 414.62 374.144 414.62ZM374.144 412.94C374.824 412.94 375.431 412.787 375.964 412.48C376.511 412.16 376.937 411.72 377.244 411.16C377.551 410.587 377.704 409.933 377.704 409.2C377.704 408.467 377.551 407.82 377.244 407.26C376.937 406.687 376.511 406.247 375.964 405.94C375.431 405.633 374.824 405.48 374.144 405.48C373.464 405.48 372.851 405.633 372.304 405.94C371.771 406.247 371.344 406.687 371.024 407.26C370.717 407.82 370.564 408.467 370.564 409.2C370.564 409.933 370.717 410.587 371.024 411.16C371.344 411.72 371.771 412.16 372.304 412.48C372.851 412.787 373.464 412.94 374.144 412.94ZM384.139 405.68C384.473 405.067 384.966 404.6 385.619 404.28C386.273 403.96 387.066 403.8 387.999 403.8V405.66C387.893 405.647 387.746 405.64 387.559 405.64C386.519 405.64 385.699 405.953 385.099 406.58C384.513 407.193 384.219 408.073 384.219 409.22V414.5H382.299V403.9H384.139V405.68ZM403.626 403.8C404.959 403.8 406.012 404.187 406.786 404.96C407.572 405.733 407.966 406.88 407.966 408.4V414.5H406.046V408.62C406.046 407.593 405.806 406.82 405.326 406.3C404.859 405.78 404.186 405.52 403.306 405.52C402.332 405.52 401.559 405.827 400.986 406.44C400.412 407.04 400.126 407.907 400.126 409.04V414.5H398.206V408.62C398.206 407.593 397.966 406.82 397.486 406.3C397.019 405.78 396.346 405.52 395.466 405.52C394.492 405.52 393.719 405.827 393.146 406.44C392.572 407.04 392.286 407.907 392.286 409.04V414.5H390.366V403.9H392.206V405.48C392.592 404.933 393.099 404.52 393.726 404.24C394.352 403.947 395.066 403.8 395.866 403.8C396.692 403.8 397.426 403.967 398.066 404.3C398.706 404.633 399.199 405.12 399.546 405.76C399.946 405.147 400.499 404.667 401.206 404.32C401.926 403.973 402.732 403.8 403.626 403.8ZM414.538 414.62C413.672 414.62 412.838 414.507 412.038 414.28C411.238 414.04 410.612 413.74 410.158 413.38L410.958 411.86C411.425 412.193 411.992 412.46 412.658 412.66C413.325 412.86 413.998 412.96 414.678 412.96C416.358 412.96 417.198 412.48 417.198 411.52C417.198 411.2 417.085 410.947 416.858 410.76C416.632 410.573 416.345 410.44 415.998 410.36C415.665 410.267 415.185 410.167 414.558 410.06C413.705 409.927 413.005 409.773 412.458 409.6C411.925 409.427 411.465 409.133 411.078 408.72C410.692 408.307 410.498 407.727 410.498 406.98C410.498 406.02 410.898 405.253 411.698 404.68C412.498 404.093 413.572 403.8 414.918 403.8C415.625 403.8 416.332 403.887 417.038 404.06C417.745 404.233 418.325 404.467 418.778 404.76L417.958 406.28C417.092 405.72 416.072 405.44 414.898 405.44C414.085 405.44 413.465 405.573 413.038 405.84C412.612 406.107 412.398 406.46 412.398 406.9C412.398 407.247 412.518 407.52 412.758 407.72C412.998 407.92 413.292 408.067 413.638 408.16C413.998 408.253 414.498 408.36 415.138 408.48C415.992 408.627 416.678 408.787 417.198 408.96C417.732 409.12 418.185 409.4 418.558 409.8C418.932 410.2 419.118 410.76 419.118 411.48C419.118 412.44 418.705 413.207 417.878 413.78C417.065 414.34 415.952 414.62 414.538 414.62ZM420.338 418.38C421.138 416.98 421.725 415.513 422.098 413.98C422.485 412.447 422.678 410.793 422.678 409.02C422.678 407.247 422.485 405.593 422.098 404.06C421.725 402.527 421.138 401.06 420.338 399.66H422.158C422.931 400.86 423.525 402.26 423.938 403.86C424.351 405.46 424.558 407.18 424.558 409.02C424.558 410.847 424.351 412.56 423.938 414.16C423.525 415.76 422.931 417.167 422.158 418.38H420.338Z" fill="#1A1A1A"/>
<path d="M78.3121 85.224C76.3521 85.224 74.5788 84.7947 72.9921 83.936C71.4241 83.0587 70.1921 81.864 69.2961 80.352C68.4001 78.8213 67.9521 77.104 67.9521 75.2C67.9521 73.296 68.4001 71.588 69.2961 70.076C70.1921 68.5453 71.4334 67.3507 73.0201 66.492C74.6068 65.6147 76.3801 65.176 78.3401 65.176C79.8708 65.176 81.2708 65.4373 82.5401 65.96C83.8094 66.464 84.8921 67.22 85.7881 68.228L83.9681 69.992C82.4934 68.4427 80.6548 67.668 78.4521 67.668C76.9961 67.668 75.6801 67.9947 74.5041 68.648C73.3281 69.3013 72.4041 70.2067 71.7321 71.364C71.0788 72.5027 70.7521 73.7813 70.7521 75.2C70.7521 76.6187 71.0788 77.9067 71.7321 79.064C72.4041 80.2027 73.3281 81.0987 74.5041 81.752C75.6801 82.4053 76.9961 82.732 78.4521 82.732C80.6361 82.732 82.4748 81.948 83.9681 80.38L85.7881 82.144C84.8921 83.152 83.8001 83.9173 82.5121 84.44C81.2428 84.9627 79.8428 85.224 78.3121 85.224ZM102.758 70.16V85H100.21V82.76C99.6683 83.5253 98.9496 84.1227 98.0536 84.552C97.1763 84.9627 96.215 85.168 95.1696 85.168C93.191 85.168 91.6323 84.6267 90.4936 83.544C89.355 82.4427 88.7856 80.828 88.7856 78.7V70.16H91.4736V78.392C91.4736 79.8293 91.819 80.9213 92.5096 81.668C93.2003 82.396 94.1896 82.76 95.4776 82.76C96.8963 82.76 98.0163 82.3307 98.8376 81.472C99.659 80.6133 100.07 79.4 100.07 77.832V70.16H102.758ZM112.131 85.168C110.918 85.168 109.751 85.0093 108.631 84.692C107.511 84.356 106.634 83.936 105.999 83.432L107.119 81.304C107.772 81.7707 108.566 82.144 109.499 82.424C110.432 82.704 111.375 82.844 112.327 82.844C114.679 82.844 115.855 82.172 115.855 80.828C115.855 80.38 115.696 80.0253 115.379 79.764C115.062 79.5027 114.66 79.316 114.175 79.204C113.708 79.0733 113.036 78.9333 112.159 78.784C110.964 78.5973 109.984 78.3827 109.219 78.14C108.472 77.8973 107.828 77.4867 107.287 76.908C106.746 76.3293 106.475 75.5173 106.475 74.472C106.475 73.128 107.035 72.0547 108.155 71.252C109.275 70.4307 110.778 70.02 112.663 70.02C113.652 70.02 114.642 70.1413 115.631 70.384C116.62 70.6267 117.432 70.9533 118.067 71.364L116.919 73.492C115.706 72.708 114.278 72.316 112.635 72.316C111.496 72.316 110.628 72.5027 110.031 72.876C109.434 73.2493 109.135 73.744 109.135 74.36C109.135 74.8453 109.303 75.228 109.639 75.508C109.975 75.788 110.386 75.9933 110.871 76.124C111.375 76.2547 112.075 76.404 112.971 76.572C114.166 76.7773 115.127 77.0013 115.855 77.244C116.602 77.468 117.236 77.86 117.759 78.42C118.282 78.98 118.543 79.764 118.543 80.772C118.543 82.116 117.964 83.1893 116.807 83.992C115.668 84.776 114.11 85.168 112.131 85.168ZM130.246 84.132C129.854 84.468 129.369 84.7293 128.79 84.916C128.212 85.084 127.614 85.168 126.998 85.168C125.505 85.168 124.348 84.7667 123.526 83.964C122.705 83.1613 122.294 82.0133 122.294 80.52V72.372H119.774V70.16H122.294V66.912H124.982V70.16H129.238V72.372H124.982V80.408C124.982 81.2107 125.178 81.8267 125.57 82.256C125.981 82.6853 126.56 82.9 127.306 82.9C128.128 82.9 128.828 82.6667 129.406 82.2L130.246 84.132ZM139.36 85.168C137.885 85.168 136.56 84.8413 135.384 84.188C134.208 83.5347 133.284 82.6387 132.612 81.5C131.958 80.3427 131.632 79.036 131.632 77.58C131.632 76.124 131.958 74.8267 132.612 73.688C133.284 72.5307 134.208 71.6347 135.384 71C136.56 70.3467 137.885 70.02 139.36 70.02C140.834 70.02 142.15 70.3467 143.308 71C144.484 71.6347 145.398 72.5307 146.052 73.688C146.724 74.8267 147.06 76.124 147.06 77.58C147.06 79.036 146.724 80.3427 146.052 81.5C145.398 82.6387 144.484 83.5347 143.308 84.188C142.15 84.8413 140.834 85.168 139.36 85.168ZM139.36 82.816C140.312 82.816 141.161 82.6013 141.908 82.172C142.673 81.724 143.27 81.108 143.7 80.324C144.129 79.5213 144.344 78.6067 144.344 77.58C144.344 76.5533 144.129 75.648 143.7 74.864C143.27 74.0613 142.673 73.4453 141.908 73.016C141.161 72.5867 140.312 72.372 139.36 72.372C138.408 72.372 137.549 72.5867 136.784 73.016C136.037 73.4453 135.44 74.0613 134.992 74.864C134.562 75.648 134.348 76.5533 134.348 77.58C134.348 78.6067 134.562 79.5213 134.992 80.324C135.44 81.108 136.037 81.724 136.784 82.172C137.549 82.6013 138.408 82.816 139.36 82.816ZM169.341 70.02C171.208 70.02 172.683 70.5613 173.765 71.644C174.867 72.7267 175.417 74.332 175.417 76.46V85H172.729V76.768C172.729 75.3307 172.393 74.248 171.721 73.52C171.068 72.792 170.125 72.428 168.893 72.428C167.531 72.428 166.448 72.8573 165.645 73.716C164.843 74.556 164.441 75.7693 164.441 77.356V85H161.753V76.768C161.753 75.3307 161.417 74.248 160.745 73.52C160.092 72.792 159.149 72.428 157.917 72.428C156.555 72.428 155.472 72.8573 154.669 73.716C153.867 74.556 153.465 75.7693 153.465 77.356V85H150.777V70.16H153.353V72.372C153.895 71.6067 154.604 71.028 155.481 70.636C156.359 70.2253 157.357 70.02 158.477 70.02C159.635 70.02 160.661 70.2533 161.557 70.72C162.453 71.1867 163.144 71.868 163.629 72.764C164.189 71.9053 164.964 71.2333 165.953 70.748C166.961 70.2627 168.091 70.02 169.341 70.02Z" fill="#1A1A1A"/>
<path d="M110.528 184.24C110.528 188.176 109.088 191.56 106.208 194.392C103.328 197.176 99.1761 198.904 93.7521 199.576V207.64H86.5521V199.792C83.0001 199.6 79.6161 198.976 76.4001 197.92C73.1841 196.864 70.5921 195.568 68.6241 194.032L72.5841 185.248C74.4081 186.592 76.5441 187.72 78.9921 188.632C81.4401 189.544 83.9601 190.12 86.5521 190.36V178.336C83.1441 177.52 80.2641 176.608 77.9121 175.6C75.5601 174.592 73.5921 173.128 72.0081 171.208C70.4241 169.24 69.6321 166.648 69.6321 163.432C69.6321 159.448 71.0721 156.04 73.9521 153.208C76.8801 150.328 81.0801 148.576 86.5521 147.952V139.96H93.7521V147.808C99.6561 148.288 104.528 149.752 108.368 152.2L104.768 161.056C101.168 158.992 97.4961 157.744 93.7521 157.312V169.552C97.1121 170.32 99.9441 171.208 102.248 172.216C104.6 173.176 106.568 174.64 108.152 176.608C109.736 178.528 110.528 181.072 110.528 184.24ZM81.2241 162.856C81.2241 164.056 81.6801 165.04 82.5921 165.808C83.5041 166.576 84.8241 167.224 86.5521 167.752V157.528C84.7281 157.96 83.3841 158.656 82.5201 159.616C81.6561 160.528 81.2241 161.608 81.2241 162.856ZM93.7521 190.072C95.4801 189.688 96.7761 189.064 97.6401 188.2C98.5041 187.336 98.9361 186.304 98.9361 185.104C98.9361 183.904 98.4801 182.92 97.5681 182.152C96.7041 181.384 95.4321 180.712 93.7521 180.136V190.072ZM162.185 188.416H153.977V199H142.601V188.416H115.457V180.568L139.217 148.6H151.457L129.425 178.912H142.961V169.48H153.977V178.912H162.185V188.416ZM183.105 147.736C190.161 147.736 195.681 149.896 199.665 154.216C203.649 158.488 205.641 164.656 205.641 172.72C205.641 178.432 204.561 183.328 202.401 187.408C200.289 191.488 197.289 194.584 193.401 196.696C189.513 198.808 185.025 199.864 179.937 199.864C177.249 199.864 174.681 199.576 172.233 199C169.785 198.376 167.697 197.512 165.969 196.408L170.289 187.84C172.737 189.52 175.881 190.36 179.721 190.36C183.993 190.36 187.377 189.112 189.873 186.616C192.369 184.072 193.713 180.424 193.905 175.672C190.881 178.696 186.705 180.208 181.377 180.208C178.161 180.208 175.233 179.56 172.593 178.264C169.953 176.968 167.865 175.144 166.329 172.792C164.793 170.392 164.025 167.632 164.025 164.512C164.025 161.152 164.865 158.2 166.545 155.656C168.225 153.112 170.505 151.168 173.385 149.824C176.313 148.432 179.553 147.736 183.105 147.736ZM183.969 171.496C186.513 171.496 188.577 170.8 190.161 169.408C191.793 167.968 192.609 166.144 192.609 163.936C192.609 161.728 191.817 159.928 190.233 158.536C188.697 157.144 186.561 156.448 183.825 156.448C181.329 156.448 179.289 157.12 177.705 158.464C176.169 159.808 175.401 161.632 175.401 163.936C175.401 166.24 176.169 168.088 177.705 169.48C179.289 170.824 181.377 171.496 183.969 171.496ZM228.948 147.736C236.004 147.736 241.524 149.896 245.508 154.216C249.492 158.488 251.484 164.656 251.484 172.72C251.484 178.432 250.404 183.328 248.244 187.408C246.132 191.488 243.132 194.584 239.244 196.696C235.356 198.808 230.868 199.864 225.78 199.864C223.092 199.864 220.524 199.576 218.076 199C215.628 198.376 213.54 197.512 211.812 196.408L216.132 187.84C218.58 189.52 221.724 190.36 225.564 190.36C229.836 190.36 233.22 189.112 235.716 186.616C238.212 184.072 239.556 180.424 239.748 175.672C236.724 178.696 232.548 180.208 227.22 180.208C224.004 180.208 221.076 179.56 218.436 178.264C215.796 176.968 213.708 175.144 212.172 172.792C210.636 170.392 209.868 167.632 209.868 164.512C209.868 161.152 210.708 158.2 212.388 155.656C214.068 153.112 216.348 151.168 219.228 149.824C222.156 148.432 225.396 147.736 228.948 147.736ZM229.812 171.496C232.356 171.496 234.42 170.8 236.004 169.408C237.636 167.968 238.452 166.144 238.452 163.936C238.452 161.728 237.66 159.928 236.076 158.536C234.54 157.144 232.404 156.448 229.668 156.448C227.172 156.448 225.132 157.12 223.548 158.464C222.012 159.808 221.244 161.632 221.244 163.936C221.244 166.24 222.012 168.088 223.548 169.48C225.132 170.824 227.22 171.496 229.812 171.496ZM260.212 182.16H262.992L256.392 201H253.612L260.212 182.16ZM276.504 199L276.484 190.6L272.364 197.52H270.904L266.804 190.78V199H263.764V185H266.444L271.684 193.7L276.844 185H279.504L279.544 199H276.504ZM287.766 199.16C286.632 199.16 285.612 198.927 284.706 198.46C283.812 197.98 283.112 197.32 282.606 196.48C282.099 195.64 281.846 194.687 281.846 193.62C281.846 192.553 282.099 191.6 282.606 190.76C283.112 189.92 283.812 189.267 284.706 188.8C285.612 188.32 286.632 188.08 287.766 188.08C288.899 188.08 289.912 188.32 290.806 188.8C291.699 189.267 292.399 189.92 292.906 190.76C293.412 191.6 293.666 192.553 293.666 193.62C293.666 194.687 293.412 195.64 292.906 196.48C292.399 197.32 291.699 197.98 290.806 198.46C289.912 198.927 288.899 199.16 287.766 199.16ZM287.766 196.6C288.566 196.6 289.219 196.333 289.726 195.8C290.246 195.253 290.506 194.527 290.506 193.62C290.506 192.713 290.246 191.993 289.726 191.46C289.219 190.913 288.566 190.64 287.766 190.64C286.966 190.64 286.306 190.913 285.786 191.46C285.266 191.993 285.006 192.713 285.006 193.62C285.006 194.527 285.266 195.253 285.786 195.8C286.306 196.333 286.966 196.6 287.766 196.6ZM302.291 188.08C303.625 188.08 304.698 188.48 305.511 189.28C306.338 190.08 306.751 191.267 306.751 192.84V199H303.631V193.32C303.631 192.467 303.445 191.833 303.071 191.42C302.698 190.993 302.158 190.78 301.451 190.78C300.665 190.78 300.038 191.027 299.571 191.52C299.105 192 298.871 192.72 298.871 193.68V199H295.751V188.24H298.731V189.5C299.145 189.047 299.658 188.7 300.271 188.46C300.885 188.207 301.558 188.08 302.291 188.08ZM316.519 198.48C316.213 198.707 315.833 198.88 315.379 199C314.939 199.107 314.473 199.16 313.979 199.16C312.699 199.16 311.706 198.833 310.999 198.18C310.306 197.527 309.959 196.567 309.959 195.3V190.88H308.299V188.48H309.959V185.86H313.079V188.48H315.759V190.88H313.079V195.26C313.079 195.713 313.193 196.067 313.419 196.32C313.659 196.56 313.993 196.68 314.419 196.68C314.913 196.68 315.333 196.547 315.679 196.28L316.519 198.48ZM324.811 188.08C326.144 188.08 327.217 188.48 328.031 189.28C328.857 190.08 329.271 191.267 329.271 192.84V199H326.151V193.32C326.151 192.467 325.964 191.833 325.591 191.42C325.217 190.993 324.677 190.78 323.971 190.78C323.184 190.78 322.557 191.027 322.091 191.52C321.624 192 321.391 192.72 321.391 193.68V199H318.271V184.16H321.391V189.36C321.804 188.947 322.304 188.633 322.891 188.42C323.477 188.193 324.117 188.08 324.811 188.08Z" fill="#1A1A1A"/>
<rect x="67" y="567" width="381" height="80" rx="16" fill="#130F26"/>
<path d="M208.311 614.24C206.885 614.24 205.591 613.933 204.431 613.32C203.285 612.693 202.378 611.833 201.711 610.74C201.058 609.633 200.731 608.387 200.731 607C200.731 605.613 201.058 604.373 201.711 603.28C202.378 602.173 203.285 601.313 204.431 600.7C205.591 600.073 206.891 599.76 208.331 599.76C209.545 599.76 210.638 599.973 211.611 600.4C212.598 600.827 213.425 601.44 214.091 602.24L212.011 604.16C211.065 603.067 209.891 602.52 208.491 602.52C207.625 602.52 206.851 602.713 206.171 603.1C205.491 603.473 204.958 604 204.571 604.68C204.198 605.36 204.011 606.133 204.011 607C204.011 607.867 204.198 608.64 204.571 609.32C204.958 610 205.491 610.533 206.171 610.92C206.851 611.293 207.625 611.48 208.491 611.48C209.891 611.48 211.065 610.927 212.011 609.82L214.091 611.74C213.425 612.553 212.598 613.173 211.611 613.6C210.625 614.027 209.525 614.24 208.311 614.24ZM220.808 614.16C219.675 614.16 218.655 613.927 217.748 613.46C216.855 612.98 216.155 612.32 215.648 611.48C215.141 610.64 214.888 609.687 214.888 608.62C214.888 607.553 215.141 606.6 215.648 605.76C216.155 604.92 216.855 604.267 217.748 603.8C218.655 603.32 219.675 603.08 220.808 603.08C221.941 603.08 222.955 603.32 223.848 603.8C224.741 604.267 225.441 604.92 225.948 605.76C226.455 606.6 226.708 607.553 226.708 608.62C226.708 609.687 226.455 610.64 225.948 611.48C225.441 612.32 224.741 612.98 223.848 613.46C222.955 613.927 221.941 614.16 220.808 614.16ZM220.808 611.6C221.608 611.6 222.261 611.333 222.768 610.8C223.288 610.253 223.548 609.527 223.548 608.62C223.548 607.713 223.288 606.993 222.768 606.46C222.261 605.913 221.608 605.64 220.808 605.64C220.008 605.64 219.348 605.913 218.828 606.46C218.308 606.993 218.048 607.713 218.048 608.62C218.048 609.527 218.308 610.253 218.828 610.8C219.348 611.333 220.008 611.6 220.808 611.6ZM235.334 603.08C236.667 603.08 237.74 603.48 238.554 604.28C239.38 605.08 239.794 606.267 239.794 607.84V614H236.674V608.32C236.674 607.467 236.487 606.833 236.114 606.42C235.74 605.993 235.2 605.78 234.494 605.78C233.707 605.78 233.08 606.027 232.614 606.52C232.147 607 231.914 607.72 231.914 608.68V614H228.794V603.24H231.774V604.5C232.187 604.047 232.7 603.7 233.314 603.46C233.927 603.207 234.6 603.08 235.334 603.08ZM249.562 613.48C249.255 613.707 248.875 613.88 248.422 614C247.982 614.107 247.515 614.16 247.022 614.16C245.742 614.16 244.748 613.833 244.042 613.18C243.348 612.527 243.002 611.567 243.002 610.3V605.88H241.342V603.48H243.002V600.86H246.122V603.48H248.802V605.88H246.122V610.26C246.122 610.713 246.235 611.067 246.462 611.32C246.702 611.56 247.035 611.68 247.462 611.68C247.955 611.68 248.375 611.547 248.722 611.28L249.562 613.48ZM255.653 603.08C257.32 603.08 258.6 603.48 259.493 604.28C260.386 605.067 260.833 606.26 260.833 607.86V614H257.913V612.66C257.326 613.66 256.233 614.16 254.633 614.16C253.806 614.16 253.086 614.02 252.473 613.74C251.873 613.46 251.413 613.073 251.093 612.58C250.773 612.087 250.613 611.527 250.613 610.9C250.613 609.9 250.986 609.113 251.733 608.54C252.493 607.967 253.66 607.68 255.233 607.68H257.713C257.713 607 257.506 606.48 257.093 606.12C256.68 605.747 256.06 605.56 255.233 605.56C254.66 605.56 254.093 605.653 253.533 605.84C252.986 606.013 252.52 606.253 252.133 606.56L251.013 604.38C251.6 603.967 252.3 603.647 253.113 603.42C253.94 603.193 254.786 603.08 255.653 603.08ZM255.413 612.06C255.946 612.06 256.42 611.94 256.833 611.7C257.246 611.447 257.54 611.08 257.713 610.6V609.5H255.573C254.293 609.5 253.653 609.92 253.653 610.76C253.653 611.16 253.806 611.48 254.113 611.72C254.433 611.947 254.866 612.06 255.413 612.06ZM268.974 614.16C267.827 614.16 266.794 613.927 265.874 613.46C264.967 612.98 264.254 612.32 263.734 611.48C263.227 610.64 262.974 609.687 262.974 608.62C262.974 607.553 263.227 606.6 263.734 605.76C264.254 604.92 264.967 604.267 265.874 603.8C266.794 603.32 267.827 603.08 268.974 603.08C270.107 603.08 271.094 603.32 271.934 603.8C272.787 604.267 273.407 604.94 273.794 605.82L271.374 607.12C270.814 606.133 270.007 605.64 268.954 605.64C268.141 605.64 267.467 605.907 266.934 606.44C266.401 606.973 266.134 607.7 266.134 608.62C266.134 609.54 266.401 610.267 266.934 610.8C267.467 611.333 268.141 611.6 268.954 611.6C270.021 611.6 270.827 611.107 271.374 610.12L273.794 611.44C273.407 612.293 272.787 612.96 271.934 613.44C271.094 613.92 270.107 614.16 268.974 614.16ZM282.687 613.48C282.38 613.707 282 613.88 281.547 614C281.107 614.107 280.64 614.16 280.147 614.16C278.867 614.16 277.873 613.833 277.167 613.18C276.473 612.527 276.127 611.567 276.127 610.3V605.88H274.467V603.48H276.127V600.86H279.247V603.48H281.927V605.88H279.247V610.26C279.247 610.713 279.36 611.067 279.587 611.32C279.827 611.56 280.16 611.68 280.587 611.68C281.08 611.68 281.5 611.547 281.847 611.28L282.687 613.48ZM296.542 614.24C294.542 614.24 292.982 613.687 291.862 612.58C290.755 611.473 290.202 609.893 290.202 607.84V600H293.442V607.72C293.442 610.227 294.482 611.48 296.562 611.48C297.575 611.48 298.349 611.18 298.882 610.58C299.415 609.967 299.682 609.013 299.682 607.72V600H302.882V607.84C302.882 609.893 302.322 611.473 301.202 612.58C300.095 613.687 298.542 614.24 296.542 614.24ZM309.484 614.16C308.59 614.16 307.717 614.053 306.864 613.84C306.01 613.613 305.33 613.333 304.824 613L305.864 610.76C306.344 611.067 306.924 611.32 307.604 611.52C308.284 611.707 308.95 611.8 309.604 611.8C310.924 611.8 311.584 611.473 311.584 610.82C311.584 610.513 311.404 610.293 311.044 610.16C310.684 610.027 310.13 609.913 309.384 609.82C308.504 609.687 307.777 609.533 307.204 609.36C306.63 609.187 306.13 608.88 305.704 608.44C305.29 608 305.084 607.373 305.084 606.56C305.084 605.88 305.277 605.28 305.664 604.76C306.064 604.227 306.637 603.813 307.384 603.52C308.144 603.227 309.037 603.08 310.064 603.08C310.824 603.08 311.577 603.167 312.324 603.34C313.084 603.5 313.71 603.727 314.204 604.02L313.164 606.24C312.217 605.707 311.184 605.44 310.064 605.44C309.397 605.44 308.897 605.533 308.564 605.72C308.23 605.907 308.064 606.147 308.064 606.44C308.064 606.773 308.244 607.007 308.604 607.14C308.964 607.273 309.537 607.4 310.324 607.52C311.204 607.667 311.924 607.827 312.484 608C313.044 608.16 313.53 608.46 313.944 608.9C314.357 609.34 314.564 609.953 314.564 610.74C314.564 611.407 314.364 612 313.964 612.52C313.564 613.04 312.977 613.447 312.204 613.74C311.444 614.02 310.537 614.16 309.484 614.16Z" fill="white"/>
</svg>
