<svg width="514" height="708" viewBox="0 0 514 708" fill="none" xmlns="http://www.w3.org/2000/svg">
<rect x="1.71619" y="1.5" width="510.608" height="705" rx="30.5" fill="white" stroke="#FF004F" stroke-width="3"/>
<path d="M68.883 303C68.883 310.347 74.8563 316.333 82.2163 316.333C89.563 316.333 95.5496 310.347 95.5496 303C95.5496 295.64 89.563 289.667 82.2163 289.667C74.8563 289.667 68.883 295.64 68.883 303V303Z" fill="#130F26"/>
<rect x="77.2511" y="301.743" width="6.91934" height="2.30645" rx="1.15322" transform="rotate(45 77.2511 301.743)" fill="white"/>
<rect x="89.483" y="299.297" width="12.6855" height="2.30645" rx="1.15322" transform="rotate(135 89.483 299.297)" fill="white"/>
<path d="M113.876 296.5H117.116V310.5H113.876V296.5ZM126.759 299.58C128.092 299.58 129.165 299.98 129.979 300.78C130.805 301.58 131.219 302.767 131.219 304.34V310.5H128.099V304.82C128.099 303.967 127.912 303.333 127.539 302.92C127.165 302.493 126.625 302.28 125.919 302.28C125.132 302.28 124.505 302.527 124.039 303.02C123.572 303.5 123.339 304.22 123.339 305.18V310.5H120.219V299.74H123.199V301C123.612 300.547 124.125 300.2 124.739 299.96C125.352 299.707 126.025 299.58 126.759 299.58ZM137.667 310.66C136.773 310.66 135.9 310.553 135.047 310.34C134.193 310.113 133.513 309.833 133.007 309.5L134.047 307.26C134.527 307.567 135.107 307.82 135.787 308.02C136.467 308.207 137.133 308.3 137.787 308.3C139.107 308.3 139.767 307.973 139.767 307.32C139.767 307.013 139.587 306.793 139.227 306.66C138.867 306.527 138.313 306.413 137.567 306.32C136.687 306.187 135.96 306.033 135.387 305.86C134.813 305.687 134.313 305.38 133.887 304.94C133.473 304.5 133.267 303.873 133.267 303.06C133.267 302.38 133.46 301.78 133.847 301.26C134.247 300.727 134.82 300.313 135.567 300.02C136.327 299.727 137.22 299.58 138.247 299.58C139.007 299.58 139.76 299.667 140.507 299.84C141.267 300 141.893 300.227 142.387 300.52L141.347 302.74C140.4 302.207 139.367 301.94 138.247 301.94C137.58 301.94 137.08 302.033 136.747 302.22C136.413 302.407 136.247 302.647 136.247 302.94C136.247 303.273 136.427 303.507 136.787 303.64C137.147 303.773 137.72 303.9 138.507 304.02C139.387 304.167 140.107 304.327 140.667 304.5C141.227 304.66 141.713 304.96 142.127 305.4C142.54 305.84 142.747 306.453 142.747 307.24C142.747 307.907 142.547 308.5 142.147 309.02C141.747 309.54 141.16 309.947 140.387 310.24C139.627 310.52 138.72 310.66 137.667 310.66ZM151.612 309.98C151.305 310.207 150.925 310.38 150.472 310.5C150.032 310.607 149.565 310.66 149.072 310.66C147.792 310.66 146.798 310.333 146.092 309.68C145.398 309.027 145.052 308.067 145.052 306.8V302.38H143.392V299.98H145.052V297.36H148.172V299.98H150.852V302.38H148.172V306.76C148.172 307.213 148.285 307.567 148.512 307.82C148.752 308.06 149.085 308.18 149.512 308.18C150.005 308.18 150.425 308.047 150.772 307.78L151.612 309.98ZM157.703 299.58C159.37 299.58 160.65 299.98 161.543 300.78C162.437 301.567 162.883 302.76 162.883 304.36V310.5H159.963V309.16C159.377 310.16 158.283 310.66 156.683 310.66C155.857 310.66 155.137 310.52 154.523 310.24C153.923 309.96 153.463 309.573 153.143 309.08C152.823 308.587 152.663 308.027 152.663 307.4C152.663 306.4 153.037 305.613 153.783 305.04C154.543 304.467 155.71 304.18 157.283 304.18H159.763C159.763 303.5 159.557 302.98 159.143 302.62C158.73 302.247 158.11 302.06 157.283 302.06C156.71 302.06 156.143 302.153 155.583 302.34C155.037 302.513 154.57 302.753 154.183 303.06L153.063 300.88C153.65 300.467 154.35 300.147 155.163 299.92C155.99 299.693 156.837 299.58 157.703 299.58ZM157.463 308.56C157.997 308.56 158.47 308.44 158.883 308.2C159.297 307.947 159.59 307.58 159.763 307.1V306H157.623C156.343 306 155.703 306.42 155.703 307.26C155.703 307.66 155.857 307.98 156.163 308.22C156.483 308.447 156.917 308.56 157.463 308.56ZM176.924 299.74V308.7C176.924 310.673 176.411 312.14 175.384 313.1C174.357 314.06 172.857 314.54 170.884 314.54C169.844 314.54 168.857 314.413 167.924 314.16C166.991 313.907 166.217 313.54 165.604 313.06L166.844 310.82C167.297 311.193 167.871 311.487 168.564 311.7C169.257 311.927 169.951 312.04 170.644 312.04C171.724 312.04 172.517 311.793 173.024 311.3C173.544 310.82 173.804 310.087 173.804 309.1V308.64C172.991 309.533 171.857 309.98 170.404 309.98C169.417 309.98 168.511 309.767 167.684 309.34C166.871 308.9 166.224 308.287 165.744 307.5C165.264 306.713 165.024 305.807 165.024 304.78C165.024 303.753 165.264 302.847 165.744 302.06C166.224 301.273 166.871 300.667 167.684 300.24C168.511 299.8 169.417 299.58 170.404 299.58C171.964 299.58 173.151 300.093 173.964 301.12V299.74H176.924ZM171.024 307.42C171.851 307.42 172.524 307.18 173.044 306.7C173.577 306.207 173.844 305.567 173.844 304.78C173.844 303.993 173.577 303.36 173.044 302.88C172.524 302.387 171.851 302.14 171.024 302.14C170.197 302.14 169.517 302.387 168.984 302.88C168.451 303.36 168.184 303.993 168.184 304.78C168.184 305.567 168.451 306.207 168.984 306.7C169.517 307.18 170.197 307.42 171.024 307.42ZM182.808 301.16C183.181 300.64 183.681 300.247 184.308 299.98C184.948 299.713 185.681 299.58 186.508 299.58V302.46C186.161 302.433 185.928 302.42 185.808 302.42C184.915 302.42 184.215 302.673 183.708 303.18C183.201 303.673 182.948 304.42 182.948 305.42V310.5H179.828V299.74H182.808V301.16ZM192.645 299.58C194.311 299.58 195.591 299.98 196.485 300.78C197.378 301.567 197.825 302.76 197.825 304.36V310.5H194.905V309.16C194.318 310.16 193.225 310.66 191.625 310.66C190.798 310.66 190.078 310.52 189.465 310.24C188.865 309.96 188.405 309.573 188.085 309.08C187.765 308.587 187.605 308.027 187.605 307.4C187.605 306.4 187.978 305.613 188.725 305.04C189.485 304.467 190.651 304.18 192.225 304.18H194.705C194.705 303.5 194.498 302.98 194.085 302.62C193.671 302.247 193.051 302.06 192.225 302.06C191.651 302.06 191.085 302.153 190.525 302.34C189.978 302.513 189.511 302.753 189.125 303.06L188.005 300.88C188.591 300.467 189.291 300.147 190.105 299.92C190.931 299.693 191.778 299.58 192.645 299.58ZM192.405 308.56C192.938 308.56 193.411 308.44 193.825 308.2C194.238 307.947 194.531 307.58 194.705 307.1V306H192.565C191.285 306 190.645 306.42 190.645 307.26C190.645 307.66 190.798 307.98 191.105 308.22C191.425 308.447 191.858 308.56 192.405 308.56ZM214.428 299.58C215.775 299.58 216.842 299.98 217.628 300.78C218.428 301.567 218.828 302.753 218.828 304.34V310.5H215.708V304.82C215.708 303.967 215.528 303.333 215.168 302.92C214.822 302.493 214.322 302.28 213.668 302.28C212.935 302.28 212.355 302.52 211.928 303C211.502 303.467 211.288 304.167 211.288 305.1V310.5H208.168V304.82C208.168 303.127 207.488 302.28 206.128 302.28C205.408 302.28 204.835 302.52 204.408 303C203.982 303.467 203.768 304.167 203.768 305.1V310.5H200.648V299.74H203.628V300.98C204.028 300.527 204.515 300.18 205.088 299.94C205.675 299.7 206.315 299.58 207.008 299.58C207.768 299.58 208.455 299.733 209.068 300.04C209.682 300.333 210.175 300.767 210.548 301.34C210.988 300.78 211.542 300.347 212.208 300.04C212.888 299.733 213.628 299.58 214.428 299.58ZM240.929 310.5L240.909 300.3L235.849 308.8H234.929L229.869 300.36V310.5H227.949V296.5H229.589L235.429 306.34L241.189 296.5H242.829L242.849 310.5H240.929ZM250.631 299.8C252.097 299.8 253.217 300.16 253.991 300.88C254.777 301.6 255.171 302.673 255.171 304.1V310.5H253.351V309.1C253.031 309.593 252.571 309.973 251.971 310.24C251.384 310.493 250.684 310.62 249.871 310.62C248.684 310.62 247.731 310.333 247.011 309.76C246.304 309.187 245.951 308.433 245.951 307.5C245.951 306.567 246.291 305.82 246.971 305.26C247.651 304.687 248.731 304.4 250.211 304.4H253.251V304.02C253.251 303.193 253.011 302.56 252.531 302.12C252.051 301.68 251.344 301.46 250.411 301.46C249.784 301.46 249.171 301.567 248.571 301.78C247.971 301.98 247.464 302.253 247.051 302.6L246.251 301.16C246.797 300.72 247.451 300.387 248.211 300.16C248.971 299.92 249.777 299.8 250.631 299.8ZM250.191 309.14C250.924 309.14 251.557 308.98 252.091 308.66C252.624 308.327 253.011 307.86 253.251 307.26V305.78H250.291C248.664 305.78 247.851 306.327 247.851 307.42C247.851 307.953 248.057 308.373 248.471 308.68C248.884 308.987 249.457 309.14 250.191 309.14ZM264.384 299.8C265.73 299.8 266.797 300.193 267.584 300.98C268.384 301.753 268.784 302.893 268.784 304.4V310.5H266.864V304.62C266.864 303.593 266.617 302.82 266.124 302.3C265.63 301.78 264.924 301.52 264.004 301.52C262.964 301.52 262.144 301.827 261.544 302.44C260.944 303.04 260.644 303.907 260.644 305.04V310.5H258.724V299.9H260.564V301.5C260.95 300.953 261.47 300.533 262.124 300.24C262.79 299.947 263.544 299.8 264.384 299.8ZM276.197 299.8C277.664 299.8 278.784 300.16 279.557 300.88C280.344 301.6 280.737 302.673 280.737 304.1V310.5H278.917V309.1C278.597 309.593 278.137 309.973 277.537 310.24C276.95 310.493 276.25 310.62 275.437 310.62C274.25 310.62 273.297 310.333 272.577 309.76C271.87 309.187 271.517 308.433 271.517 307.5C271.517 306.567 271.857 305.82 272.537 305.26C273.217 304.687 274.297 304.4 275.777 304.4H278.817V304.02C278.817 303.193 278.577 302.56 278.097 302.12C277.617 301.68 276.91 301.46 275.977 301.46C275.35 301.46 274.737 301.567 274.137 301.78C273.537 301.98 273.03 302.253 272.617 302.6L271.817 301.16C272.364 300.72 273.017 300.387 273.777 300.16C274.537 299.92 275.344 299.8 276.197 299.8ZM275.757 309.14C276.49 309.14 277.124 308.98 277.657 308.66C278.19 308.327 278.577 307.86 278.817 307.26V305.78H275.857C274.23 305.78 273.417 306.327 273.417 307.42C273.417 307.953 273.624 308.373 274.037 308.68C274.45 308.987 275.024 309.14 275.757 309.14ZM294.489 299.9V309.06C294.489 310.913 294.029 312.28 293.109 313.16C292.189 314.053 290.815 314.5 288.989 314.5C287.989 314.5 287.035 314.36 286.129 314.08C285.222 313.813 284.489 313.427 283.929 312.92L284.849 311.44C285.342 311.867 285.949 312.2 286.669 312.44C287.402 312.693 288.155 312.82 288.929 312.82C290.169 312.82 291.082 312.527 291.669 311.94C292.269 311.353 292.569 310.46 292.569 309.26V308.42C292.115 308.967 291.555 309.38 290.889 309.66C290.235 309.927 289.522 310.06 288.749 310.06C287.735 310.06 286.815 309.847 285.989 309.42C285.175 308.98 284.535 308.373 284.069 307.6C283.602 306.813 283.369 305.92 283.369 304.92C283.369 303.92 283.602 303.033 284.069 302.26C284.535 301.473 285.175 300.867 285.989 300.44C286.815 300.013 287.735 299.8 288.749 299.8C289.549 299.8 290.289 299.947 290.969 300.24C291.662 300.533 292.229 300.967 292.669 301.54V299.9H294.489ZM288.969 308.38C289.662 308.38 290.282 308.233 290.829 307.94C291.389 307.647 291.822 307.24 292.129 306.72C292.449 306.187 292.609 305.587 292.609 304.92C292.609 303.893 292.269 303.067 291.589 302.44C290.909 301.8 290.035 301.48 288.969 301.48C287.889 301.48 287.009 301.8 286.329 302.44C285.649 303.067 285.309 303.893 285.309 304.92C285.309 305.587 285.462 306.187 285.769 306.72C286.089 307.24 286.522 307.647 287.069 307.94C287.629 308.233 288.262 308.38 288.969 308.38ZM307.737 305.26C307.737 305.407 307.724 305.6 307.697 305.84H299.097C299.217 306.773 299.624 307.527 300.317 308.1C301.024 308.66 301.897 308.94 302.937 308.94C304.204 308.94 305.224 308.513 305.997 307.66L307.057 308.9C306.577 309.46 305.977 309.887 305.257 310.18C304.551 310.473 303.757 310.62 302.877 310.62C301.757 310.62 300.764 310.393 299.897 309.94C299.031 309.473 298.357 308.827 297.877 308C297.411 307.173 297.177 306.24 297.177 305.2C297.177 304.173 297.404 303.247 297.857 302.42C298.324 301.593 298.957 300.953 299.757 300.5C300.571 300.033 301.484 299.8 302.497 299.8C303.511 299.8 304.411 300.033 305.197 300.5C305.997 300.953 306.617 301.593 307.057 302.42C307.511 303.247 307.737 304.193 307.737 305.26ZM302.497 301.42C301.577 301.42 300.804 301.7 300.177 302.26C299.564 302.82 299.204 303.553 299.097 304.46H305.897C305.791 303.567 305.424 302.84 304.797 302.28C304.184 301.707 303.417 301.42 302.497 301.42ZM323.663 299.8C324.997 299.8 326.05 300.187 326.823 300.96C327.61 301.733 328.003 302.88 328.003 304.4V310.5H326.083V304.62C326.083 303.593 325.843 302.82 325.363 302.3C324.897 301.78 324.223 301.52 323.343 301.52C322.37 301.52 321.597 301.827 321.023 302.44C320.45 303.04 320.163 303.907 320.163 305.04V310.5H318.243V304.62C318.243 303.593 318.003 302.82 317.523 302.3C317.057 301.78 316.383 301.52 315.503 301.52C314.53 301.52 313.757 301.827 313.183 302.44C312.61 303.04 312.323 303.907 312.323 305.04V310.5H310.403V299.9H312.243V301.48C312.63 300.933 313.137 300.52 313.763 300.24C314.39 299.947 315.103 299.8 315.903 299.8C316.73 299.8 317.463 299.967 318.103 300.3C318.743 300.633 319.237 301.12 319.583 301.76C319.983 301.147 320.537 300.667 321.243 300.32C321.963 299.973 322.77 299.8 323.663 299.8ZM341.175 305.26C341.175 305.407 341.161 305.6 341.135 305.84H332.535C332.655 306.773 333.061 307.527 333.755 308.1C334.461 308.66 335.335 308.94 336.375 308.94C337.641 308.94 338.661 308.513 339.435 307.66L340.495 308.9C340.015 309.46 339.415 309.887 338.695 310.18C337.988 310.473 337.195 310.62 336.315 310.62C335.195 310.62 334.201 310.393 333.335 309.94C332.468 309.473 331.795 308.827 331.315 308C330.848 307.173 330.615 306.24 330.615 305.2C330.615 304.173 330.841 303.247 331.295 302.42C331.761 301.593 332.395 300.953 333.195 300.5C334.008 300.033 334.921 299.8 335.935 299.8C336.948 299.8 337.848 300.033 338.635 300.5C339.435 300.953 340.055 301.593 340.495 302.42C340.948 303.247 341.175 304.193 341.175 305.26ZM335.935 301.42C335.015 301.42 334.241 301.7 333.615 302.26C333.001 302.82 332.641 303.553 332.535 304.46H339.335C339.228 303.567 338.861 302.84 338.235 302.28C337.621 301.707 336.855 301.42 335.935 301.42ZM349.501 299.8C350.848 299.8 351.914 300.193 352.701 300.98C353.501 301.753 353.901 302.893 353.901 304.4V310.5H351.981V304.62C351.981 303.593 351.734 302.82 351.241 302.3C350.748 301.78 350.041 301.52 349.121 301.52C348.081 301.52 347.261 301.827 346.661 302.44C346.061 303.04 345.761 303.907 345.761 305.04V310.5H343.841V299.9H345.681V301.5C346.068 300.953 346.588 300.533 347.241 300.24C347.908 299.947 348.661 299.8 349.501 299.8ZM363.414 309.88C363.134 310.12 362.787 310.307 362.374 310.44C361.961 310.56 361.534 310.62 361.094 310.62C360.027 310.62 359.201 310.333 358.614 309.76C358.027 309.187 357.734 308.367 357.734 307.3V301.48H355.934V299.9H357.734V297.58H359.654V299.9H362.694V301.48H359.654V307.22C359.654 307.793 359.794 308.233 360.074 308.54C360.367 308.847 360.781 309 361.314 309C361.901 309 362.401 308.833 362.814 308.5L363.414 309.88Z" fill="#1A1A1A"/>
<path d="M68.883 355C68.883 362.347 74.8563 368.333 82.2163 368.333C89.563 368.333 95.5496 362.347 95.5496 355C95.5496 347.64 89.563 341.667 82.2163 341.667C74.8563 341.667 68.883 347.64 68.883 355V355Z" fill="#130F26"/>
<rect x="77.2511" y="353.743" width="6.91934" height="2.30645" rx="1.15322" transform="rotate(45 77.2511 353.743)" fill="white"/>
<rect x="89.483" y="351.297" width="12.6855" height="2.30645" rx="1.15322" transform="rotate(135 89.483 351.297)" fill="white"/>
<path d="M116.776 351.14H112.296V348.5H124.496V351.14H120.016V362.5H116.776V351.14ZM142.655 351.74L138.755 362.5H135.755L133.335 355.82L130.835 362.5H127.835L123.955 351.74H126.895L129.435 359.02L132.075 351.74H134.715L137.275 359.02L139.895 351.74H142.655ZM144.105 351.74H147.225V362.5H144.105V351.74ZM145.665 350.24C145.092 350.24 144.625 350.073 144.265 349.74C143.905 349.407 143.725 348.993 143.725 348.5C143.725 348.007 143.905 347.593 144.265 347.26C144.625 346.927 145.092 346.76 145.665 346.76C146.239 346.76 146.705 346.92 147.065 347.24C147.425 347.56 147.605 347.96 147.605 348.44C147.605 348.96 147.425 349.393 147.065 349.74C146.705 350.073 146.239 350.24 145.665 350.24ZM157.061 361.98C156.754 362.207 156.374 362.38 155.921 362.5C155.481 362.607 155.014 362.66 154.521 362.66C153.241 362.66 152.248 362.333 151.541 361.68C150.848 361.027 150.501 360.067 150.501 358.8V354.38H148.841V351.98H150.501V349.36H153.621V351.98H156.301V354.38H153.621V358.76C153.621 359.213 153.734 359.567 153.961 359.82C154.201 360.06 154.534 360.18 154.961 360.18C155.454 360.18 155.874 360.047 156.221 359.78L157.061 361.98ZM165.518 361.98C165.211 362.207 164.831 362.38 164.378 362.5C163.938 362.607 163.471 362.66 162.978 362.66C161.698 362.66 160.705 362.333 159.998 361.68C159.305 361.027 158.958 360.067 158.958 358.8V354.38H157.298V351.98H158.958V349.36H162.078V351.98H164.758V354.38H162.078V358.76C162.078 359.213 162.191 359.567 162.418 359.82C162.658 360.06 162.991 360.18 163.418 360.18C163.911 360.18 164.331 360.047 164.678 359.78L165.518 361.98ZM177.477 357.16C177.477 357.2 177.457 357.48 177.417 358H169.277C169.424 358.667 169.771 359.193 170.317 359.58C170.864 359.967 171.544 360.16 172.357 360.16C172.917 360.16 173.411 360.08 173.837 359.92C174.277 359.747 174.684 359.48 175.057 359.12L176.717 360.92C175.704 362.08 174.224 362.66 172.277 362.66C171.064 362.66 169.991 362.427 169.057 361.96C168.124 361.48 167.404 360.82 166.897 359.98C166.391 359.14 166.137 358.187 166.137 357.12C166.137 356.067 166.384 355.12 166.877 354.28C167.384 353.427 168.071 352.767 168.937 352.3C169.817 351.82 170.797 351.58 171.877 351.58C172.931 351.58 173.884 351.807 174.737 352.26C175.591 352.713 176.257 353.367 176.737 354.22C177.231 355.06 177.477 356.04 177.477 357.16ZM171.897 353.94C171.191 353.94 170.597 354.14 170.117 354.54C169.637 354.94 169.344 355.487 169.237 356.18H174.537C174.431 355.5 174.137 354.96 173.657 354.56C173.177 354.147 172.591 353.94 171.897 353.94ZM182.535 353.16C182.908 352.64 183.408 352.247 184.035 351.98C184.675 351.713 185.408 351.58 186.235 351.58V354.46C185.888 354.433 185.655 354.42 185.535 354.42C184.641 354.42 183.941 354.673 183.435 355.18C182.928 355.673 182.675 356.42 182.675 357.42V362.5H179.555V351.74H182.535V353.16ZM203.119 359H195.679L194.139 362.5H192.079L198.419 348.5H200.399L206.759 362.5H204.659L203.119 359ZM202.419 357.4L199.399 350.54L196.379 357.4H202.419ZM218.252 351.9V362.5H216.432V360.9C216.045 361.447 215.532 361.873 214.892 362.18C214.265 362.473 213.579 362.62 212.832 362.62C211.419 362.62 210.305 362.233 209.492 361.46C208.679 360.673 208.272 359.52 208.272 358V351.9H210.192V357.78C210.192 358.807 210.439 359.587 210.932 360.12C211.425 360.64 212.132 360.9 213.052 360.9C214.065 360.9 214.865 360.593 215.452 359.98C216.039 359.367 216.332 358.5 216.332 357.38V351.9H218.252ZM227.867 361.88C227.587 362.12 227.241 362.307 226.827 362.44C226.414 362.56 225.987 362.62 225.547 362.62C224.481 362.62 223.654 362.333 223.067 361.76C222.481 361.187 222.187 360.367 222.187 359.3V353.48H220.387V351.9H222.187V349.58H224.107V351.9H227.147V353.48H224.107V359.22C224.107 359.793 224.247 360.233 224.527 360.54C224.821 360.847 225.234 361 225.767 361C226.354 361 226.854 360.833 227.267 360.5L227.867 361.88ZM234.377 362.62C233.324 362.62 232.377 362.387 231.537 361.92C230.697 361.453 230.037 360.813 229.557 360C229.09 359.173 228.857 358.24 228.857 357.2C228.857 356.16 229.09 355.233 229.557 354.42C230.037 353.593 230.697 352.953 231.537 352.5C232.377 352.033 233.324 351.8 234.377 351.8C235.43 351.8 236.37 352.033 237.197 352.5C238.037 352.953 238.69 353.593 239.157 354.42C239.637 355.233 239.877 356.16 239.877 357.2C239.877 358.24 239.637 359.173 239.157 360C238.69 360.813 238.037 361.453 237.197 361.92C236.37 362.387 235.43 362.62 234.377 362.62ZM234.377 360.94C235.057 360.94 235.664 360.787 236.197 360.48C236.744 360.16 237.17 359.72 237.477 359.16C237.784 358.587 237.937 357.933 237.937 357.2C237.937 356.467 237.784 355.82 237.477 355.26C237.17 354.687 236.744 354.247 236.197 353.94C235.664 353.633 235.057 353.48 234.377 353.48C233.697 353.48 233.084 353.633 232.537 353.94C232.004 354.247 231.577 354.687 231.257 355.26C230.95 355.82 230.797 356.467 230.797 357.2C230.797 357.933 230.95 358.587 231.257 359.16C231.577 359.72 232.004 360.16 232.537 360.48C233.084 360.787 233.697 360.94 234.377 360.94ZM255.792 351.8C257.126 351.8 258.179 352.187 258.952 352.96C259.739 353.733 260.132 354.88 260.132 356.4V362.5H258.212V356.62C258.212 355.593 257.972 354.82 257.492 354.3C257.026 353.78 256.352 353.52 255.472 353.52C254.499 353.52 253.726 353.827 253.152 354.44C252.579 355.04 252.292 355.907 252.292 357.04V362.5H250.372V356.62C250.372 355.593 250.132 354.82 249.652 354.3C249.186 353.78 248.512 353.52 247.632 353.52C246.659 353.52 245.886 353.827 245.312 354.44C244.739 355.04 244.452 355.907 244.452 357.04V362.5H242.532V351.9H244.372V353.48C244.759 352.933 245.266 352.52 245.892 352.24C246.519 351.947 247.232 351.8 248.032 351.8C248.859 351.8 249.592 351.967 250.232 352.3C250.872 352.633 251.366 353.12 251.712 353.76C252.112 353.147 252.666 352.667 253.372 352.32C254.092 351.973 254.899 351.8 255.792 351.8ZM267.525 351.8C268.992 351.8 270.112 352.16 270.885 352.88C271.672 353.6 272.065 354.673 272.065 356.1V362.5H270.245V361.1C269.925 361.593 269.465 361.973 268.865 362.24C268.278 362.493 267.578 362.62 266.765 362.62C265.578 362.62 264.625 362.333 263.905 361.76C263.198 361.187 262.845 360.433 262.845 359.5C262.845 358.567 263.185 357.82 263.865 357.26C264.545 356.687 265.625 356.4 267.105 356.4H270.145V356.02C270.145 355.193 269.905 354.56 269.425 354.12C268.945 353.68 268.238 353.46 267.305 353.46C266.678 353.46 266.065 353.567 265.465 353.78C264.865 353.98 264.358 354.253 263.945 354.6L263.145 353.16C263.692 352.72 264.345 352.387 265.105 352.16C265.865 351.92 266.672 351.8 267.525 351.8ZM267.085 361.14C267.818 361.14 268.452 360.98 268.985 360.66C269.518 360.327 269.905 359.86 270.145 359.26V357.78H267.185C265.558 357.78 264.745 358.327 264.745 359.42C264.745 359.953 264.952 360.373 265.365 360.68C265.778 360.987 266.352 361.14 267.085 361.14ZM281.578 361.88C281.298 362.12 280.952 362.307 280.538 362.44C280.125 362.56 279.698 362.62 279.258 362.62C278.192 362.62 277.365 362.333 276.778 361.76C276.192 361.187 275.898 360.367 275.898 359.3V353.48H274.098V351.9H275.898V349.58H277.818V351.9H280.858V353.48H277.818V359.22C277.818 359.793 277.958 360.233 278.238 360.54C278.532 360.847 278.945 361 279.478 361C280.065 361 280.565 360.833 280.978 360.5L281.578 361.88ZM283.899 351.9H285.819V362.5H283.899V351.9ZM284.859 349.86C284.486 349.86 284.173 349.74 283.919 349.5C283.679 349.26 283.559 348.967 283.559 348.62C283.559 348.273 283.679 347.98 283.919 347.74C284.173 347.487 284.486 347.36 284.859 347.36C285.233 347.36 285.539 347.48 285.779 347.72C286.033 347.947 286.159 348.233 286.159 348.58C286.159 348.94 286.033 349.247 285.779 349.5C285.539 349.74 285.233 349.86 284.859 349.86ZM294.025 362.62C292.972 362.62 292.025 362.387 291.185 361.92C290.345 361.453 289.685 360.813 289.205 360C288.739 359.173 288.505 358.24 288.505 357.2C288.505 356.16 288.739 355.233 289.205 354.42C289.685 353.593 290.345 352.953 291.185 352.5C292.025 352.033 292.972 351.8 294.025 351.8C295.079 351.8 296.019 352.033 296.845 352.5C297.685 352.953 298.339 353.593 298.805 354.42C299.285 355.233 299.525 356.16 299.525 357.2C299.525 358.24 299.285 359.173 298.805 360C298.339 360.813 297.685 361.453 296.845 361.92C296.019 362.387 295.079 362.62 294.025 362.62ZM294.025 360.94C294.705 360.94 295.312 360.787 295.845 360.48C296.392 360.16 296.819 359.72 297.125 359.16C297.432 358.587 297.585 357.933 297.585 357.2C297.585 356.467 297.432 355.82 297.125 355.26C296.819 354.687 296.392 354.247 295.845 353.94C295.312 353.633 294.705 353.48 294.025 353.48C293.345 353.48 292.732 353.633 292.185 353.94C291.652 354.247 291.225 354.687 290.905 355.26C290.599 355.82 290.445 356.467 290.445 357.2C290.445 357.933 290.599 358.587 290.905 359.16C291.225 359.72 291.652 360.16 292.185 360.48C292.732 360.787 293.345 360.94 294.025 360.94ZM307.841 351.8C309.187 351.8 310.254 352.193 311.041 352.98C311.841 353.753 312.241 354.893 312.241 356.4V362.5H310.321V356.62C310.321 355.593 310.074 354.82 309.581 354.3C309.087 353.78 308.381 353.52 307.461 353.52C306.421 353.52 305.601 353.827 305.001 354.44C304.401 355.04 304.101 355.907 304.101 357.04V362.5H302.181V351.9H304.021V353.5C304.407 352.953 304.927 352.533 305.581 352.24C306.247 351.947 307.001 351.8 307.841 351.8Z" fill="#1A1A1A"/>
<path d="M68.883 459C68.883 466.347 74.8563 472.333 82.2163 472.333C89.563 472.333 95.5496 466.347 95.5496 459C95.5496 451.64 89.563 445.667 82.2163 445.667C74.8563 445.667 68.883 451.64 68.883 459V459Z" fill="#130F26"/>
<rect x="77.2511" y="457.743" width="6.91934" height="2.30645" rx="1.15322" transform="rotate(45 77.2511 457.743)" fill="white"/>
<rect x="89.483" y="455.297" width="12.6855" height="2.30645" rx="1.15322" transform="rotate(135 89.483 455.297)" fill="white"/>
<path d="M118.396 466.66C117.343 466.66 116.323 466.5 115.336 466.18C114.363 465.847 113.596 465.42 113.036 464.9L113.776 463.34C114.31 463.82 114.99 464.213 115.816 464.52C116.656 464.813 117.516 464.96 118.396 464.96C119.556 464.96 120.423 464.767 120.996 464.38C121.57 463.98 121.856 463.453 121.856 462.8C121.856 462.32 121.696 461.933 121.376 461.64C121.07 461.333 120.683 461.1 120.216 460.94C119.763 460.78 119.116 460.6 118.276 460.4C117.223 460.147 116.37 459.893 115.716 459.64C115.076 459.387 114.523 459 114.056 458.48C113.603 457.947 113.376 457.233 113.376 456.34C113.376 455.593 113.57 454.92 113.956 454.32C114.356 453.72 114.956 453.24 115.756 452.88C116.556 452.52 117.55 452.34 118.736 452.34C119.563 452.34 120.376 452.447 121.176 452.66C121.976 452.873 122.663 453.18 123.236 453.58L122.576 455.18C121.99 454.807 121.363 454.527 120.696 454.34C120.03 454.14 119.376 454.04 118.736 454.04C117.603 454.04 116.75 454.247 116.176 454.66C115.616 455.073 115.336 455.607 115.336 456.26C115.336 456.74 115.496 457.133 115.816 457.44C116.136 457.733 116.53 457.967 116.996 458.14C117.476 458.3 118.123 458.473 118.936 458.66C119.99 458.913 120.836 459.167 121.476 459.42C122.116 459.673 122.663 460.06 123.116 460.58C123.583 461.1 123.816 461.8 123.816 462.68C123.816 463.413 123.616 464.087 123.216 464.7C122.816 465.3 122.21 465.78 121.396 466.14C120.583 466.487 119.583 466.66 118.396 466.66ZM130.998 466.62C129.945 466.62 128.998 466.387 128.158 465.92C127.318 465.453 126.658 464.813 126.178 464C125.711 463.173 125.478 462.24 125.478 461.2C125.478 460.16 125.711 459.233 126.178 458.42C126.658 457.593 127.318 456.953 128.158 456.5C128.998 456.033 129.945 455.8 130.998 455.8C132.051 455.8 132.991 456.033 133.818 456.5C134.658 456.953 135.311 457.593 135.778 458.42C136.258 459.233 136.498 460.16 136.498 461.2C136.498 462.24 136.258 463.173 135.778 464C135.311 464.813 134.658 465.453 133.818 465.92C132.991 466.387 132.051 466.62 130.998 466.62ZM130.998 464.94C131.678 464.94 132.285 464.787 132.818 464.48C133.365 464.16 133.791 463.72 134.098 463.16C134.405 462.587 134.558 461.933 134.558 461.2C134.558 460.467 134.405 459.82 134.098 459.26C133.791 458.687 133.365 458.247 132.818 457.94C132.285 457.633 131.678 457.48 130.998 457.48C130.318 457.48 129.705 457.633 129.158 457.94C128.625 458.247 128.198 458.687 127.878 459.26C127.571 459.82 127.418 460.467 127.418 461.2C127.418 461.933 127.571 462.587 127.878 463.16C128.198 463.72 128.625 464.16 129.158 464.48C129.705 464.787 130.318 464.94 130.998 464.94ZM143.773 466.62C142.693 466.62 141.727 466.387 140.873 465.92C140.033 465.453 139.373 464.813 138.893 464C138.413 463.173 138.173 462.24 138.173 461.2C138.173 460.16 138.413 459.233 138.893 458.42C139.373 457.593 140.033 456.953 140.873 456.5C141.727 456.033 142.693 455.8 143.773 455.8C144.733 455.8 145.587 455.993 146.333 456.38C147.093 456.767 147.68 457.327 148.093 458.06L146.633 459C146.3 458.493 145.887 458.113 145.393 457.86C144.9 457.607 144.353 457.48 143.753 457.48C143.06 457.48 142.433 457.633 141.873 457.94C141.327 458.247 140.893 458.687 140.573 459.26C140.267 459.82 140.113 460.467 140.113 461.2C140.113 461.947 140.267 462.607 140.573 463.18C140.893 463.74 141.327 464.173 141.873 464.48C142.433 464.787 143.06 464.94 143.753 464.94C144.353 464.94 144.9 464.813 145.393 464.56C145.887 464.307 146.3 463.927 146.633 463.42L148.093 464.34C147.68 465.073 147.093 465.64 146.333 466.04C145.587 466.427 144.733 466.62 143.773 466.62ZM150.579 455.9H152.499V466.5H150.579V455.9ZM151.539 453.86C151.166 453.86 150.852 453.74 150.599 453.5C150.359 453.26 150.239 452.967 150.239 452.62C150.239 452.273 150.359 451.98 150.599 451.74C150.852 451.487 151.166 451.36 151.539 451.36C151.912 451.36 152.219 451.48 152.459 451.72C152.712 451.947 152.839 452.233 152.839 452.58C152.839 452.94 152.712 453.247 152.459 453.5C152.219 453.74 151.912 453.86 151.539 453.86ZM160.025 455.8C161.492 455.8 162.612 456.16 163.385 456.88C164.172 457.6 164.565 458.673 164.565 460.1V466.5H162.745V465.1C162.425 465.593 161.965 465.973 161.365 466.24C160.778 466.493 160.078 466.62 159.265 466.62C158.078 466.62 157.125 466.333 156.405 465.76C155.698 465.187 155.345 464.433 155.345 463.5C155.345 462.567 155.685 461.82 156.365 461.26C157.045 460.687 158.125 460.4 159.605 460.4H162.645V460.02C162.645 459.193 162.405 458.56 161.925 458.12C161.445 457.68 160.738 457.46 159.805 457.46C159.178 457.46 158.565 457.567 157.965 457.78C157.365 457.98 156.858 458.253 156.445 458.6L155.645 457.16C156.192 456.72 156.845 456.387 157.605 456.16C158.365 455.92 159.172 455.8 160.025 455.8ZM159.585 465.14C160.318 465.14 160.952 464.98 161.485 464.66C162.018 464.327 162.405 463.86 162.645 463.26V461.78H159.685C158.058 461.78 157.245 462.327 157.245 463.42C157.245 463.953 157.452 464.373 157.865 464.68C158.278 464.987 158.852 465.14 159.585 465.14ZM168.118 451.66H170.038V466.5H168.118V451.66ZM192.335 466.5L192.315 456.3L187.255 464.8H186.335L181.275 456.36V466.5H179.355V452.5H180.995L186.835 462.34L192.595 452.5H194.235L194.255 466.5H192.335ZM207.757 461.26C207.757 461.407 207.743 461.6 207.717 461.84H199.117C199.237 462.773 199.643 463.527 200.337 464.1C201.043 464.66 201.917 464.94 202.957 464.94C204.223 464.94 205.243 464.513 206.017 463.66L207.077 464.9C206.597 465.46 205.997 465.887 205.277 466.18C204.57 466.473 203.777 466.62 202.897 466.62C201.777 466.62 200.783 466.393 199.917 465.94C199.05 465.473 198.377 464.827 197.897 464C197.43 463.173 197.197 462.24 197.197 461.2C197.197 460.173 197.423 459.247 197.877 458.42C198.343 457.593 198.977 456.953 199.777 456.5C200.59 456.033 201.503 455.8 202.517 455.8C203.53 455.8 204.43 456.033 205.217 456.5C206.017 456.953 206.637 457.593 207.077 458.42C207.53 459.247 207.757 460.193 207.757 461.26ZM202.517 457.42C201.597 457.42 200.823 457.7 200.197 458.26C199.583 458.82 199.223 459.553 199.117 460.46H205.917C205.81 459.567 205.443 458.84 204.817 458.28C204.203 457.707 203.437 457.42 202.517 457.42ZM220.423 451.66V466.5H218.583V464.82C218.156 465.407 217.616 465.853 216.963 466.16C216.31 466.467 215.59 466.62 214.803 466.62C213.776 466.62 212.856 466.393 212.043 465.94C211.23 465.487 210.59 464.853 210.123 464.04C209.67 463.213 209.443 462.267 209.443 461.2C209.443 460.133 209.67 459.193 210.123 458.38C210.59 457.567 211.23 456.933 212.043 456.48C212.856 456.027 213.776 455.8 214.803 455.8C215.563 455.8 216.263 455.947 216.903 456.24C217.543 456.52 218.076 456.94 218.503 457.5V451.66H220.423ZM214.963 464.94C215.63 464.94 216.236 464.787 216.783 464.48C217.33 464.16 217.756 463.72 218.063 463.16C218.37 462.587 218.523 461.933 218.523 461.2C218.523 460.467 218.37 459.82 218.063 459.26C217.756 458.687 217.33 458.247 216.783 457.94C216.236 457.633 215.63 457.48 214.963 457.48C214.283 457.48 213.67 457.633 213.123 457.94C212.59 458.247 212.163 458.687 211.843 459.26C211.536 459.82 211.383 460.467 211.383 461.2C211.383 461.933 211.536 462.587 211.843 463.16C212.163 463.72 212.59 464.16 213.123 464.48C213.67 464.787 214.283 464.94 214.963 464.94ZM224.056 455.9H225.976V466.5H224.056V455.9ZM225.016 453.86C224.642 453.86 224.329 453.74 224.076 453.5C223.836 453.26 223.716 452.967 223.716 452.62C223.716 452.273 223.836 451.98 224.076 451.74C224.329 451.487 224.642 451.36 225.016 451.36C225.389 451.36 225.696 451.48 225.936 451.72C226.189 451.947 226.316 452.233 226.316 452.58C226.316 452.94 226.189 453.247 225.936 453.5C225.696 453.74 225.389 453.86 225.016 453.86ZM233.502 455.8C234.968 455.8 236.088 456.16 236.862 456.88C237.648 457.6 238.042 458.673 238.042 460.1V466.5H236.222V465.1C235.902 465.593 235.442 465.973 234.842 466.24C234.255 466.493 233.555 466.62 232.742 466.62C231.555 466.62 230.602 466.333 229.882 465.76C229.175 465.187 228.822 464.433 228.822 463.5C228.822 462.567 229.162 461.82 229.842 461.26C230.522 460.687 231.602 460.4 233.082 460.4H236.122V460.02C236.122 459.193 235.882 458.56 235.402 458.12C234.922 457.68 234.215 457.46 233.282 457.46C232.655 457.46 232.042 457.567 231.442 457.78C230.842 457.98 230.335 458.253 229.922 458.6L229.122 457.16C229.668 456.72 230.322 456.387 231.082 456.16C231.842 455.92 232.648 455.8 233.502 455.8ZM233.062 465.14C233.795 465.14 234.428 464.98 234.962 464.66C235.495 464.327 235.882 463.86 236.122 463.26V461.78H233.162C231.535 461.78 230.722 462.327 230.722 463.42C230.722 463.953 230.928 464.373 231.342 464.68C231.755 464.987 232.328 465.14 233.062 465.14ZM256.166 463H248.726L247.186 466.5H245.126L251.466 452.5H253.446L259.806 466.5H257.706L256.166 463ZM255.466 461.4L252.446 454.54L249.426 461.4H255.466ZM271.517 451.66V466.5H269.677V464.82C269.25 465.407 268.71 465.853 268.057 466.16C267.403 466.467 266.683 466.62 265.897 466.62C264.87 466.62 263.95 466.393 263.137 465.94C262.323 465.487 261.683 464.853 261.217 464.04C260.763 463.213 260.537 462.267 260.537 461.2C260.537 460.133 260.763 459.193 261.217 458.38C261.683 457.567 262.323 456.933 263.137 456.48C263.95 456.027 264.87 455.8 265.897 455.8C266.657 455.8 267.357 455.947 267.997 456.24C268.637 456.52 269.17 456.94 269.597 457.5V451.66H271.517ZM266.057 464.94C266.723 464.94 267.33 464.787 267.877 464.48C268.423 464.16 268.85 463.72 269.157 463.16C269.463 462.587 269.617 461.933 269.617 461.2C269.617 460.467 269.463 459.82 269.157 459.26C268.85 458.687 268.423 458.247 267.877 457.94C267.33 457.633 266.723 457.48 266.057 457.48C265.377 457.48 264.763 457.633 264.217 457.94C263.683 458.247 263.257 458.687 262.937 459.26C262.63 459.82 262.477 460.467 262.477 461.2C262.477 461.933 262.63 462.587 262.937 463.16C263.257 463.72 263.683 464.16 264.217 464.48C264.763 464.787 265.377 464.94 266.057 464.94ZM287.061 466.66C285.661 466.66 284.394 466.353 283.261 465.74C282.141 465.113 281.261 464.26 280.621 463.18C279.981 462.087 279.661 460.86 279.661 459.5C279.661 458.14 279.981 456.92 280.621 455.84C281.261 454.747 282.147 453.893 283.281 453.28C284.414 452.653 285.681 452.34 287.081 452.34C288.174 452.34 289.174 452.527 290.081 452.9C290.987 453.26 291.761 453.8 292.401 454.52L291.101 455.78C290.047 454.673 288.734 454.12 287.161 454.12C286.121 454.12 285.181 454.353 284.341 454.82C283.501 455.287 282.841 455.933 282.361 456.76C281.894 457.573 281.661 458.487 281.661 459.5C281.661 460.513 281.894 461.433 282.361 462.26C282.841 463.073 283.501 463.713 284.341 464.18C285.181 464.647 286.121 464.88 287.161 464.88C288.721 464.88 290.034 464.32 291.101 463.2L292.401 464.46C291.761 465.18 290.981 465.727 290.061 466.1C289.154 466.473 288.154 466.66 287.061 466.66ZM298.697 455.8C300.164 455.8 301.284 456.16 302.057 456.88C302.844 457.6 303.237 458.673 303.237 460.1V466.5H301.417V465.1C301.097 465.593 300.637 465.973 300.037 466.24C299.45 466.493 298.75 466.62 297.937 466.62C296.75 466.62 295.797 466.333 295.077 465.76C294.37 465.187 294.017 464.433 294.017 463.5C294.017 462.567 294.357 461.82 295.037 461.26C295.717 460.687 296.797 460.4 298.277 460.4H301.317V460.02C301.317 459.193 301.077 458.56 300.597 458.12C300.117 457.68 299.41 457.46 298.477 457.46C297.85 457.46 297.237 457.567 296.637 457.78C296.037 457.98 295.53 458.253 295.117 458.6L294.317 457.16C294.864 456.72 295.517 456.387 296.277 456.16C297.037 455.92 297.844 455.8 298.697 455.8ZM298.257 465.14C298.99 465.14 299.624 464.98 300.157 464.66C300.69 464.327 301.077 463.86 301.317 463.26V461.78H298.357C296.73 461.78 295.917 462.327 295.917 463.42C295.917 463.953 296.124 464.373 296.537 464.68C296.95 464.987 297.524 465.14 298.257 465.14ZM320.05 455.8C321.383 455.8 322.437 456.187 323.21 456.96C323.997 457.733 324.39 458.88 324.39 460.4V466.5H322.47V460.62C322.47 459.593 322.23 458.82 321.75 458.3C321.283 457.78 320.61 457.52 319.73 457.52C318.757 457.52 317.983 457.827 317.41 458.44C316.837 459.04 316.55 459.907 316.55 461.04V466.5H314.63V460.62C314.63 459.593 314.39 458.82 313.91 458.3C313.443 457.78 312.77 457.52 311.89 457.52C310.917 457.52 310.143 457.827 309.57 458.44C308.997 459.04 308.71 459.907 308.71 461.04V466.5H306.79V455.9H308.63V457.48C309.017 456.933 309.523 456.52 310.15 456.24C310.777 455.947 311.49 455.8 312.29 455.8C313.117 455.8 313.85 455.967 314.49 456.3C315.13 456.633 315.623 457.12 315.97 457.76C316.37 457.147 316.923 456.667 317.63 456.32C318.35 455.973 319.157 455.8 320.05 455.8ZM333.543 455.8C334.57 455.8 335.49 456.027 336.303 456.48C337.116 456.933 337.75 457.567 338.203 458.38C338.67 459.193 338.903 460.133 338.903 461.2C338.903 462.267 338.67 463.213 338.203 464.04C337.75 464.853 337.116 465.487 336.303 465.94C335.49 466.393 334.57 466.62 333.543 466.62C332.783 466.62 332.083 466.473 331.443 466.18C330.816 465.887 330.283 465.46 329.843 464.9V470.38H327.923V455.9H329.763V457.58C330.19 456.993 330.73 456.553 331.383 456.26C332.036 455.953 332.756 455.8 333.543 455.8ZM333.383 464.94C334.063 464.94 334.67 464.787 335.203 464.48C335.75 464.16 336.176 463.72 336.483 463.16C336.803 462.587 336.963 461.933 336.963 461.2C336.963 460.467 336.803 459.82 336.483 459.26C336.176 458.687 335.75 458.247 335.203 457.94C334.67 457.633 334.063 457.48 333.383 457.48C332.716 457.48 332.11 457.64 331.563 457.96C331.03 458.267 330.603 458.7 330.283 459.26C329.976 459.82 329.823 460.467 329.823 461.2C329.823 461.933 329.976 462.587 330.283 463.16C330.59 463.72 331.016 464.16 331.563 464.48C332.11 464.787 332.716 464.94 333.383 464.94ZM345.318 455.8C346.785 455.8 347.905 456.16 348.678 456.88C349.465 457.6 349.858 458.673 349.858 460.1V466.5H348.038V465.1C347.718 465.593 347.258 465.973 346.658 466.24C346.071 466.493 345.371 466.62 344.558 466.62C343.371 466.62 342.418 466.333 341.698 465.76C340.991 465.187 340.638 464.433 340.638 463.5C340.638 462.567 340.978 461.82 341.658 461.26C342.338 460.687 343.418 460.4 344.898 460.4H347.938V460.02C347.938 459.193 347.698 458.56 347.218 458.12C346.738 457.68 346.031 457.46 345.098 457.46C344.471 457.46 343.858 457.567 343.258 457.78C342.658 457.98 342.151 458.253 341.738 458.6L340.938 457.16C341.485 456.72 342.138 456.387 342.898 456.16C343.658 455.92 344.465 455.8 345.318 455.8ZM344.878 465.14C345.611 465.14 346.245 464.98 346.778 464.66C347.311 464.327 347.698 463.86 347.938 463.26V461.78H344.978C343.351 461.78 342.538 462.327 342.538 463.42C342.538 463.953 342.745 464.373 343.158 464.68C343.571 464.987 344.145 465.14 344.878 465.14ZM353.411 455.9H355.331V466.5H353.411V455.9ZM354.371 453.86C353.998 453.86 353.685 453.74 353.431 453.5C353.191 453.26 353.071 452.967 353.071 452.62C353.071 452.273 353.191 451.98 353.431 451.74C353.685 451.487 353.998 451.36 354.371 451.36C354.745 451.36 355.051 451.48 355.291 451.72C355.545 451.947 355.671 452.233 355.671 452.58C355.671 452.94 355.545 453.247 355.291 453.5C355.051 453.74 354.745 453.86 354.371 453.86ZM369.137 455.9V465.06C369.137 466.913 368.677 468.28 367.757 469.16C366.837 470.053 365.464 470.5 363.637 470.5C362.637 470.5 361.684 470.36 360.777 470.08C359.87 469.813 359.137 469.427 358.577 468.92L359.497 467.44C359.99 467.867 360.597 468.2 361.317 468.44C362.05 468.693 362.804 468.82 363.577 468.82C364.817 468.82 365.73 468.527 366.317 467.94C366.917 467.353 367.217 466.46 367.217 465.26V464.42C366.764 464.967 366.204 465.38 365.537 465.66C364.884 465.927 364.17 466.06 363.397 466.06C362.384 466.06 361.464 465.847 360.637 465.42C359.824 464.98 359.184 464.373 358.717 463.6C358.25 462.813 358.017 461.92 358.017 460.92C358.017 459.92 358.25 459.033 358.717 458.26C359.184 457.473 359.824 456.867 360.637 456.44C361.464 456.013 362.384 455.8 363.397 455.8C364.197 455.8 364.937 455.947 365.617 456.24C366.31 456.533 366.877 456.967 367.317 457.54V455.9H369.137ZM363.617 464.38C364.31 464.38 364.93 464.233 365.477 463.94C366.037 463.647 366.47 463.24 366.777 462.72C367.097 462.187 367.257 461.587 367.257 460.92C367.257 459.893 366.917 459.067 366.237 458.44C365.557 457.8 364.684 457.48 363.617 457.48C362.537 457.48 361.657 457.8 360.977 458.44C360.297 459.067 359.957 459.893 359.957 460.92C359.957 461.587 360.11 462.187 360.417 462.72C360.737 463.24 361.17 463.647 361.717 463.94C362.277 464.233 362.91 464.38 363.617 464.38ZM378.466 455.8C379.812 455.8 380.879 456.193 381.666 456.98C382.466 457.753 382.866 458.893 382.866 460.4V466.5H380.946V460.62C380.946 459.593 380.699 458.82 380.206 458.3C379.712 457.78 379.006 457.52 378.086 457.52C377.046 457.52 376.226 457.827 375.626 458.44C375.026 459.04 374.726 459.907 374.726 461.04V466.5H372.806V455.9H374.646V457.5C375.032 456.953 375.552 456.533 376.206 456.24C376.872 455.947 377.626 455.8 378.466 455.8Z" fill="#1A1A1A"/>
<path d="M68.883 407C68.883 414.347 74.8563 420.333 82.2163 420.333C89.563 420.333 95.5496 414.347 95.5496 407C95.5496 399.64 89.563 393.667 82.2163 393.667C74.8563 393.667 68.883 399.64 68.883 407V407Z" fill="#130F26"/>
<rect x="77.2511" y="405.743" width="6.91934" height="2.30645" rx="1.15322" transform="rotate(45 77.2511 405.743)" fill="white"/>
<rect x="89.483" y="403.297" width="12.6855" height="2.30645" rx="1.15322" transform="rotate(135 89.483 403.297)" fill="white"/>
<path d="M126.616 414.5L126.596 406.1L122.476 413.02H121.016L116.916 406.28V414.5H113.876V400.5H116.556L121.796 409.2L126.956 400.5H129.616L129.656 414.5H126.616ZM137.878 414.66C136.744 414.66 135.724 414.427 134.818 413.96C133.924 413.48 133.224 412.82 132.718 411.98C132.211 411.14 131.958 410.187 131.958 409.12C131.958 408.053 132.211 407.1 132.718 406.26C133.224 405.42 133.924 404.767 134.818 404.3C135.724 403.82 136.744 403.58 137.878 403.58C139.011 403.58 140.024 403.82 140.918 404.3C141.811 404.767 142.511 405.42 143.018 406.26C143.524 407.1 143.778 408.053 143.778 409.12C143.778 410.187 143.524 411.14 143.018 411.98C142.511 412.82 141.811 413.48 140.918 413.96C140.024 414.427 139.011 414.66 137.878 414.66ZM137.878 412.1C138.678 412.1 139.331 411.833 139.838 411.3C140.358 410.753 140.618 410.027 140.618 409.12C140.618 408.213 140.358 407.493 139.838 406.96C139.331 406.413 138.678 406.14 137.878 406.14C137.078 406.14 136.418 406.413 135.898 406.96C135.378 407.493 135.118 408.213 135.118 409.12C135.118 410.027 135.378 410.753 135.898 411.3C136.418 411.833 137.078 412.1 137.878 412.1ZM152.403 403.58C153.737 403.58 154.81 403.98 155.623 404.78C156.45 405.58 156.863 406.767 156.863 408.34V414.5H153.743V408.82C153.743 407.967 153.557 407.333 153.183 406.92C152.81 406.493 152.27 406.28 151.563 406.28C150.777 406.28 150.15 406.527 149.683 407.02C149.217 407.5 148.983 408.22 148.983 409.18V414.5H145.863V403.74H148.843V405C149.257 404.547 149.77 404.2 150.383 403.96C150.997 403.707 151.67 403.58 152.403 403.58ZM166.631 413.98C166.325 414.207 165.945 414.38 165.491 414.5C165.051 414.607 164.585 414.66 164.091 414.66C162.811 414.66 161.818 414.333 161.111 413.68C160.418 413.027 160.071 412.067 160.071 410.8V406.38H158.411V403.98H160.071V401.36H163.191V403.98H165.871V406.38H163.191V410.76C163.191 411.213 163.305 411.567 163.531 411.82C163.771 412.06 164.105 412.18 164.531 412.18C165.025 412.18 165.445 412.047 165.791 411.78L166.631 413.98ZM174.923 403.58C176.256 403.58 177.329 403.98 178.143 404.78C178.969 405.58 179.383 406.767 179.383 408.34V414.5H176.263V408.82C176.263 407.967 176.076 407.333 175.703 406.92C175.329 406.493 174.789 406.28 174.083 406.28C173.296 406.28 172.669 406.527 172.203 407.02C171.736 407.5 171.503 408.22 171.503 409.18V414.5H168.383V399.66H171.503V404.86C171.916 404.447 172.416 404.133 173.003 403.92C173.589 403.693 174.229 403.58 174.923 403.58ZM182.211 399.66H185.331V414.5H182.211V399.66ZM198.906 403.74L194.046 415.16C193.553 416.4 192.94 417.273 192.206 417.78C191.486 418.287 190.613 418.54 189.586 418.54C189.026 418.54 188.473 418.453 187.926 418.28C187.38 418.107 186.933 417.867 186.586 417.56L187.726 415.34C187.966 415.553 188.24 415.72 188.546 415.84C188.866 415.96 189.18 416.02 189.486 416.02C189.913 416.02 190.26 415.913 190.526 415.7C190.793 415.5 191.033 415.16 191.246 414.68L191.286 414.58L186.626 403.74H189.846L192.866 411.04L195.906 403.74H198.906ZM215.284 411.5H208.784L207.544 414.5H204.224L210.464 400.5H213.664L219.924 414.5H216.524L215.284 411.5ZM214.264 409.04L212.044 403.68L209.824 409.04H214.264ZM227.696 403.58C229.03 403.58 230.103 403.98 230.916 404.78C231.743 405.58 232.156 406.767 232.156 408.34V414.5H229.036V408.82C229.036 407.967 228.85 407.333 228.476 406.92C228.103 406.493 227.563 406.28 226.856 406.28C226.07 406.28 225.443 406.527 224.976 407.02C224.51 407.5 224.276 408.22 224.276 409.18V414.5H221.156V403.74H224.136V405C224.55 404.547 225.063 404.2 225.676 403.96C226.29 403.707 226.963 403.58 227.696 403.58ZM239.324 403.58C240.991 403.58 242.271 403.98 243.164 404.78C244.058 405.567 244.504 406.76 244.504 408.36V414.5H241.584V413.16C240.998 414.16 239.904 414.66 238.304 414.66C237.478 414.66 236.758 414.52 236.144 414.24C235.544 413.96 235.084 413.573 234.764 413.08C234.444 412.587 234.284 412.027 234.284 411.4C234.284 410.4 234.658 409.613 235.404 409.04C236.164 408.467 237.331 408.18 238.904 408.18H241.384C241.384 407.5 241.178 406.98 240.764 406.62C240.351 406.247 239.731 406.06 238.904 406.06C238.331 406.06 237.764 406.153 237.204 406.34C236.658 406.513 236.191 406.753 235.804 407.06L234.684 404.88C235.271 404.467 235.971 404.147 236.784 403.92C237.611 403.693 238.458 403.58 239.324 403.58ZM239.084 412.56C239.618 412.56 240.091 412.44 240.504 412.2C240.918 411.947 241.211 411.58 241.384 411.1V410H239.244C237.964 410 237.324 410.42 237.324 411.26C237.324 411.66 237.478 411.98 237.784 412.22C238.104 412.447 238.538 412.56 239.084 412.56ZM247.328 399.66H250.448V414.5H247.328V399.66ZM264.024 403.74L259.164 415.16C258.67 416.4 258.057 417.273 257.324 417.78C256.604 418.287 255.73 418.54 254.704 418.54C254.144 418.54 253.59 418.453 253.044 418.28C252.497 418.107 252.05 417.867 251.704 417.56L252.844 415.34C253.084 415.553 253.357 415.72 253.664 415.84C253.984 415.96 254.297 416.02 254.604 416.02C255.03 416.02 255.377 415.913 255.644 415.7C255.91 415.5 256.15 415.16 256.364 414.68L256.404 414.58L251.744 403.74H254.964L257.984 411.04L261.024 403.74H264.024ZM272.53 413.98C272.223 414.207 271.843 414.38 271.39 414.5C270.95 414.607 270.483 414.66 269.99 414.66C268.71 414.66 267.716 414.333 267.01 413.68C266.316 413.027 265.97 412.067 265.97 410.8V406.38H264.31V403.98H265.97V401.36H269.09V403.98H271.77V406.38H269.09V410.76C269.09 411.213 269.203 411.567 269.43 411.82C269.67 412.06 270.003 412.18 270.43 412.18C270.923 412.18 271.343 412.047 271.69 411.78L272.53 413.98ZM274.281 403.74H277.401V414.5H274.281V403.74ZM275.841 402.24C275.268 402.24 274.801 402.073 274.441 401.74C274.081 401.407 273.901 400.993 273.901 400.5C273.901 400.007 274.081 399.593 274.441 399.26C274.801 398.927 275.268 398.76 275.841 398.76C276.415 398.76 276.881 398.92 277.241 399.24C277.601 399.56 277.781 399.96 277.781 400.44C277.781 400.96 277.601 401.393 277.241 401.74C276.881 402.073 276.415 402.24 275.841 402.24ZM285.497 414.66C284.35 414.66 283.317 414.427 282.397 413.96C281.49 413.48 280.777 412.82 280.257 411.98C279.75 411.14 279.497 410.187 279.497 409.12C279.497 408.053 279.75 407.1 280.257 406.26C280.777 405.42 281.49 404.767 282.397 404.3C283.317 403.82 284.35 403.58 285.497 403.58C286.63 403.58 287.617 403.82 288.457 404.3C289.31 404.767 289.93 405.44 290.317 406.32L287.897 407.62C287.337 406.633 286.53 406.14 285.477 406.14C284.663 406.14 283.99 406.407 283.457 406.94C282.923 407.473 282.657 408.2 282.657 409.12C282.657 410.04 282.923 410.767 283.457 411.3C283.99 411.833 284.663 412.1 285.477 412.1C286.543 412.1 287.35 411.607 287.897 410.62L290.317 411.94C289.93 412.793 289.31 413.46 288.457 413.94C287.617 414.42 286.63 414.66 285.497 414.66ZM295.733 414.66C294.84 414.66 293.967 414.553 293.113 414.34C292.26 414.113 291.58 413.833 291.073 413.5L292.113 411.26C292.593 411.567 293.173 411.82 293.853 412.02C294.533 412.207 295.2 412.3 295.853 412.3C297.173 412.3 297.833 411.973 297.833 411.32C297.833 411.013 297.653 410.793 297.293 410.66C296.933 410.527 296.38 410.413 295.633 410.32C294.753 410.187 294.027 410.033 293.453 409.86C292.88 409.687 292.38 409.38 291.953 408.94C291.54 408.5 291.333 407.873 291.333 407.06C291.333 406.38 291.527 405.78 291.913 405.26C292.313 404.727 292.887 404.313 293.633 404.02C294.393 403.727 295.287 403.58 296.313 403.58C297.073 403.58 297.827 403.667 298.573 403.84C299.333 404 299.96 404.227 300.453 404.52L299.413 406.74C298.467 406.207 297.433 405.94 296.313 405.94C295.647 405.94 295.147 406.033 294.813 406.22C294.48 406.407 294.313 406.647 294.313 406.94C294.313 407.273 294.493 407.507 294.853 407.64C295.213 407.773 295.787 407.9 296.573 408.02C297.453 408.167 298.173 408.327 298.733 408.5C299.293 408.66 299.78 408.96 300.193 409.4C300.607 409.84 300.813 410.453 300.813 411.24C300.813 411.907 300.613 412.5 300.213 413.02C299.813 413.54 299.227 413.947 298.453 414.24C297.693 414.52 296.787 414.66 295.733 414.66Z" fill="#1A1A1A"/>
<path d="M76.8002 65.4C79.3389 65.4 81.3362 66.0067 82.7922 67.22C84.2482 68.4333 84.9762 70.104 84.9762 72.232C84.9762 74.36 84.2482 76.0307 82.7922 77.244C81.3362 78.4573 79.3389 79.064 76.8002 79.064H71.9562V85H69.1562V65.4H76.8002ZM76.7162 76.628C78.4895 76.628 79.8429 76.2547 80.7762 75.508C81.7095 74.7427 82.1762 73.6507 82.1762 72.232C82.1762 70.8133 81.7095 69.7307 80.7762 68.984C79.8429 68.2187 78.4895 67.836 76.7162 67.836H71.9562V76.628H76.7162ZM91.0277 72.652C91.4944 71.7933 92.185 71.14 93.0997 70.692C94.0144 70.244 95.125 70.02 96.4317 70.02V72.624C96.2824 72.6053 96.077 72.596 95.8157 72.596C94.3597 72.596 93.2117 73.0347 92.3717 73.912C91.5504 74.7707 91.1397 76.0027 91.1397 77.608V85H88.4517V70.16H91.0277V72.652ZM113.02 77.664C113.02 77.8693 113.001 78.14 112.964 78.476H100.924C101.092 79.7827 101.661 80.8373 102.632 81.64C103.621 82.424 104.844 82.816 106.3 82.816C108.073 82.816 109.501 82.2187 110.584 81.024L112.068 82.76C111.396 83.544 110.556 84.1413 109.548 84.552C108.559 84.9627 107.448 85.168 106.216 85.168C104.648 85.168 103.257 84.8507 102.044 84.216C100.831 83.5627 99.8879 82.6573 99.2159 81.5C98.5626 80.3427 98.2359 79.036 98.2359 77.58C98.2359 76.1427 98.5533 74.8453 99.1879 73.688C99.8413 72.5307 100.728 71.6347 101.848 71C102.987 70.3467 104.265 70.02 105.684 70.02C107.103 70.02 108.363 70.3467 109.464 71C110.584 71.6347 111.452 72.5307 112.068 73.688C112.703 74.8453 113.02 76.1707 113.02 77.664ZM105.684 72.288C104.396 72.288 103.313 72.68 102.436 73.464C101.577 74.248 101.073 75.2747 100.924 76.544H110.444C110.295 75.2933 109.781 74.276 108.904 73.492C108.045 72.6893 106.972 72.288 105.684 72.288ZM135.316 70.02C137.183 70.02 138.658 70.5613 139.74 71.644C140.842 72.7267 141.392 74.332 141.392 76.46V85H138.704V76.768C138.704 75.3307 138.368 74.248 137.696 73.52C137.043 72.792 136.1 72.428 134.868 72.428C133.506 72.428 132.423 72.8573 131.62 73.716C130.818 74.556 130.416 75.7693 130.416 77.356V85H127.728V76.768C127.728 75.3307 127.392 74.248 126.72 73.52C126.067 72.792 125.124 72.428 123.892 72.428C122.53 72.428 121.447 72.8573 120.644 73.716C119.842 74.556 119.44 75.7693 119.44 77.356V85H116.752V70.16H119.328V72.372C119.87 71.6067 120.579 71.028 121.456 70.636C122.334 70.2253 123.332 70.02 124.452 70.02C125.61 70.02 126.636 70.2533 127.532 70.72C128.428 71.1867 129.119 71.868 129.604 72.764C130.164 71.9053 130.939 71.2333 131.928 70.748C132.936 70.2627 134.066 70.02 135.316 70.02ZM146.338 70.16H149.026V85H146.338V70.16ZM147.682 67.304C147.16 67.304 146.721 67.136 146.366 66.8C146.03 66.464 145.862 66.0533 145.862 65.568C145.862 65.0827 146.03 64.672 146.366 64.336C146.721 63.9813 147.16 63.804 147.682 63.804C148.205 63.804 148.634 63.972 148.97 64.308C149.325 64.6253 149.502 65.0267 149.502 65.512C149.502 66.016 149.325 66.4453 148.97 66.8C148.634 67.136 148.205 67.304 147.682 67.304ZM167.991 70.16V85H165.443V82.76C164.901 83.5253 164.183 84.1227 163.287 84.552C162.409 84.9627 161.448 85.168 160.403 85.168C158.424 85.168 156.865 84.6267 155.727 83.544C154.588 82.4427 154.019 80.828 154.019 78.7V70.16H156.707V78.392C156.707 79.8293 157.052 80.9213 157.743 81.668C158.433 82.396 159.423 82.76 160.711 82.76C162.129 82.76 163.249 82.3307 164.071 81.472C164.892 80.6133 165.303 79.4 165.303 77.832V70.16H167.991ZM191.672 70.02C193.539 70.02 195.013 70.5613 196.096 71.644C197.197 72.7267 197.748 74.332 197.748 76.46V85H195.06V76.768C195.06 75.3307 194.724 74.248 194.052 73.52C193.399 72.792 192.456 72.428 191.224 72.428C189.861 72.428 188.779 72.8573 187.976 73.716C187.173 74.556 186.772 75.7693 186.772 77.356V85H184.084V76.768C184.084 75.3307 183.748 74.248 183.076 73.52C182.423 72.792 181.48 72.428 180.248 72.428C178.885 72.428 177.803 72.8573 177 73.716C176.197 74.556 175.796 75.7693 175.796 77.356V85H173.108V70.16H175.684V72.372C176.225 71.6067 176.935 71.028 177.812 70.636C178.689 70.2253 179.688 70.02 180.808 70.02C181.965 70.02 182.992 70.2533 183.888 70.72C184.784 71.1867 185.475 71.868 185.96 72.764C186.52 71.9053 187.295 71.2333 188.284 70.748C189.292 70.2627 190.421 70.02 191.672 70.02Z" fill="#1A1A1A"/>
<path d="M110.136 184.24C110.136 188.176 108.696 191.56 105.816 194.392C102.936 197.176 98.7842 198.904 93.3602 199.576V207.64H86.1602V199.792C82.6082 199.6 79.2242 198.976 76.0082 197.92C72.7922 196.864 70.2002 195.568 68.2322 194.032L72.1922 185.248C74.0162 186.592 76.1522 187.72 78.6002 188.632C81.0482 189.544 83.5682 190.12 86.1602 190.36V178.336C82.7522 177.52 79.8722 176.608 77.5202 175.6C75.1682 174.592 73.2002 173.128 71.6162 171.208C70.0322 169.24 69.2402 166.648 69.2402 163.432C69.2402 159.448 70.6802 156.04 73.5602 153.208C76.4882 150.328 80.6882 148.576 86.1602 147.952V139.96H93.3602V147.808C99.2642 148.288 104.136 149.752 107.976 152.2L104.376 161.056C100.776 158.992 97.1042 157.744 93.3602 157.312V169.552C96.7202 170.32 99.5522 171.208 101.856 172.216C104.208 173.176 106.176 174.64 107.76 176.608C109.344 178.528 110.136 181.072 110.136 184.24ZM80.8322 162.856C80.8322 164.056 81.2882 165.04 82.2002 165.808C83.1122 166.576 84.4322 167.224 86.1602 167.752V157.528C84.3362 157.96 82.9922 158.656 82.1282 159.616C81.2642 160.528 80.8322 161.608 80.8322 162.856ZM93.3602 190.072C95.0882 189.688 96.3842 189.064 97.2482 188.2C98.1122 187.336 98.5442 186.304 98.5442 185.104C98.5442 183.904 98.0882 182.92 97.1762 182.152C96.3122 181.384 95.0402 180.712 93.3602 180.136V190.072ZM133.675 148.6V199H122.011V157.96H111.931V148.6H133.675ZM164.03 199.864C159.854 199.864 156.134 198.832 152.87 196.768C149.606 194.704 147.038 191.728 145.166 187.84C143.342 183.904 142.43 179.224 142.43 173.8C142.43 168.376 143.342 163.72 145.166 159.832C147.038 155.896 149.606 152.896 152.87 150.832C156.134 148.768 159.854 147.736 164.03 147.736C168.206 147.736 171.926 148.768 175.19 150.832C178.454 152.896 180.998 155.896 182.822 159.832C184.694 163.72 185.63 168.376 185.63 173.8C185.63 179.224 184.694 183.904 182.822 187.84C180.998 191.728 178.454 194.704 175.19 196.768C171.926 198.832 168.206 199.864 164.03 199.864ZM164.03 190C167.102 190 169.502 188.68 171.23 186.04C173.006 183.4 173.894 179.32 173.894 173.8C173.894 168.28 173.006 164.2 171.23 161.56C169.502 158.92 167.102 157.6 164.03 157.6C161.006 157.6 158.606 158.92 156.83 161.56C155.102 164.2 154.238 168.28 154.238 173.8C154.238 179.32 155.102 183.4 156.83 186.04C158.606 188.68 161.006 190 164.03 190ZM212.898 199.864C208.722 199.864 205.002 198.832 201.738 196.768C198.474 194.704 195.906 191.728 194.034 187.84C192.21 183.904 191.298 179.224 191.298 173.8C191.298 168.376 192.21 163.72 194.034 159.832C195.906 155.896 198.474 152.896 201.738 150.832C205.002 148.768 208.722 147.736 212.898 147.736C217.074 147.736 220.794 148.768 224.058 150.832C227.322 152.896 229.866 155.896 231.69 159.832C233.562 163.72 234.498 168.376 234.498 173.8C234.498 179.224 233.562 183.904 231.69 187.84C229.866 191.728 227.322 194.704 224.058 196.768C220.794 198.832 217.074 199.864 212.898 199.864ZM212.898 190C215.97 190 218.37 188.68 220.098 186.04C221.874 183.4 222.762 179.32 222.762 173.8C222.762 168.28 221.874 164.2 220.098 161.56C218.37 158.92 215.97 157.6 212.898 157.6C209.874 157.6 207.474 158.92 205.698 161.56C203.97 164.2 203.106 168.28 203.106 173.8C203.106 179.32 203.97 183.4 205.698 186.04C207.474 188.68 209.874 190 212.898 190ZM261.765 199.864C257.589 199.864 253.869 198.832 250.605 196.768C247.341 194.704 244.773 191.728 242.901 187.84C241.077 183.904 240.165 179.224 240.165 173.8C240.165 168.376 241.077 163.72 242.901 159.832C244.773 155.896 247.341 152.896 250.605 150.832C253.869 148.768 257.589 147.736 261.765 147.736C265.941 147.736 269.661 148.768 272.925 150.832C276.189 152.896 278.733 155.896 280.557 159.832C282.429 163.72 283.365 168.376 283.365 173.8C283.365 179.224 282.429 183.904 280.557 187.84C278.733 191.728 276.189 194.704 272.925 196.768C269.661 198.832 265.941 199.864 261.765 199.864ZM261.765 190C264.837 190 267.237 188.68 268.965 186.04C270.741 183.4 271.629 179.32 271.629 173.8C271.629 168.28 270.741 164.2 268.965 161.56C267.237 158.92 264.837 157.6 261.765 157.6C258.741 157.6 256.341 158.92 254.565 161.56C252.837 164.2 251.973 168.28 251.973 173.8C251.973 179.32 252.837 183.4 254.565 186.04C256.341 188.68 258.741 190 261.765 190ZM292.164 182.16H294.944L288.344 201H285.564L292.164 182.16ZM308.456 199L308.436 190.6L304.316 197.52H302.856L298.756 190.78V199H295.716V185H298.396L303.636 193.7L308.796 185H311.456L311.496 199H308.456ZM319.718 199.16C318.584 199.16 317.564 198.927 316.658 198.46C315.764 197.98 315.064 197.32 314.558 196.48C314.051 195.64 313.798 194.687 313.798 193.62C313.798 192.553 314.051 191.6 314.558 190.76C315.064 189.92 315.764 189.267 316.658 188.8C317.564 188.32 318.584 188.08 319.718 188.08C320.851 188.08 321.864 188.32 322.758 188.8C323.651 189.267 324.351 189.92 324.858 190.76C325.364 191.6 325.618 192.553 325.618 193.62C325.618 194.687 325.364 195.64 324.858 196.48C324.351 197.32 323.651 197.98 322.758 198.46C321.864 198.927 320.851 199.16 319.718 199.16ZM319.718 196.6C320.518 196.6 321.171 196.333 321.678 195.8C322.198 195.253 322.458 194.527 322.458 193.62C322.458 192.713 322.198 191.993 321.678 191.46C321.171 190.913 320.518 190.64 319.718 190.64C318.918 190.64 318.258 190.913 317.738 191.46C317.218 191.993 316.958 192.713 316.958 193.62C316.958 194.527 317.218 195.253 317.738 195.8C318.258 196.333 318.918 196.6 319.718 196.6ZM334.243 188.08C335.576 188.08 336.65 188.48 337.463 189.28C338.29 190.08 338.703 191.267 338.703 192.84V199H335.583V193.32C335.583 192.467 335.396 191.833 335.023 191.42C334.65 190.993 334.11 190.78 333.403 190.78C332.616 190.78 331.99 191.027 331.523 191.52C331.056 192 330.823 192.72 330.823 193.68V199H327.703V188.24H330.683V189.5C331.096 189.047 331.61 188.7 332.223 188.46C332.836 188.207 333.51 188.08 334.243 188.08ZM348.471 198.48C348.165 198.707 347.785 198.88 347.331 199C346.891 199.107 346.425 199.16 345.931 199.16C344.651 199.16 343.658 198.833 342.951 198.18C342.258 197.527 341.911 196.567 341.911 195.3V190.88H340.251V188.48H341.911V185.86H345.031V188.48H347.711V190.88H345.031V195.26C345.031 195.713 345.145 196.067 345.371 196.32C345.611 196.56 345.945 196.68 346.371 196.68C346.865 196.68 347.285 196.547 347.631 196.28L348.471 198.48ZM356.763 188.08C358.096 188.08 359.169 188.48 359.983 189.28C360.809 190.08 361.223 191.267 361.223 192.84V199H358.103V193.32C358.103 192.467 357.916 191.833 357.543 191.42C357.169 190.993 356.629 190.78 355.923 190.78C355.136 190.78 354.509 191.027 354.043 191.52C353.576 192 353.343 192.72 353.343 193.68V199H350.223V184.16H353.343V189.36C353.756 188.947 354.256 188.633 354.843 188.42C355.429 188.193 356.069 188.08 356.763 188.08Z" fill="#1A1A1A"/>
<g opacity="0.2">
<rect x="66" y="567" width="381" height="80" rx="16" fill="#130F26"/>
<path d="M175.767 603.12L177.947 604.3L176.967 605.94L174.767 604.64L174.807 607.06H172.927L172.947 604.62L170.747 605.94L169.787 604.3L171.967 603.12L169.787 601.92L170.747 600.28L172.947 601.6L172.927 599.16H174.807L174.767 601.6L176.967 600.28L177.947 601.92L175.767 603.12ZM192.699 600V614H190.039L183.059 605.5V614H179.859V600H182.539L189.499 608.5V600H192.699ZM200.912 614.16C199.778 614.16 198.758 613.927 197.852 613.46C196.958 612.98 196.258 612.32 195.752 611.48C195.245 610.64 194.992 609.687 194.992 608.62C194.992 607.553 195.245 606.6 195.752 605.76C196.258 604.92 196.958 604.267 197.852 603.8C198.758 603.32 199.778 603.08 200.912 603.08C202.045 603.08 203.058 603.32 203.952 603.8C204.845 604.267 205.545 604.92 206.052 605.76C206.558 606.6 206.812 607.553 206.812 608.62C206.812 609.687 206.558 610.64 206.052 611.48C205.545 612.32 204.845 612.98 203.952 613.46C203.058 613.927 202.045 614.16 200.912 614.16ZM200.912 611.6C201.712 611.6 202.365 611.333 202.872 610.8C203.392 610.253 203.652 609.527 203.652 608.62C203.652 607.713 203.392 606.993 202.872 606.46C202.365 605.913 201.712 605.64 200.912 605.64C200.112 605.64 199.452 605.913 198.932 606.46C198.412 606.993 198.152 607.713 198.152 608.62C198.152 609.527 198.412 610.253 198.932 610.8C199.452 611.333 200.112 611.6 200.912 611.6ZM215.437 603.08C216.77 603.08 217.844 603.48 218.657 604.28C219.484 605.08 219.897 606.267 219.897 607.84V614H216.777V608.32C216.777 607.467 216.59 606.833 216.217 606.42C215.844 605.993 215.304 605.78 214.597 605.78C213.81 605.78 213.184 606.027 212.717 606.52C212.25 607 212.017 607.72 212.017 608.68V614H208.897V603.24H211.877V604.5C212.29 604.047 212.804 603.7 213.417 603.46C214.03 603.207 214.704 603.08 215.437 603.08ZM233.382 608.66C233.382 608.7 233.362 608.98 233.322 609.5H225.182C225.329 610.167 225.676 610.693 226.222 611.08C226.769 611.467 227.449 611.66 228.262 611.66C228.822 611.66 229.316 611.58 229.742 611.42C230.182 611.247 230.589 610.98 230.962 610.62L232.622 612.42C231.609 613.58 230.129 614.16 228.182 614.16C226.969 614.16 225.896 613.927 224.962 613.46C224.029 612.98 223.309 612.32 222.802 611.48C222.296 610.64 222.042 609.687 222.042 608.62C222.042 607.567 222.289 606.62 222.782 605.78C223.289 604.927 223.976 604.267 224.842 603.8C225.722 603.32 226.702 603.08 227.782 603.08C228.836 603.08 229.789 603.307 230.642 603.76C231.496 604.213 232.162 604.867 232.642 605.72C233.136 606.56 233.382 607.54 233.382 608.66ZM227.802 605.44C227.096 605.44 226.502 605.64 226.022 606.04C225.542 606.44 225.249 606.987 225.142 607.68H230.442C230.336 607 230.042 606.46 229.562 606.06C229.082 605.647 228.496 605.44 227.802 605.44ZM250.564 611H244.064L242.824 614H239.504L245.744 600H248.944L255.204 614H251.804L250.564 611ZM249.544 608.54L247.324 603.18L245.104 608.54H249.544ZM266.55 603.24L262.01 614H258.79L254.27 603.24H257.49L260.47 610.56L263.55 603.24H266.55ZM271.811 603.08C273.478 603.08 274.758 603.48 275.651 604.28C276.545 605.067 276.991 606.26 276.991 607.86V614H274.071V612.66C273.485 613.66 272.391 614.16 270.791 614.16C269.965 614.16 269.245 614.02 268.631 613.74C268.031 613.46 267.571 613.073 267.251 612.58C266.931 612.087 266.771 611.527 266.771 610.9C266.771 609.9 267.145 609.113 267.891 608.54C268.651 607.967 269.818 607.68 271.391 607.68H273.871C273.871 607 273.665 606.48 273.251 606.12C272.838 605.747 272.218 605.56 271.391 605.56C270.818 605.56 270.251 605.653 269.691 605.84C269.145 606.013 268.678 606.253 268.291 606.56L267.171 604.38C267.758 603.967 268.458 603.647 269.271 603.42C270.098 603.193 270.945 603.08 271.811 603.08ZM271.571 612.06C272.105 612.06 272.578 611.94 272.991 611.7C273.405 611.447 273.698 611.08 273.871 610.6V609.5H271.731C270.451 609.5 269.811 609.92 269.811 610.76C269.811 611.16 269.965 611.48 270.271 611.72C270.591 611.947 271.025 612.06 271.571 612.06ZM279.815 603.24H282.935V614H279.815V603.24ZM281.375 601.74C280.802 601.74 280.335 601.573 279.975 601.24C279.615 600.907 279.435 600.493 279.435 600C279.435 599.507 279.615 599.093 279.975 598.76C280.335 598.427 280.802 598.26 281.375 598.26C281.948 598.26 282.415 598.42 282.775 598.74C283.135 599.06 283.315 599.46 283.315 599.94C283.315 600.46 283.135 600.893 282.775 601.24C282.415 601.573 281.948 601.74 281.375 601.74ZM285.831 599.16H288.951V614H285.831V599.16ZM296.186 603.08C297.853 603.08 299.133 603.48 300.026 604.28C300.92 605.067 301.366 606.26 301.366 607.86V614H298.446V612.66C297.86 613.66 296.766 614.16 295.166 614.16C294.34 614.16 293.62 614.02 293.006 613.74C292.406 613.46 291.946 613.073 291.626 612.58C291.306 612.087 291.146 611.527 291.146 610.9C291.146 609.9 291.52 609.113 292.266 608.54C293.026 607.967 294.193 607.68 295.766 607.68H298.246C298.246 607 298.04 606.48 297.626 606.12C297.213 605.747 296.593 605.56 295.766 605.56C295.193 605.56 294.626 605.653 294.066 605.84C293.52 606.013 293.053 606.253 292.666 606.56L291.546 604.38C292.133 603.967 292.833 603.647 293.646 603.42C294.473 603.193 295.32 603.08 296.186 603.08ZM295.946 612.06C296.48 612.06 296.953 611.94 297.366 611.7C297.78 611.447 298.073 611.08 298.246 610.6V609.5H296.106C294.826 609.5 294.186 609.92 294.186 610.76C294.186 611.16 294.34 611.48 294.646 611.72C294.966 611.947 295.4 612.06 295.946 612.06ZM310.55 603.08C311.55 603.08 312.457 603.313 313.27 603.78C314.097 604.233 314.743 604.88 315.21 605.72C315.677 606.547 315.91 607.513 315.91 608.62C315.91 609.727 315.677 610.7 315.21 611.54C314.743 612.367 314.097 613.013 313.27 613.48C312.457 613.933 311.55 614.16 310.55 614.16C309.07 614.16 307.943 613.693 307.17 612.76V614H304.19V599.16H307.31V604.38C308.097 603.513 309.177 603.08 310.55 603.08ZM310.01 611.6C310.81 611.6 311.463 611.333 311.97 610.8C312.49 610.253 312.75 609.527 312.75 608.62C312.75 607.713 312.49 606.993 311.97 606.46C311.463 605.913 310.81 605.64 310.01 605.64C309.21 605.64 308.55 605.913 308.03 606.46C307.523 606.993 307.27 607.713 307.27 608.62C307.27 609.527 307.523 610.253 308.03 610.8C308.55 611.333 309.21 611.6 310.01 611.6ZM317.999 599.16H321.119V614H317.999V599.16ZM334.554 608.66C334.554 608.7 334.534 608.98 334.494 609.5H326.354C326.501 610.167 326.848 610.693 327.394 611.08C327.941 611.467 328.621 611.66 329.434 611.66C329.994 611.66 330.488 611.58 330.914 611.42C331.354 611.247 331.761 610.98 332.134 610.62L333.794 612.42C332.781 613.58 331.301 614.16 329.354 614.16C328.141 614.16 327.068 613.927 326.134 613.46C325.201 612.98 324.481 612.32 323.974 611.48C323.468 610.64 323.214 609.687 323.214 608.62C323.214 607.567 323.461 606.62 323.954 605.78C324.461 604.927 325.148 604.267 326.014 603.8C326.894 603.32 327.874 603.08 328.954 603.08C330.008 603.08 330.961 603.307 331.814 603.76C332.668 604.213 333.334 604.867 333.814 605.72C334.308 606.56 334.554 607.54 334.554 608.66ZM328.974 605.44C328.268 605.44 327.674 605.64 327.194 606.04C326.714 606.44 326.421 606.987 326.314 607.68H331.614C331.508 607 331.214 606.46 330.734 606.06C330.254 605.647 329.668 605.44 328.974 605.44ZM341.041 603.12L343.221 604.3L342.241 605.94L340.041 604.64L340.081 607.06H338.201L338.221 604.62L336.021 605.94L335.061 604.3L337.241 603.12L335.061 601.92L336.021 600.28L338.221 601.6L338.201 599.16H340.081L340.041 601.6L342.241 600.28L343.221 601.92L341.041 603.12Z" fill="white"/>
</g>
</svg>
