<svg width="680" height="708" viewBox="0 0 680 708" fill="none" xmlns="http://www.w3.org/2000/svg">
<rect x="1.5" y="1.5" width="677" height="705" rx="30.5" fill="white" stroke="#FF004F" stroke-width="3"/>
<path d="M68.6668 303C68.6668 310.347 74.6401 316.333 82.0001 316.333C89.3468 316.333 95.3335 310.347 95.3335 303C95.3335 295.64 89.3468 289.667 82.0001 289.667C74.6401 289.667 68.6668 295.64 68.6668 303V303Z" fill="#130F26"/>
<rect x="77.0349" y="301.743" width="6.91934" height="2.30645" rx="1.15322" transform="rotate(45 77.0349 301.743)" fill="white"/>
<rect x="89.2668" y="299.297" width="12.6855" height="2.30645" rx="1.15322" transform="rotate(135 89.2668 299.297)" fill="white"/>
<path d="M113.66 296.5H116.9V310.5H113.66V296.5ZM126.543 299.58C127.876 299.58 128.949 299.98 129.763 300.78C130.589 301.58 131.003 302.767 131.003 304.34V310.5H127.883V304.82C127.883 303.967 127.696 303.333 127.323 302.92C126.949 302.493 126.409 302.28 125.703 302.28C124.916 302.28 124.289 302.527 123.823 303.02C123.356 303.5 123.123 304.22 123.123 305.18V310.5H120.003V299.74H122.983V301C123.396 300.547 123.909 300.2 124.523 299.96C125.136 299.707 125.809 299.58 126.543 299.58ZM137.451 310.66C136.557 310.66 135.684 310.553 134.831 310.34C133.977 310.113 133.297 309.833 132.791 309.5L133.831 307.26C134.311 307.567 134.891 307.82 135.571 308.02C136.251 308.207 136.917 308.3 137.571 308.3C138.891 308.3 139.551 307.973 139.551 307.32C139.551 307.013 139.371 306.793 139.011 306.66C138.651 306.527 138.097 306.413 137.351 306.32C136.471 306.187 135.744 306.033 135.171 305.86C134.597 305.687 134.097 305.38 133.671 304.94C133.257 304.5 133.051 303.873 133.051 303.06C133.051 302.38 133.244 301.78 133.631 301.26C134.031 300.727 134.604 300.313 135.351 300.02C136.111 299.727 137.004 299.58 138.031 299.58C138.791 299.58 139.544 299.667 140.291 299.84C141.051 300 141.677 300.227 142.171 300.52L141.131 302.74C140.184 302.207 139.151 301.94 138.031 301.94C137.364 301.94 136.864 302.033 136.531 302.22C136.197 302.407 136.031 302.647 136.031 302.94C136.031 303.273 136.211 303.507 136.571 303.64C136.931 303.773 137.504 303.9 138.291 304.02C139.171 304.167 139.891 304.327 140.451 304.5C141.011 304.66 141.497 304.96 141.911 305.4C142.324 305.84 142.531 306.453 142.531 307.24C142.531 307.907 142.331 308.5 141.931 309.02C141.531 309.54 140.944 309.947 140.171 310.24C139.411 310.52 138.504 310.66 137.451 310.66ZM151.396 309.98C151.089 310.207 150.709 310.38 150.256 310.5C149.816 310.607 149.349 310.66 148.856 310.66C147.576 310.66 146.582 310.333 145.876 309.68C145.182 309.027 144.836 308.067 144.836 306.8V302.38H143.176V299.98H144.836V297.36H147.956V299.98H150.636V302.38H147.956V306.76C147.956 307.213 148.069 307.567 148.296 307.82C148.536 308.06 148.869 308.18 149.296 308.18C149.789 308.18 150.209 308.047 150.556 307.78L151.396 309.98ZM157.487 299.58C159.154 299.58 160.434 299.98 161.327 300.78C162.22 301.567 162.667 302.76 162.667 304.36V310.5H159.747V309.16C159.16 310.16 158.067 310.66 156.467 310.66C155.64 310.66 154.92 310.52 154.307 310.24C153.707 309.96 153.247 309.573 152.927 309.08C152.607 308.587 152.447 308.027 152.447 307.4C152.447 306.4 152.82 305.613 153.567 305.04C154.327 304.467 155.494 304.18 157.067 304.18H159.547C159.547 303.5 159.34 302.98 158.927 302.62C158.514 302.247 157.894 302.06 157.067 302.06C156.494 302.06 155.927 302.153 155.367 302.34C154.82 302.513 154.354 302.753 153.967 303.06L152.847 300.88C153.434 300.467 154.134 300.147 154.947 299.92C155.774 299.693 156.62 299.58 157.487 299.58ZM157.247 308.56C157.78 308.56 158.254 308.44 158.667 308.2C159.08 307.947 159.374 307.58 159.547 307.1V306H157.407C156.127 306 155.487 306.42 155.487 307.26C155.487 307.66 155.64 307.98 155.947 308.22C156.267 308.447 156.7 308.56 157.247 308.56ZM176.708 299.74V308.7C176.708 310.673 176.195 312.14 175.168 313.1C174.141 314.06 172.641 314.54 170.668 314.54C169.628 314.54 168.641 314.413 167.708 314.16C166.775 313.907 166.001 313.54 165.388 313.06L166.628 310.82C167.081 311.193 167.655 311.487 168.348 311.7C169.041 311.927 169.735 312.04 170.428 312.04C171.508 312.04 172.301 311.793 172.808 311.3C173.328 310.82 173.588 310.087 173.588 309.1V308.64C172.775 309.533 171.641 309.98 170.188 309.98C169.201 309.98 168.295 309.767 167.468 309.34C166.655 308.9 166.008 308.287 165.528 307.5C165.048 306.713 164.808 305.807 164.808 304.78C164.808 303.753 165.048 302.847 165.528 302.06C166.008 301.273 166.655 300.667 167.468 300.24C168.295 299.8 169.201 299.58 170.188 299.58C171.748 299.58 172.935 300.093 173.748 301.12V299.74H176.708ZM170.808 307.42C171.635 307.42 172.308 307.18 172.828 306.7C173.361 306.207 173.628 305.567 173.628 304.78C173.628 303.993 173.361 303.36 172.828 302.88C172.308 302.387 171.635 302.14 170.808 302.14C169.981 302.14 169.301 302.387 168.768 302.88C168.235 303.36 167.968 303.993 167.968 304.78C167.968 305.567 168.235 306.207 168.768 306.7C169.301 307.18 169.981 307.42 170.808 307.42ZM182.592 301.16C182.965 300.64 183.465 300.247 184.092 299.98C184.732 299.713 185.465 299.58 186.292 299.58V302.46C185.945 302.433 185.712 302.42 185.592 302.42C184.699 302.42 183.999 302.673 183.492 303.18C182.985 303.673 182.732 304.42 182.732 305.42V310.5H179.612V299.74H182.592V301.16ZM192.428 299.58C194.095 299.58 195.375 299.98 196.268 300.78C197.162 301.567 197.608 302.76 197.608 304.36V310.5H194.688V309.16C194.102 310.16 193.008 310.66 191.408 310.66C190.582 310.66 189.862 310.52 189.248 310.24C188.648 309.96 188.188 309.573 187.868 309.08C187.548 308.587 187.388 308.027 187.388 307.4C187.388 306.4 187.762 305.613 188.508 305.04C189.268 304.467 190.435 304.18 192.008 304.18H194.488C194.488 303.5 194.282 302.98 193.868 302.62C193.455 302.247 192.835 302.06 192.008 302.06C191.435 302.06 190.868 302.153 190.308 302.34C189.762 302.513 189.295 302.753 188.908 303.06L187.788 300.88C188.375 300.467 189.075 300.147 189.888 299.92C190.715 299.693 191.562 299.58 192.428 299.58ZM192.188 308.56C192.722 308.56 193.195 308.44 193.608 308.2C194.022 307.947 194.315 307.58 194.488 307.1V306H192.348C191.068 306 190.428 306.42 190.428 307.26C190.428 307.66 190.582 307.98 190.888 308.22C191.208 308.447 191.642 308.56 192.188 308.56ZM214.212 299.58C215.559 299.58 216.626 299.98 217.412 300.78C218.212 301.567 218.612 302.753 218.612 304.34V310.5H215.492V304.82C215.492 303.967 215.312 303.333 214.952 302.92C214.606 302.493 214.106 302.28 213.452 302.28C212.719 302.28 212.139 302.52 211.712 303C211.286 303.467 211.072 304.167 211.072 305.1V310.5H207.952V304.82C207.952 303.127 207.272 302.28 205.912 302.28C205.192 302.28 204.619 302.52 204.192 303C203.766 303.467 203.552 304.167 203.552 305.1V310.5H200.432V299.74H203.412V300.98C203.812 300.527 204.299 300.18 204.872 299.94C205.459 299.7 206.099 299.58 206.792 299.58C207.552 299.58 208.239 299.733 208.852 300.04C209.466 300.333 209.959 300.767 210.332 301.34C210.772 300.78 211.326 300.347 211.992 300.04C212.672 299.733 213.412 299.58 214.212 299.58ZM240.713 310.5L240.693 300.3L235.633 308.8H234.713L229.653 300.36V310.5H227.733V296.5H229.373L235.213 306.34L240.973 296.5H242.613L242.633 310.5H240.713ZM250.414 299.8C251.881 299.8 253.001 300.16 253.774 300.88C254.561 301.6 254.954 302.673 254.954 304.1V310.5H253.134V309.1C252.814 309.593 252.354 309.973 251.754 310.24C251.168 310.493 250.468 310.62 249.654 310.62C248.468 310.62 247.514 310.333 246.794 309.76C246.088 309.187 245.734 308.433 245.734 307.5C245.734 306.567 246.074 305.82 246.754 305.26C247.434 304.687 248.514 304.4 249.994 304.4H253.034V304.02C253.034 303.193 252.794 302.56 252.314 302.12C251.834 301.68 251.128 301.46 250.194 301.46C249.568 301.46 248.954 301.567 248.354 301.78C247.754 301.98 247.248 302.253 246.834 302.6L246.034 301.16C246.581 300.72 247.234 300.387 247.994 300.16C248.754 299.92 249.561 299.8 250.414 299.8ZM249.974 309.14C250.708 309.14 251.341 308.98 251.874 308.66C252.408 308.327 252.794 307.86 253.034 307.26V305.78H250.074C248.448 305.78 247.634 306.327 247.634 307.42C247.634 307.953 247.841 308.373 248.254 308.68C248.668 308.987 249.241 309.14 249.974 309.14ZM264.168 299.8C265.514 299.8 266.581 300.193 267.368 300.98C268.168 301.753 268.568 302.893 268.568 304.4V310.5H266.648V304.62C266.648 303.593 266.401 302.82 265.908 302.3C265.414 301.78 264.708 301.52 263.788 301.52C262.748 301.52 261.928 301.827 261.328 302.44C260.728 303.04 260.428 303.907 260.428 305.04V310.5H258.508V299.9H260.348V301.5C260.734 300.953 261.254 300.533 261.908 300.24C262.574 299.947 263.328 299.8 264.168 299.8ZM275.981 299.8C277.447 299.8 278.567 300.16 279.341 300.88C280.127 301.6 280.521 302.673 280.521 304.1V310.5H278.701V309.1C278.381 309.593 277.921 309.973 277.321 310.24C276.734 310.493 276.034 310.62 275.221 310.62C274.034 310.62 273.081 310.333 272.361 309.76C271.654 309.187 271.301 308.433 271.301 307.5C271.301 306.567 271.641 305.82 272.321 305.26C273.001 304.687 274.081 304.4 275.561 304.4H278.601V304.02C278.601 303.193 278.361 302.56 277.881 302.12C277.401 301.68 276.694 301.46 275.761 301.46C275.134 301.46 274.521 301.567 273.921 301.78C273.321 301.98 272.814 302.253 272.401 302.6L271.601 301.16C272.147 300.72 272.801 300.387 273.561 300.16C274.321 299.92 275.127 299.8 275.981 299.8ZM275.541 309.14C276.274 309.14 276.907 308.98 277.441 308.66C277.974 308.327 278.361 307.86 278.601 307.26V305.78H275.641C274.014 305.78 273.201 306.327 273.201 307.42C273.201 307.953 273.407 308.373 273.821 308.68C274.234 308.987 274.807 309.14 275.541 309.14ZM294.273 299.9V309.06C294.273 310.913 293.813 312.28 292.893 313.16C291.973 314.053 290.599 314.5 288.773 314.5C287.773 314.5 286.819 314.36 285.913 314.08C285.006 313.813 284.273 313.427 283.713 312.92L284.633 311.44C285.126 311.867 285.733 312.2 286.453 312.44C287.186 312.693 287.939 312.82 288.713 312.82C289.953 312.82 290.866 312.527 291.453 311.94C292.053 311.353 292.353 310.46 292.353 309.26V308.42C291.899 308.967 291.339 309.38 290.673 309.66C290.019 309.927 289.306 310.06 288.533 310.06C287.519 310.06 286.599 309.847 285.773 309.42C284.959 308.98 284.319 308.373 283.853 307.6C283.386 306.813 283.153 305.92 283.153 304.92C283.153 303.92 283.386 303.033 283.853 302.26C284.319 301.473 284.959 300.867 285.773 300.44C286.599 300.013 287.519 299.8 288.533 299.8C289.333 299.8 290.073 299.947 290.753 300.24C291.446 300.533 292.013 300.967 292.453 301.54V299.9H294.273ZM288.753 308.38C289.446 308.38 290.066 308.233 290.613 307.94C291.173 307.647 291.606 307.24 291.913 306.72C292.233 306.187 292.393 305.587 292.393 304.92C292.393 303.893 292.053 303.067 291.373 302.44C290.693 301.8 289.819 301.48 288.753 301.48C287.673 301.48 286.793 301.8 286.113 302.44C285.433 303.067 285.093 303.893 285.093 304.92C285.093 305.587 285.246 306.187 285.553 306.72C285.873 307.24 286.306 307.647 286.853 307.94C287.413 308.233 288.046 308.38 288.753 308.38ZM307.521 305.26C307.521 305.407 307.508 305.6 307.481 305.84H298.881C299.001 306.773 299.408 307.527 300.101 308.1C300.808 308.66 301.681 308.94 302.721 308.94C303.988 308.94 305.008 308.513 305.781 307.66L306.841 308.9C306.361 309.46 305.761 309.887 305.041 310.18C304.334 310.473 303.541 310.62 302.661 310.62C301.541 310.62 300.548 310.393 299.681 309.94C298.814 309.473 298.141 308.827 297.661 308C297.194 307.173 296.961 306.24 296.961 305.2C296.961 304.173 297.188 303.247 297.641 302.42C298.108 301.593 298.741 300.953 299.541 300.5C300.354 300.033 301.268 299.8 302.281 299.8C303.294 299.8 304.194 300.033 304.981 300.5C305.781 300.953 306.401 301.593 306.841 302.42C307.294 303.247 307.521 304.193 307.521 305.26ZM302.281 301.42C301.361 301.42 300.588 301.7 299.961 302.26C299.348 302.82 298.988 303.553 298.881 304.46H305.681C305.574 303.567 305.208 302.84 304.581 302.28C303.968 301.707 303.201 301.42 302.281 301.42ZM323.447 299.8C324.781 299.8 325.834 300.187 326.607 300.96C327.394 301.733 327.787 302.88 327.787 304.4V310.5H325.867V304.62C325.867 303.593 325.627 302.82 325.147 302.3C324.681 301.78 324.007 301.52 323.127 301.52C322.154 301.52 321.381 301.827 320.807 302.44C320.234 303.04 319.947 303.907 319.947 305.04V310.5H318.027V304.62C318.027 303.593 317.787 302.82 317.307 302.3C316.841 301.78 316.167 301.52 315.287 301.52C314.314 301.52 313.541 301.827 312.967 302.44C312.394 303.04 312.107 303.907 312.107 305.04V310.5H310.187V299.9H312.027V301.48C312.414 300.933 312.921 300.52 313.547 300.24C314.174 299.947 314.887 299.8 315.687 299.8C316.514 299.8 317.247 299.967 317.887 300.3C318.527 300.633 319.021 301.12 319.367 301.76C319.767 301.147 320.321 300.667 321.027 300.32C321.747 299.973 322.554 299.8 323.447 299.8ZM340.959 305.26C340.959 305.407 340.945 305.6 340.919 305.84H332.319C332.439 306.773 332.845 307.527 333.539 308.1C334.245 308.66 335.119 308.94 336.159 308.94C337.425 308.94 338.445 308.513 339.219 307.66L340.279 308.9C339.799 309.46 339.199 309.887 338.479 310.18C337.772 310.473 336.979 310.62 336.099 310.62C334.979 310.62 333.985 310.393 333.119 309.94C332.252 309.473 331.579 308.827 331.099 308C330.632 307.173 330.399 306.24 330.399 305.2C330.399 304.173 330.625 303.247 331.079 302.42C331.545 301.593 332.179 300.953 332.979 300.5C333.792 300.033 334.705 299.8 335.719 299.8C336.732 299.8 337.632 300.033 338.419 300.5C339.219 300.953 339.839 301.593 340.279 302.42C340.732 303.247 340.959 304.193 340.959 305.26ZM335.719 301.42C334.799 301.42 334.025 301.7 333.399 302.26C332.785 302.82 332.425 303.553 332.319 304.46H339.119C339.012 303.567 338.645 302.84 338.019 302.28C337.405 301.707 336.639 301.42 335.719 301.42ZM349.285 299.8C350.631 299.8 351.698 300.193 352.485 300.98C353.285 301.753 353.685 302.893 353.685 304.4V310.5H351.765V304.62C351.765 303.593 351.518 302.82 351.025 302.3C350.531 301.78 349.825 301.52 348.905 301.52C347.865 301.52 347.045 301.827 346.445 302.44C345.845 303.04 345.545 303.907 345.545 305.04V310.5H343.625V299.9H345.465V301.5C345.851 300.953 346.371 300.533 347.025 300.24C347.691 299.947 348.445 299.8 349.285 299.8ZM363.198 309.88C362.918 310.12 362.571 310.307 362.158 310.44C361.745 310.56 361.318 310.62 360.878 310.62C359.811 310.62 358.985 310.333 358.398 309.76C357.811 309.187 357.518 308.367 357.518 307.3V301.48H355.718V299.9H357.518V297.58H359.438V299.9H362.478V301.48H359.438V307.22C359.438 307.793 359.578 308.233 359.858 308.54C360.151 308.847 360.565 309 361.098 309C361.685 309 362.185 308.833 362.598 308.5L363.198 309.88Z" fill="#1A1A1A"/>
<path d="M68.6668 355C68.6668 362.347 74.6401 368.333 82.0001 368.333C89.3468 368.333 95.3335 362.347 95.3335 355C95.3335 347.64 89.3468 341.667 82.0001 341.667C74.6401 341.667 68.6668 347.64 68.6668 355V355Z" fill="#130F26"/>
<rect x="77.0349" y="353.743" width="6.91934" height="2.30645" rx="1.15322" transform="rotate(45 77.0349 353.743)" fill="white"/>
<rect x="89.2668" y="351.297" width="12.6855" height="2.30645" rx="1.15322" transform="rotate(135 89.2668 351.297)" fill="white"/>
<path d="M116.56 351.14H112.08V348.5H124.28V351.14H119.8V362.5H116.56V351.14ZM142.439 351.74L138.539 362.5H135.539L133.119 355.82L130.619 362.5H127.619L123.739 351.74H126.679L129.219 359.02L131.859 351.74H134.499L137.059 359.02L139.679 351.74H142.439ZM143.889 351.74H147.009V362.5H143.889V351.74ZM145.449 350.24C144.876 350.24 144.409 350.073 144.049 349.74C143.689 349.407 143.509 348.993 143.509 348.5C143.509 348.007 143.689 347.593 144.049 347.26C144.409 346.927 144.876 346.76 145.449 346.76C146.023 346.76 146.489 346.92 146.849 347.24C147.209 347.56 147.389 347.96 147.389 348.44C147.389 348.96 147.209 349.393 146.849 349.74C146.489 350.073 146.023 350.24 145.449 350.24ZM156.845 361.98C156.538 362.207 156.158 362.38 155.705 362.5C155.265 362.607 154.798 362.66 154.305 362.66C153.025 362.66 152.032 362.333 151.325 361.68C150.632 361.027 150.285 360.067 150.285 358.8V354.38H148.625V351.98H150.285V349.36H153.405V351.98H156.085V354.38H153.405V358.76C153.405 359.213 153.518 359.567 153.745 359.82C153.985 360.06 154.318 360.18 154.745 360.18C155.238 360.18 155.658 360.047 156.005 359.78L156.845 361.98ZM165.302 361.98C164.995 362.207 164.615 362.38 164.162 362.5C163.722 362.607 163.255 362.66 162.762 362.66C161.482 362.66 160.489 362.333 159.782 361.68C159.089 361.027 158.742 360.067 158.742 358.8V354.38H157.082V351.98H158.742V349.36H161.862V351.98H164.542V354.38H161.862V358.76C161.862 359.213 161.975 359.567 162.202 359.82C162.442 360.06 162.775 360.18 163.202 360.18C163.695 360.18 164.115 360.047 164.462 359.78L165.302 361.98ZM177.261 357.16C177.261 357.2 177.241 357.48 177.201 358H169.061C169.208 358.667 169.555 359.193 170.101 359.58C170.648 359.967 171.328 360.16 172.141 360.16C172.701 360.16 173.195 360.08 173.621 359.92C174.061 359.747 174.468 359.48 174.841 359.12L176.501 360.92C175.488 362.08 174.008 362.66 172.061 362.66C170.848 362.66 169.775 362.427 168.841 361.96C167.908 361.48 167.188 360.82 166.681 359.98C166.175 359.14 165.921 358.187 165.921 357.12C165.921 356.067 166.168 355.12 166.661 354.28C167.168 353.427 167.855 352.767 168.721 352.3C169.601 351.82 170.581 351.58 171.661 351.58C172.715 351.58 173.668 351.807 174.521 352.26C175.375 352.713 176.041 353.367 176.521 354.22C177.015 355.06 177.261 356.04 177.261 357.16ZM171.681 353.94C170.975 353.94 170.381 354.14 169.901 354.54C169.421 354.94 169.128 355.487 169.021 356.18H174.321C174.215 355.5 173.921 354.96 173.441 354.56C172.961 354.147 172.375 353.94 171.681 353.94ZM182.318 353.16C182.692 352.64 183.192 352.247 183.818 351.98C184.458 351.713 185.192 351.58 186.018 351.58V354.46C185.672 354.433 185.438 354.42 185.318 354.42C184.425 354.42 183.725 354.673 183.218 355.18C182.712 355.673 182.458 356.42 182.458 357.42V362.5H179.338V351.74H182.318V353.16ZM202.903 359H195.463L193.923 362.5H191.863L198.203 348.5H200.183L206.543 362.5H204.443L202.903 359ZM202.203 357.4L199.183 350.54L196.163 357.4H202.203ZM218.036 351.9V362.5H216.216V360.9C215.829 361.447 215.316 361.873 214.676 362.18C214.049 362.473 213.363 362.62 212.616 362.62C211.203 362.62 210.089 362.233 209.276 361.46C208.463 360.673 208.056 359.52 208.056 358V351.9H209.976V357.78C209.976 358.807 210.223 359.587 210.716 360.12C211.209 360.64 211.916 360.9 212.836 360.9C213.849 360.9 214.649 360.593 215.236 359.98C215.823 359.367 216.116 358.5 216.116 357.38V351.9H218.036ZM227.651 361.88C227.371 362.12 227.024 362.307 226.611 362.44C226.198 362.56 225.771 362.62 225.331 362.62C224.264 362.62 223.438 362.333 222.851 361.76C222.264 361.187 221.971 360.367 221.971 359.3V353.48H220.171V351.9H221.971V349.58H223.891V351.9H226.931V353.48H223.891V359.22C223.891 359.793 224.031 360.233 224.311 360.54C224.604 360.847 225.018 361 225.551 361C226.138 361 226.638 360.833 227.051 360.5L227.651 361.88ZM234.161 362.62C233.107 362.62 232.161 362.387 231.321 361.92C230.481 361.453 229.821 360.813 229.341 360C228.874 359.173 228.641 358.24 228.641 357.2C228.641 356.16 228.874 355.233 229.341 354.42C229.821 353.593 230.481 352.953 231.321 352.5C232.161 352.033 233.107 351.8 234.161 351.8C235.214 351.8 236.154 352.033 236.981 352.5C237.821 352.953 238.474 353.593 238.941 354.42C239.421 355.233 239.661 356.16 239.661 357.2C239.661 358.24 239.421 359.173 238.941 360C238.474 360.813 237.821 361.453 236.981 361.92C236.154 362.387 235.214 362.62 234.161 362.62ZM234.161 360.94C234.841 360.94 235.447 360.787 235.981 360.48C236.527 360.16 236.954 359.72 237.261 359.16C237.567 358.587 237.721 357.933 237.721 357.2C237.721 356.467 237.567 355.82 237.261 355.26C236.954 354.687 236.527 354.247 235.981 353.94C235.447 353.633 234.841 353.48 234.161 353.48C233.481 353.48 232.867 353.633 232.321 353.94C231.787 354.247 231.361 354.687 231.041 355.26C230.734 355.82 230.581 356.467 230.581 357.2C230.581 357.933 230.734 358.587 231.041 359.16C231.361 359.72 231.787 360.16 232.321 360.48C232.867 360.787 233.481 360.94 234.161 360.94ZM255.576 351.8C256.909 351.8 257.963 352.187 258.736 352.96C259.523 353.733 259.916 354.88 259.916 356.4V362.5H257.996V356.62C257.996 355.593 257.756 354.82 257.276 354.3C256.809 353.78 256.136 353.52 255.256 353.52C254.283 353.52 253.509 353.827 252.936 354.44C252.363 355.04 252.076 355.907 252.076 357.04V362.5H250.156V356.62C250.156 355.593 249.916 354.82 249.436 354.3C248.969 353.78 248.296 353.52 247.416 353.52C246.443 353.52 245.669 353.827 245.096 354.44C244.523 355.04 244.236 355.907 244.236 357.04V362.5H242.316V351.9H244.156V353.48C244.543 352.933 245.049 352.52 245.676 352.24C246.303 351.947 247.016 351.8 247.816 351.8C248.643 351.8 249.376 351.967 250.016 352.3C250.656 352.633 251.149 353.12 251.496 353.76C251.896 353.147 252.449 352.667 253.156 352.32C253.876 351.973 254.683 351.8 255.576 351.8ZM267.309 351.8C268.776 351.8 269.896 352.16 270.669 352.88C271.456 353.6 271.849 354.673 271.849 356.1V362.5H270.029V361.1C269.709 361.593 269.249 361.973 268.649 362.24C268.062 362.493 267.362 362.62 266.549 362.62C265.362 362.62 264.409 362.333 263.689 361.76C262.982 361.187 262.629 360.433 262.629 359.5C262.629 358.567 262.969 357.82 263.649 357.26C264.329 356.687 265.409 356.4 266.889 356.4H269.929V356.02C269.929 355.193 269.689 354.56 269.209 354.12C268.729 353.68 268.022 353.46 267.089 353.46C266.462 353.46 265.849 353.567 265.249 353.78C264.649 353.98 264.142 354.253 263.729 354.6L262.929 353.16C263.476 352.72 264.129 352.387 264.889 352.16C265.649 351.92 266.456 351.8 267.309 351.8ZM266.869 361.14C267.602 361.14 268.236 360.98 268.769 360.66C269.302 360.327 269.689 359.86 269.929 359.26V357.78H266.969C265.342 357.78 264.529 358.327 264.529 359.42C264.529 359.953 264.736 360.373 265.149 360.68C265.562 360.987 266.136 361.14 266.869 361.14ZM281.362 361.88C281.082 362.12 280.735 362.307 280.322 362.44C279.909 362.56 279.482 362.62 279.042 362.62C277.975 362.62 277.149 362.333 276.562 361.76C275.975 361.187 275.682 360.367 275.682 359.3V353.48H273.882V351.9H275.682V349.58H277.602V351.9H280.642V353.48H277.602V359.22C277.602 359.793 277.742 360.233 278.022 360.54C278.315 360.847 278.729 361 279.262 361C279.849 361 280.349 360.833 280.762 360.5L281.362 361.88ZM283.683 351.9H285.603V362.5H283.683V351.9ZM284.643 349.86C284.27 349.86 283.957 349.74 283.703 349.5C283.463 349.26 283.343 348.967 283.343 348.62C283.343 348.273 283.463 347.98 283.703 347.74C283.957 347.487 284.27 347.36 284.643 347.36C285.017 347.36 285.323 347.48 285.563 347.72C285.817 347.947 285.943 348.233 285.943 348.58C285.943 348.94 285.817 349.247 285.563 349.5C285.323 349.74 285.017 349.86 284.643 349.86ZM293.809 362.62C292.756 362.62 291.809 362.387 290.969 361.92C290.129 361.453 289.469 360.813 288.989 360C288.523 359.173 288.289 358.24 288.289 357.2C288.289 356.16 288.523 355.233 288.989 354.42C289.469 353.593 290.129 352.953 290.969 352.5C291.809 352.033 292.756 351.8 293.809 351.8C294.863 351.8 295.803 352.033 296.629 352.5C297.469 352.953 298.123 353.593 298.589 354.42C299.069 355.233 299.309 356.16 299.309 357.2C299.309 358.24 299.069 359.173 298.589 360C298.123 360.813 297.469 361.453 296.629 361.92C295.803 362.387 294.863 362.62 293.809 362.62ZM293.809 360.94C294.489 360.94 295.096 360.787 295.629 360.48C296.176 360.16 296.603 359.72 296.909 359.16C297.216 358.587 297.369 357.933 297.369 357.2C297.369 356.467 297.216 355.82 296.909 355.26C296.603 354.687 296.176 354.247 295.629 353.94C295.096 353.633 294.489 353.48 293.809 353.48C293.129 353.48 292.516 353.633 291.969 353.94C291.436 354.247 291.009 354.687 290.689 355.26C290.383 355.82 290.229 356.467 290.229 357.2C290.229 357.933 290.383 358.587 290.689 359.16C291.009 359.72 291.436 360.16 291.969 360.48C292.516 360.787 293.129 360.94 293.809 360.94ZM307.625 351.8C308.971 351.8 310.038 352.193 310.825 352.98C311.625 353.753 312.025 354.893 312.025 356.4V362.5H310.105V356.62C310.105 355.593 309.858 354.82 309.365 354.3C308.871 353.78 308.165 353.52 307.245 353.52C306.205 353.52 305.385 353.827 304.785 354.44C304.185 355.04 303.885 355.907 303.885 357.04V362.5H301.965V351.9H303.805V353.5C304.191 352.953 304.711 352.533 305.365 352.24C306.031 351.947 306.785 351.8 307.625 351.8Z" fill="#1A1A1A"/>
<path d="M68.6668 459C68.6668 466.347 74.6401 472.333 82.0001 472.333C89.3468 472.333 95.3335 466.347 95.3335 459C95.3335 451.64 89.3468 445.667 82.0001 445.667C74.6401 445.667 68.6668 451.64 68.6668 459V459Z" fill="#130F26"/>
<rect x="77.0349" y="457.743" width="6.91934" height="2.30645" rx="1.15322" transform="rotate(45 77.0349 457.743)" fill="white"/>
<rect x="89.2668" y="455.297" width="12.6855" height="2.30645" rx="1.15322" transform="rotate(135 89.2668 455.297)" fill="white"/>
<path d="M118.18 466.66C117.127 466.66 116.107 466.5 115.12 466.18C114.147 465.847 113.38 465.42 112.82 464.9L113.56 463.34C114.093 463.82 114.773 464.213 115.6 464.52C116.44 464.813 117.3 464.96 118.18 464.96C119.34 464.96 120.207 464.767 120.78 464.38C121.353 463.98 121.64 463.453 121.64 462.8C121.64 462.32 121.48 461.933 121.16 461.64C120.853 461.333 120.467 461.1 120 460.94C119.547 460.78 118.9 460.6 118.06 460.4C117.007 460.147 116.153 459.893 115.5 459.64C114.86 459.387 114.307 459 113.84 458.48C113.387 457.947 113.16 457.233 113.16 456.34C113.16 455.593 113.353 454.92 113.74 454.32C114.14 453.72 114.74 453.24 115.54 452.88C116.34 452.52 117.333 452.34 118.52 452.34C119.347 452.34 120.16 452.447 120.96 452.66C121.76 452.873 122.447 453.18 123.02 453.58L122.36 455.18C121.773 454.807 121.147 454.527 120.48 454.34C119.813 454.14 119.16 454.04 118.52 454.04C117.387 454.04 116.533 454.247 115.96 454.66C115.4 455.073 115.12 455.607 115.12 456.26C115.12 456.74 115.28 457.133 115.6 457.44C115.92 457.733 116.313 457.967 116.78 458.14C117.26 458.3 117.907 458.473 118.72 458.66C119.773 458.913 120.62 459.167 121.26 459.42C121.9 459.673 122.447 460.06 122.9 460.58C123.367 461.1 123.6 461.8 123.6 462.68C123.6 463.413 123.4 464.087 123 464.7C122.6 465.3 121.993 465.78 121.18 466.14C120.367 466.487 119.367 466.66 118.18 466.66ZM130.782 466.62C129.729 466.62 128.782 466.387 127.942 465.92C127.102 465.453 126.442 464.813 125.962 464C125.495 463.173 125.262 462.24 125.262 461.2C125.262 460.16 125.495 459.233 125.962 458.42C126.442 457.593 127.102 456.953 127.942 456.5C128.782 456.033 129.729 455.8 130.782 455.8C131.835 455.8 132.775 456.033 133.602 456.5C134.442 456.953 135.095 457.593 135.562 458.42C136.042 459.233 136.282 460.16 136.282 461.2C136.282 462.24 136.042 463.173 135.562 464C135.095 464.813 134.442 465.453 133.602 465.92C132.775 466.387 131.835 466.62 130.782 466.62ZM130.782 464.94C131.462 464.94 132.069 464.787 132.602 464.48C133.149 464.16 133.575 463.72 133.882 463.16C134.189 462.587 134.342 461.933 134.342 461.2C134.342 460.467 134.189 459.82 133.882 459.26C133.575 458.687 133.149 458.247 132.602 457.94C132.069 457.633 131.462 457.48 130.782 457.48C130.102 457.48 129.489 457.633 128.942 457.94C128.409 458.247 127.982 458.687 127.662 459.26C127.355 459.82 127.202 460.467 127.202 461.2C127.202 461.933 127.355 462.587 127.662 463.16C127.982 463.72 128.409 464.16 128.942 464.48C129.489 464.787 130.102 464.94 130.782 464.94ZM143.557 466.62C142.477 466.62 141.511 466.387 140.657 465.92C139.817 465.453 139.157 464.813 138.677 464C138.197 463.173 137.957 462.24 137.957 461.2C137.957 460.16 138.197 459.233 138.677 458.42C139.157 457.593 139.817 456.953 140.657 456.5C141.511 456.033 142.477 455.8 143.557 455.8C144.517 455.8 145.371 455.993 146.117 456.38C146.877 456.767 147.464 457.327 147.877 458.06L146.417 459C146.084 458.493 145.671 458.113 145.177 457.86C144.684 457.607 144.137 457.48 143.537 457.48C142.844 457.48 142.217 457.633 141.657 457.94C141.111 458.247 140.677 458.687 140.357 459.26C140.051 459.82 139.897 460.467 139.897 461.2C139.897 461.947 140.051 462.607 140.357 463.18C140.677 463.74 141.111 464.173 141.657 464.48C142.217 464.787 142.844 464.94 143.537 464.94C144.137 464.94 144.684 464.813 145.177 464.56C145.671 464.307 146.084 463.927 146.417 463.42L147.877 464.34C147.464 465.073 146.877 465.64 146.117 466.04C145.371 466.427 144.517 466.62 143.557 466.62ZM150.363 455.9H152.283V466.5H150.363V455.9ZM151.323 453.86C150.95 453.86 150.636 453.74 150.383 453.5C150.143 453.26 150.023 452.967 150.023 452.62C150.023 452.273 150.143 451.98 150.383 451.74C150.636 451.487 150.95 451.36 151.323 451.36C151.696 451.36 152.003 451.48 152.243 451.72C152.496 451.947 152.623 452.233 152.623 452.58C152.623 452.94 152.496 453.247 152.243 453.5C152.003 453.74 151.696 453.86 151.323 453.86ZM159.809 455.8C161.276 455.8 162.396 456.16 163.169 456.88C163.956 457.6 164.349 458.673 164.349 460.1V466.5H162.529V465.1C162.209 465.593 161.749 465.973 161.149 466.24C160.562 466.493 159.862 466.62 159.049 466.62C157.862 466.62 156.909 466.333 156.189 465.76C155.482 465.187 155.129 464.433 155.129 463.5C155.129 462.567 155.469 461.82 156.149 461.26C156.829 460.687 157.909 460.4 159.389 460.4H162.429V460.02C162.429 459.193 162.189 458.56 161.709 458.12C161.229 457.68 160.522 457.46 159.589 457.46C158.962 457.46 158.349 457.567 157.749 457.78C157.149 457.98 156.642 458.253 156.229 458.6L155.429 457.16C155.976 456.72 156.629 456.387 157.389 456.16C158.149 455.92 158.956 455.8 159.809 455.8ZM159.369 465.14C160.102 465.14 160.736 464.98 161.269 464.66C161.802 464.327 162.189 463.86 162.429 463.26V461.78H159.469C157.842 461.78 157.029 462.327 157.029 463.42C157.029 463.953 157.236 464.373 157.649 464.68C158.062 464.987 158.636 465.14 159.369 465.14ZM167.902 451.66H169.822V466.5H167.902V451.66ZM192.119 466.5L192.099 456.3L187.039 464.8H186.119L181.059 456.36V466.5H179.139V452.5H180.779L186.619 462.34L192.379 452.5H194.019L194.039 466.5H192.119ZM207.541 461.26C207.541 461.407 207.527 461.6 207.501 461.84H198.901C199.021 462.773 199.427 463.527 200.121 464.1C200.827 464.66 201.701 464.94 202.741 464.94C204.007 464.94 205.027 464.513 205.801 463.66L206.861 464.9C206.381 465.46 205.781 465.887 205.061 466.18C204.354 466.473 203.561 466.62 202.681 466.62C201.561 466.62 200.567 466.393 199.701 465.94C198.834 465.473 198.161 464.827 197.681 464C197.214 463.173 196.981 462.24 196.981 461.2C196.981 460.173 197.207 459.247 197.661 458.42C198.127 457.593 198.761 456.953 199.561 456.5C200.374 456.033 201.287 455.8 202.301 455.8C203.314 455.8 204.214 456.033 205.001 456.5C205.801 456.953 206.421 457.593 206.861 458.42C207.314 459.247 207.541 460.193 207.541 461.26ZM202.301 457.42C201.381 457.42 200.607 457.7 199.981 458.26C199.367 458.82 199.007 459.553 198.901 460.46H205.701C205.594 459.567 205.227 458.84 204.601 458.28C203.987 457.707 203.221 457.42 202.301 457.42ZM220.207 451.66V466.5H218.367V464.82C217.94 465.407 217.4 465.853 216.747 466.16C216.093 466.467 215.373 466.62 214.587 466.62C213.56 466.62 212.64 466.393 211.827 465.94C211.013 465.487 210.373 464.853 209.907 464.04C209.453 463.213 209.227 462.267 209.227 461.2C209.227 460.133 209.453 459.193 209.907 458.38C210.373 457.567 211.013 456.933 211.827 456.48C212.64 456.027 213.56 455.8 214.587 455.8C215.347 455.8 216.047 455.947 216.687 456.24C217.327 456.52 217.86 456.94 218.287 457.5V451.66H220.207ZM214.747 464.94C215.413 464.94 216.02 464.787 216.567 464.48C217.113 464.16 217.54 463.72 217.847 463.16C218.153 462.587 218.307 461.933 218.307 461.2C218.307 460.467 218.153 459.82 217.847 459.26C217.54 458.687 217.113 458.247 216.567 457.94C216.02 457.633 215.413 457.48 214.747 457.48C214.067 457.48 213.453 457.633 212.907 457.94C212.373 458.247 211.947 458.687 211.627 459.26C211.32 459.82 211.167 460.467 211.167 461.2C211.167 461.933 211.32 462.587 211.627 463.16C211.947 463.72 212.373 464.16 212.907 464.48C213.453 464.787 214.067 464.94 214.747 464.94ZM223.84 455.9H225.76V466.5H223.84V455.9ZM224.8 453.86C224.426 453.86 224.113 453.74 223.86 453.5C223.62 453.26 223.5 452.967 223.5 452.62C223.5 452.273 223.62 451.98 223.86 451.74C224.113 451.487 224.426 451.36 224.8 451.36C225.173 451.36 225.48 451.48 225.72 451.72C225.973 451.947 226.1 452.233 226.1 452.58C226.1 452.94 225.973 453.247 225.72 453.5C225.48 453.74 225.173 453.86 224.8 453.86ZM233.285 455.8C234.752 455.8 235.872 456.16 236.645 456.88C237.432 457.6 237.825 458.673 237.825 460.1V466.5H236.005V465.1C235.685 465.593 235.225 465.973 234.625 466.24C234.039 466.493 233.339 466.62 232.525 466.62C231.339 466.62 230.385 466.333 229.665 465.76C228.959 465.187 228.605 464.433 228.605 463.5C228.605 462.567 228.945 461.82 229.625 461.26C230.305 460.687 231.385 460.4 232.865 460.4H235.905V460.02C235.905 459.193 235.665 458.56 235.185 458.12C234.705 457.68 233.999 457.46 233.065 457.46C232.439 457.46 231.825 457.567 231.225 457.78C230.625 457.98 230.119 458.253 229.705 458.6L228.905 457.16C229.452 456.72 230.105 456.387 230.865 456.16C231.625 455.92 232.432 455.8 233.285 455.8ZM232.845 465.14C233.579 465.14 234.212 464.98 234.745 464.66C235.279 464.327 235.665 463.86 235.905 463.26V461.78H232.945C231.319 461.78 230.505 462.327 230.505 463.42C230.505 463.953 230.712 464.373 231.125 464.68C231.539 464.987 232.112 465.14 232.845 465.14ZM255.95 463H248.51L246.97 466.5H244.91L251.25 452.5H253.23L259.59 466.5H257.49L255.95 463ZM255.25 461.4L252.23 454.54L249.21 461.4H255.25ZM271.3 451.66V466.5H269.46V464.82C269.034 465.407 268.494 465.853 267.84 466.16C267.187 466.467 266.467 466.62 265.68 466.62C264.654 466.62 263.734 466.393 262.92 465.94C262.107 465.487 261.467 464.853 261 464.04C260.547 463.213 260.32 462.267 260.32 461.2C260.32 460.133 260.547 459.193 261 458.38C261.467 457.567 262.107 456.933 262.92 456.48C263.734 456.027 264.654 455.8 265.68 455.8C266.44 455.8 267.14 455.947 267.78 456.24C268.42 456.52 268.954 456.94 269.38 457.5V451.66H271.3ZM265.84 464.94C266.507 464.94 267.114 464.787 267.66 464.48C268.207 464.16 268.634 463.72 268.94 463.16C269.247 462.587 269.4 461.933 269.4 461.2C269.4 460.467 269.247 459.82 268.94 459.26C268.634 458.687 268.207 458.247 267.66 457.94C267.114 457.633 266.507 457.48 265.84 457.48C265.16 457.48 264.547 457.633 264 457.94C263.467 458.247 263.04 458.687 262.72 459.26C262.414 459.82 262.26 460.467 262.26 461.2C262.26 461.933 262.414 462.587 262.72 463.16C263.04 463.72 263.467 464.16 264 464.48C264.547 464.787 265.16 464.94 265.84 464.94ZM286.844 466.66C285.444 466.66 284.178 466.353 283.044 465.74C281.924 465.113 281.044 464.26 280.404 463.18C279.764 462.087 279.444 460.86 279.444 459.5C279.444 458.14 279.764 456.92 280.404 455.84C281.044 454.747 281.931 453.893 283.064 453.28C284.198 452.653 285.464 452.34 286.864 452.34C287.958 452.34 288.958 452.527 289.864 452.9C290.771 453.26 291.544 453.8 292.184 454.52L290.884 455.78C289.831 454.673 288.518 454.12 286.944 454.12C285.904 454.12 284.964 454.353 284.124 454.82C283.284 455.287 282.624 455.933 282.144 456.76C281.678 457.573 281.444 458.487 281.444 459.5C281.444 460.513 281.678 461.433 282.144 462.26C282.624 463.073 283.284 463.713 284.124 464.18C284.964 464.647 285.904 464.88 286.944 464.88C288.504 464.88 289.818 464.32 290.884 463.2L292.184 464.46C291.544 465.18 290.764 465.727 289.844 466.1C288.938 466.473 287.938 466.66 286.844 466.66ZM298.481 455.8C299.947 455.8 301.067 456.16 301.841 456.88C302.627 457.6 303.021 458.673 303.021 460.1V466.5H301.201V465.1C300.881 465.593 300.421 465.973 299.821 466.24C299.234 466.493 298.534 466.62 297.721 466.62C296.534 466.62 295.581 466.333 294.861 465.76C294.154 465.187 293.801 464.433 293.801 463.5C293.801 462.567 294.141 461.82 294.821 461.26C295.501 460.687 296.581 460.4 298.061 460.4H301.101V460.02C301.101 459.193 300.861 458.56 300.381 458.12C299.901 457.68 299.194 457.46 298.261 457.46C297.634 457.46 297.021 457.567 296.421 457.78C295.821 457.98 295.314 458.253 294.901 458.6L294.101 457.16C294.647 456.72 295.301 456.387 296.061 456.16C296.821 455.92 297.627 455.8 298.481 455.8ZM298.041 465.14C298.774 465.14 299.407 464.98 299.941 464.66C300.474 464.327 300.861 463.86 301.101 463.26V461.78H298.141C296.514 461.78 295.701 462.327 295.701 463.42C295.701 463.953 295.907 464.373 296.321 464.68C296.734 464.987 297.307 465.14 298.041 465.14ZM319.834 455.8C321.167 455.8 322.221 456.187 322.994 456.96C323.781 457.733 324.174 458.88 324.174 460.4V466.5H322.254V460.62C322.254 459.593 322.014 458.82 321.534 458.3C321.067 457.78 320.394 457.52 319.514 457.52C318.541 457.52 317.767 457.827 317.194 458.44C316.621 459.04 316.334 459.907 316.334 461.04V466.5H314.414V460.62C314.414 459.593 314.174 458.82 313.694 458.3C313.227 457.78 312.554 457.52 311.674 457.52C310.701 457.52 309.927 457.827 309.354 458.44C308.781 459.04 308.494 459.907 308.494 461.04V466.5H306.574V455.9H308.414V457.48C308.801 456.933 309.307 456.52 309.934 456.24C310.561 455.947 311.274 455.8 312.074 455.8C312.901 455.8 313.634 455.967 314.274 456.3C314.914 456.633 315.407 457.12 315.754 457.76C316.154 457.147 316.707 456.667 317.414 456.32C318.134 455.973 318.941 455.8 319.834 455.8ZM333.327 455.8C334.353 455.8 335.273 456.027 336.087 456.48C336.9 456.933 337.533 457.567 337.987 458.38C338.453 459.193 338.687 460.133 338.687 461.2C338.687 462.267 338.453 463.213 337.987 464.04C337.533 464.853 336.9 465.487 336.087 465.94C335.273 466.393 334.353 466.62 333.327 466.62C332.567 466.62 331.867 466.473 331.227 466.18C330.6 465.887 330.067 465.46 329.627 464.9V470.38H327.707V455.9H329.547V457.58C329.973 456.993 330.513 456.553 331.167 456.26C331.82 455.953 332.54 455.8 333.327 455.8ZM333.167 464.94C333.847 464.94 334.453 464.787 334.987 464.48C335.533 464.16 335.96 463.72 336.267 463.16C336.587 462.587 336.747 461.933 336.747 461.2C336.747 460.467 336.587 459.82 336.267 459.26C335.96 458.687 335.533 458.247 334.987 457.94C334.453 457.633 333.847 457.48 333.167 457.48C332.5 457.48 331.893 457.64 331.347 457.96C330.813 458.267 330.387 458.7 330.067 459.26C329.76 459.82 329.607 460.467 329.607 461.2C329.607 461.933 329.76 462.587 330.067 463.16C330.373 463.72 330.8 464.16 331.347 464.48C331.893 464.787 332.5 464.94 333.167 464.94ZM345.102 455.8C346.569 455.8 347.689 456.16 348.462 456.88C349.249 457.6 349.642 458.673 349.642 460.1V466.5H347.822V465.1C347.502 465.593 347.042 465.973 346.442 466.24C345.855 466.493 345.155 466.62 344.342 466.62C343.155 466.62 342.202 466.333 341.482 465.76C340.775 465.187 340.422 464.433 340.422 463.5C340.422 462.567 340.762 461.82 341.442 461.26C342.122 460.687 343.202 460.4 344.682 460.4H347.722V460.02C347.722 459.193 347.482 458.56 347.002 458.12C346.522 457.68 345.815 457.46 344.882 457.46C344.255 457.46 343.642 457.567 343.042 457.78C342.442 457.98 341.935 458.253 341.522 458.6L340.722 457.16C341.269 456.72 341.922 456.387 342.682 456.16C343.442 455.92 344.249 455.8 345.102 455.8ZM344.662 465.14C345.395 465.14 346.029 464.98 346.562 464.66C347.095 464.327 347.482 463.86 347.722 463.26V461.78H344.762C343.135 461.78 342.322 462.327 342.322 463.42C342.322 463.953 342.529 464.373 342.942 464.68C343.355 464.987 343.929 465.14 344.662 465.14ZM353.195 455.9H355.115V466.5H353.195V455.9ZM354.155 453.86C353.782 453.86 353.468 453.74 353.215 453.5C352.975 453.26 352.855 452.967 352.855 452.62C352.855 452.273 352.975 451.98 353.215 451.74C353.468 451.487 353.782 451.36 354.155 451.36C354.528 451.36 354.835 451.48 355.075 451.72C355.328 451.947 355.455 452.233 355.455 452.58C355.455 452.94 355.328 453.247 355.075 453.5C354.835 453.74 354.528 453.86 354.155 453.86ZM368.921 455.9V465.06C368.921 466.913 368.461 468.28 367.541 469.16C366.621 470.053 365.248 470.5 363.421 470.5C362.421 470.5 361.468 470.36 360.561 470.08C359.654 469.813 358.921 469.427 358.361 468.92L359.281 467.44C359.774 467.867 360.381 468.2 361.101 468.44C361.834 468.693 362.588 468.82 363.361 468.82C364.601 468.82 365.514 468.527 366.101 467.94C366.701 467.353 367.001 466.46 367.001 465.26V464.42C366.548 464.967 365.988 465.38 365.321 465.66C364.668 465.927 363.954 466.06 363.181 466.06C362.168 466.06 361.248 465.847 360.421 465.42C359.608 464.98 358.968 464.373 358.501 463.6C358.034 462.813 357.801 461.92 357.801 460.92C357.801 459.92 358.034 459.033 358.501 458.26C358.968 457.473 359.608 456.867 360.421 456.44C361.248 456.013 362.168 455.8 363.181 455.8C363.981 455.8 364.721 455.947 365.401 456.24C366.094 456.533 366.661 456.967 367.101 457.54V455.9H368.921ZM363.401 464.38C364.094 464.38 364.714 464.233 365.261 463.94C365.821 463.647 366.254 463.24 366.561 462.72C366.881 462.187 367.041 461.587 367.041 460.92C367.041 459.893 366.701 459.067 366.021 458.44C365.341 457.8 364.468 457.48 363.401 457.48C362.321 457.48 361.441 457.8 360.761 458.44C360.081 459.067 359.741 459.893 359.741 460.92C359.741 461.587 359.894 462.187 360.201 462.72C360.521 463.24 360.954 463.647 361.501 463.94C362.061 464.233 362.694 464.38 363.401 464.38ZM378.25 455.8C379.596 455.8 380.663 456.193 381.45 456.98C382.25 457.753 382.65 458.893 382.65 460.4V466.5H380.73V460.62C380.73 459.593 380.483 458.82 379.99 458.3C379.496 457.78 378.79 457.52 377.87 457.52C376.83 457.52 376.01 457.827 375.41 458.44C374.81 459.04 374.51 459.907 374.51 461.04V466.5H372.59V455.9H374.43V457.5C374.816 456.953 375.336 456.533 375.99 456.24C376.656 455.947 377.41 455.8 378.25 455.8Z" fill="#1A1A1A"/>
<path d="M68.6668 407C68.6668 414.347 74.6401 420.333 82.0001 420.333C89.3468 420.333 95.3335 414.347 95.3335 407C95.3335 399.64 89.3468 393.667 82.0001 393.667C74.6401 393.667 68.6668 399.64 68.6668 407V407Z" fill="#130F26"/>
<rect x="77.0349" y="405.743" width="6.91934" height="2.30645" rx="1.15322" transform="rotate(45 77.0349 405.743)" fill="white"/>
<rect x="89.2668" y="403.297" width="12.6855" height="2.30645" rx="1.15322" transform="rotate(135 89.2668 403.297)" fill="white"/>
<path d="M126.4 414.5L126.38 406.1L122.26 413.02H120.8L116.7 406.28V414.5H113.66V400.5H116.34L121.58 409.2L126.74 400.5H129.4L129.44 414.5H126.4ZM137.662 414.66C136.528 414.66 135.508 414.427 134.602 413.96C133.708 413.48 133.008 412.82 132.502 411.98C131.995 411.14 131.742 410.187 131.742 409.12C131.742 408.053 131.995 407.1 132.502 406.26C133.008 405.42 133.708 404.767 134.602 404.3C135.508 403.82 136.528 403.58 137.662 403.58C138.795 403.58 139.808 403.82 140.702 404.3C141.595 404.767 142.295 405.42 142.802 406.26C143.308 407.1 143.562 408.053 143.562 409.12C143.562 410.187 143.308 411.14 142.802 411.98C142.295 412.82 141.595 413.48 140.702 413.96C139.808 414.427 138.795 414.66 137.662 414.66ZM137.662 412.1C138.462 412.1 139.115 411.833 139.622 411.3C140.142 410.753 140.402 410.027 140.402 409.12C140.402 408.213 140.142 407.493 139.622 406.96C139.115 406.413 138.462 406.14 137.662 406.14C136.862 406.14 136.202 406.413 135.682 406.96C135.162 407.493 134.902 408.213 134.902 409.12C134.902 410.027 135.162 410.753 135.682 411.3C136.202 411.833 136.862 412.1 137.662 412.1ZM152.187 403.58C153.52 403.58 154.594 403.98 155.407 404.78C156.234 405.58 156.647 406.767 156.647 408.34V414.5H153.527V408.82C153.527 407.967 153.34 407.333 152.967 406.92C152.594 406.493 152.054 406.28 151.347 406.28C150.56 406.28 149.934 406.527 149.467 407.02C149 407.5 148.767 408.22 148.767 409.18V414.5H145.647V403.74H148.627V405C149.04 404.547 149.554 404.2 150.167 403.96C150.78 403.707 151.454 403.58 152.187 403.58ZM166.415 413.98C166.108 414.207 165.728 414.38 165.275 414.5C164.835 414.607 164.368 414.66 163.875 414.66C162.595 414.66 161.602 414.333 160.895 413.68C160.202 413.027 159.855 412.067 159.855 410.8V406.38H158.195V403.98H159.855V401.36H162.975V403.98H165.655V406.38H162.975V410.76C162.975 411.213 163.088 411.567 163.315 411.82C163.555 412.06 163.888 412.18 164.315 412.18C164.808 412.18 165.228 412.047 165.575 411.78L166.415 413.98ZM174.707 403.58C176.04 403.58 177.113 403.98 177.927 404.78C178.753 405.58 179.167 406.767 179.167 408.34V414.5H176.047V408.82C176.047 407.967 175.86 407.333 175.487 406.92C175.113 406.493 174.573 406.28 173.867 406.28C173.08 406.28 172.453 406.527 171.987 407.02C171.52 407.5 171.287 408.22 171.287 409.18V414.5H168.167V399.66H171.287V404.86C171.7 404.447 172.2 404.133 172.787 403.92C173.373 403.693 174.013 403.58 174.707 403.58ZM181.995 399.66H185.115V414.5H181.995V399.66ZM198.69 403.74L193.83 415.16C193.337 416.4 192.724 417.273 191.99 417.78C191.27 418.287 190.397 418.54 189.37 418.54C188.81 418.54 188.257 418.453 187.71 418.28C187.164 418.107 186.717 417.867 186.37 417.56L187.51 415.34C187.75 415.553 188.024 415.72 188.33 415.84C188.65 415.96 188.964 416.02 189.27 416.02C189.697 416.02 190.044 415.913 190.31 415.7C190.577 415.5 190.817 415.16 191.03 414.68L191.07 414.58L186.41 403.74H189.63L192.65 411.04L195.69 403.74H198.69ZM215.068 411.5H208.568L207.328 414.5H204.007L210.248 400.5H213.448L219.708 414.5H216.308L215.068 411.5ZM214.048 409.04L211.828 403.68L209.608 409.04H214.048ZM227.48 403.58C228.813 403.58 229.887 403.98 230.7 404.78C231.527 405.58 231.94 406.767 231.94 408.34V414.5H228.82V408.82C228.82 407.967 228.633 407.333 228.26 406.92C227.887 406.493 227.347 406.28 226.64 406.28C225.853 406.28 225.227 406.527 224.76 407.02C224.293 407.5 224.06 408.22 224.06 409.18V414.5H220.94V403.74H223.92V405C224.333 404.547 224.847 404.2 225.46 403.96C226.073 403.707 226.747 403.58 227.48 403.58ZM239.108 403.58C240.775 403.58 242.055 403.98 242.948 404.78C243.841 405.567 244.288 406.76 244.288 408.36V414.5H241.368V413.16C240.781 414.16 239.688 414.66 238.088 414.66C237.261 414.66 236.541 414.52 235.928 414.24C235.328 413.96 234.868 413.573 234.548 413.08C234.228 412.587 234.068 412.027 234.068 411.4C234.068 410.4 234.441 409.613 235.188 409.04C235.948 408.467 237.115 408.18 238.688 408.18H241.168C241.168 407.5 240.961 406.98 240.548 406.62C240.135 406.247 239.515 406.06 238.688 406.06C238.115 406.06 237.548 406.153 236.988 406.34C236.441 406.513 235.975 406.753 235.588 407.06L234.468 404.88C235.055 404.467 235.755 404.147 236.568 403.92C237.395 403.693 238.241 403.58 239.108 403.58ZM238.868 412.56C239.401 412.56 239.875 412.44 240.288 412.2C240.701 411.947 240.995 411.58 241.168 411.1V410H239.028C237.748 410 237.108 410.42 237.108 411.26C237.108 411.66 237.261 411.98 237.568 412.22C237.888 412.447 238.321 412.56 238.868 412.56ZM247.112 399.66H250.232V414.5H247.112V399.66ZM263.808 403.74L258.948 415.16C258.454 416.4 257.841 417.273 257.108 417.78C256.388 418.287 255.514 418.54 254.488 418.54C253.928 418.54 253.374 418.453 252.828 418.28C252.281 418.107 251.834 417.867 251.487 417.56L252.628 415.34C252.868 415.553 253.141 415.72 253.448 415.84C253.768 415.96 254.081 416.02 254.388 416.02C254.814 416.02 255.161 415.913 255.428 415.7C255.694 415.5 255.934 415.16 256.148 414.68L256.188 414.58L251.527 403.74H254.748L257.768 411.04L260.808 403.74H263.808ZM272.314 413.98C272.007 414.207 271.627 414.38 271.174 414.5C270.734 414.607 270.267 414.66 269.774 414.66C268.494 414.66 267.5 414.333 266.794 413.68C266.1 413.027 265.754 412.067 265.754 410.8V406.38H264.094V403.98H265.754V401.36H268.874V403.98H271.554V406.38H268.874V410.76C268.874 411.213 268.987 411.567 269.214 411.82C269.454 412.06 269.787 412.18 270.214 412.18C270.707 412.18 271.127 412.047 271.474 411.78L272.314 413.98ZM274.065 403.74H277.185V414.5H274.065V403.74ZM275.625 402.24C275.052 402.24 274.585 402.073 274.225 401.74C273.865 401.407 273.685 400.993 273.685 400.5C273.685 400.007 273.865 399.593 274.225 399.26C274.585 398.927 275.052 398.76 275.625 398.76C276.198 398.76 276.665 398.92 277.025 399.24C277.385 399.56 277.565 399.96 277.565 400.44C277.565 400.96 277.385 401.393 277.025 401.74C276.665 402.073 276.198 402.24 275.625 402.24ZM285.281 414.66C284.134 414.66 283.101 414.427 282.181 413.96C281.274 413.48 280.561 412.82 280.041 411.98C279.534 411.14 279.281 410.187 279.281 409.12C279.281 408.053 279.534 407.1 280.041 406.26C280.561 405.42 281.274 404.767 282.181 404.3C283.101 403.82 284.134 403.58 285.281 403.58C286.414 403.58 287.401 403.82 288.241 404.3C289.094 404.767 289.714 405.44 290.101 406.32L287.681 407.62C287.121 406.633 286.314 406.14 285.261 406.14C284.447 406.14 283.774 406.407 283.241 406.94C282.707 407.473 282.441 408.2 282.441 409.12C282.441 410.04 282.707 410.767 283.241 411.3C283.774 411.833 284.447 412.1 285.261 412.1C286.327 412.1 287.134 411.607 287.681 410.62L290.101 411.94C289.714 412.793 289.094 413.46 288.241 413.94C287.401 414.42 286.414 414.66 285.281 414.66ZM295.517 414.66C294.624 414.66 293.75 414.553 292.897 414.34C292.044 414.113 291.364 413.833 290.857 413.5L291.897 411.26C292.377 411.567 292.957 411.82 293.637 412.02C294.317 412.207 294.984 412.3 295.637 412.3C296.957 412.3 297.617 411.973 297.617 411.32C297.617 411.013 297.437 410.793 297.077 410.66C296.717 410.527 296.164 410.413 295.417 410.32C294.537 410.187 293.81 410.033 293.237 409.86C292.664 409.687 292.164 409.38 291.737 408.94C291.324 408.5 291.117 407.873 291.117 407.06C291.117 406.38 291.31 405.78 291.697 405.26C292.097 404.727 292.67 404.313 293.417 404.02C294.177 403.727 295.07 403.58 296.097 403.58C296.857 403.58 297.61 403.667 298.357 403.84C299.117 404 299.744 404.227 300.237 404.52L299.197 406.74C298.25 406.207 297.217 405.94 296.097 405.94C295.43 405.94 294.93 406.033 294.597 406.22C294.264 406.407 294.097 406.647 294.097 406.94C294.097 407.273 294.277 407.507 294.637 407.64C294.997 407.773 295.57 407.9 296.357 408.02C297.237 408.167 297.957 408.327 298.517 408.5C299.077 408.66 299.564 408.96 299.977 409.4C300.39 409.84 300.597 410.453 300.597 411.24C300.597 411.907 300.397 412.5 299.997 413.02C299.597 413.54 299.01 413.947 298.237 414.24C297.477 414.52 296.57 414.66 295.517 414.66Z" fill="#1A1A1A"/>
<path d="M76.584 65.4C79.1227 65.4 81.12 66.0067 82.576 67.22C84.032 68.4333 84.76 70.104 84.76 72.232C84.76 74.36 84.032 76.0307 82.576 77.244C81.12 78.4573 79.1227 79.064 76.584 79.064H71.74V85H68.94V65.4H76.584ZM76.5 76.628C78.2733 76.628 79.6267 76.2547 80.56 75.508C81.4933 74.7427 81.96 73.6507 81.96 72.232C81.96 70.8133 81.4933 69.7307 80.56 68.984C79.6267 68.2187 78.2733 67.836 76.5 67.836H71.74V76.628H76.5ZM90.8115 72.652C91.2782 71.7933 91.9688 71.14 92.8835 70.692C93.7982 70.244 94.9088 70.02 96.2155 70.02V72.624C96.0662 72.6053 95.8608 72.596 95.5995 72.596C94.1435 72.596 92.9955 73.0347 92.1555 73.912C91.3342 74.7707 90.9235 76.0027 90.9235 77.608V85H88.2355V70.16H90.8115V72.652ZM112.804 77.664C112.804 77.8693 112.785 78.14 112.748 78.476H100.708C100.876 79.7827 101.445 80.8373 102.416 81.64C103.405 82.424 104.628 82.816 106.084 82.816C107.857 82.816 109.285 82.2187 110.368 81.024L111.852 82.76C111.18 83.544 110.34 84.1413 109.332 84.552C108.342 84.9627 107.232 85.168 106 85.168C104.432 85.168 103.041 84.8507 101.828 84.216C100.614 83.5627 99.6718 82.6573 98.9998 81.5C98.3464 80.3427 98.0198 79.036 98.0198 77.58C98.0198 76.1427 98.3371 74.8453 98.9718 73.688C99.6251 72.5307 100.512 71.6347 101.632 71C102.77 70.3467 104.049 70.02 105.468 70.02C106.886 70.02 108.146 70.3467 109.248 71C110.368 71.6347 111.236 72.5307 111.852 73.688C112.486 74.8453 112.804 76.1707 112.804 77.664ZM105.468 72.288C104.18 72.288 103.097 72.68 102.22 73.464C101.361 74.248 100.857 75.2747 100.708 76.544H110.228C110.078 75.2933 109.565 74.276 108.688 73.492C107.829 72.6893 106.756 72.288 105.468 72.288ZM135.1 70.02C136.967 70.02 138.442 70.5613 139.524 71.644C140.626 72.7267 141.176 74.332 141.176 76.46V85H138.488V76.768C138.488 75.3307 138.152 74.248 137.48 73.52C136.827 72.792 135.884 72.428 134.652 72.428C133.29 72.428 132.207 72.8573 131.404 73.716C130.602 74.556 130.2 75.7693 130.2 77.356V85H127.512V76.768C127.512 75.3307 127.176 74.248 126.504 73.52C125.851 72.792 124.908 72.428 123.676 72.428C122.314 72.428 121.231 72.8573 120.428 73.716C119.626 74.556 119.224 75.7693 119.224 77.356V85H116.536V70.16H119.112V72.372C119.654 71.6067 120.363 71.028 121.24 70.636C122.118 70.2253 123.116 70.02 124.236 70.02C125.394 70.02 126.42 70.2533 127.316 70.72C128.212 71.1867 128.903 71.868 129.388 72.764C129.948 71.9053 130.723 71.2333 131.712 70.748C132.72 70.2627 133.85 70.02 135.1 70.02ZM146.122 70.16H148.81V85H146.122V70.16ZM147.466 67.304C146.944 67.304 146.505 67.136 146.15 66.8C145.814 66.464 145.646 66.0533 145.646 65.568C145.646 65.0827 145.814 64.672 146.15 64.336C146.505 63.9813 146.944 63.804 147.466 63.804C147.989 63.804 148.418 63.972 148.754 64.308C149.109 64.6253 149.286 65.0267 149.286 65.512C149.286 66.016 149.109 66.4453 148.754 66.8C148.418 67.136 147.989 67.304 147.466 67.304ZM167.775 70.16V85H165.227V82.76C164.685 83.5253 163.967 84.1227 163.071 84.552C162.193 84.9627 161.232 85.168 160.187 85.168C158.208 85.168 156.649 84.6267 155.511 83.544C154.372 82.4427 153.803 80.828 153.803 78.7V70.16H156.491V78.392C156.491 79.8293 156.836 80.9213 157.527 81.668C158.217 82.396 159.207 82.76 160.495 82.76C161.913 82.76 163.033 82.3307 163.855 81.472C164.676 80.6133 165.087 79.4 165.087 77.832V70.16H167.775ZM191.456 70.02C193.322 70.02 194.797 70.5613 195.88 71.644C196.981 72.7267 197.532 74.332 197.532 76.46V85H194.844V76.768C194.844 75.3307 194.508 74.248 193.836 73.52C193.182 72.792 192.24 72.428 191.008 72.428C189.645 72.428 188.562 72.8573 187.76 73.716C186.957 74.556 186.556 75.7693 186.556 77.356V85H183.868V76.768C183.868 75.3307 183.532 74.248 182.86 73.52C182.206 72.792 181.264 72.428 180.032 72.428C178.669 72.428 177.586 72.8573 176.784 73.716C175.981 74.556 175.58 75.7693 175.58 77.356V85H172.892V70.16H175.468V72.372C176.009 71.6067 176.718 71.028 177.596 70.636C178.473 70.2253 179.472 70.02 180.592 70.02C181.749 70.02 182.776 70.2533 183.672 70.72C184.568 71.1867 185.258 71.868 185.744 72.764C186.304 71.9053 187.078 71.2333 188.068 70.748C189.076 70.2627 190.205 70.02 191.456 70.02Z" fill="#1A1A1A"/>
<path d="M109.92 184.24C109.92 188.176 108.48 191.56 105.6 194.392C102.72 197.176 98.568 198.904 93.144 199.576V207.64H85.944V199.792C82.392 199.6 79.008 198.976 75.792 197.92C72.576 196.864 69.984 195.568 68.016 194.032L71.976 185.248C73.8 186.592 75.936 187.72 78.384 188.632C80.832 189.544 83.352 190.12 85.944 190.36V178.336C82.536 177.52 79.656 176.608 77.304 175.6C74.952 174.592 72.984 173.128 71.4 171.208C69.816 169.24 69.024 166.648 69.024 163.432C69.024 159.448 70.464 156.04 73.344 153.208C76.272 150.328 80.472 148.576 85.944 147.952V139.96H93.144V147.808C99.048 148.288 103.92 149.752 107.76 152.2L104.16 161.056C100.56 158.992 96.888 157.744 93.144 157.312V169.552C96.504 170.32 99.336 171.208 101.64 172.216C103.992 173.176 105.96 174.64 107.544 176.608C109.128 178.528 109.92 181.072 109.92 184.24ZM80.616 162.856C80.616 164.056 81.072 165.04 81.984 165.808C82.896 166.576 84.216 167.224 85.944 167.752V157.528C84.12 157.96 82.776 158.656 81.912 159.616C81.048 160.528 80.616 161.608 80.616 162.856ZM93.144 190.072C94.872 189.688 96.168 189.064 97.032 188.2C97.896 187.336 98.328 186.304 98.328 185.104C98.328 183.904 97.872 182.92 96.96 182.152C96.096 181.384 94.824 180.712 93.144 180.136V190.072ZM133.459 148.6V199H121.795V157.96H111.715V148.6H133.459ZM163.814 199.864C159.638 199.864 155.918 198.832 152.654 196.768C149.39 194.704 146.822 191.728 144.95 187.84C143.126 183.904 142.214 179.224 142.214 173.8C142.214 168.376 143.126 163.72 144.95 159.832C146.822 155.896 149.39 152.896 152.654 150.832C155.918 148.768 159.638 147.736 163.814 147.736C167.99 147.736 171.71 148.768 174.974 150.832C178.238 152.896 180.782 155.896 182.606 159.832C184.478 163.72 185.414 168.376 185.414 173.8C185.414 179.224 184.478 183.904 182.606 187.84C180.782 191.728 178.238 194.704 174.974 196.768C171.71 198.832 167.99 199.864 163.814 199.864ZM163.814 190C166.886 190 169.286 188.68 171.014 186.04C172.79 183.4 173.678 179.32 173.678 173.8C173.678 168.28 172.79 164.2 171.014 161.56C169.286 158.92 166.886 157.6 163.814 157.6C160.79 157.6 158.39 158.92 156.614 161.56C154.886 164.2 154.022 168.28 154.022 173.8C154.022 179.32 154.886 183.4 156.614 186.04C158.39 188.68 160.79 190 163.814 190ZM212.681 199.864C208.505 199.864 204.785 198.832 201.521 196.768C198.257 194.704 195.689 191.728 193.817 187.84C191.993 183.904 191.081 179.224 191.081 173.8C191.081 168.376 191.993 163.72 193.817 159.832C195.689 155.896 198.257 152.896 201.521 150.832C204.785 148.768 208.505 147.736 212.681 147.736C216.857 147.736 220.577 148.768 223.841 150.832C227.105 152.896 229.649 155.896 231.473 159.832C233.345 163.72 234.281 168.376 234.281 173.8C234.281 179.224 233.345 183.904 231.473 187.84C229.649 191.728 227.105 194.704 223.841 196.768C220.577 198.832 216.857 199.864 212.681 199.864ZM212.681 190C215.753 190 218.153 188.68 219.881 186.04C221.657 183.4 222.545 179.32 222.545 173.8C222.545 168.28 221.657 164.2 219.881 161.56C218.153 158.92 215.753 157.6 212.681 157.6C209.657 157.6 207.257 158.92 205.481 161.56C203.753 164.2 202.889 168.28 202.889 173.8C202.889 179.32 203.753 183.4 205.481 186.04C207.257 188.68 209.657 190 212.681 190ZM261.549 199.864C257.373 199.864 253.653 198.832 250.389 196.768C247.125 194.704 244.557 191.728 242.685 187.84C240.861 183.904 239.949 179.224 239.949 173.8C239.949 168.376 240.861 163.72 242.685 159.832C244.557 155.896 247.125 152.896 250.389 150.832C253.653 148.768 257.373 147.736 261.549 147.736C265.725 147.736 269.445 148.768 272.709 150.832C275.973 152.896 278.517 155.896 280.341 159.832C282.213 163.72 283.149 168.376 283.149 173.8C283.149 179.224 282.213 183.904 280.341 187.84C278.517 191.728 275.973 194.704 272.709 196.768C269.445 198.832 265.725 199.864 261.549 199.864ZM261.549 190C264.621 190 267.021 188.68 268.749 186.04C270.525 183.4 271.413 179.32 271.413 173.8C271.413 168.28 270.525 164.2 268.749 161.56C267.021 158.92 264.621 157.6 261.549 157.6C258.525 157.6 256.125 158.92 254.349 161.56C252.621 164.2 251.757 168.28 251.757 173.8C251.757 179.32 252.621 183.4 254.349 186.04C256.125 188.68 258.525 190 261.549 190ZM291.948 182.16H294.728L288.128 201H285.348L291.948 182.16ZM308.24 199L308.22 190.6L304.1 197.52H302.64L298.54 190.78V199H295.5V185H298.18L303.42 193.7L308.58 185H311.24L311.28 199H308.24ZM319.501 199.16C318.368 199.16 317.348 198.927 316.441 198.46C315.548 197.98 314.848 197.32 314.341 196.48C313.835 195.64 313.581 194.687 313.581 193.62C313.581 192.553 313.835 191.6 314.341 190.76C314.848 189.92 315.548 189.267 316.441 188.8C317.348 188.32 318.368 188.08 319.501 188.08C320.635 188.08 321.648 188.32 322.541 188.8C323.435 189.267 324.135 189.92 324.641 190.76C325.148 191.6 325.401 192.553 325.401 193.62C325.401 194.687 325.148 195.64 324.641 196.48C324.135 197.32 323.435 197.98 322.541 198.46C321.648 198.927 320.635 199.16 319.501 199.16ZM319.501 196.6C320.301 196.6 320.955 196.333 321.461 195.8C321.981 195.253 322.241 194.527 322.241 193.62C322.241 192.713 321.981 191.993 321.461 191.46C320.955 190.913 320.301 190.64 319.501 190.64C318.701 190.64 318.041 190.913 317.521 191.46C317.001 191.993 316.741 192.713 316.741 193.62C316.741 194.527 317.001 195.253 317.521 195.8C318.041 196.333 318.701 196.6 319.501 196.6ZM334.027 188.08C335.36 188.08 336.434 188.48 337.247 189.28C338.074 190.08 338.487 191.267 338.487 192.84V199H335.367V193.32C335.367 192.467 335.18 191.833 334.807 191.42C334.434 190.993 333.894 190.78 333.187 190.78C332.4 190.78 331.774 191.027 331.307 191.52C330.84 192 330.607 192.72 330.607 193.68V199H327.487V188.24H330.467V189.5C330.88 189.047 331.394 188.7 332.007 188.46C332.62 188.207 333.294 188.08 334.027 188.08ZM348.255 198.48C347.948 198.707 347.568 198.88 347.115 199C346.675 199.107 346.208 199.16 345.715 199.16C344.435 199.16 343.442 198.833 342.735 198.18C342.042 197.527 341.695 196.567 341.695 195.3V190.88H340.035V188.48H341.695V185.86H344.815V188.48H347.495V190.88H344.815V195.26C344.815 195.713 344.928 196.067 345.155 196.32C345.395 196.56 345.728 196.68 346.155 196.68C346.648 196.68 347.068 196.547 347.415 196.28L348.255 198.48ZM356.546 188.08C357.88 188.08 358.953 188.48 359.766 189.28C360.593 190.08 361.006 191.267 361.006 192.84V199H357.886V193.32C357.886 192.467 357.7 191.833 357.326 191.42C356.953 190.993 356.413 190.78 355.706 190.78C354.92 190.78 354.293 191.027 353.826 191.52C353.36 192 353.126 192.72 353.126 193.68V199H350.006V184.16H353.126V189.36C353.54 188.947 354.04 188.633 354.626 188.42C355.213 188.193 355.853 188.08 356.546 188.08Z" fill="#1A1A1A"/>
<g opacity="0.2">
<rect x="66" y="567" width="548" height="80" rx="16" fill="#130F26"/>
<path d="M259.267 603.12L261.447 604.3L260.467 605.94L258.267 604.64L258.307 607.06H256.427L256.447 604.62L254.247 605.94L253.287 604.3L255.467 603.12L253.287 601.92L254.247 600.28L256.447 601.6L256.427 599.16H258.307L258.267 601.6L260.467 600.28L261.447 601.92L259.267 603.12ZM276.199 600V614H273.539L266.559 605.5V614H263.359V600H266.039L272.999 608.5V600H276.199ZM284.412 614.16C283.278 614.16 282.258 613.927 281.352 613.46C280.458 612.98 279.758 612.32 279.252 611.48C278.745 610.64 278.492 609.687 278.492 608.62C278.492 607.553 278.745 606.6 279.252 605.76C279.758 604.92 280.458 604.267 281.352 603.8C282.258 603.32 283.278 603.08 284.412 603.08C285.545 603.08 286.558 603.32 287.452 603.8C288.345 604.267 289.045 604.92 289.552 605.76C290.058 606.6 290.312 607.553 290.312 608.62C290.312 609.687 290.058 610.64 289.552 611.48C289.045 612.32 288.345 612.98 287.452 613.46C286.558 613.927 285.545 614.16 284.412 614.16ZM284.412 611.6C285.212 611.6 285.865 611.333 286.372 610.8C286.892 610.253 287.152 609.527 287.152 608.62C287.152 607.713 286.892 606.993 286.372 606.46C285.865 605.913 285.212 605.64 284.412 605.64C283.612 605.64 282.952 605.913 282.432 606.46C281.912 606.993 281.652 607.713 281.652 608.62C281.652 609.527 281.912 610.253 282.432 610.8C282.952 611.333 283.612 611.6 284.412 611.6ZM298.937 603.08C300.27 603.08 301.344 603.48 302.157 604.28C302.984 605.08 303.397 606.267 303.397 607.84V614H300.277V608.32C300.277 607.467 300.09 606.833 299.717 606.42C299.344 605.993 298.804 605.78 298.097 605.78C297.31 605.78 296.684 606.027 296.217 606.52C295.75 607 295.517 607.72 295.517 608.68V614H292.397V603.24H295.377V604.5C295.79 604.047 296.304 603.7 296.917 603.46C297.53 603.207 298.204 603.08 298.937 603.08ZM316.882 608.66C316.882 608.7 316.862 608.98 316.822 609.5H308.682C308.829 610.167 309.176 610.693 309.722 611.08C310.269 611.467 310.949 611.66 311.762 611.66C312.322 611.66 312.816 611.58 313.242 611.42C313.682 611.247 314.089 610.98 314.462 610.62L316.122 612.42C315.109 613.58 313.629 614.16 311.682 614.16C310.469 614.16 309.396 613.927 308.462 613.46C307.529 612.98 306.809 612.32 306.302 611.48C305.796 610.64 305.542 609.687 305.542 608.62C305.542 607.567 305.789 606.62 306.282 605.78C306.789 604.927 307.476 604.267 308.342 603.8C309.222 603.32 310.202 603.08 311.282 603.08C312.336 603.08 313.289 603.307 314.142 603.76C314.996 604.213 315.662 604.867 316.142 605.72C316.636 606.56 316.882 607.54 316.882 608.66ZM311.302 605.44C310.596 605.44 310.002 605.64 309.522 606.04C309.042 606.44 308.749 606.987 308.642 607.68H313.942C313.836 607 313.542 606.46 313.062 606.06C312.582 605.647 311.996 605.44 311.302 605.44ZM334.064 611H327.564L326.324 614H323.004L329.244 600H332.444L338.704 614H335.304L334.064 611ZM333.044 608.54L330.824 603.18L328.604 608.54H333.044ZM350.05 603.24L345.51 614H342.29L337.77 603.24H340.99L343.97 610.56L347.05 603.24H350.05ZM355.311 603.08C356.978 603.08 358.258 603.48 359.151 604.28C360.045 605.067 360.491 606.26 360.491 607.86V614H357.571V612.66C356.985 613.66 355.891 614.16 354.291 614.16C353.465 614.16 352.745 614.02 352.131 613.74C351.531 613.46 351.071 613.073 350.751 612.58C350.431 612.087 350.271 611.527 350.271 610.9C350.271 609.9 350.645 609.113 351.391 608.54C352.151 607.967 353.318 607.68 354.891 607.68H357.371C357.371 607 357.165 606.48 356.751 606.12C356.338 605.747 355.718 605.56 354.891 605.56C354.318 605.56 353.751 605.653 353.191 605.84C352.645 606.013 352.178 606.253 351.791 606.56L350.671 604.38C351.258 603.967 351.958 603.647 352.771 603.42C353.598 603.193 354.445 603.08 355.311 603.08ZM355.071 612.06C355.605 612.06 356.078 611.94 356.491 611.7C356.905 611.447 357.198 611.08 357.371 610.6V609.5H355.231C353.951 609.5 353.311 609.92 353.311 610.76C353.311 611.16 353.465 611.48 353.771 611.72C354.091 611.947 354.525 612.06 355.071 612.06ZM363.315 603.24H366.435V614H363.315V603.24ZM364.875 601.74C364.302 601.74 363.835 601.573 363.475 601.24C363.115 600.907 362.935 600.493 362.935 600C362.935 599.507 363.115 599.093 363.475 598.76C363.835 598.427 364.302 598.26 364.875 598.26C365.448 598.26 365.915 598.42 366.275 598.74C366.635 599.06 366.815 599.46 366.815 599.94C366.815 600.46 366.635 600.893 366.275 601.24C365.915 601.573 365.448 601.74 364.875 601.74ZM369.331 599.16H372.451V614H369.331V599.16ZM379.686 603.08C381.353 603.08 382.633 603.48 383.526 604.28C384.42 605.067 384.866 606.26 384.866 607.86V614H381.946V612.66C381.36 613.66 380.266 614.16 378.666 614.16C377.84 614.16 377.12 614.02 376.506 613.74C375.906 613.46 375.446 613.073 375.126 612.58C374.806 612.087 374.646 611.527 374.646 610.9C374.646 609.9 375.02 609.113 375.766 608.54C376.526 607.967 377.693 607.68 379.266 607.68H381.746C381.746 607 381.54 606.48 381.126 606.12C380.713 605.747 380.093 605.56 379.266 605.56C378.693 605.56 378.126 605.653 377.566 605.84C377.02 606.013 376.553 606.253 376.166 606.56L375.046 604.38C375.633 603.967 376.333 603.647 377.146 603.42C377.973 603.193 378.82 603.08 379.686 603.08ZM379.446 612.06C379.98 612.06 380.453 611.94 380.866 611.7C381.28 611.447 381.573 611.08 381.746 610.6V609.5H379.606C378.326 609.5 377.686 609.92 377.686 610.76C377.686 611.16 377.84 611.48 378.146 611.72C378.466 611.947 378.9 612.06 379.446 612.06ZM394.05 603.08C395.05 603.08 395.957 603.313 396.77 603.78C397.597 604.233 398.243 604.88 398.71 605.72C399.177 606.547 399.41 607.513 399.41 608.62C399.41 609.727 399.177 610.7 398.71 611.54C398.243 612.367 397.597 613.013 396.77 613.48C395.957 613.933 395.05 614.16 394.05 614.16C392.57 614.16 391.443 613.693 390.67 612.76V614H387.69V599.16H390.81V604.38C391.597 603.513 392.677 603.08 394.05 603.08ZM393.51 611.6C394.31 611.6 394.963 611.333 395.47 610.8C395.99 610.253 396.25 609.527 396.25 608.62C396.25 607.713 395.99 606.993 395.47 606.46C394.963 605.913 394.31 605.64 393.51 605.64C392.71 605.64 392.05 605.913 391.53 606.46C391.023 606.993 390.77 607.713 390.77 608.62C390.77 609.527 391.023 610.253 391.53 610.8C392.05 611.333 392.71 611.6 393.51 611.6ZM401.499 599.16H404.619V614H401.499V599.16ZM418.054 608.66C418.054 608.7 418.034 608.98 417.994 609.5H409.854C410.001 610.167 410.348 610.693 410.894 611.08C411.441 611.467 412.121 611.66 412.934 611.66C413.494 611.66 413.988 611.58 414.414 611.42C414.854 611.247 415.261 610.98 415.634 610.62L417.294 612.42C416.281 613.58 414.801 614.16 412.854 614.16C411.641 614.16 410.568 613.927 409.634 613.46C408.701 612.98 407.981 612.32 407.474 611.48C406.968 610.64 406.714 609.687 406.714 608.62C406.714 607.567 406.961 606.62 407.454 605.78C407.961 604.927 408.648 604.267 409.514 603.8C410.394 603.32 411.374 603.08 412.454 603.08C413.508 603.08 414.461 603.307 415.314 603.76C416.168 604.213 416.834 604.867 417.314 605.72C417.808 606.56 418.054 607.54 418.054 608.66ZM412.474 605.44C411.768 605.44 411.174 605.64 410.694 606.04C410.214 606.44 409.921 606.987 409.814 607.68H415.114C415.008 607 414.714 606.46 414.234 606.06C413.754 605.647 413.168 605.44 412.474 605.44ZM424.541 603.12L426.721 604.3L425.741 605.94L423.541 604.64L423.581 607.06H421.701L421.721 604.62L419.521 605.94L418.561 604.3L420.741 603.12L418.561 601.92L419.521 600.28L421.721 601.6L421.701 599.16H423.581L423.541 601.6L425.741 600.28L426.721 601.92L424.541 603.12Z" fill="white"/>
</g>
</svg>
