<svg width="680" height="708" viewBox="0 0 680 708" fill="none" xmlns="http://www.w3.org/2000/svg">
<rect x="1.5" y="1.5" width="677" height="705" rx="30.5" fill="white" stroke="#FF8000" stroke-width="3"/>
<path d="M68.6668 303C68.6668 310.347 74.6401 316.333 82.0001 316.333C89.3468 316.333 95.3335 310.347 95.3335 303C95.3335 295.64 89.3468 289.667 82.0001 289.667C74.6401 289.667 68.6668 295.64 68.6668 303V303Z" fill="#130F26"/>
<rect x="77.0349" y="301.743" width="6.91934" height="2.30645" rx="1.15322" transform="rotate(45 77.0349 301.743)" fill="white"/>
<rect x="89.2668" y="299.297" width="12.6855" height="2.30645" rx="1.15322" transform="rotate(135 89.2668 299.297)" fill="white"/>
<path d="M122.48 310.5L119.1 305.64L115.78 310.5H112.06L117.24 303.38L112.32 296.5H116L119.22 301.04L122.38 296.5H125.88L121 303.26L126.22 310.5H122.48ZM139.661 296.5C140.901 296.5 141.975 296.707 142.881 297.12C143.801 297.533 144.508 298.12 145.001 298.88C145.495 299.64 145.741 300.54 145.741 301.58C145.741 302.607 145.495 303.507 145.001 304.28C144.508 305.04 143.801 305.627 142.881 306.04C141.975 306.44 140.901 306.64 139.661 306.64H136.841V310.5H133.601V296.5H139.661ZM139.481 304C140.455 304 141.195 303.793 141.701 303.38C142.208 302.953 142.461 302.353 142.461 301.58C142.461 300.793 142.208 300.193 141.701 299.78C141.195 299.353 140.455 299.14 139.481 299.14H136.841V304H139.481ZM152.935 310.66C151.802 310.66 150.782 310.427 149.875 309.96C148.982 309.48 148.282 308.82 147.775 307.98C147.268 307.14 147.015 306.187 147.015 305.12C147.015 304.053 147.268 303.1 147.775 302.26C148.282 301.42 148.982 300.767 149.875 300.3C150.782 299.82 151.802 299.58 152.935 299.58C154.068 299.58 155.082 299.82 155.975 300.3C156.868 300.767 157.568 301.42 158.075 302.26C158.582 303.1 158.835 304.053 158.835 305.12C158.835 306.187 158.582 307.14 158.075 307.98C157.568 308.82 156.868 309.48 155.975 309.96C155.082 310.427 154.068 310.66 152.935 310.66ZM152.935 308.1C153.735 308.1 154.388 307.833 154.895 307.3C155.415 306.753 155.675 306.027 155.675 305.12C155.675 304.213 155.415 303.493 154.895 302.96C154.388 302.413 153.735 302.14 152.935 302.14C152.135 302.14 151.475 302.413 150.955 302.96C150.435 303.493 150.175 304.213 150.175 305.12C150.175 306.027 150.435 306.753 150.955 307.3C151.475 307.833 152.135 308.1 152.935 308.1ZM164.54 310.66C163.647 310.66 162.774 310.553 161.92 310.34C161.067 310.113 160.387 309.833 159.88 309.5L160.92 307.26C161.4 307.567 161.98 307.82 162.66 308.02C163.34 308.207 164.007 308.3 164.66 308.3C165.98 308.3 166.64 307.973 166.64 307.32C166.64 307.013 166.46 306.793 166.1 306.66C165.74 306.527 165.187 306.413 164.44 306.32C163.56 306.187 162.834 306.033 162.26 305.86C161.687 305.687 161.187 305.38 160.76 304.94C160.347 304.5 160.14 303.873 160.14 303.06C160.14 302.38 160.334 301.78 160.72 301.26C161.12 300.727 161.694 300.313 162.44 300.02C163.2 299.727 164.094 299.58 165.12 299.58C165.88 299.58 166.634 299.667 167.38 299.84C168.14 300 168.767 300.227 169.26 300.52L168.22 302.74C167.274 302.207 166.24 301.94 165.12 301.94C164.454 301.94 163.954 302.033 163.62 302.22C163.287 302.407 163.12 302.647 163.12 302.94C163.12 303.273 163.3 303.507 163.66 303.64C164.02 303.773 164.594 303.9 165.38 304.02C166.26 304.167 166.98 304.327 167.54 304.5C168.1 304.66 168.587 304.96 169 305.4C169.414 305.84 169.62 306.453 169.62 307.24C169.62 307.907 169.42 308.5 169.02 309.02C168.62 309.54 168.034 309.947 167.26 310.24C166.5 310.52 165.594 310.66 164.54 310.66ZM178.485 309.98C178.179 310.207 177.799 310.38 177.345 310.5C176.905 310.607 176.439 310.66 175.945 310.66C174.665 310.66 173.672 310.333 172.965 309.68C172.272 309.027 171.925 308.067 171.925 306.8V302.38H170.265V299.98H171.925V297.36H175.045V299.98H177.725V302.38H175.045V306.76C175.045 307.213 175.159 307.567 175.385 307.82C175.625 308.06 175.959 308.18 176.385 308.18C176.879 308.18 177.299 308.047 177.645 307.78L178.485 309.98ZM183.857 310.66C182.964 310.66 182.09 310.553 181.237 310.34C180.384 310.113 179.704 309.833 179.197 309.5L180.237 307.26C180.717 307.567 181.297 307.82 181.977 308.02C182.657 308.207 183.324 308.3 183.977 308.3C185.297 308.3 185.957 307.973 185.957 307.32C185.957 307.013 185.777 306.793 185.417 306.66C185.057 306.527 184.504 306.413 183.757 306.32C182.877 306.187 182.15 306.033 181.577 305.86C181.004 305.687 180.504 305.38 180.077 304.94C179.664 304.5 179.457 303.873 179.457 303.06C179.457 302.38 179.65 301.78 180.037 301.26C180.437 300.727 181.01 300.313 181.757 300.02C182.517 299.727 183.41 299.58 184.437 299.58C185.197 299.58 185.95 299.667 186.697 299.84C187.457 300 188.084 300.227 188.577 300.52L187.537 302.74C186.59 302.207 185.557 301.94 184.437 301.94C183.77 301.94 183.27 302.033 182.937 302.22C182.604 302.407 182.437 302.647 182.437 302.94C182.437 303.273 182.617 303.507 182.977 303.64C183.337 303.773 183.91 303.9 184.697 304.02C185.577 304.167 186.297 304.327 186.857 304.5C187.417 304.66 187.904 304.96 188.317 305.4C188.73 305.84 188.937 306.453 188.937 307.24C188.937 307.907 188.737 308.5 188.337 309.02C187.937 309.54 187.35 309.947 186.577 310.24C185.817 310.52 184.91 310.66 183.857 310.66ZM202.233 299.8C203.26 299.8 204.18 300.027 204.993 300.48C205.806 300.933 206.44 301.567 206.893 302.38C207.36 303.193 207.593 304.133 207.593 305.2C207.593 306.267 207.36 307.213 206.893 308.04C206.44 308.853 205.806 309.487 204.993 309.94C204.18 310.393 203.26 310.62 202.233 310.62C201.473 310.62 200.773 310.473 200.133 310.18C199.506 309.887 198.973 309.46 198.533 308.9V314.38H196.613V299.9H198.453V301.58C198.88 300.993 199.42 300.553 200.073 300.26C200.726 299.953 201.446 299.8 202.233 299.8ZM202.073 308.94C202.753 308.94 203.36 308.787 203.893 308.48C204.44 308.16 204.866 307.72 205.173 307.16C205.493 306.587 205.653 305.933 205.653 305.2C205.653 304.467 205.493 303.82 205.173 303.26C204.866 302.687 204.44 302.247 203.893 301.94C203.36 301.633 202.753 301.48 202.073 301.48C201.406 301.48 200.8 301.64 200.253 301.96C199.72 302.267 199.293 302.7 198.973 303.26C198.666 303.82 198.513 304.467 198.513 305.2C198.513 305.933 198.666 306.587 198.973 307.16C199.28 307.72 199.706 308.16 200.253 308.48C200.8 308.787 201.406 308.94 202.073 308.94ZM219.826 305.26C219.826 305.407 219.812 305.6 219.786 305.84H211.186C211.306 306.773 211.712 307.527 212.406 308.1C213.112 308.66 213.986 308.94 215.026 308.94C216.292 308.94 217.312 308.513 218.086 307.66L219.146 308.9C218.666 309.46 218.066 309.887 217.346 310.18C216.639 310.473 215.846 310.62 214.966 310.62C213.846 310.62 212.852 310.393 211.986 309.94C211.119 309.473 210.446 308.827 209.966 308C209.499 307.173 209.266 306.24 209.266 305.2C209.266 304.173 209.492 303.247 209.946 302.42C210.412 301.593 211.046 300.953 211.846 300.5C212.659 300.033 213.572 299.8 214.586 299.8C215.599 299.8 216.499 300.033 217.286 300.5C218.086 300.953 218.706 301.593 219.146 302.42C219.599 303.247 219.826 304.193 219.826 305.26ZM214.586 301.42C213.666 301.42 212.892 301.7 212.266 302.26C211.652 302.82 211.292 303.553 211.186 304.46H217.986C217.879 303.567 217.512 302.84 216.886 302.28C216.272 301.707 215.506 301.42 214.586 301.42ZM224.332 301.68C224.665 301.067 225.159 300.6 225.812 300.28C226.465 299.96 227.259 299.8 228.192 299.8V301.66C228.085 301.647 227.939 301.64 227.752 301.64C226.712 301.64 225.892 301.953 225.292 302.58C224.705 303.193 224.412 304.073 224.412 305.22V310.5H222.492V299.9H224.332V301.68ZM252.106 299.9L248.146 310.5H246.306L243.246 302.46L240.146 310.5H238.306L234.366 299.9H236.186L239.266 308.34L242.466 299.9H244.086L247.226 308.38L250.386 299.9H252.106ZM263.341 305.26C263.341 305.407 263.328 305.6 263.301 305.84H254.701C254.821 306.773 255.228 307.527 255.921 308.1C256.628 308.66 257.501 308.94 258.541 308.94C259.808 308.94 260.828 308.513 261.601 307.66L262.661 308.9C262.181 309.46 261.581 309.887 260.861 310.18C260.155 310.473 259.361 310.62 258.481 310.62C257.361 310.62 256.368 310.393 255.501 309.94C254.635 309.473 253.961 308.827 253.481 308C253.015 307.173 252.781 306.24 252.781 305.2C252.781 304.173 253.008 303.247 253.461 302.42C253.928 301.593 254.561 300.953 255.361 300.5C256.175 300.033 257.088 299.8 258.101 299.8C259.115 299.8 260.015 300.033 260.801 300.5C261.601 300.953 262.221 301.593 262.661 302.42C263.115 303.247 263.341 304.193 263.341 305.26ZM258.101 301.42C257.181 301.42 256.408 301.7 255.781 302.26C255.168 302.82 254.808 303.553 254.701 304.46H261.501C261.395 303.567 261.028 302.84 260.401 302.28C259.788 301.707 259.021 301.42 258.101 301.42ZM275.588 305.26C275.588 305.407 275.574 305.6 275.548 305.84H266.948C267.068 306.773 267.474 307.527 268.168 308.1C268.874 308.66 269.748 308.94 270.788 308.94C272.054 308.94 273.074 308.513 273.848 307.66L274.908 308.9C274.428 309.46 273.828 309.887 273.108 310.18C272.401 310.473 271.608 310.62 270.728 310.62C269.608 310.62 268.614 310.393 267.748 309.94C266.881 309.473 266.208 308.827 265.728 308C265.261 307.173 265.028 306.24 265.028 305.2C265.028 304.173 265.254 303.247 265.708 302.42C266.174 301.593 266.808 300.953 267.608 300.5C268.421 300.033 269.334 299.8 270.348 299.8C271.361 299.8 272.261 300.033 273.048 300.5C273.848 300.953 274.468 301.593 274.908 302.42C275.361 303.247 275.588 304.193 275.588 305.26ZM270.348 301.42C269.428 301.42 268.654 301.7 268.028 302.26C267.414 302.82 267.054 303.553 266.948 304.46H273.748C273.641 303.567 273.274 302.84 272.648 302.28C272.034 301.707 271.268 301.42 270.348 301.42ZM282.374 305.56L280.174 307.6V310.5H278.254V295.66H280.174V305.18L285.954 299.9H288.274L283.814 304.28L288.714 310.5H286.354L282.374 305.56Z" fill="#1A1A1A"/>
<path d="M68.6668 355C68.6668 362.347 74.6401 368.333 82.0001 368.333C89.3468 368.333 95.3335 362.347 95.3335 355C95.3335 347.64 89.3468 341.667 82.0001 341.667C74.6401 341.667 68.6668 347.64 68.6668 355V355Z" fill="#130F26"/>
<rect x="77.0349" y="353.743" width="6.91934" height="2.30645" rx="1.15322" transform="rotate(45 77.0349 353.743)" fill="white"/>
<rect x="89.2668" y="351.297" width="12.6855" height="2.30645" rx="1.15322" transform="rotate(135 89.2668 351.297)" fill="white"/>
<path d="M122.48 362.5L119.1 357.64L115.78 362.5H112.06L117.24 355.38L112.32 348.5H116L119.22 353.04L122.38 348.5H125.88L121 355.26L126.22 362.5H122.48ZM142.521 362.5L139.821 358.6H139.661H136.841V362.5H133.601V348.5H139.661C140.901 348.5 141.975 348.707 142.881 349.12C143.801 349.533 144.508 350.12 145.001 350.88C145.495 351.64 145.741 352.54 145.741 353.58C145.741 354.62 145.488 355.52 144.981 356.28C144.488 357.027 143.781 357.6 142.861 358L146.001 362.5H142.521ZM142.461 353.58C142.461 352.793 142.208 352.193 141.701 351.78C141.195 351.353 140.455 351.14 139.481 351.14H136.841V356.02H139.481C140.455 356.02 141.195 355.807 141.701 355.38C142.208 354.953 142.461 354.353 142.461 353.58ZM158.628 357.16C158.628 357.2 158.608 357.48 158.568 358H150.428C150.575 358.667 150.922 359.193 151.468 359.58C152.015 359.967 152.695 360.16 153.508 360.16C154.068 360.16 154.562 360.08 154.988 359.92C155.428 359.747 155.835 359.48 156.208 359.12L157.868 360.92C156.855 362.08 155.375 362.66 153.428 362.66C152.215 362.66 151.142 362.427 150.208 361.96C149.275 361.48 148.555 360.82 148.048 359.98C147.542 359.14 147.288 358.187 147.288 357.12C147.288 356.067 147.535 355.12 148.028 354.28C148.535 353.427 149.222 352.767 150.088 352.3C150.968 351.82 151.948 351.58 153.028 351.58C154.082 351.58 155.035 351.807 155.888 352.26C156.742 352.713 157.408 353.367 157.888 354.22C158.382 355.06 158.628 356.04 158.628 357.16ZM153.048 353.94C152.342 353.94 151.748 354.14 151.268 354.54C150.788 354.94 150.495 355.487 150.388 356.18H155.688C155.582 355.5 155.288 354.96 154.808 354.56C154.328 354.147 153.742 353.94 153.048 353.94ZM171.246 357.16C171.246 357.2 171.226 357.48 171.186 358H163.046C163.192 358.667 163.539 359.193 164.086 359.58C164.632 359.967 165.312 360.16 166.126 360.16C166.686 360.16 167.179 360.08 167.606 359.92C168.046 359.747 168.452 359.48 168.826 359.12L170.486 360.92C169.472 362.08 167.992 362.66 166.046 362.66C164.832 362.66 163.759 362.427 162.826 361.96C161.892 361.48 161.172 360.82 160.666 359.98C160.159 359.14 159.906 358.187 159.906 357.12C159.906 356.067 160.152 355.12 160.646 354.28C161.152 353.427 161.839 352.767 162.706 352.3C163.586 351.82 164.566 351.58 165.646 351.58C166.699 351.58 167.652 351.807 168.506 352.26C169.359 352.713 170.026 353.367 170.506 354.22C170.999 355.06 171.246 356.04 171.246 357.16ZM165.666 353.94C164.959 353.94 164.366 354.14 163.886 354.54C163.406 354.94 163.112 355.487 163.006 356.18H168.306C168.199 355.5 167.906 354.96 167.426 354.56C166.946 354.147 166.359 353.94 165.666 353.94ZM173.323 347.66H176.443V362.5H173.323V347.66ZM182.958 362.66C182.065 362.66 181.192 362.553 180.338 362.34C179.485 362.113 178.805 361.833 178.298 361.5L179.338 359.26C179.818 359.567 180.398 359.82 181.078 360.02C181.758 360.207 182.425 360.3 183.078 360.3C184.398 360.3 185.058 359.973 185.058 359.32C185.058 359.013 184.878 358.793 184.518 358.66C184.158 358.527 183.605 358.413 182.858 358.32C181.978 358.187 181.252 358.033 180.678 357.86C180.105 357.687 179.605 357.38 179.178 356.94C178.765 356.5 178.558 355.873 178.558 355.06C178.558 354.38 178.752 353.78 179.138 353.26C179.538 352.727 180.112 352.313 180.858 352.02C181.618 351.727 182.512 351.58 183.538 351.58C184.298 351.58 185.052 351.667 185.798 351.84C186.558 352 187.185 352.227 187.678 352.52L186.638 354.74C185.692 354.207 184.658 353.94 183.538 353.94C182.872 353.94 182.372 354.033 182.038 354.22C181.705 354.407 181.538 354.647 181.538 354.94C181.538 355.273 181.718 355.507 182.078 355.64C182.438 355.773 183.012 355.9 183.798 356.02C184.678 356.167 185.398 356.327 185.958 356.5C186.518 356.66 187.005 356.96 187.418 357.4C187.832 357.84 188.038 358.453 188.038 359.24C188.038 359.907 187.838 360.5 187.438 361.02C187.038 361.54 186.452 361.947 185.678 362.24C184.918 362.52 184.012 362.66 182.958 362.66ZM201.335 351.8C202.361 351.8 203.281 352.027 204.095 352.48C204.908 352.933 205.541 353.567 205.995 354.38C206.461 355.193 206.695 356.133 206.695 357.2C206.695 358.267 206.461 359.213 205.995 360.04C205.541 360.853 204.908 361.487 204.095 361.94C203.281 362.393 202.361 362.62 201.335 362.62C200.575 362.62 199.875 362.473 199.235 362.18C198.608 361.887 198.075 361.46 197.635 360.9V366.38H195.715V351.9H197.555V353.58C197.981 352.993 198.521 352.553 199.175 352.26C199.828 351.953 200.548 351.8 201.335 351.8ZM201.175 360.94C201.855 360.94 202.461 360.787 202.995 360.48C203.541 360.16 203.968 359.72 204.275 359.16C204.595 358.587 204.755 357.933 204.755 357.2C204.755 356.467 204.595 355.82 204.275 355.26C203.968 354.687 203.541 354.247 202.995 353.94C202.461 353.633 201.855 353.48 201.175 353.48C200.508 353.48 199.901 353.64 199.355 353.96C198.821 354.267 198.395 354.7 198.075 355.26C197.768 355.82 197.615 356.467 197.615 357.2C197.615 357.933 197.768 358.587 198.075 359.16C198.381 359.72 198.808 360.16 199.355 360.48C199.901 360.787 200.508 360.94 201.175 360.94ZM218.927 357.26C218.927 357.407 218.914 357.6 218.887 357.84H210.287C210.407 358.773 210.814 359.527 211.507 360.1C212.214 360.66 213.087 360.94 214.127 360.94C215.394 360.94 216.414 360.513 217.187 359.66L218.247 360.9C217.767 361.46 217.167 361.887 216.447 362.18C215.741 362.473 214.947 362.62 214.067 362.62C212.947 362.62 211.954 362.393 211.087 361.94C210.221 361.473 209.547 360.827 209.067 360C208.601 359.173 208.367 358.24 208.367 357.2C208.367 356.173 208.594 355.247 209.047 354.42C209.514 353.593 210.147 352.953 210.947 352.5C211.761 352.033 212.674 351.8 213.687 351.8C214.701 351.8 215.601 352.033 216.387 352.5C217.187 352.953 217.807 353.593 218.247 354.42C218.701 355.247 218.927 356.193 218.927 357.26ZM213.687 353.42C212.767 353.42 211.994 353.7 211.367 354.26C210.754 354.82 210.394 355.553 210.287 356.46H217.087C216.981 355.567 216.614 354.84 215.987 354.28C215.374 353.707 214.607 353.42 213.687 353.42ZM223.433 353.68C223.767 353.067 224.26 352.6 224.913 352.28C225.567 351.96 226.36 351.8 227.293 351.8V353.66C227.187 353.647 227.04 353.64 226.853 353.64C225.813 353.64 224.993 353.953 224.393 354.58C223.807 355.193 223.513 356.073 223.513 357.22V362.5H221.593V351.9H223.433V353.68ZM251.208 351.9L247.248 362.5H245.408L242.348 354.46L239.248 362.5H237.408L233.468 351.9H235.288L238.368 360.34L241.568 351.9H243.188L246.328 360.38L249.488 351.9H251.208ZM262.443 357.26C262.443 357.407 262.43 357.6 262.403 357.84H253.803C253.923 358.773 254.33 359.527 255.023 360.1C255.73 360.66 256.603 360.94 257.643 360.94C258.91 360.94 259.93 360.513 260.703 359.66L261.763 360.9C261.283 361.46 260.683 361.887 259.963 362.18C259.256 362.473 258.463 362.62 257.583 362.62C256.463 362.62 255.47 362.393 254.603 361.94C253.736 361.473 253.063 360.827 252.583 360C252.116 359.173 251.883 358.24 251.883 357.2C251.883 356.173 252.11 355.247 252.563 354.42C253.03 353.593 253.663 352.953 254.463 352.5C255.276 352.033 256.19 351.8 257.203 351.8C258.216 351.8 259.116 352.033 259.903 352.5C260.703 352.953 261.323 353.593 261.763 354.42C262.216 355.247 262.443 356.193 262.443 357.26ZM257.203 353.42C256.283 353.42 255.51 353.7 254.883 354.26C254.27 354.82 253.91 355.553 253.803 356.46H260.603C260.496 355.567 260.13 354.84 259.503 354.28C258.89 353.707 258.123 353.42 257.203 353.42ZM274.689 357.26C274.689 357.407 274.676 357.6 274.649 357.84H266.049C266.169 358.773 266.576 359.527 267.269 360.1C267.976 360.66 268.849 360.94 269.889 360.94C271.156 360.94 272.176 360.513 272.949 359.66L274.009 360.9C273.529 361.46 272.929 361.887 272.209 362.18C271.502 362.473 270.709 362.62 269.829 362.62C268.709 362.62 267.716 362.393 266.849 361.94C265.982 361.473 265.309 360.827 264.829 360C264.362 359.173 264.129 358.24 264.129 357.2C264.129 356.173 264.356 355.247 264.809 354.42C265.276 353.593 265.909 352.953 266.709 352.5C267.522 352.033 268.436 351.8 269.449 351.8C270.462 351.8 271.362 352.033 272.149 352.5C272.949 352.953 273.569 353.593 274.009 354.42C274.462 355.247 274.689 356.193 274.689 357.26ZM269.449 353.42C268.529 353.42 267.756 353.7 267.129 354.26C266.516 354.82 266.156 355.553 266.049 356.46H272.849C272.742 355.567 272.376 354.84 271.749 354.28C271.136 353.707 270.369 353.42 269.449 353.42ZM281.475 357.56L279.275 359.6V362.5H277.355V347.66H279.275V357.18L285.055 351.9H287.375L282.915 356.28L287.815 362.5H285.455L281.475 357.56Z" fill="#1A1A1A"/>
<path d="M68.6668 459C68.6668 466.347 74.6401 472.333 82.0001 472.333C89.3468 472.333 95.3335 466.347 95.3335 459C95.3335 451.64 89.3468 445.667 82.0001 445.667C74.6401 445.667 68.6668 451.64 68.6668 459V459Z" fill="#130F26"/>
<rect x="77.0349" y="457.743" width="6.91934" height="2.30645" rx="1.15322" transform="rotate(45 77.0349 457.743)" fill="white"/>
<rect x="89.2668" y="455.297" width="12.6855" height="2.30645" rx="1.15322" transform="rotate(135 89.2668 455.297)" fill="white"/>
<path d="M123.02 462H115.58L114.04 465.5H111.98L118.32 451.5H120.3L126.66 465.5H124.56L123.02 462ZM122.32 460.4L119.3 453.54L116.28 460.4H122.32ZM132.991 465.62C131.911 465.62 130.944 465.387 130.091 464.92C129.251 464.453 128.591 463.813 128.111 463C127.631 462.173 127.391 461.24 127.391 460.2C127.391 459.16 127.631 458.233 128.111 457.42C128.591 456.593 129.251 455.953 130.091 455.5C130.944 455.033 131.911 454.8 132.991 454.8C133.951 454.8 134.804 454.993 135.551 455.38C136.311 455.767 136.897 456.327 137.311 457.06L135.851 458C135.517 457.493 135.104 457.113 134.611 456.86C134.117 456.607 133.571 456.48 132.971 456.48C132.277 456.48 131.651 456.633 131.091 456.94C130.544 457.247 130.111 457.687 129.791 458.26C129.484 458.82 129.331 459.467 129.331 460.2C129.331 460.947 129.484 461.607 129.791 462.18C130.111 462.74 130.544 463.173 131.091 463.48C131.651 463.787 132.277 463.94 132.971 463.94C133.571 463.94 134.117 463.813 134.611 463.56C135.104 463.307 135.517 462.927 135.851 462.42L137.311 463.34C136.897 464.073 136.311 464.64 135.551 465.04C134.804 465.427 133.951 465.62 132.991 465.62ZM144.26 465.62C143.18 465.62 142.214 465.387 141.36 464.92C140.52 464.453 139.86 463.813 139.38 463C138.9 462.173 138.66 461.24 138.66 460.2C138.66 459.16 138.9 458.233 139.38 457.42C139.86 456.593 140.52 455.953 141.36 455.5C142.214 455.033 143.18 454.8 144.26 454.8C145.22 454.8 146.074 454.993 146.82 455.38C147.58 455.767 148.167 456.327 148.58 457.06L147.12 458C146.787 457.493 146.374 457.113 145.88 456.86C145.387 456.607 144.84 456.48 144.24 456.48C143.547 456.48 142.92 456.633 142.36 456.94C141.814 457.247 141.38 457.687 141.06 458.26C140.754 458.82 140.6 459.467 140.6 460.2C140.6 460.947 140.754 461.607 141.06 462.18C141.38 462.74 141.814 463.173 142.36 463.48C142.92 463.787 143.547 463.94 144.24 463.94C144.84 463.94 145.387 463.813 145.88 463.56C146.374 463.307 146.787 462.927 147.12 462.42L148.58 463.34C148.167 464.073 147.58 464.64 146.82 465.04C146.074 465.427 145.22 465.62 144.26 465.62ZM155.45 465.62C154.397 465.62 153.45 465.387 152.61 464.92C151.77 464.453 151.11 463.813 150.63 463C150.163 462.173 149.93 461.24 149.93 460.2C149.93 459.16 150.163 458.233 150.63 457.42C151.11 456.593 151.77 455.953 152.61 455.5C153.45 455.033 154.397 454.8 155.45 454.8C156.503 454.8 157.443 455.033 158.27 455.5C159.11 455.953 159.763 456.593 160.23 457.42C160.71 458.233 160.95 459.16 160.95 460.2C160.95 461.24 160.71 462.173 160.23 463C159.763 463.813 159.11 464.453 158.27 464.92C157.443 465.387 156.503 465.62 155.45 465.62ZM155.45 463.94C156.13 463.94 156.737 463.787 157.27 463.48C157.817 463.16 158.243 462.72 158.55 462.16C158.857 461.587 159.01 460.933 159.01 460.2C159.01 459.467 158.857 458.82 158.55 458.26C158.243 457.687 157.817 457.247 157.27 456.94C156.737 456.633 156.13 456.48 155.45 456.48C154.77 456.48 154.157 456.633 153.61 456.94C153.077 457.247 152.65 457.687 152.33 458.26C152.023 458.82 151.87 459.467 151.87 460.2C151.87 460.933 152.023 461.587 152.33 462.16C152.65 462.72 153.077 463.16 153.61 463.48C154.157 463.787 154.77 463.94 155.45 463.94ZM173.485 454.9V465.5H171.665V463.9C171.278 464.447 170.765 464.873 170.125 465.18C169.498 465.473 168.812 465.62 168.065 465.62C166.652 465.62 165.538 465.233 164.725 464.46C163.912 463.673 163.505 462.52 163.505 461V454.9H165.425V460.78C165.425 461.807 165.672 462.587 166.165 463.12C166.658 463.64 167.365 463.9 168.285 463.9C169.298 463.9 170.098 463.593 170.685 462.98C171.272 462.367 171.565 461.5 171.565 460.38V454.9H173.485ZM182.8 454.8C184.147 454.8 185.214 455.193 186 455.98C186.8 456.753 187.2 457.893 187.2 459.4V465.5H185.28V459.62C185.28 458.593 185.034 457.82 184.54 457.3C184.047 456.78 183.34 456.52 182.42 456.52C181.38 456.52 180.56 456.827 179.96 457.44C179.36 458.04 179.06 458.907 179.06 460.04V465.5H177.14V454.9H178.98V456.5C179.367 455.953 179.887 455.533 180.54 455.24C181.207 454.947 181.96 454.8 182.8 454.8ZM196.714 464.88C196.434 465.12 196.087 465.307 195.674 465.44C195.26 465.56 194.834 465.62 194.394 465.62C193.327 465.62 192.5 465.333 191.914 464.76C191.327 464.187 191.034 463.367 191.034 462.3V456.48H189.234V454.9H191.034V452.58H192.954V454.9H195.994V456.48H192.954V462.22C192.954 462.793 193.094 463.233 193.374 463.54C193.667 463.847 194.08 464 194.614 464C195.2 464 195.7 463.833 196.114 463.5L196.714 464.88ZM217.666 454.8C218.999 454.8 220.053 455.187 220.826 455.96C221.613 456.733 222.006 457.88 222.006 459.4V465.5H220.086V459.62C220.086 458.593 219.846 457.82 219.366 457.3C218.899 456.78 218.226 456.52 217.346 456.52C216.373 456.52 215.599 456.827 215.026 457.44C214.453 458.04 214.166 458.907 214.166 460.04V465.5H212.246V459.62C212.246 458.593 212.006 457.82 211.526 457.3C211.059 456.78 210.386 456.52 209.506 456.52C208.533 456.52 207.759 456.827 207.186 457.44C206.613 458.04 206.326 458.907 206.326 460.04V465.5H204.406V454.9H206.246V456.48C206.633 455.933 207.139 455.52 207.766 455.24C208.393 454.947 209.106 454.8 209.906 454.8C210.733 454.8 211.466 454.967 212.106 455.3C212.746 455.633 213.239 456.12 213.586 456.76C213.986 456.147 214.539 455.667 215.246 455.32C215.966 454.973 216.773 454.8 217.666 454.8ZM229.399 454.8C230.865 454.8 231.985 455.16 232.759 455.88C233.545 456.6 233.939 457.673 233.939 459.1V465.5H232.119V464.1C231.799 464.593 231.339 464.973 230.739 465.24C230.152 465.493 229.452 465.62 228.639 465.62C227.452 465.62 226.499 465.333 225.779 464.76C225.072 464.187 224.719 463.433 224.719 462.5C224.719 461.567 225.059 460.82 225.739 460.26C226.419 459.687 227.499 459.4 228.979 459.4H232.019V459.02C232.019 458.193 231.779 457.56 231.299 457.12C230.819 456.68 230.112 456.46 229.179 456.46C228.552 456.46 227.939 456.567 227.339 456.78C226.739 456.98 226.232 457.253 225.819 457.6L225.019 456.16C225.565 455.72 226.219 455.387 226.979 455.16C227.739 454.92 228.545 454.8 229.399 454.8ZM228.959 464.14C229.692 464.14 230.325 463.98 230.859 463.66C231.392 463.327 231.779 462.86 232.019 462.26V460.78H229.059C227.432 460.78 226.619 461.327 226.619 462.42C226.619 462.953 226.825 463.373 227.239 463.68C227.652 463.987 228.225 464.14 228.959 464.14ZM243.152 454.8C244.499 454.8 245.565 455.193 246.352 455.98C247.152 456.753 247.552 457.893 247.552 459.4V465.5H245.632V459.62C245.632 458.593 245.385 457.82 244.892 457.3C244.399 456.78 243.692 456.52 242.772 456.52C241.732 456.52 240.912 456.827 240.312 457.44C239.712 458.04 239.412 458.907 239.412 460.04V465.5H237.492V454.9H239.332V456.5C239.719 455.953 240.239 455.533 240.892 455.24C241.559 454.947 242.312 454.8 243.152 454.8ZM254.965 454.8C256.432 454.8 257.552 455.16 258.325 455.88C259.112 456.6 259.505 457.673 259.505 459.1V465.5H257.685V464.1C257.365 464.593 256.905 464.973 256.305 465.24C255.718 465.493 255.018 465.62 254.205 465.62C253.018 465.62 252.065 465.333 251.345 464.76C250.638 464.187 250.285 463.433 250.285 462.5C250.285 461.567 250.625 460.82 251.305 460.26C251.985 459.687 253.065 459.4 254.545 459.4H257.585V459.02C257.585 458.193 257.345 457.56 256.865 457.12C256.385 456.68 255.678 456.46 254.745 456.46C254.118 456.46 253.505 456.567 252.905 456.78C252.305 456.98 251.798 457.253 251.385 457.6L250.585 456.16C251.132 455.72 251.785 455.387 252.545 455.16C253.305 454.92 254.112 454.8 254.965 454.8ZM254.525 464.14C255.258 464.14 255.892 463.98 256.425 463.66C256.958 463.327 257.345 462.86 257.585 462.26V460.78H254.625C252.998 460.78 252.185 461.327 252.185 462.42C252.185 462.953 252.392 463.373 252.805 463.68C253.218 463.987 253.792 464.14 254.525 464.14ZM273.257 454.9V464.06C273.257 465.913 272.797 467.28 271.877 468.16C270.957 469.053 269.584 469.5 267.757 469.5C266.757 469.5 265.804 469.36 264.897 469.08C263.99 468.813 263.257 468.427 262.697 467.92L263.617 466.44C264.11 466.867 264.717 467.2 265.437 467.44C266.17 467.693 266.924 467.82 267.697 467.82C268.937 467.82 269.85 467.527 270.437 466.94C271.037 466.353 271.337 465.46 271.337 464.26V463.42C270.884 463.967 270.324 464.38 269.657 464.66C269.004 464.927 268.29 465.06 267.517 465.06C266.504 465.06 265.584 464.847 264.757 464.42C263.944 463.98 263.304 463.373 262.837 462.6C262.37 461.813 262.137 460.92 262.137 459.92C262.137 458.92 262.37 458.033 262.837 457.26C263.304 456.473 263.944 455.867 264.757 455.44C265.584 455.013 266.504 454.8 267.517 454.8C268.317 454.8 269.057 454.947 269.737 455.24C270.43 455.533 270.997 455.967 271.437 456.54V454.9H273.257ZM267.737 463.38C268.43 463.38 269.05 463.233 269.597 462.94C270.157 462.647 270.59 462.24 270.897 461.72C271.217 461.187 271.377 460.587 271.377 459.92C271.377 458.893 271.037 458.067 270.357 457.44C269.677 456.8 268.804 456.48 267.737 456.48C266.657 456.48 265.777 456.8 265.097 457.44C264.417 458.067 264.077 458.893 264.077 459.92C264.077 460.587 264.23 461.187 264.537 461.72C264.857 462.24 265.29 462.647 265.837 462.94C266.397 463.233 267.03 463.38 267.737 463.38ZM286.505 460.26C286.505 460.407 286.492 460.6 286.465 460.84H277.865C277.985 461.773 278.392 462.527 279.085 463.1C279.792 463.66 280.665 463.94 281.705 463.94C282.972 463.94 283.992 463.513 284.765 462.66L285.825 463.9C285.345 464.46 284.745 464.887 284.025 465.18C283.319 465.473 282.525 465.62 281.645 465.62C280.525 465.62 279.532 465.393 278.665 464.94C277.799 464.473 277.125 463.827 276.645 463C276.179 462.173 275.945 461.24 275.945 460.2C275.945 459.173 276.172 458.247 276.625 457.42C277.092 456.593 277.725 455.953 278.525 455.5C279.339 455.033 280.252 454.8 281.265 454.8C282.279 454.8 283.179 455.033 283.965 455.5C284.765 455.953 285.385 456.593 285.825 457.42C286.279 458.247 286.505 459.193 286.505 460.26ZM281.265 456.42C280.345 456.42 279.572 456.7 278.945 457.26C278.332 457.82 277.972 458.553 277.865 459.46H284.665C284.559 458.567 284.192 457.84 283.565 457.28C282.952 456.707 282.185 456.42 281.265 456.42ZM302.432 454.8C303.765 454.8 304.818 455.187 305.592 455.96C306.378 456.733 306.772 457.88 306.772 459.4V465.5H304.852V459.62C304.852 458.593 304.612 457.82 304.132 457.3C303.665 456.78 302.992 456.52 302.112 456.52C301.138 456.52 300.365 456.827 299.792 457.44C299.218 458.04 298.932 458.907 298.932 460.04V465.5H297.012V459.62C297.012 458.593 296.772 457.82 296.292 457.3C295.825 456.78 295.152 456.52 294.272 456.52C293.298 456.52 292.525 456.827 291.952 457.44C291.378 458.04 291.092 458.907 291.092 460.04V465.5H289.172V454.9H291.012V456.48C291.398 455.933 291.905 455.52 292.532 455.24C293.158 454.947 293.872 454.8 294.672 454.8C295.498 454.8 296.232 454.967 296.872 455.3C297.512 455.633 298.005 456.12 298.352 456.76C298.752 456.147 299.305 455.667 300.012 455.32C300.732 454.973 301.538 454.8 302.432 454.8ZM319.943 460.26C319.943 460.407 319.93 460.6 319.903 460.84H311.303C311.423 461.773 311.83 462.527 312.523 463.1C313.23 463.66 314.103 463.94 315.143 463.94C316.41 463.94 317.43 463.513 318.203 462.66L319.263 463.9C318.783 464.46 318.183 464.887 317.463 465.18C316.756 465.473 315.963 465.62 315.083 465.62C313.963 465.62 312.97 465.393 312.103 464.94C311.236 464.473 310.563 463.827 310.083 463C309.616 462.173 309.383 461.24 309.383 460.2C309.383 459.173 309.61 458.247 310.063 457.42C310.53 456.593 311.163 455.953 311.963 455.5C312.776 455.033 313.69 454.8 314.703 454.8C315.716 454.8 316.616 455.033 317.403 455.5C318.203 455.953 318.823 456.593 319.263 457.42C319.716 458.247 319.943 459.193 319.943 460.26ZM314.703 456.42C313.783 456.42 313.01 456.7 312.383 457.26C311.77 457.82 311.41 458.553 311.303 459.46H318.103C317.996 458.567 317.63 457.84 317.003 457.28C316.39 456.707 315.623 456.42 314.703 456.42ZM328.269 454.8C329.616 454.8 330.682 455.193 331.469 455.98C332.269 456.753 332.669 457.893 332.669 459.4V465.5H330.749V459.62C330.749 458.593 330.502 457.82 330.009 457.3C329.516 456.78 328.809 456.52 327.889 456.52C326.849 456.52 326.029 456.827 325.429 457.44C324.829 458.04 324.529 458.907 324.529 460.04V465.5H322.609V454.9H324.449V456.5C324.836 455.953 325.356 455.533 326.009 455.24C326.676 454.947 327.429 454.8 328.269 454.8ZM342.182 464.88C341.902 465.12 341.556 465.307 341.142 465.44C340.729 465.56 340.302 465.62 339.862 465.62C338.796 465.62 337.969 465.333 337.382 464.76C336.796 464.187 336.502 463.367 336.502 462.3V456.48H334.702V454.9H336.502V452.58H338.422V454.9H341.462V456.48H338.422V462.22C338.422 462.793 338.562 463.233 338.842 463.54C339.136 463.847 339.549 464 340.082 464C340.669 464 341.169 463.833 341.582 463.5L342.182 464.88ZM358.355 459.3H354.715V462.88H353.035V459.3H349.395V457.72H353.035V454.12H354.715V457.72H358.355V459.3ZM123.02 486H115.58L114.04 489.5H111.98L118.32 475.5H120.3L126.66 489.5H124.56L123.02 486ZM122.32 484.4L119.3 477.54L116.28 484.4H122.32ZM138.153 478.9V489.5H136.333V487.9C135.946 488.447 135.433 488.873 134.793 489.18C134.166 489.473 133.48 489.62 132.733 489.62C131.32 489.62 130.206 489.233 129.393 488.46C128.58 487.673 128.173 486.52 128.173 485V478.9H130.093V484.78C130.093 485.807 130.34 486.587 130.833 487.12C131.326 487.64 132.033 487.9 132.953 487.9C133.966 487.9 134.766 487.593 135.353 486.98C135.94 486.367 136.233 485.5 136.233 484.38V478.9H138.153ZM147.768 488.88C147.488 489.12 147.142 489.307 146.728 489.44C146.315 489.56 145.888 489.62 145.448 489.62C144.382 489.62 143.555 489.333 142.968 488.76C142.382 488.187 142.088 487.367 142.088 486.3V480.48H140.288V478.9H142.088V476.58H144.008V478.9H147.048V480.48H144.008V486.22C144.008 486.793 144.148 487.233 144.428 487.54C144.722 487.847 145.135 488 145.668 488C146.255 488 146.755 487.833 147.168 487.5L147.768 488.88ZM154.278 489.62C153.225 489.62 152.278 489.387 151.438 488.92C150.598 488.453 149.938 487.813 149.458 487C148.991 486.173 148.758 485.24 148.758 484.2C148.758 483.16 148.991 482.233 149.458 481.42C149.938 480.593 150.598 479.953 151.438 479.5C152.278 479.033 153.225 478.8 154.278 478.8C155.331 478.8 156.271 479.033 157.098 479.5C157.938 479.953 158.591 480.593 159.058 481.42C159.538 482.233 159.778 483.16 159.778 484.2C159.778 485.24 159.538 486.173 159.058 487C158.591 487.813 157.938 488.453 157.098 488.92C156.271 489.387 155.331 489.62 154.278 489.62ZM154.278 487.94C154.958 487.94 155.565 487.787 156.098 487.48C156.645 487.16 157.071 486.72 157.378 486.16C157.685 485.587 157.838 484.933 157.838 484.2C157.838 483.467 157.685 482.82 157.378 482.26C157.071 481.687 156.645 481.247 156.098 480.94C155.565 480.633 154.958 480.48 154.278 480.48C153.598 480.48 152.985 480.633 152.438 480.94C151.905 481.247 151.478 481.687 151.158 482.26C150.851 482.82 150.698 483.467 150.698 484.2C150.698 484.933 150.851 485.587 151.158 486.16C151.478 486.72 151.905 487.16 152.438 487.48C152.985 487.787 153.598 487.94 154.278 487.94ZM175.693 478.8C177.027 478.8 178.08 479.187 178.853 479.96C179.64 480.733 180.033 481.88 180.033 483.4V489.5H178.113V483.62C178.113 482.593 177.873 481.82 177.393 481.3C176.927 480.78 176.253 480.52 175.373 480.52C174.4 480.52 173.627 480.827 173.053 481.44C172.48 482.04 172.193 482.907 172.193 484.04V489.5H170.273V483.62C170.273 482.593 170.033 481.82 169.553 481.3C169.087 480.78 168.413 480.52 167.533 480.52C166.56 480.52 165.787 480.827 165.213 481.44C164.64 482.04 164.353 482.907 164.353 484.04V489.5H162.433V478.9H164.273V480.48C164.66 479.933 165.167 479.52 165.793 479.24C166.42 478.947 167.133 478.8 167.933 478.8C168.76 478.8 169.493 478.967 170.133 479.3C170.773 479.633 171.267 480.12 171.613 480.76C172.013 480.147 172.567 479.667 173.273 479.32C173.993 478.973 174.8 478.8 175.693 478.8ZM187.426 478.8C188.893 478.8 190.013 479.16 190.786 479.88C191.573 480.6 191.966 481.673 191.966 483.1V489.5H190.146V488.1C189.826 488.593 189.366 488.973 188.766 489.24C188.179 489.493 187.479 489.62 186.666 489.62C185.479 489.62 184.526 489.333 183.806 488.76C183.099 488.187 182.746 487.433 182.746 486.5C182.746 485.567 183.086 484.82 183.766 484.26C184.446 483.687 185.526 483.4 187.006 483.4H190.046V483.02C190.046 482.193 189.806 481.56 189.326 481.12C188.846 480.68 188.139 480.46 187.206 480.46C186.579 480.46 185.966 480.567 185.366 480.78C184.766 480.98 184.259 481.253 183.846 481.6L183.046 480.16C183.593 479.72 184.246 479.387 185.006 479.16C185.766 478.92 186.573 478.8 187.426 478.8ZM186.986 488.14C187.719 488.14 188.353 487.98 188.886 487.66C189.419 487.327 189.806 486.86 190.046 486.26V484.78H187.086C185.459 484.78 184.646 485.327 184.646 486.42C184.646 486.953 184.853 487.373 185.266 487.68C185.679 487.987 186.253 488.14 186.986 488.14ZM201.479 488.88C201.199 489.12 200.853 489.307 200.439 489.44C200.026 489.56 199.599 489.62 199.159 489.62C198.093 489.62 197.266 489.333 196.679 488.76C196.093 488.187 195.799 487.367 195.799 486.3V480.48H193.999V478.9H195.799V476.58H197.719V478.9H200.759V480.48H197.719V486.22C197.719 486.793 197.859 487.233 198.139 487.54C198.433 487.847 198.846 488 199.379 488C199.966 488 200.466 487.833 200.879 487.5L201.479 488.88ZM203.8 478.9H205.72V489.5H203.8V478.9ZM204.76 476.86C204.387 476.86 204.074 476.74 203.82 476.5C203.58 476.26 203.46 475.967 203.46 475.62C203.46 475.273 203.58 474.98 203.82 474.74C204.074 474.487 204.387 474.36 204.76 474.36C205.134 474.36 205.44 474.48 205.68 474.72C205.934 474.947 206.06 475.233 206.06 475.58C206.06 475.94 205.934 476.247 205.68 476.5C205.44 476.74 205.134 476.86 204.76 476.86ZM213.926 489.62C212.873 489.62 211.926 489.387 211.086 488.92C210.246 488.453 209.586 487.813 209.106 487C208.64 486.173 208.406 485.24 208.406 484.2C208.406 483.16 208.64 482.233 209.106 481.42C209.586 480.593 210.246 479.953 211.086 479.5C211.926 479.033 212.873 478.8 213.926 478.8C214.98 478.8 215.92 479.033 216.746 479.5C217.586 479.953 218.24 480.593 218.706 481.42C219.186 482.233 219.426 483.16 219.426 484.2C219.426 485.24 219.186 486.173 218.706 487C218.24 487.813 217.586 488.453 216.746 488.92C215.92 489.387 214.98 489.62 213.926 489.62ZM213.926 487.94C214.606 487.94 215.213 487.787 215.746 487.48C216.293 487.16 216.72 486.72 217.026 486.16C217.333 485.587 217.486 484.933 217.486 484.2C217.486 483.467 217.333 482.82 217.026 482.26C216.72 481.687 216.293 481.247 215.746 480.94C215.213 480.633 214.606 480.48 213.926 480.48C213.246 480.48 212.633 480.633 212.086 480.94C211.553 481.247 211.126 481.687 210.806 482.26C210.5 482.82 210.346 483.467 210.346 484.2C210.346 484.933 210.5 485.587 210.806 486.16C211.126 486.72 211.553 487.16 212.086 487.48C212.633 487.787 213.246 487.94 213.926 487.94ZM227.742 478.8C229.088 478.8 230.155 479.193 230.942 479.98C231.742 480.753 232.142 481.893 232.142 483.4V489.5H230.222V483.62C230.222 482.593 229.975 481.82 229.482 481.3C228.988 480.78 228.282 480.52 227.362 480.52C226.322 480.52 225.502 480.827 224.902 481.44C224.302 482.04 224.002 482.907 224.002 484.04V489.5H222.082V478.9H223.922V480.5C224.308 479.953 224.828 479.533 225.482 479.24C226.148 478.947 226.902 478.8 227.742 478.8Z" fill="#1A1A1A"/>
<path d="M68.6668 407C68.6668 414.347 74.6401 420.333 82.0001 420.333C89.3468 420.333 95.3335 414.347 95.3335 407C95.3335 399.64 89.3468 393.667 82.0001 393.667C74.6401 393.667 68.6668 399.64 68.6668 407V407Z" fill="#130F26"/>
<rect x="77.0349" y="405.743" width="6.91934" height="2.30645" rx="1.15322" transform="rotate(45 77.0349 405.743)" fill="white"/>
<rect x="89.2668" y="403.297" width="12.6855" height="2.30645" rx="1.15322" transform="rotate(135 89.2668 403.297)" fill="white"/>
<path d="M114.1 400.5H116.1V414.5H114.1V400.5ZM125.671 403.8C127.018 403.8 128.085 404.193 128.871 404.98C129.671 405.753 130.071 406.893 130.071 408.4V414.5H128.151V408.62C128.151 407.593 127.905 406.82 127.411 406.3C126.918 405.78 126.211 405.52 125.291 405.52C124.251 405.52 123.431 405.827 122.831 406.44C122.231 407.04 121.931 407.907 121.931 409.04V414.5H120.011V403.9H121.851V405.5C122.238 404.953 122.758 404.533 123.411 404.24C124.078 403.947 124.831 403.8 125.671 403.8ZM136.665 414.62C135.798 414.62 134.965 414.507 134.165 414.28C133.365 414.04 132.738 413.74 132.285 413.38L133.085 411.86C133.551 412.193 134.118 412.46 134.785 412.66C135.451 412.86 136.125 412.96 136.805 412.96C138.485 412.96 139.325 412.48 139.325 411.52C139.325 411.2 139.211 410.947 138.985 410.76C138.758 410.573 138.471 410.44 138.125 410.36C137.791 410.267 137.311 410.167 136.685 410.06C135.831 409.927 135.131 409.773 134.585 409.6C134.051 409.427 133.591 409.133 133.205 408.72C132.818 408.307 132.625 407.727 132.625 406.98C132.625 406.02 133.025 405.253 133.825 404.68C134.625 404.093 135.698 403.8 137.045 403.8C137.751 403.8 138.458 403.887 139.165 404.06C139.871 404.233 140.451 404.467 140.905 404.76L140.085 406.28C139.218 405.72 138.198 405.44 137.025 405.44C136.211 405.44 135.591 405.573 135.165 405.84C134.738 406.107 134.525 406.46 134.525 406.9C134.525 407.247 134.645 407.52 134.885 407.72C135.125 407.92 135.418 408.067 135.765 408.16C136.125 408.253 136.625 408.36 137.265 408.48C138.118 408.627 138.805 408.787 139.325 408.96C139.858 409.12 140.311 409.4 140.685 409.8C141.058 410.2 141.245 410.76 141.245 411.48C141.245 412.44 140.831 413.207 140.005 413.78C139.191 414.34 138.078 414.62 136.665 414.62ZM149.604 413.88C149.324 414.12 148.978 414.307 148.564 414.44C148.151 414.56 147.724 414.62 147.284 414.62C146.218 414.62 145.391 414.333 144.804 413.76C144.218 413.187 143.924 412.367 143.924 411.3V405.48H142.124V403.9H143.924V401.58H145.844V403.9H148.884V405.48H145.844V411.22C145.844 411.793 145.984 412.233 146.264 412.54C146.558 412.847 146.971 413 147.504 413C148.091 413 148.591 412.833 149.004 412.5L149.604 413.88ZM155.785 403.8C157.252 403.8 158.372 404.16 159.145 404.88C159.932 405.6 160.325 406.673 160.325 408.1V414.5H158.505V413.1C158.185 413.593 157.725 413.973 157.125 414.24C156.539 414.493 155.839 414.62 155.025 414.62C153.839 414.62 152.885 414.333 152.165 413.76C151.459 413.187 151.105 412.433 151.105 411.5C151.105 410.567 151.445 409.82 152.125 409.26C152.805 408.687 153.885 408.4 155.365 408.4H158.405V408.02C158.405 407.193 158.165 406.56 157.685 406.12C157.205 405.68 156.499 405.46 155.565 405.46C154.939 405.46 154.325 405.567 153.725 405.78C153.125 405.98 152.619 406.253 152.205 406.6L151.405 405.16C151.952 404.72 152.605 404.387 153.365 404.16C154.125 403.92 154.932 403.8 155.785 403.8ZM155.345 413.14C156.079 413.14 156.712 412.98 157.245 412.66C157.779 412.327 158.165 411.86 158.405 411.26V409.78H155.445C153.819 409.78 153.005 410.327 153.005 411.42C153.005 411.953 153.212 412.373 153.625 412.68C154.039 412.987 154.612 413.14 155.345 413.14ZM174.077 403.9V413.06C174.077 414.913 173.617 416.28 172.697 417.16C171.777 418.053 170.404 418.5 168.577 418.5C167.577 418.5 166.624 418.36 165.717 418.08C164.811 417.813 164.077 417.427 163.517 416.92L164.437 415.44C164.931 415.867 165.537 416.2 166.257 416.44C166.991 416.693 167.744 416.82 168.517 416.82C169.757 416.82 170.671 416.527 171.257 415.94C171.857 415.353 172.157 414.46 172.157 413.26V412.42C171.704 412.967 171.144 413.38 170.477 413.66C169.824 413.927 169.111 414.06 168.337 414.06C167.324 414.06 166.404 413.847 165.577 413.42C164.764 412.98 164.124 412.373 163.657 411.6C163.191 410.813 162.957 409.92 162.957 408.92C162.957 407.92 163.191 407.033 163.657 406.26C164.124 405.473 164.764 404.867 165.577 404.44C166.404 404.013 167.324 403.8 168.337 403.8C169.137 403.8 169.877 403.947 170.557 404.24C171.251 404.533 171.817 404.967 172.257 405.54V403.9H174.077ZM168.557 412.38C169.251 412.38 169.871 412.233 170.417 411.94C170.977 411.647 171.411 411.24 171.717 410.72C172.037 410.187 172.197 409.587 172.197 408.92C172.197 407.893 171.857 407.067 171.177 406.44C170.497 405.8 169.624 405.48 168.557 405.48C167.477 405.48 166.597 405.8 165.917 406.44C165.237 407.067 164.897 407.893 164.897 408.92C164.897 409.587 165.051 410.187 165.357 410.72C165.677 411.24 166.111 411.647 166.657 411.94C167.217 412.233 167.851 412.38 168.557 412.38ZM179.586 405.68C179.919 405.067 180.412 404.6 181.066 404.28C181.719 403.96 182.512 403.8 183.446 403.8V405.66C183.339 405.647 183.192 405.64 183.006 405.64C181.966 405.64 181.146 405.953 180.546 406.58C179.959 407.193 179.666 408.073 179.666 409.22V414.5H177.746V403.9H179.586V405.68ZM189.653 403.8C191.119 403.8 192.239 404.16 193.013 404.88C193.799 405.6 194.193 406.673 194.193 408.1V414.5H192.373V413.1C192.053 413.593 191.593 413.973 190.993 414.24C190.406 414.493 189.706 414.62 188.893 414.62C187.706 414.62 186.753 414.333 186.033 413.76C185.326 413.187 184.973 412.433 184.973 411.5C184.973 410.567 185.313 409.82 185.993 409.26C186.673 408.687 187.753 408.4 189.233 408.4H192.273V408.02C192.273 407.193 192.033 406.56 191.553 406.12C191.073 405.68 190.366 405.46 189.433 405.46C188.806 405.46 188.193 405.567 187.593 405.78C186.993 405.98 186.486 406.253 186.073 406.6L185.273 405.16C185.819 404.72 186.473 404.387 187.233 404.16C187.993 403.92 188.799 403.8 189.653 403.8ZM189.213 413.14C189.946 413.14 190.579 412.98 191.113 412.66C191.646 412.327 192.033 411.86 192.273 411.26V409.78H189.313C187.686 409.78 186.873 410.327 186.873 411.42C186.873 411.953 187.079 412.373 187.493 412.68C187.906 412.987 188.479 413.14 189.213 413.14ZM211.006 403.8C212.339 403.8 213.392 404.187 214.166 404.96C214.952 405.733 215.346 406.88 215.346 408.4V414.5H213.426V408.62C213.426 407.593 213.186 406.82 212.706 406.3C212.239 405.78 211.566 405.52 210.686 405.52C209.712 405.52 208.939 405.827 208.366 406.44C207.792 407.04 207.506 407.907 207.506 409.04V414.5H205.586V408.62C205.586 407.593 205.346 406.82 204.866 406.3C204.399 405.78 203.726 405.52 202.846 405.52C201.872 405.52 201.099 405.827 200.526 406.44C199.952 407.04 199.666 407.907 199.666 409.04V414.5H197.746V403.9H199.586V405.48C199.972 404.933 200.479 404.52 201.106 404.24C201.732 403.947 202.446 403.8 203.246 403.8C204.072 403.8 204.806 403.967 205.446 404.3C206.086 404.633 206.579 405.12 206.926 405.76C207.326 405.147 207.879 404.667 208.586 404.32C209.306 403.973 210.112 403.8 211.006 403.8ZM226.71 418.38C225.95 417.153 225.363 415.747 224.95 414.16C224.536 412.56 224.33 410.847 224.33 409.02C224.33 407.193 224.536 405.48 224.95 403.88C225.363 402.267 225.95 400.86 226.71 399.66H228.53C227.73 401.06 227.143 402.527 226.77 404.06C226.396 405.593 226.21 407.247 226.21 409.02C226.21 410.793 226.396 412.447 226.77 413.98C227.143 415.513 227.73 416.98 228.53 418.38H226.71ZM239.928 408.72H236.448V412.12H233.868V408.72H230.408V406.28H233.868V402.88H236.448V406.28H239.928V408.72ZM251.191 414.5L247.811 409.64L244.491 414.5H240.771L245.951 407.38L241.031 400.5H244.711L247.931 405.04L251.091 400.5H254.591L249.711 407.26L254.931 414.5H251.191ZM266.719 414.62C265.666 414.62 264.719 414.387 263.879 413.92C263.039 413.453 262.379 412.813 261.899 412C261.433 411.173 261.199 410.24 261.199 409.2C261.199 408.16 261.433 407.233 261.899 406.42C262.379 405.593 263.039 404.953 263.879 404.5C264.719 404.033 265.666 403.8 266.719 403.8C267.773 403.8 268.713 404.033 269.539 404.5C270.379 404.953 271.033 405.593 271.499 406.42C271.979 407.233 272.219 408.16 272.219 409.2C272.219 410.24 271.979 411.173 271.499 412C271.033 412.813 270.379 413.453 269.539 413.92C268.713 414.387 267.773 414.62 266.719 414.62ZM266.719 412.94C267.399 412.94 268.006 412.787 268.539 412.48C269.086 412.16 269.513 411.72 269.819 411.16C270.126 410.587 270.279 409.933 270.279 409.2C270.279 408.467 270.126 407.82 269.819 407.26C269.513 406.687 269.086 406.247 268.539 405.94C268.006 405.633 267.399 405.48 266.719 405.48C266.039 405.48 265.426 405.633 264.879 405.94C264.346 406.247 263.919 406.687 263.599 407.26C263.293 407.82 263.139 408.467 263.139 409.2C263.139 409.933 263.293 410.587 263.599 411.16C263.919 411.72 264.346 412.16 264.879 412.48C265.426 412.787 266.039 412.94 266.719 412.94ZM280.835 413.88C280.555 414.12 280.208 414.307 279.795 414.44C279.381 414.56 278.955 414.62 278.515 414.62C277.448 414.62 276.621 414.333 276.035 413.76C275.448 413.187 275.155 412.367 275.155 411.3V405.48H273.355V403.9H275.155V401.58H277.075V403.9H280.115V405.48H277.075V411.22C277.075 411.793 277.215 412.233 277.495 412.54C277.788 412.847 278.201 413 278.735 413C279.321 413 279.821 412.833 280.235 412.5L280.835 413.88ZM288.816 403.8C290.163 403.8 291.229 404.193 292.016 404.98C292.816 405.753 293.216 406.893 293.216 408.4V414.5H291.296V408.62C291.296 407.593 291.049 406.82 290.556 406.3C290.063 405.78 289.356 405.52 288.436 405.52C287.396 405.52 286.576 405.827 285.976 406.44C285.376 407.04 285.076 407.907 285.076 409.04V414.5H283.156V399.66H285.076V405.4C285.476 404.893 285.996 404.5 286.636 404.22C287.289 403.94 288.016 403.8 288.816 403.8ZM306.408 409.26C306.408 409.407 306.394 409.6 306.368 409.84H297.768C297.888 410.773 298.294 411.527 298.988 412.1C299.694 412.66 300.568 412.94 301.608 412.94C302.874 412.94 303.894 412.513 304.668 411.66L305.728 412.9C305.248 413.46 304.648 413.887 303.928 414.18C303.221 414.473 302.428 414.62 301.548 414.62C300.428 414.62 299.434 414.393 298.568 413.94C297.701 413.473 297.028 412.827 296.548 412C296.081 411.173 295.848 410.24 295.848 409.2C295.848 408.173 296.074 407.247 296.528 406.42C296.994 405.593 297.628 404.953 298.428 404.5C299.241 404.033 300.154 403.8 301.168 403.8C302.181 403.8 303.081 404.033 303.868 404.5C304.668 404.953 305.288 405.593 305.728 406.42C306.181 407.247 306.408 408.193 306.408 409.26ZM301.168 405.42C300.248 405.42 299.474 405.7 298.848 406.26C298.234 406.82 297.874 407.553 297.768 408.46H304.568C304.461 407.567 304.094 406.84 303.468 406.28C302.854 405.707 302.088 405.42 301.168 405.42ZM310.914 405.68C311.247 405.067 311.741 404.6 312.394 404.28C313.047 403.96 313.841 403.8 314.774 403.8V405.66C314.667 405.647 314.521 405.64 314.334 405.64C313.294 405.64 312.474 405.953 311.874 406.58C311.287 407.193 310.994 408.073 310.994 409.22V414.5H309.074V403.9H310.914V405.68ZM328.268 403.8C329.295 403.8 330.215 404.027 331.028 404.48C331.841 404.933 332.475 405.567 332.928 406.38C333.395 407.193 333.628 408.133 333.628 409.2C333.628 410.267 333.395 411.213 332.928 412.04C332.475 412.853 331.841 413.487 331.028 413.94C330.215 414.393 329.295 414.62 328.268 414.62C327.508 414.62 326.808 414.473 326.168 414.18C325.541 413.887 325.008 413.46 324.568 412.9V418.38H322.648V403.9H324.488V405.58C324.915 404.993 325.455 404.553 326.108 404.26C326.761 403.953 327.481 403.8 328.268 403.8ZM328.108 412.94C328.788 412.94 329.395 412.787 329.928 412.48C330.475 412.16 330.901 411.72 331.208 411.16C331.528 410.587 331.688 409.933 331.688 409.2C331.688 408.467 331.528 407.82 331.208 407.26C330.901 406.687 330.475 406.247 329.928 405.94C329.395 405.633 328.788 405.48 328.108 405.48C327.441 405.48 326.835 405.64 326.288 405.96C325.755 406.267 325.328 406.7 325.008 407.26C324.701 407.82 324.548 408.467 324.548 409.2C324.548 409.933 324.701 410.587 325.008 411.16C325.315 411.72 325.741 412.16 326.288 412.48C326.835 412.787 327.441 412.94 328.108 412.94ZM336.281 399.66H338.201V414.5H336.281V399.66ZM345.727 403.8C347.194 403.8 348.314 404.16 349.087 404.88C349.874 405.6 350.267 406.673 350.267 408.1V414.5H348.447V413.1C348.127 413.593 347.667 413.973 347.067 414.24C346.48 414.493 345.78 414.62 344.967 414.62C343.78 414.62 342.827 414.333 342.107 413.76C341.4 413.187 341.047 412.433 341.047 411.5C341.047 410.567 341.387 409.82 342.067 409.26C342.747 408.687 343.827 408.4 345.307 408.4H348.347V408.02C348.347 407.193 348.107 406.56 347.627 406.12C347.147 405.68 346.44 405.46 345.507 405.46C344.88 405.46 344.267 405.567 343.667 405.78C343.067 405.98 342.56 406.253 342.147 406.6L341.347 405.16C341.894 404.72 342.547 404.387 343.307 404.16C344.067 403.92 344.874 403.8 345.727 403.8ZM345.287 413.14C346.02 413.14 346.654 412.98 347.187 412.66C347.72 412.327 348.107 411.86 348.347 411.26V409.78H345.387C343.76 409.78 342.947 410.327 342.947 411.42C342.947 411.953 343.154 412.373 343.567 412.68C343.98 412.987 344.554 413.14 345.287 413.14ZM359.78 413.88C359.5 414.12 359.153 414.307 358.74 414.44C358.327 414.56 357.9 414.62 357.46 414.62C356.393 414.62 355.567 414.333 354.98 413.76C354.393 413.187 354.1 412.367 354.1 411.3V405.48H352.3V403.9H354.1V401.58H356.02V403.9H359.06V405.48H356.02V411.22C356.02 411.793 356.16 412.233 356.44 412.54C356.733 412.847 357.147 413 357.68 413C358.267 413 358.767 412.833 359.18 412.5L359.78 413.88ZM365.981 401.12C364.835 401.12 364.261 401.74 364.261 402.98V403.9H367.341V405.48H364.301V414.5H362.381V405.48H360.581V403.9H362.381V402.96C362.381 401.907 362.688 401.073 363.301 400.46C363.915 399.847 364.775 399.54 365.881 399.54C366.308 399.54 366.708 399.593 367.081 399.7C367.455 399.807 367.775 399.96 368.041 400.16L367.461 401.62C367.021 401.287 366.528 401.12 365.981 401.12ZM373.536 414.62C372.482 414.62 371.536 414.387 370.696 413.92C369.856 413.453 369.196 412.813 368.716 412C368.249 411.173 368.016 410.24 368.016 409.2C368.016 408.16 368.249 407.233 368.716 406.42C369.196 405.593 369.856 404.953 370.696 404.5C371.536 404.033 372.482 403.8 373.536 403.8C374.589 403.8 375.529 404.033 376.356 404.5C377.196 404.953 377.849 405.593 378.316 406.42C378.796 407.233 379.036 408.16 379.036 409.2C379.036 410.24 378.796 411.173 378.316 412C377.849 412.813 377.196 413.453 376.356 413.92C375.529 414.387 374.589 414.62 373.536 414.62ZM373.536 412.94C374.216 412.94 374.822 412.787 375.356 412.48C375.902 412.16 376.329 411.72 376.636 411.16C376.942 410.587 377.096 409.933 377.096 409.2C377.096 408.467 376.942 407.82 376.636 407.26C376.329 406.687 375.902 406.247 375.356 405.94C374.822 405.633 374.216 405.48 373.536 405.48C372.856 405.48 372.242 405.633 371.696 405.94C371.162 406.247 370.736 406.687 370.416 407.26C370.109 407.82 369.956 408.467 369.956 409.2C369.956 409.933 370.109 410.587 370.416 411.16C370.736 411.72 371.162 412.16 371.696 412.48C372.242 412.787 372.856 412.94 373.536 412.94ZM383.531 405.68C383.864 405.067 384.358 404.6 385.011 404.28C385.664 403.96 386.458 403.8 387.391 403.8V405.66C387.284 405.647 387.138 405.64 386.951 405.64C385.911 405.64 385.091 405.953 384.491 406.58C383.904 407.193 383.611 408.073 383.611 409.22V414.5H381.691V403.9H383.531V405.68ZM403.018 403.8C404.351 403.8 405.404 404.187 406.178 404.96C406.964 405.733 407.358 406.88 407.358 408.4V414.5H405.438V408.62C405.438 407.593 405.198 406.82 404.718 406.3C404.251 405.78 403.578 405.52 402.698 405.52C401.724 405.52 400.951 405.827 400.378 406.44C399.804 407.04 399.518 407.907 399.518 409.04V414.5H397.598V408.62C397.598 407.593 397.358 406.82 396.878 406.3C396.411 405.78 395.738 405.52 394.858 405.52C393.884 405.52 393.111 405.827 392.538 406.44C391.964 407.04 391.678 407.907 391.678 409.04V414.5H389.758V403.9H391.598V405.48C391.984 404.933 392.491 404.52 393.118 404.24C393.744 403.947 394.458 403.8 395.258 403.8C396.084 403.8 396.818 403.967 397.458 404.3C398.098 404.633 398.591 405.12 398.938 405.76C399.338 405.147 399.891 404.667 400.598 404.32C401.318 403.973 402.124 403.8 403.018 403.8ZM413.93 414.62C413.064 414.62 412.23 414.507 411.43 414.28C410.63 414.04 410.004 413.74 409.55 413.38L410.35 411.86C410.817 412.193 411.384 412.46 412.05 412.66C412.717 412.86 413.39 412.96 414.07 412.96C415.75 412.96 416.59 412.48 416.59 411.52C416.59 411.2 416.477 410.947 416.25 410.76C416.024 410.573 415.737 410.44 415.39 410.36C415.057 410.267 414.577 410.167 413.95 410.06C413.097 409.927 412.397 409.773 411.85 409.6C411.317 409.427 410.857 409.133 410.47 408.72C410.084 408.307 409.89 407.727 409.89 406.98C409.89 406.02 410.29 405.253 411.09 404.68C411.89 404.093 412.964 403.8 414.31 403.8C415.017 403.8 415.724 403.887 416.43 404.06C417.137 404.233 417.717 404.467 418.17 404.76L417.35 406.28C416.484 405.72 415.464 405.44 414.29 405.44C413.477 405.44 412.857 405.573 412.43 405.84C412.004 406.107 411.79 406.46 411.79 406.9C411.79 407.247 411.91 407.52 412.15 407.72C412.39 407.92 412.684 408.067 413.03 408.16C413.39 408.253 413.89 408.36 414.53 408.48C415.384 408.627 416.07 408.787 416.59 408.96C417.124 409.12 417.577 409.4 417.95 409.8C418.324 410.2 418.51 410.76 418.51 411.48C418.51 412.44 418.097 413.207 417.27 413.78C416.457 414.34 415.344 414.62 413.93 414.62ZM419.73 418.38C420.53 416.98 421.117 415.513 421.49 413.98C421.877 412.447 422.07 410.793 422.07 409.02C422.07 407.247 421.877 405.593 421.49 404.06C421.117 402.527 420.53 401.06 419.73 399.66H421.55C422.323 400.86 422.917 402.26 423.33 403.86C423.743 405.46 423.95 407.18 423.95 409.02C423.95 410.847 423.743 412.56 423.33 414.16C422.917 415.76 422.323 417.167 421.55 418.38H419.73Z" fill="#1A1A1A"/>
<path d="M77.704 85.224C75.744 85.224 73.9707 84.7947 72.384 83.936C70.816 83.0587 69.584 81.864 68.688 80.352C67.792 78.8213 67.344 77.104 67.344 75.2C67.344 73.296 67.792 71.588 68.688 70.076C69.584 68.5453 70.8253 67.3507 72.412 66.492C73.9987 65.6147 75.772 65.176 77.732 65.176C79.2627 65.176 80.6627 65.4373 81.932 65.96C83.2013 66.464 84.284 67.22 85.18 68.228L83.36 69.992C81.8853 68.4427 80.0467 67.668 77.844 67.668C76.388 67.668 75.072 67.9947 73.896 68.648C72.72 69.3013 71.796 70.2067 71.124 71.364C70.4707 72.5027 70.144 73.7813 70.144 75.2C70.144 76.6187 70.4707 77.9067 71.124 79.064C71.796 80.2027 72.72 81.0987 73.896 81.752C75.072 82.4053 76.388 82.732 77.844 82.732C80.028 82.732 81.8667 81.948 83.36 80.38L85.18 82.144C84.284 83.152 83.192 83.9173 81.904 84.44C80.6347 84.9627 79.2347 85.224 77.704 85.224ZM102.15 70.16V85H99.6015V82.76C99.0602 83.5253 98.3415 84.1227 97.4455 84.552C96.5682 84.9627 95.6069 85.168 94.5615 85.168C92.5829 85.168 91.0242 84.6267 89.8855 83.544C88.7469 82.4427 88.1775 80.828 88.1775 78.7V70.16H90.8655V78.392C90.8655 79.8293 91.2109 80.9213 91.9015 81.668C92.5922 82.396 93.5815 82.76 94.8695 82.76C96.2882 82.76 97.4082 82.3307 98.2295 81.472C99.0509 80.6133 99.4615 79.4 99.4615 77.832V70.16H102.15ZM111.523 85.168C110.309 85.168 109.143 85.0093 108.023 84.692C106.903 84.356 106.025 83.936 105.391 83.432L106.511 81.304C107.164 81.7707 107.957 82.144 108.891 82.424C109.824 82.704 110.767 82.844 111.719 82.844C114.071 82.844 115.247 82.172 115.247 80.828C115.247 80.38 115.088 80.0253 114.771 79.764C114.453 79.5027 114.052 79.316 113.567 79.204C113.1 79.0733 112.428 78.9333 111.551 78.784C110.356 78.5973 109.376 78.3827 108.611 78.14C107.864 77.8973 107.22 77.4867 106.679 76.908C106.137 76.3293 105.867 75.5173 105.867 74.472C105.867 73.128 106.427 72.0547 107.547 71.252C108.667 70.4307 110.169 70.02 112.055 70.02C113.044 70.02 114.033 70.1413 115.023 70.384C116.012 70.6267 116.824 70.9533 117.459 71.364L116.311 73.492C115.097 72.708 113.669 72.316 112.027 72.316C110.888 72.316 110.02 72.5027 109.423 72.876C108.825 73.2493 108.527 73.744 108.527 74.36C108.527 74.8453 108.695 75.228 109.031 75.508C109.367 75.788 109.777 75.9933 110.263 76.124C110.767 76.2547 111.467 76.404 112.363 76.572C113.557 76.7773 114.519 77.0013 115.247 77.244C115.993 77.468 116.628 77.86 117.151 78.42C117.673 78.98 117.935 79.764 117.935 80.772C117.935 82.116 117.356 83.1893 116.199 83.992C115.06 84.776 113.501 85.168 111.523 85.168ZM129.638 84.132C129.246 84.468 128.761 84.7293 128.182 84.916C127.603 85.084 127.006 85.168 126.39 85.168C124.897 85.168 123.739 84.7667 122.918 83.964C122.097 83.1613 121.686 82.0133 121.686 80.52V72.372H119.166V70.16H121.686V66.912H124.374V70.16H128.63V72.372H124.374V80.408C124.374 81.2107 124.57 81.8267 124.962 82.256C125.373 82.6853 125.951 82.9 126.698 82.9C127.519 82.9 128.219 82.6667 128.798 82.2L129.638 84.132ZM138.752 85.168C137.277 85.168 135.952 84.8413 134.776 84.188C133.6 83.5347 132.676 82.6387 132.004 81.5C131.35 80.3427 131.024 79.036 131.024 77.58C131.024 76.124 131.35 74.8267 132.004 73.688C132.676 72.5307 133.6 71.6347 134.776 71C135.952 70.3467 137.277 70.02 138.752 70.02C140.226 70.02 141.542 70.3467 142.7 71C143.876 71.6347 144.79 72.5307 145.444 73.688C146.116 74.8267 146.452 76.124 146.452 77.58C146.452 79.036 146.116 80.3427 145.444 81.5C144.79 82.6387 143.876 83.5347 142.7 84.188C141.542 84.8413 140.226 85.168 138.752 85.168ZM138.752 82.816C139.704 82.816 140.553 82.6013 141.3 82.172C142.065 81.724 142.662 81.108 143.092 80.324C143.521 79.5213 143.736 78.6067 143.736 77.58C143.736 76.5533 143.521 75.648 143.092 74.864C142.662 74.0613 142.065 73.4453 141.3 73.016C140.553 72.5867 139.704 72.372 138.752 72.372C137.8 72.372 136.941 72.5867 136.176 73.016C135.429 73.4453 134.832 74.0613 134.384 74.864C133.954 75.648 133.74 76.5533 133.74 77.58C133.74 78.6067 133.954 79.5213 134.384 80.324C134.832 81.108 135.429 81.724 136.176 82.172C136.941 82.6013 137.8 82.816 138.752 82.816ZM168.733 70.02C170.6 70.02 172.074 70.5613 173.157 71.644C174.258 72.7267 174.809 74.332 174.809 76.46V85H172.121V76.768C172.121 75.3307 171.785 74.248 171.113 73.52C170.46 72.792 169.517 72.428 168.285 72.428C166.922 72.428 165.84 72.8573 165.037 73.716C164.234 74.556 163.833 75.7693 163.833 77.356V85H161.145V76.768C161.145 75.3307 160.809 74.248 160.137 73.52C159.484 72.792 158.541 72.428 157.309 72.428C155.946 72.428 154.864 72.8573 154.061 73.716C153.258 74.556 152.857 75.7693 152.857 77.356V85H150.169V70.16H152.745V72.372C153.286 71.6067 153.996 71.028 154.873 70.636C155.75 70.2253 156.749 70.02 157.869 70.02C159.026 70.02 160.053 70.2533 160.949 70.72C161.845 71.1867 162.536 71.868 163.021 72.764C163.581 71.9053 164.356 71.2333 165.345 70.748C166.353 70.2627 167.482 70.02 168.733 70.02Z" fill="#1A1A1A"/>
<path d="M109.92 184.24C109.92 188.176 108.48 191.56 105.6 194.392C102.72 197.176 98.568 198.904 93.144 199.576V207.64H85.944V199.792C82.392 199.6 79.008 198.976 75.792 197.92C72.576 196.864 69.984 195.568 68.016 194.032L71.976 185.248C73.8 186.592 75.936 187.72 78.384 188.632C80.832 189.544 83.352 190.12 85.944 190.36V178.336C82.536 177.52 79.656 176.608 77.304 175.6C74.952 174.592 72.984 173.128 71.4 171.208C69.816 169.24 69.024 166.648 69.024 163.432C69.024 159.448 70.464 156.04 73.344 153.208C76.272 150.328 80.472 148.576 85.944 147.952V139.96H93.144V147.808C99.048 148.288 103.92 149.752 107.76 152.2L104.16 161.056C100.56 158.992 96.888 157.744 93.144 157.312V169.552C96.504 170.32 99.336 171.208 101.64 172.216C103.992 173.176 105.96 174.64 107.544 176.608C109.128 178.528 109.92 181.072 109.92 184.24ZM80.616 162.856C80.616 164.056 81.072 165.04 81.984 165.808C82.896 166.576 84.216 167.224 85.944 167.752V157.528C84.12 157.96 82.776 158.656 81.912 159.616C81.048 160.528 80.616 161.608 80.616 162.856ZM93.144 190.072C94.872 189.688 96.168 189.064 97.032 188.2C97.896 187.336 98.328 186.304 98.328 185.104C98.328 183.904 97.872 182.92 96.96 182.152C96.096 181.384 94.824 180.712 93.144 180.136V190.072ZM161.577 188.416H153.369V199H141.993V188.416H114.849V180.568L138.609 148.6H150.849L128.817 178.912H142.353V169.48H153.369V178.912H161.577V188.416ZM182.497 147.736C189.553 147.736 195.073 149.896 199.057 154.216C203.041 158.488 205.033 164.656 205.033 172.72C205.033 178.432 203.953 183.328 201.793 187.408C199.681 191.488 196.681 194.584 192.793 196.696C188.905 198.808 184.417 199.864 179.329 199.864C176.641 199.864 174.073 199.576 171.625 199C169.177 198.376 167.089 197.512 165.361 196.408L169.681 187.84C172.129 189.52 175.273 190.36 179.113 190.36C183.385 190.36 186.769 189.112 189.265 186.616C191.761 184.072 193.105 180.424 193.297 175.672C190.273 178.696 186.097 180.208 180.769 180.208C177.553 180.208 174.625 179.56 171.985 178.264C169.345 176.968 167.257 175.144 165.721 172.792C164.185 170.392 163.417 167.632 163.417 164.512C163.417 161.152 164.257 158.2 165.937 155.656C167.617 153.112 169.897 151.168 172.777 149.824C175.705 148.432 178.945 147.736 182.497 147.736ZM183.361 171.496C185.905 171.496 187.969 170.8 189.553 169.408C191.185 167.968 192.001 166.144 192.001 163.936C192.001 161.728 191.209 159.928 189.625 158.536C188.089 157.144 185.953 156.448 183.217 156.448C180.721 156.448 178.681 157.12 177.097 158.464C175.561 159.808 174.793 161.632 174.793 163.936C174.793 166.24 175.561 168.088 177.097 169.48C178.681 170.824 180.769 171.496 183.361 171.496ZM228.34 147.736C235.396 147.736 240.916 149.896 244.9 154.216C248.884 158.488 250.876 164.656 250.876 172.72C250.876 178.432 249.796 183.328 247.636 187.408C245.524 191.488 242.524 194.584 238.636 196.696C234.748 198.808 230.26 199.864 225.172 199.864C222.484 199.864 219.916 199.576 217.468 199C215.02 198.376 212.932 197.512 211.204 196.408L215.524 187.84C217.972 189.52 221.116 190.36 224.956 190.36C229.228 190.36 232.612 189.112 235.108 186.616C237.604 184.072 238.948 180.424 239.14 175.672C236.116 178.696 231.94 180.208 226.612 180.208C223.396 180.208 220.468 179.56 217.828 178.264C215.188 176.968 213.1 175.144 211.564 172.792C210.028 170.392 209.26 167.632 209.26 164.512C209.26 161.152 210.1 158.2 211.78 155.656C213.46 153.112 215.74 151.168 218.62 149.824C221.548 148.432 224.788 147.736 228.34 147.736ZM229.204 171.496C231.748 171.496 233.812 170.8 235.396 169.408C237.028 167.968 237.844 166.144 237.844 163.936C237.844 161.728 237.052 159.928 235.468 158.536C233.932 157.144 231.796 156.448 229.06 156.448C226.564 156.448 224.524 157.12 222.94 158.464C221.404 159.808 220.636 161.632 220.636 163.936C220.636 166.24 221.404 168.088 222.94 169.48C224.524 170.824 226.612 171.496 229.204 171.496ZM259.604 182.16H262.384L255.784 201H253.004L259.604 182.16ZM275.896 199L275.876 190.6L271.756 197.52H270.296L266.196 190.78V199H263.156V185H265.836L271.076 193.7L276.236 185H278.896L278.936 199H275.896ZM287.158 199.16C286.024 199.16 285.004 198.927 284.098 198.46C283.204 197.98 282.504 197.32 281.998 196.48C281.491 195.64 281.238 194.687 281.238 193.62C281.238 192.553 281.491 191.6 281.998 190.76C282.504 189.92 283.204 189.267 284.098 188.8C285.004 188.32 286.024 188.08 287.158 188.08C288.291 188.08 289.304 188.32 290.198 188.8C291.091 189.267 291.791 189.92 292.298 190.76C292.804 191.6 293.058 192.553 293.058 193.62C293.058 194.687 292.804 195.64 292.298 196.48C291.791 197.32 291.091 197.98 290.198 198.46C289.304 198.927 288.291 199.16 287.158 199.16ZM287.158 196.6C287.958 196.6 288.611 196.333 289.118 195.8C289.638 195.253 289.898 194.527 289.898 193.62C289.898 192.713 289.638 191.993 289.118 191.46C288.611 190.913 287.958 190.64 287.158 190.64C286.358 190.64 285.698 190.913 285.178 191.46C284.658 191.993 284.398 192.713 284.398 193.62C284.398 194.527 284.658 195.253 285.178 195.8C285.698 196.333 286.358 196.6 287.158 196.6ZM301.683 188.08C303.016 188.08 304.09 188.48 304.903 189.28C305.73 190.08 306.143 191.267 306.143 192.84V199H303.023V193.32C303.023 192.467 302.836 191.833 302.463 191.42C302.09 190.993 301.55 190.78 300.843 190.78C300.056 190.78 299.43 191.027 298.963 191.52C298.496 192 298.263 192.72 298.263 193.68V199H295.143V188.24H298.123V189.5C298.536 189.047 299.05 188.7 299.663 188.46C300.276 188.207 300.95 188.08 301.683 188.08ZM315.911 198.48C315.605 198.707 315.225 198.88 314.771 199C314.331 199.107 313.865 199.16 313.371 199.16C312.091 199.16 311.098 198.833 310.391 198.18C309.698 197.527 309.351 196.567 309.351 195.3V190.88H307.691V188.48H309.351V185.86H312.471V188.48H315.151V190.88H312.471V195.26C312.471 195.713 312.585 196.067 312.811 196.32C313.051 196.56 313.385 196.68 313.811 196.68C314.305 196.68 314.725 196.547 315.071 196.28L315.911 198.48ZM324.203 188.08C325.536 188.08 326.609 188.48 327.423 189.28C328.249 190.08 328.663 191.267 328.663 192.84V199H325.543V193.32C325.543 192.467 325.356 191.833 324.983 191.42C324.609 190.993 324.069 190.78 323.363 190.78C322.576 190.78 321.949 191.027 321.483 191.52C321.016 192 320.783 192.72 320.783 193.68V199H317.663V184.16H320.783V189.36C321.196 188.947 321.696 188.633 322.283 188.42C322.869 188.193 323.509 188.08 324.203 188.08Z" fill="#1A1A1A"/>
<rect x="66" y="567" width="548" height="80" rx="16" fill="#130F26"/>
<path d="M290.811 614.24C289.385 614.24 288.091 613.933 286.931 613.32C285.785 612.693 284.878 611.833 284.211 610.74C283.558 609.633 283.231 608.387 283.231 607C283.231 605.613 283.558 604.373 284.211 603.28C284.878 602.173 285.785 601.313 286.931 600.7C288.091 600.073 289.391 599.76 290.831 599.76C292.045 599.76 293.138 599.973 294.111 600.4C295.098 600.827 295.925 601.44 296.591 602.24L294.511 604.16C293.565 603.067 292.391 602.52 290.991 602.52C290.125 602.52 289.351 602.713 288.671 603.1C287.991 603.473 287.458 604 287.071 604.68C286.698 605.36 286.511 606.133 286.511 607C286.511 607.867 286.698 608.64 287.071 609.32C287.458 610 287.991 610.533 288.671 610.92C289.351 611.293 290.125 611.48 290.991 611.48C292.391 611.48 293.565 610.927 294.511 609.82L296.591 611.74C295.925 612.553 295.098 613.173 294.111 613.6C293.125 614.027 292.025 614.24 290.811 614.24ZM303.308 614.16C302.175 614.16 301.155 613.927 300.248 613.46C299.355 612.98 298.655 612.32 298.148 611.48C297.641 610.64 297.388 609.687 297.388 608.62C297.388 607.553 297.641 606.6 298.148 605.76C298.655 604.92 299.355 604.267 300.248 603.8C301.155 603.32 302.175 603.08 303.308 603.08C304.441 603.08 305.455 603.32 306.348 603.8C307.241 604.267 307.941 604.92 308.448 605.76C308.955 606.6 309.208 607.553 309.208 608.62C309.208 609.687 308.955 610.64 308.448 611.48C307.941 612.32 307.241 612.98 306.348 613.46C305.455 613.927 304.441 614.16 303.308 614.16ZM303.308 611.6C304.108 611.6 304.761 611.333 305.268 610.8C305.788 610.253 306.048 609.527 306.048 608.62C306.048 607.713 305.788 606.993 305.268 606.46C304.761 605.913 304.108 605.64 303.308 605.64C302.508 605.64 301.848 605.913 301.328 606.46C300.808 606.993 300.548 607.713 300.548 608.62C300.548 609.527 300.808 610.253 301.328 610.8C301.848 611.333 302.508 611.6 303.308 611.6ZM317.834 603.08C319.167 603.08 320.24 603.48 321.054 604.28C321.88 605.08 322.294 606.267 322.294 607.84V614H319.174V608.32C319.174 607.467 318.987 606.833 318.614 606.42C318.24 605.993 317.7 605.78 316.994 605.78C316.207 605.78 315.58 606.027 315.114 606.52C314.647 607 314.414 607.72 314.414 608.68V614H311.294V603.24H314.274V604.5C314.687 604.047 315.2 603.7 315.814 603.46C316.427 603.207 317.1 603.08 317.834 603.08ZM332.062 613.48C331.755 613.707 331.375 613.88 330.922 614C330.482 614.107 330.015 614.16 329.522 614.16C328.242 614.16 327.248 613.833 326.542 613.18C325.848 612.527 325.502 611.567 325.502 610.3V605.88H323.842V603.48H325.502V600.86H328.622V603.48H331.302V605.88H328.622V610.26C328.622 610.713 328.735 611.067 328.962 611.32C329.202 611.56 329.535 611.68 329.962 611.68C330.455 611.68 330.875 611.547 331.222 611.28L332.062 613.48ZM338.153 603.08C339.82 603.08 341.1 603.48 341.993 604.28C342.886 605.067 343.333 606.26 343.333 607.86V614H340.413V612.66C339.826 613.66 338.733 614.16 337.133 614.16C336.306 614.16 335.586 614.02 334.973 613.74C334.373 613.46 333.913 613.073 333.593 612.58C333.273 612.087 333.113 611.527 333.113 610.9C333.113 609.9 333.486 609.113 334.233 608.54C334.993 607.967 336.16 607.68 337.733 607.68H340.213C340.213 607 340.006 606.48 339.593 606.12C339.18 605.747 338.56 605.56 337.733 605.56C337.16 605.56 336.593 605.653 336.033 605.84C335.486 606.013 335.02 606.253 334.633 606.56L333.513 604.38C334.1 603.967 334.8 603.647 335.613 603.42C336.44 603.193 337.286 603.08 338.153 603.08ZM337.913 612.06C338.446 612.06 338.92 611.94 339.333 611.7C339.746 611.447 340.04 611.08 340.213 610.6V609.5H338.073C336.793 609.5 336.153 609.92 336.153 610.76C336.153 611.16 336.306 611.48 336.613 611.72C336.933 611.947 337.366 612.06 337.913 612.06ZM351.474 614.16C350.327 614.16 349.294 613.927 348.374 613.46C347.467 612.98 346.754 612.32 346.234 611.48C345.727 610.64 345.474 609.687 345.474 608.62C345.474 607.553 345.727 606.6 346.234 605.76C346.754 604.92 347.467 604.267 348.374 603.8C349.294 603.32 350.327 603.08 351.474 603.08C352.607 603.08 353.594 603.32 354.434 603.8C355.287 604.267 355.907 604.94 356.294 605.82L353.874 607.12C353.314 606.133 352.507 605.64 351.454 605.64C350.641 605.64 349.967 605.907 349.434 606.44C348.901 606.973 348.634 607.7 348.634 608.62C348.634 609.54 348.901 610.267 349.434 610.8C349.967 611.333 350.641 611.6 351.454 611.6C352.521 611.6 353.327 611.107 353.874 610.12L356.294 611.44C355.907 612.293 355.287 612.96 354.434 613.44C353.594 613.92 352.607 614.16 351.474 614.16ZM365.187 613.48C364.88 613.707 364.5 613.88 364.047 614C363.607 614.107 363.14 614.16 362.647 614.16C361.367 614.16 360.373 613.833 359.667 613.18C358.973 612.527 358.627 611.567 358.627 610.3V605.88H356.967V603.48H358.627V600.86H361.747V603.48H364.427V605.88H361.747V610.26C361.747 610.713 361.86 611.067 362.087 611.32C362.327 611.56 362.66 611.68 363.087 611.68C363.58 611.68 364 611.547 364.347 611.28L365.187 613.48ZM379.042 614.24C377.042 614.24 375.482 613.687 374.362 612.58C373.255 611.473 372.702 609.893 372.702 607.84V600H375.942V607.72C375.942 610.227 376.982 611.48 379.062 611.48C380.075 611.48 380.849 611.18 381.382 610.58C381.915 609.967 382.182 609.013 382.182 607.72V600H385.382V607.84C385.382 609.893 384.822 611.473 383.702 612.58C382.595 613.687 381.042 614.24 379.042 614.24ZM391.984 614.16C391.09 614.16 390.217 614.053 389.364 613.84C388.51 613.613 387.83 613.333 387.324 613L388.364 610.76C388.844 611.067 389.424 611.32 390.104 611.52C390.784 611.707 391.45 611.8 392.104 611.8C393.424 611.8 394.084 611.473 394.084 610.82C394.084 610.513 393.904 610.293 393.544 610.16C393.184 610.027 392.63 609.913 391.884 609.82C391.004 609.687 390.277 609.533 389.704 609.36C389.13 609.187 388.63 608.88 388.204 608.44C387.79 608 387.584 607.373 387.584 606.56C387.584 605.88 387.777 605.28 388.164 604.76C388.564 604.227 389.137 603.813 389.884 603.52C390.644 603.227 391.537 603.08 392.564 603.08C393.324 603.08 394.077 603.167 394.824 603.34C395.584 603.5 396.21 603.727 396.704 604.02L395.664 606.24C394.717 605.707 393.684 605.44 392.564 605.44C391.897 605.44 391.397 605.533 391.064 605.72C390.73 605.907 390.564 606.147 390.564 606.44C390.564 606.773 390.744 607.007 391.104 607.14C391.464 607.273 392.037 607.4 392.824 607.52C393.704 607.667 394.424 607.827 394.984 608C395.544 608.16 396.03 608.46 396.444 608.9C396.857 609.34 397.064 609.953 397.064 610.74C397.064 611.407 396.864 612 396.464 612.52C396.064 613.04 395.477 613.447 394.704 613.74C393.944 614.02 393.037 614.16 391.984 614.16Z" fill="white"/>
</svg>
