<?xml version="1.0" encoding="UTF-8"?>
<svg id="Layer_2" data-name="Layer 2" xmlns="http://www.w3.org/2000/svg" viewBox="0 0 40 40">
  <g id="Layer_1-2" data-name="Layer 1">
    <g>
      <path d="M13.48,22.26c.21,0,.39-.17,.39-.39v-.24c0-.2-.15-.36-.35-.38l-1.12-.11c-.02-1.06-.02-2.08-.02-2.94h.3c3.68,0,4.87-1.55,4.87-3.45s-1.36-3.25-5.08-3.25h-4.14c-.21,0-.38,.17-.38,.38v.26c0,.19,.15,.36,.34,.37l.79,.08c.02,1.34,.02,2.69,.02,4.03v.53c0,1.36,0,2.71-.02,4.03l-.79,.08c-.2,.02-.35,.19-.35,.38v.24c0,.21,.17,.39,.39,.39h5.15Zm-.94-9.73c1.23,0,2,.73,2,2.21s-.7,2.47-1.94,2.47h-.23v-.59c0-1.38,0-2.75,.03-4.09h.14Z"/>
      <path d="M19.1,11.35l.63,.11s.03,.02,.03,.03c.04,.72,.05,1.02,.05,2.01v1.16c0,.76,0,1.84-.02,2.73l-.58,.13c-.17,.04-.3,.19-.3,.37v.25c0,.21,.17,.38,.38,.38h5.11c.21,0,.38-.17,.38-.38v-.25c0-.18-.12-.33-.3-.37l-1.14-.25c-.01-.86-.02-1.89-.02-2.61v-1.18s0,0,0-.01c.15-.82,.65-1.65,1.08-2.15l.09,.14c.48,.7,.94,1.01,1.55,1.01,.74,0,1.35-.57,1.4-1.56,0,0,0,0,0,0-.13-1.12-.81-1.64-1.72-1.64s-1.94,.75-2.43,2.33l-.13-1.92c0-.13-.08-.25-.19-.32-.1-.06-.22-.07-.33-.04l-3.63,1.13c-.17,.05-.28,.21-.28,.38v.12c0,.2,.14,.36,.34,.39Z"/>
      <path d="M24.33,24.48c0-2.86-2.08-4.82-4.99-4.82s-4.99,2.02-4.99,4.82,1.74,4.95,4.99,4.95,4.99-2.09,4.99-4.95Zm-4.58,1.48c-2.62,.78-3.82,.65-4.11-.32-.29-.97,.65-1.73,3.27-2.5,2.64-.78,3.84-.66,4.13,.31,.29,.97-.65,1.73-3.29,2.51Z"/>
      <path d="M30.71,26.21v-5.54l.05-2.47c0-.13-.07-.26-.18-.33-.09-.06-.2-.07-.3-.04l-3.76,1.12c-.16,.05-.27,.19-.27,.36v.14c0,.18,.13,.34,.31,.37l.66,.11c.04,.72,.05,1.28,.05,2.27v3.28c0,1.19,.22,2.97,.05,3.89-.02,.14-.06,.26-.1,.36l-.15-.32c-.4-.85-1.05-1.26-1.75-1.26-.02,0-.04,0-.06,0-1.44,.05-1.79,2.02-.47,2.6,.39,.17,.87,.28,1.43,.28,.87,0,2.22-.25,3.27-1.3,.85-.85,1.21-1.67,1.21-3.51Z"/>
      <path d="M26.45,16.35h0c.23,.78,1.06,1.23,1.85,1l1.76-.52c.79-.23,1.24-1.06,1-1.84h0c-.23-.78-1.06-1.23-1.85-1l-1.76,.52c-.79,.23-1.24,1.06-1,1.84Z"/>
      <path d="M36.68,27.77l.45,.22-.19,.38c-.09,.18-.12,.35-.08,.49,.04,.15,.13,.26,.28,.33,.15,.07,.3,.08,.44,.02,.14-.06,.25-.18,.34-.36l.26-.53-1.43-.7-.07,.15Zm1.3,.64l-.19,.38c-.07,.14-.15,.23-.25,.28-.1,.04-.21,.04-.32-.02-.11-.06-.18-.14-.21-.24-.03-.11,0-.23,.07-.37l.19-.38,.72,.35Z"/>
      <path d="M35.63,29.69l.42,.28-.23,.36s-.05,.07-.06,.11l-.63,.03-.1,.15,.67-.03c-.03,.12-.03,.23,0,.33s.11,.18,.21,.25c.14,.09,.29,.12,.43,.07,.14-.04,.27-.15,.38-.32l.33-.5-1.34-.87-.09,.14Zm1.21,.79l-.23,.35c-.09,.13-.18,.21-.28,.25s-.21,.01-.32-.06c-.11-.07-.17-.16-.18-.26-.01-.11,.02-.23,.11-.36l.23-.35,.67,.44Z"/>
      <path d="M35.15,31.79c-.12-.1-.25-.16-.39-.19-.14-.02-.28-.01-.42,.04-.14,.05-.26,.14-.36,.26-.1,.12-.17,.25-.2,.39-.03,.14-.02,.28,.03,.42s.13,.25,.25,.35,.25,.16,.39,.19c.14,.02,.28,.01,.42-.04,.14-.05,.25-.14,.36-.26s.17-.25,.2-.39c.03-.14,.02-.28-.03-.42-.05-.13-.13-.25-.25-.35Zm.12,.75c-.02,.11-.08,.22-.16,.32-.08,.1-.18,.16-.29,.2-.11,.04-.22,.05-.34,.03-.11-.02-.22-.07-.31-.15-.09-.08-.16-.18-.2-.28-.04-.11-.05-.22-.03-.33,.02-.11,.07-.22,.16-.31,.08-.1,.18-.16,.29-.21,.11-.04,.22-.05,.34-.03,.11,.02,.22,.07,.31,.15,.09,.08,.16,.18,.2,.29,.04,.11,.05,.22,.02,.34Z"/>
      <path d="M33.44,34.58l-.66-.7c-.16-.17-.17-.32-.02-.46,.1-.1,.23-.13,.39-.09v-.15c-.09-.02-.17-.02-.26,0-.08,.02-.16,.07-.23,.13-.11,.1-.17,.21-.17,.33,0,.11,.06,.23,.17,.35l.76,.8,.55-.51-.1-.11-.43,.4Z"/>
      <polygon points="30.6 35.03 30.69 35.15 31.45 34.57 31.81 35.04 31.15 35.54 31.24 35.65 31.9 35.15 32.24 35.6 31.5 36.16 31.59 36.28 32.46 35.62 31.5 34.35 30.6 35.03"/>
      <path d="M30.01,35.88c-.13-.07-.26-.1-.4-.1-.14,0-.29,.05-.42,.13-.1,.06-.19,.13-.25,.22-.07,.09-.11,.18-.13,.28l.15,.04c.04-.17,.14-.31,.31-.4,.11-.06,.22-.1,.34-.1s.23,.02,.33,.08c.1,.06,.18,.14,.25,.24,.06,.11,.1,.22,.1,.33,0,.12-.03,.22-.09,.33-.06,.1-.14,.18-.25,.25-.16,.1-.33,.12-.5,.08l-.04,.15c.1,.03,.2,.04,.31,.02,.11-.02,.21-.06,.31-.12,.14-.08,.24-.18,.32-.31,.07-.12,.11-.26,.11-.4,0-.14-.04-.28-.12-.41-.08-.13-.18-.23-.3-.3Z"/>
      <polygon points="28.16 38.07 27.57 36.75 27.42 36.82 28.01 38.14 27.5 38.37 27.56 38.5 28.74 37.98 28.68 37.84 28.16 38.07"/>
      <path d="M25.22,38.61c-.06-.04-.13-.07-.21-.08-.08,0-.18-.01-.3-.01-.1,0-.18,0-.24,0-.06,0-.11-.02-.16-.05-.05-.03-.08-.07-.09-.13-.02-.08,0-.16,.05-.22,.06-.07,.15-.12,.29-.16,.1-.03,.2-.03,.3-.02,.1,.01,.19,.04,.26,.08l.03-.14c-.07-.05-.17-.07-.28-.08s-.23,0-.34,.03c-.13,.03-.23,.08-.31,.14-.08,.06-.13,.13-.15,.2-.03,.07-.03,.15,0,.23,.02,.09,.07,.16,.13,.2,.06,.04,.13,.07,.21,.08,.08,0,.18,.01,.3,.01,.1,0,.18,0,.25,0,.06,0,.12,.02,.16,.05,.05,.03,.08,.07,.09,.13,.02,.08,0,.16-.05,.23-.06,.07-.15,.12-.29,.16-.07,.02-.15,.03-.22,.02-.08,0-.16-.02-.23-.04l-.02,.14c.07,.03,.15,.04,.25,.04,.09,0,.18,0,.27-.03,.13-.03,.23-.08,.3-.14s.13-.13,.15-.2c.02-.07,.03-.15,0-.23-.02-.1-.07-.16-.13-.21Z"/>
      <polygon points="22.93 39.62 22.72 38.19 22.55 38.22 22.76 39.64 22.21 39.73 22.23 39.87 23.51 39.68 23.48 39.54 22.93 39.62"/>
      <path d="M21.02,38.54c-.12-.11-.28-.17-.49-.16-.21,0-.37,.07-.48,.19-.11,.12-.16,.3-.16,.52l.03,.91h.16s-.03-.91-.03-.91c0-.18,.03-.32,.11-.42s.2-.14,.36-.15c.16,0,.28,.04,.37,.12,.09,.09,.13,.22,.14,.41l.03,.9h.17s-.03-.92-.03-.92c0-.23-.07-.4-.19-.51Z"/>
      <path d="M17.68,38.37c-.14,.05-.24,.14-.33,.25s-.13,.25-.15,.4c-.02,.15,0,.29,.07,.42s.15,.23,.27,.31c.12,.08,.27,.13,.43,.14l.65,.06,.16-1.58-.65-.06c-.17-.02-.32,0-.45,.06Zm.79,1.43l-.47-.05c-.14-.01-.26-.05-.36-.12-.1-.07-.17-.15-.22-.25-.05-.1-.07-.22-.05-.34,.01-.13,.05-.24,.12-.33,.07-.09,.16-.16,.27-.2,.11-.04,.23-.06,.37-.05l.47,.05-.13,1.29Z"/>
      <polygon points="15.85 39.58 16.02 39.61 16.33 38.05 16.17 38.02 15.85 39.58"/>
      <path d="M14.8,37.78c-.1-.11-.23-.18-.38-.23-.15-.05-.3-.06-.44-.03-.14,.03-.27,.09-.37,.19-.11,.1-.18,.22-.23,.36-.05,.15-.05,.29-.02,.43,.03,.14,.1,.26,.2,.37,.1,.1,.23,.18,.38,.23,.15,.05,.3,.06,.44,.03,.14-.03,.27-.09,.37-.19,.11-.1,.18-.22,.23-.36,.05-.15,.05-.29,.02-.43s-.1-.26-.2-.37Zm.02,.74c-.04,.12-.1,.22-.18,.3-.09,.08-.19,.13-.3,.15-.11,.02-.23,.02-.35-.02-.12-.04-.22-.1-.3-.18-.08-.08-.13-.18-.16-.3-.02-.11-.02-.23,.02-.35,.04-.12,.1-.22,.18-.3s.18-.13,.3-.15c.11-.02,.23-.02,.35,.02,.12,.04,.22,.1,.3,.18,.08,.08,.13,.18,.16,.3s.02,.23-.02,.35Z"/>
      <path d="M12.33,36.76c-.12-.05-.23-.08-.33-.08-.1,0-.18,.02-.25,.06s-.12,.1-.15,.17c-.04,.09-.05,.17-.03,.24s.06,.14,.11,.19c.05,.06,.13,.12,.22,.19,.08,.06,.14,.12,.19,.16s.08,.09,.1,.14,.02,.11-.01,.16c-.04,.08-.1,.13-.18,.15-.09,.02-.19,0-.32-.06-.07-.03-.13-.07-.19-.12-.06-.05-.11-.11-.15-.18l-.11,.1c.04,.07,.09,.13,.16,.19,.07,.06,.15,.11,.23,.14,.12,.05,.23,.08,.32,.08s.18-.02,.24-.06c.07-.04,.12-.1,.15-.17,.04-.09,.05-.17,.03-.24-.02-.07-.06-.14-.11-.19-.05-.05-.13-.12-.23-.2-.08-.06-.14-.12-.19-.16-.04-.04-.07-.09-.09-.14-.02-.05-.02-.1,0-.16,.03-.08,.1-.12,.18-.14,.09-.02,.2,0,.33,.06,.09,.04,.18,.1,.25,.17,.07,.07,.12,.15,.15,.22l.11-.09c-.03-.08-.08-.16-.17-.24-.08-.08-.18-.14-.29-.19Z"/>
      <path d="M9.59,35.78s-.08-.03-.13-.02c-.05,.01-.08,.04-.11,.08s-.03,.08-.02,.13c.01,.05,.03,.08,.07,.11,.04,.03,.08,.03,.13,.02,.05,0,.08-.03,.11-.07,.03-.04,.04-.09,.03-.13s-.03-.08-.07-.11Z"/>
      <polygon points="6.98 33.34 7.69 33.98 7.29 34.41 6.68 33.86 6.58 33.97 7.19 34.52 6.81 34.94 6.13 34.32 6.03 34.43 6.84 35.16 7.91 33.98 7.07 33.23 6.98 33.34"/>
      <path d="M6.2,32.8l.14-.04c0-.09-.01-.18-.05-.29s-.1-.2-.18-.29c-.09-.1-.17-.17-.26-.21-.09-.04-.17-.06-.25-.04-.08,.01-.15,.04-.21,.1-.07,.06-.11,.13-.12,.21,0,.08,0,.15,.03,.22,.03,.07,.07,.16,.12,.27,.05,.09,.08,.16,.11,.22,.02,.06,.03,.11,.03,.17,0,.05-.03,.1-.08,.15-.06,.06-.14,.08-.23,.06-.09-.02-.18-.08-.27-.18-.05-.05-.09-.12-.12-.19-.03-.07-.06-.15-.07-.23l-.14,.05c0,.08,.03,.16,.07,.24,.04,.08,.09,.16,.15,.22,.09,.1,.17,.17,.26,.21,.09,.04,.17,.05,.25,.04,.08-.01,.15-.04,.21-.1,.07-.07,.12-.14,.13-.21,0-.08,0-.15-.03-.22s-.07-.16-.12-.27c-.05-.09-.08-.16-.11-.22-.02-.06-.03-.11-.03-.16s.03-.1,.08-.14c.06-.06,.14-.07,.22-.05,.09,.02,.18,.08,.27,.19,.07,.08,.12,.16,.16,.26,.04,.09,.05,.18,.05,.26Z"/>
      <polygon points="4.94 30.76 4.85 30.62 3.67 31.46 3.34 31.01 3.22 31.09 3.97 32.14 4.09 32.06 3.77 31.6 4.94 30.76"/>
      <path d="M4.04,29.44s-.07,0-.09,.01c-.03,.02-.05,.04-.06,.08,0,.03,0,.06,.01,.09,.02,.03,.04,.05,.07,.05,.03,0,.06,0,.09-.02,.03-.02,.05-.04,.06-.08,0-.03,0-.06-.01-.09-.02-.03-.04-.05-.08-.06Z"/>
      <path d="M2.2,28.41c.05-.03,.12-.04,.18-.04s.16,.02,.27,.06l.88,.3,.1-.05-.5-1-.13,.06,.39,.78-.72-.25c-.13-.05-.24-.07-.33-.07s-.16,.02-.24,.06c-.12,.06-.19,.15-.22,.27-.03,.12,0,.25,.07,.4,.05,.11,.12,.2,.2,.27,.08,.07,.16,.11,.26,.14l.04-.15c-.15-.04-.27-.14-.35-.31-.05-.11-.07-.2-.05-.28,.02-.08,.07-.14,.15-.18Z"/>
      <path d="M2.44,27.01c.1-.09,.16-.2,.19-.31,.03-.11,.02-.23-.02-.34-.04-.12-.11-.21-.21-.27-.09-.07-.21-.11-.34-.11s-.28,.02-.43,.07c-.16,.06-.28,.13-.38,.23-.1,.09-.16,.2-.19,.31-.03,.11-.02,.23,.02,.34,.04,.12,.11,.21,.21,.27s.21,.11,.34,.11,.28-.02,.43-.07c.16-.06,.28-.13,.38-.22Zm-.79,.14c-.11,0-.2-.03-.27-.08-.07-.05-.13-.12-.16-.2-.03-.09-.04-.17-.01-.26,.02-.08,.08-.16,.15-.23,.08-.07,.18-.13,.32-.18,.13-.05,.25-.07,.36-.07,.11,0,.2,.03,.27,.08,.07,.05,.13,.12,.16,.2,.03,.09,.04,.17,.01,.26-.02,.08-.08,.16-.15,.23-.08,.07-.18,.13-.32,.18-.13,.05-.25,.07-.36,.07Z"/>
      <polygon points="2.07 24.71 2.03 24.56 .49 24.96 .62 25.48 .76 25.44 .67 25.08 2.07 24.71"/>
      <path d="M.62,23.75c.08-.01,.15-.05,.2-.1,.05-.05,.09-.12,.11-.21,.05,.09,.11,.16,.18,.2,.07,.04,.16,.05,.25,.04,.14-.02,.24-.09,.3-.22s.08-.28,.05-.46c-.02-.12-.06-.23-.11-.31-.05-.09-.12-.15-.19-.19s-.16-.05-.25-.03c-.09,.02-.17,.05-.23,.12s-.09,.15-.11,.25c-.04-.08-.1-.13-.17-.16-.07-.03-.14-.04-.22-.03-.08,.01-.15,.05-.21,.11-.06,.06-.09,.13-.11,.22s-.02,.19,0,.3c.03,.17,.09,.29,.18,.38s.2,.12,.33,.1Zm.36-.96c.04-.09,.11-.14,.21-.16,.1-.02,.18,.01,.25,.08,.07,.07,.12,.17,.14,.31,.02,.14,.01,.25-.03,.34-.04,.09-.11,.14-.21,.15-.1,.02-.18-.01-.25-.08-.07-.07-.12-.17-.14-.31-.02-.14-.01-.25,.03-.34Zm-.73,.45c-.02-.12,0-.22,.03-.3,.04-.08,.1-.13,.19-.14,.09-.01,.16,0,.22,.07,.06,.06,.1,.15,.12,.27s.01,.22-.03,.3c-.04,.08-.1,.12-.19,.14-.09,.01-.16,0-.22-.07-.06-.06-.1-.15-.12-.27Z"/>
      <path d="M.71,20.05s-.05,.07-.05,.12c0,.05,.02,.09,.05,.12,.03,.03,.07,.05,.12,.05,.05,0,.09-.02,.12-.05s.05-.07,.05-.12c0-.05-.02-.09-.05-.12-.03-.03-.08-.05-.13-.05-.05,0-.09,.02-.12,.05Z"/>
      <polygon points="1.6 17.62 .88 17.5 1.03 16.52 1.76 16.63 1.78 16.47 .21 16.22 .18 16.39 .88 16.5 .73 17.48 .03 17.37 0 17.54 1.58 17.78 1.6 17.62"/>
      <polygon points="2.14 15.03 2.18 14.87 1.65 14.72 .82 13.82 .77 13.99 1.49 14.75 .48 15.03 .43 15.21 1.6 14.88 2.14 15.03"/>
      <path d="M2.7,13.34l-.47-.19,.16-.39c.08-.19,.09-.35,.05-.5-.05-.14-.15-.25-.3-.31-.16-.06-.3-.06-.44,0-.13,.07-.24,.2-.32,.39l-.23,.55,1.47,.61,.06-.16Zm-1.34-.55l.16-.39c.06-.15,.14-.24,.23-.29,.1-.05,.2-.05,.32,0,.12,.05,.19,.12,.22,.23,.03,.1,.02,.23-.04,.37l-.16,.39-.74-.3Z"/>
      <path d="M2.77,11.2c.13,.08,.27,.11,.41,.11s.28-.04,.4-.12c.13-.08,.23-.18,.31-.32,.08-.14,.12-.28,.12-.42,0-.14-.03-.28-.1-.4-.07-.12-.17-.22-.31-.3-.13-.08-.27-.11-.42-.11-.14,0-.28,.04-.4,.12-.12,.08-.22,.18-.3,.32s-.12,.28-.12,.42c0,.15,.03,.28,.1,.4,.07,.12,.17,.22,.31,.3Zm-.16-1.05c.06-.11,.14-.19,.24-.25,.1-.06,.21-.09,.32-.09,.12,0,.23,.03,.34,.09,.11,.06,.19,.14,.25,.24,.06,.1,.09,.21,.09,.32,0,.12-.03,.23-.1,.34s-.14,.19-.24,.25c-.1,.06-.21,.09-.33,.09s-.23-.03-.34-.09c-.11-.06-.19-.14-.25-.24-.06-.1-.09-.21-.09-.33,0-.12,.03-.23,.1-.34Z"/>
      <polygon points="3.85 8.26 5.02 9.12 5.12 8.99 3.95 8.13 4.29 7.68 4.17 7.59 3.4 8.63 3.52 8.71 3.85 8.26"/>
      <polygon points="6.12 7.76 5.58 7.26 6.26 6.53 6.8 7.03 6.92 6.91 5.75 5.82 5.64 5.94 6.16 6.43 5.47 7.16 4.96 6.67 4.84 6.79 6 7.88 6.12 7.76"/>
      <polygon points="8.59 5.44 8.5 5.33 7.76 5.94 7.38 5.49 8.02 4.96 7.93 4.85 7.29 5.38 6.93 4.95 7.64 4.36 7.55 4.24 6.71 4.94 7.73 6.16 8.59 5.44"/>
      <path d="M8.84,4.11c.07,.02,.15,.02,.22,0,.08-.02,.17-.04,.29-.08,.1-.03,.17-.06,.23-.07,.06-.01,.11-.02,.17,0,.05,.01,.1,.04,.13,.1,.05,.07,.05,.15,.02,.23s-.11,.16-.22,.24c-.08,.06-.18,.1-.28,.12-.1,.02-.19,.03-.27,0l.02,.14c.08,.02,.18,.01,.29-.01,.11-.03,.22-.07,.32-.14,.11-.07,.19-.15,.24-.23,.05-.08,.08-.16,.08-.24s-.02-.15-.07-.22c-.05-.08-.12-.13-.19-.15-.07-.02-.15-.02-.22,0-.08,.02-.17,.04-.28,.08-.1,.03-.17,.06-.23,.07-.06,.02-.12,.02-.17,0-.05-.01-.1-.04-.13-.1-.05-.07-.06-.15-.03-.23s.1-.16,.22-.24c.06-.04,.13-.07,.2-.1,.08-.02,.15-.04,.23-.04l-.03-.14c-.08,0-.16,.01-.25,.04-.09,.03-.17,.07-.24,.12-.11,.07-.19,.15-.24,.23-.05,.08-.08,.16-.08,.24,0,.08,.02,.15,.07,.22,.05,.08,.12,.13,.19,.15Z"/>
      <polygon points="11.24 3.74 10.49 2.34 10.34 2.42 11.1 3.82 11.24 3.74"/>
      <path d="M11.84,2.4c.07,.03,.14,.05,.22,.05,.08,0,.18-.01,.3-.03,.1-.02,.18-.03,.24-.03,.06,0,.11,0,.17,.02,.05,.02,.09,.06,.11,.12,.03,.08,.03,.15-.02,.23-.05,.08-.13,.14-.26,.2-.09,.04-.19,.06-.29,.07-.1,0-.19,0-.27-.04v.14c.07,.03,.17,.05,.28,.04,.11,0,.23-.04,.34-.08,.12-.05,.21-.11,.28-.18,.07-.07,.11-.14,.12-.22,.01-.08,0-.15-.03-.23-.04-.09-.09-.15-.16-.18-.07-.03-.14-.05-.22-.04-.08,0-.18,.01-.29,.03-.1,.02-.18,.03-.24,.03-.06,0-.12,0-.17-.02-.05-.02-.09-.06-.11-.12-.03-.08-.03-.16,.02-.23,.04-.08,.13-.14,.26-.2,.07-.03,.14-.05,.22-.06,.08,0,.16,0,.24,0v-.15c-.08-.02-.16-.02-.25,0-.09,.01-.18,.03-.26,.07-.12,.05-.21,.11-.28,.18-.07,.07-.1,.14-.12,.22s0,.15,.03,.23c.04,.09,.09,.15,.16,.19Z"/>
      <polygon points="15.18 2.19 15.14 2.05 14.22 2.33 14.05 1.76 14.84 1.52 14.79 1.39 14 1.62 13.84 1.08 14.73 .82 14.68 .68 13.64 .99 14.1 2.51 15.18 2.19"/>
      <path d="M17.22,1.28s.08,.04,.13,.03c.05,0,.08-.03,.11-.07,.03-.04,.04-.08,.03-.13,0-.05-.03-.09-.07-.11s-.08-.04-.13-.03-.08,.03-.11,.06c-.03,.04-.04,.08-.03,.13,0,.05,.03,.09,.07,.12Z"/>
      <path d="M19.92,1.16l.89,.02,.18,.43h.18S20.48,0,20.48,0h-.17s-.77,1.57-.77,1.57h.18s.2-.42,.2-.42Zm.47-.98l.36,.86-.77-.02,.4-.85Z"/>
      <path d="M22.26,1.22l.42,.06s.09,.01,.13,.01l.29,.56,.18,.03-.31-.59c.12-.02,.22-.07,.29-.14,.07-.08,.12-.18,.14-.3,.02-.17-.01-.31-.11-.42-.1-.11-.25-.18-.45-.21l-.59-.08-.23,1.57,.17,.02,.07-.5Zm.13-.93l.42,.06c.16,.02,.27,.07,.34,.15,.07,.08,.1,.18,.08,.31-.02,.12-.07,.22-.17,.27-.09,.06-.22,.07-.37,.05l-.42-.06,.11-.79Z"/>
      <polygon points="24.5 2.15 24.66 2.2 25.03 .8 25.57 .94 25.61 .8 24.36 .48 24.32 .62 24.86 .76 24.5 2.15"/>
      <polygon points="26.72 1.17 26.56 1.12 26.03 2.61 26.19 2.67 26.72 1.17"/>
      <path d="M27.51,3.1c.09,.12,.2,.21,.34,.27,.11,.05,.22,.08,.32,.08,.11,0,.21-.01,.31-.05l-.05-.14c-.17,.06-.34,.05-.51-.03-.11-.05-.21-.13-.28-.22-.07-.1-.11-.2-.12-.32-.01-.12,.01-.23,.06-.34,.05-.11,.13-.2,.22-.27,.1-.07,.2-.1,.32-.11,.12,0,.23,.01,.35,.07,.17,.08,.29,.2,.35,.37l.14-.05c-.03-.1-.08-.19-.16-.26-.07-.08-.16-.14-.27-.19-.14-.07-.29-.1-.43-.09s-.28,.05-.39,.14c-.12,.08-.21,.19-.27,.33s-.09,.28-.08,.42,.06,.27,.15,.39Z"/>
      <path d="M29.75,4.42c.17,.11,.34,.15,.5,.11,.16-.04,.3-.15,.42-.34l.49-.77-.14-.09-.48,.77c-.1,.16-.21,.25-.33,.28-.12,.03-.25,0-.38-.08-.13-.08-.21-.19-.23-.31-.02-.12,.02-.26,.11-.42l.48-.77-.14-.09-.49,.77c-.12,.19-.16,.37-.13,.53,.03,.16,.14,.3,.31,.41Z"/>
      <polygon points="32.11 5.95 31.41 5.39 32.32 4.27 32.19 4.16 31.19 5.4 32.02 6.06 32.11 5.95"/>
      <path d="M33.05,6.43l.63,.63-.17,.43,.13,.13,.62-1.64-.12-.12-1.65,.6,.12,.12,.44-.16Zm1.02-.38l-.34,.87-.54-.54,.88-.33Z"/>
      <polygon points="34.43 8.59 35.56 7.69 35.91 8.13 36.02 8.03 35.22 7.03 35.11 7.12 35.45 7.56 34.32 8.46 34.43 8.59"/>
      <polygon points="35.87 10.68 36 10.6 35.48 9.79 35.98 9.48 36.43 10.17 36.55 10.1 36.11 9.4 36.58 9.1 37.08 9.88 37.2 9.8 36.62 8.88 35.27 9.73 35.87 10.68"/>
      <path d="M37.4,12.62s.09,.02,.13,0c.04-.02,.08-.05,.09-.09,.02-.04,.02-.09,0-.13-.02-.04-.05-.07-.09-.09s-.09-.02-.13,0c-.05,.02-.08,.05-.1,.1-.02,.04-.02,.09,0,.13,.02,.04,.05,.07,.09,.09Z"/>
      <polygon points="38.99 14.81 38.09 15.66 38.11 15.74 39.3 16.1 38.06 16.39 38.09 16.55 39.65 16.19 39.61 16.05 38.31 15.66 39.3 14.71 39.27 14.58 37.71 14.94 37.75 15.1 38.99 14.81"/>
      <path d="M38.25,17.56l.44,.15,.09,.88-.41,.23,.02,.18,1.52-.88-.02-.17-1.66-.57,.02,.17Zm1.47,.49l-.82,.46-.07-.76,.89,.3Z"/>
      <polygon points="40 19.88 38.4 19.85 38.4 20.01 38.82 20.02 39.14 20.35 38.38 20.99 38.38 21.19 39.26 20.47 39.97 21.17 39.98 20.98 39.03 20.03 40 20.05 40 19.88"/>
      <polygon points="38.14 23.16 38.28 23.18 38.41 22.23 39 22.31 38.89 23.12 39.03 23.14 39.14 22.33 39.7 22.41 39.58 23.32 39.72 23.34 39.87 22.26 38.29 22.04 38.14 23.16"/>
      <path d="M38.25,25.38s-.09-.01-.13,.01c-.04,.02-.07,.06-.08,.1s0,.09,.01,.13,.06,.07,.1,.08,.09,0,.13-.01c.04-.02,.07-.06,.08-.1,.01-.04,0-.09-.01-.13-.02-.04-.06-.07-.1-.08Z"/>
    </g>
  </g>
</svg>