<svg xmlns="http://www.w3.org/2000/svg" viewBox="0 0 178.86 97.46"><defs><style>.cls-1{fill:#f9f9f9;stroke:#6de5ca;stroke-miterlimit:10;stroke-width:0.22px;}</style></defs><g id="Layer_2" data-name="Layer 2"><g id="Layer_1-2" data-name="Layer 1"><path class="cls-1" d="M53.55,32.68s1,.78,1.46-.08a.7.7,0,0,0-.28-1,7.38,7.38,0,0,1-1.48-1.25,17.94,17.94,0,0,1-3.93-8.66c-1.27-6.85-6.51-7-8-6.62s-4.93,3.12-1.66,8.28a6.91,6.91,0,0,0,1.14,1.33A48.44,48.44,0,0,0,53.55,32.68Z"/><path class="cls-1" d="M63.57,26.52a2.58,2.58,0,0,0,.13,1.17,1.31,1.31,0,0,0,1.38,1c1.46-.11,1.61-1.05,1.51-2a55.36,55.36,0,0,1,4.56-16.51C74.22,4,72.62.67,68.52.15S60.23,4,60.65,11,64.38,19.08,63.57,26.52Z"/><path class="cls-1" d="M75.75,30.15a1.49,1.49,0,0,0,1,1.91c1,.44,1.38-.21,1.49-.6a3.73,3.73,0,0,1,.33-.86A7,7,0,0,1,83,27.36a3.63,3.63,0,0,0,1.84-6.28c-1.73-1.7-5.37-2.3-7,2.4S75.93,29.89,75.75,30.15Z"/><path class="cls-1" d="M52.77,66.49a1.46,1.46,0,0,1,1.11-.84,1.33,1.33,0,0,1,.64.09,1.25,1.25,0,0,1,.8,1.48,9.1,9.1,0,0,0-.48,2.91c.1.78-.4,10.75-7.3,9.1,0,0-3.52-1.43-1.94-4.47A4.26,4.26,0,0,1,47.35,73C48.49,72.41,50.73,70.72,52.77,66.49Z"/><path class="cls-1" d="M67.72,63a1.94,1.94,0,0,0-1.34.14,1.58,1.58,0,0,0-.94,2c.46,1.88.12,4.06-.55,8.93-.49,3.61-1.43,9.47-2,12.58a18.41,18.41,0,0,0-.09,6.2c.39,2.26,1.93,4.47,4.86,4.53A6.73,6.73,0,0,0,74.27,92c.5-2.3.4-5.67-1.42-10.48C68.46,70,69,65,69,65A1.94,1.94,0,0,0,67.72,63Z"/><path class="cls-1" d="M79.41,65.47a1.22,1.22,0,0,1,.19-1.74,1.53,1.53,0,0,1,2.16.24s3.59,2.73,5.68,3S95,70.56,91.76,74.8c-3.48,4.59-7.22.88-8.8-2.34C81.64,69.75,79.79,65.84,79.41,65.47Z"/><path class="cls-1" d="M20.42,30.38S14.85,27.65,5.26,38.8,2,60.12,4.37,62.21c2.22,1.94,4.64,5,11.36,5.05a7.45,7.45,0,0,0,4-1.11,3,3,0,0,0,1.68-2.7s.84-3.61-5-4.52C10.91,58.05,7.38,54.29,11.2,48q.45-.72.84-1.47c.67-1.22,2.56-4,7.09-6.75C25.16,36.09,24.82,32.21,20.42,30.38Z"/><path class="cls-1" d="M42.62,35a1.5,1.5,0,0,1,1.65-.5c2,.62,8,2.47,8.94,2.42s4,2.32,2,5.08a4.26,4.26,0,0,1-2.8,1.74,20.79,20.79,0,0,1-4.67.23.82.82,0,0,0-.86.71v0A2.15,2.15,0,0,0,48.66,47a6.18,6.18,0,0,0,1.3.15,2.44,2.44,0,0,1,1.13.23A1.56,1.56,0,0,1,52,49.68,3.07,3.07,0,0,1,50.56,51c-1,.48-2.79,1.33-3.42,1.53a.7.7,0,0,0-.48.49s0,.06,0,.1a.81.81,0,0,0,1.08.75A23.07,23.07,0,0,1,53,52.59a2.68,2.68,0,0,1,1.27,4.7c-2.21,2-10,5.15-11,4.55a2.47,2.47,0,0,1-1.26-2.27c-.11-1.74-1.36-18.35-1-19.78,0-.17.08-.34.11-.51A10.92,10.92,0,0,1,42.62,35Z"/><path class="cls-1" d="M85.61,36.23c-1.2.35-8.64,1-13.37,2.56,0,0-2.11.42-1.73,2.34a1.67,1.67,0,0,0,2,1.52,13.39,13.39,0,0,0,3.59-.59c-.93,16.62,3.55,15.15,3.55,15.15,1.77.18,2.76-2.77,2.6-4s.62-9.1-.31-11.67c0,0,4.34-.76,5.36-2.52A1.73,1.73,0,0,0,85.61,36.23Z"/><path class="cls-1" d="M39,57.9c-.66-.26-1.32-.53-2-.85-7.27-3.77-3.27-8.57-1.19-10.48a15.2,15.2,0,0,0,3.14-4c3.49-6.45-1.5-9-3.28-9.71a10.46,10.46,0,0,1-1.09-.46c-6.43-3.12-9.21,1.26-9.82,2.43-.17.33-.36.66-.54,1C19.58,44.56,21,56.26,22,59.54s2,7,6,6.7,2.87-7.73,2.87-7.73c3.32,5.24,7.37,4.66,9.09,4.1a2.59,2.59,0,0,0,1.5-1.21C42.46,59.47,40,58.3,39,57.9ZM29.5,46s-.56.48-.67,0c-.25-1.05-.57-3.17,0-4.3s2.6-2.6,3.39-1S29.5,46,29.5,46Z"/><path class="cls-1" d="M99.69,32.45c-1.68-1.93-4.59-1-5.81-.42a7.72,7.72,0,0,1-1.23.41,3.71,3.71,0,0,0-2.71,2.48c-.92.72-3.09,19.74-3.09,19.74-.15,2.41.31,2.58,2.25,3s2.88-2.08,3-2.48a19.93,19.93,0,0,1,1.14-1.9,3.44,3.44,0,0,1,2.47-1.16,1.87,1.87,0,0,1,2.15,1.13c3.74,9.27,6,8.29,6,8.29,2.49.16,3-3.85,3-3.85C108.36,47,101.86,35,99.69,32.45ZM96.12,45.77c-2.42,1-2.11-4.87-1-7.1,0,0,.31-.75.73,0S98.54,44.81,96.12,45.77Z"/><path class="cls-1" d="M122.48,18.71a29.77,29.77,0,0,0-16,7.34,2.07,2.07,0,0,0-.6,2c.09.94,4.22,27.43,5.34,33.65.15.82.42,1.75,1.23,2,4.75,1.26,7.05-2.7,5.68-10.91-1.49-8.93,5-17.51,5-17.51,7.05-9.31,7-11.85,7-11.85C130.41,18,122.48,18.71,122.48,18.71Zm-7.9,18.86a.78.78,0,0,1-1-.59c-.3-1.4-.86-5.31,1.47-7.66,2.87-2.91,5-4.12,5.47-1.85C121,29.46,116.93,36.73,114.58,37.57Z"/><path class="cls-1" d="M150.31,16.9c-3.53-3.53-9.26-2.93-11.84-2.44a22,22,0,0,1-2.44.3,3,3,0,0,0-3,2.72c-.05.5-.11,1-.18,1.51-3,20.69,1,39.89,2,44.31a3,3,0,0,0,1.87,2.2,2.55,2.55,0,0,0,1.91-.07c1.74-.77,2.71-.36,1.6-7.49s1-12.14,2.26-15.44,3.74-6.2,6.57-9.23a14.81,14.81,0,0,0,3.52-5.75S155,21.56,150.31,16.9Zm-7.75,14.52c-5,3.77-4.4-.47-4.4-.47s.57-9.31,4.82-11.12S147.58,27.65,142.56,31.42Z"/><path class="cls-1" d="M162.47,18.29c-3.54-1.58-4.69-.64-4.69-.64-3.34,1-4.63,37.39-4.65,44a3.05,3.05,0,0,0,1,2.33c3.3,2.84,6.41-8.28,7.89-14,.43-1.67,1.19-5.73,2.9-7.54,1-1.09,3.33-1.27,4,.47,1.87,4.68.51,10.14,2.28,10.31,1.05.1,2.8-2,4.06-3.76a18.3,18.3,0,0,0,3-6.26C181.74,28.88,165.88,19.81,162.47,18.29Zm2.22,16.78c-4.58,1.14-3.56-10.91-3.56-10.91s.2-1.18,1-.32C162.13,23.84,169.27,33.93,164.69,35.07Z"/><path class="cls-1" d="M65.33,38.26c-4.68-2-6,2.24-6.11,2.42-1.87,5.24-1.71,8.14-2.76,12.59-.55,2.34.09,3.46.81,4a2.41,2.41,0,0,0,2.12.31c2.47-.77,2.47-3,2.79-4.06s1.08-1.17,1.08-1.17l1.54-.59a1.2,1.2,0,0,1,1.44.5l.61,1a11,11,0,0,0,2,2.45c1.36,1.24,3.38,2.43,4.81.43C76,52.85,70,40.25,65.33,38.26Zm-.54,9.48a1.17,1.17,0,0,1-1.55.7.67.67,0,0,1-.42-.57s0-.06,0-.1-.05-3.71.39-4.44c.34-.58,1-.09,1.41,1.44h0A6.18,6.18,0,0,1,64.79,47.74Z"/></g></g></svg>