<?xml version="1.0" encoding="utf-8"?>
<!-- Generator: Adobe Illustrator 25.2.3, SVG Export Plug-In . SVG Version: 6.00 Build 0)  -->
<svg version="1.1" id="Layer_1" xmlns="http://www.w3.org/2000/svg" xmlns:xlink="http://www.w3.org/1999/xlink" x="0px" y="0px"
	 viewBox="0 0 24 24" style="enable-background:new 0 0 24 24;" xml:space="preserve">
<style type="text/css">
	.st0{fill:none;}
</style>
<rect class="st0" width="24" height="24"/>
<path d="M14.3,5.7L14.3,5.7c-0.4,0.4-0.4,1,0,1.4l3.1,3.1c0.3,0.3,0.1,0.8-0.3,0.8H3c-0.6,0-1,0.4-1,1v0c0,0.6,0.4,1,1,1h14.1
	c0.4,0,0.6,0.5,0.3,0.8l-3.1,3.1c-0.4,0.4-0.4,1,0,1.4l0,0c0.4,0.4,1,0.4,1.4,0l5.6-5.6c0.4-0.4,0.4-1,0-1.4l-5.6-5.6
	C15.3,5.3,14.7,5.3,14.3,5.7z"/>
</svg>
