<svg width="263" height="49" viewBox="0 0 263 49" fill="none" xmlns="http://www.w3.org/2000/svg">
<path d="M26.9243 14.7137V26.8193H25.6618V21.2335H18.0872V26.8193H16.8074V14.7137H18.0872V20.1094H25.6618V14.7137H26.9243ZM38.1907 22.6515H30.5815C30.6506 23.5969 31.0138 24.3636 31.671 24.9516C32.3281 25.5281 33.1582 25.8163 34.1613 25.8163C34.7262 25.8163 35.245 25.7183 35.7177 25.5223C36.1904 25.3148 36.5997 25.015 36.9456 24.623L37.6373 25.4185C37.2338 25.9028 36.7265 26.2717 36.1155 26.5253C35.516 26.779 34.853 26.9058 34.1267 26.9058C33.1928 26.9058 32.3627 26.7098 31.6364 26.3178C30.9216 25.9143 30.3624 25.3609 29.9589 24.6576C29.5554 23.9543 29.3536 23.1588 29.3536 22.2711C29.3536 21.3833 29.5438 20.5878 29.9243 19.8845C30.3163 19.1813 30.8466 18.6336 31.5153 18.2416C32.1956 17.8497 32.9565 17.6537 33.7981 17.6537C34.6397 17.6537 35.3949 17.8497 36.0636 18.2416C36.7323 18.6336 37.2569 19.1813 37.6373 19.8845C38.0178 20.5763 38.208 21.3718 38.208 22.2711L38.1907 22.6515ZM33.7981 18.7086C32.9219 18.7086 32.184 18.991 31.5845 19.556C30.9965 20.1094 30.6622 20.8357 30.5815 21.735H37.032C36.9513 20.8357 36.6112 20.1094 36.0117 19.556C35.4237 18.991 34.6859 18.7086 33.7981 18.7086ZM40.3613 13.9874H41.5892V26.8193H40.3613V13.9874ZM44.6598 13.9874H45.8876V26.8193H44.6598V13.9874ZM52.6764 26.9058C51.8002 26.9058 51.0104 26.7098 50.3071 26.3178C49.6039 25.9143 49.0505 25.3609 48.6469 24.6576C48.2434 23.9543 48.0417 23.1588 48.0417 22.2711C48.0417 21.3833 48.2434 20.5878 48.6469 19.8845C49.0505 19.1813 49.6039 18.6336 50.3071 18.2416C51.0104 17.8497 51.8002 17.6537 52.6764 17.6537C53.5526 17.6537 54.3423 17.8497 55.0456 18.2416C55.7489 18.6336 56.2965 19.1813 56.6885 19.8845C57.092 20.5878 57.2938 21.3833 57.2938 22.2711C57.2938 23.1588 57.092 23.9543 56.6885 24.6576C56.2965 25.3609 55.7489 25.9143 55.0456 26.3178C54.3423 26.7098 53.5526 26.9058 52.6764 26.9058ZM52.6764 25.8163C53.322 25.8163 53.8985 25.6722 54.4057 25.384C54.9246 25.0842 55.3281 24.6634 55.6163 24.1215C55.9045 23.5796 56.0487 22.9628 56.0487 22.2711C56.0487 21.5793 55.9045 20.9625 55.6163 20.4207C55.3281 19.8788 54.9246 19.4637 54.4057 19.1755C53.8985 18.8757 53.322 18.7259 52.6764 18.7259C52.0307 18.7259 51.4485 18.8757 50.9297 19.1755C50.4224 19.4637 50.0189 19.8788 49.7191 20.4207C49.4309 20.9625 49.2868 21.5793 49.2868 22.2711C49.2868 22.9628 49.4309 23.5796 49.7191 24.1215C50.0189 24.6634 50.4224 25.0842 50.9297 25.384C51.4485 25.6722 52.0307 25.8163 52.6764 25.8163ZM76.9857 17.7228L73.5442 26.8193H72.3856L69.5148 19.3657L66.644 26.8193H65.4854L62.0612 17.7228H63.2372L66.0906 25.4531L69.0133 17.7228H70.0682L72.9735 25.4531L75.8616 17.7228H76.9857ZM86.1558 22.6515H78.5466C78.6158 23.5969 78.9789 24.3636 79.6361 24.9516C80.2932 25.5281 81.1233 25.8163 82.1264 25.8163C82.6913 25.8163 83.2101 25.7183 83.6828 25.5223C84.1555 25.3148 84.5648 25.015 84.9107 24.623L85.6024 25.4185C85.1989 25.9028 84.6916 26.2717 84.0806 26.5253C83.4811 26.779 82.8181 26.9058 82.0918 26.9058C81.1579 26.9058 80.3278 26.7098 79.6015 26.3178C78.8867 25.9143 78.3275 25.3609 77.924 24.6576C77.5205 23.9543 77.3187 23.1588 77.3187 22.2711C77.3187 21.3833 77.509 20.5878 77.8894 19.8845C78.2814 19.1813 78.8117 18.6336 79.4804 18.2416C80.1607 17.8497 80.9216 17.6537 81.7632 17.6537C82.6048 17.6537 83.36 17.8497 84.0287 18.2416C84.6974 18.6336 85.222 19.1813 85.6024 19.8845C85.9829 20.5763 86.1731 21.3718 86.1731 22.2711L86.1558 22.6515ZM81.7632 18.7086C80.887 18.7086 80.1491 18.991 79.5496 19.556C78.9616 20.1094 78.6273 20.8357 78.5466 21.735H84.9971C84.9164 20.8357 84.5763 20.1094 83.9768 19.556C83.3888 18.991 82.651 18.7086 81.7632 18.7086ZM95.6887 17.6537C96.8762 17.6537 97.787 17.9534 98.4211 18.5529C99.0552 19.1409 99.3723 20.0171 99.3723 21.1816V26.8193H98.1963V25.4013C97.9196 25.8739 97.5103 26.2429 96.9685 26.508C96.4381 26.7732 95.804 26.9058 95.0661 26.9058C94.0516 26.9058 93.2445 26.6637 92.645 26.1795C92.0455 25.6952 91.7457 25.0554 91.7457 24.2599C91.7457 23.4874 92.0224 22.8648 92.5758 22.3921C93.1408 21.9194 94.0343 21.6831 95.2564 21.6831H98.1444V21.1297C98.1444 20.3457 97.9254 19.752 97.4873 19.3484C97.0492 18.9334 96.4093 18.7259 95.5677 18.7259C94.9912 18.7259 94.4378 18.8239 93.9075 19.0199C93.3771 19.2043 92.9217 19.4637 92.5413 19.7981L91.9879 18.8815C92.449 18.4895 93.0024 18.1898 93.6481 17.9822C94.2937 17.7632 94.9739 17.6537 95.6887 17.6537ZM95.2564 25.9374C95.9481 25.9374 96.5419 25.7817 97.0376 25.4704C97.5334 25.1476 97.9023 24.6864 98.1444 24.0869V22.5997H95.291C93.7345 22.5997 92.9563 23.1415 92.9563 24.2253C92.9563 24.7556 93.1581 25.1764 93.5616 25.4877C93.9651 25.7875 94.53 25.9374 95.2564 25.9374ZM103.537 19.5041C103.826 18.893 104.252 18.4319 104.817 18.1206C105.394 17.8093 106.103 17.6537 106.944 17.6537V18.8469L106.65 18.8296C105.693 18.8296 104.944 19.1236 104.402 19.7116C103.86 20.2996 103.589 21.1239 103.589 22.1846V26.8193H102.361V17.7228H103.537V19.5041ZM116.658 22.6515H109.048C109.118 23.5969 109.481 24.3636 110.138 24.9516C110.795 25.5281 111.625 25.8163 112.628 25.8163C113.193 25.8163 113.712 25.7183 114.185 25.5223C114.657 25.3148 115.067 25.015 115.412 24.623L116.104 25.4185C115.701 25.9028 115.193 26.2717 114.582 26.5253C113.983 26.779 113.32 26.9058 112.594 26.9058C111.66 26.9058 110.83 26.7098 110.103 26.3178C109.389 25.9143 108.829 25.3609 108.426 24.6576C108.022 23.9543 107.821 23.1588 107.821 22.2711C107.821 21.3833 108.011 20.5878 108.391 19.8845C108.783 19.1813 109.314 18.6336 109.982 18.2416C110.662 17.8497 111.423 17.6537 112.265 17.6537C113.107 17.6537 113.862 17.8497 114.531 18.2416C115.199 18.6336 115.724 19.1813 116.104 19.8845C116.485 20.5763 116.675 21.3718 116.675 22.2711L116.658 22.6515ZM112.265 18.7086C111.389 18.7086 110.651 18.991 110.051 19.556C109.463 20.1094 109.129 20.8357 109.048 21.735H115.499C115.418 20.8357 115.078 20.1094 114.479 19.556C113.891 18.991 113.153 18.7086 112.265 18.7086ZM125.084 17.4288H121.366V14.7137H132.209V17.4288H128.508V26.8193H125.084V17.4288ZM141.618 22.15C141.618 22.1731 141.601 22.444 141.566 22.9628H134.752C134.891 23.4471 135.156 23.8218 135.548 24.0869C135.951 24.3406 136.453 24.4674 137.052 24.4674C137.502 24.4674 137.888 24.404 138.211 24.2772C138.545 24.1503 138.88 23.9428 139.214 23.6546L140.943 25.4531C140.033 26.4677 138.701 26.975 136.949 26.975C135.853 26.975 134.891 26.7675 134.061 26.3524C133.23 25.9374 132.585 25.3609 132.124 24.623C131.674 23.8852 131.449 23.0493 131.449 22.1154C131.449 21.1931 131.668 20.3688 132.106 19.6424C132.556 18.9046 133.173 18.3281 133.957 17.9131C134.741 17.498 135.623 17.2905 136.603 17.2905C137.537 17.2905 138.384 17.4865 139.145 17.8785C139.906 18.2589 140.505 18.8181 140.943 19.556C141.393 20.2823 141.618 21.147 141.618 22.15ZM136.62 19.6251C136.113 19.6251 135.686 19.7693 135.34 20.0575C135.006 20.3457 134.793 20.7377 134.7 21.2335H138.54C138.447 20.7377 138.228 20.3457 137.882 20.0575C137.548 19.7693 137.127 19.6251 136.62 19.6251ZM146.528 17.2905C148.085 17.2905 149.272 17.6479 150.091 18.3627C150.91 19.066 151.319 20.1497 151.319 21.6139V26.8193H148.258V25.6088C147.785 26.5196 146.863 26.975 145.491 26.975C144.765 26.975 144.136 26.8482 143.606 26.5945C143.076 26.3409 142.672 26.0008 142.395 25.5742C142.13 25.1361 141.998 24.6403 141.998 24.0869C141.998 23.1992 142.338 22.5132 143.018 22.029C143.698 21.5332 144.747 21.2853 146.165 21.2853H148.033C147.975 20.2938 147.312 19.7981 146.044 19.7981C145.595 19.7981 145.139 19.873 144.678 20.0229C144.217 20.1612 143.825 20.3572 143.502 20.6109L142.395 18.38C142.914 18.0341 143.542 17.769 144.28 17.5845C145.03 17.3885 145.779 17.2905 146.528 17.2905ZM146.407 24.8997C146.788 24.8997 147.122 24.8075 147.41 24.623C147.699 24.4386 147.906 24.1676 148.033 23.8102V22.9974H146.615C145.658 22.9974 145.18 23.3145 145.18 23.9486C145.18 24.2368 145.289 24.4674 145.508 24.6403C145.727 24.8133 146.027 24.8997 146.407 24.8997ZM165.256 17.2905C166.409 17.2905 167.326 17.6364 168.006 18.3281C168.698 19.0199 169.044 20.0633 169.044 21.4583V26.8193H165.758V21.9944C165.758 21.3372 165.631 20.853 165.377 20.5417C165.135 20.2304 164.789 20.0748 164.34 20.0748C163.844 20.0748 163.446 20.2477 163.147 20.5936C162.847 20.9395 162.697 21.464 162.697 22.1673V26.8193H159.411V21.9944C159.411 20.7146 158.938 20.0748 157.993 20.0748C157.486 20.0748 157.082 20.2477 156.782 20.5936C156.483 20.9395 156.333 21.464 156.333 22.1673V26.8193H153.047V17.4461H156.177V18.4319C156.523 18.0514 156.932 17.769 157.405 17.5845C157.889 17.3885 158.414 17.2905 158.979 17.2905C159.636 17.2905 160.224 17.4115 160.743 17.6537C161.262 17.8958 161.682 18.2647 162.005 18.7605C162.374 18.2878 162.841 17.9246 163.406 17.671C163.971 17.4173 164.588 17.2905 165.256 17.2905ZM180.642 14.7137C181.737 14.7137 182.688 14.8982 183.495 15.2671C184.302 15.6245 184.925 16.1433 185.363 16.8236C185.801 17.4923 186.02 18.282 186.02 19.1928C186.02 20.1036 185.801 20.8934 185.363 21.562C184.925 22.2307 184.302 22.7495 183.495 23.1185C182.688 23.4759 181.737 23.6546 180.642 23.6546H178.532V26.8193H175.108V14.7137H180.642ZM180.434 20.9568C181.137 20.9568 181.668 20.8069 182.025 20.5071C182.383 20.1958 182.561 19.7577 182.561 19.1928C182.561 18.6279 182.383 18.1898 182.025 17.8785C181.668 17.5672 181.137 17.4115 180.434 17.4115H178.532V20.9568H180.434ZM190.403 18.5702C190.737 18.1436 191.169 17.8266 191.7 17.6191C192.241 17.4 192.858 17.2905 193.55 17.2905V20.2477C193.25 20.2131 193.002 20.1958 192.806 20.1958C192.103 20.1958 191.55 20.3861 191.146 20.7665C190.754 21.147 190.558 21.7292 190.558 22.5132V26.8193H187.272V17.4461H190.403V18.5702ZM199.18 26.975C198.176 26.975 197.271 26.7675 196.464 26.3524C195.657 25.9374 195.023 25.3609 194.562 24.623C194.112 23.8852 193.888 23.0493 193.888 22.1154C193.888 21.1931 194.112 20.363 194.562 19.6251C195.023 18.8873 195.652 18.3166 196.447 17.9131C197.254 17.498 198.165 17.2905 199.18 17.2905C200.194 17.2905 201.105 17.498 201.912 17.9131C202.719 18.3166 203.347 18.8873 203.797 19.6251C204.247 20.3515 204.471 21.1816 204.471 22.1154C204.471 23.0493 204.247 23.8852 203.797 24.623C203.347 25.3609 202.719 25.9374 201.912 26.3524C201.105 26.7675 200.194 26.975 199.18 26.975ZM199.18 24.3636C199.756 24.3636 200.229 24.1676 200.598 23.7756C200.967 23.3721 201.151 22.8187 201.151 22.1154C201.151 21.4237 200.967 20.8818 200.598 20.4898C200.229 20.0978 199.756 19.9018 199.18 19.9018C198.603 19.9018 198.13 20.0978 197.761 20.4898C197.393 20.8818 197.208 21.4237 197.208 22.1154C197.208 22.8187 197.393 23.3721 197.761 23.7756C198.13 24.1676 198.603 24.3636 199.18 24.3636ZM205.25 30.33C204.293 30.33 203.532 30.1686 202.967 29.8457L203.797 27.5111C204.097 27.6956 204.437 27.7878 204.818 27.7878C205.117 27.7878 205.354 27.684 205.527 27.4765C205.7 27.269 205.786 26.9635 205.786 26.5599V17.4461H209.072V26.5772C209.072 27.7301 208.732 28.6409 208.051 29.3096C207.383 29.9899 206.449 30.33 205.25 30.33ZM207.429 16.4085C206.829 16.4085 206.345 16.2413 205.976 15.907C205.607 15.5726 205.423 15.1576 205.423 14.6618C205.423 14.1661 205.607 13.751 205.976 13.4167C206.345 13.0823 206.829 12.9152 207.429 12.9152C208.028 12.9152 208.513 13.0766 208.882 13.3994C209.251 13.7107 209.435 14.1142 209.435 14.61C209.435 15.1288 209.251 15.5611 208.882 15.907C208.513 16.2413 208.028 16.4085 207.429 16.4085ZM220.422 22.15C220.422 22.1731 220.405 22.444 220.37 22.9628H213.556C213.695 23.4471 213.96 23.8218 214.352 24.0869C214.755 24.3406 215.257 24.4674 215.856 24.4674C216.306 24.4674 216.692 24.404 217.015 24.2772C217.349 24.1503 217.684 23.9428 218.018 23.6546L219.747 25.4531C218.837 26.4677 217.505 26.975 215.753 26.975C214.657 26.975 213.695 26.7675 212.865 26.3524C212.034 25.9374 211.389 25.3609 210.928 24.623C210.478 23.8852 210.253 23.0493 210.253 22.1154C210.253 21.1931 210.472 20.3688 210.91 19.6424C211.36 18.9046 211.977 18.3281 212.761 17.9131C213.545 17.498 214.427 17.2905 215.407 17.2905C216.341 17.2905 217.188 17.4865 217.949 17.8785C218.71 18.2589 219.309 18.8181 219.747 19.556C220.197 20.2823 220.422 21.147 220.422 22.15ZM215.424 19.6251C214.917 19.6251 214.49 19.7693 214.144 20.0575C213.81 20.3457 213.597 20.7377 213.504 21.2335H217.344C217.251 20.7377 217.032 20.3457 216.686 20.0575C216.352 19.7693 215.931 19.6251 215.424 19.6251ZM226.381 26.975C225.344 26.975 224.416 26.7675 223.597 26.3524C222.778 25.9374 222.139 25.3609 221.677 24.623C221.228 23.8852 221.003 23.0493 221.003 22.1154C221.003 21.1816 221.228 20.3515 221.677 19.6251C222.139 18.8873 222.778 18.3166 223.597 17.9131C224.416 17.498 225.344 17.2905 226.381 17.2905C227.442 17.2905 228.359 17.5211 229.131 17.9822C229.904 18.4319 230.451 19.0602 230.774 19.8673L228.232 21.1643C227.805 20.3227 227.183 19.9018 226.364 19.9018C225.776 19.9018 225.286 20.0978 224.894 20.4898C224.514 20.8818 224.323 21.4237 224.323 22.1154C224.323 22.8187 224.514 23.3721 224.894 23.7756C225.286 24.1676 225.776 24.3636 226.364 24.3636C227.183 24.3636 227.805 23.9428 228.232 23.1012L230.774 24.3982C230.451 25.2053 229.904 25.8394 229.131 26.3005C228.359 26.7502 227.442 26.975 226.381 26.975ZM238.285 26.4389C238.008 26.6118 237.668 26.7444 237.265 26.8366C236.873 26.9289 236.452 26.975 236.002 26.975C234.78 26.975 233.841 26.6752 233.183 26.0757C232.526 25.4762 232.198 24.5827 232.198 23.3952V20.2477H230.832V17.792H232.198V15.3536H235.484V17.792H237.628V20.2477H235.484V23.3606C235.484 23.6949 235.57 23.9601 235.743 24.1561C235.927 24.3406 236.17 24.4328 236.469 24.4328C236.85 24.4328 237.184 24.3348 237.472 24.1388L238.285 26.4389ZM240.776 23.0839C241.341 23.0839 241.808 23.2626 242.177 23.62C242.546 23.9774 242.73 24.4443 242.73 25.0208C242.73 25.286 242.696 25.5511 242.626 25.8163C242.557 26.0815 242.402 26.4792 242.159 27.0096L241.07 29.5345H239.012L239.825 26.7156C239.502 26.5657 239.248 26.3466 239.064 26.0584C238.891 25.7587 238.804 25.4128 238.804 25.0208C238.804 24.4443 238.989 23.9774 239.358 23.62C239.727 23.2626 240.199 23.0839 240.776 23.0839Z" fill="white"/>
<path d="M5.75729 32.9154L6.18486 32.9795L6.21473 32.7803L6.0814 32.6292L5.75729 32.9154ZM1 48.0007L0.598033 47.8415L1.37538 48.2152L1 48.0007ZM10.7086 36.9213L10.9206 36.5445L10.7049 36.4231L10.491 36.5477L10.7086 36.9213ZM1.43234 20.3307C1.43234 10.0633 9.75571 1.73996 20.0231 1.73996V0.875274C9.27815 0.875274 0.567657 9.58578 0.567657 20.3307H1.43234ZM6.0814 32.6292C3.18774 29.3515 1.43234 25.0466 1.43234 20.3307H0.567657C0.567657 25.2654 2.4054 29.7719 5.43318 33.2015L6.0814 32.6292ZM1 48.0007C1.40197 48.1599 1.40199 48.1598 1.40203 48.1597C1.40206 48.1596 1.40212 48.1595 1.40218 48.1593C1.40232 48.159 1.40251 48.1585 1.40276 48.1579C1.40327 48.1566 1.40402 48.1547 1.40501 48.1522C1.40699 48.1472 1.40992 48.1398 1.41377 48.13C1.42148 48.1104 1.4329 48.0814 1.44779 48.0434C1.47757 47.9675 1.52127 47.8556 1.5771 47.7116C1.68877 47.4237 1.84899 47.007 2.04353 46.4918C2.43254 45.4614 2.95905 44.0357 3.50893 42.4546C4.60448 39.3046 5.80732 35.4975 6.18486 32.9795L5.32973 32.8513C4.96576 35.2787 3.78995 39.0143 2.69223 42.1705C2.14547 43.7426 1.62169 45.161 1.23458 46.1864C1.04105 46.699 0.881746 47.1132 0.770901 47.399C0.715481 47.542 0.672178 47.6528 0.642773 47.7278C0.62807 47.7653 0.616842 47.7938 0.609311 47.8129C0.605546 47.8225 0.602705 47.8297 0.600816 47.8345C0.599871 47.8368 0.599165 47.8386 0.5987 47.8398C0.598467 47.8404 0.598295 47.8408 0.598184 47.8411C0.598128 47.8413 0.59809 47.8413 0.598062 47.8414C0.59804 47.8415 0.598033 47.8415 1 48.0007ZM10.491 36.5477C8.44809 37.7375 6.43275 39.7654 4.71333 41.8675C2.98894 43.9756 1.53671 46.19 0.624621 47.7862L1.37538 48.2152C2.26619 46.6563 3.69172 44.4822 5.38263 42.415C7.07852 40.3417 9.01603 38.4074 10.9262 37.2949L10.491 36.5477ZM20.0231 38.9215C16.7154 38.9215 13.6106 38.058 10.9206 36.5445L10.4966 37.2981C13.3127 38.8825 16.563 39.7862 20.0231 39.7862V38.9215ZM240.518 38.9215H20.0231V39.7862H240.518V38.9215ZM259.109 20.3307C259.109 30.5981 250.786 38.9215 240.518 38.9215V39.7862C251.263 39.7862 259.974 31.0757 259.974 20.3307H259.109ZM240.518 1.73996C250.786 1.73996 259.109 10.0633 259.109 20.3307H259.974C259.974 9.58578 251.263 0.875274 240.518 0.875274V1.73996ZM20.0231 1.73996H240.518V0.875274H20.0231V1.73996Z" fill="#F5F5F5"/>
</svg>
