<svg width="218" height="40" viewBox="0 0 218 40" fill="none" xmlns="http://www.w3.org/2000/svg">
<path fill-rule="evenodd" clip-rule="evenodd" d="M0 14.7893C0 6.6214 6.62139 0 14.7893 0H202.822C210.99 0 217.611 6.62139 217.611 14.7893V17.2337C217.611 25.4016 210.99 32.023 202.822 32.023H14.7893C12.2384 32.023 9.83837 31.3772 7.74376 30.2402C4.56238 32.3157 1.45241 36.7596 0 39.3013C0 39.3013 3.06163 31.5707 3.89521 27.236C1.47654 24.603 0 21.0908 0 17.2337V14.7893ZM170.131 24.4307C170.606 24.7024 171.246 24.8383 172.052 24.8383C173.061 24.8383 173.847 24.552 174.41 23.9795C174.982 23.4166 175.269 22.65 175.269 21.6796V13.9941H172.503V21.6651C172.503 22.0047 172.43 22.2619 172.285 22.4365C172.139 22.6112 171.94 22.6985 171.688 22.6985C171.368 22.6985 171.082 22.6209 170.829 22.4656L170.131 24.4307ZM172.663 12.6986C172.974 12.98 173.381 13.1207 173.886 13.1207C174.391 13.1207 174.798 12.98 175.109 12.6986C175.419 12.4075 175.574 12.0436 175.574 11.6069C175.574 11.1896 175.419 10.85 175.109 10.588C174.798 10.3163 174.391 10.1804 173.886 10.1804C173.381 10.1804 172.974 10.3211 172.663 10.6026C172.353 10.884 172.197 11.2333 172.197 11.6506C172.197 12.0679 172.353 12.4172 172.663 12.6986ZM33.2672 11.0829H34.3006V21.8834H33.2672V11.0829ZM21.9573 21.8834V11.6942H20.8947V16.2357H14.5192V11.6942H13.4421V21.8834H14.5192V17.1818H20.8947V21.8834H21.9573ZM25.0356 18.3754H31.4402L31.4547 18.0552C31.4547 17.2983 31.2946 16.6287 30.9744 16.0465C30.6541 15.4545 30.2126 14.9936 29.6498 14.6637C29.087 14.3337 28.4514 14.1688 27.743 14.1688C27.0346 14.1688 26.3941 14.3337 25.8216 14.6637C25.2588 14.9936 24.8124 15.4545 24.4824 16.0465C24.1622 16.6384 24.0021 17.308 24.0021 18.0552C24.0021 18.8024 24.1719 19.472 24.5115 20.0639C24.8512 20.6558 25.3218 21.1216 25.9235 21.4613C26.5348 21.7912 27.2335 21.9562 28.0195 21.9562C28.6309 21.9562 29.1889 21.8494 29.6935 21.6359C30.2078 21.4225 30.6347 21.1119 30.9744 20.7044L30.3921 20.0348C30.101 20.3647 29.7565 20.617 29.3587 20.7917C28.9608 20.9567 28.5241 21.0392 28.0486 21.0392C27.2044 21.0392 26.5057 20.7966 25.9526 20.3114C25.3995 19.8165 25.0938 19.1711 25.0356 18.3754ZM25.8798 15.7699C26.3844 15.2944 27.0055 15.0567 27.743 15.0567C28.4902 15.0567 29.1112 15.2944 29.6061 15.7699C30.1107 16.2357 30.397 16.847 30.4649 17.604H25.0356C25.1035 16.847 25.3849 16.2357 25.8798 15.7699ZM37.9186 11.0829H36.8851V21.8834H37.9186V11.0829ZM43.6326 21.9562C42.8951 21.9562 42.2304 21.7912 41.6384 21.4613C41.0465 21.1216 40.5807 20.6558 40.241 20.0639C39.9014 19.472 39.7316 18.8024 39.7316 18.0552C39.7316 17.308 39.9014 16.6384 40.241 16.0465C40.5807 15.4545 41.0465 14.9936 41.6384 14.6637C42.2304 14.3337 42.8951 14.1688 43.6326 14.1688C44.3701 14.1688 45.0348 14.3337 45.6267 14.6637C46.2187 14.9936 46.6796 15.4545 47.0096 16.0465C47.3492 16.6384 47.519 17.308 47.519 18.0552C47.519 18.8024 47.3492 19.472 47.0096 20.0639C46.6796 20.6558 46.2187 21.1216 45.6267 21.4613C45.0348 21.7912 44.3701 21.9562 43.6326 21.9562ZM43.6326 21.0392C44.176 21.0392 44.6612 20.9179 45.0882 20.6753C45.5248 20.423 45.8645 20.0688 46.1071 19.6127C46.3497 19.1566 46.471 18.6374 46.471 18.0552C46.471 17.473 46.3497 16.9538 46.1071 16.4977C45.8645 16.0416 45.5248 15.6923 45.0882 15.4497C44.6612 15.1974 44.176 15.0712 43.6326 15.0712C43.0892 15.0712 42.5991 15.1974 42.1624 15.4497C41.7355 15.6923 41.3958 16.0416 41.1435 16.4977C40.9009 16.9538 40.7796 17.473 40.7796 18.0552C40.7796 18.6374 40.9009 19.1566 41.1435 19.6127C41.3958 20.0688 41.7355 20.423 42.1624 20.6753C42.5991 20.9179 43.0892 21.0392 43.6326 21.0392ZM60.2216 21.8834H61.1968L64.0934 14.227H63.1473L60.7165 20.7335L58.2711 14.227H57.3832L54.9232 20.7335L52.5215 14.227H51.5317L54.4137 21.8834H55.389L57.8053 15.6098L60.2216 21.8834ZM71.8118 18.3754H65.4072C65.4654 19.1711 65.7711 19.8165 66.3242 20.3114C66.8774 20.7966 67.576 21.0392 68.4203 21.0392C68.8958 21.0392 69.3325 20.9567 69.7303 20.7917C70.1282 20.617 70.4727 20.3647 70.7638 20.0348L71.346 20.7044C71.0064 21.1119 70.5794 21.4225 70.0651 21.6359C69.5605 21.8494 69.0025 21.9562 68.3912 21.9562C67.6052 21.9562 66.9065 21.7912 66.2951 21.4613C65.6935 21.1216 65.2228 20.6558 64.8832 20.0639C64.5436 19.472 64.3737 18.8024 64.3737 18.0552C64.3737 17.308 64.5339 16.6384 64.8541 16.0465C65.184 15.4545 65.6304 14.9936 66.1932 14.6637C66.7658 14.3337 67.4062 14.1688 68.1146 14.1688C68.823 14.1688 69.4586 14.3337 70.0214 14.6637C70.5843 14.9936 71.0258 15.4545 71.346 16.0465C71.6663 16.6287 71.8264 17.2983 71.8264 18.0552L71.8118 18.3754ZM68.1146 15.0567C67.3771 15.0567 66.7561 15.2944 66.2515 15.7699C65.7566 16.2357 65.4752 16.847 65.4072 17.604H70.8366C70.7687 16.847 70.4824 16.2357 69.9778 15.7699C69.4829 15.2944 68.8618 15.0567 68.1146 15.0567ZM82.1354 14.9257C81.6017 14.4211 80.8351 14.1688 79.8356 14.1688C79.2339 14.1688 78.6614 14.2609 78.118 14.4453C77.5745 14.62 77.1087 14.8723 76.7206 15.2022L77.1864 15.9737C77.5066 15.6923 77.8899 15.4739 78.3363 15.3187C78.7827 15.1537 79.2485 15.0712 79.7337 15.0712C80.4421 15.0712 80.9806 15.2459 81.3494 15.5952C81.7181 15.9349 81.9025 16.4346 81.9025 17.0945V17.5603H79.4717C78.443 17.5603 77.691 17.7592 77.2155 18.1571C76.7497 18.5549 76.5168 19.079 76.5168 19.7291C76.5168 20.3987 76.7691 20.9373 77.2737 21.3448C77.7783 21.7524 78.4576 21.9562 79.3115 21.9562C79.9326 21.9562 80.4663 21.8446 80.9127 21.6214C81.3688 21.3982 81.7133 21.0877 81.9462 20.6898V21.8834H82.936V17.1382C82.936 16.1581 82.6691 15.4206 82.1354 14.9257ZM80.9709 20.748C80.5536 21.01 80.0539 21.141 79.4717 21.141C78.8603 21.141 78.3848 21.0149 78.0452 20.7626C77.7055 20.5006 77.5357 20.1464 77.5357 19.7C77.5357 18.7878 78.1907 18.3318 79.5008 18.3318H81.9025V19.5836C81.6987 20.0882 81.3882 20.4763 80.9709 20.748ZM86.4417 15.7262C86.6843 15.2119 87.0433 14.8238 87.5188 14.5618C88.004 14.2998 88.6008 14.1688 89.3092 14.1688V15.1731L89.0617 15.1586C88.2563 15.1586 87.6255 15.406 87.1695 15.9009C86.7134 16.3958 86.4853 17.0896 86.4853 17.9824V21.8834H85.4519V14.227H86.4417V15.7262ZM91.0802 18.3754H97.4848L97.4994 18.0552C97.4994 17.2983 97.3393 16.6287 97.0191 16.0465C96.6988 15.4545 96.2573 14.9936 95.6945 14.6637C95.1316 14.3337 94.496 14.1688 93.7876 14.1688C93.0792 14.1688 92.4388 14.3337 91.8663 14.6637C91.3034 14.9936 90.857 15.4545 90.5271 16.0465C90.2069 16.6384 90.0468 17.308 90.0468 18.0552C90.0468 18.8024 90.2166 19.472 90.5562 20.0639C90.8959 20.6558 91.3665 21.1216 91.9681 21.4613C92.5795 21.7912 93.2782 21.9562 94.0642 21.9562C94.6756 21.9562 95.2335 21.8494 95.7381 21.6359C96.2524 21.4225 96.6794 21.1119 97.0191 20.7044L96.4368 20.0348C96.1457 20.3647 95.8012 20.617 95.4034 20.7917C95.0055 20.9567 94.5688 21.0392 94.0933 21.0392C93.2491 21.0392 92.5504 20.7966 91.9973 20.3114C91.4441 19.8165 91.1385 19.1711 91.0802 18.3754ZM91.9245 15.7699C92.4291 15.2944 93.0501 15.0567 93.7876 15.0567C94.5348 15.0567 95.1559 15.2944 95.6508 15.7699C96.1554 16.2357 96.4417 16.847 96.5096 17.604H91.0802C91.1482 16.847 91.4296 16.2357 91.9245 15.7699ZM104.577 13.9795H101.447V11.6942H110.574V13.9795H107.459V21.8834H104.577V13.9795ZM118.45 18.6374C118.479 18.2007 118.494 17.9727 118.494 17.9533C118.494 17.1091 118.304 16.3813 117.926 15.7699C117.557 15.1489 117.053 14.6782 116.412 14.358C115.772 14.028 115.058 13.8631 114.272 13.8631C113.448 13.8631 112.705 14.0378 112.045 14.3871C111.385 14.7364 110.866 15.2216 110.488 15.8427C110.119 16.454 109.935 17.1479 109.935 17.9242C109.935 18.7102 110.124 19.4137 110.502 20.0348C110.891 20.6558 111.434 21.141 112.133 21.4904C112.831 21.8397 113.642 22.0144 114.563 22.0144C116.038 22.0144 117.159 21.5874 117.926 20.7335L116.47 19.2197C116.189 19.4623 115.907 19.6369 115.626 19.7437C115.354 19.8504 115.029 19.9038 114.651 19.9038C114.146 19.9038 113.724 19.797 113.384 19.5836C113.055 19.3604 112.831 19.045 112.715 18.6374H118.45ZM113.21 16.192C113.501 15.9494 113.86 15.8281 114.287 15.8281C114.714 15.8281 115.068 15.9494 115.35 16.192C115.641 16.4346 115.825 16.7646 115.903 17.1818H112.671C112.749 16.7646 112.928 16.4346 113.21 16.192ZM122.627 13.8631C123.937 13.8631 124.936 14.1639 125.625 14.7655C126.314 15.3575 126.659 16.2697 126.659 17.5021V21.8834H124.082V20.8645C123.685 21.6311 122.908 22.0144 121.753 22.0144C121.142 22.0144 120.613 21.9077 120.167 21.6942C119.72 21.4807 119.381 21.1944 119.148 20.8354C118.925 20.4666 118.813 20.0494 118.813 19.5836C118.813 18.8364 119.099 18.259 119.672 17.8514C120.244 17.4341 121.128 17.2255 122.321 17.2255H123.893C123.845 16.391 123.287 15.9737 122.219 15.9737C121.841 15.9737 121.457 16.0368 121.069 16.1629C120.681 16.2794 120.351 16.4443 120.08 16.6578L119.148 14.7801C119.585 14.489 120.113 14.2658 120.735 14.1105C121.365 13.9456 121.996 13.8631 122.627 13.8631ZM122.525 20.2677C122.845 20.2677 123.127 20.1901 123.369 20.0348C123.612 19.8795 123.786 19.6515 123.893 19.3507V18.6665H122.7C121.894 18.6665 121.491 18.9334 121.491 19.4671C121.491 19.7097 121.584 19.9038 121.768 20.0494C121.952 20.1949 122.205 20.2677 122.525 20.2677ZM140.704 14.7364C140.132 14.1542 139.36 13.8631 138.39 13.8631C137.827 13.8631 137.308 13.9698 136.832 14.1833C136.357 14.3968 135.964 14.7025 135.653 15.1003C135.382 14.6831 135.027 14.3725 134.591 14.1688C134.154 13.965 133.659 13.8631 133.106 13.8631C132.631 13.8631 132.189 13.9456 131.781 14.1105C131.384 14.2658 131.039 14.5035 130.748 14.8238V13.9941H128.113V21.8834H130.879V17.9679C130.879 17.3759 131.005 16.9344 131.257 16.6433C131.51 16.3521 131.849 16.2066 132.276 16.2066C133.072 16.2066 133.47 16.7452 133.47 17.8223V21.8834H136.236V17.9679C136.236 17.3759 136.362 16.9344 136.614 16.6433C136.866 16.3521 137.201 16.2066 137.618 16.2066C137.997 16.2066 138.288 16.3376 138.492 16.5996C138.705 16.8616 138.812 17.2692 138.812 17.8223V21.8834H141.578V17.3711C141.578 16.1969 141.286 15.3187 140.704 14.7364ZM151.339 11.6942C152.261 11.6942 153.062 11.8495 153.741 12.16C154.42 12.4609 154.944 12.8975 155.313 13.4701C155.682 14.0329 155.866 14.6976 155.866 15.4642C155.866 16.2308 155.682 16.8956 155.313 17.4584C154.944 18.0212 154.42 18.4579 153.741 18.7684C153.062 19.0693 152.261 19.2197 151.339 19.2197H149.564V21.8834H146.682V11.6942H151.339ZM151.165 16.9489C151.757 16.9489 152.203 16.8228 152.504 16.5705C152.805 16.3085 152.955 15.9397 152.955 15.4642C152.955 14.9887 152.805 14.62 152.504 14.358C152.203 14.096 151.757 13.965 151.165 13.965H149.564V16.9489H151.165ZM160.647 14.1396C160.2 14.3143 159.837 14.5812 159.555 14.9402V13.9941H156.92V21.8834H159.686V18.259C159.686 17.5991 159.851 17.1091 160.181 16.7888C160.521 16.4686 160.986 16.3085 161.578 16.3085C161.743 16.3085 161.952 16.323 162.204 16.3521V13.8631C161.622 13.8631 161.103 13.9553 160.647 14.1396ZM166.943 22.0144C166.098 22.0144 165.337 21.8397 164.657 21.4904C163.978 21.141 163.444 20.6558 163.056 20.0348C162.678 19.4137 162.488 18.7102 162.488 17.9242C162.488 17.1479 162.678 16.4492 163.056 15.8281C163.444 15.2071 163.973 14.7267 164.643 14.3871C165.322 14.0378 166.089 13.8631 166.943 13.8631C167.797 13.8631 168.563 14.0378 169.242 14.3871C169.922 14.7267 170.451 15.2071 170.829 15.8281C171.207 16.4395 171.397 17.1382 171.397 17.9242C171.397 18.7102 171.207 19.4137 170.829 20.0348C170.451 20.6558 169.922 21.141 169.242 21.4904C168.563 21.8397 167.797 22.0144 166.943 22.0144ZM166.943 19.8165C167.428 19.8165 167.826 19.6515 168.136 19.3216C168.447 18.9819 168.602 18.5161 168.602 17.9242C168.602 17.3419 168.447 16.8859 168.136 16.5559C167.826 16.226 167.428 16.061 166.943 16.061C166.457 16.061 166.059 16.226 165.749 16.5559C165.438 16.8859 165.283 17.3419 165.283 17.9242C165.283 18.5161 165.438 18.9819 165.749 19.3216C166.059 19.6515 166.457 19.8165 166.943 19.8165ZM184.822 17.9533C184.822 17.9727 184.807 18.2007 184.778 18.6374H179.043C179.16 19.045 179.383 19.3604 179.713 19.5836C180.053 19.797 180.475 19.9038 180.979 19.9038C181.358 19.9038 181.683 19.8504 181.954 19.7437C182.236 19.6369 182.517 19.4623 182.799 19.2197L184.254 20.7335C183.488 21.5874 182.367 22.0144 180.892 22.0144C179.97 22.0144 179.16 21.8397 178.461 21.4904C177.762 21.141 177.219 20.6558 176.831 20.0348C176.452 19.4137 176.263 18.7102 176.263 17.9242C176.263 17.1479 176.448 16.454 176.816 15.8427C177.195 15.2216 177.714 14.7364 178.374 14.3871C179.034 14.0378 179.776 13.8631 180.601 13.8631C181.387 13.8631 182.1 14.028 182.741 14.358C183.381 14.6782 183.886 15.1489 184.254 15.7699C184.633 16.3813 184.822 17.1091 184.822 17.9533ZM180.615 15.8281C180.188 15.8281 179.829 15.9494 179.538 16.192C179.257 16.4346 179.077 16.7646 179 17.1818H182.231C182.153 16.7646 181.969 16.4346 181.678 16.192C181.397 15.9494 181.042 15.8281 180.615 15.8281ZM187.494 21.4904C188.183 21.8397 188.965 22.0144 189.838 22.0144C190.731 22.0144 191.502 21.8252 192.152 21.4467C192.803 21.0586 193.263 20.5248 193.535 19.8456L191.395 18.7539C191.036 19.4623 190.512 19.8165 189.823 19.8165C189.329 19.8165 188.916 19.6515 188.586 19.3216C188.266 18.9819 188.106 18.5161 188.106 17.9242C188.106 17.3419 188.266 16.8859 188.586 16.5559C188.916 16.226 189.329 16.061 189.823 16.061C190.512 16.061 191.036 16.4152 191.395 17.1236L193.535 16.0319C193.263 15.3526 192.803 14.8238 192.152 14.4453C191.502 14.0572 190.731 13.8631 189.838 13.8631C188.965 13.8631 188.183 14.0378 187.494 14.3871C186.806 14.7267 186.267 15.2071 185.879 15.8281C185.5 16.4395 185.311 17.1382 185.311 17.9242C185.311 18.7102 185.5 19.4137 185.879 20.0348C186.267 20.6558 186.806 21.141 187.494 21.4904ZM199.857 21.5632C199.624 21.7087 199.338 21.8203 198.998 21.898C198.669 21.9756 198.314 22.0144 197.936 22.0144C196.907 22.0144 196.116 21.7621 195.563 21.2575C195.01 20.7529 194.734 20.0008 194.734 19.0013V16.3521H193.584V14.2852H194.734V12.2328H197.499V14.2852H199.304V16.3521H197.499V18.9722C197.499 19.2536 197.572 19.4768 197.718 19.6418C197.873 19.797 198.077 19.8747 198.329 19.8747C198.649 19.8747 198.931 19.7922 199.173 19.6272L199.857 21.5632ZM203.133 19.1906C202.822 18.8897 202.429 18.7393 201.954 18.7393C201.469 18.7393 201.071 18.8897 200.76 19.1906C200.45 19.4914 200.294 19.8844 200.294 20.3696C200.294 20.6995 200.367 20.9906 200.513 21.2429C200.668 21.4855 200.881 21.6699 201.153 21.7961L200.469 24.1687H202.201L203.118 22.0435C203.322 21.5971 203.453 21.2623 203.511 21.0392C203.569 20.816 203.599 20.5928 203.599 20.3696C203.599 19.8844 203.443 19.4914 203.133 19.1906Z" fill="#F5F5F5"/>
</svg>
