<svg width="626" height="722" viewBox="0 0 626 722" fill="none" xmlns="http://www.w3.org/2000/svg">
<rect width="626" height="722" fill="white"/>
<path d="M127.77 295.582C127.59 299.002 126.348 301.864 124.044 304.168C121.74 306.472 118.338 308.2 113.838 309.352C109.374 310.504 103.722 311.08 96.882 311.08C91.662 311.08 86.982 310.792 82.842 310.216C78.702 309.676 75.174 308.74 72.258 307.408C69.342 306.04 67.11 304.186 65.562 301.846C64.014 299.506 63.24 296.554 63.24 292.99C63.24 289.426 64.014 286.456 65.562 284.08C67.11 281.668 69.342 279.76 72.258 278.356C75.174 276.916 78.702 275.89 82.842 275.278C86.982 274.666 91.662 274.36 96.882 274.36C103.722 274.36 109.392 274.99 113.892 276.25C118.392 277.474 121.794 279.292 124.098 281.704C126.402 284.116 127.644 287.05 127.824 290.506H113.784C113.352 289.354 112.56 288.346 111.408 287.482C110.256 286.582 108.528 285.88 106.224 285.376C103.92 284.872 100.806 284.62 96.882 284.62C92.274 284.62 88.53 284.908 85.65 285.484C82.77 286.024 80.664 286.906 79.332 288.13C78 289.354 77.334 290.974 77.334 292.99C77.334 294.826 78 296.32 79.332 297.472C80.664 298.624 82.77 299.47 85.65 300.01C88.53 300.55 92.274 300.82 96.882 300.82C100.806 300.82 103.902 300.586 106.17 300.118C108.474 299.65 110.202 299.02 111.354 298.228C112.506 297.4 113.298 296.518 113.73 295.582H127.77ZM153.118 310.756C149.23 310.756 145.774 310.216 142.75 309.136C139.726 308.02 137.332 306.418 135.568 304.33C133.84 302.242 132.976 299.722 132.976 296.77C132.976 293.674 133.84 291.082 135.568 288.994C137.332 286.906 139.726 285.34 142.75 284.296C145.774 283.252 149.23 282.73 153.118 282.73C157.438 282.73 161.164 283.324 164.296 284.512C167.464 285.664 169.894 287.302 171.586 289.426C173.314 291.514 174.178 293.962 174.178 296.77C174.178 298.858 173.692 300.766 172.72 302.494C171.748 304.186 170.344 305.662 168.508 306.922C166.672 308.146 164.458 309.1 161.866 309.784C159.274 310.432 156.358 310.756 153.118 310.756ZM157.978 302.548C160.714 302.548 163.216 302.386 165.484 302.062C167.788 301.702 169.624 301.108 170.992 300.28C172.396 299.452 173.098 298.282 173.098 296.77C173.098 295.222 172.396 294.034 170.992 293.206C169.624 292.378 167.788 291.802 165.484 291.478C163.216 291.154 160.714 290.992 157.978 290.992C154.306 290.992 151.462 291.478 149.446 292.45C147.43 293.386 146.422 294.826 146.422 296.77C146.422 298.03 146.872 299.092 147.772 299.956C148.672 300.82 149.986 301.468 151.714 301.9C153.442 302.332 155.53 302.548 157.978 302.548ZM173.098 283.54H186.058V310H173.854C173.854 310 173.782 309.586 173.638 308.758C173.53 307.93 173.404 306.742 173.26 305.194C173.152 303.646 173.098 301.828 173.098 299.74V283.54ZM191.754 272.74H204.714V310H191.754V272.74ZM211.213 272.74H224.173V310H211.213V272.74ZM244.118 269.662V277.762H230.402V269.662H244.118ZM230.78 283.54H243.74V310H230.78V283.54ZM249.532 283.54H262.492V310H249.532V283.54ZM281.932 282.73C284.056 282.73 286.108 282.964 288.088 283.432C290.068 283.864 291.832 284.62 293.38 285.7C294.964 286.78 296.224 288.256 297.16 290.128C298.096 292 298.564 294.358 298.564 297.202V310H285.604V298.822C285.604 296.122 284.902 294.214 283.498 293.098C282.094 291.946 279.556 291.37 275.884 291.37C273.94 291.37 272.05 291.586 270.214 292.018C268.414 292.45 266.794 292.972 265.354 293.584C263.914 294.16 262.78 294.736 261.952 295.312L261.844 293.26C261.988 292.612 262.474 291.712 263.302 290.56C264.166 289.372 265.408 288.184 267.028 286.996C268.648 285.808 270.682 284.8 273.13 283.972C275.614 283.144 278.548 282.73 281.932 282.73ZM325.242 306.274C320.13 306.274 315.918 305.86 312.606 305.032C309.294 304.168 306.846 302.89 305.262 301.198C303.678 299.47 302.886 297.31 302.886 294.718C302.886 292.306 303.66 290.218 305.208 288.454C306.756 286.654 309.168 285.25 312.444 284.242C315.756 283.234 320.022 282.73 325.242 282.73C326.286 282.73 327.348 282.73 328.428 282.73C329.508 282.73 330.57 282.73 331.614 282.73H352.242V289.534C349.902 289.642 347.526 289.534 345.114 289.21C342.738 288.85 340.542 288.382 338.526 287.806L337.932 286.996C339.552 287.5 341.082 288.148 342.522 288.94C343.998 289.732 345.186 290.686 346.086 291.802C346.986 292.918 347.436 294.25 347.436 295.798C347.436 298.03 346.662 299.938 345.114 301.522C343.602 303.07 341.208 304.258 337.932 305.086C334.692 305.878 330.462 306.274 325.242 306.274ZM336.744 321.61V320.152C336.744 319.072 336.258 318.424 335.286 318.208C334.35 318.028 332.856 317.938 330.804 317.938H315.738C313.182 317.938 311.112 317.758 309.528 317.398C307.98 317.038 306.792 316.552 305.964 315.94C305.172 315.328 304.632 314.644 304.344 313.888C304.092 313.168 303.966 312.448 303.966 311.728C303.966 310.18 304.542 308.974 305.694 308.11C306.846 307.21 308.61 306.58 310.986 306.22C313.362 305.86 316.386 305.68 320.058 305.68L325.242 306.274C322.218 306.274 320.112 306.436 318.924 306.76C317.736 307.048 317.142 307.642 317.142 308.542C317.142 309.046 317.376 309.424 317.844 309.676C318.312 309.892 318.942 310 319.734 310H335.664C339.228 310 342.036 310.252 344.088 310.756C346.14 311.296 347.58 312.178 348.408 313.402C349.272 314.662 349.704 316.372 349.704 318.532V321.61H336.744ZM325.242 299.2C327.618 299.2 329.526 299.02 330.966 298.66C332.442 298.264 333.504 297.742 334.152 297.094C334.8 296.446 335.124 295.726 335.124 294.934C335.124 294.034 334.8 293.26 334.152 292.612C333.504 291.964 332.46 291.46 331.02 291.1C329.58 290.74 327.654 290.56 325.242 290.56C322.866 290.56 320.94 290.74 319.464 291.1C317.988 291.46 316.908 291.964 316.224 292.612C315.54 293.26 315.198 294.034 315.198 294.934C315.198 295.726 315.522 296.446 316.17 297.094C316.854 297.742 317.934 298.264 319.41 298.66C320.886 299.02 322.83 299.2 325.242 299.2ZM386.711 269.662V277.762H372.995V269.662H386.711ZM373.373 283.54H386.333V310H373.373V283.54ZM391.855 300.496H403.789C404.293 301.432 405.247 302.08 406.651 302.44C408.091 302.8 410.143 302.98 412.807 302.98C414.859 302.98 416.371 302.872 417.343 302.656C418.351 302.44 418.999 302.152 419.287 301.792C419.611 301.432 419.773 301.054 419.773 300.658C419.773 300.046 419.431 299.632 418.747 299.416C418.099 299.164 416.983 299.02 415.399 298.984C413.815 298.912 411.637 298.876 408.865 298.876C406.237 298.876 403.879 298.768 401.791 298.552C399.739 298.3 397.993 297.922 396.553 297.418C395.113 296.878 394.015 296.14 393.259 295.204C392.503 294.268 392.125 293.098 392.125 291.694C392.125 289.966 392.683 288.526 393.799 287.374C394.915 286.186 396.427 285.268 398.335 284.62C400.243 283.936 402.439 283.45 404.923 283.162C407.443 282.874 410.071 282.73 412.807 282.73C417.343 282.73 421.051 283.198 423.931 284.134C426.811 285.034 428.935 286.258 430.303 287.806C431.671 289.354 432.337 291.1 432.301 293.044H420.691C420.295 292.108 419.539 291.46 418.423 291.1C417.343 290.74 415.471 290.56 412.807 290.56C410.287 290.56 408.451 290.758 407.299 291.154C406.183 291.514 405.625 292.108 405.625 292.936C405.625 293.476 405.895 293.89 406.435 294.178C407.011 294.43 408.073 294.61 409.621 294.718C411.205 294.826 413.509 294.88 416.533 294.88C418.621 294.88 420.655 294.952 422.635 295.096C424.651 295.24 426.451 295.546 428.035 296.014C429.655 296.482 430.933 297.202 431.869 298.174C432.805 299.146 433.273 300.478 433.273 302.17C433.273 304.222 432.427 305.896 430.735 307.192C429.079 308.452 426.721 309.37 423.661 309.946C420.601 310.522 416.983 310.81 412.807 310.81C409.171 310.81 406.093 310.576 403.573 310.108C401.089 309.64 399.055 309.028 397.471 308.272C395.887 307.48 394.663 306.634 393.799 305.734C392.971 304.798 392.413 303.88 392.125 302.98C391.873 302.044 391.783 301.216 391.855 300.496ZM112.326 355.29V340.44H125.826V357.72C125.826 360.78 125.25 363.39 124.098 365.55C122.982 367.674 121.416 369.438 119.4 370.842C117.384 372.21 115.062 373.272 112.434 374.028C109.806 374.784 106.98 375.306 103.956 375.594C100.968 375.918 97.926 376.08 94.83 376.08C91.554 376.08 88.386 375.918 85.326 375.594C82.266 375.306 79.422 374.784 76.794 374.028C74.202 373.272 71.934 372.21 69.99 370.842C68.046 369.438 66.516 367.674 65.4 365.55C64.32 363.39 63.78 360.78 63.78 357.72V340.44H77.28V355.29C77.28 358.17 77.982 360.366 79.386 361.878C80.79 363.39 82.788 364.434 85.38 365.01C88.008 365.55 91.158 365.82 94.83 365.82C98.394 365.82 101.49 365.55 104.118 365.01C106.746 364.434 108.762 363.39 110.166 361.878C111.606 360.366 112.326 358.17 112.326 355.29ZM132.039 348.54H144.999V375H132.039V348.54ZM164.439 347.73C166.563 347.73 168.615 347.964 170.595 348.432C172.575 348.864 174.339 349.62 175.887 350.7C177.471 351.78 178.731 353.256 179.667 355.128C180.603 357 181.071 359.358 181.071 362.202V375H168.111V363.822C168.111 361.122 167.409 359.214 166.005 358.098C164.601 356.946 162.063 356.37 158.391 356.37C156.447 356.37 154.557 356.586 152.721 357.018C150.921 357.45 149.301 357.972 147.861 358.584C146.421 359.16 145.287 359.736 144.459 360.312L144.351 358.26C144.495 357.612 144.981 356.712 145.809 355.56C146.673 354.372 147.915 353.184 149.535 351.996C151.155 350.808 153.189 349.8 155.637 348.972C158.121 348.144 161.055 347.73 164.439 347.73ZM205.536 375.756C201.648 375.756 198.192 375.216 195.168 374.136C192.144 373.02 189.75 371.418 187.986 369.33C186.258 367.242 185.394 364.722 185.394 361.77C185.394 358.674 186.258 356.082 187.986 353.994C189.75 351.906 192.144 350.34 195.168 349.296C198.192 348.252 201.648 347.73 205.536 347.73C208.776 347.73 211.692 348.072 214.284 348.756C216.876 349.404 219.09 350.358 220.926 351.618C222.762 352.842 224.166 354.318 225.138 356.046C226.11 357.774 226.596 359.682 226.596 361.77C226.596 363.858 226.11 365.766 225.138 367.494C224.166 369.186 222.762 370.662 220.926 371.922C219.09 373.146 216.876 374.1 214.284 374.784C211.692 375.432 208.776 375.756 205.536 375.756ZM210.396 367.548C213.132 367.548 215.634 367.386 217.902 367.062C220.206 366.702 222.042 366.108 223.41 365.28C224.814 364.452 225.516 363.282 225.516 361.77C225.516 360.222 224.814 359.034 223.41 358.206C222.042 357.378 220.206 356.802 217.902 356.478C215.634 356.154 213.132 355.992 210.396 355.992C206.724 355.992 203.88 356.478 201.864 357.45C199.848 358.386 198.84 359.826 198.84 361.77C198.84 363.03 199.29 364.092 200.19 364.956C201.09 365.82 202.404 366.468 204.132 366.9C205.86 367.332 207.948 367.548 210.396 367.548ZM225.516 337.74H238.476V375H226.272C226.128 374.172 225.966 372.84 225.786 371.004C225.606 369.132 225.516 367.044 225.516 364.74V337.74ZM281.711 365.496H294.455C294.131 367.584 293.087 369.402 291.323 370.95C289.595 372.498 287.057 373.704 283.709 374.568C280.397 375.396 276.167 375.81 271.019 375.81C265.583 375.81 260.885 375.378 256.925 374.514C253.001 373.65 249.977 372.192 247.853 370.14C245.729 368.088 244.667 365.316 244.667 361.824C244.667 358.368 245.693 355.614 247.745 353.562C249.833 351.474 252.839 349.98 256.763 349.08C260.687 348.18 265.439 347.73 271.019 347.73C276.491 347.73 280.973 348.216 284.465 349.188C287.957 350.16 290.531 351.744 292.187 353.94C293.843 356.1 294.635 359.034 294.563 362.742H257.843C258.023 363.678 258.527 364.542 259.355 365.334C260.219 366.126 261.533 366.774 263.297 367.278C265.097 367.746 267.491 367.98 270.479 367.98C273.575 367.98 276.113 367.764 278.093 367.332C280.109 366.9 281.315 366.288 281.711 365.496ZM270.479 355.56C266.663 355.56 263.747 355.974 261.731 356.802C259.751 357.63 258.581 358.458 258.221 359.286H281.981C281.729 358.35 280.721 357.504 278.957 356.748C277.193 355.956 274.367 355.56 270.479 355.56ZM298.891 348.54H311.851V375H298.891V348.54ZM325.783 358.53C323.443 358.53 321.301 358.746 319.357 359.178C317.413 359.61 315.757 360.132 314.389 360.744C313.021 361.32 311.995 361.896 311.311 362.472L311.203 359.88C311.311 359.124 311.599 358.242 312.067 357.234C312.535 356.19 313.165 355.128 313.957 354.048C314.749 352.932 315.721 351.906 316.873 350.97C318.025 349.998 319.339 349.224 320.815 348.648C322.327 348.036 323.983 347.73 325.783 347.73V358.53ZM329.319 348.54H342.279V375H329.319V348.54ZM356.211 358.53C353.871 358.53 351.729 358.746 349.785 359.178C347.841 359.61 346.185 360.132 344.817 360.744C343.449 361.32 342.423 361.896 341.739 362.472L341.631 359.88C341.739 359.124 342.027 358.242 342.495 357.234C342.963 356.19 343.593 355.128 344.385 354.048C345.177 352.932 346.149 351.906 347.301 350.97C348.453 349.998 349.767 349.224 351.243 348.648C352.755 348.036 354.411 347.73 356.211 347.73V358.53ZM379.348 375.756C375.46 375.756 372.004 375.216 368.98 374.136C365.956 373.02 363.562 371.418 361.798 369.33C360.07 367.242 359.206 364.722 359.206 361.77C359.206 358.674 360.07 356.082 361.798 353.994C363.562 351.906 365.956 350.34 368.98 349.296C372.004 348.252 375.46 347.73 379.348 347.73C383.668 347.73 387.394 348.324 390.526 349.512C393.694 350.664 396.124 352.302 397.816 354.426C399.544 356.514 400.408 358.962 400.408 361.77C400.408 363.858 399.922 365.766 398.95 367.494C397.978 369.186 396.574 370.662 394.738 371.922C392.902 373.146 390.688 374.1 388.096 374.784C385.504 375.432 382.588 375.756 379.348 375.756ZM384.208 367.548C386.944 367.548 389.446 367.386 391.714 367.062C394.018 366.702 395.854 366.108 397.222 365.28C398.626 364.452 399.328 363.282 399.328 361.77C399.328 360.222 398.626 359.034 397.222 358.206C395.854 357.378 394.018 356.802 391.714 356.478C389.446 356.154 386.944 355.992 384.208 355.992C380.536 355.992 377.692 356.478 375.676 357.45C373.66 358.386 372.652 359.826 372.652 361.77C372.652 363.03 373.102 364.092 374.002 364.956C374.902 365.82 376.216 366.468 377.944 366.9C379.672 367.332 381.76 367.548 384.208 367.548ZM399.328 348.54H412.288V375H400.084C400.084 375 400.012 374.586 399.868 373.758C399.76 372.93 399.634 371.742 399.49 370.194C399.382 368.646 399.328 366.828 399.328 364.74V348.54ZM415.824 348.54H447.576V356.64H415.824V348.54ZM425.22 340.44H438.18V375H425.22V340.44ZM487.586 365.496H500.33C500.006 367.584 498.962 369.402 497.198 370.95C495.47 372.498 492.932 373.704 489.584 374.568C486.272 375.396 482.042 375.81 476.894 375.81C471.458 375.81 466.76 375.378 462.8 374.514C458.876 373.65 455.852 372.192 453.728 370.14C451.604 368.088 450.542 365.316 450.542 361.824C450.542 358.368 451.568 355.614 453.62 353.562C455.708 351.474 458.714 349.98 462.638 349.08C466.562 348.18 471.314 347.73 476.894 347.73C482.366 347.73 486.848 348.216 490.34 349.188C493.832 350.16 496.406 351.744 498.062 353.94C499.718 356.1 500.51 359.034 500.438 362.742H463.718C463.898 363.678 464.402 364.542 465.23 365.334C466.094 366.126 467.408 366.774 469.172 367.278C470.972 367.746 473.366 367.98 476.354 367.98C479.45 367.98 481.988 367.764 483.968 367.332C485.984 366.9 487.19 366.288 487.586 365.496ZM476.354 355.56C472.538 355.56 469.622 355.974 467.606 356.802C465.626 357.63 464.456 358.458 464.096 359.286H487.856C487.604 358.35 486.596 357.504 484.832 356.748C483.068 355.956 480.242 355.56 476.354 355.56ZM524.368 375.756C520.48 375.756 517.024 375.216 514 374.136C510.976 373.02 508.582 371.418 506.818 369.33C505.09 367.242 504.226 364.722 504.226 361.77C504.226 358.674 505.09 356.082 506.818 353.994C508.582 351.906 510.976 350.34 514 349.296C517.024 348.252 520.48 347.73 524.368 347.73C527.608 347.73 530.524 348.072 533.116 348.756C535.708 349.404 537.922 350.358 539.758 351.618C541.594 352.842 542.998 354.318 543.97 356.046C544.942 357.774 545.428 359.682 545.428 361.77C545.428 363.858 544.942 365.766 543.97 367.494C542.998 369.186 541.594 370.662 539.758 371.922C537.922 373.146 535.708 374.1 533.116 374.784C530.524 375.432 527.608 375.756 524.368 375.756ZM529.228 367.548C531.964 367.548 534.466 367.386 536.734 367.062C539.038 366.702 540.874 366.108 542.242 365.28C543.646 364.452 544.348 363.282 544.348 361.77C544.348 360.222 543.646 359.034 542.242 358.206C540.874 357.378 539.038 356.802 536.734 356.478C534.466 356.154 531.964 355.992 529.228 355.992C525.556 355.992 522.712 356.478 520.696 357.45C518.68 358.386 517.672 359.826 517.672 361.77C517.672 363.03 518.122 364.092 519.022 364.956C519.922 365.82 521.236 366.468 522.964 366.9C524.692 367.332 526.78 367.548 529.228 367.548ZM544.348 337.74H557.308V375H545.104C544.96 374.172 544.798 372.84 544.618 371.004C544.438 369.132 544.348 367.044 544.348 364.74V337.74Z" fill="black"/>
</svg>
