<svg xmlns="http://www.w3.org/2000/svg" viewBox="0 0 570.27 89.94"><defs><style>.cls-1{fill:#fff;}</style></defs><g id="Layer_2" data-name="Layer 2"><g id="Layer_1-2" data-name="Layer 1"><path class="cls-1" d="M258.05,55.14c1.12-2.56,2.08-4.7,3-6.87q9.56-22.54,19.09-45.11a2.26,2.26,0,0,1,2.5-1.48c8.56,0,17.12.07,25.68,0,1.78,0,2.18.59,2.18,2.26q-.08,33.48,0,67c0,5.14,0,10.29,0,15.43,0,1.51-.37,2.07-2,2q-9.78-.13-19.56,0c-1.65,0-2.11-.48-2.1-2.11.05-17.63,0-35.27,0-52.9V31.26l-.49-.13a9,9,0,0,0-.73,1.16q-10.23,23.64-20.44,47.3c-1.17,2.7-2.36,5.39-3.46,8.11a1.88,1.88,0,0,1-2,1.37q-5.78-.09-11.57,0a2.08,2.08,0,0,1-2.29-1.48q-6.31-15.36-12.73-30.68L223,32.66c-.2-.47-.47-.92-.7-1.38l-.47.09c0,.75-.16,1.49-.16,2.24q0,26.12,0,52.23c0,2.5,0,2.5-2.5,2.5-4.19,0-8.39,0-12.59,0-1.33,0-1.77-.41-1.77-1.74q0-41.55,0-83.1c0-1.41.47-1.86,1.87-1.85q13.86.06,27.73,0a2.08,2.08,0,0,1,2.28,1.5c4.42,11,8.9,22,13.35,33q3.57,8.79,7.15,17.59A13.21,13.21,0,0,0,258.05,55.14Z"/><path class="cls-1" d="M427.12,32.86V86c0,2.36,0,2.36-2.28,2.36-4.31,0-8.62,0-12.93,0-1.39,0-1.87-.38-1.87-1.81q.06-41.55,0-83.1c0-1.32.41-1.79,1.75-1.78q12.42.06,24.84,0a2.3,2.3,0,0,1,2.28,1.38q11.22,20.54,22.48,41.05c2,3.67,4,7.34,6,11a2.12,2.12,0,0,0,1.26,1c.05-.75.16-1.5.16-2.25q0-24.84,0-49.69c0-2.48,0-2.48,2.56-2.48,4.14,0,8.28,0,12.42,0,1.39,0,1.86.44,1.86,1.85q0,41.55,0,83.1c0,1.34-.44,1.75-1.77,1.74q-11.91-.08-23.81,0a2.32,2.32,0,0,1-2.3-1.34q-9.29-16.86-18.61-33.7-5.29-9.57-10.6-19.14c-.28-.51-.63-1-.95-1.46Z"/><path class="cls-1" d="M394.22,17.13h-36c-2.22,0-2.22,0-2.22,2.26,0,5.2.08,10.4-.05,15.6,0,1.79.58,2.15,2.23,2.14,9.76-.07,19.51,0,29.26-.07,1.46,0,2,.35,2,1.89-.1,3.33-.11,6.67,0,10,0,1.6-.4,2.14-2.08,2.13-9.64-.08-19.28,0-28.91,0-2.42,0-2.42,0-2.42,2.42,0,5.48.05,11,0,16.45,0,1.62.46,2.13,2.1,2.12,11.57-.06,23.14,0,34.71,0,2.37,0,2.37,0,2.37,2.44,0,4,0,8,0,12,0,1.33-.29,1.89-1.78,1.89q-30.11-.07-60.22,0c-1.45,0-1.83-.52-1.83-1.87q0-41.47,0-82.93c0-1.39.45-1.88,1.86-1.87q29.61,0,59.2,0c.85,0,1.82-.11,1.82,1.17C394.22,7.57,394.22,12.25,394.22,17.13Z"/><path class="cls-1" d="M125.93,45q0-20.5,0-41c0-2.21,0-2.22,2.28-2.22h58.51C189,1.72,189,1.73,189,4c0,3.79-.05,7.58,0,11.36,0,1.43-.47,1.83-1.86,1.82q-17.25-.06-34.52,0c-2.37,0-2.4,0-2.4,2.34,0,5.2,0,10.4,0,15.6,0,1.5.43,2.07,2,2,9.75-.06,19.51,0,29.26,0,2.37,0,2.37,0,2.37,2.44,0,3.17-.1,6.33,0,9.49.07,1.7-.55,2.07-2.14,2.06-9.69-.06-19.39,0-29.08,0-2.44,0-2.45,0-2.45,2.47,0,5.42,0,10.85,0,16.27,0,2.13.09,2.22,2.19,2.22,11.74,0,23.47,0,35.21,0,1.65,0,2.14.49,2.1,2.12-.1,4.18-.07,8.36,0,12.54,0,1.34-.44,1.74-1.77,1.74q-30.1,0-60.21,0c-1.64,0-1.82-.69-1.82-2Q126,65.66,125.93,45Z"/><path class="cls-1" d="M563.56,19.18c-4-1.13-7.61-2.35-11.35-3.2-5.7-1.29-11.49-2-17.33-.86a11.48,11.48,0,0,0-6.63,3.52c-2.14,2.35-2.24,5.22.07,7.4a21.38,21.38,0,0,0,5.15,3.5C540,32.79,546.53,35.82,553,39a36,36,0,0,1,12.72,10c7.67,9.83,5.19,25-4.45,32.48a38.32,38.32,0,0,1-19.62,7.81A103.4,103.4,0,0,1,506.44,87c-1.32-.3-1.87-.82-1.84-2.25.1-4.47,0-8.93,0-13.4,0-.49.06-1,.11-1.75L509.54,71c7.71,2.21,15.54,3.73,23.59,3.3a28.71,28.71,0,0,0,8.07-1.71,6.76,6.76,0,0,0,4.61-6.67,5.73,5.73,0,0,0-2.55-5.09,33.62,33.62,0,0,0-5.31-3C531,54.75,524,52,517.21,48.55s-11.57-8.52-13.5-16c-3.29-12.73,2.77-24.14,15.38-29.12C527.56.1,536.36-.56,545.31.4c5.5.59,11,1.62,16.44,2.38,1.41.19,1.87.8,1.84,2.22C563.51,9.68,563.56,14.36,563.56,19.18Z"/><path class="cls-1" d="M60.43,19.08c-3.76-1.07-7.35-2.29-11-3.09C43.23,14.66,37,13.7,30.76,15.52a13.82,13.82,0,0,0-5.08,2.91,4.89,4.89,0,0,0,0,7.84,27.78,27.78,0,0,0,5.7,3.61c7.46,3.8,15.1,7.27,22.44,11.3,5.56,3,10.1,7.42,12.21,13.62,3.75,11-.25,23.23-12,29.69a45.26,45.26,0,0,1-19.51,5.24A110,110,0,0,1,3.73,87.06c-1.48-.33-2-.9-2-2.46.11-4.35,0-8.71.05-13.06,0-.55,0-1.1.08-2L6.69,71c7.65,2.18,15.43,3.69,23.43,3.32A31.75,31.75,0,0,0,37.58,73a7.06,7.06,0,0,0,5.33-6.18c.41-3.29-1.24-5.62-4-7-3.53-1.79-7.21-3.27-10.82-4.89C23.54,52.8,18.87,51,14.5,48.64,6.35,44.27.92,37.72.11,28.2-.75,18.12,3.55,10.6,12.21,5.51,18.31,1.92,25,.5,32,.12c9.18-.49,18.18.93,27.12,2.76.59.12,1.49.88,1.5,1.36.1,4.75,0,9.5,0,14.25A2.11,2.11,0,0,1,60.43,19.08Z"/><path class="cls-1" d="M105.06,1.88V85.77c0,2.58,0,2.58-2.63,2.58-7,0-14,0-20.92,0-1.4,0-1.85-.4-1.85-1.82q0-41.53,0-83.07c0-1.15.21-1.79,1.57-1.78,7.59,0,15.19,0,22.79,0A9.36,9.36,0,0,1,105.06,1.88Z"/></g></g></svg>