<svg width="84" height="84" viewBox="0 0 84 84" fill="none" xmlns="http://www.w3.org/2000/svg">
<rect opacity="0.2" x="0.5" y="0.5" width="83" height="83" rx="12.94" stroke="white"/>
<path fill-rule="evenodd" clip-rule="evenodd" d="M48.56 28H35.44C30.8667 28 28 31.2369 28 35.8192V48.1808C28 52.7631 30.8533 56 35.44 56H48.56C53.1467 56 56 52.7631 56 48.1808V35.8192C56 31.2369 53.1467 28 48.56 28Z" stroke="white" stroke-width="2.55" stroke-linecap="round" stroke-linejoin="round"/>
<path fill-rule="evenodd" clip-rule="evenodd" d="M48.4618 42.2714C48.4618 45.6912 45.6883 48.4627 42.2685 48.4627C38.8487 48.4627 36.0771 45.6912 36.0771 42.2714C36.0771 38.8496 38.8487 36.0781 42.2685 36.0781C45.6883 36.0781 48.4618 38.8496 48.4618 42.2714Z" stroke="white" stroke-width="2.55" stroke-linecap="round" stroke-linejoin="round"/>
<path fill-rule="evenodd" clip-rule="evenodd" d="M51.6927 33.9242C51.6927 34.8164 50.9692 35.5394 50.077 35.5394C49.1849 35.5394 48.4619 34.8164 48.4619 33.9242C48.4619 33.0316 49.1849 32.3086 50.077 32.3086C50.9692 32.3086 51.6927 33.0316 51.6927 33.9242Z" fill="white"/>
</svg>
