<svg width="64" height="64" viewBox="0 0 64 64" fill="none" xmlns="http://www.w3.org/2000/svg">
<rect opacity="0.2" x="0.377943" y="0.377943" width="62.7385" height="62.7385" rx="9.78117" stroke="white" stroke-width="0.755886"/>
<path fill-rule="evenodd" clip-rule="evenodd" d="M36.7051 21.168H26.7879C23.3309 21.168 21.1641 23.6147 21.1641 27.0784V36.4223C21.1641 39.886 23.3209 42.3328 26.7879 42.3328H36.7051C40.1721 42.3328 42.3289 39.886 42.3289 36.4223V27.0784C42.3289 23.6147 40.1721 21.168 36.7051 21.168Z" stroke="white" stroke-width="1.92751" stroke-linecap="round" stroke-linejoin="round"/>
<path fill-rule="evenodd" clip-rule="evenodd" d="M36.6309 31.9549C36.6309 34.5399 34.5345 36.6348 31.9495 36.6348C29.3645 36.6348 27.2695 34.5399 27.2695 31.9549C27.2695 29.3684 29.3645 27.2734 31.9495 27.2734C34.5345 27.2734 36.6309 29.3684 36.6309 31.9549Z" stroke="white" stroke-width="1.92751" stroke-linecap="round" stroke-linejoin="round"/>
<path fill-rule="evenodd" clip-rule="evenodd" d="M39.073 25.647C39.073 26.3214 38.5261 26.8679 37.8517 26.8679C37.1774 26.8679 36.6309 26.3214 36.6309 25.647C36.6309 24.9723 37.1774 24.4258 37.8517 24.4258C38.5261 24.4258 39.073 24.9723 39.073 25.647Z" fill="white"/>
</svg>
