<svg width="64" height="65" viewBox="0 0 64 65" fill="none" xmlns="http://www.w3.org/2000/svg">
<rect opacity="0.2" x="0.377943" y="1.01857" width="62.7385" height="62.7385" rx="9.78117" stroke="white" stroke-width="0.755886"/>
<path d="M31.7475 19.5352C24.6511 19.5352 18.8975 25.3789 18.8975 32.5864C18.8975 38.702 23.0437 43.8192 28.6335 45.2353C28.5736 45.0591 28.535 44.8546 28.535 44.6012V42.3705C28.0135 42.3705 27.1397 42.3705 26.9202 42.3705C26.041 42.3705 25.2593 41.9866 24.8802 41.2731C24.4594 40.4803 24.3866 39.2676 23.3436 38.5258C23.0341 38.279 23.2697 37.9973 23.6263 38.0353C24.2848 38.2246 24.831 38.6835 25.345 39.3644C25.8568 40.0463 26.0978 40.2008 27.054 40.2008C27.5177 40.2008 28.2116 40.1736 28.8648 40.0692C29.2161 39.1632 29.8232 38.329 30.5653 37.9353C26.2862 37.4883 24.2442 35.3261 24.2442 32.3907C24.2442 31.1269 24.7742 29.9044 25.6748 28.8744C25.3792 27.8521 25.0077 25.7671 25.7883 24.9732C27.7137 24.9732 28.8777 26.2413 29.1572 26.5839C30.1166 26.25 31.1703 26.0608 32.2776 26.0608C33.387 26.0608 34.445 26.25 35.4066 26.5861C35.6829 26.2457 36.8479 24.9732 38.7776 24.9732C39.5614 25.7682 39.1856 27.8619 38.8868 28.882C39.782 29.9098 40.3089 31.129 40.3089 32.3907C40.3089 35.3239 38.27 37.485 33.9974 37.9342C35.1731 38.5574 36.0309 40.3084 36.0309 41.6277V44.6012C36.0309 44.7143 36.0062 44.7959 35.9934 44.8927C41.0006 43.1101 44.5976 38.2811 44.5976 32.5864C44.5976 25.3789 38.844 19.5352 31.7475 19.5352Z" fill="white"/>
</svg>
