<svg width="84" height="84" viewBox="0 0 84 84" fill="none" xmlns="http://www.w3.org/2000/svg">
<rect opacity="0.2" x="0.5" y="0.5" width="83" height="83" rx="12.94" stroke="white"/>
<path d="M42 25C32.6117 25 25 32.7309 25 42.2662C25 50.3568 30.4853 57.1266 37.8803 59C37.801 58.7669 37.75 58.4964 37.75 58.1612V55.2101C37.0601 55.2101 35.9041 55.2101 35.6137 55.2101C34.4506 55.2101 33.4164 54.7022 32.9149 53.7583C32.3582 52.7094 32.2618 51.105 30.882 50.1237C30.4726 49.7971 30.7842 49.4245 31.256 49.4748C32.1272 49.7252 32.8497 50.3324 33.5297 51.2331C34.2069 52.1353 34.5257 52.3396 35.7907 52.3396C36.4042 52.3396 37.3222 52.3036 38.1863 52.1655C38.651 50.9669 39.4542 49.8633 40.436 49.3424C34.775 48.7511 32.0734 45.8906 32.0734 42.0072C32.0734 40.3353 32.7747 38.718 33.9661 37.3554C33.5751 36.0029 33.0835 33.2446 34.1163 32.1942C36.6634 32.1942 38.2033 33.8719 38.5731 34.3252C39.8424 33.8835 41.2364 33.6331 42.7012 33.6331C44.1689 33.6331 45.5686 33.8835 46.8407 34.3281C47.2062 33.8777 48.7476 32.1942 51.3004 32.1942C52.3374 33.246 51.8402 36.0158 51.4449 37.3655C52.6292 38.7252 53.3263 40.3381 53.3263 42.0072C53.3263 45.8878 50.6289 48.7468 44.9764 49.341C46.5319 50.1655 47.6667 52.482 47.6667 54.2273V58.1612C47.6667 58.3108 47.6341 58.4187 47.6171 58.5468C54.2414 56.1885 59 49.8 59 42.2662C59 32.7309 51.3882 25 42 25Z" fill="white"/>
</svg>
