<svg xmlns="http://www.w3.org/2000/svg" viewBox="0 0 689 378"><defs><style>.cls-1{fill:#00918f;}.cls-2{fill:#f4f4f4;}</style></defs><g id="Layer_2" data-name="Layer 2"><g id="Layer_1-2" data-name="Layer 1"><rect class="cls-1" width="689" height="378"/><path class="cls-2" d="M336.33,191.92c.27-.63.55-1.24.82-1.87L343,176.3a.62.62,0,0,1,.64-.45q4,0,8,0c.4,0,.53.15.53.54q0,12.62,0,25.22c0,.45-.18.54-.58.53h-5.93c-.68,0-.68,0-.68-.67V184.9l-.15,0c-.1.19-.22.37-.31.57q-2.54,5.87-5.06,11.73c-.69,1.59-1.38,3.17-2.05,4.76a.59.59,0,0,1-.65.44c-1.17,0-2.34,0-3.5,0a.65.65,0,0,1-.72-.49q-3.35-8.09-6.71-16.16c-.12-.29-.25-.57-.38-.85l-.14,0c0,.21,0,.42,0,.63v15.86c0,.75,0,.76-.76.76-1.27,0-2.54,0-3.81,0-.41,0-.58-.1-.58-.54q0-12.58,0-25.16c0-.45.15-.59.6-.59q4.25,0,8.5,0c.35,0,.46.16.58.44q2.24,5.57,4.51,11.13c.54,1.35,1.09,2.69,1.64,4,.06.15.14.3.21.45Z"/><path class="cls-2" d="M387.5,185.35v16.12c0,.66,0,.66-.68.67-1.32,0-2.64,0-4,0-.38,0-.54-.08-.54-.51q0-12.62,0-25.22c0-.43.14-.56.56-.56,2.55,0,5.09,0,7.63,0a.76.76,0,0,1,.53.35c2,3.67,4,7.35,6.06,11l2.64,4.82a.62.62,0,0,0,.34.28c0-.21.05-.41.05-.62v-15.1c0-.77,0-.77.76-.77,1.27,0,2.54,0,3.81,0,.42,0,.56.14.56.56q0,12.59,0,25.17c0,.48-.18.57-.61.56-2.35,0-4.7,0-7.06,0a.87.87,0,0,1-.88-.53q-4.35-7.92-8.74-15.82c-.09-.17-.2-.34-.3-.5Z"/><path class="cls-2" d="M358.42,189V176.54c0-.67,0-.68.69-.68,5.94,0,11.88,0,17.83,0,.51,0,.68.14.67.67q-.06,1.69,0,3.39c0,.5-.11.67-.65.67-3.42,0-6.84,0-10.26,0-.74,0-.74,0-.74.76,0,1.57,0,3.15,0,4.72,0,.44.14.55.56.55,3,0,6,0,9,0,.48,0,.63.12.62.6,0,1,0,2.06,0,3.08,0,.45-.12.59-.58.59-2.95,0-5.91,0-8.86,0-.69,0-.69,0-.69.67,0,1.69,0,3.39,0,5.08,0,.46.15.58.59.58,3.55,0,7.11,0,10.66,0,.51,0,.64.16.63.64,0,1.29,0,2.57,0,3.85,0,.38-.12.5-.5.5q-9.19,0-18.39,0c-.49,0-.52-.22-.52-.6C358.43,197.38,358.42,193.2,358.42,189Z"/><path class="cls-2" d="M296.25,189V176.56c0-.69,0-.7.72-.7h17.72c.68,0,.68,0,.68.69,0,1.13,0,2.26,0,3.39,0,.49-.12.64-.62.64-3.47,0-6.94,0-10.41,0-.71,0-.71,0-.71.72,0,1.57,0,3.15,0,4.72,0,.44.14.59.59.59,3,0,6,0,9,0,.44,0,.61.1.59.57,0,1,0,2.09,0,3.13,0,.48-.16.57-.59.57-3,0-5.94,0-8.92,0-.67,0-.68,0-.68.7v4.93c0,.69,0,.69.68.69q5.31,0,10.62,0c.51,0,.68.13.67.66,0,1.27,0,2.53,0,3.8,0,.39-.1.54-.52.54q-9.15,0-18.29,0c-.45,0-.55-.17-.55-.57C296.26,197.38,296.25,193.19,296.25,189Z"/><path class="cls-2" d="M411,196.49c1.51.37,2.91.75,4.34,1a14.38,14.38,0,0,0,5.77.16,3.19,3.19,0,0,0,1.8-.92,2,2,0,0,0-.23-2.95,8.42,8.42,0,0,0-1.61-.9c-2-.91-4.11-1.73-6.1-2.72a7.6,7.6,0,0,1-4-4.07,7,7,0,0,1,3-9,12.36,12.36,0,0,1,5.06-1.6,30.92,30.92,0,0,1,9.44.75.57.57,0,0,1,.34.4c0,1.5,0,3,0,4.58-.47-.14-.89-.26-1.3-.4a17.28,17.28,0,0,0-5.64-1,8.2,8.2,0,0,0-2.37.36,3.7,3.7,0,0,0-1.41.9,1.44,1.44,0,0,0,0,2.16,6.55,6.55,0,0,0,1.51,1c2,1,4,1.92,6,2.9a11.58,11.58,0,0,1,3.64,2.73,6.44,6.44,0,0,1,1.64,4.38,7.21,7.21,0,0,1-2.83,5.84,11.59,11.59,0,0,1-5.81,2.31,30.76,30.76,0,0,1-10.77-.69.57.57,0,0,1-.54-.69c0-1.35,0-2.7,0-4.05C411,196.83,411,196.67,411,196.49Z"/><path class="cls-2" d="M258.65,196.47c1.37.34,2.6.69,3.86.95a15.24,15.24,0,0,0,6.27.26,2.7,2.7,0,0,0,2.22-1.62,1.87,1.87,0,0,0-.64-2.25,7.46,7.46,0,0,0-1.56-.88c-2.06-.93-4.18-1.74-6.19-2.77a7.59,7.59,0,0,1-4.28-5.11c-.85-3.66.67-6.71,4.22-8.42a14.28,14.28,0,0,1,6.15-1.27,37.24,37.24,0,0,1,7.44.87c.14,0,.36.21.36.32,0,1.54,0,3.08,0,4.67-.91-.28-1.75-.55-2.6-.79a15.57,15.57,0,0,0-5.3-.58,4.35,4.35,0,0,0-2.35.79,1.67,1.67,0,0,0,0,3,9.89,9.89,0,0,0,1.34.77c2.31,1.16,4.65,2.27,6.93,3.49a7.94,7.94,0,0,1,3.15,3,7.26,7.26,0,0,1-1.93,9.26,12,12,0,0,1-6,2.3,31.5,31.5,0,0,1-10.51-.72c-.41-.1-.56-.26-.55-.69,0-1.35,0-2.7,0-4.06Z"/><path class="cls-2" d="M282.25,189V176.54c0-.67,0-.68.68-.68,2.15,0,4.3,0,6.44,0,.49,0,.64.14.64.64q0,12.52,0,25.06c0,.43-.08.6-.56.6-2.22,0-4.43,0-6.65,0-.48,0-.56-.17-.56-.6C282.26,197.37,282.25,193.2,282.25,189Z"/></g></g></svg>