<svg xmlns="http://www.w3.org/2000/svg" xmlns:xlink="http://www.w3.org/1999/xlink" viewBox="0 0 487 378"><defs><style>.cls-1{fill:#f4f4f4;}.cls-2{fill:#3581ef;}.cls-3{clip-path:url(#clip-path);}</style><clipPath id="clip-path"><path class="cls-1" d="M153,173.22H135.92c-8.68,0-15.72,6.55-15.72,14.64h0c0,8.08,7,14.64,15.72,14.64h.36a11.4,11.4,0,0,0,5.5-1.56,5.91,5.91,0,0,1,5.35,0,11.4,11.4,0,0,0,5.5,1.56H153c8.68,0,15.72-6.56,15.72-14.64h0C168.71,179.77,161.67,173.22,153,173.22Z"/></clipPath></defs><g id="Layer_2" data-name="Layer 2"><g id="Layer_1-2" data-name="Layer 1"><rect class="cls-2" width="487" height="378"/><path class="cls-1" d="M185.58,181.5v4.21h8.11v4.8h-8.11v8h-5V176.7h13.25v4.8Z"/><path class="cls-1" d="M196.18,178.75a2.81,2.81,0,1,1,2.81,2.81A2.84,2.84,0,0,1,196.18,178.75Zm.47,4.18h4.68v15.6h-4.68Z"/><path class="cls-1" d="M214.12,182.62v5.3c-1.94-.31-4.68.47-4.68,3.56v7.05h-4.68v-15.6h4.68v2.78A4.68,4.68,0,0,1,214.12,182.62Z"/><path class="cls-1" d="M223.75,194.79a4.08,4.08,0,0,0,3-1.19l3.74,2.15a7.93,7.93,0,0,1-6.8,3.22c-5.33,0-8.64-3.59-8.64-8.24a8,8,0,0,1,8.3-8.23,7.87,7.87,0,0,1,7.92,8.23,8.65,8.65,0,0,1-.19,1.87H220C220.6,194.22,222,194.79,223.75,194.79Zm2.87-5.68a3.52,3.52,0,0,0-6.71,0Z"/><path class="cls-1" d="M233.61,193.57l4.3-2.5a4.57,4.57,0,0,0,4.58,3c2.38,0,3-.94,3-1.78,0-1.34-1.25-1.87-4.53-2.77s-6.42-2.47-6.42-6.65,3.56-6.64,7.33-6.64a8.45,8.45,0,0,1,8,4.93l-4.21,2.46a3.81,3.81,0,0,0-3.77-2.53c-1.56,0-2.34.78-2.34,1.66s.53,1.68,3.93,2.71,7,2.15,7,6.77c0,4.21-3.37,6.71-8.11,6.71C237.75,199,234.82,196.78,233.61,193.57Z"/><path class="cls-1" d="M269.25,182.93v15.6h-4.67v-1.47a5.85,5.85,0,0,1-4.65,1.91c-4.09,0-7.46-3.59-7.46-8.24s3.37-8.23,7.46-8.23a5.85,5.85,0,0,1,4.65,1.9v-1.47Zm-4.67,7.8a3.72,3.72,0,1,0-3.72,3.81A3.56,3.56,0,0,0,264.58,190.73Z"/><path class="cls-1" d="M278.36,182.93h2.9v4.5h-2.9v11.1h-4.68v-11.1h-2.09v-4.5h2.09c0-4.36,2.4-7,7.58-6.67v4.49C279.51,180.59,278.36,181.12,278.36,182.93Z"/><path class="cls-1" d="M290.43,194.79a4,4,0,0,0,3-1.19l3.74,2.15a7.9,7.9,0,0,1-6.79,3.22c-5.34,0-8.64-3.59-8.64-8.24A8,8,0,0,1,290,182.5a7.86,7.86,0,0,1,7.92,8.23,9.34,9.34,0,0,1-.18,1.87H286.68C287.28,194.22,288.71,194.79,290.43,194.79Zm2.87-5.68a3.52,3.52,0,0,0-6.71,0Z"/><path class="cls-1" d="M306.05,187.43V193c0,1.34,1.16,1.46,3.21,1.34v4.24c-6.11.62-7.89-1.22-7.89-5.58v-5.52h-2.49v-4.5h2.49v-3l4.68-1.4v4.36h3.21v4.5Z"/><path class="cls-1" d="M327,182.93l-5.33,15.13c-1.75,5-4.53,6.93-8.89,6.71V200.4c2.18,0,3.21-.69,3.9-2.59l-6.21-14.88h5.15l3.46,9.55,2.93-9.55Z"/><path class="cls-1" d="M329.94,176.7h1.81l7.2,19.68,7.24-19.68H348l-8.14,21.83h-1.75Z"/><path class="cls-1" d="M359.66,189.58h-6.89v8.95h-1.66V176.7h8.61a6.44,6.44,0,0,1,1.66,12.66l5.42,9.17h-1.9ZM352.77,188h7a4.88,4.88,0,0,0,0-9.76h-7Z"/><path class="cls-1" d="M153,173.22H135.92c-8.68,0-15.72,6.55-15.72,14.64h0c0,8.08,7,14.64,15.72,14.64h.36a11.4,11.4,0,0,0,5.5-1.56,5.91,5.91,0,0,1,5.35,0,11.4,11.4,0,0,0,5.5,1.56H153c8.68,0,15.72-6.56,15.72-14.64h0C168.71,179.77,161.67,173.22,153,173.22Z"/><g class="cls-3"><path class="cls-1" d="M144.52,202.66c-4,0-8,.33-12-.07-7.59-.78-13-7.35-12.93-15.16A14.87,14.87,0,0,1,132.88,173a29.82,29.82,0,0,1,3.4-.2c5.89,0,11.78,0,17.67,0,7.71.05,13.81,4.92,15.27,12.15,1.7,8.41-4.11,16.77-12.64,17.67-4,.42-8,.07-12.06.07Zm0-9.87H154c3.11,0,5.37-2,5.45-4.8a4.92,4.92,0,0,0-5.09-5.14q-9.74-.15-19.48,0A5,5,0,0,0,129.7,188c.09,2.78,2.38,4.8,5.45,4.81Z"/><path class="cls-1" d="M144.53,199.44a91.27,91.27,0,0,1-9.36-.06c-5.95-.6-10.2-5.76-10.14-11.88a11.65,11.65,0,0,1,10.38-11.34,23.59,23.59,0,0,1,2.66-.16c4.62,0,9.24,0,13.85,0a11.87,11.87,0,0,1,12,9.53A11.59,11.59,0,0,1,154,199.38a90.4,90.4,0,0,1-9.46.05Zm0-7.74c2.47,0,5,0,7.42,0a4,4,0,0,0,4.27-3.76,3.86,3.86,0,0,0-4-4c-5.09-.08-10.19-.07-15.28,0a3.89,3.89,0,0,0-4,4,4,4,0,0,0,4.27,3.77C139.63,191.71,142.07,191.7,144.51,191.7Z"/></g><rect class="cls-2" x="132.81" y="183.77" width="23.44" height="8.02" rx="3.98"/></g></g></svg>