<svg xmlns="http://www.w3.org/2000/svg" viewBox="0 0 487 378"><defs><style>.cls-1{fill:#1bb6ea;}.cls-2{fill:#f4f4f4;stroke:#62e0c2;stroke-miterlimit:10;stroke-width:0.17px;}</style></defs><g id="Layer_2" data-name="Layer 2"><g id="Layer_1-2" data-name="Layer 1"><rect class="cls-1" width="487" height="378"/><path class="cls-2" d="M305.45,200.13l-5.19,0-.13-19.73,5.19,0,0,2.66a9.51,9.51,0,0,1,2.83-2.27,7.36,7.36,0,0,1,3.44-.92l0,5.07a6.73,6.73,0,0,0-1.43-.12,6.82,6.82,0,0,0-2.77.68,4.57,4.57,0,0,0-2.07,1.6l.08,13Z"/><path class="cls-2" d="M288.18,196.11a4.6,4.6,0,0,0,3.63-1.62,6.89,6.89,0,0,0-.05-8.29,4.59,4.59,0,0,0-3.65-1.57,5.63,5.63,0,0,0-2.53.65,4.84,4.84,0,0,0-1.91,1.63l.05,6.94a5.11,5.11,0,0,0,1.95,1.6,5.26,5.26,0,0,0,2.51.66m1.67,4.61a7.48,7.48,0,0,1-6.11-3l.07,10.06-5.19,0-.18-27.25,5.19,0V183a7.39,7.39,0,0,1,6.07-3,8,8,0,0,1,6.33,2.72,11,11,0,0,1,2.48,7.56,11.14,11.14,0,0,1-2.38,7.62,8,8,0,0,1-6.29,2.82"/><path class="cls-2" d="M266.49,196.25a4.57,4.57,0,0,0,3.62-1.61,6.87,6.87,0,0,0-.05-8.3,4.61,4.61,0,0,0-3.65-1.57,5.83,5.83,0,0,0-2.53.65,4.84,4.84,0,0,0-1.91,1.63l0,6.95a5.94,5.94,0,0,0,4.47,2.25m1.66,4.61a7.46,7.46,0,0,1-6.1-3l.06,10.05-5.19,0-.18-27.25,5.19,0,0,2.49a7.34,7.34,0,0,1,6.07-3,8,8,0,0,1,6.33,2.71,13.07,13.07,0,0,1,.1,15.18,8,8,0,0,1-6.3,2.82"/><path class="cls-2" d="M244.63,196.4a4.53,4.53,0,0,0,3.71-1.68,6.31,6.31,0,0,0,1.32-4.12,6.19,6.19,0,0,0-1.38-4,5,5,0,0,0-7.39,0,6.25,6.25,0,0,0-1.32,4.08,6.34,6.34,0,0,0,1.37,4.1,4.52,4.52,0,0,0,3.69,1.63m7.61,1.56a11.1,11.1,0,0,1-15.18.1,11,11,0,0,1-.1-14.73,11.16,11.16,0,0,1,15.18-.1,10.91,10.91,0,0,1,.1,14.73"/><path class="cls-2" d="M230.44,201.11c-3.7,0-5.57-1.78-5.59-5.4l-.07-10.26-3.27,0,0-4.54,3.27,0,0-5.39,5.19,0,0,5.4,4,0,0,4.53-4,0,.06,8.87a2.51,2.51,0,0,0,.48,1.59,1.56,1.56,0,0,0,1.33.6,2.25,2.25,0,0,0,1.79-.62l1.13,3.95a6.38,6.38,0,0,1-4.32,1.3"/><path class="cls-2" d="M193.69,176.34l-11.43,11.57a1.67,1.67,0,0,0,0,2.32l2.34,2.3a1.67,1.67,0,0,0,2.31,0c1.58-1.61,3.18-3.2,4.75-4.82a1.1,1.1,0,0,1,0,.26q0,6.1.08,12.21a3.44,3.44,0,0,0,0,.64,1.66,1.66,0,0,0,1.6,1.3l3.28,0a1.66,1.66,0,0,0,1.52-1.07,3.09,3.09,0,0,0,.1-1.09q0-6.15-.08-12.28,2.33,2.31,4.67,4.6a2.53,2.53,0,0,0,.53.45,1.61,1.61,0,0,0,1.69-.06,5.27,5.27,0,0,0,.55-.51l1.75-1.77a3.33,3.33,0,0,0,.54-.64,1.7,1.7,0,0,0-.3-1.95l-11.55-11.38a1.67,1.67,0,0,0-2.42,0h0m-.26-6.9a21.09,21.09,0,0,1,5.61.35,19.65,19.65,0,0,1,15.09,15,20.16,20.16,0,0,1-.49,10.34,19.73,19.73,0,0,1-6.9,9.61,19.22,19.22,0,0,1-9.42,3.77,19.52,19.52,0,0,1-10.58-1.65,19.73,19.73,0,0,1-7.45-6,19.51,19.51,0,0,1-3.64-15.28,19.43,19.43,0,0,1,3.46-8.1,19.47,19.47,0,0,1,14.32-8"/></g></g></svg>